<?xml version="1.0" encoding="UTF-8"?>
<svg id="Layer_1" data-name="Layer 1" xmlns="http://www.w3.org/2000/svg" viewBox="0 0 345.07 237.14">
  <defs>
    <style>
      .cls-1, .cls-2 {
        fill: #3d3c3a;
        stroke: #000;
        stroke-linecap: round;
        stroke-linejoin: round;
      }

      .cls-2 {
        stroke-width: 1.14px;
      }
    </style>
  </defs>
  <path class="cls-1" d="M332.57,8.35c4.41,0,8,3.59,8,8v205.33c0,4.41-3.59,8-8,8H12.5c-4.41,0-8-3.59-8-8V16.35c0-4.41,3.59-8,8-8h320.07M332.57,4.35H12.5C5.9,4.35.5,9.75.5,16.35v205.33c0,6.6,5.4,12,12,12h320.07c6.6,0,12-5.4,12-12V16.35c0-6.6-5.4-12-12-12h0Z"/>
  <g>
    <rect class="cls-2" x="17.3" y=".57" width="4" height="236" rx="1.76" ry="1.76"/>
    <rect class="cls-2" x="28.65" y=".57" width="4" height="236" rx="1.76" ry="1.76"/>
    <rect class="cls-2" x="40" y=".57" width="4" height="236" rx="1.76" ry="1.76"/>
    <rect class="cls-2" x="51.35" y=".57" width="4" height="236" rx="1.76" ry="1.76"/>
    <rect class="cls-2" x="62.7" y=".57" width="4" height="236" rx="1.76" ry="1.76"/>
    <rect class="cls-2" x="74.06" y=".57" width="4" height="236" rx="1.76" ry="1.76"/>
    <rect class="cls-2" x="85.41" y=".57" width="4" height="236" rx="1.76" ry="1.76"/>
    <rect class="cls-2" x="96.76" y=".57" width="4" height="236" rx="1.76" ry="1.76"/>
    <rect class="cls-2" x="108.11" y=".57" width="4" height="236" rx="1.76" ry="1.76"/>
    <rect class="cls-2" x="119.46" y=".57" width="4" height="236" rx="1.76" ry="1.76"/>
    <rect class="cls-2" x="130.81" y=".57" width="4" height="236" rx="1.76" ry="1.76"/>
    <rect class="cls-2" x="142.16" y=".57" width="4" height="236" rx="1.76" ry="1.76"/>
    <rect class="cls-2" x="153.51" y=".57" width="4" height="236" rx="1.76" ry="1.76"/>
    <rect class="cls-2" x="164.86" y=".57" width="4" height="236" rx="1.76" ry="1.76"/>
    <rect class="cls-2" x="176.21" y=".57" width="4" height="236" rx="1.76" ry="1.76"/>
    <rect class="cls-2" x="187.56" y=".57" width="4" height="236" rx="1.76" ry="1.76"/>
    <rect class="cls-2" x="198.91" y=".57" width="4" height="236" rx="1.76" ry="1.76"/>
    <rect class="cls-2" x="210.26" y=".57" width="4" height="236" rx="1.76" ry="1.76"/>
    <rect class="cls-2" x="221.61" y=".57" width="4" height="236" rx="1.76" ry="1.76"/>
    <rect class="cls-2" x="232.96" y=".57" width="4" height="236" rx="1.76" ry="1.76"/>
    <rect class="cls-2" x="244.31" y=".57" width="4" height="236" rx="1.76" ry="1.76"/>
    <rect class="cls-2" x="255.66" y=".57" width="4" height="236" rx="1.76" ry="1.76"/>
    <rect class="cls-2" x="267.01" y=".57" width="4" height="236" rx="1.76" ry="1.76"/>
    <rect class="cls-2" x="278.37" y=".57" width="4" height="236" rx="1.76" ry="1.76"/>
    <rect class="cls-2" x="289.72" y=".57" width="4" height="236" rx="1.76" ry="1.76"/>
    <rect class="cls-2" x="301.07" y=".57" width="4" height="236" rx="1.76" ry="1.76"/>
    <rect class="cls-2" x="312.42" y=".57" width="4" height="236" rx="1.76" ry="1.76"/>
    <rect class="cls-2" x="323.77" y=".57" width="4" height="236" rx="1.76" ry="1.76"/>
  </g>
</svg>