<?xml version="1.0" encoding="UTF-8"?>
<svg id="Layer_1" data-name="Layer 1" xmlns="http://www.w3.org/2000/svg" xmlns:xlink="http://www.w3.org/1999/xlink" viewBox="0 0 105 105">
  <defs>
    <style>
      .cls-1 {
        fill: none;
        filter: url(#drop-shadow-18);
        stroke: url(#linear-gradient-2);
        stroke-miterlimit: 10;
      }

      .cls-2 {
        fill: url(#linear-gradient);
        filter: url(#drop-shadow-17);
        stroke-width: 0px;
      }
    </style>
    <linearGradient id="linear-gradient" x1="52.5" y1="15.85" x2="52.5" y2="89.15" gradientUnits="userSpaceOnUse">
      <stop offset="0" stop-color="#fefaf2"/>
      <stop offset="1" stop-color="#f8eed8"/>
    </linearGradient>
    <filter id="drop-shadow-17" filterUnits="userSpaceOnUse">
      <feOffset dx="0" dy="0"/>
      <feGaussianBlur result="blur" stdDeviation="5"/>
      <feFlood flood-color="#000" flood-opacity=".25"/>
      <feComposite in2="blur" operator="in"/>
      <feComposite in="SourceGraphic"/>
    </filter>
    <linearGradient id="linear-gradient-2" x1="86.23" y1="34.35" x2="26.91" y2="68.6" gradientUnits="userSpaceOnUse">
      <stop offset="0" stop-color="#f8ecd2"/>
      <stop offset="1" stop-color="#f5e2bb"/>
    </linearGradient>
    <filter id="drop-shadow-18" filterUnits="userSpaceOnUse">
      <feOffset dx="0" dy="0"/>
      <feGaussianBlur result="blur-2" stdDeviation="5"/>
      <feFlood flood-color="#000" flood-opacity=".25"/>
      <feComposite in2="blur-2" operator="in"/>
      <feComposite in="SourceGraphic"/>
    </filter>
  </defs>
  <path class="cls-2" d="M21.13,37.87c-.26-1.82-1.13-3.53-1.15-5.37-.04-3.91,3.86-6.84,7.71-7.54s7.79.13,11.7.1c.85,0,1.7-.06,2.51-.32.83-.28,1.58-.77,2.29-1.29,4.71-3.39,9.43-8,15.21-7.55,2.3.18,4.46,1.17,6.55,2.16,2.83,1.33,5.72,2.72,7.93,4.93,2.01,2.01,3.35,4.59,5.32,6.64,2.58,2.69,6.2,4.42,8.13,7.62,2.28,3.79,1.58,8.63.24,12.84s-3.27,8.36-3.25,12.78c0,2.63.71,5.2,1.04,7.81s.23,5.42-1.2,7.63c-.96,1.47-2.42,2.54-3.92,3.46-8.36,5.1-18.43,6.42-28.18,7.29-1.14.1-2.3.2-3.42-.07-1.07-.26-2.03-.83-2.96-1.41-4.29-2.67-8.65-5.91-10.35-10.67-1.21-3.39-.91-7.17-2.02-10.6-1.16-3.59-3.77-6.53-6.67-8.93-2.31-1.92-10.07-5.55-10.4-8.71-.19-1.84,2.22-3.4,3.17-4.71,1.29-1.77,2.07-3.85,1.75-6.07Z"/>
  <path class="cls-1" d="M21.13,37.87c-.26-1.82-1.13-3.53-1.15-5.37-.04-3.91,3.86-6.84,7.71-7.54s7.79.13,11.7.1c.85,0,1.7-.06,2.51-.32.83-.28,1.58-.77,2.29-1.29,4.71-3.39,9.43-8,15.21-7.55,2.3.18,4.46,1.17,6.55,2.16,2.83,1.33,5.72,2.72,7.93,4.93,2.01,2.01,3.35,4.59,5.32,6.64,2.58,2.69,6.2,4.42,8.13,7.62,2.28,3.79,1.58,8.63.24,12.84s-3.27,8.36-3.25,12.78c0,2.63.71,5.2,1.04,7.81s.23,5.42-1.2,7.63c-.96,1.47-2.42,2.54-3.92,3.46-8.36,5.1-18.43,6.42-28.18,7.29-1.14.1-2.3.2-3.42-.07-1.07-.26-2.03-.83-2.96-1.41-4.29-2.67-8.65-5.91-10.35-10.67-1.21-3.39-.91-7.17-2.02-10.6-1.16-3.59-3.77-6.53-6.67-8.93-2.31-1.92-10.07-5.55-10.4-8.71-.19-1.84,2.22-3.4,3.17-4.71,1.29-1.77,2.07-3.85,1.75-6.07Z"/>
</svg>