<?xml version="1.0" encoding="UTF-8"?>
<svg id="Layer_1" data-name="Layer 1" xmlns="http://www.w3.org/2000/svg" xmlns:xlink="http://www.w3.org/1999/xlink" viewBox="0 0 105 105">
  <defs>
    <style>
      .cls-1 {
        fill: url(#linear-gradient-6);
      }

      .cls-1, .cls-2, .cls-3, .cls-4, .cls-5, .cls-6, .cls-7, .cls-8 {
        stroke: #4a2700;
        stroke-linecap: round;
        stroke-linejoin: round;
      }

      .cls-1, .cls-3, .cls-4, .cls-6, .cls-7, .cls-8 {
        stroke-width: .26px;
      }

      .cls-2 {
        fill: url(#linear-gradient);
        filter: url(#drop-shadow-7);
        stroke-width: .5px;
      }

      .cls-3 {
        fill: url(#linear-gradient-5);
      }

      .cls-4 {
        fill: url(#linear-gradient-7);
      }

      .cls-5 {
        fill: #ebae49;
        stroke-width: .25px;
      }

      .cls-6 {
        fill: url(#linear-gradient-4);
      }

      .cls-7 {
        fill: url(#linear-gradient-2);
      }

      .cls-8 {
        fill: url(#linear-gradient-3);
      }
    </style>
    <linearGradient id="linear-gradient" x1="2.91" y1="52.5" x2="102.09" y2="52.5" gradientUnits="userSpaceOnUse">
      <stop offset="0" stop-color="#dba040"/>
      <stop offset="1" stop-color="#ebae49"/>
    </linearGradient>
    <filter id="drop-shadow-7" filterUnits="userSpaceOnUse">
      <feOffset dx="0" dy="0"/>
      <feGaussianBlur result="blur" stdDeviation="5"/>
      <feFlood flood-color="#000" flood-opacity=".25"/>
      <feComposite in2="blur" operator="in"/>
      <feComposite in="SourceGraphic"/>
    </filter>
    <linearGradient id="linear-gradient-2" x1="-25.54" y1="71.44" x2="-25.41" y2="71.44" gradientUnits="userSpaceOnUse">
      <stop offset="0" stop-color="#945a14"/>
      <stop offset="1" stop-color="#965a18"/>
    </linearGradient>
    <linearGradient id="linear-gradient-3" x1="-25.54" y1="77.22" x2="-25.41" y2="77.22" gradientUnits="userSpaceOnUse">
      <stop offset="0" stop-color="#945a14"/>
      <stop offset="1" stop-color="#965a18"/>
    </linearGradient>
    <linearGradient id="linear-gradient-4" x1="-25.54" y1="71.44" x2="-25.41" y2="71.44" xlink:href="#linear-gradient-3"/>
    <linearGradient id="linear-gradient-5" x1="-25.54" y1="33.56" x2="-25.41" y2="33.56" xlink:href="#linear-gradient-3"/>
    <linearGradient id="linear-gradient-6" y1="27.78" y2="27.78" xlink:href="#linear-gradient-3"/>
    <linearGradient id="linear-gradient-7" x1="-25.54" y1="33.56" x2="-25.41" y2="33.56" xlink:href="#linear-gradient-3"/>
  </defs>
  <path class="cls-2" d="M96.79,52.5c3.21-2.39,5.3-6.24,5.3-10.56,0-5.99-3.99-11.05-9.43-12.62.53-2.13.51-4.38-.09-6.56-.92-3.36-3.1-6.17-6.13-7.92-2.01-1.16-4.29-1.77-6.6-1.77-1.82,0-3.58.38-5.2,1.08-.46-3.98-2.75-7.71-6.5-9.87-2.01-1.16-4.29-1.77-6.6-1.77-3.42,0-6.66,1.34-9.05,3.64-2.39-2.3-5.63-3.64-9.05-3.64-2.31,0-4.59.61-6.6,1.77-3.75,2.16-6.03,5.9-6.5,9.87-1.62-.7-3.38-1.08-5.2-1.08-2.31,0-4.59.61-6.6,1.77-3.03,1.75-5.21,4.56-6.13,7.92-.6,2.18-.62,4.43-.09,6.56-5.44,1.57-9.43,6.63-9.43,12.62,0,4.33,2.09,8.17,5.3,10.56-3.21,2.39-5.3,6.24-5.3,10.56,0,5.99,3.99,11.05,9.43,12.62-1.36,5.49,1.03,11.48,6.21,14.48,2.01,1.16,4.29,1.77,6.6,1.77,1.81,0,3.58-.38,5.19-1.08.08.65.2,1.3.38,1.95.92,3.36,3.1,6.17,6.13,7.92,2.01,1.16,4.29,1.77,6.6,1.77h0c3.42,0,6.66-1.34,9.05-3.64,2.39,2.3,5.63,3.64,9.05,3.64,2.31,0,4.59-.61,6.6-1.77,3.03-1.75,5.21-4.56,6.13-7.92.18-.65.3-1.3.38-1.95,1.61.7,3.38,1.08,5.19,1.08h0c2.3,0,4.59-.61,6.6-1.77,3.03-1.75,5.21-4.56,6.13-7.92.6-2.18.62-4.43.09-6.56,5.44-1.57,9.43-6.63,9.43-12.62,0-4.33-2.09-8.17-5.3-10.56Z"/>
  <g>
    <path class="cls-7" d="M19.84,87.95c3.43,1.98,7.5,1.84,10.66-.02.4-.23.72-.57.95-.98l19.31-33.45H12.15c-.46,0-.92.11-1.32.34-3.19,1.81-5.36,5.26-5.36,9.23,0,5.83,4.67,10.56,10.44,10.56-2.88,4.99-1.12,11.4,3.93,14.32Z"/>
    <path class="cls-8" d="M52.5,54.5h0s0,0,0,0l-19.31,33.45c-.23.4-.36.85-.37,1.31-.03,3.67,1.88,7.27,5.31,9.25,5.05,2.92,11.48,1.24,14.37-3.76,2.88,4.99,9.31,6.67,14.37,3.76,3.43-1.98,5.35-5.58,5.31-9.25,0-.46-.14-.91-.37-1.31l-19.31-33.45Z"/>
    <path class="cls-6" d="M92.85,53.5h-38.62l19.32,33.45c.23.4.56.74.95.98,3.16,1.86,7.23,2,10.66.02,5.05-2.92,6.81-9.33,3.93-14.32,5.76,0,10.44-4.73,10.44-10.56,0-3.97-2.16-7.42-5.36-9.23-.4-.23-.86-.34-1.32-.34Z"/>
    <path class="cls-3" d="M85.16,17.05c-3.43-1.98-7.51-1.84-10.67.02-.4.23-.72.57-.95.97l-19.31,33.45h38.63c.46,0,.92-.11,1.32-.34,3.19-1.81,5.35-5.26,5.35-9.22,0-5.83-4.67-10.56-10.44-10.56,2.88-4.99,1.12-11.4-3.93-14.32Z"/>
    <path class="cls-1" d="M52.5,50.5h0s0,0,0,0l19.31-33.45c.23-.4.36-.85.37-1.31.03-3.67-1.88-7.26-5.31-9.25-5.05-2.92-11.48-1.24-14.37,3.76-2.88-4.99-9.31-6.67-14.37-3.76-3.43,1.98-5.34,5.58-5.31,9.25,0,.46.14.91.37,1.31l19.31,33.45Z"/>
    <path class="cls-4" d="M12.14,51.5h38.63L31.46,18.05c-.23-.4-.56-.74-.95-.97-3.16-1.86-7.23-2.01-10.67-.02-5.05,2.92-6.81,9.33-3.93,14.32-5.76,0-10.44,4.73-10.44,10.56,0,3.96,2.16,7.42,5.35,9.22.4.23.86.34,1.32.34Z"/>
  </g>
  <g>
    <path class="cls-5" d="M52.28,47.53l-1.44-2.49c-.05-.08-.05-.18,0-.26l1.44-2.46c.1-.17.34-.17.44,0l1.44,2.46c.05.08.05.18,0,.26l-1.44,2.49c-.1.17-.34.17-.44,0Z"/>
    <path class="cls-5" d="M49.66,43l-1.44-2.49c-.05-.08-.05-.18,0-.26l1.44-2.46c.1-.17.34-.17.44,0l1.44,2.46c.05.08.05.18,0,.26l-1.44,2.49c-.1.17-.34.17-.44,0Z"/>
    <path class="cls-5" d="M47.04,38.46l-1.44-2.49c-.05-.08-.05-.18,0-.26l1.44-2.46c.1-.17.34-.17.44,0l1.44,2.46c.05.08.05.18,0,.26l-1.44,2.49c-.1.17-.34.17-.44,0Z"/>
    <path class="cls-5" d="M44.43,33.93l-1.44-2.49c-.05-.08-.05-.18,0-.26l1.44-2.46c.1-.17.34-.17.44,0l1.44,2.46c.05.08.05.18,0,.26l-1.44,2.49c-.1.17-.34.17-.44,0Z"/>
    <path class="cls-5" d="M41.81,29.4l-1.44-2.49c-.05-.08-.05-.18,0-.26l1.44-2.46c.1-.17.34-.17.44,0l1.44,2.46c.05.08.05.18,0,.26l-1.44,2.49c-.1.17-.34.17-.44,0Z"/>
    <path class="cls-5" d="M39.19,24.86l-1.44-2.49c-.05-.08-.05-.18,0-.26l1.44-2.46c.1-.17.34-.17.44,0l1.44,2.46c.05.08.05.18,0,.26l-1.44,2.49c-.1.17-.34.17-.44,0Z"/>
    <path class="cls-5" d="M36.57,20.33l-1.44-2.49c-.05-.08-.05-.18,0-.26l1.44-2.46c.1-.17.34-.17.44,0l1.44,2.46c.05.08.05.18,0,.26l-1.44,2.49c-.1.17-.34.17-.44,0Z"/>
    <path class="cls-5" d="M54.9,43l-1.44-2.49c-.05-.08-.05-.18,0-.26l1.44-2.46c.1-.17.34-.17.44,0l1.44,2.46c.05.08.05.18,0,.26l-1.44,2.49c-.1.17-.34.17-.44,0Z"/>
    <path class="cls-5" d="M52.28,38.47l-1.44-2.49c-.05-.08-.05-.18,0-.26l1.44-2.46c.1-.17.34-.17.44,0l1.44,2.46c.05.08.05.18,0,.26l-1.44,2.49c-.1.17-.34.17-.44,0Z"/>
    <path class="cls-5" d="M49.66,33.93l-1.44-2.49c-.05-.08-.05-.18,0-.26l1.44-2.46c.1-.17.34-.17.44,0l1.44,2.46c.05.08.05.18,0,.26l-1.44,2.49c-.1.17-.34.17-.44,0Z"/>
    <path class="cls-5" d="M47.04,29.4l-1.44-2.49c-.05-.08-.05-.18,0-.26l1.44-2.46c.1-.17.34-.17.44,0l1.44,2.46c.05.08.05.18,0,.26l-1.44,2.49c-.1.17-.34.17-.44,0Z"/>
    <path class="cls-5" d="M44.43,24.86l-1.44-2.49c-.05-.08-.05-.18,0-.26l1.44-2.46c.1-.17.34-.17.44,0l1.44,2.46c.05.08.05.18,0,.26l-1.44,2.49c-.1.17-.34.17-.44,0Z"/>
    <path class="cls-5" d="M41.81,20.33l-1.44-2.49c-.05-.08-.05-.18,0-.26l1.44-2.46c.1-.17.34-.17.44,0l1.44,2.46c.05.08.05.18,0,.26l-1.44,2.49c-.1.17-.34.17-.44,0Z"/>
    <path class="cls-5" d="M39.19,15.8l-1.44-2.49c-.05-.08-.05-.18,0-.26l1.44-2.46c.1-.17.34-.17.44,0l1.44,2.46c.05.08.05.18,0,.26l-1.44,2.49c-.1.17-.34.17-.44,0Z"/>
    <path class="cls-5" d="M57.51,38.47l-1.44-2.49c-.05-.08-.05-.18,0-.26l1.44-2.46c.1-.17.34-.17.44,0l1.44,2.46c.05.08.05.18,0,.26l-1.44,2.49c-.1.17-.34.17-.44,0Z"/>
    <path class="cls-5" d="M54.9,33.93l-1.44-2.49c-.05-.08-.05-.18,0-.26l1.44-2.46c.1-.17.34-.17.44,0l1.44,2.46c.05.08.05.18,0,.26l-1.44,2.49c-.1.17-.34.17-.44,0Z"/>
    <path class="cls-5" d="M52.28,29.4l-1.44-2.49c-.05-.08-.05-.18,0-.26l1.44-2.46c.1-.17.34-.17.44,0l1.44,2.46c.05.08.05.18,0,.26l-1.44,2.49c-.1.17-.34.17-.44,0Z"/>
    <path class="cls-5" d="M49.66,24.87l-1.44-2.49c-.05-.08-.05-.18,0-.26l1.44-2.46c.1-.17.34-.17.44,0l1.44,2.46c.05.08.05.18,0,.26l-1.44,2.49c-.1.17-.34.17-.44,0Z"/>
    <path class="cls-5" d="M47.04,20.33l-1.44-2.49c-.05-.08-.05-.18,0-.26l1.44-2.46c.1-.17.34-.17.44,0l1.44,2.46c.05.08.05.18,0,.26l-1.44,2.49c-.1.17-.34.17-.44,0Z"/>
    <path class="cls-5" d="M44.43,15.8l-1.44-2.49c-.05-.08-.05-.18,0-.26l1.44-2.46c.1-.17.34-.17.44,0l1.44,2.46c.05.08.05.18,0,.26l-1.44,2.49c-.1.17-.34.17-.44,0Z"/>
    <path class="cls-5" d="M60.13,33.93l-1.44-2.49c-.05-.08-.05-.18,0-.26l1.44-2.46c.1-.17.34-.17.44,0l1.44,2.46c.05.08.05.18,0,.26l-1.44,2.49c-.1.17-.34.17-.44,0Z"/>
    <path class="cls-5" d="M57.51,29.4l-1.44-2.49c-.05-.08-.05-.18,0-.26l1.44-2.46c.1-.17.34-.17.44,0l1.44,2.46c.05.08.05.18,0,.26l-1.44,2.49c-.1.17-.34.17-.44,0Z"/>
    <path class="cls-5" d="M54.9,24.87l-1.44-2.49c-.05-.08-.05-.18,0-.26l1.44-2.46c.1-.17.34-.17.44,0l1.44,2.46c.05.08.05.18,0,.26l-1.44,2.49c-.1.17-.34.17-.44,0Z"/>
    <path class="cls-5" d="M52.28,20.33l-1.44-2.49c-.05-.08-.05-.18,0-.26l1.44-2.46c.1-.17.34-.17.44,0l1.44,2.46c.05.08.05.18,0,.26l-1.44,2.49c-.1.17-.34.17-.44,0Z"/>
    <path class="cls-5" d="M62.75,29.4l-1.44-2.49c-.05-.08-.05-.18,0-.26l1.44-2.46c.1-.17.34-.17.44,0l1.44,2.46c.05.08.05.18,0,.26l-1.44,2.49c-.1.17-.34.17-.44,0Z"/>
    <path class="cls-5" d="M60.13,24.87l-1.44-2.49c-.05-.08-.05-.18,0-.26l1.44-2.46c.1-.17.34-.17.44,0l1.44,2.46c.05.08.05.18,0,.26l-1.44,2.49c-.1.17-.34.17-.44,0Z"/>
    <path class="cls-5" d="M57.51,20.33l-1.44-2.49c-.05-.08-.05-.18,0-.26l1.44-2.46c.1-.17.34-.17.44,0l1.44,2.46c.05.08.05.18,0,.26l-1.44,2.49c-.1.17-.34.17-.44,0Z"/>
    <path class="cls-5" d="M54.9,15.8l-1.7-2.95c-.05-.08-.05-.18,0-.25.51-.91,1.02-1.69,1.53-2.35.11-.14.33-.13.42.03l1.63,2.79c.05.08.05.18,0,.26l-1.44,2.49c-.1.17-.34.17-.44,0Z"/>
    <path class="cls-5" d="M65.37,24.87l-1.44-2.49c-.05-.08-.05-.18,0-.26l1.44-2.46c.1-.17.34-.17.44,0l1.44,2.46c.05.08.05.18,0,.26l-1.44,2.49c-.1.17-.34.17-.44,0Z"/>
    <path class="cls-5" d="M62.75,20.33l-1.44-2.49c-.05-.08-.05-.18,0-.26l1.44-2.46c.1-.17.34-.17.44,0l1.44,2.46c.05.08.05.18,0,.26l-1.44,2.49c-.1.17-.34.17-.44,0Z"/>
    <path class="cls-5" d="M60.13,15.8l-1.44-2.49c-.05-.08-.05-.18,0-.26l1.44-2.46c.1-.17.34-.17.44,0l1.44,2.46c.05.08.05.18,0,.26l-1.44,2.49c-.1.17-.34.17-.44,0Z"/>
    <path class="cls-5" d="M57.51,11.27l-1.26-2.19c-.06-.11-.04-.26.06-.33.67-.5,1.43-.89,2.28-1.18.11-.04.24.01.3.12l.49.84c.05.08.05.18,0,.26l-1.44,2.49c-.1.17-.34.17-.44,0Z"/>
    <path class="cls-5" d="M67.98,20.33l-1.44-2.49c-.05-.08-.05-.18,0-.26l1.44-2.46c.1-.17.34-.17.44,0l1.44,2.46c.05.08.05.18,0,.26l-1.44,2.49c-.1.17-.34.17-.44,0Z"/>
    <path class="cls-5" d="M65.37,15.8l-1.44-2.49c-.05-.08-.05-.18,0-.26l1.44-2.46c.1-.17.34-.17.44,0l1.44,2.46c.05.08.05.18,0,.26l-1.44,2.49c-.1.17-.34.17-.44,0Z"/>
    <path class="cls-5" d="M62.75,11.27l-1.44-2.49c-.05-.08-.05-.18,0-.26l.75-1.29c.05-.09.15-.14.24-.13.55.05,1.08.13,1.56.27.06.02.12.06.15.12.13.22.45.78.6,1.03.05.08.05.18,0,.26l-1.44,2.49c-.1.17-.34.17-.44,0Z"/>
    <path class="cls-5" d="M69.71,12.13s.7.96.9,2.9c.03.28-.35.39-.48.14l-.96-1.87c-.04-.08-.04-.17,0-.25l.54-.93"/>
    <path class="cls-5" d="M67.98,11.27l-1.04-1.81c-.14-.25.16-.51.38-.33.48.39.93.84,1.35,1.38.06.08.07.2.02.29l-.24.42c-.12.22-.37.22-.47.05Z"/>
    <path class="cls-5" d="M50.1,15.8l1.7-2.95c.05-.08.05-.18,0-.25-.51-.91-1.02-1.69-1.53-2.35-.11-.14-.33-.13-.42.03-.41.7-1.35,2.32-1.63,2.79-.05.08-.05.18,0,.26l1.44,2.49c.1.17.34.17.44,0Z"/>
    <path class="cls-5" d="M47.49,11.27l1.26-2.19c.06-.11.04-.26-.06-.33-.67-.5-1.43-.89-2.28-1.18-.11-.04-.24.01-.3.12l-.49.84c-.05.08-.05.18,0,.26l1.44,2.49c.1.17.34.17.44,0Z"/>
    <path class="cls-5" d="M42.25,11.27l1.44-2.49c.05-.08.05-.18,0-.26l-.75-1.29c-.05-.09-.15-.14-.24-.13-.55.05-1.08.13-1.56.27-.06.02-.12.06-.15.12-.13.22-.45.78-.6,1.03-.05.08-.05.18,0,.26l1.44,2.49c.1.17.34.17.44,0Z"/>
    <path class="cls-5" d="M35.29,12.13s-.7.96-.9,2.9c-.03.28.35.39.48.14l.96-1.87c.04-.08.04-.17,0-.25l-.54-.93"/>
    <path class="cls-5" d="M37.02,11.27l1.04-1.81c.14-.25-.16-.51-.38-.33-.48.39-.93.84-1.35,1.38-.06.08-.07.2-.02.29l.24.42c.12.22.37.22.47.05Z"/>
    <path class="cls-5" d="M52.72,57.47l1.44,2.49c.05.08.05.18,0,.26l-1.44,2.46c-.1.17-.34.17-.44,0l-1.44-2.46c-.05-.08-.05-.18,0-.26l1.44-2.49c.1-.17.34-.17.44,0Z"/>
    <path class="cls-5" d="M55.34,62l1.44,2.49c.05.08.05.18,0,.26l-1.44,2.46c-.1.17-.34.17-.44,0l-1.44-2.46c-.05-.08-.05-.18,0-.26l1.44-2.49c.1-.17.34-.17.44,0Z"/>
    <path class="cls-5" d="M57.96,66.54l1.44,2.49c.05.08.05.18,0,.26l-1.44,2.46c-.1.17-.34.17-.44,0l-1.44-2.46c-.05-.08-.05-.18,0-.26l1.44-2.49c.1-.17.34-.17.44,0Z"/>
    <path class="cls-5" d="M60.57,71.07l1.44,2.49c.05.08.05.18,0,.26l-1.44,2.46c-.1.17-.34.17-.44,0l-1.44-2.46c-.05-.08-.05-.18,0-.26l1.44-2.49c.1-.17.34-.17.44,0Z"/>
    <path class="cls-5" d="M63.19,75.6l1.44,2.49c.05.08.05.18,0,.26l-1.44,2.46c-.1.17-.34.17-.44,0l-1.44-2.46c-.05-.08-.05-.18,0-.26l1.44-2.49c.1-.17.34-.17.44,0Z"/>
    <path class="cls-5" d="M65.81,80.14l1.44,2.49c.05.08.05.18,0,.26l-1.44,2.46c-.1.17-.34.17-.44,0l-1.44-2.46c-.05-.08-.05-.18,0-.26l1.44-2.49c.1-.17.34-.17.44,0Z"/>
    <path class="cls-5" d="M68.43,84.67l1.44,2.49c.05.08.05.18,0,.26l-1.44,2.46c-.1.17-.34.17-.44,0l-1.44-2.46c-.05-.08-.05-.18,0-.26l1.44-2.49c.1-.17.34-.17.44,0Z"/>
    <path class="cls-5" d="M50.1,62l1.44,2.49c.05.08.05.18,0,.26l-1.44,2.46c-.1.17-.34.17-.44,0l-1.44-2.46c-.05-.08-.05-.18,0-.26l1.44-2.49c.1-.17.34-.17.44,0Z"/>
    <path class="cls-5" d="M52.72,66.53l1.44,2.49c.05.08.05.18,0,.26l-1.44,2.46c-.1.17-.34.17-.44,0l-1.44-2.46c-.05-.08-.05-.18,0-.26l1.44-2.49c.1-.17.34-.17.44,0Z"/>
    <path class="cls-5" d="M55.34,71.07l1.44,2.49c.05.08.05.18,0,.26l-1.44,2.46c-.1.17-.34.17-.44,0l-1.44-2.46c-.05-.08-.05-.18,0-.26l1.44-2.49c.1-.17.34-.17.44,0Z"/>
    <path class="cls-5" d="M57.96,75.6l1.44,2.49c.05.08.05.18,0,.26l-1.44,2.46c-.1.17-.34.17-.44,0l-1.44-2.46c-.05-.08-.05-.18,0-.26l1.44-2.49c.1-.17.34-.17.44,0Z"/>
    <path class="cls-5" d="M60.57,80.14l1.44,2.49c.05.08.05.18,0,.26l-1.44,2.46c-.1.17-.34.17-.44,0l-1.44-2.46c-.05-.08-.05-.18,0-.26l1.44-2.49c.1-.17.34-.17.44,0Z"/>
    <path class="cls-5" d="M63.19,84.67l1.44,2.49c.05.08.05.18,0,.26l-1.44,2.46c-.1.17-.34.17-.44,0l-1.44-2.46c-.05-.08-.05-.18,0-.26l1.44-2.49c.1-.17.34-.17.44,0Z"/>
    <path class="cls-5" d="M65.81,89.2l1.44,2.49c.05.08.05.18,0,.26l-1.44,2.46c-.1.17-.34.17-.44,0l-1.44-2.46c-.05-.08-.05-.18,0-.26l1.44-2.49c.1-.17.34-.17.44,0Z"/>
    <path class="cls-5" d="M47.49,66.53l1.44,2.49c.05.08.05.18,0,.26l-1.44,2.46c-.1.17-.34.17-.44,0l-1.44-2.46c-.05-.08-.05-.18,0-.26l1.44-2.49c.1-.17.34-.17.44,0Z"/>
    <path class="cls-5" d="M50.1,71.07l1.44,2.49c.05.08.05.18,0,.26l-1.44,2.46c-.1.17-.34.17-.44,0l-1.44-2.46c-.05-.08-.05-.18,0-.26l1.44-2.49c.1-.17.34-.17.44,0Z"/>
    <path class="cls-5" d="M52.72,75.6l1.44,2.49c.05.08.05.18,0,.26l-1.44,2.46c-.1.17-.34.17-.44,0l-1.44-2.46c-.05-.08-.05-.18,0-.26l1.44-2.49c.1-.17.34-.17.44,0Z"/>
    <path class="cls-5" d="M55.34,80.13l1.44,2.49c.05.08.05.18,0,.26l-1.44,2.46c-.1.17-.34.17-.44,0l-1.44-2.46c-.05-.08-.05-.18,0-.26l1.44-2.49c.1-.17.34-.17.44,0Z"/>
    <path class="cls-5" d="M57.96,84.67l1.44,2.49c.05.08.05.18,0,.26l-1.44,2.46c-.1.17-.34.17-.44,0l-1.44-2.46c-.05-.08-.05-.18,0-.26l1.44-2.49c.1-.17.34-.17.44,0Z"/>
    <path class="cls-5" d="M60.57,89.2l1.44,2.49c.05.08.05.18,0,.26l-1.44,2.46c-.1.17-.34.17-.44,0l-1.44-2.46c-.05-.08-.05-.18,0-.26l1.44-2.49c.1-.17.34-.17.44,0Z"/>
    <path class="cls-5" d="M44.87,71.07l1.44,2.49c.05.08.05.18,0,.26l-1.44,2.46c-.1.17-.34.17-.44,0l-1.44-2.46c-.05-.08-.05-.18,0-.26l1.44-2.49c.1-.17.34-.17.44,0Z"/>
    <path class="cls-5" d="M47.49,75.6l1.44,2.49c.05.08.05.18,0,.26l-1.44,2.46c-.1.17-.34.17-.44,0l-1.44-2.46c-.05-.08-.05-.18,0-.26l1.44-2.49c.1-.17.34-.17.44,0Z"/>
    <path class="cls-5" d="M50.1,80.13l1.44,2.49c.05.08.05.18,0,.26l-1.44,2.46c-.1.17-.34.17-.44,0l-1.44-2.46c-.05-.08-.05-.18,0-.26l1.44-2.49c.1-.17.34-.17.44,0Z"/>
    <path class="cls-5" d="M52.72,84.67l1.44,2.49c.05.08.05.18,0,.26l-1.44,2.46c-.1.17-.34.17-.44,0l-1.44-2.46c-.05-.08-.05-.18,0-.26l1.44-2.49c.1-.17.34-.17.44,0Z"/>
    <path class="cls-5" d="M42.25,75.6l1.44,2.49c.05.08.05.18,0,.26l-1.44,2.46c-.1.17-.34.17-.44,0l-1.44-2.46c-.05-.08-.05-.18,0-.26l1.44-2.49c.1-.17.34-.17.44,0Z"/>
    <path class="cls-5" d="M44.87,80.13l1.44,2.49c.05.08.05.18,0,.26l-1.44,2.46c-.1.17-.34.17-.44,0l-1.44-2.46c-.05-.08-.05-.18,0-.26l1.44-2.49c.1-.17.34-.17.44,0Z"/>
    <path class="cls-5" d="M47.49,84.67l1.44,2.49c.05.08.05.18,0,.26l-1.44,2.46c-.1.17-.34.17-.44,0l-1.44-2.46c-.05-.08-.05-.18,0-.26l1.44-2.49c.1-.17.34-.17.44,0Z"/>
    <path class="cls-5" d="M50.1,89.2l1.7,2.95c.05.08.05.18,0,.25-.51.91-1.02,1.69-1.53,2.35-.11.14-.33.13-.42-.03-.41-.7-1.35-2.32-1.63-2.79-.05-.08-.05-.18,0-.26l1.44-2.49c.1-.17.34-.17.44,0Z"/>
    <path class="cls-5" d="M39.63,80.13l1.44,2.49c.05.08.05.18,0,.26l-1.44,2.46c-.1.17-.34.17-.44,0l-1.44-2.46c-.05-.08-.05-.18,0-.26l1.44-2.49c.1-.17.34-.17.44,0Z"/>
    <path class="cls-5" d="M42.25,84.67l1.44,2.49c.05.08.05.18,0,.26l-1.44,2.46c-.1.17-.34.17-.44,0l-1.44-2.46c-.05-.08-.05-.18,0-.26l1.44-2.49c.1-.17.34-.17.44,0Z"/>
    <path class="cls-5" d="M44.87,89.2l1.44,2.49c.05.08.05.18,0,.26l-1.44,2.46c-.1.17-.34.17-.44,0l-1.44-2.46c-.05-.08-.05-.18,0-.26l1.44-2.49c.1-.17.34-.17.44,0Z"/>
    <path class="cls-5" d="M47.49,93.73l1.26,2.19c.06.11.04.26-.06.33-.67.5-1.43.89-2.28,1.18-.11.04-.24-.01-.3-.12l-.49-.84c-.05-.08-.05-.18,0-.26l1.44-2.49c.1-.17.34-.17.44,0Z"/>
    <path class="cls-5" d="M37.02,84.67l1.44,2.49c.05.08.05.18,0,.26l-1.44,2.46c-.1.17-.34.17-.44,0l-1.44-2.46c-.05-.08-.05-.18,0-.26l1.44-2.49c.1-.17.34-.17.44,0Z"/>
    <path class="cls-5" d="M39.63,89.2l1.44,2.49c.05.08.05.18,0,.26l-1.44,2.46c-.1.17-.34.17-.44,0l-1.44-2.46c-.05-.08-.05-.18,0-.26l1.44-2.49c.1-.17.34-.17.44,0Z"/>
    <path class="cls-5" d="M42.25,93.73l1.44,2.49c.05.08.05.18,0,.26l-.75,1.29c-.05.09-.15.14-.24.13-.55-.05-1.08-.13-1.56-.27-.06-.02-.12-.06-.15-.12-.13-.22-.45-.78-.6-1.03-.05-.08-.05-.18,0-.26l1.44-2.49c.1-.17.34-.17.44,0Z"/>
    <path class="cls-5" d="M35.29,92.87s-.7-.96-.9-2.9c-.03-.28.35-.39.48-.14l.96,1.87c.04.08.04.17,0,.25l-.54.93"/>
    <path class="cls-5" d="M37.02,93.73l1.04,1.81c.14.25-.16.51-.38.33-.48-.39-.93-.84-1.35-1.38-.06-.08-.07-.2-.02-.29l.24-.42c.12-.22.37-.22.47-.05Z"/>
    <path class="cls-5" d="M54.9,89.2l-1.7,2.95c-.05.08-.05.18,0,.25.51.91,1.02,1.69,1.53,2.35.11.14.33.13.42-.03l1.63-2.79c.05-.08.05-.18,0-.26l-1.44-2.49c-.1-.17-.34-.17-.44,0Z"/>
    <path class="cls-5" d="M57.51,93.73l-1.26,2.19c-.06.11-.04.26.06.33.67.5,1.43.89,2.28,1.18.11.04.24-.01.3-.12l.49-.84c.05-.08.05-.18,0-.26l-1.44-2.49c-.1-.17-.34-.17-.44,0Z"/>
    <path class="cls-5" d="M62.75,93.73l-1.44,2.49c-.05.08-.05.18,0,.26l.75,1.29c.05.09.15.14.24.13.55-.05,1.08-.13,1.56-.27.06-.02.12-.06.15-.12.13-.22.45-.78.6-1.03.05-.08.05-.18,0-.26l-1.44-2.49c-.1-.17-.34-.17-.44,0Z"/>
    <path class="cls-5" d="M69.71,92.87s.7-.96.9-2.9c.03-.28-.35-.39-.48-.14l-.96,1.87c-.04.08-.04.17,0,.25l.54.93"/>
    <path class="cls-5" d="M67.98,93.73l-1.04,1.81c-.14.25.16.51.38.33.48-.39.93-.84,1.35-1.38.06-.08.07-.2.02-.29l-.24-.42c-.12-.22-.37-.22-.47-.05Z"/>
    <path class="cls-5" d="M48.09,50.21h-2.87c-.09,0-.18-.05-.22-.13l-1.41-2.47c-.1-.17.03-.38.22-.38h2.85c.09-.01.18.04.22.11l1.44,2.49c.1.17-.02.38-.22.38Z"/>
    <path class="cls-5" d="M42.85,50.21h-2.87c-.09,0-.18-.05-.22-.13l-1.41-2.47c-.1-.17.03-.38.22-.38h2.85c.09-.01.18.04.22.11l1.44,2.49c.1.17-.02.38-.22.38Z"/>
    <path class="cls-5" d="M37.62,50.21h-2.87c-.09,0-.18-.05-.22-.13l-1.41-2.47c-.1-.17.03-.38.22-.38h2.85c.09-.01.18.04.22.11l1.44,2.49c.1.17-.02.38-.22.38Z"/>
    <path class="cls-5" d="M32.38,50.21h-2.87c-.09,0-.18-.05-.22-.13l-1.41-2.47c-.1-.17.03-.38.22-.38h2.85c.09-.01.18.04.22.11l1.44,2.49c.1.17-.02.38-.22.38Z"/>
    <path class="cls-5" d="M27.15,50.21h-2.87c-.09,0-.18-.05-.22-.13l-1.41-2.47c-.1-.17.03-.38.22-.38h2.85c.09-.01.18.04.22.11l1.44,2.49c.1.17-.02.38-.22.38Z"/>
    <path class="cls-5" d="M21.91,50.21h-2.87c-.09,0-.18-.05-.22-.13l-1.41-2.47c-.1-.17.03-.38.22-.38h2.85c.09-.01.18.04.22.11l1.44,2.49c.1.17-.02.38-.22.38Z"/>
    <path class="cls-5" d="M16.68,50.21h-2.87c-.09,0-.18-.05-.22-.13l-1.41-2.47c-.1-.17.03-.38.22-.38h2.85c.09-.01.18.04.22.11l1.44,2.49c.1.17-.02.38-.22.38Z"/>
    <path class="cls-5" d="M45.47,45.67h-2.87c-.09,0-.18-.05-.22-.13l-1.41-2.47c-.1-.17.03-.38.22-.38h2.85c.09-.01.18.04.22.11l1.44,2.49c.1.17-.02.38-.22.38Z"/>
    <path class="cls-5" d="M40.23,45.67h-2.87c-.09,0-.18-.05-.22-.13l-1.41-2.47c-.1-.17.03-.38.22-.38h2.85c.09-.01.18.04.22.11l1.44,2.49c.1.17-.02.38-.22.38Z"/>
    <path class="cls-5" d="M35,45.67h-2.87c-.09,0-.18-.05-.22-.13l-1.41-2.47c-.1-.17.03-.38.22-.38h2.85c.09-.01.18.04.22.11l1.44,2.49c.1.17-.02.38-.22.38Z"/>
    <path class="cls-5" d="M29.77,45.67h-2.87c-.09,0-.18-.05-.22-.13l-1.41-2.47c-.1-.17.03-.38.22-.38h2.85c.09-.01.18.04.22.11l1.44,2.49c.1.17-.02.38-.22.38Z"/>
    <path class="cls-5" d="M24.53,45.67h-2.87c-.09,0-.18-.05-.22-.13l-1.41-2.47c-.1-.17.03-.38.22-.38h2.85c.09-.01.18.04.22.11l1.44,2.49c.1.17-.02.38-.22.38Z"/>
    <path class="cls-5" d="M19.3,45.67h-2.87c-.09,0-.18-.05-.22-.13l-1.41-2.47c-.1-.17.03-.38.22-.38h2.85c.09-.01.18.04.22.11l1.44,2.49c.1.17-.02.38-.22.38Z"/>
    <path class="cls-5" d="M14.06,45.67h-2.87c-.09,0-.18-.05-.22-.13l-1.41-2.47c-.1-.17.03-.38.22-.38h2.85c.09-.01.18.04.22.11l1.44,2.49c.1.17-.02.38-.22.38Z"/>
    <path class="cls-5" d="M42.85,41.14h-2.87c-.09,0-.18-.05-.22-.13l-1.41-2.47c-.1-.17.03-.38.22-.38h2.85c.09-.01.18.04.22.11l1.44,2.49c.1.17-.02.38-.22.38Z"/>
    <path class="cls-5" d="M37.62,41.14h-2.87c-.09,0-.18-.05-.22-.13l-1.41-2.47c-.1-.17.03-.38.22-.38h2.85c.09-.01.18.04.22.11l1.44,2.49c.1.17-.02.38-.22.38Z"/>
    <path class="cls-5" d="M32.38,41.14h-2.87c-.09,0-.18-.05-.22-.13l-1.41-2.47c-.1-.17.03-.38.22-.38h2.85c.09-.01.18.04.22.11l1.44,2.49c.1.17-.02.38-.22.38Z"/>
    <path class="cls-5" d="M27.15,41.14h-2.87c-.09,0-.18-.05-.22-.13l-1.41-2.47c-.1-.17.03-.38.22-.38h2.85c.09-.01.18.04.22.11l1.44,2.49c.1.17-.02.38-.22.38Z"/>
    <path class="cls-5" d="M21.91,41.14h-2.87c-.09,0-.18-.05-.22-.13l-1.41-2.47c-.1-.17.03-.38.22-.38h2.85c.09-.01.18.04.22.11l1.44,2.49c.1.17-.02.38-.22.38Z"/>
    <path class="cls-5" d="M16.68,41.14h-2.87c-.09,0-.18-.05-.22-.13l-1.41-2.47c-.1-.17.03-.38.22-.38h2.85c.09-.01.18.04.22.11l1.44,2.49c.1.17-.02.38-.22.38Z"/>
    <path class="cls-5" d="M40.24,36.61h-2.87c-.09,0-.18-.05-.22-.13l-1.41-2.47c-.1-.17.03-.38.22-.38h2.85c.09-.01.18.04.22.11l1.44,2.49c.1.17-.02.38-.22.38Z"/>
    <path class="cls-5" d="M35,36.61h-2.87c-.09,0-.18-.05-.22-.13l-1.41-2.47c-.1-.17.03-.38.22-.38h2.85c.09-.01.18.04.22.11l1.44,2.49c.1.17-.02.38-.22.38Z"/>
    <path class="cls-5" d="M29.77,36.61h-2.87c-.09,0-.18-.05-.22-.13l-1.41-2.47c-.1-.17.03-.38.22-.38h2.85c.09-.01.18.04.22.11l1.44,2.49c.1.17-.02.38-.22.38Z"/>
    <path class="cls-5" d="M24.53,36.61h-2.87c-.09,0-.18-.05-.22-.13l-1.41-2.47c-.1-.17.03-.38.22-.38h2.85c.09-.01.18.04.22.11l1.44,2.49c.1.17-.02.38-.22.38Z"/>
    <path class="cls-5" d="M37.62,32.07h-2.87c-.09,0-.18-.05-.22-.13l-1.41-2.47c-.1-.17.03-.38.22-.38h2.85c.09-.01.18.04.22.11l1.44,2.49c.1.17-.02.38-.22.38Z"/>
    <path class="cls-5" d="M32.38,32.07h-2.87c-.09,0-.18-.05-.22-.13l-1.41-2.47c-.1-.17.03-.38.22-.38h2.85c.09-.01.18.04.22.11l1.44,2.49c.1.17-.02.38-.22.38Z"/>
    <path class="cls-5" d="M27.15,32.07h-2.87c-.09,0-.18-.05-.22-.13l-1.41-2.47c-.1-.17.03-.38.22-.38h2.85c.09-.01.18.04.22.11l1.44,2.49c.1.17-.02.38-.22.38Z"/>
    <path class="cls-5" d="M21.91,32.07h-3.41c-.09,0-.18-.05-.22-.13-.54-.9-.96-1.73-1.27-2.5-.07-.17.05-.35.23-.35.81,0,2.69-.01,3.23-.01.09,0,.18.05.22.13l1.44,2.49c.1.17-.02.38-.22.38Z"/>
    <path class="cls-5" d="M35,27.54h-2.87c-.09,0-.18-.05-.22-.13l-1.41-2.47c-.1-.17.03-.38.22-.38h2.85c.09-.01.18.04.22.11l1.44,2.49c.1.17-.02.38-.22.38Z"/>
    <path class="cls-5" d="M29.77,27.54h-2.87c-.09,0-.18-.05-.22-.13l-1.41-2.47c-.1-.17.03-.38.22-.38h2.85c.09-.01.18.04.22.11l1.44,2.49c.1.17-.02.38-.22.38Z"/>
    <path class="cls-5" d="M24.53,27.54h-2.87c-.09,0-.18-.05-.22-.13l-1.41-2.47c-.1-.17.03-.38.22-.38h2.85c.09-.01.18.04.22.11l1.44,2.49c.1.17-.02.38-.22.38Z"/>
    <path class="cls-5" d="M19.3,27.54h-2.53c-.13,0-.24-.09-.26-.22-.1-.83-.06-1.69.12-2.56.02-.12.13-.2.25-.21h.97c.09,0,.18.04.22.12l1.44,2.49c.1.17-.02.38-.22.38Z"/>
    <path class="cls-5" d="M32.38,23.01h-2.87c-.09,0-.18-.05-.22-.13l-1.41-2.47c-.1-.17.03-.38.22-.38h2.85c.09-.01.18.04.22.11l1.44,2.49c.1.17-.02.38-.22.38Z"/>
    <path class="cls-5" d="M27.15,23.01h-2.87c-.09,0-.18-.05-.22-.13l-1.41-2.47c-.1-.17.03-.38.22-.38h2.85c.09-.01.18.04.22.11l1.44,2.49c.1.17-.02.38-.22.38Z"/>
    <path class="cls-5" d="M21.91,23.01h-2.87c-.09,0-.18-.05-.22-.13l-.74-1.3c-.05-.09-.04-.19.01-.28.32-.45.65-.87,1.01-1.22.05-.05.11-.07.18-.07.25,0,.9,0,1.19,0,.09,0,.18.05.22.13l1.44,2.49c.1.17-.02.38-.22.38Z"/>
    <path class="cls-5" d="M26.14,17.42s1.18-.13,2.96.68c.26.12.16.5-.12.49l-2.1-.1c-.09,0-.17-.05-.21-.13l-.54-.94"/>
    <path class="cls-5" d="M24.53,18.47h-2.09c-.28,0-.36-.39-.09-.5.58-.22,1.2-.38,1.87-.48.1-.01.21.04.26.13l.24.42c.12.22,0,.43-.2.43Z"/>
    <path class="cls-5" d="M19.52,36.22l-1.7-2.95c-.05-.08-.13-.13-.22-.13-1.05-.02-1.98.04-2.8.15-.18.03-.28.22-.19.38.4.7,1.33,2.33,1.6,2.8.05.08.13.13.22.13h2.87c.2,0,.32-.21.22-.38Z"/>
    <path class="cls-5" d="M14.28,36.22l-1.26-2.19c-.06-.11-.2-.16-.32-.11-.77.33-1.49.8-2.16,1.39-.09.08-.11.22-.05.32l.48.84c.05.08.13.13.22.13h2.87c.2,0,.32-.21.22-.38Z"/>
    <path class="cls-5" d="M11.67,40.76l-1.44-2.49c-.05-.08-.13-.13-.22-.13h-1.49c-.1,0-.19.07-.23.16-.23.5-.42,1-.55,1.49-.02.06,0,.13.03.19.13.22.45.78.59,1.04.05.08.13.13.22.13h2.87c.2,0,.32-.21.22-.38Z"/>
    <path class="cls-5" d="M8.94,47.22s.48,1.09,2.07,2.23c.23.16.52-.11.36-.35l-1.14-1.77c-.05-.07-.13-.12-.22-.12h-1.08"/>
    <path class="cls-5" d="M9.05,45.29l-1.05-1.81c-.14-.25-.52-.11-.48.17.1.61.27,1.23.52,1.86.04.1.14.16.24.16h.49c.25,0,.37-.21.27-.38Z"/>
    <path class="cls-5" d="M56.91,54.79h2.87c.09,0,.18.05.22.13l1.41,2.47c.1.17-.03.38-.22.38h-2.85c-.09.01-.18-.04-.22-.11l-1.44-2.49c-.1-.17.02-.38.22-.38Z"/>
    <path class="cls-5" d="M62.15,54.79h2.87c.09,0,.18.05.22.13l1.41,2.47c.1.17-.03.38-.22.38h-2.85c-.09.01-.18-.04-.22-.11l-1.44-2.49c-.1-.17.02-.38.22-.38Z"/>
    <path class="cls-5" d="M67.38,54.79h2.87c.09,0,.18.05.22.13l1.41,2.47c.1.17-.03.38-.22.38h-2.85c-.09.01-.18-.04-.22-.11l-1.44-2.49c-.1-.17.02-.38.22-.38Z"/>
    <path class="cls-5" d="M72.62,54.79h2.87c.09,0,.18.05.22.13l1.41,2.47c.1.17-.03.38-.22.38h-2.85c-.09.01-.18-.04-.22-.11l-1.44-2.49c-.1-.17.02-.38.22-.38Z"/>
    <path class="cls-5" d="M77.85,54.79h2.87c.09,0,.18.05.22.13l1.41,2.47c.1.17-.03.38-.22.38h-2.85c-.09.01-.18-.04-.22-.11l-1.44-2.49c-.1-.17.02-.38.22-.38Z"/>
    <path class="cls-5" d="M83.09,54.79h2.87c.09,0,.18.05.22.13l1.41,2.47c.1.17-.03.38-.22.38h-2.85c-.09.01-.18-.04-.22-.11l-1.44-2.49c-.1-.17.02-.38.22-.38Z"/>
    <path class="cls-5" d="M88.32,54.79h2.87c.09,0,.18.05.22.13l1.41,2.47c.1.17-.03.38-.22.38h-2.85c-.09.01-.18-.04-.22-.11l-1.44-2.49c-.1-.17.02-.38.22-.38Z"/>
    <path class="cls-5" d="M59.53,59.33h2.87c.09,0,.18.05.22.13l1.41,2.47c.1.17-.03.38-.22.38h-2.85c-.09.01-.18-.04-.22-.11l-1.44-2.49c-.1-.17.02-.38.22-.38Z"/>
    <path class="cls-5" d="M64.76,59.33h2.87c.09,0,.18.05.22.13l1.41,2.47c.1.17-.03.38-.22.38h-2.85c-.09.01-.18-.04-.22-.11l-1.44-2.49c-.1-.17.02-.38.22-.38Z"/>
    <path class="cls-5" d="M70,59.33h2.87c.09,0,.18.05.22.13l1.41,2.47c.1.17-.03.38-.22.38h-2.85c-.09.01-.18-.04-.22-.11l-1.44-2.49c-.1-.17.02-.38.22-.38Z"/>
    <path class="cls-5" d="M75.23,59.33h2.87c.09,0,.18.05.22.13l1.41,2.47c.1.17-.03.38-.22.38h-2.85c-.09.01-.18-.04-.22-.11l-1.44-2.49c-.1-.17.02-.38.22-.38Z"/>
    <path class="cls-5" d="M80.47,59.33h2.87c.09,0,.18.05.22.13l1.41,2.47c.1.17-.03.38-.22.38h-2.85c-.09.01-.18-.04-.22-.11l-1.44-2.49c-.1-.17.02-.38.22-.38Z"/>
    <path class="cls-5" d="M85.7,59.33h2.87c.09,0,.18.05.22.13l1.41,2.47c.1.17-.03.38-.22.38h-2.85c-.09.01-.18-.04-.22-.11l-1.44-2.49c-.1-.17.02-.38.22-.38Z"/>
    <path class="cls-5" d="M90.94,59.33h2.87c.09,0,.18.05.22.13l1.41,2.47c.1.17-.03.38-.22.38h-2.85c-.09.01-.18-.04-.22-.11l-1.44-2.49c-.1-.17.02-.38.22-.38Z"/>
    <path class="cls-5" d="M62.15,63.86h2.87c.09,0,.18.05.22.13l1.41,2.47c.1.17-.03.38-.22.38h-2.85c-.09.01-.18-.04-.22-.11l-1.44-2.49c-.1-.17.02-.38.22-.38Z"/>
    <path class="cls-5" d="M67.38,63.86h2.87c.09,0,.18.05.22.13l1.41,2.47c.1.17-.03.38-.22.38h-2.85c-.09.01-.18-.04-.22-.11l-1.44-2.49c-.1-.17.02-.38.22-.38Z"/>
    <path class="cls-5" d="M72.62,63.86h2.87c.09,0,.18.05.22.13l1.41,2.47c.1.17-.03.38-.22.38h-2.85c-.09.01-.18-.04-.22-.11l-1.44-2.49c-.1-.17.02-.38.22-.38Z"/>
    <path class="cls-5" d="M77.85,63.86h2.87c.09,0,.18.05.22.13l1.41,2.47c.1.17-.03.38-.22.38h-2.85c-.09.01-.18-.04-.22-.11l-1.44-2.49c-.1-.17.02-.38.22-.38Z"/>
    <path class="cls-5" d="M83.09,63.86h2.87c.09,0,.18.05.22.13l1.41,2.47c.1.17-.03.38-.22.38h-2.85c-.09.01-.18-.04-.22-.11l-1.44-2.49c-.1-.17.02-.38.22-.38Z"/>
    <path class="cls-5" d="M88.32,63.86h2.87c.09,0,.18.05.22.13l1.41,2.47c.1.17-.03.38-.22.38h-2.85c-.09.01-.18-.04-.22-.11l-1.44-2.49c-.1-.17.02-.38.22-.38Z"/>
    <path class="cls-5" d="M64.76,68.39h2.87c.09,0,.18.05.22.13l1.41,2.47c.1.17-.03.38-.22.38h-2.85c-.09.01-.18-.04-.22-.11l-1.44-2.49c-.1-.17.02-.38.22-.38Z"/>
    <path class="cls-5" d="M70,68.39h2.87c.09,0,.18.05.22.13l1.41,2.47c.1.17-.03.38-.22.38h-2.85c-.09.01-.18-.04-.22-.11l-1.44-2.49c-.1-.17.02-.38.22-.38Z"/>
    <path class="cls-5" d="M75.23,68.39h2.87c.09,0,.18.05.22.13l1.41,2.47c.1.17-.03.38-.22.38h-2.85c-.09.01-.18-.04-.22-.11l-1.44-2.49c-.1-.17.02-.38.22-.38Z"/>
    <path class="cls-5" d="M80.47,68.39h2.87c.09,0,.18.05.22.13l1.41,2.47c.1.17-.03.38-.22.38h-2.85c-.09.01-.18-.04-.22-.11l-1.44-2.49c-.1-.17.02-.38.22-.38Z"/>
    <path class="cls-5" d="M67.38,72.93h2.87c.09,0,.18.05.22.13l1.41,2.47c.1.17-.03.38-.22.38h-2.85c-.09.01-.18-.04-.22-.11l-1.44-2.49c-.1-.17.02-.38.22-.38Z"/>
    <path class="cls-5" d="M72.62,72.93h2.87c.09,0,.18.05.22.13l1.41,2.47c.1.17-.03.38-.22.38h-2.85c-.09.01-.18-.04-.22-.11l-1.44-2.49c-.1-.17.02-.38.22-.38Z"/>
    <path class="cls-5" d="M77.85,72.93h2.87c.09,0,.18.05.22.13l1.41,2.47c.1.17-.03.38-.22.38h-2.85c-.09.01-.18-.04-.22-.11l-1.44-2.49c-.1-.17.02-.38.22-.38Z"/>
    <path class="cls-5" d="M83.09,72.93h3.41c.09,0,.18.05.22.13.54.9.96,1.73,1.27,2.5.07.17-.05.35-.23.35h-3.22c-.09.02-.18-.03-.22-.11l-1.44-2.49c-.1-.17.02-.38.22-.38Z"/>
    <path class="cls-5" d="M70,77.46h2.87c.09,0,.18.05.22.13l1.41,2.47c.1.17-.03.38-.22.38h-2.85c-.09.01-.18-.04-.22-.11l-1.44-2.49c-.1-.17.02-.38.22-.38Z"/>
    <path class="cls-5" d="M75.23,77.46h2.87c.09,0,.18.05.22.13l1.41,2.47c.1.17-.03.38-.22.38h-2.85c-.09.01-.18-.04-.22-.11l-1.44-2.49c-.1-.17.02-.38.22-.38Z"/>
    <path class="cls-5" d="M80.47,77.46h2.87c.09,0,.18.05.22.13l1.41,2.47c.1.17-.03.38-.22.38h-2.85c-.09.01-.18-.04-.22-.11l-1.44-2.49c-.1-.17.02-.38.22-.38Z"/>
    <path class="cls-5" d="M85.7,77.46h2.53c.13,0,.24.09.26.22.1.83.06,1.69-.12,2.56-.02.12-.13.2-.25.21h-.97c-.09,0-.18-.04-.22-.12l-1.44-2.49c-.1-.17.02-.38.22-.38Z"/>
    <path class="cls-5" d="M72.62,81.99h2.87c.09,0,.18.05.22.13l1.41,2.47c.1.17-.03.38-.22.38h-2.85c-.09.01-.18-.04-.22-.11l-1.44-2.49c-.1-.17.02-.38.22-.38Z"/>
    <path class="cls-5" d="M77.85,81.99h2.87c.09,0,.18.05.22.13l1.41,2.47c.1.17-.03.38-.22.38h-2.85c-.09.01-.18-.04-.22-.11l-1.44-2.49c-.1-.17.02-.38.22-.38Z"/>
    <path class="cls-5" d="M83.08,81.99h2.87c.09,0,.18.05.22.13l.74,1.3c.05.09.04.19-.01.28-.32.45-.65.87-1.01,1.22-.05.05-.11.07-.18.07-.25,0-.9,0-1.19,0-.09,0-.18-.05-.22-.13l-1.44-2.49c-.1-.17.02-.38.22-.38Z"/>
    <path class="cls-5" d="M78.86,87.58s-1.18.13-2.96-.68c-.26-.12-.16-.5.12-.49l2.1.1c.09,0,.17.05.21.13l.54.94"/>
    <path class="cls-5" d="M80.47,86.53h2.09c.28,0,.36.39.09.5-.58.22-1.2.38-1.87.48-.1.01-.21-.04-.26-.13l-.24-.42c-.12-.22,0-.43.2-.43Z"/>
    <path class="cls-5" d="M85.48,68.78l1.7,2.95c.05.08.13.13.22.13,1.05.02,1.98-.04,2.8-.15.18-.03.28-.22.19-.38l-1.6-2.8c-.05-.08-.13-.13-.22-.13h-2.87c-.2,0-.32.21-.22.38Z"/>
    <path class="cls-5" d="M90.72,68.78l1.26,2.19c.06.11.2.16.32.11.77-.33,1.49-.8,2.16-1.39.09-.08.11-.22.05-.32l-.48-.84c-.05-.08-.13-.13-.22-.13h-2.87c-.2,0-.32.21-.22.38Z"/>
    <path class="cls-5" d="M93.33,64.24l1.44,2.49c.05.08.13.13.22.13h1.49c.1,0,.19-.07.23-.16.23-.5.42-1,.55-1.49.02-.06,0-.13-.03-.19-.13-.22-.45-.78-.59-1.04-.05-.08-.13-.13-.22-.13h-2.87c-.2,0-.32.21-.22.38Z"/>
    <path class="cls-5" d="M96.06,57.78s-.48-1.09-2.07-2.23c-.23-.16-.52.11-.36.35l1.14,1.77c.05.07.13.12.22.12h1.08"/>
    <path class="cls-5" d="M95.95,59.71l1.05,1.81c.14.25.52.11.48-.17-.1-.61-.27-1.23-.52-1.86-.04-.1-.14-.16-.24-.16h-.54c-.2,0-.32.21-.22.38Z"/>
    <path class="cls-5" d="M48.31,55.18l-1.44,2.49c-.05.08-.13.13-.22.13h-2.85c-.2-.01-.32-.23-.22-.4l1.41-2.47c.05-.08.13-.13.22-.13h2.87c.2,0,.32.21.22.38Z"/>
    <path class="cls-5" d="M45.69,59.71l-1.44,2.49c-.05.08-.13.13-.22.13h-2.85c-.2-.01-.32-.23-.22-.4l1.41-2.47c.05-.08.13-.13.22-.13h2.87c.2,0,.32.21.22.38Z"/>
    <path class="cls-5" d="M43.07,64.24l-1.44,2.49c-.05.08-.13.13-.22.13h-2.85c-.2-.01-.32-.23-.22-.4l1.41-2.47c.05-.08.13-.13.22-.13h2.87c.2,0,.32.21.22.38Z"/>
    <path class="cls-5" d="M40.46,68.78l-1.44,2.49c-.05.08-.13.13-.22.13h-2.85c-.2-.01-.32-.23-.22-.4l1.41-2.47c.05-.08.13-.13.22-.13h2.87c.2,0,.32.21.22.38Z"/>
    <path class="cls-5" d="M37.84,73.31l-1.44,2.49c-.05.08-.13.13-.22.13h-2.85c-.2-.01-.32-.23-.22-.4l1.41-2.47c.05-.08.13-.13.22-.13h2.87c.2,0,.32.21.22.38Z"/>
    <path class="cls-5" d="M35.22,77.84l-1.44,2.49c-.05.08-.13.13-.22.13h-2.85c-.2-.01-.32-.23-.22-.4l1.41-2.47c.05-.08.13-.13.22-.13h2.87c.2,0,.32.21.22.38Z"/>
    <path class="cls-5" d="M32.6,82.38l-1.44,2.49c-.05.08-.13.13-.22.13h-2.85c-.2-.01-.32-.23-.22-.4l1.41-2.47c.05-.08.13-.13.22-.13h2.87c.2,0,.32.21.22.38Z"/>
    <path class="cls-5" d="M43.07,55.18l-1.44,2.49c-.05.08-.13.13-.22.13h-2.85c-.2-.01-.32-.23-.22-.4l1.41-2.47c.05-.08.13-.13.22-.13h2.87c.2,0,.32.21.22.38Z"/>
    <path class="cls-5" d="M40.46,59.71l-1.44,2.49c-.05.08-.13.13-.22.13h-2.85c-.2-.01-.32-.23-.22-.4l1.41-2.47c.05-.08.13-.13.22-.13h2.87c.2,0,.32.21.22.38Z"/>
    <path class="cls-5" d="M37.84,64.24l-1.44,2.49c-.05.08-.13.13-.22.13h-2.85c-.2-.01-.32-.23-.22-.4l1.41-2.47c.05-.08.13-.13.22-.13h2.87c.2,0,.32.21.22.38Z"/>
    <path class="cls-5" d="M35.22,68.78l-1.44,2.49c-.05.08-.13.13-.22.13h-2.85c-.2-.01-.32-.23-.22-.4l1.41-2.47c.05-.08.13-.13.22-.13h2.87c.2,0,.32.21.22.38Z"/>
    <path class="cls-5" d="M32.6,73.31l-1.44,2.49c-.05.08-.13.13-.22.13h-2.85c-.2-.01-.32-.23-.22-.4l1.41-2.47c.05-.08.13-.13.22-.13h2.87c.2,0,.32.21.22.38Z"/>
    <path class="cls-5" d="M29.99,77.84l-1.44,2.49c-.05.08-.13.13-.22.13h-2.85c-.2-.01-.32-.23-.22-.4l1.41-2.47c.05-.08.13-.13.22-.13h2.87c.2,0,.32.21.22.38Z"/>
    <path class="cls-5" d="M27.37,82.38l-1.44,2.49c-.05.08-.13.13-.22.13h-2.85c-.2-.01-.32-.23-.22-.4l1.41-2.47c.05-.08.13-.13.22-.13h2.87c.2,0,.32.21.22.38Z"/>
    <path class="cls-5" d="M37.84,55.18l-1.44,2.49c-.05.08-.13.13-.22.13h-2.85c-.2-.01-.32-.23-.22-.4l1.41-2.47c.05-.08.13-.13.22-.13h2.87c.2,0,.32.21.22.38Z"/>
    <path class="cls-5" d="M35.22,59.71l-1.44,2.49c-.05.08-.13.13-.22.13h-2.85c-.2-.01-.32-.23-.22-.4l1.41-2.47c.05-.08.13-.13.22-.13h2.87c.2,0,.32.21.22.38Z"/>
    <path class="cls-5" d="M32.6,64.24l-1.44,2.49c-.05.08-.13.13-.22.13h-2.85c-.2-.01-.32-.23-.22-.4l1.41-2.47c.05-.08.13-.13.22-.13h2.87c.2,0,.32.21.22.38Z"/>
    <path class="cls-5" d="M29.99,68.78l-1.44,2.49c-.05.08-.13.13-.22.13h-2.85c-.2-.01-.32-.23-.22-.4l1.41-2.47c.05-.08.13-.13.22-.13h2.87c.2,0,.32.21.22.38Z"/>
    <path class="cls-5" d="M27.37,73.31l-1.44,2.49c-.05.08-.13.13-.22.13h-2.85c-.2-.01-.32-.23-.22-.4l1.41-2.47c.05-.08.13-.13.22-.13h2.87c.2,0,.32.21.22.38Z"/>
    <path class="cls-5" d="M24.75,77.84l-1.44,2.49c-.05.08-.13.13-.22.13h-2.85c-.2-.01-.32-.23-.22-.4l1.41-2.47c.05-.08.13-.13.22-.13h2.87c.2,0,.32.21.22.38Z"/>
    <path class="cls-5" d="M32.6,55.17l-1.44,2.49c-.05.08-.13.13-.22.13h-2.85c-.2-.01-.32-.23-.22-.4l1.41-2.47c.05-.08.13-.13.22-.13h2.87c.2,0,.32.21.22.38Z"/>
    <path class="cls-5" d="M29.99,59.71l-1.44,2.49c-.05.08-.13.13-.22.13h-2.85c-.2-.01-.32-.23-.22-.4l1.41-2.47c.05-.08.13-.13.22-.13h2.87c.2,0,.32.21.22.38Z"/>
    <path class="cls-5" d="M27.37,64.24l-1.44,2.49c-.05.08-.13.13-.22.13h-2.85c-.2-.01-.32-.23-.22-.4l1.41-2.47c.05-.08.13-.13.22-.13h2.87c.2,0,.32.21.22.38Z"/>
    <path class="cls-5" d="M24.75,68.78l-1.44,2.49c-.05.08-.13.13-.22.13h-2.85c-.2-.01-.32-.23-.22-.4l1.41-2.47c.05-.08.13-.13.22-.13h2.87c.2,0,.32.21.22.38Z"/>
    <path class="cls-5" d="M27.37,55.17l-1.44,2.49c-.05.08-.13.13-.22.13h-2.85c-.2-.01-.32-.23-.22-.4l1.41-2.47c.05-.08.13-.13.22-.13h2.87c.2,0,.32.21.22.38Z"/>
    <path class="cls-5" d="M24.75,59.71l-1.44,2.49c-.05.08-.13.13-.22.13h-2.85c-.2-.01-.32-.23-.22-.4l1.41-2.47c.05-.08.13-.13.22-.13h2.87c.2,0,.32.21.22.38Z"/>
    <path class="cls-5" d="M22.14,64.24l-1.44,2.49c-.05.08-.13.13-.22.13h-2.85c-.2-.01-.32-.23-.22-.4l1.41-2.47c.05-.08.13-.13.22-.13h2.87c.2,0,.32.21.22.38Z"/>
    <path class="cls-5" d="M19.52,68.78l-1.7,2.95c-.05.08-.13.13-.22.13-1.05.02-1.98-.04-2.8-.15-.18-.03-.28-.22-.19-.38.4-.7,1.33-2.33,1.6-2.8.05-.08.13-.13.22-.13h2.87c.2,0,.32.21.22.38Z"/>
    <path class="cls-5" d="M22.14,55.17l-1.44,2.49c-.05.08-.13.13-.22.13h-2.85c-.2-.01-.32-.23-.22-.4l1.41-2.47c.05-.08.13-.13.22-.13h2.87c.2,0,.32.21.22.38Z"/>
    <path class="cls-5" d="M19.52,59.71l-1.44,2.49c-.05.08-.13.13-.22.13h-2.85c-.2-.01-.32-.23-.22-.4l1.41-2.47c.05-.08.13-.13.22-.13h2.87c.2,0,.32.21.22.38Z"/>
    <path class="cls-5" d="M16.9,64.24l-1.44,2.49c-.05.08-.13.13-.22.13h-2.85c-.2-.01-.32-.23-.22-.4l1.41-2.47c.05-.08.13-.13.22-.13h2.87c.2,0,.32.21.22.38Z"/>
    <path class="cls-5" d="M14.28,68.78l-1.26,2.19c-.06.11-.2.16-.32.11-.77-.33-1.49-.8-2.16-1.39-.09-.08-.11-.22-.05-.32l.48-.84c.05-.08.13-.13.22-.13h2.87c.2,0,.32.21.22.38Z"/>
    <path class="cls-5" d="M16.9,55.17l-1.44,2.49c-.05.08-.13.13-.22.13h-2.85c-.2-.01-.32-.23-.22-.4l1.41-2.47c.05-.08.13-.13.22-.13h2.87c.2,0,.32.21.22.38Z"/>
    <path class="cls-5" d="M14.28,59.71l-1.44,2.49c-.05.08-.13.13-.22.13h-2.85c-.2-.01-.32-.23-.22-.4l1.41-2.47c.05-.08.13-.13.22-.13h2.87c.2,0,.32.21.22.38Z"/>
    <path class="cls-5" d="M11.67,64.24l-1.44,2.49c-.05.08-.13.13-.22.13h-1.49c-.1,0-.19-.07-.23-.16-.23-.5-.42-1-.55-1.49-.02-.06,0-.13.03-.19.13-.22.45-.78.59-1.04.05-.08.13-.13.22-.13h2.87c.2,0,.32.21.22.38Z"/>
    <path class="cls-5" d="M8.94,57.78s.48-1.09,2.07-2.23c.23-.16.52.11.36.35l-1.14,1.77c-.05.07-.13.12-.22.12h-1.08"/>
    <path class="cls-5" d="M9.05,59.71l-1.05,1.81c-.14.25-.52.11-.48-.17.1-.61.27-1.23.52-1.86.04-.1.14-.16.24-.16h.49c.25,0,.37.21.27.38Z"/>
    <path class="cls-5" d="M21.91,72.93h-3.41c-.09,0-.18.05-.22.13-.54.9-.96,1.73-1.27,2.5-.07.17.05.35.23.35.81,0,2.69.01,3.23.01.09,0,.18-.05.22-.13l1.44-2.49c.1-.17-.02-.38-.22-.38Z"/>
    <path class="cls-5" d="M19.3,77.46h-2.53c-.13,0-.24.09-.26.22-.1.83-.06,1.69.12,2.56.02.12.13.2.25.21h.97c.09,0,.18-.04.22-.12l1.44-2.49c.1-.17-.02-.38-.22-.38Z"/>
    <path class="cls-5" d="M21.91,81.99h-2.87c-.09,0-.18.05-.22.13l-.74,1.3c-.05.09-.04.19.01.28.32.45.65.87,1.01,1.22.05.05.11.07.18.07.25,0,.9,0,1.19,0,.09,0,.18-.05.22-.13l1.44-2.49c.1-.17-.02-.38-.22-.38Z"/>
    <path class="cls-5" d="M26.14,87.58s1.18.13,2.96-.68c.26-.12.16-.5-.12-.49l-2.1.1c-.09,0-.17.05-.21.13l-.54.94"/>
    <path class="cls-5" d="M24.53,86.53h-2.09c-.28,0-.36.39-.09.5.58.22,1.2.38,1.87.48.1.01.21-.04.26-.13l.24-.42c.12-.22,0-.43-.2-.43Z"/>
    <path class="cls-5" d="M56.69,49.82l1.44-2.49c.05-.08.13-.13.22-.13h2.85c.2.01.32.23.22.4l-1.41,2.47c-.05.08-.13.13-.22.13h-2.87c-.2,0-.32-.21-.22-.38Z"/>
    <path class="cls-5" d="M59.31,45.29l1.44-2.49c.05-.08.13-.13.22-.13h2.85c.2.01.32.23.22.4l-1.41,2.47c-.05.08-.13.13-.22.13h-2.87c-.2,0-.32-.21-.22-.38Z"/>
    <path class="cls-5" d="M61.93,40.76l1.44-2.49c.05-.08.13-.13.22-.13h2.85c.2.01.32.23.22.4l-1.41,2.47c-.05.08-.13.13-.22.13h-2.87c-.2,0-.32-.21-.22-.38Z"/>
    <path class="cls-5" d="M64.54,36.22l1.44-2.49c.05-.08.13-.13.22-.13h2.85c.2.01.32.23.22.4l-1.41,2.47c-.05.08-.13.13-.22.13h-2.87c-.2,0-.32-.21-.22-.38Z"/>
    <path class="cls-5" d="M67.16,31.69l1.44-2.49c.05-.08.13-.13.22-.13h2.85c.2.01.32.23.22.4l-1.41,2.47c-.05.08-.13.13-.22.13h-2.87c-.2,0-.32-.21-.22-.38Z"/>
    <path class="cls-5" d="M69.78,27.16l1.44-2.49c.05-.08.13-.13.22-.13h2.85c.2.01.32.23.22.4l-1.41,2.47c-.05.08-.13.13-.22.13h-2.87c-.2,0-.32-.21-.22-.38Z"/>
    <path class="cls-5" d="M72.4,22.62l1.44-2.49c.05-.08.13-.13.22-.13h2.85c.2.01.32.23.22.4l-1.41,2.47c-.05.08-.13.13-.22.13h-2.87c-.2,0-.32-.21-.22-.38Z"/>
    <path class="cls-5" d="M61.93,49.82l1.44-2.49c.05-.08.13-.13.22-.13h2.85c.2.01.32.23.22.4l-1.41,2.47c-.05.08-.13.13-.22.13h-2.87c-.2,0-.32-.21-.22-.38Z"/>
    <path class="cls-5" d="M64.54,45.29l1.44-2.49c.05-.08.13-.13.22-.13h2.85c.2.01.32.23.22.4l-1.41,2.47c-.05.08-.13.13-.22.13h-2.87c-.2,0-.32-.21-.22-.38Z"/>
    <path class="cls-5" d="M67.16,40.76l1.44-2.49c.05-.08.13-.13.22-.13h2.85c.2.01.32.23.22.4l-1.41,2.47c-.05.08-.13.13-.22.13h-2.87c-.2,0-.32-.21-.22-.38Z"/>
    <path class="cls-5" d="M69.78,36.22l1.44-2.49c.05-.08.13-.13.22-.13h2.85c.2.01.32.23.22.4l-1.41,2.47c-.05.08-.13.13-.22.13h-2.87c-.2,0-.32-.21-.22-.38Z"/>
    <path class="cls-5" d="M72.4,31.69l1.44-2.49c.05-.08.13-.13.22-.13h2.85c.2.01.32.23.22.4l-1.41,2.47c-.05.08-.13.13-.22.13h-2.87c-.2,0-.32-.21-.22-.38Z"/>
    <path class="cls-5" d="M75.01,27.16l1.44-2.49c.05-.08.13-.13.22-.13h2.85c.2.01.32.23.22.4l-1.41,2.47c-.05.08-.13.13-.22.13h-2.87c-.2,0-.32-.21-.22-.38Z"/>
    <path class="cls-5" d="M77.63,22.62l1.44-2.49c.05-.08.13-.13.22-.13h2.85c.2.01.32.23.22.4l-1.41,2.47c-.05.08-.13.13-.22.13h-2.87c-.2,0-.32-.21-.22-.38Z"/>
    <path class="cls-5" d="M67.16,49.82l1.44-2.49c.05-.08.13-.13.22-.13h2.85c.2.01.32.23.22.4l-1.41,2.47c-.05.08-.13.13-.22.13h-2.87c-.2,0-.32-.21-.22-.38Z"/>
    <path class="cls-5" d="M69.78,45.29l1.44-2.49c.05-.08.13-.13.22-.13h2.85c.2.01.32.23.22.4l-1.41,2.47c-.05.08-.13.13-.22.13h-2.87c-.2,0-.32-.21-.22-.38Z"/>
    <path class="cls-5" d="M72.4,40.76l1.44-2.49c.05-.08.13-.13.22-.13h2.85c.2.01.32.23.22.4l-1.41,2.47c-.05.08-.13.13-.22.13h-2.87c-.2,0-.32-.21-.22-.38Z"/>
    <path class="cls-5" d="M75.01,36.22l1.44-2.49c.05-.08.13-.13.22-.13h2.85c.2.01.32.23.22.4l-1.41,2.47c-.05.08-.13.13-.22.13h-2.87c-.2,0-.32-.21-.22-.38Z"/>
    <path class="cls-5" d="M77.63,31.69l1.44-2.49c.05-.08.13-.13.22-.13h2.85c.2.01.32.23.22.4l-1.41,2.47c-.05.08-.13.13-.22.13h-2.87c-.2,0-.32-.21-.22-.38Z"/>
    <path class="cls-5" d="M80.25,27.16l1.44-2.49c.05-.08.13-.13.22-.13h2.85c.2.01.32.23.22.4l-1.41,2.47c-.05.08-.13.13-.22.13h-2.87c-.2,0-.32-.21-.22-.38Z"/>
    <path class="cls-5" d="M72.39,49.83l1.44-2.49c.05-.08.13-.13.22-.13h2.85c.2.01.32.23.22.4l-1.41,2.47c-.05.08-.13.13-.22.13h-2.87c-.2,0-.32-.21-.22-.38Z"/>
    <path class="cls-5" d="M75.01,45.29l1.44-2.49c.05-.08.13-.13.22-.13h2.85c.2.01.32.23.22.4l-1.41,2.47c-.05.08-.13.13-.22.13h-2.87c-.2,0-.32-.21-.22-.38Z"/>
    <path class="cls-5" d="M77.63,40.76l1.44-2.49c.05-.08.13-.13.22-.13h2.85c.2.01.32.23.22.4l-1.41,2.47c-.05.08-.13.13-.22.13h-2.87c-.2,0-.32-.21-.22-.38Z"/>
    <path class="cls-5" d="M80.25,36.22l1.44-2.49c.05-.08.13-.13.22-.13h2.85c.2.01.32.23.22.4l-1.41,2.47c-.05.08-.13.13-.22.13h-2.87c-.2,0-.32-.21-.22-.38Z"/>
    <path class="cls-5" d="M77.63,49.83l1.44-2.49c.05-.08.13-.13.22-.13h2.85c.2.01.32.23.22.4l-1.41,2.47c-.05.08-.13.13-.22.13h-2.87c-.2,0-.32-.21-.22-.38Z"/>
    <path class="cls-5" d="M80.25,45.29l1.44-2.49c.05-.08.13-.13.22-.13h2.85c.2.01.32.23.22.4l-1.41,2.47c-.05.08-.13.13-.22.13h-2.87c-.2,0-.32-.21-.22-.38Z"/>
    <path class="cls-5" d="M82.86,40.76l1.44-2.49c.05-.08.13-.13.22-.13h2.85c.2.01.32.23.22.4l-1.41,2.47c-.05.08-.13.13-.22.13h-2.87c-.2,0-.32-.21-.22-.38Z"/>
    <path class="cls-5" d="M85.48,36.22l1.7-2.95c.05-.08.13-.13.22-.13,1.05-.02,1.98.04,2.8.15.18.03.28.22.19.38l-1.6,2.8c-.05.08-.13.13-.22.13h-2.87c-.2,0-.32-.21-.22-.38Z"/>
    <path class="cls-5" d="M82.86,49.83l1.44-2.49c.05-.08.13-.13.22-.13h2.85c.2.01.32.23.22.4l-1.41,2.47c-.05.08-.13.13-.22.13h-2.87c-.2,0-.32-.21-.22-.38Z"/>
    <path class="cls-5" d="M85.48,45.29l1.44-2.49c.05-.08.13-.13.22-.13h2.85c.2.01.32.23.22.4l-1.41,2.47c-.05.08-.13.13-.22.13h-2.87c-.2,0-.32-.21-.22-.38Z"/>
    <path class="cls-5" d="M88.1,40.76l1.44-2.49c.05-.08.13-.13.22-.13h2.85c.2.01.32.23.22.4l-1.41,2.47c-.05.08-.13.13-.22.13h-2.87c-.2,0-.32-.21-.22-.38Z"/>
    <path class="cls-5" d="M90.72,36.22l1.26-2.19c.06-.11.2-.16.32-.11.77.33,1.49.8,2.16,1.39.09.08.11.22.05.32l-.48.84c-.05.08-.13.13-.22.13h-2.87c-.2,0-.32-.21-.22-.38Z"/>
    <path class="cls-5" d="M88.1,49.83l1.44-2.49c.05-.08.13-.13.22-.13h2.85c.2.01.32.23.22.4l-1.41,2.47c-.05.08-.13.13-.22.13h-2.87c-.2,0-.32-.21-.22-.38Z"/>
    <path class="cls-5" d="M90.72,45.29l1.44-2.49c.05-.08.13-.13.22-.13h2.85c.2.01.32.23.22.4l-1.41,2.47c-.05.08-.13.13-.22.13h-2.87c-.2,0-.32-.21-.22-.38Z"/>
    <path class="cls-5" d="M93.33,40.76l1.44-2.49c.05-.08.13-.13.22-.13h1.49c.1,0,.19.07.23.16.23.5.42,1,.55,1.49.02.06,0,.13-.03.19-.13.22-.45.78-.59,1.04-.05.08-.13.13-.22.13h-2.87c-.2,0-.32-.21-.22-.38Z"/>
    <path class="cls-5" d="M96.06,47.22s-.48,1.09-2.07,2.23c-.23.16-.52-.11-.36-.35l1.14-1.77c.05-.07.13-.12.22-.12h1.08"/>
    <path class="cls-5" d="M95.95,45.29l1.05-1.81c.14-.25.52-.11.48.17-.1.61-.27,1.23-.52,1.86-.04.1-.14.16-.24.16h-.54c-.2,0-.32-.21-.22-.38Z"/>
    <path class="cls-5" d="M83.09,32.07h3.41c.09,0,.18-.05.22-.13.54-.9.96-1.73,1.27-2.5.07-.17-.05-.35-.23-.35h-3.22c-.09-.02-.18.03-.22.11l-1.44,2.49c-.1.17.02.38.22.38Z"/>
    <path class="cls-5" d="M85.7,27.54h2.53c.13,0,.24-.09.26-.22.1-.83.06-1.69-.12-2.56-.02-.12-.13-.2-.25-.21h-.97c-.09,0-.18.04-.22.12l-1.44,2.49c-.1.17.02.38.22.38Z"/>
    <path class="cls-5" d="M83.09,23.01h2.87c.09,0,.18-.05.22-.13l.74-1.3c.05-.09.04-.19-.01-.28-.32-.45-.65-.87-1.01-1.22-.05-.05-.11-.07-.18-.07-.25,0-.9,0-1.19,0-.09,0-.18.05-.22.13l-1.44,2.49c-.1.17.02.38.22.38Z"/>
    <path class="cls-5" d="M78.86,17.42s-1.18-.13-2.96.68c-.26.12-.16.5.12.49l2.1-.1c.09,0,.17-.05.21-.13l.54-.94"/>
    <path class="cls-5" d="M80.47,18.47h2.09c.28,0,.36-.39.09-.5-.58-.22-1.2-.38-1.87-.48-.1-.01-.21.04-.26.13l-.24.42c-.12.22,0,.43.2.43Z"/>
  </g>
</svg>