<?xml version="1.0" encoding="UTF-8"?>
<svg id="Layer_1" data-name="Layer 1" xmlns="http://www.w3.org/2000/svg" xmlns:xlink="http://www.w3.org/1999/xlink" viewBox="0 0 105 105">
  <defs>
    <style>
      .cls-1 {
        fill: none;
        filter: url(#drop-shadow-13);
        stroke: url(#linear-gradient);
        stroke-miterlimit: 10;
      }

      .cls-2 {
        fill: url(#radial-gradient);
        filter: url(#drop-shadow-12);
      }

      .cls-2, .cls-3 {
        stroke-width: 0px;
      }

      .cls-3 {
        fill: url(#radial-gradient-2);
      }
    </style>
    <radialGradient id="radial-gradient" cx="76.2" cy="122.53" fx="76.2" fy="122.53" r="39.51" gradientTransform="translate(174.04 -22.57) rotate(90)" gradientUnits="userSpaceOnUse">
      <stop offset="0" stop-color="#0e0801"/>
      <stop offset="1" stop-color="#392708"/>
    </radialGradient>
    <filter id="drop-shadow-12" filterUnits="userSpaceOnUse">
      <feOffset dx="0" dy="0"/>
      <feGaussianBlur result="blur" stdDeviation="5"/>
      <feFlood flood-color="#000" flood-opacity=".25"/>
      <feComposite in2="blur" operator="in"/>
      <feComposite in="SourceGraphic"/>
    </filter>
    <linearGradient id="linear-gradient" x1="111.08" y1="102.72" x2="44.08" y2="141.4" gradientTransform="translate(174.04 -22.57) rotate(90)" gradientUnits="userSpaceOnUse">
      <stop offset="0" stop-color="#080401"/>
      <stop offset="1" stop-color="#000"/>
    </linearGradient>
    <filter id="drop-shadow-13" filterUnits="userSpaceOnUse">
      <feOffset dx="0" dy="0"/>
      <feGaussianBlur result="blur-2" stdDeviation="5"/>
      <feFlood flood-color="#000" flood-opacity=".25"/>
      <feComposite in2="blur-2" operator="in"/>
      <feComposite in="SourceGraphic"/>
    </filter>
    <radialGradient id="radial-gradient-2" cx="76.2" cy="122.53" fx="76.2" fy="122.53" r="39.5" gradientTransform="translate(174.04 -22.57) rotate(90)" gradientUnits="userSpaceOnUse">
      <stop offset="0" stop-color="#000"/>
      <stop offset="1" stop-color="#080401"/>
    </radialGradient>
  </defs>
  <path class="cls-2" d="M62.08,15.53c6.52,11.67,17.54,4.85,18.57,11.67,1.34,5.35-.45,9.59,6.45,14.49,6.7,4.76,3.31,10.41,2.5,12.26-3.46,7.83,1.03,8.95-3.46,13.57-7.76,8-3.08,16.45-9.55,16.59-8.02.17-10.33,9.96-16.33,8.76-8.37-1.67-18.19,2.17-20.43-2.63-6.07-13-16.21-7.8-18.13-13.46-3.36-9.88-6.16-.87-7.43-12-.48-7.02-5.53-21.48.43-24.17,3.4-1.21,5.95-13.42,9.55-13.42,11.45,0,13.6-10.72,20.86-9.55,10.07,1.63,14.6-6.32,16.94-2.12Z"/>
  <path class="cls-1" d="M62.08,15.53c6.52,11.67,17.54,4.85,18.57,11.67,1.34,5.35-.45,9.59,6.45,14.49,6.7,4.76,3.31,10.41,2.5,12.26-3.46,7.83,1.03,8.95-3.46,13.57-7.76,8-3.08,16.45-9.55,16.59-8.02.17-10.33,9.96-16.33,8.76-8.37-1.67-18.19,2.17-20.43-2.63-6.07-13-16.21-7.8-18.13-13.46-3.36-9.88-6.16-.87-7.43-12-.48-7.02-5.53-21.48.43-24.17,3.4-1.21,5.95-13.42,9.55-13.42,11.45,0,13.6-10.72,20.86-9.55,10.07,1.63,14.6-6.32,16.94-2.12Z"/>
  <path class="cls-3" d="M48.37,17.91l-.08-.05c-.99.03-2.04-.03-3.16-.21-.31-.05-.62-.07-.91-.08v2.73c0,.2-.21.32-.38.22l-2.49-1.44c-.08-.05-.13-.13-.13-.22v-.65c-.73.35-1.43.81-2.13,1.34l.46.26c.08.05.13.13.13.22v2.87c0,.2-.21.32-.38.22l-2.49-1.44s-.08-.07-.1-.12c-.5.45-1.02.9-1.56,1.36v2.59c0,.2-.21.32-.38.22l-1.91-1.1c-.7.45-1.44.87-2.24,1.23v2.27c0,.2-.21.32-.38.22l-2.49-1.44s-.07-.06-.09-.09c-.8.17-1.66.28-2.58.33l.89.51c.08.05.13.13.13.22v2.87c0,.2-.21.32-.38.22l-2.49-1.44c-.08-.05-.13-.13-.13-.22v-1.7c-.68.5-1.34,1.39-1.98,2.49l.31.18c.08.05.13.13.13.22v2.87c0,.2-.21.32-.38.22l-1.43-.83c-.19.39-.37.78-.56,1.17l30.87,17.82V17.72c-.44.06-.89.11-1.36.13-.08.08-.2.12-.31.06ZM26.09,36.01c0,.2-.21.32-.38.22l-2.49-1.44c-.08-.05-.13-.13-.13-.22v-2.85c.01-.2.23-.32.4-.22l2.47,1.41c.08.05.13.13.13.22v2.87ZM30.62,38.62c0,.2-.21.32-.38.22l-2.49-1.44c-.08-.05-.13-.13-.13-.22v-2.85c.01-.2.23-.32.4-.22l2.47,1.41c.08.05.13.13.13.22v2.87ZM30.62,33.39c0,.2-.21.32-.38.22l-2.49-1.44c-.08-.05-.13-.13-.13-.22v-2.85c.01-.2.23-.32.4-.22l2.47,1.41c.08.05.13.13.13.22v2.87ZM35.15,41.24c0,.2-.21.32-.38.22l-2.49-1.44c-.08-.05-.13-.13-.13-.22v-2.85c.01-.2.23-.32.4-.22l2.47,1.41c.08.05.13.13.13.22v2.87ZM35.15,36.01c0,.2-.21.32-.38.22l-2.49-1.44c-.08-.05-.13-.13-.13-.22v-2.85c.01-.2.23-.32.4-.22l2.47,1.41c.08.05.13.13.13.22v2.87ZM34.77,30.99l-2.49-1.44c-.08-.05-.13-.13-.13-.22v-2.85c.01-.2.23-.32.4-.22l2.47,1.41c.08.05.13.13.13.22v2.87c0,.2-.21.32-.38.22ZM39.69,43.86c0,.2-.21.32-.38.22l-2.49-1.44c-.08-.05-.13-.13-.13-.22v-2.85c.01-.2.23-.32.4-.22l2.47,1.41c.08.05.13.13.13.22v2.87ZM39.69,38.62c0,.2-.21.32-.38.22l-2.49-1.44c-.08-.05-.13-.13-.13-.22v-2.85c.01-.2.23-.32.4-.22l2.47,1.41c.08.05.13.13.13.22v2.87ZM39.69,33.39c0,.2-.21.32-.38.22l-2.49-1.44c-.08-.05-.13-.13-.13-.22v-2.85c.01-.2.23-.32.4-.22l2.47,1.41c.08.05.13.13.13.22v2.87ZM39.69,28.16c0,.2-.21.32-.38.22l-2.49-1.44c-.08-.05-.13-.13-.13-.22v-2.85c.01-.2.23-.32.4-.22l2.47,1.41c.08.05.13.13.13.22v2.87ZM44.22,46.48c0,.2-.21.32-.38.22l-2.49-1.44c-.08-.05-.13-.13-.13-.22v-2.85c.01-.2.23-.32.4-.22l2.47,1.41c.08.05.13.13.13.22v2.87ZM44.22,41.24c0,.2-.21.32-.38.22l-2.49-1.44c-.08-.05-.13-.13-.13-.22v-2.85c.01-.2.23-.32.4-.22l2.47,1.41c.08.05.13.13.13.22v2.87ZM44.22,36.01c0,.2-.21.32-.38.22l-2.49-1.44c-.08-.05-.13-.13-.13-.22v-2.85c.01-.2.23-.32.4-.22l2.47,1.41c.08.05.13.13.13.22v2.87ZM44.22,30.77c0,.2-.21.32-.38.22l-2.49-1.44c-.08-.05-.13-.13-.13-.22v-2.85c.01-.2.23-.32.4-.22l2.47,1.41c.08.05.13.13.13.22v2.87ZM43.84,25.76l-2.49-1.44c-.08-.05-.13-.13-.13-.22v-2.85c.01-.2.23-.32.4-.22l2.47,1.41c.08.05.13.13.13.22v2.87c0,.2-.21.32-.38.22ZM48.76,49.09c0,.2-.21.32-.38.22l-2.49-1.44c-.08-.05-.13-.13-.13-.22v-2.85c.01-.2.23-.32.4-.22l2.47,1.41c.08.05.13.13.13.22v2.87ZM48.37,44.08l-2.49-1.44c-.08-.05-.13-.13-.13-.22v-2.85c.01-.2.23-.32.4-.22l2.47,1.41c.08.05.13.13.13.22v2.87c0,.2-.21.32-.38.22ZM48.76,38.62c0,.2-.21.32-.38.22l-2.49-1.44c-.08-.05-.13-.13-.13-.22v-2.85c.01-.2.23-.32.4-.22l2.47,1.41c.08.05.13.13.13.22v2.87ZM48.76,33.39c0,.2-.21.32-.38.22l-2.49-1.44c-.08-.05-.13-.13-.13-.22v-2.85c.01-.2.23-.32.4-.22l2.47,1.41c.08.05.13.13.13.22v2.87ZM48.76,28.16c0,.2-.21.32-.38.22l-2.49-1.44c-.08-.05-.13-.13-.13-.22v-2.85c.01-.2.23-.32.4-.22l2.47,1.41c.08.05.13.13.13.22v2.87ZM48.76,20.05v2.87c0,.2-.21.32-.38.22l-2.49-1.44c-.08-.05-.13-.13-.13-.22v-2.85c.01-.2.23-.32.4-.22l2.47,1.41c.08.05.13.13.13.22ZM49.05,53.51h0s-30.73-17.74-30.73-17.74c-.19.4-.39.78-.58,1.16l1.14.66c.17.1.17.34,0,.44l-2.49,1.44c-.08.04-.17.04-.25,0-.46.57-.94.98-1.43,1.15-1.39.63-2.17,1.89-2.57,3.55l2.19,1.27c.17.1.17.34,0,.44l-2.49,1.44s-.02,0-.02,0c0,.63.02,1.28.07,1.94l2.44,1.41c.17.1.17.34,0,.44l-2.09,1.21c.12.87.27,1.74.42,2.62l1.67.97c.17.1.17.34,0,.44l-1.28.74c.24,1.28.48,2.53.68,3.71l.6.35c.17.1.17.34,0,.44l-.42.24c.09.58.17,1.13.24,1.65l1.98-1.15c.08-.05.18-.05.26,0l2.49,1.44c.17.1.17.34,0,.44l-2.49,1.44c-.08.05-.18.05-.26,0l-1.87-1.09c0,.08.02.16.02.24.17,1.51.37,2.64.6,3.5l1.25-.73c.08-.05.18-.05.26,0l2.49,1.44c.17.1.17.34,0,.44l-2.49,1.44s-.04,0-.05.01c.48.31,1.02.38,1.6.59l31.11-17.96h0ZM39.06,49.23l2.49,1.44c.17.1.17.34,0,.44l-2.49,1.44c-.08.05-.18.05-.26,0l-2.46-1.44c-.17-.1-.17-.34,0-.44l2.46-1.44c.08-.05.18-.05.26,0ZM27.28,51.11c-.17-.1-.17-.34,0-.44l2.46-1.44c.08-.05.18-.05.26,0l2.49,1.44c.17.1.17.34,0,.44l-2.49,1.44c-.08.05-.18.05-.26,0l-2.46-1.44ZM27.95,53.73l-2.49,1.44c-.08.05-.18.05-.26,0l-2.46-1.44c-.17-.1-.17-.34,0-.44l2.46-1.44c.08-.05.18-.05.26,0l2.49,1.44c.17.1.17.34,0,.44ZM27.95,48.49l-2.49,1.44c-.08.05-.18.05-.26,0l-2.46-1.44c-.17-.1-.17-.34,0-.44l2.46-1.44c.08-.05.18-.05.26,0l2.49,1.44c.17.1.17.34,0,.44ZM23.41,45.88l-2.49,1.44c-.08.05-.18.05-.26,0l-2.46-1.44c-.17-.1-.17-.34,0-.44l2.46-1.44c.08-.05.18-.05.26,0l2.49,1.44c.17.1.17.34,0,.44ZM20.93,49.23l2.49,1.44c.17.1.17.34,0,.44l-2.49,1.44c-.08.05-.18.05-.26,0l-2.46-1.44c-.17-.1-.17-.34,0-.44l2.46-1.44c.08-.05.18-.05.26,0ZM20.93,54.47l2.49,1.44c.17.1.17.34,0,.44l-2.49,1.44c-.08.05-.18.05-.26,0l-2.46-1.44c-.17-.1-.17-.34,0-.44l2.46-1.44c.08-.05.18-.05.26,0ZM22.74,58.52l2.46-1.44c.08-.05.18-.05.26,0l2.49,1.44c.17.1.17.34,0,.44l-2.49,1.44c-.08.05-.18.05-.26,0l-2.46-1.44c-.17-.1-.17-.34,0-.44ZM27.28,56.34c-.17-.1-.17-.34,0-.44l2.46-1.44c.08-.05.18-.05.26,0l2.49,1.44c.17.1.17.34,0,.44l-2.49,1.44c-.08.05-.18.05-.26,0l-2.46-1.44ZM31.81,53.73c-.17-.1-.17-.34,0-.44l2.46-1.44c.08-.05.18-.05.26,0l2.49,1.44c.17.1.17.34,0,.44l-2.49,1.44c-.08.05-.18.05-.26,0l-2.46-1.44ZM34.53,46.62l2.49,1.44c.17.1.17.34,0,.44l-2.49,1.44c-.08.05-.18.05-.26,0l-2.46-1.44c-.17-.1-.17-.34,0-.44l2.46-1.44c.08-.05.18-.05.26,0ZM29.99,44l2.49,1.44c.17.1.17.34,0,.44l-2.49,1.44c-.08.05-.18.05-.26,0l-2.46-1.44c-.17-.1-.17-.34,0-.44l2.46-1.44c.08-.05.18-.05.26,0ZM25.46,41.38l2.49,1.44c.17.1.17.34,0,.44l-2.49,1.44c-.08.05-.18.05-.26,0l-2.46-1.44c-.17-.1-.17-.34,0-.44l2.46-1.44c.08-.05.18-.05.26,0ZM18.21,40.2l2.46-1.44c.08-.05.18-.05.26,0l2.49,1.44c.17.1.17.34,0,.44l-2.49,1.44c-.08.05-.18.05-.26,0l-2.46-1.44c-.17-.1-.17-.34,0-.44ZM13.68,43.26c-.17-.1-.17-.34,0-.44l2.46-1.44c.08-.05.18-.05.26,0l2.49,1.44c.17.1.17.34,0,.44l-2.49,1.44c-.08.05-.18.05-.26,0l-2.46-1.44ZM13.68,48.49c-.17-.1-.17-.34,0-.44l2.46-1.44c.08-.05.18-.05.26,0l2.49,1.44c.17.1.17.34,0,.44l-2.49,1.44c-.08.05-.18.05-.26,0l-2.46-1.44ZM13.68,53.73c-.17-.1-.17-.34,0-.44l2.46-1.44c.08-.05.18-.05.26,0l2.49,1.44c.17.1.17.34,0,.44l-2.49,1.44c-.08.05-.18.05-.26,0l-2.46-1.44ZM16.14,60.4l-2.46-1.44c-.17-.1-.17-.34,0-.44l2.46-1.44c.08-.05.18-.05.26,0l2.49,1.44c.17.1.17.34,0,.44l-2.49,1.44c-.08.05-.18.05-.26,0ZM18.21,61.58c-.17-.1-.17-.34,0-.44l2.46-1.44c.08-.05.18-.05.26,0l2.49,1.44c.17.1.17.34,0,.44l-2.49,1.44c-.08.05-.18.05-.26,0l-2.46-1.44ZM23.41,66.82l-2.49,1.44c-.08.05-.18.05-.26,0l-2.46-1.44c-.17-.1-.17-.34,0-.44l2.46-1.44c.08-.05.18-.05.26,0l2.49,1.44c.17.1.17.34,0,.44ZM27.94,64.2l-2.49,1.44c-.08.05-.18.05-.26,0l-2.46-1.44c-.17-.1-.17-.34,0-.44l2.46-1.44c.08-.05.18-.05.26,0l2.49,1.44c.17.1.17.34,0,.44ZM32.48,61.58l-2.49,1.44c-.08.05-.18.05-.26,0l-2.46-1.44c-.17-.1-.17-.34,0-.44l2.46-1.44c.08-.05.18-.05.26,0l2.49,1.44c.17.1.17.34,0,.44ZM37.01,58.96l-2.49,1.44c-.08.05-.18.05-.26,0l-2.46-1.44c-.17-.1-.17-.34,0-.44l2.46-1.44c.08-.05.18-.05.26,0l2.49,1.44c.17.1.17.34,0,.44ZM41.55,56.35l-2.49,1.44c-.08.05-.18.05-.26,0l-2.46-1.44c-.17-.1-.17-.34,0-.44l2.46-1.44c.08-.05.18-.05.26,0l2.49,1.44c.17.1.17.34,0,.44ZM46.08,53.73l-2.49,1.44c-.08.05-.18.05-.26,0l-2.46-1.44c-.17-.1-.17-.34,0-.44l2.46-1.44c.08-.05.18-.05.26,0l2.49,1.44c.17.1.17.34,0,.44ZM20.44,73.82l.73-.42c.17-.1.38.02.38.22v2.72c.05.15.1.28.16.44.29.85.77,1.45,1.38,1.91v-1.02c0-.09.04-.18.12-.22l2.49-1.44c.17-.1.38.02.38.22v2.87c0,.09-.05.18-.13.22l-.67.38c.72.22,1.5.41,2.34.62v-.04c0-.09.05-.18.13-.22l2.49-1.44c.17-.1.38.02.38.22v2.36c.77.28,1.56.63,2.35,1.08l1.8-1.04c.17-.1.38.02.38.22v2.34c.54.46,1.07.97,1.6,1.56.02-.03.04-.05.07-.07l2.49-1.44c.17-.1.38.02.38.22v2.87c0,.09-.05.18-.13.22l-1.04.6c.26.42.52.86.77,1.34h.02c.17-.11.38.01.38.21v.6c.05.11.11.21.16.32.54,1.16,1.53,1.8,2.83,2.15l1.17-.67c.17-.1.38.02.38.22v.72c.49.05,1.01.08,1.55.08v-1.99c0-.09.04-.18.12-.22l2.49-1.44c.17-.1.38.02.38.22v2.87c0,.09-.05.18-.13.22l-.51.29c.63-.03,1.27-.06,1.93-.1v-37.37l-30.33,17.51c.24.29.48.64.72,1.07ZM45.89,59.13l2.49-1.44c.17-.1.38.02.38.22v2.87c0,.09-.05.18-.13.22l-2.47,1.41c-.17.1-.38-.03-.38-.22v-2.85c-.01-.09.04-.18.11-.22ZM45.89,64.37l2.49-1.44c.17-.1.38.02.38.22v2.87c0,.09-.05.18-.13.22l-2.47,1.41c-.17.1-.38-.03-.38-.22v-2.85c-.01-.09.04-.18.11-.22ZM45.89,69.6l2.49-1.44c.17-.1.38.02.38.22v2.87c0,.09-.05.18-.13.22l-2.47,1.41c-.17.1-.38-.03-.38-.22v-2.85c-.01-.09.04-.18.11-.22ZM45.89,74.84l2.49-1.44c.17-.1.38.02.38.22v2.87c0,.09-.05.18-.13.22l-2.47,1.41c-.17.1-.38-.03-.38-.22v-2.85c-.01-.09.04-.18.11-.22ZM45.89,80.07l2.49-1.44c.17-.1.38.02.38.22v2.87c0,.09-.05.18-.13.22l-2.47,1.41c-.17.1-.38-.03-.38-.22v-2.85c-.01-.09.04-.18.11-.22ZM45.89,85.31l2.49-1.44c.17-.1.38.02.38.22v2.87c0,.09-.05.18-.13.22l-2.47,1.41c-.17.1-.38-.03-.38-.22v-2.85c-.01-.09.04-.18.11-.22ZM41.35,61.75l2.49-1.44c.17-.1.38.02.38.22v2.87c0,.09-.05.18-.13.22l-2.47,1.41c-.17.1-.38-.03-.38-.22v-2.85c-.01-.09.04-.18.11-.22ZM41.35,66.99l2.49-1.44c.17-.1.38.02.38.22v2.87c0,.09-.05.18-.13.22l-2.47,1.41c-.17.1-.38-.03-.38-.22v-2.85c-.01-.09.04-.18.11-.22ZM41.35,72.22l2.49-1.44c.17-.1.38.02.38.22v2.87c0,.09-.05.18-.13.22l-2.47,1.41c-.17.1-.38-.03-.38-.22v-2.85c-.01-.09.04-.18.11-.22ZM41.35,77.46l2.49-1.44c.17-.1.38.02.38.22v2.87c0,.09-.05.18-.13.22l-2.47,1.41c-.17.1-.38-.03-.38-.22v-2.85c-.01-.09.04-.18.11-.22ZM41.35,82.69l2.49-1.44c.17-.1.38.02.38.22v2.87c0,.09-.05.18-.13.22l-2.47,1.41c-.17.1-.38-.03-.38-.22v-2.85c-.01-.09.04-.18.11-.22ZM41.35,87.93l2.49-1.44c.17-.1.38.02.38.22v2.87c0,.09-.05.18-.13.22l-2.47,1.41c-.17.1-.38-.03-.38-.22v-2.85c-.01-.09.04-.18.11-.22ZM36.82,64.37l2.49-1.44c.17-.1.38.02.38.22v2.87c0,.09-.05.18-.13.22l-2.47,1.41c-.17.1-.38-.03-.38-.22v-2.85c-.01-.09.04-.18.11-.22ZM36.82,69.6l2.49-1.44c.17-.1.38.02.38.22v2.87c0,.09-.05.18-.13.22l-2.47,1.41c-.17.1-.38-.03-.38-.22v-2.85c-.01-.09.04-.18.11-.22ZM36.82,74.84l2.49-1.44c.17-.1.38.02.38.22v2.87c0,.09-.05.18-.13.22l-2.47,1.41c-.17.1-.38-.03-.38-.22v-2.85c-.01-.09.04-.18.11-.22ZM36.82,80.07l2.49-1.44c.17-.1.38.02.38.22v2.87c0,.09-.05.18-.13.22l-2.47,1.41c-.17.1-.38-.03-.38-.22v-2.85c-.01-.09.04-.18.11-.22ZM32.29,66.98l2.49-1.44c.17-.1.38.02.38.22v2.87c0,.09-.05.18-.13.22l-2.47,1.41c-.17.1-.38-.03-.38-.22v-2.85c-.01-.09.04-.18.11-.22ZM32.29,72.22l2.49-1.44c.17-.1.38.02.38.22v2.87c0,.09-.05.18-.13.22l-2.47,1.41c-.17.1-.38-.03-.38-.22v-2.85c-.01-.09.04-.18.11-.22ZM32.29,77.45l2.49-1.44c.17-.1.38.02.38.22v2.87c0,.09-.05.18-.13.22l-2.47,1.41c-.17.1-.38-.03-.38-.22v-2.85c-.01-.09.04-.18.11-.22ZM27.75,69.6l2.49-1.44c.17-.1.38.02.38.22v2.87c0,.09-.05.18-.13.22l-2.47,1.41c-.17.1-.38-.03-.38-.22v-2.85c-.01-.09.04-.18.11-.22ZM27.75,74.84l2.49-1.44c.17-.1.38.02.38.22v2.87c0,.09-.05.18-.13.22l-2.47,1.41c-.17.1-.38-.03-.38-.22v-2.85c-.01-.09.04-.18.11-.22ZM23.22,72.22l2.49-1.44c.17-.1.38.02.38.22v2.87c0,.09-.05.18-.13.22l-2.47,1.41c-.17.1-.38-.03-.38-.22v-2.85c-.01-.09.04-.18.11-.22ZM52.05,92.5c.48-.02.97-.04,1.46-.06l-.04-.02c-.08-.05-.13-.13-.13-.22v-2.87c0-.2.21-.32.38-.22l2.49,1.44c.08.05.13.13.13.22v1.69c.51.02,1.02.05,1.54.1v-.6c0-.2.21-.32.38-.22l1.98,1.14s.03,0,.04,0c.98.2,1.86.09,2.69-.21l-.42-.24c-.08-.05-.13-.13-.13-.22v-2.87c0-.2.21-.32.38-.22l2.49,1.44c.08.05.13.13.13.22v.39c.52-.44,1.04-.93,1.57-1.45-.02-.04-.03-.08-.03-.12v-2.87c0-.2.21-.32.38-.22l1.85,1.07c.72-.66,1.47-1.28,2.3-1.82v-1.65c0-.2.21-.32.38-.22l1.52.88c.8-.32,1.67-.53,2.63-.61v-2.66c0-.2.21-.32.38-.22l2.49,1.44c.08.05.13.13.13.22v.48c.82-.63,1.22-1.66,1.54-2.95v-1.58c0-.19.21-.31.38-.22.1-.51.2-1.04.32-1.59l-.57-.33c-.08-.05-.13-.13-.13-.22v-2.87c0-.2.21-.32.38-.22l1.15.66c.14-.4.3-.81.48-1.22l-30.5-17.61v37.26ZM76.01,71.01c0-.2.21-.32.38-.22l2.49,1.44c.08.05.13.13.13.22v2.85c-.01.2-.23.32-.4.22l-2.47-1.41c-.08-.05-.13-.13-.13-.22v-2.87ZM76.01,76.24c0-.2.21-.32.38-.22l2.49,1.44c.08.05.13.13.13.22v2.85c-.01.2-.23.32-.4.22l-2.47-1.41c-.08-.05-.13-.13-.13-.22v-2.87ZM71.47,68.39c0-.2.21-.32.38-.22l2.49,1.44c.08.05.13.13.13.22v2.85c-.01.2-.23.32-.4.22l-2.47-1.41c-.08-.05-.13-.13-.13-.22v-2.87ZM71.47,73.62c0-.2.21-.32.38-.22l2.49,1.44c.08.05.13.13.13.22v2.85c-.01.2-.23.32-.4.22l-2.47-1.41c-.08-.05-.13-.13-.13-.22v-2.87ZM71.47,78.86c0-.2.21-.32.38-.22l2.49,1.44c.08.05.13.13.13.22v2.85c-.01.2-.23.32-.4.22l-2.47-1.41c-.08-.05-.13-.13-.13-.22v-2.87ZM67.32,65.55l2.49,1.44c.08.05.13.13.13.22v2.85c-.01.2-.23.32-.4.22l-2.47-1.41c-.08-.05-.13-.13-.13-.22v-2.87c0-.2.21-.32.38-.22ZM66.94,71.01c0-.2.21-.32.38-.22l2.49,1.44c.08.05.13.13.13.22v2.85c-.01.2-.23.32-.4.22l-2.47-1.41c-.08-.05-.13-.13-.13-.22v-2.87ZM66.94,76.24c0-.2.21-.32.38-.22l2.49,1.44c.08.05.13.13.13.22v2.85c-.01.2-.23.32-.4.22l-2.47-1.41c-.08-.05-.13-.13-.13-.22v-2.87ZM66.94,81.48c0-.2.21-.32.38-.22l2.49,1.44c.08.05.13.13.13.22v2.85c-.01.2-.23.32-.4.22l-2.47-1.41c-.08-.05-.13-.13-.13-.22v-2.87ZM62.41,63.15c0-.2.21-.32.38-.22l2.49,1.44c.08.05.13.13.13.22v2.85c-.01.2-.23.32-.4.22l-2.47-1.41c-.08-.05-.13-.13-.13-.22v-2.87ZM62.41,68.39c0-.2.21-.32.38-.22l2.49,1.44c.08.05.13.13.13.22v2.85c-.01.2-.23.32-.4.22l-2.47-1.41c-.08-.05-.13-.13-.13-.22v-2.87ZM62.41,73.62c0-.2.21-.32.38-.22l2.49,1.44c.08.05.13.13.13.22v2.85c-.01.2-.23.32-.4.22l-2.47-1.41c-.08-.05-.13-.13-.13-.22v-2.87ZM62.79,78.64l2.49,1.44c.08.05.13.13.13.22v2.85c-.01.2-.23.32-.4.22l-2.47-1.41c-.08-.05-.13-.13-.13-.22v-2.87c0-.2.21-.32.38-.22ZM62.41,84.09c0-.2.21-.32.38-.22l2.49,1.44c.08.05.13.13.13.22v2.85c-.01.2-.23.32-.4.22l-2.47-1.41c-.08-.05-.13-.13-.13-.22v-2.87ZM58.26,60.32l2.49,1.44c.08.05.13.13.13.22v2.85c-.01.2-.23.32-.4.22l-2.47-1.41c-.08-.05-.13-.13-.13-.22v-2.87c0-.2.21-.32.38-.22ZM57.87,65.77c0-.2.21-.32.38-.22l2.49,1.44c.08.05.13.13.13.22v2.85c-.01.2-.23.32-.4.22l-2.47-1.41c-.08-.05-.13-.13-.13-.22v-2.87ZM57.87,71.01c0-.2.21-.32.38-.22l2.49,1.44c.08.05.13.13.13.22v2.85c-.01.2-.23.32-.4.22l-2.47-1.41c-.08-.05-.13-.13-.13-.22v-2.87ZM57.87,76.24c0-.2.21-.32.38-.22l2.49,1.44c.08.05.13.13.13.22v2.85c-.01.2-.23.32-.4.22l-2.47-1.41c-.08-.05-.13-.13-.13-.22v-2.87ZM57.87,81.48c0-.2.21-.32.38-.22l2.49,1.44c.08.05.13.13.13.22v2.85c-.01.2-.23.32-.4.22l-2.47-1.41c-.08-.05-.13-.13-.13-.22v-2.87ZM57.87,86.71c0-.2.21-.32.38-.22l2.49,1.44c.08.05.13.13.13.22v2.85c-.01.2-.23.32-.4.22l-2.47-1.41c-.08-.05-.13-.13-.13-.22v-2.87ZM53.34,57.92c0-.2.21-.32.38-.22l2.49,1.44c.08.05.13.13.13.22v2.85c-.01.2-.23.32-.4.22l-2.47-1.41c-.08-.05-.13-.13-.13-.22v-2.87ZM53.34,63.15c0-.2.21-.32.38-.22l2.49,1.44c.08.05.13.13.13.22v2.85c-.01.2-.23.32-.4.22l-2.47-1.41c-.08-.05-.13-.13-.13-.22v-2.87ZM53.34,68.39c0-.2.21-.32.38-.22l2.49,1.44c.08.05.13.13.13.22v2.85c-.01.2-.23.32-.4.22l-2.47-1.41c-.08-.05-.13-.13-.13-.22v-2.87ZM53.34,73.62c0-.2.21-.32.38-.22l2.49,1.44c.08.05.13.13.13.22v2.85c-.01.2-.23.32-.4.22l-2.47-1.41c-.08-.05-.13-.13-.13-.22v-2.87ZM53.34,78.86c0-.2.21-.32.38-.22l2.49,1.44c.08.05.13.13.13.22v2.85c-.01.2-.23.32-.4.22l-2.47-1.41c-.08-.05-.13-.13-.13-.22v-2.87ZM53.34,84.09c0-.2.21-.32.38-.22l2.49,1.44c.08.05.13.13.13.22v2.85c-.01.2-.23.32-.4.22l-2.47-1.41c-.08-.05-.13-.13-.13-.22v-2.87ZM91.02,47l-.53.31c-.08.05-.18.05-.26,0l-2.49-1.44c-.17-.1-.17-.34,0-.44l2.03-1.17c-.62-.87-1.49-1.74-2.67-2.57-1.72-1.22-2.9-2.4-3.73-3.57l-.16-.09c-.12-.07-.15-.21-.1-.32-.25-.39-.47-.79-.65-1.18l-29.42,16.98h0s0,0,0,0l30.41,17.56c.21-.36.44-.73.69-1.09l-.93-.54c-.17-.1-.17-.34,0-.44l2.49-1.44c.08-.05.18-.05.26,0l.1.06s.06-.06.09-.1c1.2-1.24,1.75-2.23,1.99-3.16l-2.18,1.27c-.08.05-.18.05-.26,0l-2.49-1.44c-.17-.1-.17-.34,0-.44l2.49-1.44c.08-.05.18-.05.26,0l2.31,1.35c.06-.58.04-1.16,0-1.79l-.51-.29c-.17-.1-.17-.34,0-.44l.45-.26c-.03-.54-.03-1.14.02-1.8l-2.26,1.32c-.08.05-.18.05-.26,0l-2.49-1.44c-.17-.1-.17-.34,0-.44l2.49-1.44c.08-.05.18-.05.26,0l2.32,1.35c.06-.49.16-1.03.31-1.61l-.84-.49c-.17-.1-.17-.34,0-.44l1.39-.8c.14-.37.28-.75.46-1.15.15-.34.39-.82.64-1.4l-2.5-1.44c-.17-.1-.17-.34,0-.44l2.49-1.44c.08-.05.18-.05.26,0,.13.08.35.21.62.36.11-.81.11-1.69-.09-2.59ZM85.7,41.38c.08-.05.18-.05.26,0l2.46,1.44c.17.1.17.34,0,.44l-2.46,1.44c-.08.05-.18.05-.26,0l-2.49-1.44c-.17-.1-.17-.34,0-.44l2.49-1.44ZM74.82,50.67c.17.1.17.34,0,.44l-2.46,1.44c-.08.05-.18.05-.26,0l-2.49-1.44c-.17-.1-.17-.34,0-.44l2.49-1.44c.08-.05.18-.05.26,0l2.46,1.44ZM74.15,48.05l2.49-1.44c.08-.05.18-.05.26,0l2.46,1.44c.17.1.17.34,0,.44l-2.46,1.44c-.08.05-.18.05-.26,0l-2.49-1.44c-.17-.1-.17-.34,0-.44ZM70.28,53.29c.17.1.17.34,0,.44l-2.46,1.44c-.08.05-.18.05-.26,0l-2.49-1.44c-.17-.1-.17-.34,0-.44l2.49-1.44c.08-.05.18-.05.26,0l2.46,1.44ZM69.61,55.9l2.49-1.44c.08-.05.18-.05.26,0l2.46,1.44c.17.1.17.34,0,.44l-2.46,1.44c-.08.05-.18.05-.26,0l-2.49-1.44c-.17-.1-.17-.34,0-.44ZM74.15,58.52l2.49-1.44c.08-.05.18-.05.26,0l2.46,1.44c.17.1.17.34,0,.44l-2.46,1.44c-.08.05-.18.05-.26,0l-2.49-1.44c-.17-.1-.17-.34,0-.44ZM76.63,55.16l-2.49-1.44c-.17-.1-.17-.34,0-.44l2.49-1.44c.08-.05.18-.05.26,0l2.46,1.44c.17.1.17.34,0,.44l-2.46,1.44c-.08.05-.18.05-.26,0ZM78.68,51.11c-.17-.1-.17-.34,0-.44l2.49-1.44c.08-.05.18-.05.26,0l2.46,1.44c.17.1.17.34,0,.44l-2.46,1.44c-.08.05-.18.05-.26,0l-2.49-1.44ZM81.17,47.31l-2.49-1.44c-.17-.1-.17-.34,0-.44l2.49-1.44c.08-.05.18-.05.26,0l2.46,1.44c.17.1.17.34,0,.44l-2.46,1.44c-.08.05-.18.05-.26,0ZM78.68,40.2l2.49-1.44c.08-.05.18-.05.26,0l2.46,1.44c.17.1.17.34,0,.44l-2.46,1.44c-.08.05-.18.05-.26,0l-2.49-1.44c-.17-.1-.17-.34,0-.44ZM74.15,42.82l2.49-1.44c.08-.05.18-.05.26,0l2.46,1.44c.17.1.17.34,0,.44l-2.46,1.44c-.08.05-.18.05-.26,0l-2.49-1.44c-.17-.1-.17-.34,0-.44ZM69.62,45.43l2.49-1.44c.08-.05.18-.05.26,0l2.46,1.44c.17.1.17.34,0,.44l-2.46,1.44c-.08.05-.18.05-.26,0l-2.49-1.44c-.17-.1-.17-.34,0-.44ZM65.08,48.05l2.49-1.44c.08-.05.18-.05.26,0l2.46,1.44c.17.1.17.34,0,.44l-2.46,1.44c-.08.05-.18.05-.26,0l-2.49-1.44c-.17-.1-.17-.34,0-.44ZM60.55,50.67l2.49-1.44c.08-.05.18-.05.26,0l2.46,1.44c.17.1.17.34,0,.44l-2.46,1.44c-.08.05-.18.05-.26,0l-2.49-1.44c-.17-.1-.17-.34,0-.44ZM58.5,55.16l-2.49-1.44c-.17-.1-.17-.34,0-.44l2.49-1.44c.08-.05.18-.05.26,0l2.46,1.44c.17.1.17.34,0,.44l-2.46,1.44c-.08.05-.18.05-.26,0ZM63.03,57.78l-2.49-1.44c-.17-.1-.17-.34,0-.44l2.49-1.44c.08-.05.18-.05.26,0l2.46,1.44c.17.1.17.34,0,.44l-2.46,1.44c-.08.05-.18.05-.26,0ZM67.57,60.4l-2.49-1.44c-.17-.1-.17-.34,0-.44l2.49-1.44c.08-.05.18-.05.26,0l2.46,1.44c.17.1.17.34,0,.44l-2.46,1.44c-.08.05-.18.05-.26,0ZM72.1,63.02l-2.49-1.44c-.17-.1-.17-.34,0-.44l2.49-1.44c.08-.05.18-.05.26,0l2.46,1.44c.17.1.17.34,0,.44l-2.46,1.44c-.08.05-.18.05-.26,0ZM76.63,65.63l-2.49-1.44c-.17-.1-.17-.34,0-.44l2.49-1.44c.08-.05.18-.05.26,0l2.46,1.44c.17.1.17.34,0,.44l-2.46,1.44c-.08.05-.18.05-.26,0ZM83.88,66.37c.17.1.17.34,0,.44l-2.46,1.44c-.08.05-.18.05-.26,0l-2.49-1.44c-.17-.1-.17-.34,0-.44l2.49-1.44c.08-.05.18-.05.26,0l2.46,1.44ZM83.88,61.14c.17.1.17.34,0,.44l-2.46,1.44c-.08.05-.18.05-.26,0l-2.49-1.44c-.17-.1-.17-.34,0-.44l2.49-1.44c.08-.05.18-.05.26,0l2.46,1.44ZM83.88,56.34l-2.46,1.44c-.08.05-.18.05-.26,0l-2.49-1.44c-.17-.1-.17-.34,0-.44l2.49-1.44c.08-.05.18-.05.26,0l2.46,1.44c.17.1.17.34,0,.44ZM88.42,53.29c.17.1.17.34,0,.44l-2.46,1.44c-.08.05-.18.05-.26,0l-2.49-1.44c-.17-.1-.17-.34,0-.44l2.49-1.44c.08-.05.18-.05.26,0l2.46,1.44ZM88.42,48.49l-2.46,1.44c-.08.05-.18.05-.26,0l-2.49-1.44c-.17-.1-.17-.34,0-.44l2.49-1.44c.08-.05.18-.05.26,0l2.46,1.44c.17.1.17.34,0,.44ZM81.53,33.26l-.6.35c-.17.1-.38-.02-.38-.22v-2.87c0-.09.05-.18.13-.22l.47-.27c-.06-.54-.14-1.09-.24-1.64-.17.08-.36-.04-.36-.23v-1.49c-.29-1.13-.92-1.82-1.78-2.27l-2.37,1.37c-.17.1-.38-.02-.38-.22v-1.96c-1.16-.2-2.46-.35-3.83-.63l-.32.19c-.17.1-.38-.02-.38-.22v-.12c-.51-.12-1.03-.27-1.54-.44v1.75c0,.09-.04.18-.12.22l-2.49,1.44c-.17.1-.38-.02-.38-.22v-2.87c0-.09.05-.18.13-.22l1.28-.73c-1-.48-1.99-1.11-2.95-1.96v1.73c0,.09-.04.18-.12.22l-2.49,1.44c-.17.1-.38-.02-.38-.22v-2.87c0-.09.05-.18.13-.22l1.86-1.06c-.34-.37-.68-.77-1.01-1.2l-.6.35c-.17.1-.38-.02-.38-.22v-1.6c-.11-.18-.22-.36-.33-.55-.57-1.01-1.26-1.32-2.13-1.22l-1.69.98c-.17.1-.38-.02-.38-.22v-.08c-.47.21-.99.46-1.54.72v.54c0,.09-.05.18-.13.22l-2.49,1.44c-.17.1-.38-.02-.38-.22v-.75c-.41.14-.84.27-1.29.39v34.45l29.74-17.17c-.11-.44-.19-.89-.26-1.34ZM53.34,20.05c0-.09.05-.18.13-.22l2.47-1.41c.17-.1.38.03.38.22v2.85c.01.09-.04.18-.11.22l-2.49,1.44c-.17.1-.38-.02-.38-.22v-2.87ZM56.21,47.88l-2.49,1.44c-.17.1-.38-.02-.38-.22v-2.87c0-.09.05-.18.13-.22l2.47-1.41c.17-.1.38.03.38.22v2.85c.01.09-.04.18-.11.22ZM56.21,42.65l-2.49,1.44c-.17.1-.38-.02-.38-.22v-2.87c0-.09.05-.18.13-.22l2.47-1.41c.17-.1.38.03.38.22v2.85c.01.09-.04.18-.11.22ZM56.21,37.41l-2.49,1.44c-.17.1-.38-.02-.38-.22v-2.87c0-.09.05-.18.13-.22l2.47-1.41c.17-.1.38.03.38.22v2.85c.01.09-.04.18-.11.22ZM56.21,32.18l-2.49,1.44c-.17.1-.38-.02-.38-.22v-2.87c0-.09.05-.18.13-.22l2.47-1.41c.17-.1.38.03.38.22v2.85c.01.09-.04.18-.11.22ZM56.21,26.94l-2.49,1.44c-.17.1-.38-.02-.38-.22v-2.87c0-.09.05-.18.13-.22l2.47-1.41c.17-.1.38.03.38.22v2.85c.01.09-.04.18-.11.22ZM60.74,45.26l-2.49,1.44c-.17.1-.38-.02-.38-.22v-2.87c0-.09.05-.18.13-.22l2.47-1.41c.17-.1.38.03.38.22v2.85c.01.09-.04.18-.11.22ZM60.74,40.03l-2.49,1.44c-.17.1-.38-.02-.38-.22v-2.87c0-.09.05-.18.13-.22l2.47-1.41c.17-.1.38.03.38.22v2.85c.01.09-.04.18-.11.22ZM60.74,34.79l-2.49,1.44c-.17.1-.38-.02-.38-.22v-2.87c0-.09.05-.18.13-.22l2.47-1.41c.17-.1.38.03.38.22v2.85c.01.09-.04.18-.11.22ZM60.74,29.56l-2.49,1.44c-.17.1-.38-.02-.38-.22v-2.87c0-.09.05-.18.13-.22l2.47-1.41c.17-.1.38.03.38.22v2.85c.01.09-.04.18-.11.22ZM60.74,24.32l-2.49,1.44c-.17.1-.38-.02-.38-.22v-2.87c0-.09.05-.18.13-.22l2.47-1.41c.17-.1.38.03.38.22v2.85c.01.09-.04.18-.11.22ZM60.74,19.09l-2.49,1.44c-.17.1-.38-.02-.38-.22v-2.87c0-.09.05-.18.13-.22l2.47-1.41c.17-.1.38.03.38.22v2.85c.01.09-.04.18-.11.22ZM65.28,42.65l-2.49,1.44c-.17.1-.38-.02-.38-.22v-2.87c0-.09.05-.18.13-.22l2.47-1.41c.17-.1.38.03.38.22v2.85c.01.09-.04.18-.11.22ZM65.28,37.41l-2.49,1.44c-.17.1-.38-.02-.38-.22v-2.87c0-.09.05-.18.13-.22l2.47-1.41c.17-.1.38.03.38.22v2.85c.01.09-.04.18-.11.22ZM65.28,32.18l-2.49,1.44c-.17.1-.38-.02-.38-.22v-2.87c0-.09.05-.18.13-.22l2.47-1.41c.17-.1.38.03.38.22v2.85c.01.09-.04.18-.11.22ZM65.28,26.94l-2.49,1.44c-.17.1-.38-.02-.38-.22v-2.87c0-.09.05-.18.13-.22l2.47-1.41c.17-.1.38.03.38.22v2.85c.01.09-.04.18-.11.22ZM69.81,40.03l-2.49,1.44c-.17.1-.38-.02-.38-.22v-2.87c0-.09.05-.18.13-.22l2.47-1.41c.17-.1.38.03.38.22v2.85c.01.09-.04.18-.11.22ZM69.81,34.79l-2.49,1.44c-.17.1-.38-.02-.38-.22v-2.87c0-.09.05-.18.13-.22l2.47-1.41c.17-.1.38.03.38.22v2.85c.01.09-.04.18-.11.22ZM69.81,29.56l-2.49,1.44c-.17.1-.38-.02-.38-.22v-2.87c0-.09.05-.18.13-.22l2.47-1.41c.17-.1.38.03.38.22v2.85c.01.09-.04.18-.11.22ZM74.34,37.41l-2.49,1.44c-.17.1-.38-.02-.38-.22v-2.87c0-.09.05-.18.13-.22l2.47-1.41c.17-.1.38.03.38.22v2.85c.01.09-.04.18-.11.22ZM74.34,32.18l-2.49,1.44c-.17.1-.38-.02-.38-.22v-2.87c0-.09.05-.18.13-.22l2.47-1.41c.17-.1.38.03.38.22v2.85c.01.09-.04.18-.11.22ZM74.34,26.94l-2.49,1.44c-.17.1-.38-.02-.38-.22v-2.87c0-.09.05-.18.13-.22l2.47-1.41c.17-.1.38.03.38.22v2.85c.01.09-.04.18-.11.22ZM78.87,34.79l-2.49,1.44c-.17.1-.38-.02-.38-.22v-2.87c0-.09.05-.18.13-.22l2.47-1.41c.17-.1.38.03.38.22v2.85c.01.09-.04.18-.11.22ZM78.87,29.56l-2.49,1.44c-.17.1-.38-.02-.38-.22v-2.87c0-.09.05-.18.13-.22l2.47-1.41c.17-.1.38.03.38.22v2.85c.01.09-.04.18-.11.22Z"/>
</svg>