<?xml version="1.0" encoding="UTF-8"?>
<svg id="Layer_1" data-name="Layer 1" xmlns="http://www.w3.org/2000/svg" xmlns:xlink="http://www.w3.org/1999/xlink" viewBox="0 0 105 105">
  <defs>
    <style>
      .cls-1 {
        fill: none;
        filter: url(#drop-shadow-13);
        stroke: url(#linear-gradient);
        stroke-miterlimit: 10;
      }

      .cls-2 {
        fill: url(#radial-gradient);
        filter: url(#drop-shadow-12);
      }

      .cls-2, .cls-3 {
        stroke-width: 0px;
      }

      .cls-3 {
        fill: url(#radial-gradient-2);
      }
    </style>
    <radialGradient id="radial-gradient" cx="52.5" cy="52.5" fx="52.5" fy="52.5" r="39.51" gradientUnits="userSpaceOnUse">
      <stop offset="0" stop-color="#f8eed8"/>
      <stop offset="1" stop-color="#fefaf2"/>
    </radialGradient>
    <filter id="drop-shadow-12" filterUnits="userSpaceOnUse">
      <feOffset dx="0" dy="0"/>
      <feGaussianBlur result="blur" stdDeviation="5"/>
      <feFlood flood-color="#000" flood-opacity=".25"/>
      <feComposite in2="blur" operator="in"/>
      <feComposite in="SourceGraphic"/>
    </filter>
    <linearGradient id="linear-gradient" x1="87.38" y1="32.69" x2="20.39" y2="71.37" gradientUnits="userSpaceOnUse">
      <stop offset="0" stop-color="#f8ecd2"/>
      <stop offset="1" stop-color="#f5e2bb"/>
    </linearGradient>
    <filter id="drop-shadow-13" filterUnits="userSpaceOnUse">
      <feOffset dx="0" dy="0"/>
      <feGaussianBlur result="blur-2" stdDeviation="5"/>
      <feFlood flood-color="#000" flood-opacity=".25"/>
      <feComposite in2="blur-2" operator="in"/>
      <feComposite in="SourceGraphic"/>
    </filter>
    <radialGradient id="radial-gradient-2" cx="52.5" cy="52.5" fx="52.5" fy="52.5" r="39.5" gradientUnits="userSpaceOnUse">
      <stop offset="0" stop-color="#f5e2bb"/>
      <stop offset="1" stop-color="#f8ecd2"/>
    </radialGradient>
  </defs>
  <path class="cls-2" d="M14.4,41.93c11.67-6.52,4.85-17.54,11.67-18.57,5.35-1.34,9.59.45,14.49-6.45s10.41-3.31,12.26-2.5c7.83,3.46,8.95-1.03,13.57,3.46,8,7.76,16.45,3.08,16.59,9.55.17,8.02,9.96,10.33,8.76,16.33-1.67,8.37,2.17,18.19-2.63,20.43-13,6.07-7.8,16.21-13.46,18.13-9.88,3.36-.87,6.16-12,7.43-7.02.48-21.48,5.53-24.17-.43-1.21-3.4-13.42-5.95-13.42-9.55,0-11.45-10.72-13.6-9.55-20.86,1.63-10.07-6.32-14.6-2.12-16.94Z"/>
  <path class="cls-1" d="M14.4,41.93c11.67-6.52,4.85-17.54,11.67-18.57,5.35-1.34,9.59.45,14.49-6.45s10.41-3.31,12.26-2.5c7.83,3.46,8.95-1.03,13.57,3.46,8,7.76,16.45,3.08,16.59,9.55.17,8.02,9.96,10.33,8.76,16.33-1.67,8.37,2.17,18.19-2.63,20.43-13,6.07-7.8,16.21-13.46,18.13-9.88,3.36-.87,6.16-12,7.43-7.02.48-21.48,5.53-24.17-.43-1.21-3.4-13.42-5.95-13.42-9.55,0-11.45-10.72-13.6-9.55-20.86,1.63-10.07-6.32-14.6-2.12-16.94Z"/>
  <path class="cls-3" d="M16.59,53.96c.06.44.11.89.13,1.36.08.08.12.2.06.31l-.05.08c.03.99-.03,2.04-.21,3.16-.05.31-.07.62-.08.91h2.73c.2,0,.32.21.22.38l-1.44,2.49c-.05.08-.13.13-.22.13h-.65c.35.73.81,1.43,1.34,2.13l.26-.46c.05-.08.13-.13.22-.13h2.87c.2,0,.32.21.22.38l-1.44,2.49s-.07.08-.12.1c.45.5.9,1.02,1.36,1.56h2.59c.2,0,.32.21.22.38l-1.1,1.91c.45.7.87,1.44,1.23,2.24h2.27c.2,0,.32.21.22.38l-1.44,2.49s-.06.07-.09.09c.17.8.28,1.66.33,2.58l.51-.89c.05-.08.13-.13.22-.13h2.87c.2,0,.32.21.22.38l-1.44,2.49c-.05.08-.13.13-.22.13h-1.7c.5.68,1.39,1.34,2.49,1.98l.18-.31c.05-.08.13-.13.22-.13h2.87c.2,0,.32.21.22.38l-.83,1.43c.39.19.78.37,1.17.56l17.82-30.87H16.59ZM38.22,57.86l1.41-2.47c.05-.08.13-.13.22-.13h2.87c.2,0,.32.21.22.38l-1.44,2.49c-.05.08-.13.13-.22.13h-2.85c-.2-.01-.32-.23-.22-.4ZM27.75,66.92l1.41-2.47c.05-.08.13-.13.22-.13h2.87c.2,0,.32.21.22.38l-1.44,2.49c-.05.08-.13.13-.22.13h-2.85c-.2-.01-.32-.23-.22-.4ZM25.36,62.77c-.2,0-.32-.21-.22-.38l1.41-2.47c.05-.08.13-.13.22-.13h2.87c.2,0,.32.21.22.38l-1.44,2.49c-.05.08-.13.13-.22.13h-2.85ZM30.37,62.39l1.41-2.47c.05-.08.13-.13.22-.13h2.87c.2,0,.32.21.22.38l-1.44,2.49c-.05.08-.13.13-.22.13h-2.85c-.2-.01-.32-.23-.22-.4ZM30.37,71.46l1.41-2.47c.05-.08.13-.13.22-.13h2.87c.2,0,.32.21.22.38l-1.44,2.49c-.05.08-.13.13-.22.13h-2.85c-.2-.01-.32-.23-.22-.4ZM33.21,67.3c-.2,0-.32-.21-.22-.38l1.41-2.47c.05-.08.13-.13.22-.13h2.87c.2,0,.32.21.22.38l-1.44,2.49c-.05.08-.13.13-.22.13h-2.85ZM35.82,62.77c-.2,0-.32-.21-.22-.38l1.41-2.47c.05-.08.13-.13.22-.13h2.87c.2,0,.32.21.22.38l-1.44,2.49c-.05.08-.13.13-.22.13h-2.85ZM32.99,57.86l1.41-2.47c.05-.08.13-.13.22-.13h2.87c.2,0,.32.21.22.38l-1.44,2.49c-.05.08-.13.13-.22.13h-2.85c-.2-.01-.32-.23-.22-.4ZM27.75,57.85l1.41-2.47c.05-.08.13-.13.22-.13h2.87c.2,0,.32.21.22.38l-1.44,2.49c-.05.08-.13.13-.22.13h-2.85c-.2-.01-.32-.23-.22-.4ZM22.52,57.85l1.41-2.47c.05-.08.13-.13.22-.13h2.87c.2,0,.32.21.22.38l-1.44,2.49c-.05.08-.13.13-.22.13h-2.85c-.2-.01-.32-.23-.22-.4ZM17.5,58.24c-.2,0-.32-.21-.22-.38l1.41-2.47c.05-.08.13-.13.22-.13h2.87c.2,0,.32.21.22.38l-1.44,2.49c-.05.08-.13.13-.22.13h-2.85ZM20.12,62.77c-.2,0-.32-.21-.22-.38l1.41-2.47c.05-.08.13-.13.22-.13h2.87c.2,0,.32.21.22.38l-1.44,2.49c-.05.08-.13.13-.22.13h-2.85ZM22.74,67.3c-.2,0-.32-.21-.22-.38l1.41-2.47c.05-.08.13-.13.22-.13h2.87c.2,0,.32.21.22.38l-1.44,2.49c-.05.08-.13.13-.22.13h-2.85ZM25.36,71.84c-.2,0-.32-.21-.22-.38l1.41-2.47c.05-.08.13-.13.22-.13h2.87c.2,0,.32.21.22.38l-1.44,2.49c-.05.08-.13.13-.22.13h-2.85ZM27.97,76.37c-.2,0-.32-.21-.22-.38l1.41-2.47c.05-.08.13-.13.22-.13h2.87c.2,0,.32.21.22.38l-1.44,2.49c-.05.08-.13.13-.22.13h-2.85ZM35.09,78.3l-1.44,2.49c-.05.08-.13.13-.22.13h-2.85c-.2-.01-.32-.23-.22-.4l1.41-2.47c.05-.08.13-.13.22-.13h2.87c.2,0,.32.21.22.38ZM37.71,73.77l-1.44,2.49c-.05.08-.13.13-.22.13h-2.85c-.2-.01-.32-.23-.22-.4l1.41-2.47c.05-.08.13-.13.22-.13h2.87c.2,0,.32.21.22.38ZM40.33,69.24l-1.44,2.49c-.05.08-.13.13-.22.13h-2.85c-.2-.01-.32-.23-.22-.4l1.41-2.47c.05-.08.13-.13.22-.13h2.87c.2,0,.32.21.22.38ZM42.95,64.7l-1.44,2.49c-.05.08-.13.13-.22.13h-2.85c-.2-.01-.32-.23-.22-.4l1.41-2.47c.05-.08.13-.13.22-.13h2.87c.2,0,.32.21.22.38ZM45.56,60.17l-1.44,2.49c-.05.08-.13.13-.22.13h-2.85c-.2-.01-.32-.23-.22-.4l1.41-2.47c.05-.08.13-.13.22-.13h2.87c.2,0,.32.21.22.38ZM46.75,58.12c-.05.08-.13.13-.22.13h-2.85c-.2-.01-.32-.23-.22-.4l1.41-2.47c.05-.08.13-.13.22-.13h2.87c.2,0,.32.21.22.38l-1.44,2.49ZM52.37,54.96h0s-17.74,30.73-17.74,30.73c.4.19.78.39,1.16.58l.66-1.14c.1-.17.34-.17.44,0l1.44,2.49c.04.08.04.17,0,.25.57.46.98.94,1.15,1.43.63,1.39,1.89,2.17,3.55,2.57l1.27-2.19c.1-.17.34-.17.44,0l1.44,2.49s0,.02,0,.02c.63,0,1.28-.02,1.94-.07l1.41-2.44c.1-.17.34-.17.44,0l1.21,2.09c.87-.12,1.74-.27,2.62-.42l.97-1.67c.1-.17.34-.17.44,0l.74,1.28c1.28-.24,2.53-.48,3.71-.68l.35-.6c.1-.17.34-.17.44,0l.24.42c.58-.09,1.13-.17,1.65-.24l-1.15-1.98c-.05-.08-.05-.18,0-.26l1.44-2.49c.1-.17.34-.17.44,0l1.44,2.49c.05.08.05.18,0,.26l-1.09,1.87c.08,0,.16-.02.24-.02,1.51-.17,2.64-.37,3.5-.6l-.73-1.25c-.05-.08-.05-.18,0-.26l1.44-2.49c.1-.17.34-.17.44,0l1.44,2.49s0,.04.01.05c.31-.48.38-1.02.59-1.6l-17.96-31.11h0ZM48.1,64.95l1.44-2.49c.1-.17.34-.17.44,0l1.44,2.49c.05.08.05.18,0,.26l-1.44,2.46c-.1.17-.34.17-.44,0l-1.44-2.46c-.05-.08-.05-.18,0-.26ZM56.65,74.27l-1.44,2.46c-.1.17-.34.17-.44,0l-1.44-2.46c-.05-.08-.05-.18,0-.26l1.44-2.49c.1-.17.34-.17.44,0l1.44,2.49c.05.08.05.18,0,.26ZM57.39,76.06c.1-.17.34-.17.44,0l1.44,2.49c.05.08.05.18,0,.26l-1.44,2.46c-.1.17-.34.17-.44,0l-1.44-2.46c-.05-.08-.05-.18,0-.26l1.44-2.49ZM48.1,74.27c-.05-.08-.05-.18,0-.26l1.44-2.49c.1-.17.34-.17.44,0l1.44,2.49c.05.08.05.18,0,.26l-1.44,2.46c-.1.17-.34.17-.44,0l-1.44-2.46ZM48.8,78.81l-1.44,2.46c-.1.17-.34.17-.44,0l-1.44-2.46c-.05-.08-.05-.18,0-.26l1.44-2.49c.1-.17.34-.17.44,0l1.44,2.49c.05.08.05.18,0,.26ZM50.72,78.55l1.44-2.49c.1-.17.34-.17.44,0l1.44,2.49c.05.08.05.18,0,.26l-1.44,2.46c-.1.17-.34.17-.44,0l-1.44-2.46c-.05-.08-.05-.18,0-.26ZM54.03,69.74l-1.44,2.46c-.1.17-.34.17-.44,0l-1.44-2.46c-.05-.08-.05-.18,0-.26l1.44-2.49c.1-.17.34-.17.44,0l1.44,2.49c.05.08.05.18,0,.26ZM45.48,69.48l1.44-2.49c.1-.17.34-.17.44,0l1.44,2.49c.05.08.05.18,0,.26l-1.44,2.46c-.1.17-.34.17-.44,0l-1.44-2.46c-.05-.08-.05-.18,0-.26ZM42.86,74.01l1.44-2.49c.1-.17.34-.17.44,0l1.44,2.49c.05.08.05.18,0,.26l-1.44,2.46c-.1.17-.34.17-.44,0l-1.44-2.46c-.05-.08-.05-.18,0-.26ZM40.25,78.55l1.44-2.49c.1-.17.34-.17.44,0l1.44,2.49c.05.08.05.18,0,.26l-1.44,2.46c-.1.17-.34.17-.44,0l-1.44-2.46c-.05-.08-.05-.18,0-.26ZM39.07,85.8l-1.44-2.46c-.05-.08-.05-.18,0-.26l1.44-2.49c.1-.17.34-.17.44,0l1.44,2.49c.05.08.05.18,0,.26l-1.44,2.46c-.1.17-.34.17-.44,0ZM43.56,87.87l-1.44,2.46c-.1.17-.34.17-.44,0l-1.44-2.46c-.05-.08-.05-.18,0-.26l1.44-2.49c.1-.17.34-.17.44,0l1.44,2.49c.05.08.05.18,0,.26ZM44.74,85.8c-.1.17-.34.17-.44,0l-1.44-2.46c-.05-.08-.05-.18,0-.26l1.44-2.49c.1-.17.34-.17.44,0l1.44,2.49c.05.08.05.18,0,.26l-1.44,2.46ZM48.8,87.87l-1.44,2.46c-.1.17-.34.17-.44,0l-1.44-2.46c-.05-.08-.05-.18,0-.26l1.44-2.49c.1-.17.34-.17.44,0l1.44,2.49c.05.08.05.18,0,.26ZM49.98,85.8c-.1.17-.34.17-.44,0l-1.44-2.46c-.05-.08-.05-.18,0-.26l1.44-2.49c.1-.17.34-.17.44,0l1.44,2.49c.05.08.05.18,0,.26l-1.44,2.46ZM54.03,87.87l-1.44,2.46c-.1.17-.34.17-.44,0l-1.44-2.46c-.05-.08-.05-.18,0-.26l1.44-2.49c.1-.17.34-.17.44,0l1.44,2.49c.05.08.05.18,0,.26ZM55.21,85.8c-.1.17-.34.17-.44,0l-1.44-2.46c-.05-.08-.05-.18,0-.26l1.44-2.49c.1-.17.34-.17.44,0l1.44,2.49c.05.08.05.18,0,.26l-1.44,2.46ZM59.26,87.87l-1.44,2.46c-.1.17-.34.17-.44,0l-1.44-2.46c-.05-.08-.05-.18,0-.26l1.44-2.49c.1-.17.34-.17.44,0l1.44,2.49c.05.08.05.18,0,.26ZM61.88,83.34l-1.44,2.46c-.1.17-.34.17-.44,0l-1.44-2.46c-.05-.08-.05-.18,0-.26l1.44-2.49c.1-.17.34-.17.44,0l1.44,2.49c.05.08.05.18,0,.26ZM65.68,80.6l1.44,2.49c.05.08.05.18,0,.26l-1.44,2.46c-.1.17-.34.17-.44,0l-1.44-2.46c-.05-.08-.05-.18,0-.26l1.44-2.49c.1-.17.34-.17.44,0ZM63.06,76.06l1.44,2.49c.05.08.05.18,0,.26l-1.44,2.46c-.1.17-.34.17-.44,0l-1.44-2.46c-.05-.08-.05-.18,0-.26l1.44-2.49c.1-.17.34-.17.44,0ZM60.45,71.53l1.44,2.49c.05.08.05.18,0,.26l-1.44,2.46c-.1.17-.34.17-.44,0l-1.44-2.46c-.05-.08-.05-.18,0-.26l1.44-2.49c.1-.17.34-.17.44,0ZM57.83,67l1.44,2.49c.05.08.05.18,0,.26l-1.44,2.46c-.1.17-.34.17-.44,0l-1.44-2.46c-.05-.08-.05-.18,0-.26l1.44-2.49c.1-.17.34-.17.44,0ZM55.21,62.46l1.44,2.49c.05.08.05.18,0,.26l-1.44,2.46c-.1.17-.34.17-.44,0l-1.44-2.46c-.05-.08-.05-.18,0-.26l1.44-2.49c.1-.17.34-.17.44,0ZM54.03,60.42c.05.08.05.18,0,.26l-1.44,2.46c-.1.17-.34.17-.44,0l-1.44-2.46c-.05-.08-.05-.18,0-.26l1.44-2.49c.1-.17.34-.17.44,0l1.44,2.49ZM89.41,58.12l-1.44-2.49c-.1-.17.02-.38.22-.38h2.87c.09,0,.18.05.22.13l.29.51c-.03-.63-.06-1.27-.1-1.93h-37.37l17.51,30.33c.29-.24.64-.48,1.07-.72l-.42-.73c-.1-.17.02-.38.22-.38h2.72c.15-.05.28-.1.44-.16.85-.29,1.45-.77,1.91-1.38h-1.02c-.09,0-.18-.04-.22-.12l-1.44-2.49c-.1-.17.02-.38.22-.38h2.87c.09,0,.18.05.22.13l.38.67c.22-.72.41-1.5.62-2.34h-.04c-.09,0-.18-.05-.22-.13l-1.44-2.49c-.1-.17.02-.38.22-.38h2.36c.28-.77.63-1.56,1.08-2.35l-1.04-1.8c-.1-.17.02-.38.22-.38h2.34c.46-.54.97-1.07,1.56-1.6-.03-.02-.05-.04-.07-.07l-1.44-2.49c-.1-.17.02-.38.22-.38h2.87c.09,0,.18.05.22.13l.6,1.04c.42-.26.86-.52,1.34-.77v-.02c-.11-.17.01-.38.21-.38h.6c.11-.05.21-.11.32-.16,1.16-.54,1.8-1.53,2.15-2.83l-.67-1.17c-.1-.17.02-.38.22-.38h.72c.05-.49.08-1.01.08-1.55h-1.99c-.09,0-.18-.04-.22-.12ZM82.96,55.25h2.87c.09,0,.18.05.22.13l1.41,2.47c.1.17-.03.38-.22.38h-2.85c-.09.01-.18-.04-.22-.11l-1.44-2.49c-.1-.17.02-.38.22-.38ZM77.73,55.25h2.87c.09,0,.18.05.22.13l1.41,2.47c.1.17-.03.38-.22.38h-2.85c-.09.01-.18-.04-.22-.11l-1.44-2.49c-.1-.17.02-.38.22-.38ZM67.26,64.32h2.87c.09,0,.18.05.22.13l1.41,2.47c.1.17-.03.38-.22.38h-2.85c-.09.01-.18-.04-.22-.11l-1.44-2.49c-.1-.17.02-.38.22-.38ZM66.07,62.78c-.09,0-.18-.05-.22-.13l-1.44-2.49c-.1-.17.02-.38.22-.38h2.87c.09,0,.18.05.22.13l1.41,2.47c.1.17-.03.38-.22.38h-2.85ZM69.87,59.79h2.87c.09,0,.18.05.22.13l1.41,2.47c.1.17-.03.38-.22.38h-2.85c-.09.01-.18-.04-.22-.11l-1.44-2.49c-.1-.17.02-.38.22-.38ZM69.87,68.85h2.87c.09,0,.18.05.22.13l1.41,2.47c.1.17-.03.38-.22.38h-2.85c-.09.01-.18-.04-.22-.11l-1.44-2.49c-.1-.17.02-.38.22-.38ZM73.93,67.32c-.09,0-.18-.05-.22-.13l-1.44-2.49c-.1-.17.02-.38.22-.38h2.87c.09,0,.18.05.22.13l1.41,2.47c.1.17-.03.38-.22.38h-2.85ZM76.54,62.78c-.09,0-.18-.05-.22-.13l-1.44-2.49c-.1-.17.02-.38.22-.38h2.87c.09,0,.18.05.22.13l1.41,2.47c.1.17-.03.38-.22.38h-2.85ZM72.49,55.25h2.87c.09,0,.18.05.22.13l1.41,2.47c.1.17-.03.38-.22.38h-2.85c-.09.01-.18-.04-.22-.11l-1.44-2.49c-.1-.17.02-.38.22-.38ZM67.26,55.25h2.87c.09,0,.18.05.22.13l1.41,2.47c.1.17-.03.38-.22.38h-2.85c-.09.01-.18-.04-.22-.11l-1.44-2.49c-.1-.17.02-.38.22-.38ZM62.02,55.25h2.87c.09,0,.18.05.22.13l1.41,2.47c.1.17-.03.38-.22.38h-2.85c-.09.01-.18-.04-.22-.11l-1.44-2.49c-.1-.17.02-.38.22-.38ZM58,58.12l-1.44-2.49c-.1-.17.02-.38.22-.38h2.87c.09,0,.18.05.22.13l1.41,2.47c.1.17-.03.38-.22.38h-2.85c-.09.01-.18-.04-.22-.11ZM60.62,62.66l-1.44-2.49c-.1-.17.02-.38.22-.38h2.87c.09,0,.18.05.22.13l1.41,2.47c.1.17-.03.38-.22.38h-2.85c-.09.01-.18-.04-.22-.11ZM63.23,67.19l-1.44-2.49c-.1-.17.02-.38.22-.38h2.87c.09,0,.18.05.22.13l1.41,2.47c.1.17-.03.38-.22.38h-2.85c-.09.01-.18-.04-.22-.11ZM65.85,71.72l-1.44-2.49c-.1-.17.02-.38.22-.38h2.87c.09,0,.18.05.22.13l1.41,2.47c.1.17-.03.38-.22.38h-2.85c-.09.01-.18-.04-.22-.11ZM68.47,76.26l-1.44-2.49c-.1-.17.02-.38.22-.38h2.87c.09,0,.18.05.22.13l1.41,2.47c.1.17-.03.38-.22.38h-2.85c-.09.01-.18-.04-.22-.11ZM74.16,80.9h-2.85c-.09.01-.18-.04-.22-.11l-1.44-2.49c-.1-.17.02-.38.22-.38h2.87c.09,0,.18.05.22.13l1.41,2.47c.1.17-.03.38-.22.38ZM76.77,76.37h-2.85c-.09.01-.18-.04-.22-.11l-1.44-2.49c-.1-.17.02-.38.22-.38h2.87c.09,0,.18.05.22.13l1.41,2.47c.1.17-.03.38-.22.38ZM79.39,71.84h-2.85c-.09.01-.18-.04-.22-.11l-1.44-2.49c-.1-.17.02-.38.22-.38h2.87c.09,0,.18.05.22.13l1.41,2.47c.1.17-.03.38-.22.38ZM82.01,67.3h-2.85c-.09.01-.18-.04-.22-.11l-1.44-2.49c-.1-.17.02-.38.22-.38h2.87c.09,0,.18.05.22.13l1.41,2.47c.1.17-.03.38-.22.38ZM84.63,62.77h-2.85c-.09.01-.18-.04-.22-.11l-1.44-2.49c-.1-.17.02-.38.22-.38h2.87c.09,0,.18.05.22.13l1.41,2.47c.1.17-.03.38-.22.38ZM89.86,62.77h-2.85c-.09.01-.18-.04-.22-.11l-1.44-2.49c-.1-.17.02-.38.22-.38h2.87c.09,0,.18.05.22.13l1.41,2.47c.1.17-.03.38-.22.38ZM91.53,41.05l-.24.42c-.05.08-.13.13-.22.13h-2.87c-.2,0-.32-.21-.22-.38l1.44-2.49c.05-.08.13-.13.22-.13h.39c-.44-.52-.93-1.04-1.45-1.57-.04.02-.08.03-.12.03h-2.87c-.2,0-.32-.21-.22-.38l1.07-1.85c-.66-.72-1.28-1.47-1.82-2.3h-1.65c-.2,0-.32-.21-.22-.38l.88-1.52c-.32-.8-.53-1.67-.61-2.63h-2.66c-.2,0-.32-.21-.22-.38l1.44-2.49c.05-.08.13-.13.22-.13h.48c-.63-.82-1.66-1.22-2.95-1.54h-1.58c-.19,0-.31-.21-.22-.38-.51-.1-1.04-.2-1.59-.32l-.33.57c-.05.08-.13.13-.22.13h-2.87c-.2,0-.32-.21-.22-.38l.66-1.15c-.4-.14-.81-.3-1.22-.48l-17.61,30.5h37.26c-.02-.48-.04-.97-.06-1.46l-.02.04c-.05.08-.13.13-.22.13h-2.87c-.2,0-.32-.21-.22-.38l1.44-2.49c.05-.08.13-.13.22-.13h1.69c.02-.51.05-1.02.1-1.54h-.6c-.2,0-.32-.21-.22-.38l1.14-1.98s0-.03,0-.04c.2-.98.09-1.86-.21-2.69ZM87.24,38.62c.2,0,.32.21.22.38l-1.41,2.47c-.05.08-.13.13-.22.13h-2.87c-.2,0-.32-.21-.22-.38l1.44-2.49c.05-.08.13-.13.22-.13h2.85ZM67.26,41.6c-.2,0-.32-.21-.22-.38l1.44-2.49c.05-.08.13-.13.22-.13h2.85c.2.01.32.23.22.4l-1.41,2.47c-.05.08-.13.13-.22.13h-2.87ZM69.14,43.53l-1.41,2.47c-.05.08-.13.13-.22.13h-2.87c-.2,0-.32-.21-.22-.38l1.44-2.49c.05-.08.13-.13.22-.13h2.85c.2.01.32.23.22.4ZM77,29.93l-1.41,2.47c-.05.08-.13.13-.22.13h-2.87c-.2,0-.32-.21-.22-.38l1.44-2.49c.05-.08.13-.13.22-.13h2.85c.2.01.32.23.22.4ZM79.39,34.09c.2,0,.32.21.22.38l-1.41,2.47c-.05.08-.13.13-.22.13h-2.87c-.2,0-.32-.21-.22-.38l1.44-2.49c.05-.08.13-.13.22-.13h2.85ZM74.16,34.09c.2,0,.32.21.22.38l-1.41,2.47c-.05.08-.13.13-.22.13h-2.87c-.2,0-.32-.21-.22-.38l1.44-2.49c.05-.08.13-.13.22-.13h2.85ZM69.65,45.75l1.44-2.49c.05-.08.13-.13.22-.13h2.85c.2.01.32.23.22.4l-1.41,2.47c-.05.08-.13.13-.22.13h-2.87c-.2,0-.32-.21-.22-.38ZM72.49,41.6c-.2,0-.32-.21-.22-.38l1.44-2.49c.05-.08.13-.13.22-.13h2.85c.2.01.32.23.22.4l-1.41,2.47c-.05.08-.13.13-.22.13h-2.87ZM74.89,45.75l1.44-2.49c.05-.08.13-.13.22-.13h2.85c.2.01.32.23.22.4l-1.41,2.47c-.05.08-.13.13-.22.13h-2.87c-.2,0-.32-.21-.22-.38ZM77.73,41.6c-.2,0-.32-.21-.22-.38l1.44-2.49c.05-.08.13-.13.22-.13h2.85c.2.01.32.23.22.4l-1.41,2.47c-.05.08-.13.13-.22.13h-2.87ZM80.12,45.75l1.44-2.49c.05-.08.13-.13.22-.13h2.85c.2.01.32.23.22.4l-1.41,2.47c-.05.08-.13.13-.22.13h-2.87c-.2,0-.32-.21-.22-.38ZM84.63,34.09c.2,0,.32.21.22.38l-1.41,2.47c-.05.08-.13.13-.22.13h-2.87c-.2,0-.32-.21-.22-.38l1.44-2.49c.05-.08.13-.13.22-.13h2.85ZM82.01,29.55c.2,0,.32.21.22.38l-1.41,2.47c-.05.08-.13.13-.22.13h-2.87c-.2,0-.32-.21-.22-.38l1.44-2.49c.05-.08.13-.13.22-.13h2.85ZM74.89,27.62l1.44-2.49c.05-.08.13-.13.22-.13h2.85c.2.01.32.23.22.4l-1.41,2.47c-.05.08-.13.13-.22.13h-2.87c-.2,0-.32-.21-.22-.38ZM69.65,27.62l1.44-2.49c.05-.08.13-.13.22-.13h2.85c.2.01.32.23.22.4l-1.41,2.47c-.05.08-.13.13-.22.13h-2.87c-.2,0-.32-.21-.22-.38ZM67.04,32.15l1.44-2.49c.05-.08.13-.13.22-.13h2.85c.2.01.32.23.22.4l-1.41,2.47c-.05.08-.13.13-.22.13h-2.87c-.2,0-.32-.21-.22-.38ZM64.42,36.69l1.44-2.49c.05-.08.13-.13.22-.13h2.85c.2.01.32.23.22.4l-1.41,2.47c-.05.08-.13.13-.22.13h-2.87c-.2,0-.32-.21-.22-.38ZM61.8,41.22l1.44-2.49c.05-.08.13-.13.22-.13h2.85c.2.01.32.23.22.4l-1.41,2.47c-.05.08-.13.13-.22.13h-2.87c-.2,0-.32-.21-.22-.38ZM59.18,45.75l1.44-2.49c.05-.08.13-.13.22-.13h2.85c.2.01.32.23.22.4l-1.41,2.47c-.05.08-.13.13-.22.13h-2.87c-.2,0-.32-.21-.22-.38ZM61.29,48.07l-1.41,2.47c-.05.08-.13.13-.22.13h-2.87c-.2,0-.32-.21-.22-.38l1.44-2.49c.05-.08.13-.13.22-.13h2.85c.2.01.32.23.22.4ZM66.53,48.07l-1.41,2.47c-.05.08-.13.13-.22.13h-2.87c-.2,0-.32-.21-.22-.38l1.44-2.49c.05-.08.13-.13.22-.13h2.85c.2.01.32.23.22.4ZM71.76,48.07l-1.41,2.47c-.05.08-.13.13-.22.13h-2.87c-.2,0-.32-.21-.22-.38l1.44-2.49c.05-.08.13-.13.22-.13h2.85c.2.01.32.23.22.4ZM77,48.07l-1.41,2.47c-.05.08-.13.13-.22.13h-2.87c-.2,0-.32-.21-.22-.38l1.44-2.49c.05-.08.13-.13.22-.13h2.85c.2.01.32.23.22.4ZM82.23,48.07l-1.41,2.47c-.05.08-.13.13-.22.13h-2.87c-.2,0-.32-.21-.22-.38l1.44-2.49c.05-.08.13-.13.22-.13h2.85c.2.01.32.23.22.4ZM87.46,48.07l-1.41,2.47c-.05.08-.13.13-.22.13h-2.87c-.2,0-.32-.21-.22-.38l1.44-2.49c.05-.08.13-.13.22-.13h2.85c.2.01.32.23.22.4ZM90.08,43.54l-1.41,2.47c-.05.08-.13.13-.22.13h-2.87c-.2,0-.32-.21-.22-.38l1.44-2.49c.05-.08.13-.13.22-.13h2.85c.2.01.32.23.22.4ZM52.37,50.96h0s17.56-30.41,17.56-30.41c-.36-.21-.73-.44-1.09-.69l-.54.93c-.1.17-.34.17-.44,0l-1.44-2.49c-.05-.08-.05-.18,0-.26l.06-.1s-.06-.06-.1-.09c-1.24-1.2-2.23-1.75-3.16-1.99l1.27,2.18c.05.08.05.18,0,.26l-1.44,2.49c-.1.17-.34.17-.44,0l-1.44-2.49c-.05-.08-.05-.18,0-.26l1.35-2.31c-.58-.06-1.16-.04-1.79,0l-.29.51c-.1.17-.34.17-.44,0l-.26-.45c-.54.03-1.14.03-1.8-.02l1.32,2.26c.05.08.05.18,0,.26l-1.44,2.49c-.1.17-.34.17-.44,0l-1.44-2.49c-.05-.08-.05-.18,0-.26l1.35-2.32c-.49-.06-1.03-.16-1.61-.31l-.49.84c-.1.17-.34.17-.44,0l-.8-1.39c-.37-.14-.75-.28-1.15-.46-.34-.15-.82-.39-1.4-.64l-1.44,2.5c-.1.17-.34.17-.44,0l-1.44-2.49c-.05-.08-.05-.18,0-.26.08-.13.21-.36.36-.62-.81-.11-1.69-.11-2.59.09l.31.53c.05.08.05.18,0,.26l-1.44,2.49c-.1.17-.34.17-.44,0l-1.17-2.03c-.87.62-1.74,1.49-2.57,2.67-1.22,1.72-2.4,2.9-3.57,3.73l-.09.16c-.07.12-.21.15-.32.1-.39.25-.79.47-1.18.65l16.98,29.42h0ZM56.65,40.97l-1.44,2.49c-.1.17-.34.17-.44,0l-1.44-2.49c-.05-.08-.05-.18,0-.26l1.44-2.46c.1-.17.34-.17.44,0l1.44,2.46c.05.08.05.18,0,.26ZM48.1,31.65l1.44-2.46c.1-.17.34-.17.44,0l1.44,2.46c.05.08.05.18,0,.26l-1.44,2.49c-.1.17-.34.17-.44,0l-1.44-2.49c-.05-.08-.05-.18,0-.26ZM47.36,29.86c-.1.17-.34.17-.44,0l-1.44-2.49c-.05-.08-.05-.18,0-.26l1.44-2.46c.1-.17.34-.17.44,0l1.44,2.46c.05.08.05.18,0,.26l-1.44,2.49ZM54.03,27.37l-1.44,2.49c-.1.17-.34.17-.44,0l-1.44-2.49c-.05-.08-.05-.18,0-.26l1.44-2.46c.1-.17.34-.17.44,0l1.44,2.46c.05.08.05.18,0,.26ZM54.77,29.19c.1-.17.34-.17.44,0l1.44,2.46c.05.08.05.18,0,.26l-1.44,2.49c-.1.17-.34.17-.44,0l-1.44-2.49c-.05-.08-.05-.18,0-.26l1.44-2.46ZM50.72,36.18l1.44-2.46c.1-.17.34-.17.44,0l1.44,2.46c.05.08.05.18,0,.26l-1.44,2.49c-.1.17-.34.17-.44,0l-1.44-2.49c-.05-.08-.05-.18,0-.26ZM59.27,36.44l-1.44,2.49c-.1.17-.34.17-.44,0l-1.44-2.49c-.05-.08-.05-.18,0-.26l1.44-2.46c.1-.17.34-.17.44,0l1.44,2.46c.05.08.05.18,0,.26ZM61.88,31.91l-1.44,2.49c-.1.17-.34.17-.44,0l-1.44-2.49c-.05-.08-.05-.18,0-.26l1.44-2.46c.1-.17.34-.17.44,0l1.44,2.46c.05.08.05.18,0,.26ZM63.8,22.59l1.44-2.46c.1-.17.34-.17.44,0l1.44,2.46c.05.08.05.18,0,.26l-1.44,2.49c-.1.17-.34.17-.44,0l-1.44-2.49c-.05-.08-.05-.18,0-.26ZM62.62,24.66c.1-.17.34-.17.44,0l1.44,2.46c.05.08.05.18,0,.26l-1.44,2.49c-.1.17-.34.17-.44,0l-1.44-2.49c-.05-.08-.05-.18,0-.26l1.44-2.46ZM58.57,22.59l1.44-2.46c.1-.17.34-.17.44,0l1.44,2.46c.05.08.05.18,0,.26l-1.44,2.49c-.1.17-.34.17-.44,0l-1.44-2.49c-.05-.08-.05-.18,0-.26ZM57.39,24.66c.1-.17.34-.17.44,0l1.44,2.46c.05.08.05.18,0,.26l-1.44,2.49c-.1.17-.34.17-.44,0l-1.44-2.49c-.05-.08-.05-.18,0-.26l1.44-2.46ZM54.77,20.13c.1-.17.34-.17.44,0l1.44,2.46c.05.08.05.18,0,.26l-1.44,2.49c-.1.17-.34.17-.44,0l-1.44-2.49c-.05-.08-.05-.18,0-.26l1.44-2.46ZM50.72,18.05l1.44-2.46c.1-.17.34-.17.44,0l1.44,2.46c.05.08.05.18,0,.26l-1.44,2.49c-.1.17-.34.17-.44,0l-1.44-2.49c-.05-.08-.05-.18,0-.26ZM49.54,20.12c.1-.17.34-.17.44,0l1.44,2.46c.05.08.05.18,0,.26l-1.44,2.49c-.1.17-.34.17-.44,0l-1.44-2.49c-.05-.08-.05-.18,0-.26l1.44-2.46ZM45.48,18.05l1.44-2.46c.1-.17.34-.17.44,0l1.44,2.46c.05.08.05.18,0,.26l-1.44,2.49c-.1.17-.34.17-.44,0l-1.44-2.49c-.05-.08-.05-.18,0-.26ZM44.3,20.12c.1-.17.34-.17.44,0l1.44,2.46c.05.08.05.18,0,.26l-1.44,2.49c-.1.17-.34.17-.44,0l-1.44-2.49c-.05-.08-.05-.18,0-.26l1.44-2.46ZM40.25,18.05l1.44-2.46c.1-.17.34-.17.44,0l1.44,2.46c.05.08.05.18,0,.26l-1.44,2.49c-.1.17-.34.17-.44,0l-1.44-2.49c-.05-.08-.05-.18,0-.26ZM39.07,25.33l-1.44-2.49c-.05-.08-.05-.18,0-.26l1.44-2.46c.1-.17.34-.17.44,0l1.44,2.46c.05.08.05.18,0,.26l-1.44,2.49c-.1.17-.34.17-.44,0ZM41.68,29.86l-1.44-2.49c-.05-.08-.05-.18,0-.26l1.44-2.46c.1-.17.34-.17.44,0l1.44,2.46c.05.08.05.18,0,.26l-1.44,2.49c-.1.17-.34.17-.44,0ZM44.3,34.39l-1.44-2.49c-.05-.08-.05-.18,0-.26l1.44-2.46c.1-.17.34-.17.44,0l1.44,2.46c.05.08.05.18,0,.26l-1.44,2.49c-.1.17-.34.17-.44,0ZM46.92,38.93l-1.44-2.49c-.05-.08-.05-.18,0-.26l1.44-2.46c.1-.17.34-.17.44,0l1.44,2.46c.05.08.05.18,0,.26l-1.44,2.49c-.1.17-.34.17-.44,0ZM49.54,43.46l-1.44-2.49c-.05-.08-.05-.18,0-.26l1.44-2.46c.1-.17.34-.17.44,0l1.44,2.46c.05.08.05.18,0,.26l-1.44,2.49c-.1.17-.34.17-.44,0ZM50.72,45.51c-.05-.08-.05-.18,0-.26l1.44-2.46c.1-.17.34-.17.44,0l1.44,2.46c.05.08.05.18,0,.26l-1.44,2.49c-.1.17-.34.17-.44,0l-1.44-2.49ZM33.47,22.22c-.44.11-.89.19-1.34.26l.35.6c.1.17-.02.38-.22.38h-2.87c-.09,0-.18-.05-.22-.13l-.27-.47c-.54.06-1.09.14-1.64.24.08.17-.04.36-.23.36h-1.49c-1.13.29-1.82.92-2.27,1.78l1.37,2.37c.1.17-.02.38-.22.38h-1.96c-.2,1.16-.35,2.46-.63,3.83l.19.32c.1.17-.02.38-.22.38h-.12c-.12.51-.27,1.03-.44,1.54h1.75c.09,0,.18.04.22.12l1.44,2.49c.1.17-.02.38-.22.38h-2.87c-.09,0-.18-.05-.22-.13l-.73-1.28c-.48,1-1.11,1.99-1.96,2.95h1.73c.09,0,.18.04.22.12l1.44,2.49c.1.17-.02.38-.22.38h-2.87c-.09,0-.18-.05-.22-.13l-1.06-1.86c-.37.34-.77.68-1.2,1.01l.35.6c.1.17-.02.38-.22.38h-1.6c-.18.11-.36.22-.55.33-1.01.57-1.32,1.26-1.22,2.13l.98,1.69c.1.17-.02.38-.22.38h-.08c.21.47.46.99.72,1.54h.54c.09,0,.18.05.22.13l1.44,2.49c.1.17-.02.38-.22.38h-.75c.14.41.27.84.39,1.29h34.45l-17.17-29.74ZM44.13,43.27l1.44,2.49c.1.17-.02.38-.22.38h-2.87c-.09,0-.18-.05-.22-.13l-1.41-2.47c-.1-.17.03-.38.22-.38h2.85c.09-.01.18.04.22.11ZM41.51,38.73l1.44,2.49c.1.17-.02.38-.22.38h-2.87c-.09,0-.18-.05-.22-.13l-1.41-2.47c-.1-.17.03-.38.22-.38h2.85c.09-.01.18.04.22.11ZM29.39,41.6c-.09,0-.18-.05-.22-.13l-1.41-2.47c-.1-.17.03-.38.22-.38h2.85c.09-.01.18.04.22.11l1.44,2.49c.1.17-.02.38-.22.38h-2.87ZM29.64,46.14h-2.87c-.09,0-.18-.05-.22-.13l-1.41-2.47c-.1-.17.03-.38.22-.38h2.85c.09-.01.18.04.22.11l1.44,2.49c.1.17-.02.38-.22.38ZM32.26,32.54h-2.87c-.09,0-.18-.05-.22-.13l-1.41-2.47c-.1-.17.03-.38.22-.38h2.85c.09-.01.18.04.22.11l1.44,2.49c.1.17-.02.38-.22.38ZM33.44,34.07c.09,0,.18.05.22.13l1.44,2.49c.1.17-.02.38-.22.38h-2.87c-.09,0-.18-.05-.22-.13l-1.41-2.47c-.1-.17.03-.38.22-.38h2.85ZM28.2,34.07c.09,0,.18.05.22.13l1.44,2.49c.1.17-.02.38-.22.38h-2.87c-.09,0-.18-.05-.22-.13l-1.41-2.47c-.1-.17.03-.38.22-.38h2.85ZM30.59,43.15h2.85c.09-.01.18.04.22.11l1.44,2.49c.1.17-.02.38-.22.38h-2.87c-.09,0-.18-.05-.22-.13l-1.41-2.47c-.1-.17.03-.38.22-.38ZM34.62,41.6c-.09,0-.18-.05-.22-.13l-1.41-2.47c-.1-.17.03-.38.22-.38h2.85c.09-.01.18.04.22.11l1.44,2.49c.1.17-.02.38-.22.38h-2.87ZM35.82,43.15h2.85c.09-.01.18.04.22.11l1.44,2.49c.1.17-.02.38-.22.38h-2.87c-.09,0-.18-.05-.22-.13l-1.41-2.47c-.1-.17.03-.38.22-.38ZM38.9,34.2l1.44,2.49c.1.17-.02.38-.22.38h-2.87c-.09,0-.18-.05-.22-.13l-1.41-2.47c-.1-.17.03-.38.22-.38h2.85c.09-.01.18.04.22.11ZM36.28,29.67l1.44,2.49c.1.17-.02.38-.22.38h-2.87c-.09,0-.18-.05-.22-.13l-1.41-2.47c-.1-.17.03-.38.22-.38h2.85c.09-.01.18.04.22.11ZM30.59,25.02h2.85c.09-.01.18.04.22.11l1.44,2.49c.1.17-.02.38-.22.38h-2.87c-.09,0-.18-.05-.22-.13l-1.41-2.47c-.1-.17.03-.38.22-.38ZM25.36,25.02h2.85c.09-.01.18.04.22.11l1.44,2.49c.1.17-.02.38-.22.38h-2.87c-.09,0-.18-.05-.22-.13l-1.41-2.47c-.1-.17.03-.38.22-.38ZM24.15,32.54c-.09,0-.18-.05-.22-.13l-1.41-2.47c-.1-.17.03-.38.22-.38h2.85c.09-.01.18.04.22.11l1.44,2.49c.1.17-.02.38-.22.38h-2.87ZM22.74,38.62h2.85c.09-.01.18.04.22.11l1.44,2.49c.1.17-.02.38-.22.38h-2.87c-.09,0-.18-.05-.22-.13l-1.41-2.47c-.1-.17.03-.38.22-.38ZM20.12,43.15h2.85c.09-.01.18.04.22.11l1.44,2.49c.1.17-.02.38-.22.38h-2.87c-.09,0-.18-.05-.22-.13l-1.41-2.47c-.1-.17.03-.38.22-.38ZM16.3,46.14c-.09,0-.18-.05-.22-.13l-1.41-2.47c-.1-.17.03-.38.22-.38h2.85c.09-.01.18.04.22.11l1.44,2.49c.1.17-.02.38-.22.38h-2.87ZM21.79,50.67h-2.87c-.09,0-.18-.05-.22-.13l-1.41-2.47c-.1-.17.03-.38.22-.38h2.85c.09-.01.18.04.22.11l1.44,2.49c.1.17-.02.38-.22.38ZM27.02,50.67h-2.87c-.09,0-.18-.05-.22-.13l-1.41-2.47c-.1-.17.03-.38.22-.38h2.85c.09-.01.18.04.22.11l1.44,2.49c.1.17-.02.38-.22.38ZM32.26,50.67h-2.87c-.09,0-.18-.05-.22-.13l-1.41-2.47c-.1-.17.03-.38.22-.38h2.85c.09-.01.18.04.22.11l1.44,2.49c.1.17-.02.38-.22.38ZM37.49,50.67h-2.87c-.09,0-.18-.05-.22-.13l-1.41-2.47c-.1-.17.03-.38.22-.38h2.85c.09-.01.18.04.22.11l1.44,2.49c.1.17-.02.38-.22.38ZM42.73,50.67h-2.87c-.09,0-.18-.05-.22-.13l-1.41-2.47c-.1-.17.03-.38.22-.38h2.85c.09-.01.18.04.22.11l1.44,2.49c.1.17-.02.38-.22.38ZM47.96,50.67h-2.87c-.09,0-.18-.05-.22-.13l-1.41-2.47c-.1-.17.03-.38.22-.38h2.85c.09-.01.18.04.22.11l1.44,2.49c.1.17-.02.38-.22.38Z"/>
</svg>