<?xml version="1.0" encoding="UTF-8"?>
<svg id="Layer_1" data-name="Layer 1" xmlns="http://www.w3.org/2000/svg" xmlns:xlink="http://www.w3.org/1999/xlink" viewBox="0 0 105 105">
  <defs>
    <style>
      .cls-1 {
        fill: url(#linear-gradient);
      }

      .cls-1, .cls-2, .cls-3 {
        stroke-width: 0px;
      }

      .cls-2 {
        fill: url(#radial-gradient-2);
      }

      .cls-3 {
        fill: url(#radial-gradient);
      }
    </style>
    <radialGradient id="radial-gradient" cx="-12.05" cy="38.61" fx="-12.05" fy="38.61" r="43.7" gradientTransform="translate(80.52 81.18) rotate(120)" gradientUnits="userSpaceOnUse">
      <stop offset="0" stop-color="#312308"/>
      <stop offset="1" stop-color="#523d0b"/>
    </radialGradient>
    <linearGradient id="linear-gradient" x1="15.35" y1="72.99" x2="90.63" y2="29.53" gradientUnits="userSpaceOnUse">
      <stop offset="0" stop-color="#2b1e07"/>
      <stop offset="1" stop-color="#140d02"/>
    </linearGradient>
    <radialGradient id="radial-gradient-2" cx="-12.05" cy="38.61" fx="-12.05" fy="38.61" r="43.7" gradientTransform="translate(80.52 81.18) rotate(120)" gradientUnits="userSpaceOnUse">
      <stop offset="0" stop-color="#140d02"/>
      <stop offset="1" stop-color="#2b1e07"/>
    </radialGradient>
  </defs>
  <path class="cls-3" d="M83.59,18.4c3.5,3.61,1.06,9.73,3.25,13.81,1.51,2.81,7.71,3.13,9.45,7.19.97,2.25-3.83,8.72-4.14,13.84-.25,4.1,4.28,6.68,2.77,10.54-.52,1.33-4.05,3.87-5.83,7.65-1.5,3.19-1.14,7.62-2.8,9.4-2.34,2.51-9.76,1.12-13.7,3.8s-4.4,9.4-10.28,10.98c-3.76,1.01-7.28-2.72-11.05-2.85-3.78-.14-7.82,3.31-11.06,1.83-5.36-2.46-6.29-5.46-9.93-7.91-2.41-1.62-7.4-1.48-10.63-6.26-1.88-2.8,1.71-8.01-.42-11.28-2.51-3.86-10.58-5.91-10.14-10.99.23-2.69,3.15-4.99,2.89-6.67-.62-3.99-4.81-5.93-1.97-11.66,3.64-7.35,5.6-7.69,6.74-10.15,1.33-2.89,1.77-7.42,5.89-10.65,3.21-2.52,7.02-2.61,9.68-4.55,3.45-2.51,5.8-6.42,10.93-5.37,7.26,1.49,13.42,6,18.71.48,1.07-1.12,5.23,4.74,10.2,6.98,4.69,2.12,10.18.56,11.44,1.86Z"/>
  <path class="cls-1" d="M41.57,9.9c.46,0,.95.05,1.46.16,1.81.37,3.57.94,5.27,1.5,2.65.86,5.15,1.67,7.59,1.67s4.67-.9,6.54-2.74c.52.28,1.56,1.21,2.41,1.97,1.89,1.69,4.23,3.78,6.89,4.99,2.81,1.27,5.88,1.31,8.13,1.33,1.15.01,2.72.03,3.01.31,1.7,1.75,1.78,4.3,1.87,6.99.07,2.26.15,4.6,1.22,6.6.83,1.55,2.6,2.38,4.47,3.26,2.03.96,4.13,1.95,4.95,3.85.31.73-.74,3.13-1.59,5.06-1.15,2.62-2.46,5.59-2.63,8.32-.13,2.16.86,3.92,1.73,5.47,1.09,1.92,1.72,3.18,1.1,4.77-.13.34-.83,1.08-1.5,1.79-1.33,1.41-3.16,3.35-4.31,5.8-.74,1.57-1.06,3.4-1.34,5.01-.3,1.74-.59,3.38-1.29,4.13-.92.99-3.22,1.25-5.65,1.53-2.68.31-5.71.65-7.88,2.12-1.8,1.22-2.92,3.15-4,5.01-1.49,2.57-2.9,5-5.98,5.82-.35.09-.7.14-1.07.14-1.44,0-2.92-.69-4.49-1.41-1.65-.76-3.35-1.55-5.19-1.61-.09,0-.17,0-.26,0-1.73,0-3.41.61-5.04,1.19-1.44.52-2.8,1.01-4,1.01-.52,0-.97-.09-1.39-.28-3.07-1.41-4.56-2.96-6.14-4.6-1.04-1.08-2.12-2.21-3.65-3.24-.89-.6-2.03-.97-3.23-1.36-2.4-.78-5.13-1.67-7.13-4.63-.68-1.01-.35-2.71,0-4.51.43-2.21.91-4.72-.41-6.75-1.09-1.67-3.02-2.98-4.89-4.25-2.73-1.85-5.31-3.59-5.09-6.11.1-1.13.83-2.26,1.53-3.35.79-1.22,1.53-2.37,1.35-3.56-.24-1.53-.91-2.75-1.57-3.92-1.19-2.14-2.13-3.83-.49-7.14,2.21-4.47,3.77-6.26,4.92-7.57.72-.83,1.35-1.55,1.83-2.6.37-.8.67-1.69.98-2.64.85-2.55,1.81-5.44,4.62-7.65,1.61-1.26,3.42-1.88,5.17-2.48,1.62-.55,3.14-1.07,4.48-2.05.88-.64,1.68-1.36,2.46-2.05,1.98-1.77,3.69-3.3,6.22-3.3M41.57,8.9c-4.02,0-6.21,3.32-9.27,5.54-2.66,1.93-6.47,2.03-9.68,4.55-4.13,3.24-4.56,7.77-5.89,10.65-1.14,2.46-3.1,2.8-6.74,10.15-2.84,5.73,1.35,7.67,1.97,11.66.26,1.68-2.66,3.98-2.89,6.67-.44,5.07,7.63,7.12,10.14,10.99,2.13,3.27-1.47,8.48.42,11.28,3.23,4.79,8.22,4.64,10.63,6.26,3.64,2.45,4.57,5.46,9.93,7.91.58.27,1.18.37,1.8.37,2.8,0,6-2.2,9.04-2.2.07,0,.15,0,.22,0,3.33.12,6.46,3.03,9.72,3.03.44,0,.88-.05,1.33-.17,5.88-1.58,6.34-8.3,10.28-10.98,3.94-2.67,11.36-1.29,13.7-3.8,1.67-1.78,1.3-6.21,2.8-9.4,1.78-3.78,5.31-6.33,5.83-7.65,1.51-3.86-3.02-6.43-2.77-10.54.31-5.12,5.11-11.59,4.14-13.84-1.74-4.05-7.94-4.37-9.45-7.19-2.19-4.08.24-10.2-3.25-13.81-1.26-1.3-6.76.26-11.44-1.86-4.54-2.05-8.41-7.12-9.86-7.12-.14,0-.25.04-.34.14-1.9,1.98-3.92,2.67-6.05,2.67-3.81,0-8.01-2.19-12.66-3.15-.59-.12-1.14-.18-1.66-.18h0Z"/>
  <path class="cls-2" d="M92.29,52.1h-37.79s0,0,0,0h0l18.6,32.22c4.04-2.25,10.94-1.09,13.18-3.49,1.67-1.78,1.3-6.21,2.8-9.4,1.78-3.78,5.31-6.33,5.83-7.65,1.51-3.86-3.02-6.43-2.77-10.54.02-.37.07-.75.14-1.13ZM83.36,53.39h2.87c.09,0,.18.05.22.13l1.41,2.47c.1.17-.03.38-.22.38h-2.85c-.09.01-.18-.04-.22-.11l-1.44-2.49c-.1-.17.02-.38.22-.38ZM67.65,62.46h2.87c.09,0,.18.05.22.13l1.41,2.47c.1.17-.03.38-.22.38h-2.85c-.09.01-.18-.04-.22-.11l-1.44-2.49c-.1-.17.02-.38.22-.38ZM66.47,60.92c-.09,0-.18-.05-.22-.13l-1.44-2.49c-.1-.17.02-.38.22-.38h2.87c.09,0,.18.05.22.13l1.41,2.47c.1.17-.03.38-.22.38h-2.85ZM80.99,62.46c.09,0,.18.05.22.13l1.41,2.47c.1.17-.03.38-.22.38h-2.85c-.09.01-.18-.04-.22-.11l-1.44-2.49c-.1-.17.02-.38.22-.38h2.87ZM80.74,57.93h2.87c.09,0,.18.05.22.13l1.41,2.47c.1.17-.03.38-.22.38h-2.85c-.09.01-.18-.04-.22-.11l-1.44-2.49c-.1-.17.02-.38.22-.38ZM79.79,69.98h-2.85c-.09.01-.18-.04-.22-.11l-1.44-2.49c-.1-.17.02-.38.22-.38h2.87c.09,0,.18.05.22.13l1.41,2.47c.1.17-.03.38-.22.38ZM79.79,60.91h-2.85c-.09.01-.18-.04-.22-.11l-1.44-2.49c-.1-.17.02-.38.22-.38h2.87c.09,0,.18.05.22.13l1.41,2.47c.1.17-.02.38-.22.38ZM75.76,62.46c.09,0,.18.05.22.13l1.41,2.47c.1.17-.03.38-.22.38h-2.85c-.09.01-.18-.04-.22-.11l-1.44-2.49c-.1-.17.02-.38.22-.38h2.87ZM74.55,60.91h-2.85c-.09.01-.18-.04-.22-.11l-1.44-2.49c-.1-.17.02-.38.22-.38h2.87c.09,0,.18.05.22.13l1.41,2.47c.1.17-.03.38-.22.38ZM70.27,66.99h2.87c.09,0,.18.05.22.13l1.41,2.47c.1.17-.03.38-.22.38h-2.85c-.09.01-.18-.04-.22-.11l-1.44-2.49c-.1-.17.02-.38.22-.38ZM72.89,71.53h2.87c.09,0,.18.05.22.13l1.41,2.47c.1.17-.03.38-.22.38h-2.85c-.09.01-.18-.04-.22-.11l-1.44-2.49c-.1-.17.02-.38.22-.38ZM75.5,76.06h2.87c.09,0,.18.05.22.13l1.41,2.47c.1.17-.03.38-.22.38h-2.85c-.09.01-.18-.04-.22-.11l-1.44-2.49c-.1-.17.02-.38.22-.38ZM79.56,74.52c-.09,0-.18-.05-.22-.13l-1.44-2.49c-.1-.17.02-.38.22-.38h2.87c.09,0,.18.05.22.13l1.41,2.47c.1.17-.03.38-.22.38h-2.85ZM82.18,69.99c-.09,0-.18-.05-.22-.13l-1.44-2.49c-.1-.17.02-.38.22-.38h2.87c.09,0,.18.05.22.13l1.41,2.47c.1.17-.03.38-.22.38h-2.85ZM84.79,65.46c-.09,0-.18-.05-.22-.13l-1.44-2.49c-.1-.17.02-.38.22-.38h2.87c.09,0,.18.05.22.13l1.41,2.47c.1.17-.03.38-.22.38h-2.85ZM87.41,60.92c-.09,0-.18-.05-.22-.13l-1.44-2.49c-.1-.17.02-.38.22-.38h2.87c.09,0,.18.05.22.13l1.41,2.47c.1.17-.03.38-.22.38h-2.85ZM78.12,53.39h2.87c.09,0,.18.05.22.13l1.41,2.47c.1.17-.03.38-.22.38h-2.85c-.09.01-.18-.04-.22-.11l-1.44-2.49c-.1-.17.02-.38.22-.38ZM72.89,53.39h2.87c.09,0,.18.05.22.13l1.41,2.47c.1.17-.03.38-.22.38h-2.85c-.09.01-.18-.04-.22-.11l-1.44-2.49c-.1-.17.02-.38.22-.38ZM67.65,53.39h2.87c.09,0,.18.05.22.13l1.41,2.47c.1.17-.03.38-.22.38h-2.85c-.09.01-.18-.04-.22-.11l-1.44-2.49c-.1-.17.02-.38.22-.38ZM62.42,53.39h2.87c.09,0,.18.05.22.13l1.41,2.47c.1.17-.03.38-.22.38h-2.85c-.09.01-.18-.04-.22-.11l-1.44-2.49c-.1-.17.02-.38.22-.38ZM58.4,56.26l-1.44-2.49c-.1-.17.02-.38.22-.38h2.87c.09,0,.18.05.22.13l1.41,2.47c.1.17-.03.38-.22.38h-2.85c-.09.01-.18-.04-.22-.11ZM61.01,60.8l-1.44-2.49c-.1-.17.02-.38.22-.38h2.87c.09,0,.18.05.22.13l1.41,2.47c.1.17-.03.38-.22.38h-2.85c-.09.01-.18-.04-.22-.11ZM63.63,65.33l-1.44-2.49c-.1-.17.02-.38.22-.38h2.87c.09,0,.18.05.22.13l1.41,2.47c.1.17-.02.38-.22.38h-2.85c-.09.01-.18-.04-.22-.11ZM66.25,69.86l-1.44-2.49c-.1-.17.02-.38.22-.38h2.87c.09,0,.18.05.22.13l1.41,2.47c.1.17-.03.38-.22.38h-2.85c-.09.01-.18-.04-.22-.11ZM68.87,74.4l-1.44-2.49c-.1-.17.02-.38.22-.38h2.87c.09,0,.18.05.22.13l1.41,2.47c.1.17-.03.38-.22.38h-2.85c-.09.01-.18-.04-.22-.11ZM71.48,78.93l-1.44-2.49c-.1-.17.02-.38.22-.38h2.87c.09,0,.18.05.22.13l1.41,2.47c.1.17-.03.38-.22.38h-2.85c-.09.01-.18-.04-.22-.11ZM74.02,83.33l-1.36-2.35c-.1-.17.02-.38.22-.38h2.87c.09,0,.18.05.22.13l1.07,1.87c-1.06.17-2.09.39-3.02.74ZM78.7,82.36l-.8-1.38c-.1-.17.02-.38.22-.38h2.87c.09,0,.18.05.22.13l.7,1.23c-1.01.16-2.11.27-3.22.4ZM81.95,78.93l-1.44-2.49c-.1-.17.02-.38.22-.38h2.87c.09,0,.18.05.22.13l1.41,2.47c.1.17-.02.38-.22.38h-2.85c-.09.01-.18-.04-.22-.11ZM83.51,81.63l-.38-.65c-.1-.17.02-.38.22-.38h2.3c-.53.48-1.27.81-2.14,1.04ZM86.85,78.35l-1.1-1.91c-.1-.17.02-.38.22-.38h1.36c-.14.82-.29,1.6-.48,2.29ZM87.61,74.51h-2.82c-.09.01-.18-.04-.22-.11l-1.44-2.49c-.1-.17.02-.38.22-.38h3.41c.09,0,.18.05.22.13.35.59.64,1.14.89,1.67-.1.39-.18.79-.26,1.19ZM88.98,70.43c-.41.02-.84.03-1.3.02-.09,0-.17-.05-.22-.13l-1.7-2.95c-.1-.17.02-.38.22-.38h2.87c.09,0,.18.05.22.13.16.29.57,1,.96,1.68-.37.51-.73,1.06-1.05,1.64ZM91.05,67.49l-.06-.11c-.1-.17.02-.38.22-.38h.27c-.14.16-.29.32-.43.49ZM92.92,65.43s-.03.01-.05.01h-2.85c-.09.01-.18-.04-.22-.11l-1.44-2.49c-.1-.17.02-.38.22-.38h2.87c.09,0,.18.05.22.13l1.41,2.47s.03.1.03.15c-.01.11-.09.2-.2.22ZM94.36,63.61c-.04.09-.09.19-.15.29l-.61-1.05c-.1-.17.02-.38.22-.38h.81c-.04.37-.12.75-.27,1.15ZM94.52,60.92h-1.87c-.09,0-.18-.04-.22-.12l-1.44-2.49c-.1-.17.02-.38.22-.38h1.93c.56,1,1.12,1.97,1.38,2.99ZM92.33,56.38h-2.3c-.09.01-.18-.04-.22-.12l-1.44-2.49c-.1-.17.02-.38.22-.38h2.87c.06,0,.12.03.17.07-.01,1.05.28,2.01.7,2.91ZM12.41,50.1h38.63s0,0,0,0h0S31.73,16.65,31.73,16.65c-.23-.4-.56-.74-.95-.97-.12-.07-.25-.12-.38-.19-2.4,1.04-5.27,1.54-7.78,3.5-4.13,3.24-4.56,7.77-5.89,10.65-1.14,2.46-3.1,2.8-6.74,10.15-2.45,4.96.35,7.08,1.55,10.15.28.1.58.16.88.16ZM16.95,48.81h-2.87c-.09,0-.18-.05-.22-.13l-1.41-2.47c-.1-.17.03-.38.22-.38h2.85c.09-.01.18.04.22.11l1.44,2.49c.1.17-.02.38-.22.38ZM37.89,39.74h-2.87c-.09,0-.18-.05-.22-.13l-1.41-2.47c-.1-.17.03-.38.22-.38h2.85c.09-.01.18.04.22.11l1.44,2.49c.1.17-.02.38-.22.38ZM39.07,41.28c.09,0,.18.05.22.13l1.44,2.49c.1.17-.02.38-.22.38h-2.87c-.09,0-.18-.05-.22-.13l-1.41-2.47c-.1-.17.03-.38.22-.38h2.85ZM24.55,39.74c-.09,0-.18-.05-.22-.13l-1.41-2.47c-.1-.17.03-.38.22-.38h2.85c.09-.01.18.04.22.11l1.44,2.49c.1.17-.02.38-.22.38h-2.87ZM24.8,44.28h-2.87c-.09,0-.18-.05-.22-.13l-1.41-2.47c-.1-.17.03-.38.22-.38h2.85c.09-.01.18.04.22.11l1.44,2.49c.1.17-.02.38-.22.38ZM25.75,32.23h2.85c.09-.01.18.04.22.11l1.44,2.49c.1.17-.02.38-.22.38h-2.87c-.09,0-.18-.05-.22-.13l-1.41-2.47c-.1-.17.03-.38.22-.38ZM25.75,41.29h2.85c.09-.01.18.04.22.11l1.44,2.49c.1.17-.02.38-.22.38h-2.87c-.09,0-.18-.05-.22-.13l-1.41-2.47c-.1-.17.03-.38.22-.38ZM29.78,39.74c-.09,0-.18-.05-.22-.13l-1.41-2.47c-.1-.17.03-.38.22-.38h2.85c.09-.01.18.04.22.11l1.44,2.49c.1.17-.02.38-.22.38h-2.87ZM30.99,41.29h2.85c.09-.01.18.04.22.11l1.44,2.49c.1.17-.02.38-.22.38h-2.87c-.09,0-.18-.05-.22-.13l-1.41-2.47c-.1-.17.03-.38.22-.38ZM35.27,35.21h-2.87c-.09,0-.18-.05-.22-.13l-1.41-2.47c-.1-.17.03-.38.22-.38h2.85c.09-.01.18.04.22.11l1.44,2.49c.1.17-.02.38-.22.38ZM32.65,30.68h-2.87c-.09,0-.18-.05-.22-.13l-1.41-2.47c-.1-.17.03-.38.22-.38h2.85c.09-.01.18.04.22.11l1.44,2.49c.1.17-.02.38-.22.38ZM30.04,26.14h-2.87c-.09,0-.18-.05-.22-.13l-1.41-2.47c-.1-.17.03-.38.22-.38h2.85c.09-.01.18.04.22.11l1.44,2.49c.1.17-.02.38-.22.38ZM25.98,27.68c.09,0,.18.05.22.13l1.44,2.49c.1.17-.02.38-.22.38h-2.87c-.09,0-.18-.05-.22-.13l-1.41-2.47c-.1-.17.03-.38.22-.38h2.85ZM23.36,32.21c.09,0,.18.05.22.13l1.44,2.49c.1.17-.02.38-.22.38h-2.87c-.09,0-.18-.05-.22-.13l-1.41-2.47c-.1-.17.03-.38.22-.38h2.85ZM20.75,36.75c.09,0,.18.05.22.13l1.44,2.49c.1.17-.02.38-.22.38h-2.87c-.09,0-.18-.05-.22-.13l-1.41-2.47c-.1-.17.03-.38.22-.38h2.85ZM18.13,41.28c.09,0,.18.05.22.13l1.44,2.49c.1.17-.02.38-.22.38h-2.87c-.09,0-.18-.05-.22-.13l-1.41-2.47c-.1-.17.03-.38.22-.38h2.85ZM22.18,48.81h-2.87c-.09,0-.18-.05-.22-.13l-1.41-2.47c-.1-.17.03-.38.22-.38h2.85c.09-.01.18.04.22.11l1.44,2.49c.1.17-.02.38-.22.38ZM27.42,48.81h-2.87c-.09,0-.18-.05-.22-.13l-1.41-2.47c-.1-.17.03-.38.22-.38h2.85c.09-.01.18.04.22.11l1.44,2.49c.1.17-.02.38-.22.38ZM32.65,48.81h-2.87c-.09,0-.18-.05-.22-.13l-1.41-2.47c-.1-.17.03-.38.22-.38h2.85c.09-.01.18.04.22.11l1.44,2.49c.1.17-.02.38-.22.38ZM37.89,48.81h-2.87c-.09,0-.18-.05-.22-.13l-1.41-2.47c-.1-.17.03-.38.22-.38h2.85c.09-.01.18.04.22.11l1.44,2.49c.1.17-.02.38-.22.38ZM43.12,48.81h-2.87c-.09,0-.18-.05-.22-.13l-1.41-2.47c-.1-.17.03-.38.22-.38h2.85c.09-.01.18.04.22.11l1.44,2.49c.1.17-.02.38-.22.38ZM47.14,45.94l1.44,2.49c.1.17-.02.38-.22.38h-2.87c-.09,0-.18-.05-.22-.13l-1.41-2.47c-.1-.17.03-.38.22-.38h2.85c.09-.01.18.04.22.11ZM44.53,41.41l1.44,2.49c.1.17-.02.38-.22.38h-2.87c-.09,0-.18-.05-.22-.13l-1.41-2.47c-.1-.17.03-.38.22-.38h2.85c.09-.01.18.04.22.11ZM41.91,36.87l1.44,2.49c.1.17-.02.38-.22.38h-2.87c-.09,0-.18-.05-.22-.13l-1.41-2.47c-.1-.17.03-.38.22-.38h2.85c.09-.01.18.04.22.11ZM39.29,32.34l1.44,2.49c.1.17-.02.38-.22.38h-2.87c-.09,0-.18-.05-.22-.13l-1.41-2.47c-.1-.17.03-.38.22-.38h2.85c.09-.01.18.04.22.11ZM36.67,27.81l1.44,2.49c.1.17-.02.38-.22.38h-2.87c-.09,0-.18-.05-.22-.13l-1.41-2.47c-.1-.17.03-.38.22-.38h2.85c.09-.01.18.04.22.11ZM34.06,23.27l1.44,2.49c.1.17-.02.38-.22.38h-2.87c-.09,0-.18-.05-.22-.13l-1.41-2.47c-.1-.17.03-.38.22-.38h2.85c.09-.01.18.04.22.11ZM31.22,18.61c.09,0,.18.05.22.13l1.44,2.49c.1.17-.02.38-.22.38h-2.87c-.09,0-.18-.05-.22-.13l-1.41-2.47c-.1-.17.03-.38.22-.38h2.85ZM29.11,16.58c.09.04.17.07.27.11.26.12.16.5-.12.49l-1.64-.08c.5-.18,1.01-.35,1.49-.52ZM24.2,18.62h1.78c.09,0,.18.04.22.12l1.44,2.49c.1.17-.02.38-.22.38h-2.87c-.09,0-.18-.05-.22-.13l-1.21-2.12c.36-.27.72-.52,1.09-.74ZM21.93,20.41l.47.82c.1.17-.02.38-.22.38h-1.3c.31-.41.66-.81,1.05-1.2ZM20.52,23.16h2.85c.09-.01.18.04.22.11l1.44,2.49c.1.17-.02.38-.22.38h-2.87c-.09,0-.18-.05-.22-.13l-1.41-2.47c-.1-.17.03-.38.22-.38ZM19.15,24.66l.64,1.1c.1.17-.02.38-.22.38h-.99c.17-.49.36-.99.58-1.49ZM18.05,27.69c.91,0,2.25-.01,2.7-.01.09,0,.18.05.22.13l1.44,2.49c.1.17-.02.38-.22.38h-3.41c-.09,0-.18-.05-.22-.13-.36-.6-.65-1.16-.9-1.7.14-.37.27-.76.4-1.16ZM15.94,31.81c.6-.05,1.22-.08,1.92-.07.09,0,.17.05.22.13l1.7,2.95c.1.17-.02.38-.22.38h-2.87c-.09,0-.18-.05-.22-.13l-1.33-2.34c.29-.34.56-.64.8-.93ZM14.1,34.04l.46.79c.1.17-.02.38-.22.38h-1.07c.29-.44.57-.83.83-1.17ZM12.66,36.76h2.85c.09-.01.18.04.22.11l1.44,2.49c.1.17-.02.38-.22.38h-2.87c-.09,0-.18-.05-.22-.13l-1.41-2.47c-.1-.17.03-.38.22-.38ZM11.37,38.38l.56.98c.1.17-.02.38-.22.38h-1.05c.24-.48.48-.94.7-1.36ZM9.83,41.67c-.09-.16.01-.35.19-.37.01,0,.02,0,.04,0h2.85c.09-.01.18.04.22.11l1.44,2.49c.1.17-.02.38-.22.38h-2.87c-.09,0-.18-.05-.22-.13l-1.37-2.4-.04-.08ZM11.27,48.05c-.08-.06-.15-.12-.23-.18-.37-.67-.74-1.34-1.01-2.06h.25c.09,0,.17.04.22.12l1.14,1.77c.15.24-.14.51-.36.35ZM92.78,50.1c1.35-4.37,4.29-8.9,3.51-10.71-1.74-4.05-7.94-4.37-9.45-7.19-2.19-4.08.24-10.2-3.25-13.81-1.13-1.17-5.69-.04-10.01-1.33l-19.08,33.04h38.27ZM66.92,46.21l-1.41,2.47c-.05.08-.13.13-.22.13h-2.87c-.2,0-.32-.21-.22-.38l1.44-2.49c.05-.08.13-.13.22-.13h2.85c.2.01.32.23.22.4ZM87.86,37.14l-1.41,2.47c-.05.08-.13.13-.22.13h-2.87c-.2,0-.32-.21-.22-.38l1.44-2.49c.05-.08.13-.13.22-.13h2.85c.2.01.32.23.22.4ZM90.26,41.29c.2,0,.32.21.22.38l-1.41,2.47c-.05.08-.13.13-.22.13h-2.87c-.2,0-.32-.21-.22-.38l1.44-2.49c.05-.08.13-.13.22-.13h2.85ZM72.89,39.74c-.2,0-.32-.21-.22-.38l1.44-2.49c.05-.08.13-.13.22-.13h2.85c.2.01.32.23.22.4l-1.41,2.47c-.05.08-.13.13-.22.13h-2.87ZM74.77,41.67l-1.41,2.47c-.05.08-.13.13-.22.13h-2.87c-.2,0-.32-.21-.22-.38l1.44-2.49c.05-.08.13-.13.22-.13h2.85c.2.01.32.23.22.4ZM75.28,34.83l1.44-2.49c.05-.08.13-.13.22-.13h2.85c.2.01.32.23.22.4l-1.41,2.47c-.05.08-.13.13-.22.13h-2.87c-.2,0-.32-.21-.22-.38ZM75.28,43.89l1.44-2.49c.05-.08.13-.13.22-.13h2.85c.2.01.32.23.22.4l-1.41,2.47c-.05.08-.13.13-.22.13h-2.87c-.2,0-.32-.21-.22-.38ZM78.12,39.74c-.2,0-.32-.21-.22-.38l1.44-2.49c.05-.08.13-.13.22-.13h2.85c.2.01.32.23.22.4l-1.41,2.47c-.05.08-.13.13-.22.13h-2.87ZM80.52,43.89l1.44-2.49c.05-.08.13-.13.22-.13h2.85c.2.01.32.23.22.4l-1.41,2.47c-.05.08-.13.13-.22.13h-2.87c-.2,0-.32-.21-.22-.38ZM85.24,32.61l-1.41,2.47c-.05.08-.13.13-.22.13h-2.87c-.2,0-.32-.21-.22-.38l1.44-2.49c.05-.08.13-.13.22-.13h2.85c.2.01.32.23.22.4ZM82.63,28.07l-1.41,2.47c-.05.08-.13.13-.22.13h-2.87c-.2,0-.32-.21-.22-.38l1.44-2.49c.05-.08.13-.13.22-.13h2.85c.2.01.32.23.22.4ZM80.01,23.54l-1.41,2.47c-.05.08-.13.13-.22.13h-2.87c-.2,0-.32-.21-.22-.38l1.44-2.49c.05-.08.13-.13.22-.13h2.85c.2.01.32.23.22.4ZM77.17,27.69c.2,0,.32.21.22.38l-1.41,2.47c-.05.08-.13.13-.22.13h-2.87c-.2,0-.32-.21-.22-.38l1.44-2.49c.05-.08.13-.13.22-.13h2.85ZM74.55,32.23c.2,0,.32.21.22.38l-1.41,2.47c-.05.08-.13.13-.22.13h-2.87c-.2,0-.32-.21-.22-.38l1.44-2.49c.05-.08.13-.13.22-.13h2.85ZM71.94,36.76c.2,0,.32.21.22.38l-1.41,2.47c-.05.08-.13.13-.22.13h-2.87c-.2,0-.32-.21-.22-.38l1.44-2.49c.05-.08.13-.13.22-.13h2.85ZM69.32,41.29c.2,0,.32.21.22.38l-1.41,2.47c-.05.08-.13.13-.22.13h-2.87c-.2,0-.32-.21-.22-.38l1.44-2.49c.05-.08.13-.13.22-.13h2.85ZM72.16,46.21l-1.41,2.47c-.05.08-.13.13-.22.13h-2.87c-.2,0-.32-.21-.22-.38l1.44-2.49c.05-.08.13-.13.22-.13h2.85c.2.01.32.23.22.4ZM77.39,46.21l-1.41,2.47c-.05.08-.13.13-.22.13h-2.87c-.2,0-.32-.21-.22-.38l1.44-2.49c.05-.08.13-.13.22-.13h2.85c.2.01.32.23.22.4ZM82.63,46.21l-1.41,2.47c-.05.08-.13.13-.22.13h-2.87c-.2,0-.32-.21-.22-.38l1.44-2.49c.05-.08.13-.13.22-.13h2.85c.2.01.32.23.22.4ZM87.86,46.21l-1.41,2.47c-.05.08-.13.13-.22.13h-2.87c-.2,0-.32-.21-.22-.38l1.44-2.49c.05-.08.13-.13.22-.13h2.85c.2.01.32.23.22.4ZM93.09,46.21l-1.41,2.47c-.05.08-.13.13-.22.13h-2.87c-.2,0-.32-.21-.22-.38l1.44-2.49c.05-.08.13-.13.22-.13h2.85c.2.01.32.23.22.4ZM95.71,41.68l-.27.48-1.14,1.99c-.05.08-.13.13-.22.13h-2.87c-.2,0-.32-.21-.22-.38l1.44-2.49c.05-.08.13-.13.22-.13h2.85c.08.01.13.05.18.1.07.08.1.19.04.3ZM93.6,39.36l.89-1.55c.5.5.93,1.06,1.22,1.74.02.06.03.13.05.19h-1.94c-.2,0-.32-.21-.22-.38ZM90.03,36.75h2.85c.2.01.32.23.22.4l-1.41,2.47c-.05.08-.13.13-.22.13h-2.87c-.2,0-.32-.21-.22-.38l1.44-2.49c.05-.08.13-.13.22-.13ZM86.79,33.03c.59.68,1.47,1.2,2.47,1.7-.08.14-.15.27-.2.35-.05.08-.13.13-.22.13h-2.87c-.2,0-.32-.21-.22-.38l1.04-1.8ZM85.73,30.68h-2.38c-.2,0-.32-.21-.22-.38l1.44-2.49c.05-.08.13-.13.22-.13.12,0,.32,0,.56,0,.05,1.03.15,2.04.38,2.99ZM85.07,23.17c.16.04.26.21.17.37l-.1.17-1.32,2.3c-.05.08-.13.13-.22.13h-2.87c-.2,0-.32-.21-.22-.38l1.44-2.49c.05-.08.13-.13.22-.13h2.85s.03.02.05.03ZM83.13,21.23l.81-1.4c.35.56.61,1.16.8,1.78h-1.39c-.2,0-.32-.21-.22-.38ZM77.9,21.23l1.44-2.49c.05-.08.13-.13.22-.13h2.85c.2.01.32.23.22.4l-1.41,2.47c-.05.08-.13.13-.22.13h-2.87c-.2,0-.32-.21-.22-.38ZM72.67,21.22l1.44-2.49c.05-.08.13-.13.22-.13h2.85c.2.01.32.23.22.4l-1.41,2.47c-.05.08-.13.13-.22.13h-2.87c-.2,0-.32-.21-.22-.38ZM70.05,25.76l1.44-2.49c.05-.08.13-.13.22-.13h2.85c.2.01.32.23.22.4l-1.41,2.47c-.05.08-.13.13-.22.13h-2.87c-.2,0-.32-.21-.22-.38ZM67.43,30.29l1.44-2.49c.05-.08.13-.13.22-.13h2.85c.2.01.32.23.22.4l-1.41,2.47c-.05.08-.13.13-.22.13h-2.87c-.2,0-.32-.21-.22-.38ZM64.81,34.83l1.44-2.49c.05-.08.13-.13.22-.13h2.85c.2.01.32.23.22.4l-1.41,2.47c-.05.08-.13.13-.22.13h-2.87c-.2,0-.32-.21-.22-.38ZM62.2,39.36l1.44-2.49c.05-.08.13-.13.22-.13h2.85c.2.01.32.23.22.4l-1.41,2.47c-.05.08-.13.13-.22.13h-2.87c-.2,0-.32-.21-.22-.38ZM59.58,43.89l1.44-2.49c.05-.08.13-.13.22-.13h2.85c.2.01.32.23.22.4l-1.41,2.47c-.05.08-.13.13-.22.13h-2.87c-.2,0-.32-.21-.22-.38ZM58.4,45.94c.05-.08.13-.13.22-.13h2.85c.2.01.32.23.22.4l-1.41,2.47c-.05.08-.13.13-.22.13h-2.87c-.2,0-.32-.21-.22-.38l1.44-2.49ZM12.41,52.1c-.17,0-.34.03-.51.06-.42,1.6-2.63,3.64-2.83,5.96-.44,5.07,7.63,7.12,10.14,10.99,2.13,3.27-1.47,8.48.42,11.28,3.23,4.79,8.22,4.64,10.63,6.26.04.03.07.05.11.08.13-.07.28-.13.41-.21.4-.23.72-.57.95-.97l19.31-33.45H12.41ZM19.79,76.44l-.2.35c.03-.23.06-.46.1-.7.12.07.18.22.1.35ZM38.62,56l1.41-2.47c.05-.08.13-.13.22-.13h2.87c.2,0,.32.21.22.38l-1.44,2.49c-.05.08-.13.13-.22.13h-2.85c-.2-.01-.32-.23-.22-.4ZM22.91,65.06l1.41-2.47c.05-.08.13-.13.22-.13h2.87c.2,0,.32.21.22.38l-1.44,2.49c-.05.08-.13.13-.22.13h-2.85c-.2-.01-.32-.23-.22-.4ZM20.52,60.91c-.2,0-.32-.21-.22-.38l1.41-2.47c.05-.08.13-.13.22-.13h2.87c.2,0,.32.21.22.38l-1.44,2.49c-.05.08-.13.13-.22.13h-2.85ZM32.65,62.46c.2,0,.32.21.22.38l-1.44,2.49c-.05.08-.13.13-.22.13h-2.85c-.2-.01-.32-.23-.22-.4l1.41-2.47c.05-.08.13-.13.22-.13h2.87ZM30.77,60.53l1.41-2.47c.05-.08.13-.13.22-.13h2.87c.2,0,.32.21.22.38l-1.44,2.49c-.05.08-.13.13-.22.13h-2.85c-.2-.01-.32-.23-.22-.4ZM30.26,67.38l-1.44,2.49c-.05.08-.13.13-.22.13h-2.85c-.2-.01-.32-.23-.22-.4l1.41-2.47c.05-.08.13-.13.22-.13h2.87c.2,0,.32.21.22.38ZM30.26,58.31l-1.44,2.49c-.05.08-.13.13-.22.13h-2.85c-.2-.01-.32-.23-.22-.4l1.41-2.47c.05-.08.13-.13.22-.13h2.87c.2,0,.32.21.22.38ZM24.8,66.99c.2,0,.32.21.22.38l-1.44,2.49c-.05.08-.13.13-.22.13h-2.85c-.2-.01-.32-.23-.22-.4l1.41-2.47c.05-.08.13-.13.22-.13h2.87ZM22.91,74.13l1.41-2.47c.05-.08.13-.13.22-.13h2.87c.2,0,.32.21.22.38l-1.44,2.49c-.05.08-.13.13-.22.13h-2.85c-.2-.01-.32-.23-.22-.4ZM25.53,78.66l1.41-2.47c.05-.08.13-.13.22-.13h2.87c.2,0,.32.21.22.38l-1.44,2.49c-.05.08-.13.13-.22.13h-2.85c-.2-.01-.32-.23-.22-.4ZM28.37,74.51c-.2,0-.32-.21-.22-.38l1.41-2.47c.05-.08.13-.13.22-.13h2.87c.2,0,.32.21.22.38l-1.44,2.49c-.05.08-.13.13-.22.13h-2.85ZM30.99,69.98c-.2,0-.32-.21-.22-.38l1.41-2.47c.05-.08.13-.13.22-.13h2.87c.2,0,.32.21.22.38l-1.44,2.49c-.05.08-.13.13-.22.13h-2.85ZM33.6,65.44c-.2,0-.32-.21-.22-.38l1.41-2.47c.05-.08.13-.13.22-.13h2.87c.2,0,.32.21.22.38l-1.44,2.49c-.05.08-.13.13-.22.13h-2.85ZM36.22,60.91c-.2,0-.32-.21-.22-.38l1.41-2.47c.05-.08.13-.13.22-.13h2.87c.2,0,.32.21.22.38l-1.44,2.49c-.05.08-.13.13-.22.13h-2.85ZM33.38,56l1.41-2.47c.05-.08.13-.13.22-.13h2.87c.2,0,.32.21.22.38l-1.44,2.49c-.05.08-.13.13-.22.13h-2.85c-.2-.01-.32-.23-.22-.4ZM28.15,55.99l1.41-2.47c.05-.08.13-.13.22-.13h2.87c.2,0,.32.21.22.38l-1.44,2.49c-.05.08-.13.13-.22.13h-2.85c-.2-.01-.32-.23-.22-.4ZM22.91,55.99l1.41-2.47c.05-.08.13-.13.22-.13h2.87c.2,0,.32.21.22.38l-1.44,2.49c-.05.08-.13.13-.22.13h-2.85c-.2-.01-.32-.23-.22-.4ZM17.68,55.99l1.41-2.47c.05-.08.13-.13.22-.13h2.87c.2,0,.32.21.22.38l-1.44,2.49c-.05.08-.13.13-.22.13h-2.85c-.2-.01-.32-.23-.22-.4ZM19.79,58.31l-1.44,2.49c-.05.08-.13.13-.22.13h-2.85c-.2-.01-.32-.23-.22-.4l1.41-2.47c.05-.08.13-.13.22-.13h2.87c.2,0,.32.21.22.38ZM12.45,55.99l1.41-2.47c.05-.08.13-.13.22-.13h2.87c.2,0,.32.21.22.38l-1.44,2.49c-.05.08-.13.13-.22.13h-2.85c-.2-.01-.32-.23-.22-.4ZM11.43,54.11c.18,0,.32.21.21.39l-1.14,1.77c-.05.07-.13.12-.22.12h-.17c.36-.81.86-1.57,1.32-2.28ZM12.9,60.92h-2.47c-.15-.25-.29-.5-.4-.75l1.21-2.12c.05-.08.13-.13.22-.13h2.87c.2,0,.32.21.22.38l-1.44,2.49c-.05.08-.13.13-.22.13ZM17.17,62.84l-1.44,2.49s-.03.03-.04.04c-.82-.56-1.66-1.12-2.45-1.7l.61-1.08c.05-.08.13-.13.22-.13h2.87c.2,0,.32.21.22.38ZM19.79,67.38l-.55.95c-.38-.46-.84-.9-1.34-1.33h1.67c.2,0,.32.21.22.38ZM17.9,65.44c-.2,0-.32-.21-.22-.38l1.41-2.47c.05-.08.13-.13.22-.13h2.87c.2,0,.32.21.22.38l-1.44,2.49c-.05.08-.13.13-.22.13h-2.85ZM20.35,71.53h1.83c.2,0,.32.21.22.38l-1.44,2.49c-.05.08-.13.13-.22.13h-.77c.19-1.01.37-2.03.37-3ZM20.3,78.66l1.41-2.47c.05-.08.13-.13.22-.13h2.87c.2,0,.32.21.22.38l-1.44,2.49c-.05.08-.13.13-.22.13h-2.85c-.2-.01-.32-.23-.22-.4ZM22.41,80.98l-.59,1.02c-.45-.41-.89-.87-1.3-1.4h1.67c.2,0,.32.21.22.38ZM27.64,80.98l-1.44,2.49c-.05.08-.13.13-.22.13h-1.87c-.36-.19-.71-.41-1.06-.64l1.27-2.23c.05-.08.13-.13.22-.13h2.87c.2,0,.32.21.22.38ZM29.38,85.51s-.06.02-.09.04c-.4-.16-.84-.31-1.3-.46l1.27-.06c.28-.01.37.37.12.49ZM32.87,80.98l-1.44,2.49c-.05.08-.13.13-.22.13h-2.85c-.2-.01-.32-.23-.22-.4l1.41-2.47c.05-.08.13-.13.22-.13h2.87c.2,0,.32.21.22.38ZM35.49,76.44l-1.44,2.49c-.05.08-.13.13-.22.13h-2.85c-.2-.01-.32-.23-.22-.4l1.41-2.47c.05-.08.13-.13.22-.13h2.87c.2,0,.32.21.22.38ZM38.11,71.91l-1.44,2.49c-.05.08-.13.13-.22.13h-2.85c-.2-.01-.32-.23-.22-.4l1.41-2.47c.05-.08.13-.13.22-.13h2.87c.2,0,.32.21.22.38ZM40.73,67.38l-1.44,2.49c-.05.08-.13.13-.22.13h-2.85c-.2-.01-.32-.23-.22-.4l1.41-2.47c.05-.08.13-.13.22-.13h2.87c.2,0,.32.21.22.38ZM43.34,62.84l-1.44,2.49c-.05.08-.13.13-.22.13h-2.85c-.2-.01-.32-.23-.22-.4l1.41-2.47c.05-.08.13-.13.22-.13h2.87c.2,0,.32.21.22.38ZM45.96,58.31l-1.44,2.49c-.05.08-.13.13-.22.13h-2.85c-.2-.01-.32-.23-.22-.4l1.41-2.47c.05-.08.13-.13.22-.13h2.87c.2,0,.32.21.22.38ZM47.14,56.26c-.05.08-.13.13-.22.13h-2.85c-.2-.01-.32-.23-.22-.4l1.41-2.47c.05-.08.13-.13.22-.13h2.87c.2,0,.32.21.22.38l-1.44,2.49ZM52.77,49.1l18.93-32.79c-4.77-2.38-8.72-7.84-9.76-6.76-5.29,5.52-11.46,1.02-18.71-.48-4.71-.97-7.08,2.26-10.11,4.73,0,.18-.03.35-.03.53,0,.46.14.91.37,1.31l19.31,33.45ZM39.46,23.47l-1.44-2.49c-.05-.08-.05-.18,0-.26l1.44-2.46c.1-.17.34-.17.44,0l1.44,2.46c.05.08.05.18,0,.26l-1.44,2.49c-.1.17-.34.17-.44,0ZM42.08,28l-1.44-2.49c-.05-.08-.05-.18,0-.26l1.44-2.46c.1-.17.34-.17.44,0l1.44,2.46c.05.08.05.18,0,.26l-1.44,2.49c-.1.17-.34.17-.44,0ZM59.66,25.26c.05.08.05.18,0,.26l-1.44,2.49c-.1.17-.34.17-.44,0l-1.44-2.49c-.05-.08-.05-.18,0-.26l1.44-2.46c.1-.17.34-.17.44,0l1.44,2.46ZM58.97,20.73l1.44-2.46c.1-.17.34-.17.44,0l1.44,2.46c.05.08.05.18,0,.26l-1.44,2.49c-.1.17-.34.17-.44,0l-1.44-2.49c-.05-.08-.05-.18,0-.26ZM51.11,34.32l1.44-2.46c.1-.17.34-.17.44,0l1.44,2.46c.05.08.05.18,0,.26l-1.44,2.49c-.1.17-.34.17-.44,0l-1.44-2.49c-.05-.08-.05-.18,0-.26ZM50.37,32.53c-.1.17-.34.17-.44,0l-1.44-2.49c-.05-.08-.05-.18,0-.26l1.44-2.46c.1-.17.34-.17.44,0l1.44,2.46c.05.08.05.18,0,.26l-1.44,2.49ZM53.73,30.05c-.05-.08-.05-.18,0-.26l1.44-2.46c.1-.17.34-.17.44,0l1.44,2.46c.05.08.05.18,0,.26l-1.44,2.49c-.1.17-.34.17-.44,0l-1.44-2.49ZM57.04,20.98l-1.44,2.49c-.1.17-.34.17-.44,0l-1.44-2.49c-.05-.08-.05-.18,0-.26l1.44-2.46c.1-.17.34-.17.44,0l1.44,2.46c.05.08.05.18,0,.26ZM54.43,25.26c.05.08.05.18,0,.26l-1.44,2.49c-.1.17-.34.17-.44,0l-1.44-2.49c-.05-.08-.05-.18,0-.26l1.44-2.46c.1-.17.34-.17.44,0l1.44,2.46ZM51.81,20.98l-1.44,2.49c-.1.17-.34.17-.44,0l-1.44-2.49c-.05-.08-.05-.18,0-.26l1.44-2.46c.1-.17.34-.17.44,0l1.44,2.46c.05.08.05.18,0,.26ZM49.19,25.26c.05.08.05.18,0,.26l-1.44,2.49c-.1.17-.34.17-.44,0l-1.44-2.49c-.05-.08-.05-.18,0-.26l1.44-2.46c.1-.17.34-.17.44,0l1.44,2.46ZM46.57,20.98l-1.44,2.49c-.1.17-.34.17-.44,0l-1.44-2.49c-.05-.08-.05-.18,0-.26l1.44-2.46c.1-.17.34-.17.44,0l1.44,2.46c.05.08.05.18,0,.26ZM44.7,32.53l-1.44-2.49c-.05-.08-.05-.18,0-.26l1.44-2.46c.1-.17.34-.17.44,0l1.44,2.46c.05.08.05.18,0,.26l-1.44,2.49c-.1.17-.34.17-.44,0ZM47.31,37.07l-1.44-2.49c-.05-.08-.05-.18,0-.26l1.44-2.46c.1-.17.34-.17.44,0l1.44,2.46c.05.08.05.18,0,.26l-1.44,2.49c-.1.17-.34.17-.44,0ZM49.93,41.6l-1.44-2.49c-.05-.08-.05-.18,0-.26l1.44-2.46c.1-.17.34-.17.44,0l1.44,2.46c.05.08.05.18,0,.26l-1.44,2.49c-.1.17-.34.17-.44,0ZM54.43,43.65l-1.44,2.49c-.1.17-.34.17-.44,0l-1.44-2.49c-.05-.08-.05-.18,0-.26l1.44-2.46c.1-.17.34-.17.44,0l1.44,2.46c.05.08.05.18,0,.26ZM57.04,39.11l-1.44,2.49c-.1.17-.34.17-.44,0l-1.44-2.49c-.05-.08-.05-.18,0-.26l1.44-2.46c.1-.17.34-.17.44,0l1.44,2.46c.05.08.05.18,0,.26ZM59.66,34.58l-1.44,2.49c-.1.17-.34.17-.44,0l-1.44-2.49c-.05-.08-.05-.18,0-.26l1.44-2.46c.1-.17.34-.17.44,0l1.44,2.46c.05.08.05.18,0,.26ZM62.28,30.05l-1.44,2.49c-.1.17-.34.17-.44,0l-1.44-2.49c-.05-.08-.05-.18,0-.26l1.44-2.46c.1-.17.34-.17.44,0l1.44,2.46c.05.08.05.18,0,.26ZM64.9,25.52l-1.44,2.49c-.1.17-.34.17-.44,0l-1.44-2.49c-.05-.08-.05-.18,0-.26l1.44-2.46c.1-.17.34-.17.44,0l1.44,2.46c.05.08.05.18,0,.26ZM67.51,20.98l-1.44,2.49c-.1.17-.34.17-.44,0l-1.44-2.49c-.05-.08-.05-.18,0-.26l1.44-2.46c.1-.17.34-.17.44,0l1.44,2.46c.05.08.05.18,0,.26ZM66.82,16.19l1.04-1.78c.68.54,1.39,1.07,2.13,1.55l.14.24c.05.08.05.18,0,.26l-1.44,2.49c-.1.17-.34.17-.44,0l-1.44-2.49c-.05-.08-.05-.18,0-.26ZM64.2,11.66l.16-.28c.67.58,1.44,1.29,2.29,2.02l-.58,1c-.1.17-.34.17-.44,0l-1.44-2.49c-.05-.08-.05-.18,0-.26ZM63.46,13.73l1.44,2.46c.05.08.05.18,0,.26l-1.44,2.49c-.1.17-.34.17-.44,0l-1.44-2.49c-.05-.08-.05-.18,0-.26l1.44-2.46c.1-.17.34-.17.44,0ZM61.53,10.38l.75,1.28c.05.08.05.18,0,.26l-1.44,2.49c-.1.17-.34.17-.44,0l-1.34-2.32c.84-.37,1.67-.93,2.47-1.71ZM58.23,13.73l1.44,2.46c.05.08.05.18,0,.26l-1.44,2.49c-.1.17-.34.17-.44,0l-1.44-2.49c-.05-.08-.05-.18,0-.26l1.44-2.46c.1-.17.34-.17.44,0ZM56.58,12.72l-.97,1.68c-.1.17-.34.17-.44,0l-1.04-1.8c.83.12,1.65.17,2.45.11ZM52.99,13.73l1.44,2.46c.05.08.05.18,0,.26l-1.44,2.49c-.1.17-.34.17-.44,0l-1.44-2.49c-.05-.08-.05-.18,0-.26l1.44-2.46c.1-.17.34-.17.44,0ZM48.5,11.66c.06-.11.16-.28.28-.48,1,.33,1.98.64,2.94.9l-1.34,2.32c-.1.17-.34.17-.44,0l-1.44-2.49c-.05-.08-.05-.18,0-.26ZM47.76,13.73l1.44,2.46c.05.08.05.18,0,.26l-1.44,2.49c-.1.17-.34.17-.44,0l-1.44-2.49c-.05-.08-.05-.18,0-.26l1.44-2.46c.1-.17.34-.17.44,0ZM43.26,11.66l1.05-1.79c.48.12.96.24,1.44.38l.83,1.42c.05.08.05.18,0,.26l-1.44,2.49c-.1.17-.34.17-.44,0l-1.44-2.49c-.05-.08-.05-.18,0-.26ZM42.71,9.54l-.19.32c-.1.17-.34.17-.44,0l-.22-.39c.28,0,.56.03.85.06ZM42.08,13.73c.1-.17.34-.17.44,0l1.44,2.46c.05.08.05.18,0,.26l-1.44,2.49c-.1.17-.34.17-.44,0l-1.44-2.49c-.05-.08-.05-.18,0-.26l1.44-2.46ZM38.03,11.66l.93-1.59c.39-.17.79-.31,1.21-.41l1.17,2c.05.08.05.18,0,.26l-1.44,2.49c-.1.17-.34.17-.44,0l-1.44-2.49c-.05-.08-.05-.18,0-.26ZM37.29,13.73l1.44,2.46c.05.08.05.18,0,.26l-1.44,2.49c-.1.17-.34.17-.44,0l-1.44-2.49c-.05-.08-.05-.18,0-.26l1.44-2.46c.1-.17.34-.17.44,0ZM34.74,13.15c.45-.41.9-.81,1.36-1.2l-.94,1.83c-.13.25-.51.14-.48-.14.02-.17.04-.33.07-.49ZM33.46,86.56c-.23.4-.36.85-.37,1.32,0,.43.02.86.07,1.28,1.79,1.83,3.39,3.75,7.02,5.41,3.25,1.49,7.28-1.96,11.06-1.83,3.78.14,7.3,3.86,11.05,2.85,5.29-1.42,6.2-7,9.2-10.05l-18.73-32.44-19.32,33.45ZM48.5,63.09l1.44-2.49c.1-.17.34-.17.44,0l1.44,2.49c.05.08.05.18,0,.26l-1.44,2.46c-.1.17-.34.17-.44,0l-1.44-2.46c-.05-.08-.05-.18,0-.26ZM62.28,81.48l-1.44,2.46c-.1.17-.34.17-.44,0l-1.44-2.46c-.05-.08-.05-.18,0-.26l1.44-2.49c.1-.17.34-.17.44,0l1.44,2.49c.05.08.05.18,0,.26ZM63.02,83.27c.1-.17.34-.17.44,0l1.44,2.49c.05.08.05.18,0,.26l-1.44,2.46c-.1.17-.34.17-.44,0l-1.44-2.46c-.05-.08-.05-.18,0-.26l1.44-2.49ZM43.26,81.48c-.05-.08-.05-.18,0-.26l1.44-2.49c.1-.17.34-.17.44,0l1.44,2.49c.05.08.05.18,0,.26l-1.44,2.46c-.1.17-.34.17-.44,0l-1.44-2.46ZM43.96,86.01l-1.44,2.46c-.1.17-.34.17-.44,0l-1.44-2.46c-.05-.08-.05-.18,0-.26l1.44-2.49c.1-.17.34-.17.44,0l1.44,2.49c.05.08.05.18,0,.26ZM49.19,76.69c.05.08.05.18,0,.26l-1.44,2.46c-.1.17-.34.17-.44,0l-1.44-2.46c-.05-.08-.05-.18,0-.26l1.44-2.49c.1-.17.34-.17.44,0l1.44,2.49ZM48.5,72.16l1.44-2.49c.1-.17.34-.17.44,0l1.44,2.49c.05.08.05.18,0,.26l-1.44,2.46c-.1.17-.34.17-.44,0l-1.44-2.46c-.05-.08-.05-.18,0-.26ZM45.88,85.75l1.44-2.49c.1-.17.34-.17.44,0l1.44,2.49c.05.08.05.18,0,.26l-1.44,2.46c-.1.17-.34.17-.44,0l-1.44-2.46c-.05-.08-.05-.18,0-.26ZM48.5,81.48c-.05-.08-.05-.18,0-.26l1.44-2.49c.1-.17.34-.17.44,0l1.44,2.49c.05.08.05.18,0,.26l-1.44,2.46c-.1.17-.34.17-.44,0l-1.44-2.46ZM51.11,76.95c-.05-.08-.05-.18,0-.26l1.44-2.49c.1-.17.34-.17.44,0l1.44,2.49c.05.08.05.18,0,.26l-1.44,2.46c-.1.17-.34.17-.44,0l-1.44-2.46ZM53.73,81.22l1.44-2.49c.1-.17.34-.17.44,0l1.44,2.49c.05.08.05.18,0,.26l-1.44,2.46c-.1.17-.34.17-.44,0l-1.44-2.46c-.05-.08-.05-.18,0-.26ZM56.35,85.76l1.44-2.49c.1-.17.34-.17.44,0l1.44,2.49c.05.08.05.18,0,.26l-1.44,2.46c-.1.17-.34.17-.44,0l-1.44-2.46c-.05-.08-.05-.18,0-.26ZM59.66,76.95l-1.44,2.46c-.1.17-.34.17-.44,0l-1.44-2.46c-.05-.08-.05-.18,0-.26l1.44-2.49c.1-.17.34-.17.44,0l1.44,2.49c.05.08.05.18,0,.26ZM57.04,72.41l-1.44,2.46c-.1.17-.34.17-.44,0l-1.44-2.46c-.05-.08-.05-.18,0-.26l1.44-2.49c.1-.17.34-.17.44,0l1.44,2.49c.05.08.05.18,0,.26ZM54.43,67.88l-1.44,2.46c-.1.17-.34.17-.44,0l-1.44-2.46c-.05-.08-.05-.18,0-.26l1.44-2.49c.1-.17.34-.17.44,0l1.44,2.49c.05.08.05.18,0,.26ZM45.88,67.62l1.44-2.49c.1-.17.34-.17.44,0l1.44,2.49c.05.08.05.18,0,.26l-1.44,2.46c-.1.17-.34.17-.44,0l-1.44-2.46c-.05-.08-.05-.18,0-.26ZM43.26,72.15l1.44-2.49c.1-.17.34-.17.44,0l1.44,2.49c.05.08.05.18,0,.26l-1.44,2.46c-.1.17-.34.17-.44,0l-1.44-2.46c-.05-.08-.05-.18,0-.26ZM40.64,76.69l1.44-2.49c.1-.17.34-.17.44,0l1.44,2.49c.05.08.05.18,0,.26l-1.44,2.46c-.1.17-.34.17-.44,0l-1.44-2.46c-.05-.08-.05-.18,0-.26ZM38.03,81.22l1.44-2.49c.1-.17.34-.17.44,0l1.44,2.49c.05.08.05.18,0,.26l-1.44,2.46c-.1.17-.34.17-.44,0l-1.44-2.46c-.05-.08-.05-.18,0-.26ZM36.11,90.54l-.29.5c-.28-.25-.54-.5-.8-.76-.14-.45-.28-1.01-.35-1.71-.03-.28.35-.39.48-.14l.96,1.87c.04.08.04.17,0,.25ZM36.85,88.47l-1.44-2.46c-.05-.08-.05-.18,0-.26l1.44-2.49c.1-.17.34-.17.44,0l1.44,2.49c.05.08.05.18,0,.26l-1.44,2.46c-.1.17-.34.17-.44,0ZM39.9,93c-.1.17-.34.17-.44,0l-1.44-2.46c-.05-.08-.05-.18,0-.26l1.44-2.49c.1-.17.34-.17.44,0l1.44,2.49c.05.08.05.18,0,.26l-1.44,2.46ZM40.99,94.22l1.09-1.88c.1-.17.34-.17.44,0l1.07,1.86c-.9.19-1.77.25-2.6.03ZM46.57,90.54l-1.44,2.46c-.1.17-.34.17-.44,0l-1.44-2.46c-.05-.08-.05-.18,0-.26l1.44-2.49c.1-.17.34-.17.44,0l1.44,2.49c.05.08.05.18,0,.26ZM46.84,93.16l.47-.82c.1-.17.34-.17.44,0l.25.43c-.39.12-.78.26-1.16.39ZM52.08,91.01c-.24.43-.48.82-.72,1.19-.03,0-.06,0-.09,0-.57-.02-1.14.05-1.72.16l-1.06-1.81c-.05-.08-.05-.18,0-.26l1.44-2.49c.1-.17.34-.17.44,0l1.7,2.95c.05.08.05.18,0,.25ZM52.55,88.47l-1.44-2.46c-.05-.08-.05-.18,0-.26l1.44-2.49c.1-.17.34-.17.44,0l1.44,2.49c.05.08.05.18,0,.26l-1.44,2.46c-.1.17-.34.17-.44,0ZM55.36,93.39c-.11.09-.27.08-.36-.04-.04-.06-.09-.13-.13-.18-.47-.62-.94-1.33-1.4-2.16-.04-.08-.04-.18,0-.25l1.7-2.95c.1-.17.34-.17.44,0l1.44,2.49c.05.08.05.18,0,.26l-1.63,2.79s-.04.04-.06.06ZM59.67,95.05c-.96-.19-1.92-.57-2.87-1l.99-1.71c.1-.17.34-.17.44,0l1.44,2.49c.04.07.04.15,0,.23ZM60.84,93.01c-.1.17-.34.17-.44,0l-1.44-2.46c-.05-.08-.05-.18,0-.26l1.44-2.49c.1-.17.34-.17.44,0l1.44,2.49c.05.08.05.18,0,.26l-1.44,2.46ZM62.18,95.01c-.19.05-.38.08-.57.11l-.02-.04c-.05-.08-.05-.18,0-.26l1.44-2.49c.1-.17.34-.17.44,0l.96,1.67c-.65.42-1.38.78-2.24,1.01ZM67.51,90.55l-.65,1.11-.79,1.35c-.09.16-.31.16-.41.03,0-.01-.02-.01-.03-.03l-1.44-2.46c-.05-.08-.05-.18,0-.26l1.44-2.49c.1-.17.34-.17.44,0l1.44,2.49c.05.08.05.18,0,.26ZM68.7,83.27l1.44,2.49c.05.08.05.18,0,.26l-1.44,2.46c-.1.17-.34.17-.44,0l-1.44-2.46c-.05-.08-.05-.18,0-.26l1.44-2.49c.1-.17.34-.17.44,0ZM66.08,78.74l1.44,2.49c.05.08.05.18,0,.26l-1.44,2.46c-.1.17-.34.17-.44,0l-1.44-2.46c-.05-.08-.05-.18,0-.26l1.44-2.49c.1-.17.34-.17.44,0ZM63.46,74.2l1.44,2.49c.05.08.05.18,0,.26l-1.44,2.46c-.1.17-.34.17-.44,0l-1.44-2.46c-.05-.08-.05-.18,0-.26l1.44-2.49c.1-.17.34-.17.44,0ZM60.84,69.67l1.44,2.49c.05.08.05.18,0,.26l-1.44,2.46c-.1.17-.34.17-.44,0l-1.44-2.46c-.05-.08-.05-.18,0-.26l1.44-2.49c.1-.17.34-.17.44,0ZM58.23,65.14l1.44,2.49c.05.08.05.18,0,.26l-1.44,2.46c-.1.17-.34.17-.44,0l-1.44-2.46c-.05-.08-.05-.18,0-.26l1.44-2.49c.1-.17.34-.17.44,0ZM55.61,60.6l1.44,2.49c.05.08.05.18,0,.26l-1.44,2.46c-.1.17-.34.17-.44,0l-1.44-2.46c-.05-.08-.05-.18,0-.26l1.44-2.49c.1-.17.34-.17.44,0ZM54.43,58.56c.05.08.05.18,0,.26l-1.44,2.46c-.1.17-.34.17-.44,0l-1.44-2.46c-.05-.08-.05-.18,0-.26l1.44-2.49c.1-.17.34-.17.44,0l1.44,2.49Z"/>
</svg>