<?xml version="1.0" encoding="UTF-8"?>
<svg id="Layer_1" data-name="Layer 1" xmlns="http://www.w3.org/2000/svg" xmlns:xlink="http://www.w3.org/1999/xlink" viewBox="0 0 105 105">
  <defs>
    <style>
      .cls-1 {
        fill: url(#linear-gradient);
      }

      .cls-1, .cls-2, .cls-3 {
        stroke-width: 0px;
      }

      .cls-2 {
        fill: url(#radial-gradient-2);
      }

      .cls-3 {
        fill: url(#radial-gradient);
      }
    </style>
    <radialGradient id="radial-gradient" cx="52.5" cy="52.5" fx="52.5" fy="52.5" r="43.7" gradientUnits="userSpaceOnUse">
      <stop offset="0" stop-color="#f3deb5"/>
      <stop offset="1" stop-color="#f5ead2"/>
    </radialGradient>
    <linearGradient id="linear-gradient" x1="90.04" y1="74.42" x2="14.76" y2="30.96" gradientUnits="userSpaceOnUse">
      <stop offset="0" stop-color="#f1dbae"/>
      <stop offset="1" stop-color="#efd199"/>
    </linearGradient>
    <radialGradient id="radial-gradient-2" cx="52.5" cy="52.5" fx="52.5" fy="52.5" r="43.7" gradientUnits="userSpaceOnUse">
      <stop offset="0" stop-color="#efd199"/>
      <stop offset="1" stop-color="#f1dbae"/>
    </radialGradient>
  </defs>
  <path class="cls-3" d="M8.64,42.63c1.38-4.83,7.9-5.79,10.33-9.72,1.68-2.72-1.14-8.24,1.5-11.78,1.47-1.97,9.46-1.04,14.06-3.33,3.68-1.83,3.64-7.04,7.74-7.67,1.41-.21,5.38,1.58,9.54,1.22,3.51-.3,7.17-2.83,9.54-2.27,3.34.78,5.85,7.89,10.14,9.97s10.34-.89,14.65,3.42c2.75,2.75,1.28,7.66,3.06,11s6.78,5.11,7.11,8.67c.55,5.87-1.58,8.18-1.89,12.56-.2,2.9,2.42,7.14-.11,12.33-1.48,3.03-7.79,2.52-9.56,6-2.09,4.11.17,12.12-4.44,14.28-2.44,1.14-5.9-.23-7.22.83-3.14,2.53-2.73,7.13-9.11,7.54-8.18.53-9.46-1-12.16-.76-3.17.29-7.31,2.18-12.17.22-3.79-1.52-5.77-4.77-8.78-6.11-3.9-1.74-8.46-1.81-10.11-6.78-2.34-7.03-1.52-14.62-8.94-16.44-1.5-.37,1.49-6.9.94-12.33-.51-5.12-4.61-9.1-4.11-10.84Z"/>
  <path class="cls-1" d="M60.62,10c.19,0,.36.02.51.05,1.32.31,2.69,2.16,4.15,4.13,1.6,2.17,3.42,4.62,5.78,5.76,1.96.95,4.19.95,6.34.96,2.97,0,5.78.01,8.03,2.27,1.3,1.3,1.49,3.32,1.68,5.46.17,1.81.34,3.68,1.2,5.3.85,1.6,2.29,2.82,3.68,3.99,1.63,1.38,3.17,2.68,3.32,4.3.31,3.36-.28,5.43-.91,7.61-.42,1.45-.85,2.94-.98,4.78-.07,1.07.17,2.24.44,3.48.52,2.47,1.12,5.28-.45,8.49-.53,1.09-2.17,1.66-3.91,2.26-2.13.74-4.55,1.57-5.64,3.73-.9,1.78-1.07,4.11-1.23,6.36-.23,3.29-.46,6.39-2.75,7.46-.57.27-1.31.39-2.31.39-.45,0-.91-.02-1.35-.05-.44-.02-.87-.04-1.26-.04-.78,0-1.77.07-2.5.66-1.21.97-1.92,2.17-2.61,3.32-1.26,2.1-2.25,3.76-5.94,4-1.12.07-2.18.11-3.15.11-2.91,0-4.55-.32-5.87-.58-.88-.17-1.63-.32-2.49-.32-.22,0-.44,0-.68.03-.88.08-1.8.27-2.77.47-1.49.31-3.03.62-4.7.62-1.5,0-2.89-.26-4.23-.8-1.89-.76-3.33-2.02-4.73-3.24-1.29-1.12-2.5-2.18-4.02-2.86-.99-.44-2.02-.78-3.01-1.1-2.94-.96-5.47-1.8-6.56-5.08-.58-1.75-.97-3.56-1.34-5.32-1.1-5.19-2.15-10.1-7.99-11.7-.02-.59.27-1.95.5-3.08.52-2.48,1.16-5.56.87-8.46-.31-3.07-1.81-5.75-2.91-7.71-.56-1-1.33-2.38-1.23-2.76.67-2.34,2.83-3.69,5.12-5.11,1.92-1.2,3.91-2.43,5.1-4.36.92-1.49.76-3.44.59-5.5-.19-2.24-.38-4.55.86-6.21.48-.64,3.09-.92,5.18-1.15,2.84-.31,6.07-.66,8.52-1.89,1.94-.97,2.96-2.7,3.87-4.24,1.12-1.9,1.9-3.08,3.58-3.34.03,0,.07,0,.11,0,.45,0,1.25.19,2.18.41,1.66.39,3.72.88,5.97.88.41,0,.82-.02,1.21-.05,1.73-.15,3.47-.79,5.01-1.35,1.4-.51,2.73-1,3.72-1M60.62,9c-2.36,0-5.64,2.08-8.81,2.35-.38.03-.75.05-1.12.05-3.51,0-6.71-1.29-8.16-1.29-.1,0-.18,0-.26.02-4.1.62-4.06,5.83-7.74,7.67-4.59,2.29-12.59,1.37-14.06,3.33-2.64,3.54.18,9.06-1.5,11.78-2.44,3.94-8.95,4.89-10.33,9.72-.5,1.74,3.6,5.72,4.11,10.84.54,5.43-2.45,11.96-.94,12.33,7.43,1.82,6.61,9.41,8.94,16.44,1.65,4.97,6.22,5.04,10.11,6.78,3,1.34,4.99,4.59,8.78,6.11,1.62.65,3.16.88,4.6.88,2.91,0,5.45-.91,7.57-1.1.2-.02.4-.03.59-.03,1.97,0,3.45.9,8.36.9.94,0,2-.03,3.21-.11,6.38-.41,5.97-5,9.11-7.54.43-.35,1.09-.44,1.87-.44s1.7.09,2.62.09,1.9-.1,2.74-.49c4.61-2.16,2.36-10.17,4.44-14.28,1.77-3.48,8.08-2.97,9.56-6,2.53-5.19-.09-9.44.11-12.33.3-4.38,2.44-6.69,1.89-12.56-.33-3.56-5.34-5.33-7.11-8.67-1.77-3.34-.31-8.25-3.06-11-4.31-4.31-10.36-1.34-14.65-3.42-4.28-2.08-6.8-9.19-10.14-9.97-.23-.05-.48-.08-.73-.08h0Z"/>
  <path class="cls-2" d="M52.38,50.96h0s18.6-32.21,18.6-32.21c-3.97-2.37-6.41-8.93-9.62-9.67-2.38-.55-6.03,1.98-9.54,2.27-4.17.35-8.13-1.44-9.54-1.22-4.1.62-4.06,5.83-7.74,7.67-.33.17-.69.31-1.05.44l18.89,32.72h0ZM56.65,40.97l-1.44,2.49c-.1.17-.34.17-.44,0l-1.44-2.49c-.05-.08-.05-.18,0-.26l1.44-2.46c.1-.17.34-.17.44,0l1.44,2.46c.05.08.05.18,0,.26ZM42.87,22.58l1.44-2.46c.1-.17.34-.17.44,0l1.44,2.46c.05.08.05.18,0,.26l-1.44,2.49c-.1.17-.34.17-.44,0l-1.44-2.49c-.05-.08-.05-.18,0-.26ZM42.13,20.79c-.1.17-.34.17-.44,0l-1.44-2.49c-.05-.08-.05-.18,0-.26l1.44-2.46c.1-.17.34-.17.44,0l1.44,2.46c.05.08.05.18,0,.26l-1.44,2.49ZM55.95,27.37c-.05-.08-.05-.18,0-.26l1.44-2.46c.1-.17.34-.17.44,0l1.44,2.46c.05.08.05.18,0,.26l-1.44,2.49c-.1.17-.34.17-.44,0l-1.44-2.49ZM56.65,31.91l-1.44,2.49c-.1.17-.34.17-.44,0l-1.44-2.49c-.05-.08-.05-.18,0-.26l1.44-2.46c.1-.17.34-.17.44,0l1.44,2.46c.05.08.05.18,0,.26ZM58.57,22.84c-.05-.08-.05-.18,0-.26l1.44-2.46c.1-.17.34-.17.44,0l1.44,2.46c.05.08.05.18,0,.26l-1.44,2.49c-.1.17-.34.17-.44,0l-1.44-2.49ZM59.27,18.31l-1.44,2.49c-.1.17-.34.17-.44,0l-1.44-2.49c-.05-.08-.05-.18,0-.26l1.44-2.46c.1-.17.34-.17.44,0l1.44,2.46c.05.08.05.18,0,.26ZM56.65,22.58c.05.08.05.18,0,.26l-1.44,2.49c-.1.17-.34.17-.44,0l-1.44-2.49c-.05-.08-.05-.18,0-.26l1.44-2.46c.1-.17.34-.17.44,0l1.44,2.46ZM54.03,27.12c.05.08.05.18,0,.26l-1.44,2.49c-.1.17-.34.17-.44,0l-1.44-2.49c-.05-.08-.05-.18,0-.26l1.44-2.46c.1-.17.34-.17.44,0l1.44,2.46ZM51.41,22.84l-1.44,2.49c-.1.17-.34.17-.44,0l-1.44-2.49c-.05-.08-.05-.18,0-.26l1.44-2.46c.1-.17.34-.17.44,0l1.44,2.46c.05.08.05.18,0,.26ZM48.8,18.31l-1.44,2.49c-.1.17-.34.17-.44,0l-1.44-2.49c-.05-.08-.05-.18,0-.26l1.44-2.46c.1-.17.34-.17.44,0l1.44,2.46c.05.08.05.18,0,.26ZM45.48,27.12l1.44-2.46c.1-.17.34-.17.44,0l1.44,2.46c.05.08.05.18,0,.26l-1.44,2.49c-.1.17-.34.17-.44,0l-1.44-2.49c-.05-.08-.05-.18,0-.26ZM48.1,31.65l1.44-2.46c.1-.17.34-.17.44,0l1.44,2.46c.05.08.05.18,0,.26l-1.44,2.49c-.1.17-.34.17-.44,0l-1.44-2.49c-.05-.08-.05-.18,0-.26ZM50.72,36.18l1.44-2.46c.1-.17.34-.17.44,0l1.44,2.46c.05.08.05.18,0,.26l-1.44,2.49c-.1.17-.34.17-.44,0l-1.44-2.49c-.05-.08-.05-.18,0-.26ZM59.27,36.44l-1.44,2.49c-.1.17-.34.17-.44,0l-1.44-2.49c-.05-.08-.05-.18,0-.26l1.44-2.46c.1-.17.34-.17.44,0l1.44,2.46c.05.08.05.18,0,.26ZM61.88,31.91l-1.44,2.49c-.1.17-.34.17-.44,0l-1.44-2.49c-.05-.08-.05-.18,0-.26l1.44-2.46c.1-.17.34-.17.44,0l1.44,2.46c.05.08.05.18,0,.26ZM64.5,27.38l-1.44,2.49c-.1.17-.34.17-.44,0l-1.44-2.49c-.05-.08-.05-.18,0-.26l1.44-2.46c.1-.17.34-.17.44,0l1.44,2.46c.05.08.05.18,0,.26ZM67.12,22.84l-1.44,2.49c-.1.17-.34.17-.44,0l-1.44-2.49c-.05-.08-.05-.18,0-.26l1.44-2.46c.1-.17.34-.17.44,0l1.44,2.46c.05.08.05.18,0,.26ZM69.66,18.44l-1.36,2.35c-.1.17-.34.17-.44,0l-1.44-2.49c-.05-.08-.05-.18,0-.26l1.08-1.86c.67.83,1.38,1.61,2.15,2.25ZM63.81,13.52l.72-1.23c.64.8,1.29,1.69,1.96,2.59l-.8,1.38c-.1.17-.34.17-.44,0l-1.44-2.49c-.05-.08-.05-.18,0-.26ZM64.5,18.05c.05.08.05.18,0,.26l-1.44,2.49c-.1.17-.34.17-.44,0l-1.44-2.49c-.05-.08-.05-.18,0-.26l1.44-2.46c.1-.17.34-.17.44,0l1.44,2.46ZM63.44,11.07l-.38.65c-.1.17-.34.17-.44,0l-1.15-1.99c.68.22,1.33.7,1.97,1.34ZM60.45,11.06l1.44,2.46c.05.08.05.18,0,.26l-1.44,2.49c-.1.17-.34.17-.44,0l-1.44-2.49c-.05-.08-.05-.18,0-.26l1.44-2.46c.1-.17.34-.17.44,0ZM58.93,9.82l-1.1,1.91c-.1.17-.34.17-.44,0l-.68-1.18c.78-.28,1.52-.55,2.22-.73ZM53.07,13.05c.33-.6.67-1.12,1-1.6.39-.11.78-.24,1.16-.37l1.42,2.44c.05.08.05.18,0,.26l-1.44,2.49c-.1.17-.34.17-.44,0l-1.7-2.95c-.05-.08-.05-.18,0-.25ZM52.15,15.59c.1-.17.34-.17.44,0l1.44,2.46c.05.08.05.18,0,.26l-1.44,2.49c-.1.17-.34.17-.44,0l-1.44-2.49c-.05-.08-.05-.18,0-.26l1.44-2.46ZM48.1,13.52c.17-.28.58-1,.97-1.67.63.07,1.28.1,1.94.09.22.35.45.71.67,1.11.04.08.04.18,0,.25l-1.7,2.95c-.1.17-.34.17-.44,0l-1.44-2.49c-.05-.08-.05-.18,0-.26ZM47.43,11.62l-.06.11c-.1.17-.34.17-.44,0l-.14-.23c.21.04.42.08.64.12ZM42.87,13.52l1.44-2.46s.07-.08.12-.1c.1-.04.21-.02.29.07.01.01.03.02.03.03l1.44,2.46c.05.08.05.18,0,.26l-1.44,2.49c-.1.17-.34.17-.44,0l-1.44-2.49c-.05-.08-.05-.18,0-.26ZM42.41,10.69c.1-.01.21-.02.33-.02l-.61,1.05c-.1.17-.34.17-.44,0l-.4-.7c.34-.15.71-.27,1.13-.34ZM40,11.9l.94,1.62c.05.08.05.18,0,.26l-1.44,2.49c-.1.17-.34.17-.44,0l-.97-1.67c.58-.98,1.14-1.95,1.9-2.69ZM36.45,20.79l-1.44-2.49c-.03-.06-.03-.12-.02-.18.92-.52,1.6-1.25,2.17-2.06l1.16,1.99c.05.08.05.18,0,.26l-1.44,2.49c-.1.17-.34.17-.44,0ZM39.07,25.33l-1.44-2.49c-.05-.08-.05-.18,0-.26l1.44-2.46c.1-.17.34-.17.44,0l1.44,2.46c.05.08.05.18,0,.26l-1.44,2.49c-.1.17-.34.17-.44,0ZM41.68,29.86l-1.44-2.49c-.05-.08-.05-.18,0-.26l1.44-2.46c.1-.17.34-.17.44,0l1.44,2.46c.05.08.05.18,0,.26l-1.44,2.49c-.1.17-.34.17-.44,0ZM44.3,34.39l-1.44-2.49c-.05-.08-.05-.18,0-.26l1.44-2.46c.1-.17.34-.17.44,0l1.44,2.46c.05.08.05.18,0,.26l-1.44,2.49c-.1.17-.34.17-.44,0ZM46.92,38.93l-1.44-2.49c-.05-.08-.05-.18,0-.26l1.44-2.46c.1-.17.34-.17.44,0l1.44,2.46c.05.08.05.18,0,.26l-1.44,2.49c-.1.17-.34.17-.44,0ZM49.54,43.46l-1.44-2.49c-.05-.08-.05-.18,0-.26l1.44-2.46c.1-.17.34-.17.44,0l1.44,2.46c.05.08.05.18,0,.26l-1.44,2.49c-.1.17-.34.17-.44,0ZM50.72,45.51c-.05-.08-.05-.18,0-.26l1.44-2.46c.1-.17.34-.17.44,0l1.44,2.46c.05.08.05.18,0,.26l-1.44,2.49c-.1.17-.34.17-.44,0l-1.44-2.49ZM52.38,54.96h0s0,0,0,0l-19.31,33.45c-.23.4-.36.85-.37,1.31,0,.14.02.28.02.42,2.1,1.56,3.97,3.79,6.92,4.98,4.87,1.96,9.01.07,12.17-.22,2.7-.24,3.98,1.28,12.16.76,5.52-.35,5.96-3.84,8.01-6.41-.06-.29-.15-.58-.3-.84l-19.31-33.45ZM65.68,80.6l1.44,2.49c.05.08.05.18,0,.26l-1.44,2.46c-.1.17-.34.17-.44,0l-1.44-2.46c-.05-.08-.05-.18,0-.26l1.44-2.49c.1-.17.34-.17.44,0ZM42.87,83.34c-.05-.08-.05-.18,0-.26l1.44-2.49c.1-.17.34-.17.44,0l1.44,2.49c.05.08.05.18,0,.26l-1.44,2.46c-.1.17-.34.17-.44,0l-1.44-2.46ZM43.56,87.87l-1.44,2.46c-.1.17-.34.17-.44,0l-1.44-2.46c-.05-.08-.05-.18,0-.26l1.44-2.49c.1-.17.34-.17.44,0l1.44,2.49c.05.08.05.18,0,.26ZM56.65,74.27l-1.44,2.46c-.1.17-.34.17-.44,0l-1.44-2.46c-.05-.08-.05-.18,0-.26l1.44-2.49c.1-.17.34-.17.44,0l1.44,2.49c.05.08.05.18,0,.26ZM57.39,76.06c.1-.17.34-.17.44,0l1.44,2.49c.05.08.05.18,0,.26l-1.44,2.46c-.1.17-.34.17-.44,0l-1.44-2.46c-.05-.08-.05-.18,0-.26l1.44-2.49ZM54.03,69.74l-1.44,2.46c-.1.17-.34.17-.44,0l-1.44-2.46c-.05-.08-.05-.18,0-.26l1.44-2.49c.1-.17.34-.17.44,0l1.44,2.49c.05.08.05.18,0,.26ZM51.41,74.02c.05.08.05.18,0,.26l-1.44,2.46c-.1.17-.34.17-.44,0l-1.44-2.46c-.05-.08-.05-.18,0-.26l1.44-2.49c.1-.17.34-.17.44,0l1.44,2.49ZM48.8,78.55c.05.08.05.18,0,.26l-1.44,2.46c-.1.17-.34.17-.44,0l-1.44-2.46c-.05-.08-.05-.18,0-.26l1.44-2.49c.1-.17.34-.17.44,0l1.44,2.49ZM45.48,87.61l1.44-2.49c.1-.17.34-.17.44,0l1.44,2.49c.05.08.05.18,0,.26l-1.44,2.46c-.1.17-.34.17-.44,0l-1.44-2.46c-.05-.08-.05-.18,0-.26ZM48.1,83.34c-.05-.08-.05-.18,0-.26l1.44-2.49c.1-.17.34-.17.44,0l1.44,2.49c.05.08.05.18,0,.26l-1.44,2.46c-.1.17-.34.17-.44,0l-1.44-2.46ZM50.72,78.8c-.05-.08-.05-.18,0-.26l1.44-2.49c.1-.17.34-.17.44,0l1.44,2.49c.05.08.05.18,0,.26l-1.44,2.46c-.1.17-.34.17-.44,0l-1.44-2.46ZM53.34,83.08l1.44-2.49c.1-.17.34-.17.44,0l1.44,2.49c.05.08.05.18,0,.26l-1.44,2.46c-.1.17-.34.17-.44,0l-1.44-2.46c-.05-.08-.05-.18,0-.26ZM55.95,87.62l1.44-2.49c.1-.17.34-.17.44,0l1.44,2.49c.05.08.05.18,0,.26l-1.44,2.46c-.1.17-.34.17-.44,0l-1.44-2.46c-.05-.08-.05-.18,0-.26ZM58.57,83.34c-.05-.08-.05-.18,0-.26l1.44-2.49c.1-.17.34-.17.44,0l1.44,2.49c.05.08.05.18,0,.26l-1.44,2.46c-.1.17-.34.17-.44,0l-1.44-2.46ZM61.19,87.62l1.44-2.49c.1-.17.34-.17.44,0l1.44,2.49c.05.08.05.18,0,.26l-1.44,2.46c-.1.17-.34.17-.44,0l-1.44-2.46c-.05-.08-.05-.18,0-.26ZM63.07,76.06l1.44,2.49c.05.08.05.18,0,.26l-1.44,2.46c-.1.17-.34.17-.44,0l-1.44-2.46c-.05-.08-.05-.18,0-.26l1.44-2.49c.1-.17.34-.17.44,0ZM60.45,71.53l1.44,2.49c.05.08.05.18,0,.26l-1.44,2.46c-.1.17-.34.17-.44,0l-1.44-2.46c-.05-.08-.05-.18,0-.26l1.44-2.49c.1-.17.34-.17.44,0ZM57.83,67l1.44,2.49c.05.08.05.18,0,.26l-1.44,2.46c-.1.17-.34.17-.44,0l-1.44-2.46c-.05-.08-.05-.18,0-.26l1.44-2.49c.1-.17.34-.17.44,0ZM55.21,62.46l1.44,2.49c.05.08.05.18,0,.26l-1.44,2.46c-.1.17-.34.17-.44,0l-1.44-2.46c-.05-.08-.05-.18,0-.26l1.44-2.49c.1-.17.34-.17.44,0ZM50.72,60.42l1.44-2.49c.1-.17.34-.17.44,0l1.44,2.49c.05.08.05.18,0,.26l-1.44,2.46c-.1.17-.34.17-.44,0l-1.44-2.46c-.05-.08-.05-.18,0-.26ZM48.1,64.95l1.44-2.49c.1-.17.34-.17.44,0l1.44,2.49c.05.08.05.18,0,.26l-1.44,2.46c-.1.17-.34.17-.44,0l-1.44-2.46c-.05-.08-.05-.18,0-.26ZM45.48,69.48l1.44-2.49c.1-.17.34-.17.44,0l1.44,2.49c.05.08.05.18,0,.26l-1.44,2.46c-.1.17-.34.17-.44,0l-1.44-2.46c-.05-.08-.05-.18,0-.26ZM42.87,74.01l1.44-2.49c.1-.17.34-.17.44,0l1.44,2.49c.05.08.05.18,0,.26l-1.44,2.46c-.1.17-.34.17-.44,0l-1.44-2.46c-.05-.08-.05-.18,0-.26ZM40.25,78.55l1.44-2.49c.1-.17.34-.17.44,0l1.44,2.49c.05.08.05.18,0,.26l-1.44,2.46c-.1.17-.34.17-.44,0l-1.44-2.46c-.05-.08-.05-.18,0-.26ZM37.63,83.08l1.44-2.49c.1-.17.34-.17.44,0l1.44,2.49c.05.08.05.18,0,.26l-1.44,2.46c-.1.17-.34.17-.44,0l-1.44-2.46c-.05-.08-.05-.18,0-.26ZM34.31,90.71c-.01-.1-.03-.18-.04-.29-.03-.28.35-.39.48-.14l.75,1.46c-.41-.35-.81-.7-1.2-1.03ZM36.45,90.33l-1.44-2.46c-.05-.08-.05-.18,0-.26l1.44-2.49c.1-.17.34-.17.44,0l1.44,2.49c.05.08.05.18,0,.26l-1.44,2.46c-.1.17-.34.17-.44,0ZM40.94,92.4l-1.23,2.11c-.41-.17-.81-.36-1.18-.57l-.9-1.54c-.05-.08-.05-.18,0-.26l1.44-2.49c.1-.17.34-.17.44,0l1.44,2.49c.05.08.05.18,0,.26ZM41.21,95.02l.47-.82c.1-.17.34-.17.44,0l.65,1.13c-.51-.06-1.03-.16-1.57-.31ZM46.18,92.4l-1.44,2.46c-.1.17-.34.17-.44,0l-1.44-2.46c-.05-.08-.05-.18,0-.26l1.44-2.49c.1-.17.34-.17.44,0l1.44,2.49c.05.08.05.18,0,.26ZM46.28,95.3l.64-1.1c.1-.17.34-.17.44,0l.5.86c-.51.09-1.04.18-1.58.24ZM51.68,92.87c-.34.61-.68,1.14-1.02,1.63-.39.07-.79.15-1.2.23-.46-.79-1.14-1.95-1.36-2.33-.05-.08-.05-.18,0-.26l1.44-2.49c.1-.17.34-.17.44,0l1.7,2.95c.05.08.05.18,0,.25ZM52.15,90.33l-1.44-2.46c-.05-.08-.05-.18,0-.26l1.44-2.49c.1-.17.34-.17.44,0l1.44,2.49c.05.08.05.18,0,.26l-1.44,2.46c-.1.17-.34.17-.44,0ZM56.65,92.4l-1.36,2.32c-.44-.08-.84-.16-1.21-.23-.34-.49-.68-1.02-1.02-1.63-.04-.08-.04-.18,0-.25l1.7-2.95c.1-.17.34-.17.44,0l1.44,2.49c.05.08.05.18,0,.26ZM56.93,94.98l.46-.79c.1-.17.34-.17.44,0l.53.92c-.53-.04-1-.08-1.43-.14ZM61.88,92.41l-1.44,2.46c-.1.17-.34.17-.44,0l-1.44-2.46c-.05-.08-.05-.18,0-.26l1.44-2.49c.1-.17.34-.17.44,0l1.44,2.49c.05.08.05.18,0,.26ZM62.06,95.17l.56-.98c.1-.17.34-.17.44,0l.52.91c-.54.03-1.05.06-1.53.07ZM67.12,92.41l-1.39,2.38-.04.07c-.09.16-.31.16-.42.03,0,0-.02-.01-.03-.03l-1.44-2.46c-.05-.08-.05-.18,0-.26l1.44-2.49c.1-.17.34-.17.44,0l1.44,2.49c.05.08.05.18,0,.26ZM68.3,90.33c-.1.17-.34.17-.44,0l-1.44-2.46c-.05-.08-.05-.18,0-.26l1.44-2.49c.1-.17.34-.17.44,0l1.44,2.49c.05.08.05.18,0,.26l-1.44,2.46ZM70.44,90.71c-.39.66-.79,1.31-1.28,1.9l-.13-.21c-.04-.08-.05-.17,0-.25l.96-1.87c.13-.25.51-.14.48.14,0,.1-.03.19-.04.28ZM50.64,51.96L31.51,18.81c-4.46,1.02-9.85.73-11.03,2.31-2.64,3.54.18,9.06-1.5,11.78-2.44,3.94-8.95,4.89-10.33,9.72-.45,1.57,2.81,4.95,3.85,9.33h38.15ZM21.79,50.67h-2.87c-.09,0-.18-.05-.22-.13l-1.41-2.47c-.1-.17.03-.38.22-.38h2.85c.09-.01.18.04.22.11l1.44,2.49c.1.17-.02.38-.22.38ZM16.3,46.14c-.09,0-.18-.05-.22-.13l-1.41-2.47c-.1-.17.03-.38.22-.38h2.85c.09-.01.18.04.22.11l1.44,2.49c.1.17-.02.38-.22.38h-2.87ZM37.49,41.6h-2.87c-.09,0-.18-.05-.22-.13l-1.41-2.47c-.1-.17.03-.38.22-.38h2.85c.09-.01.18.04.22.11l1.44,2.49c.1.17-.02.38-.22.38ZM38.67,43.14c.09,0,.18.05.22.13l1.44,2.49c.1.17-.02.38-.22.38h-2.87c-.09,0-.18-.05-.22-.13l-1.41-2.47c-.1-.17.03-.38.22-.38h2.85ZM29.39,41.6c-.09,0-.18-.05-.22-.13l-1.41-2.47c-.1-.17.03-.38.22-.38h2.85c.09-.01.18.04.22.11l1.44,2.49c.1.17-.02.38-.22.38h-2.87ZM29.64,46.14h-2.87c-.09,0-.18-.05-.22-.13l-1.41-2.47c-.1-.17.03-.38.22-.38h2.85c.09-.01.18.04.22.11l1.44,2.49c.1.17-.02.38-.22.38ZM26.77,37.07c-.09,0-.18-.05-.22-.13l-1.41-2.47c-.1-.17.03-.38.22-.38h2.85c.09-.01.18.04.22.11l1.44,2.49c.1.17-.02.38-.22.38h-2.87ZM30.59,43.15h2.85c.09-.01.18.04.22.11l1.44,2.49c.1.17-.02.38-.22.38h-2.87c-.09,0-.18-.05-.22-.13l-1.41-2.47c-.1-.17.03-.38.22-.38ZM34.88,37.07h-2.87c-.09,0-.18-.05-.22-.13l-1.41-2.47c-.1-.17.03-.38.22-.38h2.85c.09-.01.18.04.22.11l1.44,2.49c.1.17-.02.38-.22.38ZM32.26,32.54h-2.87c-.09,0-.18-.05-.22-.13l-1.41-2.47c-.1-.17.03-.38.22-.38h2.85c.09-.01.18.04.22.11l1.44,2.49c.1.17-.02.38-.22.38ZM29.64,28h-2.87c-.09,0-.18-.05-.22-.13l-1.41-2.47c-.1-.17.03-.38.22-.38h2.85c.09-.01.18.04.22.11l1.44,2.49c.1.17-.02.38-.22.38ZM25.59,29.54c.09,0,.18.05.22.13l1.44,2.49c.1.17-.02.38-.22.38h-2.87c-.09,0-.18-.05-.22-.13l-1.41-2.47c-.1-.17.03-.38.22-.38h2.85ZM22.97,34.07c.09,0,.18.05.22.13l1.44,2.49c.1.17-.02.38-.22.38h-2.87c-.09,0-.18-.05-.22-.13l-1.41-2.47c-.1-.17.03-.38.22-.38h2.85ZM22.74,38.62h2.85c.09-.01.18.04.22.11l1.44,2.49c.1.17-.02.38-.22.38h-2.87c-.09,0-.18-.05-.22-.13l-1.41-2.47c-.1-.17.03-.38.22-.38ZM22.97,43.14c.09,0,.18.05.22.13l1.44,2.49c.1.17-.02.38-.22.38h-2.87c-.09,0-.18-.05-.22-.13l-1.41-2.47c-.1-.17.03-.38.22-.38h2.85ZM27.02,50.67h-2.87c-.09,0-.18-.05-.22-.13l-1.41-2.47c-.1-.17.03-.38.22-.38h2.85c.09-.01.18.04.22.11l1.44,2.49c.1.17-.02.38-.22.38ZM32.26,50.67h-2.87c-.09,0-.18-.05-.22-.13l-1.41-2.47c-.1-.17.03-.38.22-.38h2.85c.09-.01.18.04.22.11l1.44,2.49c.1.17-.02.38-.22.38ZM37.49,50.67h-2.87c-.09,0-.18-.05-.22-.13l-1.41-2.47c-.1-.17.03-.38.22-.38h2.85c.09-.01.18.04.22.11l1.44,2.49c.1.17-.02.38-.22.38ZM42.73,50.67h-2.87c-.09,0-.18-.05-.22-.13l-1.41-2.47c-.1-.17.03-.38.22-.38h2.85c.09-.01.18.04.22.11l1.44,2.49c.1.17-.02.38-.22.38ZM46.75,47.8l1.44,2.49c.1.17-.02.38-.22.38h-2.87c-.09,0-.18-.05-.22-.13l-1.41-2.47c-.1-.17.03-.38.22-.38h2.85c.09-.01.18.04.22.11ZM44.13,43.27l1.44,2.49c.1.17-.02.38-.22.38h-2.87c-.09,0-.18-.05-.22-.13l-1.41-2.47c-.1-.17.03-.38.22-.38h2.85c.09-.01.18.04.22.11ZM41.51,38.73l1.44,2.49c.1.17-.02.38-.22.38h-2.87c-.09,0-.18-.05-.22-.13l-1.41-2.47c-.1-.17.03-.38.22-.38h2.85c.09-.01.18.04.22.11ZM38.9,34.2l1.44,2.49c.1.17-.02.38-.22.38h-2.87c-.09,0-.18-.05-.22-.13l-1.41-2.47c-.1-.17.03-.38.22-.38h2.85c.09-.01.18.04.22.11ZM36.28,29.67l1.44,2.49c.1.17-.02.38-.22.38h-2.87c-.09,0-.18-.05-.22-.13l-1.41-2.47c-.1-.17.03-.38.22-.38h2.85c.09-.01.18.04.22.11ZM33.66,25.13l1.44,2.49c.1.17-.02.38-.22.38h-2.87c-.09,0-.18-.05-.22-.13l-1.41-2.47c-.1-.17.03-.38.22-.38h2.85c.09-.01.18.04.22.11ZM27.98,20.49h2.85c.09-.01.18.04.22.11l1.44,2.49c.1.17-.02.38-.22.38h-2.87c-.09,0-.18-.05-.22-.13l-1.41-2.47c-.1-.17.03-.38.22-.38ZM22.5,20.67c.03-.1.12-.18.24-.18h.55s2.3-.01,2.3-.01c.09,0,.18.05.22.13l1.44,2.49c.1.17-.02.38-.22.38h-2.87c-.09,0-.18-.05-.22-.13l-1.41-2.47c-.04-.07-.03-.13-.02-.2ZM20.9,21.54s.1-.09.14-.14l.97,1.68c.1.17-.02.38-.22.38h-1.79c.18-.68.46-1.33.9-1.92ZM20.12,25.02h2.85c.09-.01.18.04.22.11l1.44,2.49c.1.17-.02.38-.22.38h-2.87c-.09,0-.18-.05-.22-.13l-1.41-2.47c-.1-.17.03-.38.22-.38ZM19.95,29.54c.16,0,.31,0,.4,0,.09,0,.18.05.22.13l1.44,2.49c.1.17-.02.38-.22.38h-2.08c.29-.85.31-1.88.24-3ZM20.35,38.61c.09,0,.18.05.22.13l1.44,2.49c.1.17-.02.38-.22.38h-2.87c-.09,0-.18-.05-.22-.13l-1.41-2.47c-.1-.17.03-.38.22-.38h2.85ZM18.21,34.63l1.19,2.06c.1.17-.02.38-.22.38h-2.87c-.09,0-.18-.05-.22-.13-.06-.11-.16-.28-.28-.49.87-.56,1.7-1.15,2.4-1.82ZM12.27,38.62h.2s2.65-.01,2.65-.01c.09,0,.18.05.22.13l1.44,2.49c.1.17-.02.38-.22.38h-2.87c-.09,0-.18-.05-.22-.13l-1.41-2.47s0-.03-.01-.05c-.05-.16.06-.33.23-.33ZM10.85,40.02l.69,1.2c.1.17-.02.38-.22.38h-1.62c.31-.58.69-1.11,1.14-1.58ZM10.84,46.01l-1.41-2.47c-.1-.17.03-.38.22-.38h2.85c.09-.01.18.04.22.11l1.44,2.49c.1.17-.02.38-.22.38h-2.87c-.09,0-.18-.05-.22-.13ZM12.27,47.68h2.85c.09-.01.18.04.22.11l1.44,2.49c.1.17-.02.38-.22.38h-2.87c-.09,0-.18-.05-.22-.13l-1.41-2.47c-.1-.17.03-.38.22-.38ZM94.42,54.68s0-.09.01-.13c-.13-.08-.25-.18-.38-.25-.4-.23-.86-.34-1.32-.34h-38.62l19.32,33.45c.09.15.2.28.31.41,1.59-.43,4.46.46,6.58-.53,4.61-2.16,2.36-10.17,4.44-14.28,1.77-3.48,8.08-2.97,9.56-6,2.53-5.19-.09-9.44.11-12.33ZM93.87,56.02s.05.04.07.06c.06.43.15.88.25,1.36l-.69-1.07c-.15-.24.14-.51.36-.35ZM88.2,55.25h2.87c.09,0,.18.05.22.13l1.41,2.47c.1.17-.03.38-.22.38h-2.85c-.09.01-.18-.04-.22-.11l-1.44-2.49c-.1-.17.02-.38.22-.38ZM67.26,64.32h2.87c.09,0,.18.05.22.13l1.41,2.47c.1.17-.03.38-.22.38h-2.85c-.09.01-.18-.04-.22-.11l-1.44-2.49c-.1-.17.02-.38.22-.38ZM66.08,62.78c-.09,0-.18-.05-.22-.13l-1.44-2.49c-.1-.17.02-.38.22-.38h2.87c.09,0,.18.05.22.13l1.41,2.47c.1.17-.03.38-.22.38h-2.85ZM75.36,64.32c.09,0,.18.05.22.13l1.41,2.47c.1.17-.03.38-.22.38h-2.85c-.09.01-.18-.04-.22-.11l-1.44-2.49c-.1-.17.02-.38.22-.38h2.87ZM75.11,59.79h2.87c.09,0,.18.05.22.13l1.41,2.47c.1.17-.03.38-.22.38h-2.85c-.09.01-.18-.04-.22-.11l-1.44-2.49c-.1-.17.02-.38.22-.38ZM74.16,62.77h-2.85c-.09.01-.18-.04-.22-.11l-1.44-2.49c-.1-.17.02-.38.22-.38h2.87c.09,0,.18.05.22.13l1.41,2.47c.1.17-.03.38-.22.38ZM69.87,68.85h2.87c.09,0,.18.05.22.13l1.41,2.47c.1.17-.03.38-.22.38h-2.85c-.09.01-.18-.04-.22-.11l-1.44-2.49c-.1-.17.02-.38.22-.38ZM72.49,73.39h2.87c.09,0,.18.05.22.13l1.41,2.47c.1.17-.03.38-.22.38h-2.85c-.09.01-.18-.04-.22-.11l-1.44-2.49c-.1-.17.02-.38.22-.38ZM75.11,77.92h2.87c.09,0,.18.05.22.13l1.41,2.47c.1.17-.03.38-.22.38h-2.85c-.09.01-.18-.04-.22-.11l-1.44-2.49c-.1-.17.02-.38.22-.38ZM79.16,76.38c-.09,0-.18-.05-.22-.13l-1.44-2.49c-.1-.17.02-.38.22-.38h2.87c.09,0,.18.05.22.13l1.41,2.47c.1.17-.03.38-.22.38h-2.85ZM79.39,71.84h-2.85c-.09.01-.18-.04-.22-.11l-1.44-2.49c-.1-.17.02-.38.22-.38h2.87c.09,0,.18.05.22.13l1.41,2.47c.1.17-.03.38-.22.38ZM79.16,67.32c-.09,0-.18-.05-.22-.13l-1.44-2.49c-.1-.17.02-.38.22-.38h2.87c.09,0,.18.05.22.13l1.41,2.47c.1.17-.03.38-.22.38h-2.85ZM81.78,62.78c-.09,0-.18-.05-.22-.13l-1.44-2.49c-.1-.17.02-.38.22-.38h2.87c.09,0,.18.05.22.13l1.41,2.47c.1.17-.03.38-.22.38h-2.85ZM82.96,64.32h2.87c.09,0,.18.05.22.13l1.41,2.47c.1.17-.03.38-.22.38h-2.85c-.09.01-.18-.04-.22-.11l-1.44-2.49c-.1-.17.02-.38.22-.38ZM87.02,62.78c-.09,0-.18-.05-.22-.13l-1.44-2.49c-.1-.17.02-.38.22-.38h2.87c.09,0,.18.05.22.13l1.41,2.47c.1.17-.03.38-.22.38h-2.85ZM82.96,55.25h2.87c.09,0,.18.05.22.13l1.41,2.47c.1.17-.03.38-.22.38h-2.85c-.09.01-.18-.04-.22-.11l-1.44-2.49c-.1-.17.02-.38.22-.38ZM77.73,55.25h2.87c.09,0,.18.05.22.13l1.41,2.47c.1.17-.03.38-.22.38h-2.85c-.09.01-.18-.04-.22-.11l-1.44-2.49c-.1-.17.02-.38.22-.38ZM72.49,55.25h2.87c.09,0,.18.05.22.13l1.41,2.47c.1.17-.03.38-.22.38h-2.85c-.09.01-.18-.04-.22-.11l-1.44-2.49c-.1-.17.02-.38.22-.38ZM67.26,55.25h2.87c.09,0,.18.05.22.13l1.41,2.47c.1.17-.03.38-.22.38h-2.85c-.09.01-.18-.04-.22-.11l-1.44-2.49c-.1-.17.02-.38.22-.38ZM62.02,55.25h2.87c.09,0,.18.05.22.13l1.41,2.47c.1.17-.03.38-.22.38h-2.85c-.09.01-.18-.04-.22-.11l-1.44-2.49c-.1-.17.02-.38.22-.38ZM58,58.12l-1.44-2.49c-.1-.17.02-.38.22-.38h2.87c.09,0,.18.05.22.13l1.41,2.47c.1.17-.03.38-.22.38h-2.85c-.09.01-.18-.04-.22-.11ZM60.62,62.66l-1.44-2.49c-.1-.17.02-.38.22-.38h2.87c.09,0,.18.05.22.13l1.41,2.47c.1.17-.03.38-.22.38h-2.85c-.09.01-.18-.04-.22-.11ZM63.24,67.19l-1.44-2.49c-.1-.17.02-.38.22-.38h2.87c.09,0,.18.05.22.13l1.41,2.47c.1.17-.03.38-.22.38h-2.85c-.09.01-.18-.04-.22-.11ZM65.85,71.72l-1.44-2.49c-.1-.17.02-.38.22-.38h2.87c.09,0,.18.05.22.13l1.41,2.47c.1.17-.03.38-.22.38h-2.85c-.09.01-.18-.04-.22-.11ZM68.47,76.26l-1.44-2.49c-.1-.17.02-.38.22-.38h2.87c.09,0,.18.05.22.13l1.41,2.47c.1.17-.03.38-.22.38h-2.85c-.09.01-.18-.04-.22-.11ZM71.09,80.79l-1.44-2.49c-.1-.17.02-.38.22-.38h2.87c.09,0,.18.05.22.13l1.41,2.47c.1.17-.03.38-.22.38h-2.85c-.09.01-.18-.04-.22-.11ZM73.93,85.45c-.09,0-.18-.05-.22-.13l-1.44-2.49c-.1-.17.02-.38.22-.38h2.87c.09,0,.18.05.22.13l1.41,2.47c.1.17-.03.38-.22.38h-2.85ZM75.65,87.25c-.08-.16.02-.38.23-.37l2.1.1c.09,0,.17.05.21.13l.09.15c-.88.09-1.79.04-2.63,0ZM81.6,85.44h-2.44c-.09.01-.18-.04-.22-.12l-1.44-2.49c-.1-.17.02-.38.22-.38h2.87c.09,0,.18.05.22.13l1.22,2.14c-.13.25-.28.49-.44.72ZM82.72,82.77c-.02-.08,0-.16.05-.22-.02.08-.04.15-.05.22ZM83.02,80.91h-1.24c-.09,0-.18-.04-.22-.12l-1.44-2.49c-.1-.17.02-.38.22-.38h2.87s.04.01.05.01c-.07,1-.14,2-.25,2.98ZM83.57,75.22l-.83-1.44c-.1-.17.02-.38.22-.38h1.09c-.21.56-.37,1.18-.48,1.83ZM84.63,71.84h-2.85c-.09.01-.18-.04-.22-.11l-1.44-2.49c-.1-.17.02-.38.22-.38h2.87c.09,0,.18.05.22.13l1.41,2.47c.1.17-.03.38-.22.38ZM86.27,70.83l-.92-1.59c-.1-.17.02-.38.22-.38h2.87c.09,0,.18.05.22.13l.38.67c-.97.34-1.94.69-2.78,1.17ZM90.56,69.12c0-.14.1-.26.25-.26h.4c-.21.09-.43.18-.65.26ZM92.48,67.3h-2.85c-.09.01-.18-.04-.22-.11l-1.44-2.49c-.1-.17.02-.38.22-.38h2.87c.09,0,.18.05.22.13l1.41,2.47c.1.17-.03.38-.22.38ZM94.04,66.15l-.83-1.45c-.1-.17.02-.38.22-.38h1.18c-.13.59-.31,1.2-.57,1.83ZM94.83,61.54c.02.4.01.82-.02,1.24h-2.57c-.09.01-.18-.04-.22-.12l-1.44-2.49c-.1-.17.02-.38.22-.38h2.87c.09,0,.18.05.22.13l.93,1.62ZM12.78,53.96c.33,5.32-2.43,11.48-.97,11.83,7.43,1.82,6.61,9.41,8.94,16.44,1.52,4.56,5.49,5,9.15,6.39.16-.08.32-.15.47-.24.4-.23.72-.57.95-.97l19.31-33.45H12.78ZM38.22,57.85l1.41-2.47c.05-.08.13-.13.22-.13h2.87c.2,0,.32.21.22.38l-1.44,2.49c-.05.08-.13.13-.22.13h-2.85c-.2-.01-.32-.23-.22-.4ZM17.28,66.92l1.41-2.47c.05-.08.13-.13.22-.13h2.87c.2,0,.32.21.22.38l-1.44,2.49c-.05.08-.13.13-.22.13h-2.85c-.2-.01-.32-.23-.22-.4ZM14.89,62.77c-.2,0-.32-.21-.22-.38l1.41-2.47c.05-.08.13-.13.22-.13h2.87c.2,0,.32.21.22.38l-1.44,2.49c-.05.08-.13.13-.22.13h-2.85ZM32.26,64.32c.2,0,.32.21.22.38l-1.44,2.49c-.05.08-.13.13-.22.13h-2.85c-.2-.01-.32-.23-.22-.4l1.41-2.47c.05-.08.13-.13.22-.13h2.87ZM30.37,62.39l1.41-2.47c.05-.08.13-.13.22-.13h2.87c.2,0,.32.21.22.38l-1.44,2.49c-.05.08-.13.13-.22.13h-2.85c-.2-.01-.32-.23-.22-.4ZM29.86,69.24l-1.44,2.49c-.05.08-.13.13-.22.13h-2.85c-.2-.01-.32-.23-.22-.4l1.41-2.47c.05-.08.13-.13.22-.13h2.87c.2,0,.32.21.22.38ZM29.86,60.17l-1.44,2.49c-.05.08-.13.13-.22.13h-2.85c-.2-.01-.32-.23-.22-.4l1.41-2.47c.05-.08.13-.13.22-.13h2.87c.2,0,.32.21.22.38ZM27.02,64.32c.2,0,.32.21.22.38l-1.44,2.49c-.05.08-.13.13-.22.13h-2.85c-.2-.01-.32-.23-.22-.4l1.41-2.47c.05-.08.13-.13.22-.13h2.87ZM24.63,60.17l-1.44,2.49c-.05.08-.13.13-.22.13h-2.85c-.2-.01-.32-.23-.22-.4l1.41-2.47c.05-.08.13-.13.22-.13h2.87c.2,0,.32.21.22.38ZM19.9,71.46l1.41-2.47c.05-.08.13-.13.22-.13h2.87c.2,0,.32.21.22.38l-1.44,2.49c-.05.08-.13.13-.22.13h-2.85c-.2-.01-.32-.23-.22-.4ZM22.52,75.99l1.41-2.47c.05-.08.13-.13.22-.13h2.87c.2,0,.32.21.22.38l-1.44,2.49c-.05.08-.13.13-.22.13h-2.85c-.2-.01-.32-.23-.22-.4ZM25.14,80.52l1.41-2.47c.05-.08.13-.13.22-.13h2.87c.2,0,.32.21.22.38l-1.44,2.49c-.05.08-.13.13-.22.13h-2.85c-.2-.01-.32-.23-.22-.4ZM27.97,76.37c-.2,0-.32-.21-.22-.38l1.41-2.47c.05-.08.13-.13.22-.13h2.87c.2,0,.32.21.22.38l-1.44,2.49c-.05.08-.13.13-.22.13h-2.85ZM30.59,71.84c-.2,0-.32-.21-.22-.38l1.41-2.47c.05-.08.13-.13.22-.13h2.87c.2,0,.32.21.22.38l-1.44,2.49c-.05.08-.13.13-.22.13h-2.85ZM33.21,67.3c-.2,0-.32-.21-.22-.38l1.41-2.47c.05-.08.13-.13.22-.13h2.87c.2,0,.32.21.22.38l-1.44,2.49c-.05.08-.13.13-.22.13h-2.85ZM35.83,62.77c-.2,0-.32-.21-.22-.38l1.41-2.47c.05-.08.13-.13.22-.13h2.87c.2,0,.32.21.22.38l-1.44,2.49c-.05.08-.13.13-.22.13h-2.85ZM32.99,57.85l1.41-2.47c.05-.08.13-.13.22-.13h2.87c.2,0,.32.21.22.38l-1.44,2.49c-.05.08-.13.13-.22.13h-2.85c-.2-.01-.32-.23-.22-.4ZM27.75,57.85l1.41-2.47c.05-.08.13-.13.22-.13h2.87c.2,0,.32.21.22.38l-1.44,2.49c-.05.08-.13.13-.22.13h-2.85c-.2-.01-.32-.23-.22-.4ZM22.52,57.85l1.41-2.47c.05-.08.13-.13.22-.13h2.87c.2,0,.32.21.22.38l-1.44,2.49c-.05.08-.13.13-.22.13h-2.85c-.2-.01-.32-.23-.22-.4ZM17.28,57.85l1.41-2.47c.05-.08.13-.13.22-.13h2.87c.2,0,.32.21.22.38l-1.44,2.49c-.05.08-.13.13-.22.13h-2.85c-.2-.01-.32-.23-.22-.4ZM13.33,55.62l.14-.24c.05-.08.13-.13.22-.13h2.87c.2,0,.32.21.22.38l-1.44,2.49c-.05.08-.13.13-.22.13h-2.07c.13-.87.23-1.75.27-2.63ZM12.5,62.78h-.32c.17-.87.39-1.89.61-3h1.15c.2,0,.32.21.22.38l-1.44,2.49c-.05.08-.13.13-.22.13ZM16.78,64.7l-1.34,2.32c-.74-.54-1.64-.98-2.71-1.28l.73-1.29c.05-.08.13-.13.22-.13h2.87c.2,0,.32.21.22.38ZM17.23,68.85h1.95c.2,0,.32.21.22.38l-1.04,1.8c-.31-.78-.68-1.52-1.13-2.18ZM20.35,76.38c-.12,0-.32,0-.55,0-.22-1.03-.44-2.03-.69-2.99h2.68c.2,0,.32.21.22.38l-1.44,2.49c-.05.08-.13.13-.22.13ZM22.01,82.84l-.22.39c-.13-.24-.26-.5-.37-.77h.37c.2,0,.32.21.22.38ZM20.89,80.91c-.14-.48-.27-.96-.39-1.43l.81-1.42c.05-.08.13-.13.22-.13h2.87c.2,0,.32.21.22.38l-1.44,2.49c-.05.08-.13.13-.22.13h-2.08ZM25.59,85.45h-1.85c-.34-.26-.66-.54-.96-.85l1.15-2.01c.05-.08.13-.13.22-.13h2.87c.2,0,.32.21.22.38l-1.44,2.49c-.05.08-.13.13-.22.13ZM28.98,87.37c-.16.07-.31.13-.46.19-.58-.19-1.15-.38-1.71-.58l2.06-.1c.28-.01.37.37.12.49ZM32.48,82.84l-1.44,2.49c-.05.08-.13.13-.22.13h-2.85c-.2-.01-.32-.23-.22-.4l1.41-2.47c.05-.08.13-.13.22-.13h2.87c.2,0,.32.21.22.38ZM35.1,78.3l-1.44,2.49c-.05.08-.13.13-.22.13h-2.85c-.2-.01-.32-.23-.22-.4l1.41-2.47c.05-.08.13-.13.22-.13h2.87c.2,0,.32.21.22.38ZM37.71,73.77l-1.44,2.49c-.05.08-.13.13-.22.13h-2.85c-.2-.01-.32-.23-.22-.4l1.41-2.47c.05-.08.13-.13.22-.13h2.87c.2,0,.32.21.22.38ZM40.33,69.24l-1.44,2.49c-.05.08-.13.13-.22.13h-2.85c-.2-.01-.32-.23-.22-.4l1.41-2.47c.05-.08.13-.13.22-.13h2.87c.2,0,.32.21.22.38ZM42.95,64.7l-1.44,2.49c-.05.08-.13.13-.22.13h-2.85c-.2-.01-.32-.23-.22-.4l1.41-2.47c.05-.08.13-.13.22-.13h2.87c.2,0,.32.21.22.38ZM45.57,60.17l-1.44,2.49c-.05.08-.13.13-.22.13h-2.85c-.2-.01-.32-.23-.22-.4l1.41-2.47c.05-.08.13-.13.22-.13h2.87c.2,0,.32.21.22.38ZM46.75,58.12c-.05.08-.13.13-.22.13h-2.85c-.2-.01-.32-.23-.22-.4l1.41-2.47c.05-.08.13-.13.22-.13h2.87c.2,0,.32.21.22.38l-1.44,2.49ZM92.74,51.96c.46,0,.92-.11,1.32-.34.37-.21.73-.45,1.07-.7.69-2.46,1.55-4.81,1.18-8.79-.33-3.56-5.34-5.33-7.11-8.67-1.77-3.34-.31-8.25-3.06-11-3.88-3.88-9.16-1.87-13.3-2.94l-18.73,32.44h38.63ZM66.53,48.07l-1.41,2.47c-.05.08-.13.13-.22.13h-2.87c-.2,0-.32-.21-.22-.38l1.44-2.49c.05-.08.13-.13.22-.13h2.85c.2.01.32.23.22.4ZM82.01,29.55c.2,0,.32.21.22.38l-1.41,2.47c-.05.08-.13.13-.22.13h-2.87c-.2,0-.32-.21-.22-.38l1.44-2.49c.05-.08.13-.13.22-.13h2.85ZM80.12,27.62l1.44-2.49c.05-.08.13-.13.22-.13h2.85c.2.01.32.23.22.4l-1.41,2.47c-.05.08-.13.13-.22.13h-2.87c-.2,0-.32-.21-.22-.38ZM87.47,39l-1.41,2.47c-.05.08-.13.13-.22.13h-2.87c-.2,0-.32-.21-.22-.38l1.44-2.49c.05-.08.13-.13.22-.13h2.85c.2.01.32.23.22.4ZM89.86,43.15c.2,0,.32.21.22.38l-1.41,2.47c-.05.08-.13.13-.22.13h-2.87c-.2,0-.32-.21-.22-.38l1.44-2.49c.05-.08.13-.13.22-.13h2.85ZM72.49,41.6c-.2,0-.32-.21-.22-.38l1.44-2.49c.05-.08.13-.13.22-.13h2.85c.2.01.32.23.22.4l-1.41,2.47c-.05.08-.13.13-.22.13h-2.87ZM74.38,43.53l-1.41,2.47c-.05.08-.13.13-.22.13h-2.87c-.2,0-.32-.21-.22-.38l1.44-2.49c.05-.08.13-.13.22-.13h2.85c.2.01.32.23.22.4ZM74.89,36.69l1.44-2.49c.05-.08.13-.13.22-.13h2.85c.2.01.32.23.22.4l-1.41,2.47c-.05.08-.13.13-.22.13h-2.87c-.2,0-.32-.21-.22-.38ZM74.89,45.75l1.44-2.49c.05-.08.13-.13.22-.13h2.85c.2.01.32.23.22.4l-1.41,2.47c-.05.08-.13.13-.22.13h-2.87c-.2,0-.32-.21-.22-.38ZM77.73,41.6c-.2,0-.32-.21-.22-.38l1.44-2.49c.05-.08.13-.13.22-.13h2.85c.2.01.32.23.22.4l-1.41,2.47c-.05.08-.13.13-.22.13h-2.87ZM80.12,45.75l1.44-2.49c.05-.08.13-.13.22-.13h2.85c.2.01.32.23.22.4l-1.41,2.47c-.05.08-.13.13-.22.13h-2.87c-.2,0-.32-.21-.22-.38ZM84.85,34.47l-1.41,2.47c-.05.08-.13.13-.22.13h-2.87c-.2,0-.32-.21-.22-.38l1.44-2.49c.05-.08.13-.13.22-.13h2.85c.2.01.32.23.22.4ZM79.61,25.4l-1.41,2.47c-.05.08-.13.13-.22.13h-2.87c-.2,0-.32-.21-.22-.38l1.44-2.49c.05-.08.13-.13.22-.13h2.85c.2.01.32.23.22.4ZM76.78,29.55c.2,0,.32.21.22.38l-1.41,2.47c-.05.08-.13.13-.22.13h-2.87c-.2,0-.32-.21-.22-.38l1.44-2.49c.05-.08.13-.13.22-.13h2.85ZM74.16,34.08c.2,0,.32.21.22.38l-1.41,2.47c-.05.08-.13.13-.22.13h-2.87c-.2,0-.32-.21-.22-.38l1.44-2.49c.05-.08.13-.13.22-.13h2.85ZM71.54,38.62c.2,0,.32.21.22.38l-1.41,2.47c-.05.08-.13.13-.22.13h-2.87c-.2,0-.32-.21-.22-.38l1.44-2.49c.05-.08.13-.13.22-.13h2.85ZM68.92,43.15c.2,0,.32.21.22.38l-1.41,2.47c-.05.08-.13.13-.22.13h-2.87c-.2,0-.32-.21-.22-.38l1.44-2.49c.05-.08.13-.13.22-.13h2.85ZM71.76,48.07l-1.41,2.47c-.05.08-.13.13-.22.13h-2.87c-.2,0-.32-.21-.22-.38l1.44-2.49c.05-.08.13-.13.22-.13h2.85c.2.01.32.23.22.4ZM77,48.07l-1.41,2.47c-.05.08-.13.13-.22.13h-2.87c-.2,0-.32-.21-.22-.38l1.44-2.49c.05-.08.13-.13.22-.13h2.85c.2.01.32.23.22.4ZM82.23,48.07l-1.41,2.47c-.05.08-.13.13-.22.13h-2.87c-.2,0-.32-.21-.22-.38l1.44-2.49c.05-.08.13-.13.22-.13h2.85c.2.01.32.23.22.4ZM87.47,48.07l-1.41,2.47c-.05.08-.13.13-.22.13h-2.87c-.2,0-.32-.21-.22-.38l1.44-2.49c.05-.08.13-.13.22-.13h2.85c.2.01.32.23.22.4ZM92.7,48.07l-1.41,2.47c-.05.08-.13.13-.22.13h-2.87c-.2,0-.32-.21-.22-.38l1.44-2.49c.05-.08.13-.13.22-.13h2.85c.2.01.32.23.22.4ZM90.81,46.14c-.2,0-.32-.21-.22-.38l1.44-2.49c.05-.08.13-.13.22-.13h2.85c.2.01.32.23.22.4l-1.41,2.47c-.05.08-.13.13-.22.13h-2.87ZM95.18,48.75c-.31.35-.74.75-1.31,1.16-.23.16-.52-.11-.36-.35l1.14-1.77c.05-.07.13-.12.22-.12h.58c-.08.37-.17.73-.26,1.07ZM93.21,41.22l1.07-1.86c.62.68,1.1,1.41,1.32,2.24h-2.17c-.2,0-.32-.21-.22-.38ZM92.7,39l-1.41,2.47c-.05.08-.13.13-.22.13h-2.87c-.2,0-.32-.21-.22-.38l1.44-2.49c.05-.08.13-.13.22-.13h2.85c.2.01.32.23.22.4ZM90.59,36.69l.25-.43c.3.27.61.54.92.81h-.95c-.2,0-.32-.21-.22-.38ZM88.71,33.71c.27.5.61.97,1,1.41l-1.04,1.82c-.05.08-.13.13-.22.13h-2.87c-.2,0-.32-.21-.22-.38l1.7-2.95c.05-.08.13-.13.22-.13.49,0,.95,0,1.39.03.01.03.02.06.04.08ZM87.71,29.57c.13.05.21.19.15.33-.03.07-.07.14-.09.21-.3.72-.68,1.48-1.17,2.3-.05.08-.13.13-.22.13h-3.41c-.2,0-.32-.21-.22-.38l1.44-2.49c.05-.08.13-.13.22-.13h3.22s.06.03.08.04ZM86.79,25.13c.04-.07.11-.11.19-.12.32.93.47,1.95.57,2.99h-1.98c-.2,0-.32-.21-.22-.38l1.44-2.49ZM82.74,23.09l.96-1.67c.69.35,1.36.81,1.99,1.44.14.14.26.29.38.44l-.02.04c-.05.08-.13.13-.22.13h-2.87c-.2,0-.32-.21-.22-.38ZM77.51,23.08l1.44-2.49c.05-.08.13-.13.22-.13h1.28s1.57.01,1.57.01c.18,0,.29.18.23.35,0,.01,0,.02,0,.04l-1.41,2.47c-.05.08-.13.13-.22.13h-2.87c-.2,0-.32-.21-.22-.38ZM72.27,23.08l1.44-2.49c.05-.08.13-.13.22-.13h2.85c.2.01.32.23.22.4l-1.41,2.47c-.05.08-.13.13-.22.13h-2.87c-.2,0-.32-.21-.22-.38ZM69.65,27.62l1.44-2.49c.05-.08.13-.13.22-.13h2.85c.2.01.32.23.22.4l-1.41,2.47c-.05.08-.13.13-.22.13h-2.87c-.2,0-.32-.21-.22-.38ZM67.04,32.15l1.44-2.49c.05-.08.13-.13.22-.13h2.85c.2.01.32.23.22.4l-1.41,2.47c-.05.08-.13.13-.22.13h-2.87c-.2,0-.32-.21-.22-.38ZM64.42,36.69l1.44-2.49c.05-.08.13-.13.22-.13h2.85c.2.01.32.23.22.4l-1.41,2.47c-.05.08-.13.13-.22.13h-2.87c-.2,0-.32-.21-.22-.38ZM61.8,41.22l1.44-2.49c.05-.08.13-.13.22-.13h2.85c.2.01.32.23.22.4l-1.41,2.47c-.05.08-.13.13-.22.13h-2.87c-.2,0-.32-.21-.22-.38ZM59.18,45.75l1.44-2.49c.05-.08.13-.13.22-.13h2.85c.2.01.32.23.22.4l-1.41,2.47c-.05.08-.13.13-.22.13h-2.87c-.2,0-.32-.21-.22-.38ZM58,47.8c.05-.08.13-.13.22-.13h2.85c.2.01.32.23.22.4l-1.41,2.47c-.05.08-.13.13-.22.13h-2.87c-.2,0-.32-.21-.22-.38l1.44-2.49Z"/>
</svg>