<?xml version="1.0" encoding="UTF-8"?>
<svg id="Layer_1" data-name="Layer 1" xmlns="http://www.w3.org/2000/svg" xmlns:xlink="http://www.w3.org/1999/xlink" viewBox="0 0 100 100">
  <defs>
    <style>
      .cls-1 {
        fill: url(#linear-gradient-6);
      }

      .cls-1, .cls-2, .cls-3, .cls-4, .cls-5, .cls-6 {
        stroke-width: .26px;
      }

      .cls-1, .cls-2, .cls-3, .cls-4, .cls-5, .cls-6, .cls-7 {
        stroke: #4a2700;
        stroke-linecap: round;
        stroke-linejoin: round;
      }

      .cls-8 {
        fill: #4a2700;
      }

      .cls-8, .cls-9, .cls-10 {
        stroke-width: 0px;
      }

      .cls-11, .cls-7 {
        opacity: .04;
      }

      .cls-2 {
        fill: url(#linear-gradient-5);
      }

      .cls-12 {
        opacity: .08;
      }

      .cls-9, .cls-7 {
        fill: none;
      }

      .cls-3 {
        fill: url(#linear-gradient-4);
      }

      .cls-4 {
        fill: url(#linear-gradient);
      }

      .cls-13 {
        clip-path: url(#clippath);
      }

      .cls-5 {
        fill: url(#linear-gradient-2);
      }

      .cls-6 {
        fill: url(#linear-gradient-3);
      }

      .cls-7 {
        stroke-width: .26px;
      }

      .cls-10 {
        fill: #ffe197;
      }
    </style>
    <clipPath id="clippath">
      <path class="cls-9" d="M6.85,39.8c1.36-4.77,7.79-5.71,10.2-9.59,1.66-2.68-1.12-8.13,1.48-11.62,1.45-1.94,9.34-1.03,13.87-3.29,3.63-1.81,3.6-6.95,7.64-7.56,1.39-.21,5.31,1.56,9.42,1.21,3.47-.29,7.07-2.79,9.42-2.24,3.3.77,5.78,7.79,10,9.83s10.2-.88,14.45,3.37c2.71,2.71,1.27,7.56,3.01,10.85s6.69,5.04,7.02,8.55c.54,5.79-1.56,8.07-1.86,12.39-.2,2.86,2.39,7.05-.11,12.17-1.46,2.99-7.68,2.49-9.43,5.92-2.06,4.05.17,11.96-4.39,14.09-2.41,1.13-5.82-.23-7.13.82-3.1,2.5-2.69,7.03-8.99,7.44-8.07.52-9.33-.99-12-.75-3.12.28-7.21,2.15-12.01.22-3.74-1.5-5.7-4.71-8.66-6.03-3.84-1.71-8.35-1.79-9.98-6.69-2.31-6.94-1.5-14.42-8.83-16.23-1.48-.36,1.47-6.81.93-12.16-.5-5.05-4.55-8.98-4.06-10.7Z"/>
    </clipPath>
    <linearGradient id="linear-gradient" x1="-28.04" y1="68.94" x2="-27.91" y2="68.94" gradientUnits="userSpaceOnUse">
      <stop offset="0" stop-color="#945a14"/>
      <stop offset="1" stop-color="#965a18"/>
    </linearGradient>
    <linearGradient id="linear-gradient-2" x1="-28.04" y1="74.72" x2="-27.91" y2="74.72" gradientUnits="userSpaceOnUse">
      <stop offset="0" stop-color="#945a14"/>
      <stop offset="1" stop-color="#965a18"/>
    </linearGradient>
    <linearGradient id="linear-gradient-3" x1="-28.04" y1="68.94" x2="-27.91" y2="68.94" xlink:href="#linear-gradient-2"/>
    <linearGradient id="linear-gradient-4" x1="-28.04" y1="31.06" x2="-27.91" y2="31.06" xlink:href="#linear-gradient-2"/>
    <linearGradient id="linear-gradient-5" y1="25.28" y2="25.28" xlink:href="#linear-gradient-2"/>
    <linearGradient id="linear-gradient-6" x1="-28.04" y1="31.06" x2="-27.91" y2="31.06" xlink:href="#linear-gradient-2"/>
  </defs>
  <g>
    <path class="cls-10" d="M6.27,39.67c1.38-4.83,7.9-5.79,10.33-9.72,1.68-2.72-1.14-8.24,1.5-11.78,1.47-1.97,9.46-1.04,14.06-3.33,3.68-1.83,3.64-7.04,7.74-7.67,1.41-.21,5.38,1.58,9.54,1.22,3.51-.3,7.17-2.83,9.54-2.27,3.34.78,5.85,7.89,10.14,9.97s10.34-.89,14.65,3.42c2.75,2.75,1.28,7.66,3.06,11s6.78,5.11,7.11,8.67c.55,5.87-1.58,8.18-1.89,12.56-.2,2.9,2.42,7.14-.11,12.33-1.48,3.03-7.79,2.52-9.56,6-2.09,4.11.17,12.12-4.44,14.28-2.44,1.14-5.9-.23-7.22.83-3.14,2.53-2.73,7.13-9.11,7.54-8.18.53-9.46-1-12.16-.76-3.17.29-7.31,2.18-12.17.22-3.79-1.52-5.77-4.77-8.78-6.11-3.9-1.74-8.46-1.81-10.11-6.78-2.34-7.03-1.52-14.62-8.94-16.44-1.5-.37,1.49-6.9.94-12.33-.51-5.12-4.61-9.1-4.11-10.84Z"/>
    <g class="cls-12">
      <path class="cls-8" d="M58.25,6.54c.22,0,.43.02.62.07,1.5.35,2.92,2.28,4.44,4.32,1.65,2.22,3.35,4.52,5.6,5.61,1.86.9,4.03.9,6.13.91,2.94,0,5.99.01,8.38,2.41,1.43,1.43,1.62,3.54,1.83,5.76.16,1.76.33,3.58,1.14,5.12.8,1.52,2.2,2.7,3.56,3.84,1.71,1.44,3.33,2.81,3.5,4.64.32,3.45-.31,5.66-.93,7.8-.41,1.42-.83,2.89-.96,4.67-.07,1,.17,2.14.43,3.34.54,2.55,1.15,5.44-.49,8.81-.62,1.28-2.36,1.88-4.19,2.51-2.14.74-4.36,1.51-5.36,3.48-.86,1.68-1.02,3.96-1.18,6.17-.25,3.44-.48,6.69-3.03,7.88-.64.3-1.44.44-2.52.44-.46,0-.93-.02-1.38-.05-.43-.02-.85-.04-1.24-.04-.74,0-1.59.06-2.18.55-1.14.92-1.83,2.07-2.5,3.19-1.23,2.05-2.38,3.99-6.33,4.24-1.13.07-2.2.11-3.18.11-2.95,0-4.62-.33-5.96-.59-.85-.17-1.58-.31-2.39-.31-.21,0-.41,0-.63.03-.85.08-1.76.26-2.72.46-1.44.3-3.08.63-4.8.63-1.57,0-3.01-.27-4.42-.84-1.97-.79-3.44-2.08-4.87-3.32-1.26-1.1-2.44-2.13-3.89-2.78-.97-.43-1.98-.76-2.96-1.08-2.94-.96-5.71-1.87-6.88-5.39-.59-1.78-.98-3.6-1.35-5.37-1.09-5.13-2.12-9.97-7.92-11.39-.25-.31.15-2.21.43-3.6.51-2.44,1.14-5.48.86-8.31-.3-2.96-1.71-5.49-2.85-7.51-.74-1.32-1.44-2.57-1.28-3.14.72-2.53,2.96-3.92,5.34-5.4,1.87-1.17,3.81-2.37,4.94-4.2.84-1.35.68-3.22.52-5.19-.19-2.33-.39-4.74.96-6.55.61-.81,3-1.07,5.53-1.35,2.8-.31,5.98-.65,8.35-1.84,1.81-.9,2.75-2.5,3.66-4.04,1.04-1.76,1.93-3.27,3.93-3.58.06,0,.12-.01.19-.01.51,0,1.34.2,2.3.42,1.63.38,3.66.86,5.86.86.4,0,.79-.02,1.17-.05,1.66-.14,3.3-.74,4.88-1.32,1.45-.53,2.81-1.03,3.89-1.03M58.25,6.04c-2.36,0-5.64,2.08-8.81,2.35-.38.03-.75.05-1.12.05-3.51,0-6.71-1.29-8.16-1.29-.1,0-.18,0-.26.02-4.1.62-4.06,5.83-7.74,7.67-4.59,2.29-12.59,1.37-14.06,3.33-2.64,3.54.18,9.06-1.5,11.78-2.44,3.94-8.95,4.89-10.33,9.72-.5,1.74,3.6,5.72,4.11,10.84.54,5.43-2.45,11.96-.94,12.33,7.43,1.82,6.61,9.41,8.94,16.44,1.65,4.97,6.22,5.04,10.11,6.78,3,1.34,4.99,4.59,8.78,6.11,1.62.65,3.16.88,4.6.88,2.91,0,5.45-.91,7.57-1.1.2-.02.4-.03.59-.03,1.97,0,3.45.9,8.36.9.94,0,2-.03,3.21-.11,6.38-.41,5.97-5,9.11-7.54.43-.35,1.09-.44,1.87-.44.79,0,1.7.09,2.62.09s1.9-.1,2.74-.49c4.61-2.16,2.36-10.17,4.44-14.28,1.77-3.48,8.08-2.97,9.56-6,2.53-5.19-.09-9.44.11-12.33.3-4.38,2.44-6.69,1.89-12.56-.33-3.56-5.34-5.33-7.11-8.67-1.77-3.34-.31-8.25-3.06-11-4.31-4.31-10.36-1.34-14.65-3.42s-6.8-9.19-10.14-9.97c-.23-.05-.48-.08-.73-.08h0Z"/>
    </g>
  </g>
  <g class="cls-13">
    <g class="cls-11">
      <path class="cls-4" d="M17.34,85.45c3.43,1.98,7.5,1.84,10.66-.02.4-.23.72-.57.95-.98l19.31-33.45H9.65c-.46,0-.92.11-1.32.34-3.19,1.81-5.36,5.26-5.36,9.23,0,5.83,4.67,10.56,10.44,10.56-2.88,4.99-1.12,11.4,3.93,14.32Z"/>
      <path class="cls-5" d="M50,52h0s0,0,0,0l-19.31,33.45c-.23.4-.36.85-.37,1.31-.03,3.67,1.88,7.27,5.31,9.25,5.05,2.92,11.48,1.24,14.37-3.76,2.88,4.99,9.31,6.67,14.37,3.76,3.43-1.98,5.35-5.58,5.31-9.25,0-.46-.14-.91-.37-1.31l-19.31-33.45Z"/>
      <path class="cls-6" d="M90.35,51h-38.62l19.32,33.45c.23.4.56.74.95.98,3.16,1.86,7.23,2,10.66.02,5.05-2.92,6.81-9.33,3.93-14.32,5.76,0,10.44-4.73,10.44-10.56,0-3.97-2.16-7.42-5.36-9.23-.4-.23-.86-.34-1.32-.34Z"/>
      <path class="cls-3" d="M82.66,14.55c-3.43-1.98-7.51-1.84-10.67.02-.4.23-.72.57-.95.97l-19.31,33.45h38.63c.46,0,.92-.11,1.32-.34,3.19-1.81,5.35-5.26,5.35-9.22,0-5.83-4.67-10.56-10.44-10.56,2.88-4.99,1.12-11.4-3.93-14.32Z"/>
      <path class="cls-2" d="M50,48h0s0,0,0,0l19.31-33.45c.23-.4.36-.85.37-1.31.03-3.67-1.88-7.26-5.31-9.25-5.05-2.92-11.48-1.24-14.37,3.76-2.88-4.99-9.31-6.67-14.37-3.76-3.43,1.98-5.34,5.58-5.31,9.25,0,.46.14.91.37,1.31l19.31,33.45Z"/>
      <path class="cls-1" d="M9.64,49h38.63L28.96,15.55c-.23-.4-.56-.74-.95-.97-3.16-1.86-7.23-2.01-10.67-.02-5.05,2.92-6.81,9.33-3.93,14.32-5.76,0-10.44,4.73-10.44,10.56,0,3.96,2.16,7.42,5.35,9.22.4.23.86.34,1.32.34Z"/>
    </g>
    <g>
      <g>
        <path class="cls-10" d="M49.78,45.03l-1.44-2.49c-.05-.08-.05-.18,0-.26l1.44-2.46c.1-.17.34-.17.44,0l1.44,2.46c.05.08.05.18,0,.26l-1.44,2.49c-.1.17-.34.17-.44,0Z"/>
        <path class="cls-7" d="M49.78,45.03l-1.44-2.49c-.05-.08-.05-.18,0-.26l1.44-2.46c.1-.17.34-.17.44,0l1.44,2.46c.05.08.05.18,0,.26l-1.44,2.49c-.1.17-.34.17-.44,0Z"/>
      </g>
      <g>
        <path class="cls-10" d="M47.16,40.5l-1.44-2.49c-.05-.08-.05-.18,0-.26l1.44-2.46c.1-.17.34-.17.44,0l1.44,2.46c.05.08.05.18,0,.26l-1.44,2.49c-.1.17-.34.17-.44,0Z"/>
        <path class="cls-7" d="M47.16,40.5l-1.44-2.49c-.05-.08-.05-.18,0-.26l1.44-2.46c.1-.17.34-.17.44,0l1.44,2.46c.05.08.05.18,0,.26l-1.44,2.49c-.1.17-.34.17-.44,0Z"/>
      </g>
      <g>
        <path class="cls-10" d="M44.54,35.96l-1.44-2.49c-.05-.08-.05-.18,0-.26l1.44-2.46c.1-.17.34-.17.44,0l1.44,2.46c.05.08.05.18,0,.26l-1.44,2.49c-.1.17-.34.17-.44,0Z"/>
        <path class="cls-7" d="M44.54,35.96l-1.44-2.49c-.05-.08-.05-.18,0-.26l1.44-2.46c.1-.17.34-.17.44,0l1.44,2.46c.05.08.05.18,0,.26l-1.44,2.49c-.1.17-.34.17-.44,0Z"/>
      </g>
      <g>
        <path class="cls-10" d="M41.93,31.43l-1.44-2.49c-.05-.08-.05-.18,0-.26l1.44-2.46c.1-.17.34-.17.44,0l1.44,2.46c.05.08.05.18,0,.26l-1.44,2.49c-.1.17-.34.17-.44,0Z"/>
        <path class="cls-7" d="M41.93,31.43l-1.44-2.49c-.05-.08-.05-.18,0-.26l1.44-2.46c.1-.17.34-.17.44,0l1.44,2.46c.05.08.05.18,0,.26l-1.44,2.49c-.1.17-.34.17-.44,0Z"/>
      </g>
      <g>
        <path class="cls-10" d="M39.31,26.9l-1.44-2.49c-.05-.08-.05-.18,0-.26l1.44-2.46c.1-.17.34-.17.44,0l1.44,2.46c.05.08.05.18,0,.26l-1.44,2.49c-.1.17-.34.17-.44,0Z"/>
        <path class="cls-7" d="M39.31,26.9l-1.44-2.49c-.05-.08-.05-.18,0-.26l1.44-2.46c.1-.17.34-.17.44,0l1.44,2.46c.05.08.05.18,0,.26l-1.44,2.49c-.1.17-.34.17-.44,0Z"/>
      </g>
      <g>
        <path class="cls-10" d="M36.69,22.36l-1.44-2.49c-.05-.08-.05-.18,0-.26l1.44-2.46c.1-.17.34-.17.44,0l1.44,2.46c.05.08.05.18,0,.26l-1.44,2.49c-.1.17-.34.17-.44,0Z"/>
        <path class="cls-7" d="M36.69,22.36l-1.44-2.49c-.05-.08-.05-.18,0-.26l1.44-2.46c.1-.17.34-.17.44,0l1.44,2.46c.05.08.05.18,0,.26l-1.44,2.49c-.1.17-.34.17-.44,0Z"/>
      </g>
      <g>
        <path class="cls-10" d="M34.07,17.83l-1.44-2.49c-.05-.08-.05-.18,0-.26l1.44-2.46c.1-.17.34-.17.44,0l1.44,2.46c.05.08.05.18,0,.26l-1.44,2.49c-.1.17-.34.17-.44,0Z"/>
        <path class="cls-7" d="M34.07,17.83l-1.44-2.49c-.05-.08-.05-.18,0-.26l1.44-2.46c.1-.17.34-.17.44,0l1.44,2.46c.05.08.05.18,0,.26l-1.44,2.49c-.1.17-.34.17-.44,0Z"/>
      </g>
      <g>
        <path class="cls-10" d="M52.4,40.5l-1.44-2.49c-.05-.08-.05-.18,0-.26l1.44-2.46c.1-.17.34-.17.44,0l1.44,2.46c.05.08.05.18,0,.26l-1.44,2.49c-.1.17-.34.17-.44,0Z"/>
        <path class="cls-7" d="M52.4,40.5l-1.44-2.49c-.05-.08-.05-.18,0-.26l1.44-2.46c.1-.17.34-.17.44,0l1.44,2.46c.05.08.05.18,0,.26l-1.44,2.49c-.1.17-.34.17-.44,0Z"/>
      </g>
      <g>
        <path class="cls-10" d="M49.78,35.97l-1.44-2.49c-.05-.08-.05-.18,0-.26l1.44-2.46c.1-.17.34-.17.44,0l1.44,2.46c.05.08.05.18,0,.26l-1.44,2.49c-.1.17-.34.17-.44,0Z"/>
        <path class="cls-7" d="M49.78,35.97l-1.44-2.49c-.05-.08-.05-.18,0-.26l1.44-2.46c.1-.17.34-.17.44,0l1.44,2.46c.05.08.05.18,0,.26l-1.44,2.49c-.1.17-.34.17-.44,0Z"/>
      </g>
      <g>
        <path class="cls-10" d="M47.16,31.43l-1.44-2.49c-.05-.08-.05-.18,0-.26l1.44-2.46c.1-.17.34-.17.44,0l1.44,2.46c.05.08.05.18,0,.26l-1.44,2.49c-.1.17-.34.17-.44,0Z"/>
        <path class="cls-7" d="M47.16,31.43l-1.44-2.49c-.05-.08-.05-.18,0-.26l1.44-2.46c.1-.17.34-.17.44,0l1.44,2.46c.05.08.05.18,0,.26l-1.44,2.49c-.1.17-.34.17-.44,0Z"/>
      </g>
      <g>
        <path class="cls-10" d="M44.54,26.9l-1.44-2.49c-.05-.08-.05-.18,0-.26l1.44-2.46c.1-.17.34-.17.44,0l1.44,2.46c.05.08.05.18,0,.26l-1.44,2.49c-.1.17-.34.17-.44,0Z"/>
        <path class="cls-7" d="M44.54,26.9l-1.44-2.49c-.05-.08-.05-.18,0-.26l1.44-2.46c.1-.17.34-.17.44,0l1.44,2.46c.05.08.05.18,0,.26l-1.44,2.49c-.1.17-.34.17-.44,0Z"/>
      </g>
      <g>
        <path class="cls-10" d="M41.93,22.36l-1.44-2.49c-.05-.08-.05-.18,0-.26l1.44-2.46c.1-.17.34-.17.44,0l1.44,2.46c.05.08.05.18,0,.26l-1.44,2.49c-.1.17-.34.17-.44,0Z"/>
        <path class="cls-7" d="M41.93,22.36l-1.44-2.49c-.05-.08-.05-.18,0-.26l1.44-2.46c.1-.17.34-.17.44,0l1.44,2.46c.05.08.05.18,0,.26l-1.44,2.49c-.1.17-.34.17-.44,0Z"/>
      </g>
      <g>
        <path class="cls-10" d="M39.31,17.83l-1.44-2.49c-.05-.08-.05-.18,0-.26l1.44-2.46c.1-.17.34-.17.44,0l1.44,2.46c.05.08.05.18,0,.26l-1.44,2.49c-.1.17-.34.17-.44,0Z"/>
        <path class="cls-7" d="M39.31,17.83l-1.44-2.49c-.05-.08-.05-.18,0-.26l1.44-2.46c.1-.17.34-.17.44,0l1.44,2.46c.05.08.05.18,0,.26l-1.44,2.49c-.1.17-.34.17-.44,0Z"/>
      </g>
      <g>
        <path class="cls-10" d="M36.69,13.3l-1.44-2.49c-.05-.08-.05-.18,0-.26l1.44-2.46c.1-.17.34-.17.44,0l1.44,2.46c.05.08.05.18,0,.26l-1.44,2.49c-.1.17-.34.17-.44,0Z"/>
        <path class="cls-7" d="M36.69,13.3l-1.44-2.49c-.05-.08-.05-.18,0-.26l1.44-2.46c.1-.17.34-.17.44,0l1.44,2.46c.05.08.05.18,0,.26l-1.44,2.49c-.1.17-.34.17-.44,0Z"/>
      </g>
      <g>
        <path class="cls-10" d="M55.01,35.97l-1.44-2.49c-.05-.08-.05-.18,0-.26l1.44-2.46c.1-.17.34-.17.44,0l1.44,2.46c.05.08.05.18,0,.26l-1.44,2.49c-.1.17-.34.17-.44,0Z"/>
        <path class="cls-7" d="M55.01,35.97l-1.44-2.49c-.05-.08-.05-.18,0-.26l1.44-2.46c.1-.17.34-.17.44,0l1.44,2.46c.05.08.05.18,0,.26l-1.44,2.49c-.1.17-.34.17-.44,0Z"/>
      </g>
      <g>
        <path class="cls-10" d="M52.4,31.43l-1.44-2.49c-.05-.08-.05-.18,0-.26l1.44-2.46c.1-.17.34-.17.44,0l1.44,2.46c.05.08.05.18,0,.26l-1.44,2.49c-.1.17-.34.17-.44,0Z"/>
        <path class="cls-7" d="M52.4,31.43l-1.44-2.49c-.05-.08-.05-.18,0-.26l1.44-2.46c.1-.17.34-.17.44,0l1.44,2.46c.05.08.05.18,0,.26l-1.44,2.49c-.1.17-.34.17-.44,0Z"/>
      </g>
      <g>
        <path class="cls-10" d="M49.78,26.9l-1.44-2.49c-.05-.08-.05-.18,0-.26l1.44-2.46c.1-.17.34-.17.44,0l1.44,2.46c.05.08.05.18,0,.26l-1.44,2.49c-.1.17-.34.17-.44,0Z"/>
        <path class="cls-7" d="M49.78,26.9l-1.44-2.49c-.05-.08-.05-.18,0-.26l1.44-2.46c.1-.17.34-.17.44,0l1.44,2.46c.05.08.05.18,0,.26l-1.44,2.49c-.1.17-.34.17-.44,0Z"/>
      </g>
      <g>
        <path class="cls-10" d="M47.16,22.37l-1.44-2.49c-.05-.08-.05-.18,0-.26l1.44-2.46c.1-.17.34-.17.44,0l1.44,2.46c.05.08.05.18,0,.26l-1.44,2.49c-.1.17-.34.17-.44,0Z"/>
        <path class="cls-7" d="M47.16,22.37l-1.44-2.49c-.05-.08-.05-.18,0-.26l1.44-2.46c.1-.17.34-.17.44,0l1.44,2.46c.05.08.05.18,0,.26l-1.44,2.49c-.1.17-.34.17-.44,0Z"/>
      </g>
      <g>
        <path class="cls-10" d="M44.54,17.83l-1.44-2.49c-.05-.08-.05-.18,0-.26l1.44-2.46c.1-.17.34-.17.44,0l1.44,2.46c.05.08.05.18,0,.26l-1.44,2.49c-.1.17-.34.17-.44,0Z"/>
        <path class="cls-7" d="M44.54,17.83l-1.44-2.49c-.05-.08-.05-.18,0-.26l1.44-2.46c.1-.17.34-.17.44,0l1.44,2.46c.05.08.05.18,0,.26l-1.44,2.49c-.1.17-.34.17-.44,0Z"/>
      </g>
      <g>
        <path class="cls-10" d="M41.93,13.3l-1.44-2.49c-.05-.08-.05-.18,0-.26l1.44-2.46c.1-.17.34-.17.44,0l1.44,2.46c.05.08.05.18,0,.26l-1.44,2.49c-.1.17-.34.17-.44,0Z"/>
        <path class="cls-7" d="M41.93,13.3l-1.44-2.49c-.05-.08-.05-.18,0-.26l1.44-2.46c.1-.17.34-.17.44,0l1.44,2.46c.05.08.05.18,0,.26l-1.44,2.49c-.1.17-.34.17-.44,0Z"/>
      </g>
      <g>
        <path class="cls-10" d="M57.63,31.43l-1.44-2.49c-.05-.08-.05-.18,0-.26l1.44-2.46c.1-.17.34-.17.44,0l1.44,2.46c.05.08.05.18,0,.26l-1.44,2.49c-.1.17-.34.17-.44,0Z"/>
        <path class="cls-7" d="M57.63,31.43l-1.44-2.49c-.05-.08-.05-.18,0-.26l1.44-2.46c.1-.17.34-.17.44,0l1.44,2.46c.05.08.05.18,0,.26l-1.44,2.49c-.1.17-.34.17-.44,0Z"/>
      </g>
      <g>
        <path class="cls-10" d="M55.01,26.9l-1.44-2.49c-.05-.08-.05-.18,0-.26l1.44-2.46c.1-.17.34-.17.44,0l1.44,2.46c.05.08.05.18,0,.26l-1.44,2.49c-.1.17-.34.17-.44,0Z"/>
        <path class="cls-7" d="M55.01,26.9l-1.44-2.49c-.05-.08-.05-.18,0-.26l1.44-2.46c.1-.17.34-.17.44,0l1.44,2.46c.05.08.05.18,0,.26l-1.44,2.49c-.1.17-.34.17-.44,0Z"/>
      </g>
      <g>
        <path class="cls-10" d="M52.4,22.37l-1.44-2.49c-.05-.08-.05-.18,0-.26l1.44-2.46c.1-.17.34-.17.44,0l1.44,2.46c.05.08.05.18,0,.26l-1.44,2.49c-.1.17-.34.17-.44,0Z"/>
        <path class="cls-7" d="M52.4,22.37l-1.44-2.49c-.05-.08-.05-.18,0-.26l1.44-2.46c.1-.17.34-.17.44,0l1.44,2.46c.05.08.05.18,0,.26l-1.44,2.49c-.1.17-.34.17-.44,0Z"/>
      </g>
      <g>
        <path class="cls-10" d="M49.78,17.83l-1.44-2.49c-.05-.08-.05-.18,0-.26l1.44-2.46c.1-.17.34-.17.44,0l1.44,2.46c.05.08.05.18,0,.26l-1.44,2.49c-.1.17-.34.17-.44,0Z"/>
        <path class="cls-7" d="M49.78,17.83l-1.44-2.49c-.05-.08-.05-.18,0-.26l1.44-2.46c.1-.17.34-.17.44,0l1.44,2.46c.05.08.05.18,0,.26l-1.44,2.49c-.1.17-.34.17-.44,0Z"/>
      </g>
      <g>
        <path class="cls-10" d="M60.25,26.9l-1.44-2.49c-.05-.08-.05-.18,0-.26l1.44-2.46c.1-.17.34-.17.44,0l1.44,2.46c.05.08.05.18,0,.26l-1.44,2.49c-.1.17-.34.17-.44,0Z"/>
        <path class="cls-7" d="M60.25,26.9l-1.44-2.49c-.05-.08-.05-.18,0-.26l1.44-2.46c.1-.17.34-.17.44,0l1.44,2.46c.05.08.05.18,0,.26l-1.44,2.49c-.1.17-.34.17-.44,0Z"/>
      </g>
      <g>
        <path class="cls-10" d="M57.63,22.37l-1.44-2.49c-.05-.08-.05-.18,0-.26l1.44-2.46c.1-.17.34-.17.44,0l1.44,2.46c.05.08.05.18,0,.26l-1.44,2.49c-.1.17-.34.17-.44,0Z"/>
        <path class="cls-7" d="M57.63,22.37l-1.44-2.49c-.05-.08-.05-.18,0-.26l1.44-2.46c.1-.17.34-.17.44,0l1.44,2.46c.05.08.05.18,0,.26l-1.44,2.49c-.1.17-.34.17-.44,0Z"/>
      </g>
      <g>
        <path class="cls-10" d="M55.01,17.83l-1.44-2.49c-.05-.08-.05-.18,0-.26l1.44-2.46c.1-.17.34-.17.44,0l1.44,2.46c.05.08.05.18,0,.26l-1.44,2.49c-.1.17-.34.17-.44,0Z"/>
        <path class="cls-7" d="M55.01,17.83l-1.44-2.49c-.05-.08-.05-.18,0-.26l1.44-2.46c.1-.17.34-.17.44,0l1.44,2.46c.05.08.05.18,0,.26l-1.44,2.49c-.1.17-.34.17-.44,0Z"/>
      </g>
      <g>
        <path class="cls-10" d="M52.4,13.3l-1.7-2.95c-.05-.08-.05-.18,0-.25.51-.91,1.02-1.69,1.53-2.35.11-.14.33-.13.42.03l1.63,2.79c.05.08.05.18,0,.26l-1.44,2.49c-.1.17-.34.17-.44,0Z"/>
        <path class="cls-7" d="M52.4,13.3l-1.7-2.95c-.05-.08-.05-.18,0-.25.51-.91,1.02-1.69,1.53-2.35.11-.14.33-.13.42.03l1.63,2.79c.05.08.05.18,0,.26l-1.44,2.49c-.1.17-.34.17-.44,0Z"/>
      </g>
      <g>
        <path class="cls-10" d="M62.87,22.37l-1.44-2.49c-.05-.08-.05-.18,0-.26l1.44-2.46c.1-.17.34-.17.44,0l1.44,2.46c.05.08.05.18,0,.26l-1.44,2.49c-.1.17-.34.17-.44,0Z"/>
        <path class="cls-7" d="M62.87,22.37l-1.44-2.49c-.05-.08-.05-.18,0-.26l1.44-2.46c.1-.17.34-.17.44,0l1.44,2.46c.05.08.05.18,0,.26l-1.44,2.49c-.1.17-.34.17-.44,0Z"/>
      </g>
      <g>
        <path class="cls-10" d="M60.25,17.83l-1.44-2.49c-.05-.08-.05-.18,0-.26l1.44-2.46c.1-.17.34-.17.44,0l1.44,2.46c.05.08.05.18,0,.26l-1.44,2.49c-.1.17-.34.17-.44,0Z"/>
        <path class="cls-7" d="M60.25,17.83l-1.44-2.49c-.05-.08-.05-.18,0-.26l1.44-2.46c.1-.17.34-.17.44,0l1.44,2.46c.05.08.05.18,0,.26l-1.44,2.49c-.1.17-.34.17-.44,0Z"/>
      </g>
      <g>
        <path class="cls-10" d="M57.63,13.3l-1.44-2.49c-.05-.08-.05-.18,0-.26l1.44-2.46c.1-.17.34-.17.44,0l1.44,2.46c.05.08.05.18,0,.26l-1.44,2.49c-.1.17-.34.17-.44,0Z"/>
        <path class="cls-7" d="M57.63,13.3l-1.44-2.49c-.05-.08-.05-.18,0-.26l1.44-2.46c.1-.17.34-.17.44,0l1.44,2.46c.05.08.05.18,0,.26l-1.44,2.49c-.1.17-.34.17-.44,0Z"/>
      </g>
      <g>
        <path class="cls-10" d="M55.01,8.77l-1.26-2.19c-.06-.11-.04-.26.06-.33.67-.5,1.43-.89,2.28-1.18.11-.04.24.01.3.12l.49.84c.05.08.05.18,0,.26l-1.44,2.49c-.1.17-.34.17-.44,0Z"/>
        <path class="cls-7" d="M55.01,8.77l-1.26-2.19c-.06-.11-.04-.26.06-.33.67-.5,1.43-.89,2.28-1.18.11-.04.24.01.3.12l.49.84c.05.08.05.18,0,.26l-1.44,2.49c-.1.17-.34.17-.44,0Z"/>
      </g>
      <g>
        <path class="cls-10" d="M65.48,17.83l-1.44-2.49c-.05-.08-.05-.18,0-.26l1.44-2.46c.1-.17.34-.17.44,0l1.44,2.46c.05.08.05.18,0,.26l-1.44,2.49c-.1.17-.34.17-.44,0Z"/>
        <path class="cls-7" d="M65.48,17.83l-1.44-2.49c-.05-.08-.05-.18,0-.26l1.44-2.46c.1-.17.34-.17.44,0l1.44,2.46c.05.08.05.18,0,.26l-1.44,2.49c-.1.17-.34.17-.44,0Z"/>
      </g>
      <g>
        <path class="cls-10" d="M62.87,13.3l-1.44-2.49c-.05-.08-.05-.18,0-.26l1.44-2.46c.1-.17.34-.17.44,0l1.44,2.46c.05.08.05.18,0,.26l-1.44,2.49c-.1.17-.34.17-.44,0Z"/>
        <path class="cls-7" d="M62.87,13.3l-1.44-2.49c-.05-.08-.05-.18,0-.26l1.44-2.46c.1-.17.34-.17.44,0l1.44,2.46c.05.08.05.18,0,.26l-1.44,2.49c-.1.17-.34.17-.44,0Z"/>
      </g>
      <g>
        <path class="cls-10" d="M60.25,8.77l-1.44-2.49c-.05-.08-.05-.18,0-.26l.75-1.29c.05-.09.15-.14.24-.13.55.05,1.08.13,1.56.27.06.02.12.06.15.12.13.22.45.78.6,1.03.05.08.05.18,0,.26l-1.44,2.49c-.1.17-.34.17-.44,0Z"/>
        <path class="cls-7" d="M60.25,8.77l-1.44-2.49c-.05-.08-.05-.18,0-.26l.75-1.29c.05-.09.15-.14.24-.13.55.05,1.08.13,1.56.27.06.02.12.06.15.12.13.22.45.78.6,1.03.05.08.05.18,0,.26l-1.44,2.49c-.1.17-.34.17-.44,0Z"/>
      </g>
      <g>
        <path class="cls-10" d="M67.21,9.63s.7.96.9,2.9c.03.28-.35.39-.48.14l-.96-1.87c-.04-.08-.04-.17,0-.25l.54-.93"/>
        <path class="cls-7" d="M67.21,9.63s.7.96.9,2.9c.03.28-.35.39-.48.14l-.96-1.87c-.04-.08-.04-.17,0-.25l.54-.93"/>
      </g>
      <g>
        <path class="cls-10" d="M65.48,8.77l-1.04-1.81c-.14-.25.16-.51.38-.33.48.39.93.84,1.35,1.38.06.08.07.2.02.29l-.24.42c-.12.22-.37.22-.47.05Z"/>
        <path class="cls-7" d="M65.48,8.77l-1.04-1.81c-.14-.25.16-.51.38-.33.48.39.93.84,1.35,1.38.06.08.07.2.02.29l-.24.42c-.12.22-.37.22-.47.05Z"/>
      </g>
      <g>
        <path class="cls-10" d="M47.6,13.3l1.7-2.95c.05-.08.05-.18,0-.25-.51-.91-1.02-1.69-1.53-2.35-.11-.14-.33-.13-.42.03-.41.7-1.35,2.32-1.63,2.79-.05.08-.05.18,0,.26l1.44,2.49c.1.17.34.17.44,0Z"/>
        <path class="cls-7" d="M47.6,13.3l1.7-2.95c.05-.08.05-.18,0-.25-.51-.91-1.02-1.69-1.53-2.35-.11-.14-.33-.13-.42.03-.41.7-1.35,2.32-1.63,2.79-.05.08-.05.18,0,.26l1.44,2.49c.1.17.34.17.44,0Z"/>
      </g>
      <g>
        <path class="cls-10" d="M44.99,8.77l1.26-2.19c.06-.11.04-.26-.06-.33-.67-.5-1.43-.89-2.28-1.18-.11-.04-.24.01-.3.12l-.49.84c-.05.08-.05.18,0,.26l1.44,2.49c.1.17.34.17.44,0Z"/>
        <path class="cls-7" d="M44.99,8.77l1.26-2.19c.06-.11.04-.26-.06-.33-.67-.5-1.43-.89-2.28-1.18-.11-.04-.24.01-.3.12l-.49.84c-.05.08-.05.18,0,.26l1.44,2.49c.1.17.34.17.44,0Z"/>
      </g>
      <g>
        <path class="cls-10" d="M39.75,8.77l1.44-2.49c.05-.08.05-.18,0-.26l-.75-1.29c-.05-.09-.15-.14-.24-.13-.55.05-1.08.13-1.56.27-.06.02-.12.06-.15.12-.13.22-.45.78-.6,1.03-.05.08-.05.18,0,.26l1.44,2.49c.1.17.34.17.44,0Z"/>
        <path class="cls-7" d="M39.75,8.77l1.44-2.49c.05-.08.05-.18,0-.26l-.75-1.29c-.05-.09-.15-.14-.24-.13-.55.05-1.08.13-1.56.27-.06.02-.12.06-.15.12-.13.22-.45.78-.6,1.03-.05.08-.05.18,0,.26l1.44,2.49c.1.17.34.17.44,0Z"/>
      </g>
      <g>
        <path class="cls-10" d="M32.79,9.63s-.7.96-.9,2.9c-.03.28.35.39.48.14l.96-1.87c.04-.08.04-.17,0-.25l-.54-.93"/>
        <path class="cls-7" d="M32.79,9.63s-.7.96-.9,2.9c-.03.28.35.39.48.14l.96-1.87c.04-.08.04-.17,0-.25l-.54-.93"/>
      </g>
      <g>
        <path class="cls-10" d="M34.52,8.77l1.04-1.81c.14-.25-.16-.51-.38-.33-.48.39-.93.84-1.35,1.38-.06.08-.07.2-.02.29l.24.42c.12.22.37.22.47.05Z"/>
        <path class="cls-7" d="M34.52,8.77l1.04-1.81c.14-.25-.16-.51-.38-.33-.48.39-.93.84-1.35,1.38-.06.08-.07.2-.02.29l.24.42c.12.22.37.22.47.05Z"/>
      </g>
      <g>
        <path class="cls-10" d="M50.22,54.97l1.44,2.49c.05.08.05.18,0,.26l-1.44,2.46c-.1.17-.34.17-.44,0l-1.44-2.46c-.05-.08-.05-.18,0-.26l1.44-2.49c.1-.17.34-.17.44,0Z"/>
        <path class="cls-7" d="M50.22,54.97l1.44,2.49c.05.08.05.18,0,.26l-1.44,2.46c-.1.17-.34.17-.44,0l-1.44-2.46c-.05-.08-.05-.18,0-.26l1.44-2.49c.1-.17.34-.17.44,0Z"/>
      </g>
      <g>
        <path class="cls-10" d="M52.84,59.5l1.44,2.49c.05.08.05.18,0,.26l-1.44,2.46c-.1.17-.34.17-.44,0l-1.44-2.46c-.05-.08-.05-.18,0-.26l1.44-2.49c.1-.17.34-.17.44,0Z"/>
        <path class="cls-7" d="M52.84,59.5l1.44,2.49c.05.08.05.18,0,.26l-1.44,2.46c-.1.17-.34.17-.44,0l-1.44-2.46c-.05-.08-.05-.18,0-.26l1.44-2.49c.1-.17.34-.17.44,0Z"/>
      </g>
      <g>
        <path class="cls-10" d="M55.46,64.04l1.44,2.49c.05.08.05.18,0,.26l-1.44,2.46c-.1.17-.34.17-.44,0l-1.44-2.46c-.05-.08-.05-.18,0-.26l1.44-2.49c.1-.17.34-.17.44,0Z"/>
        <path class="cls-7" d="M55.46,64.04l1.44,2.49c.05.08.05.18,0,.26l-1.44,2.46c-.1.17-.34.17-.44,0l-1.44-2.46c-.05-.08-.05-.18,0-.26l1.44-2.49c.1-.17.34-.17.44,0Z"/>
      </g>
      <g>
        <path class="cls-10" d="M58.07,68.57l1.44,2.49c.05.08.05.18,0,.26l-1.44,2.46c-.1.17-.34.17-.44,0l-1.44-2.46c-.05-.08-.05-.18,0-.26l1.44-2.49c.1-.17.34-.17.44,0Z"/>
        <path class="cls-7" d="M58.07,68.57l1.44,2.49c.05.08.05.18,0,.26l-1.44,2.46c-.1.17-.34.17-.44,0l-1.44-2.46c-.05-.08-.05-.18,0-.26l1.44-2.49c.1-.17.34-.17.44,0Z"/>
      </g>
      <g>
        <path class="cls-10" d="M60.69,73.1l1.44,2.49c.05.08.05.18,0,.26l-1.44,2.46c-.1.17-.34.17-.44,0l-1.44-2.46c-.05-.08-.05-.18,0-.26l1.44-2.49c.1-.17.34-.17.44,0Z"/>
        <path class="cls-7" d="M60.69,73.1l1.44,2.49c.05.08.05.18,0,.26l-1.44,2.46c-.1.17-.34.17-.44,0l-1.44-2.46c-.05-.08-.05-.18,0-.26l1.44-2.49c.1-.17.34-.17.44,0Z"/>
      </g>
      <g>
        <path class="cls-10" d="M63.31,77.64l1.44,2.49c.05.08.05.18,0,.26l-1.44,2.46c-.1.17-.34.17-.44,0l-1.44-2.46c-.05-.08-.05-.18,0-.26l1.44-2.49c.1-.17.34-.17.44,0Z"/>
        <path class="cls-7" d="M63.31,77.64l1.44,2.49c.05.08.05.18,0,.26l-1.44,2.46c-.1.17-.34.17-.44,0l-1.44-2.46c-.05-.08-.05-.18,0-.26l1.44-2.49c.1-.17.34-.17.44,0Z"/>
      </g>
      <g>
        <path class="cls-10" d="M65.93,82.17l1.44,2.49c.05.08.05.18,0,.26l-1.44,2.46c-.1.17-.34.17-.44,0l-1.44-2.46c-.05-.08-.05-.18,0-.26l1.44-2.49c.1-.17.34-.17.44,0Z"/>
        <path class="cls-7" d="M65.93,82.17l1.44,2.49c.05.08.05.18,0,.26l-1.44,2.46c-.1.17-.34.17-.44,0l-1.44-2.46c-.05-.08-.05-.18,0-.26l1.44-2.49c.1-.17.34-.17.44,0Z"/>
      </g>
      <g>
        <path class="cls-10" d="M47.6,59.5l1.44,2.49c.05.08.05.18,0,.26l-1.44,2.46c-.1.17-.34.17-.44,0l-1.44-2.46c-.05-.08-.05-.18,0-.26l1.44-2.49c.1-.17.34-.17.44,0Z"/>
        <path class="cls-7" d="M47.6,59.5l1.44,2.49c.05.08.05.18,0,.26l-1.44,2.46c-.1.17-.34.17-.44,0l-1.44-2.46c-.05-.08-.05-.18,0-.26l1.44-2.49c.1-.17.34-.17.44,0Z"/>
      </g>
      <g>
        <path class="cls-10" d="M50.22,64.03l1.44,2.49c.05.08.05.18,0,.26l-1.44,2.46c-.1.17-.34.17-.44,0l-1.44-2.46c-.05-.08-.05-.18,0-.26l1.44-2.49c.1-.17.34-.17.44,0Z"/>
        <path class="cls-7" d="M50.22,64.03l1.44,2.49c.05.08.05.18,0,.26l-1.44,2.46c-.1.17-.34.17-.44,0l-1.44-2.46c-.05-.08-.05-.18,0-.26l1.44-2.49c.1-.17.34-.17.44,0Z"/>
      </g>
      <g>
        <path class="cls-10" d="M52.84,68.57l1.44,2.49c.05.08.05.18,0,.26l-1.44,2.46c-.1.17-.34.17-.44,0l-1.44-2.46c-.05-.08-.05-.18,0-.26l1.44-2.49c.1-.17.34-.17.44,0Z"/>
        <path class="cls-7" d="M52.84,68.57l1.44,2.49c.05.08.05.18,0,.26l-1.44,2.46c-.1.17-.34.17-.44,0l-1.44-2.46c-.05-.08-.05-.18,0-.26l1.44-2.49c.1-.17.34-.17.44,0Z"/>
      </g>
      <g>
        <path class="cls-10" d="M55.46,73.1l1.44,2.49c.05.08.05.18,0,.26l-1.44,2.46c-.1.17-.34.17-.44,0l-1.44-2.46c-.05-.08-.05-.18,0-.26l1.44-2.49c.1-.17.34-.17.44,0Z"/>
        <path class="cls-7" d="M55.46,73.1l1.44,2.49c.05.08.05.18,0,.26l-1.44,2.46c-.1.17-.34.17-.44,0l-1.44-2.46c-.05-.08-.05-.18,0-.26l1.44-2.49c.1-.17.34-.17.44,0Z"/>
      </g>
      <g>
        <path class="cls-10" d="M58.07,77.64l1.44,2.49c.05.08.05.18,0,.26l-1.44,2.46c-.1.17-.34.17-.44,0l-1.44-2.46c-.05-.08-.05-.18,0-.26l1.44-2.49c.1-.17.34-.17.44,0Z"/>
        <path class="cls-7" d="M58.07,77.64l1.44,2.49c.05.08.05.18,0,.26l-1.44,2.46c-.1.17-.34.17-.44,0l-1.44-2.46c-.05-.08-.05-.18,0-.26l1.44-2.49c.1-.17.34-.17.44,0Z"/>
      </g>
      <g>
        <path class="cls-10" d="M60.69,82.17l1.44,2.49c.05.08.05.18,0,.26l-1.44,2.46c-.1.17-.34.17-.44,0l-1.44-2.46c-.05-.08-.05-.18,0-.26l1.44-2.49c.1-.17.34-.17.44,0Z"/>
        <path class="cls-7" d="M60.69,82.17l1.44,2.49c.05.08.05.18,0,.26l-1.44,2.46c-.1.17-.34.17-.44,0l-1.44-2.46c-.05-.08-.05-.18,0-.26l1.44-2.49c.1-.17.34-.17.44,0Z"/>
      </g>
      <g>
        <path class="cls-10" d="M63.31,86.7l1.44,2.49c.05.08.05.18,0,.26l-1.44,2.46c-.1.17-.34.17-.44,0l-1.44-2.46c-.05-.08-.05-.18,0-.26l1.44-2.49c.1-.17.34-.17.44,0Z"/>
        <path class="cls-7" d="M63.31,86.7l1.44,2.49c.05.08.05.18,0,.26l-1.44,2.46c-.1.17-.34.17-.44,0l-1.44-2.46c-.05-.08-.05-.18,0-.26l1.44-2.49c.1-.17.34-.17.44,0Z"/>
      </g>
      <g>
        <path class="cls-10" d="M44.99,64.03l1.44,2.49c.05.08.05.18,0,.26l-1.44,2.46c-.1.17-.34.17-.44,0l-1.44-2.46c-.05-.08-.05-.18,0-.26l1.44-2.49c.1-.17.34-.17.44,0Z"/>
        <path class="cls-7" d="M44.99,64.03l1.44,2.49c.05.08.05.18,0,.26l-1.44,2.46c-.1.17-.34.17-.44,0l-1.44-2.46c-.05-.08-.05-.18,0-.26l1.44-2.49c.1-.17.34-.17.44,0Z"/>
      </g>
      <g>
        <path class="cls-10" d="M47.6,68.57l1.44,2.49c.05.08.05.18,0,.26l-1.44,2.46c-.1.17-.34.17-.44,0l-1.44-2.46c-.05-.08-.05-.18,0-.26l1.44-2.49c.1-.17.34-.17.44,0Z"/>
        <path class="cls-7" d="M47.6,68.57l1.44,2.49c.05.08.05.18,0,.26l-1.44,2.46c-.1.17-.34.17-.44,0l-1.44-2.46c-.05-.08-.05-.18,0-.26l1.44-2.49c.1-.17.34-.17.44,0Z"/>
      </g>
      <g>
        <path class="cls-10" d="M50.22,73.1l1.44,2.49c.05.08.05.18,0,.26l-1.44,2.46c-.1.17-.34.17-.44,0l-1.44-2.46c-.05-.08-.05-.18,0-.26l1.44-2.49c.1-.17.34-.17.44,0Z"/>
        <path class="cls-7" d="M50.22,73.1l1.44,2.49c.05.08.05.18,0,.26l-1.44,2.46c-.1.17-.34.17-.44,0l-1.44-2.46c-.05-.08-.05-.18,0-.26l1.44-2.49c.1-.17.34-.17.44,0Z"/>
      </g>
      <g>
        <path class="cls-10" d="M52.84,77.63l1.44,2.49c.05.08.05.18,0,.26l-1.44,2.46c-.1.17-.34.17-.44,0l-1.44-2.46c-.05-.08-.05-.18,0-.26l1.44-2.49c.1-.17.34-.17.44,0Z"/>
        <path class="cls-7" d="M52.84,77.63l1.44,2.49c.05.08.05.18,0,.26l-1.44,2.46c-.1.17-.34.17-.44,0l-1.44-2.46c-.05-.08-.05-.18,0-.26l1.44-2.49c.1-.17.34-.17.44,0Z"/>
      </g>
      <g>
        <path class="cls-10" d="M55.46,82.17l1.44,2.49c.05.08.05.18,0,.26l-1.44,2.46c-.1.17-.34.17-.44,0l-1.44-2.46c-.05-.08-.05-.18,0-.26l1.44-2.49c.1-.17.34-.17.44,0Z"/>
        <path class="cls-7" d="M55.46,82.17l1.44,2.49c.05.08.05.18,0,.26l-1.44,2.46c-.1.17-.34.17-.44,0l-1.44-2.46c-.05-.08-.05-.18,0-.26l1.44-2.49c.1-.17.34-.17.44,0Z"/>
      </g>
      <g>
        <path class="cls-10" d="M58.07,86.7l1.44,2.49c.05.08.05.18,0,.26l-1.44,2.46c-.1.17-.34.17-.44,0l-1.44-2.46c-.05-.08-.05-.18,0-.26l1.44-2.49c.1-.17.34-.17.44,0Z"/>
        <path class="cls-7" d="M58.07,86.7l1.44,2.49c.05.08.05.18,0,.26l-1.44,2.46c-.1.17-.34.17-.44,0l-1.44-2.46c-.05-.08-.05-.18,0-.26l1.44-2.49c.1-.17.34-.17.44,0Z"/>
      </g>
      <g>
        <path class="cls-10" d="M42.37,68.57l1.44,2.49c.05.08.05.18,0,.26l-1.44,2.46c-.1.17-.34.17-.44,0l-1.44-2.46c-.05-.08-.05-.18,0-.26l1.44-2.49c.1-.17.34-.17.44,0Z"/>
        <path class="cls-7" d="M42.37,68.57l1.44,2.49c.05.08.05.18,0,.26l-1.44,2.46c-.1.17-.34.17-.44,0l-1.44-2.46c-.05-.08-.05-.18,0-.26l1.44-2.49c.1-.17.34-.17.44,0Z"/>
      </g>
      <g>
        <path class="cls-10" d="M44.99,73.1l1.44,2.49c.05.08.05.18,0,.26l-1.44,2.46c-.1.17-.34.17-.44,0l-1.44-2.46c-.05-.08-.05-.18,0-.26l1.44-2.49c.1-.17.34-.17.44,0Z"/>
        <path class="cls-7" d="M44.99,73.1l1.44,2.49c.05.08.05.18,0,.26l-1.44,2.46c-.1.17-.34.17-.44,0l-1.44-2.46c-.05-.08-.05-.18,0-.26l1.44-2.49c.1-.17.34-.17.44,0Z"/>
      </g>
      <g>
        <path class="cls-10" d="M47.6,77.63l1.44,2.49c.05.08.05.18,0,.26l-1.44,2.46c-.1.17-.34.17-.44,0l-1.44-2.46c-.05-.08-.05-.18,0-.26l1.44-2.49c.1-.17.34-.17.44,0Z"/>
        <path class="cls-7" d="M47.6,77.63l1.44,2.49c.05.08.05.18,0,.26l-1.44,2.46c-.1.17-.34.17-.44,0l-1.44-2.46c-.05-.08-.05-.18,0-.26l1.44-2.49c.1-.17.34-.17.44,0Z"/>
      </g>
      <g>
        <path class="cls-10" d="M50.22,82.17l1.44,2.49c.05.08.05.18,0,.26l-1.44,2.46c-.1.17-.34.17-.44,0l-1.44-2.46c-.05-.08-.05-.18,0-.26l1.44-2.49c.1-.17.34-.17.44,0Z"/>
        <path class="cls-7" d="M50.22,82.17l1.44,2.49c.05.08.05.18,0,.26l-1.44,2.46c-.1.17-.34.17-.44,0l-1.44-2.46c-.05-.08-.05-.18,0-.26l1.44-2.49c.1-.17.34-.17.44,0Z"/>
      </g>
      <g>
        <path class="cls-10" d="M39.75,73.1l1.44,2.49c.05.08.05.18,0,.26l-1.44,2.46c-.1.17-.34.17-.44,0l-1.44-2.46c-.05-.08-.05-.18,0-.26l1.44-2.49c.1-.17.34-.17.44,0Z"/>
        <path class="cls-7" d="M39.75,73.1l1.44,2.49c.05.08.05.18,0,.26l-1.44,2.46c-.1.17-.34.17-.44,0l-1.44-2.46c-.05-.08-.05-.18,0-.26l1.44-2.49c.1-.17.34-.17.44,0Z"/>
      </g>
      <g>
        <path class="cls-10" d="M42.37,77.63l1.44,2.49c.05.08.05.18,0,.26l-1.44,2.46c-.1.17-.34.17-.44,0l-1.44-2.46c-.05-.08-.05-.18,0-.26l1.44-2.49c.1-.17.34-.17.44,0Z"/>
        <path class="cls-7" d="M42.37,77.63l1.44,2.49c.05.08.05.18,0,.26l-1.44,2.46c-.1.17-.34.17-.44,0l-1.44-2.46c-.05-.08-.05-.18,0-.26l1.44-2.49c.1-.17.34-.17.44,0Z"/>
      </g>
      <g>
        <path class="cls-10" d="M44.99,82.17l1.44,2.49c.05.08.05.18,0,.26l-1.44,2.46c-.1.17-.34.17-.44,0l-1.44-2.46c-.05-.08-.05-.18,0-.26l1.44-2.49c.1-.17.34-.17.44,0Z"/>
        <path class="cls-7" d="M44.99,82.17l1.44,2.49c.05.08.05.18,0,.26l-1.44,2.46c-.1.17-.34.17-.44,0l-1.44-2.46c-.05-.08-.05-.18,0-.26l1.44-2.49c.1-.17.34-.17.44,0Z"/>
      </g>
      <g>
        <path class="cls-10" d="M47.6,86.7l1.7,2.95c.05.08.05.18,0,.25-.51.91-1.02,1.69-1.53,2.35-.11.14-.33.13-.42-.03-.41-.7-1.35-2.32-1.63-2.79-.05-.08-.05-.18,0-.26l1.44-2.49c.1-.17.34-.17.44,0Z"/>
        <path class="cls-7" d="M47.6,86.7l1.7,2.95c.05.08.05.18,0,.25-.51.91-1.02,1.69-1.53,2.35-.11.14-.33.13-.42-.03-.41-.7-1.35-2.32-1.63-2.79-.05-.08-.05-.18,0-.26l1.44-2.49c.1-.17.34-.17.44,0Z"/>
      </g>
      <g>
        <path class="cls-10" d="M37.13,77.63l1.44,2.49c.05.08.05.18,0,.26l-1.44,2.46c-.1.17-.34.17-.44,0l-1.44-2.46c-.05-.08-.05-.18,0-.26l1.44-2.49c.1-.17.34-.17.44,0Z"/>
        <path class="cls-7" d="M37.13,77.63l1.44,2.49c.05.08.05.18,0,.26l-1.44,2.46c-.1.17-.34.17-.44,0l-1.44-2.46c-.05-.08-.05-.18,0-.26l1.44-2.49c.1-.17.34-.17.44,0Z"/>
      </g>
      <g>
        <path class="cls-10" d="M39.75,82.17l1.44,2.49c.05.08.05.18,0,.26l-1.44,2.46c-.1.17-.34.17-.44,0l-1.44-2.46c-.05-.08-.05-.18,0-.26l1.44-2.49c.1-.17.34-.17.44,0Z"/>
        <path class="cls-7" d="M39.75,82.17l1.44,2.49c.05.08.05.18,0,.26l-1.44,2.46c-.1.17-.34.17-.44,0l-1.44-2.46c-.05-.08-.05-.18,0-.26l1.44-2.49c.1-.17.34-.17.44,0Z"/>
      </g>
      <g>
        <path class="cls-10" d="M42.37,86.7l1.44,2.49c.05.08.05.18,0,.26l-1.44,2.46c-.1.17-.34.17-.44,0l-1.44-2.46c-.05-.08-.05-.18,0-.26l1.44-2.49c.1-.17.34-.17.44,0Z"/>
        <path class="cls-7" d="M42.37,86.7l1.44,2.49c.05.08.05.18,0,.26l-1.44,2.46c-.1.17-.34.17-.44,0l-1.44-2.46c-.05-.08-.05-.18,0-.26l1.44-2.49c.1-.17.34-.17.44,0Z"/>
      </g>
      <g>
        <path class="cls-10" d="M44.99,91.23l1.26,2.19c.06.11.04.26-.06.33-.67.5-1.43.89-2.28,1.18-.11.04-.24-.01-.3-.12l-.49-.84c-.05-.08-.05-.18,0-.26l1.44-2.49c.1-.17.34-.17.44,0Z"/>
        <path class="cls-7" d="M44.99,91.23l1.26,2.19c.06.11.04.26-.06.33-.67.5-1.43.89-2.28,1.18-.11.04-.24-.01-.3-.12l-.49-.84c-.05-.08-.05-.18,0-.26l1.44-2.49c.1-.17.34-.17.44,0Z"/>
      </g>
      <g>
        <path class="cls-10" d="M34.52,82.17l1.44,2.49c.05.08.05.18,0,.26l-1.44,2.46c-.1.17-.34.17-.44,0l-1.44-2.46c-.05-.08-.05-.18,0-.26l1.44-2.49c.1-.17.34-.17.44,0Z"/>
        <path class="cls-7" d="M34.52,82.17l1.44,2.49c.05.08.05.18,0,.26l-1.44,2.46c-.1.17-.34.17-.44,0l-1.44-2.46c-.05-.08-.05-.18,0-.26l1.44-2.49c.1-.17.34-.17.44,0Z"/>
      </g>
      <g>
        <path class="cls-10" d="M37.13,86.7l1.44,2.49c.05.08.05.18,0,.26l-1.44,2.46c-.1.17-.34.17-.44,0l-1.44-2.46c-.05-.08-.05-.18,0-.26l1.44-2.49c.1-.17.34-.17.44,0Z"/>
        <path class="cls-7" d="M37.13,86.7l1.44,2.49c.05.08.05.18,0,.26l-1.44,2.46c-.1.17-.34.17-.44,0l-1.44-2.46c-.05-.08-.05-.18,0-.26l1.44-2.49c.1-.17.34-.17.44,0Z"/>
      </g>
      <g>
        <path class="cls-10" d="M39.75,91.23l1.44,2.49c.05.08.05.18,0,.26l-.75,1.29c-.05.09-.15.14-.24.13-.55-.05-1.08-.13-1.56-.27-.06-.02-.12-.06-.15-.12-.13-.22-.45-.78-.6-1.03-.05-.08-.05-.18,0-.26l1.44-2.49c.1-.17.34-.17.44,0Z"/>
        <path class="cls-7" d="M39.75,91.23l1.44,2.49c.05.08.05.18,0,.26l-.75,1.29c-.05.09-.15.14-.24.13-.55-.05-1.08-.13-1.56-.27-.06-.02-.12-.06-.15-.12-.13-.22-.45-.78-.6-1.03-.05-.08-.05-.18,0-.26l1.44-2.49c.1-.17.34-.17.44,0Z"/>
      </g>
      <g>
        <path class="cls-10" d="M32.79,90.37s-.7-.96-.9-2.9c-.03-.28.35-.39.48-.14l.96,1.87c.04.08.04.17,0,.25l-.54.93"/>
        <path class="cls-7" d="M32.79,90.37s-.7-.96-.9-2.9c-.03-.28.35-.39.48-.14l.96,1.87c.04.08.04.17,0,.25l-.54.93"/>
      </g>
      <g>
        <path class="cls-10" d="M34.52,91.23l1.04,1.81c.14.25-.16.51-.38.33-.48-.39-.93-.84-1.35-1.38-.06-.08-.07-.2-.02-.29l.24-.42c.12-.22.37-.22.47-.05Z"/>
        <path class="cls-7" d="M34.52,91.23l1.04,1.81c.14.25-.16.51-.38.33-.48-.39-.93-.84-1.35-1.38-.06-.08-.07-.2-.02-.29l.24-.42c.12-.22.37-.22.47-.05Z"/>
      </g>
      <g>
        <path class="cls-10" d="M52.4,86.7l-1.7,2.95c-.05.08-.05.18,0,.25.51.91,1.02,1.69,1.53,2.35.11.14.33.13.42-.03l1.63-2.79c.05-.08.05-.18,0-.26l-1.44-2.49c-.1-.17-.34-.17-.44,0Z"/>
        <path class="cls-7" d="M52.4,86.7l-1.7,2.95c-.05.08-.05.18,0,.25.51.91,1.02,1.69,1.53,2.35.11.14.33.13.42-.03l1.63-2.79c.05-.08.05-.18,0-.26l-1.44-2.49c-.1-.17-.34-.17-.44,0Z"/>
      </g>
      <g>
        <path class="cls-10" d="M55.01,91.23l-1.26,2.19c-.06.11-.04.26.06.33.67.5,1.43.89,2.28,1.18.11.04.24-.01.3-.12l.49-.84c.05-.08.05-.18,0-.26l-1.44-2.49c-.1-.17-.34-.17-.44,0Z"/>
        <path class="cls-7" d="M55.01,91.23l-1.26,2.19c-.06.11-.04.26.06.33.67.5,1.43.89,2.28,1.18.11.04.24-.01.3-.12l.49-.84c.05-.08.05-.18,0-.26l-1.44-2.49c-.1-.17-.34-.17-.44,0Z"/>
      </g>
      <g>
        <path class="cls-10" d="M60.25,91.23l-1.44,2.49c-.05.08-.05.18,0,.26l.75,1.29c.05.09.15.14.24.13.55-.05,1.08-.13,1.56-.27.06-.02.12-.06.15-.12.13-.22.45-.78.6-1.03.05-.08.05-.18,0-.26l-1.44-2.49c-.1-.17-.34-.17-.44,0Z"/>
        <path class="cls-7" d="M60.25,91.23l-1.44,2.49c-.05.08-.05.18,0,.26l.75,1.29c.05.09.15.14.24.13.55-.05,1.08-.13,1.56-.27.06-.02.12-.06.15-.12.13-.22.45-.78.6-1.03.05-.08.05-.18,0-.26l-1.44-2.49c-.1-.17-.34-.17-.44,0Z"/>
      </g>
      <g>
        <path class="cls-10" d="M67.21,90.37s.7-.96.9-2.9c.03-.28-.35-.39-.48-.14l-.96,1.87c-.04.08-.04.17,0,.25l.54.93"/>
        <path class="cls-7" d="M67.21,90.37s.7-.96.9-2.9c.03-.28-.35-.39-.48-.14l-.96,1.87c-.04.08-.04.17,0,.25l.54.93"/>
      </g>
      <g>
        <path class="cls-10" d="M65.48,91.23l-1.04,1.81c-.14.25.16.51.38.33.48-.39.93-.84,1.35-1.38.06-.08.07-.2.02-.29l-.24-.42c-.12-.22-.37-.22-.47-.05Z"/>
        <path class="cls-7" d="M65.48,91.23l-1.04,1.81c-.14.25.16.51.38.33.48-.39.93-.84,1.35-1.38.06-.08.07-.2.02-.29l-.24-.42c-.12-.22-.37-.22-.47-.05Z"/>
      </g>
      <g>
        <path class="cls-10" d="M45.59,47.71h-2.87c-.09,0-.18-.05-.22-.13l-1.41-2.47c-.1-.17.03-.38.22-.38h2.85c.09-.01.18.04.22.11l1.44,2.49c.1.17-.02.38-.22.38Z"/>
        <path class="cls-7" d="M45.59,47.71h-2.87c-.09,0-.18-.05-.22-.13l-1.41-2.47c-.1-.17.03-.38.22-.38h2.85c.09-.01.18.04.22.11l1.44,2.49c.1.17-.02.38-.22.38Z"/>
      </g>
      <g>
        <path class="cls-10" d="M40.35,47.71h-2.87c-.09,0-.18-.05-.22-.13l-1.41-2.47c-.1-.17.03-.38.22-.38h2.85c.09-.01.18.04.22.11l1.44,2.49c.1.17-.02.38-.22.38Z"/>
        <path class="cls-7" d="M40.35,47.71h-2.87c-.09,0-.18-.05-.22-.13l-1.41-2.47c-.1-.17.03-.38.22-.38h2.85c.09-.01.18.04.22.11l1.44,2.49c.1.17-.02.38-.22.38Z"/>
      </g>
      <g>
        <path class="cls-10" d="M35.12,47.71h-2.87c-.09,0-.18-.05-.22-.13l-1.41-2.47c-.1-.17.03-.38.22-.38h2.85c.09-.01.18.04.22.11l1.44,2.49c.1.17-.02.38-.22.38Z"/>
        <path class="cls-7" d="M35.12,47.71h-2.87c-.09,0-.18-.05-.22-.13l-1.41-2.47c-.1-.17.03-.38.22-.38h2.85c.09-.01.18.04.22.11l1.44,2.49c.1.17-.02.38-.22.38Z"/>
      </g>
      <g>
        <path class="cls-10" d="M29.88,47.71h-2.87c-.09,0-.18-.05-.22-.13l-1.41-2.47c-.1-.17.03-.38.22-.38h2.85c.09-.01.18.04.22.11l1.44,2.49c.1.17-.02.38-.22.38Z"/>
        <path class="cls-7" d="M29.88,47.71h-2.87c-.09,0-.18-.05-.22-.13l-1.41-2.47c-.1-.17.03-.38.22-.38h2.85c.09-.01.18.04.22.11l1.44,2.49c.1.17-.02.38-.22.38Z"/>
      </g>
      <g>
        <path class="cls-10" d="M24.65,47.71h-2.87c-.09,0-.18-.05-.22-.13l-1.41-2.47c-.1-.17.03-.38.22-.38h2.85c.09-.01.18.04.22.11l1.44,2.49c.1.17-.02.38-.22.38Z"/>
        <path class="cls-7" d="M24.65,47.71h-2.87c-.09,0-.18-.05-.22-.13l-1.41-2.47c-.1-.17.03-.38.22-.38h2.85c.09-.01.18.04.22.11l1.44,2.49c.1.17-.02.38-.22.38Z"/>
      </g>
      <g>
        <path class="cls-10" d="M19.41,47.71h-2.87c-.09,0-.18-.05-.22-.13l-1.41-2.47c-.1-.17.03-.38.22-.38h2.85c.09-.01.18.04.22.11l1.44,2.49c.1.17-.02.38-.22.38Z"/>
        <path class="cls-7" d="M19.41,47.71h-2.87c-.09,0-.18-.05-.22-.13l-1.41-2.47c-.1-.17.03-.38.22-.38h2.85c.09-.01.18.04.22.11l1.44,2.49c.1.17-.02.38-.22.38Z"/>
      </g>
      <g>
        <path class="cls-10" d="M14.18,47.71h-2.87c-.09,0-.18-.05-.22-.13l-1.41-2.47c-.1-.17.03-.38.22-.38h2.85c.09-.01.18.04.22.11l1.44,2.49c.1.17-.02.38-.22.38Z"/>
        <path class="cls-7" d="M14.18,47.71h-2.87c-.09,0-.18-.05-.22-.13l-1.41-2.47c-.1-.17.03-.38.22-.38h2.85c.09-.01.18.04.22.11l1.44,2.49c.1.17-.02.38-.22.38Z"/>
      </g>
      <g>
        <path class="cls-10" d="M42.97,43.17h-2.87c-.09,0-.18-.05-.22-.13l-1.41-2.47c-.1-.17.03-.38.22-.38h2.85c.09-.01.18.04.22.11l1.44,2.49c.1.17-.02.38-.22.38Z"/>
        <path class="cls-7" d="M42.97,43.17h-2.87c-.09,0-.18-.05-.22-.13l-1.41-2.47c-.1-.17.03-.38.22-.38h2.85c.09-.01.18.04.22.11l1.44,2.49c.1.17-.02.38-.22.38Z"/>
      </g>
      <g>
        <path class="cls-10" d="M37.73,43.17h-2.87c-.09,0-.18-.05-.22-.13l-1.41-2.47c-.1-.17.03-.38.22-.38h2.85c.09-.01.18.04.22.11l1.44,2.49c.1.17-.02.38-.22.38Z"/>
        <path class="cls-7" d="M37.73,43.17h-2.87c-.09,0-.18-.05-.22-.13l-1.41-2.47c-.1-.17.03-.38.22-.38h2.85c.09-.01.18.04.22.11l1.44,2.49c.1.17-.02.38-.22.38Z"/>
      </g>
      <g>
        <path class="cls-10" d="M32.5,43.17h-2.87c-.09,0-.18-.05-.22-.13l-1.41-2.47c-.1-.17.03-.38.22-.38h2.85c.09-.01.18.04.22.11l1.44,2.49c.1.17-.02.38-.22.38Z"/>
        <path class="cls-7" d="M32.5,43.17h-2.87c-.09,0-.18-.05-.22-.13l-1.41-2.47c-.1-.17.03-.38.22-.38h2.85c.09-.01.18.04.22.11l1.44,2.49c.1.17-.02.38-.22.38Z"/>
      </g>
      <g>
        <path class="cls-10" d="M27.27,43.17h-2.87c-.09,0-.18-.05-.22-.13l-1.41-2.47c-.1-.17.03-.38.22-.38h2.85c.09-.01.18.04.22.11l1.44,2.49c.1.17-.02.38-.22.38Z"/>
        <path class="cls-7" d="M27.27,43.17h-2.87c-.09,0-.18-.05-.22-.13l-1.41-2.47c-.1-.17.03-.38.22-.38h2.85c.09-.01.18.04.22.11l1.44,2.49c.1.17-.02.38-.22.38Z"/>
      </g>
      <g>
        <path class="cls-10" d="M22.03,43.17h-2.87c-.09,0-.18-.05-.22-.13l-1.41-2.47c-.1-.17.03-.38.22-.38h2.85c.09-.01.18.04.22.11l1.44,2.49c.1.17-.02.38-.22.38Z"/>
        <path class="cls-7" d="M22.03,43.17h-2.87c-.09,0-.18-.05-.22-.13l-1.41-2.47c-.1-.17.03-.38.22-.38h2.85c.09-.01.18.04.22.11l1.44,2.49c.1.17-.02.38-.22.38Z"/>
      </g>
      <g>
        <path class="cls-10" d="M16.8,43.17h-2.87c-.09,0-.18-.05-.22-.13l-1.41-2.47c-.1-.17.03-.38.22-.38h2.85c.09-.01.18.04.22.11l1.44,2.49c.1.17-.02.38-.22.38Z"/>
        <path class="cls-7" d="M16.8,43.17h-2.87c-.09,0-.18-.05-.22-.13l-1.41-2.47c-.1-.17.03-.38.22-.38h2.85c.09-.01.18.04.22.11l1.44,2.49c.1.17-.02.38-.22.38Z"/>
      </g>
      <g>
        <path class="cls-10" d="M11.56,43.17h-2.87c-.09,0-.18-.05-.22-.13l-1.41-2.47c-.1-.17.03-.38.22-.38h2.85c.09-.01.18.04.22.11l1.44,2.49c.1.17-.02.38-.22.38Z"/>
        <path class="cls-7" d="M11.56,43.17h-2.87c-.09,0-.18-.05-.22-.13l-1.41-2.47c-.1-.17.03-.38.22-.38h2.85c.09-.01.18.04.22.11l1.44,2.49c.1.17-.02.38-.22.38Z"/>
      </g>
      <g>
        <path class="cls-10" d="M40.35,38.64h-2.87c-.09,0-.18-.05-.22-.13l-1.41-2.47c-.1-.17.03-.38.22-.38h2.85c.09-.01.18.04.22.11l1.44,2.49c.1.17-.02.38-.22.38Z"/>
        <path class="cls-7" d="M40.35,38.64h-2.87c-.09,0-.18-.05-.22-.13l-1.41-2.47c-.1-.17.03-.38.22-.38h2.85c.09-.01.18.04.22.11l1.44,2.49c.1.17-.02.38-.22.38Z"/>
      </g>
      <g>
        <path class="cls-10" d="M35.12,38.64h-2.87c-.09,0-.18-.05-.22-.13l-1.41-2.47c-.1-.17.03-.38.22-.38h2.85c.09-.01.18.04.22.11l1.44,2.49c.1.17-.02.38-.22.38Z"/>
        <path class="cls-7" d="M35.12,38.64h-2.87c-.09,0-.18-.05-.22-.13l-1.41-2.47c-.1-.17.03-.38.22-.38h2.85c.09-.01.18.04.22.11l1.44,2.49c.1.17-.02.38-.22.38Z"/>
      </g>
      <g>
        <path class="cls-10" d="M29.88,38.64h-2.87c-.09,0-.18-.05-.22-.13l-1.41-2.47c-.1-.17.03-.38.22-.38h2.85c.09-.01.18.04.22.11l1.44,2.49c.1.17-.02.38-.22.38Z"/>
        <path class="cls-7" d="M29.88,38.64h-2.87c-.09,0-.18-.05-.22-.13l-1.41-2.47c-.1-.17.03-.38.22-.38h2.85c.09-.01.18.04.22.11l1.44,2.49c.1.17-.02.38-.22.38Z"/>
      </g>
      <g>
        <path class="cls-10" d="M24.65,38.64h-2.87c-.09,0-.18-.05-.22-.13l-1.41-2.47c-.1-.17.03-.38.22-.38h2.85c.09-.01.18.04.22.11l1.44,2.49c.1.17-.02.38-.22.38Z"/>
        <path class="cls-7" d="M24.65,38.64h-2.87c-.09,0-.18-.05-.22-.13l-1.41-2.47c-.1-.17.03-.38.22-.38h2.85c.09-.01.18.04.22.11l1.44,2.49c.1.17-.02.38-.22.38Z"/>
      </g>
      <g>
        <path class="cls-10" d="M19.41,38.64h-2.87c-.09,0-.18-.05-.22-.13l-1.41-2.47c-.1-.17.03-.38.22-.38h2.85c.09-.01.18.04.22.11l1.44,2.49c.1.17-.02.38-.22.38Z"/>
        <path class="cls-7" d="M19.41,38.64h-2.87c-.09,0-.18-.05-.22-.13l-1.41-2.47c-.1-.17.03-.38.22-.38h2.85c.09-.01.18.04.22.11l1.44,2.49c.1.17-.02.38-.22.38Z"/>
      </g>
      <g>
        <path class="cls-10" d="M14.18,38.64h-2.87c-.09,0-.18-.05-.22-.13l-1.41-2.47c-.1-.17.03-.38.22-.38h2.85c.09-.01.18.04.22.11l1.44,2.49c.1.17-.02.38-.22.38Z"/>
        <path class="cls-7" d="M14.18,38.64h-2.87c-.09,0-.18-.05-.22-.13l-1.41-2.47c-.1-.17.03-.38.22-.38h2.85c.09-.01.18.04.22.11l1.44,2.49c.1.17-.02.38-.22.38Z"/>
      </g>
      <g>
        <path class="cls-10" d="M37.74,34.11h-2.87c-.09,0-.18-.05-.22-.13l-1.41-2.47c-.1-.17.03-.38.22-.38h2.85c.09-.01.18.04.22.11l1.44,2.49c.1.17-.02.38-.22.38Z"/>
        <path class="cls-7" d="M37.74,34.11h-2.87c-.09,0-.18-.05-.22-.13l-1.41-2.47c-.1-.17.03-.38.22-.38h2.85c.09-.01.18.04.22.11l1.44,2.49c.1.17-.02.38-.22.38Z"/>
      </g>
      <g>
        <path class="cls-10" d="M32.5,34.11h-2.87c-.09,0-.18-.05-.22-.13l-1.41-2.47c-.1-.17.03-.38.22-.38h2.85c.09-.01.18.04.22.11l1.44,2.49c.1.17-.02.38-.22.38Z"/>
        <path class="cls-7" d="M32.5,34.11h-2.87c-.09,0-.18-.05-.22-.13l-1.41-2.47c-.1-.17.03-.38.22-.38h2.85c.09-.01.18.04.22.11l1.44,2.49c.1.17-.02.38-.22.38Z"/>
      </g>
      <g>
        <path class="cls-10" d="M27.27,34.11h-2.87c-.09,0-.18-.05-.22-.13l-1.41-2.47c-.1-.17.03-.38.22-.38h2.85c.09-.01.18.04.22.11l1.44,2.49c.1.17-.02.38-.22.38Z"/>
        <path class="cls-7" d="M27.27,34.11h-2.87c-.09,0-.18-.05-.22-.13l-1.41-2.47c-.1-.17.03-.38.22-.38h2.85c.09-.01.18.04.22.11l1.44,2.49c.1.17-.02.38-.22.38Z"/>
      </g>
      <g>
        <path class="cls-10" d="M22.03,34.11h-2.87c-.09,0-.18-.05-.22-.13l-1.41-2.47c-.1-.17.03-.38.22-.38h2.85c.09-.01.18.04.22.11l1.44,2.49c.1.17-.02.38-.22.38Z"/>
        <path class="cls-7" d="M22.03,34.11h-2.87c-.09,0-.18-.05-.22-.13l-1.41-2.47c-.1-.17.03-.38.22-.38h2.85c.09-.01.18.04.22.11l1.44,2.49c.1.17-.02.38-.22.38Z"/>
      </g>
      <g>
        <path class="cls-10" d="M35.12,29.57h-2.87c-.09,0-.18-.05-.22-.13l-1.41-2.47c-.1-.17.03-.38.22-.38h2.85c.09-.01.18.04.22.11l1.44,2.49c.1.17-.02.38-.22.38Z"/>
        <path class="cls-7" d="M35.12,29.57h-2.87c-.09,0-.18-.05-.22-.13l-1.41-2.47c-.1-.17.03-.38.22-.38h2.85c.09-.01.18.04.22.11l1.44,2.49c.1.17-.02.38-.22.38Z"/>
      </g>
      <g>
        <path class="cls-10" d="M29.88,29.57h-2.87c-.09,0-.18-.05-.22-.13l-1.41-2.47c-.1-.17.03-.38.22-.38h2.85c.09-.01.18.04.22.11l1.44,2.49c.1.17-.02.38-.22.38Z"/>
        <path class="cls-7" d="M29.88,29.57h-2.87c-.09,0-.18-.05-.22-.13l-1.41-2.47c-.1-.17.03-.38.22-.38h2.85c.09-.01.18.04.22.11l1.44,2.49c.1.17-.02.38-.22.38Z"/>
      </g>
      <g>
        <path class="cls-10" d="M24.65,29.57h-2.87c-.09,0-.18-.05-.22-.13l-1.41-2.47c-.1-.17.03-.38.22-.38h2.85c.09-.01.18.04.22.11l1.44,2.49c.1.17-.02.38-.22.38Z"/>
        <path class="cls-7" d="M24.65,29.57h-2.87c-.09,0-.18-.05-.22-.13l-1.41-2.47c-.1-.17.03-.38.22-.38h2.85c.09-.01.18.04.22.11l1.44,2.49c.1.17-.02.38-.22.38Z"/>
      </g>
      <g>
        <path class="cls-10" d="M19.41,29.57h-3.41c-.09,0-.18-.05-.22-.13-.54-.9-.96-1.73-1.27-2.5-.07-.17.05-.35.23-.35.81,0,2.69-.01,3.23-.01.09,0,.18.05.22.13l1.44,2.49c.1.17-.02.38-.22.38Z"/>
        <path class="cls-7" d="M19.41,29.57h-3.41c-.09,0-.18-.05-.22-.13-.54-.9-.96-1.73-1.27-2.5-.07-.17.05-.35.23-.35.81,0,2.69-.01,3.23-.01.09,0,.18.05.22.13l1.44,2.49c.1.17-.02.38-.22.38Z"/>
      </g>
      <g>
        <path class="cls-10" d="M32.5,25.04h-2.87c-.09,0-.18-.05-.22-.13l-1.41-2.47c-.1-.17.03-.38.22-.38h2.85c.09-.01.18.04.22.11l1.44,2.49c.1.17-.02.38-.22.38Z"/>
        <path class="cls-7" d="M32.5,25.04h-2.87c-.09,0-.18-.05-.22-.13l-1.41-2.47c-.1-.17.03-.38.22-.38h2.85c.09-.01.18.04.22.11l1.44,2.49c.1.17-.02.38-.22.38Z"/>
      </g>
      <g>
        <path class="cls-10" d="M27.27,25.04h-2.87c-.09,0-.18-.05-.22-.13l-1.41-2.47c-.1-.17.03-.38.22-.38h2.85c.09-.01.18.04.22.11l1.44,2.49c.1.17-.02.38-.22.38Z"/>
        <path class="cls-7" d="M27.27,25.04h-2.87c-.09,0-.18-.05-.22-.13l-1.41-2.47c-.1-.17.03-.38.22-.38h2.85c.09-.01.18.04.22.11l1.44,2.49c.1.17-.02.38-.22.38Z"/>
      </g>
      <g>
        <path class="cls-10" d="M22.03,25.04h-2.87c-.09,0-.18-.05-.22-.13l-1.41-2.47c-.1-.17.03-.38.22-.38h2.85c.09-.01.18.04.22.11l1.44,2.49c.1.17-.02.38-.22.38Z"/>
        <path class="cls-7" d="M22.03,25.04h-2.87c-.09,0-.18-.05-.22-.13l-1.41-2.47c-.1-.17.03-.38.22-.38h2.85c.09-.01.18.04.22.11l1.44,2.49c.1.17-.02.38-.22.38Z"/>
      </g>
      <g>
        <path class="cls-10" d="M16.8,25.04h-2.53c-.13,0-.24-.09-.26-.22-.1-.83-.06-1.69.12-2.56.02-.12.13-.2.25-.21h.97c.09,0,.18.04.22.12l1.44,2.49c.1.17-.02.38-.22.38Z"/>
        <path class="cls-7" d="M16.8,25.04h-2.53c-.13,0-.24-.09-.26-.22-.1-.83-.06-1.69.12-2.56.02-.12.13-.2.25-.21h.97c.09,0,.18.04.22.12l1.44,2.49c.1.17-.02.38-.22.38Z"/>
      </g>
      <g>
        <path class="cls-10" d="M29.88,20.51h-2.87c-.09,0-.18-.05-.22-.13l-1.41-2.47c-.1-.17.03-.38.22-.38h2.85c.09-.01.18.04.22.11l1.44,2.49c.1.17-.02.38-.22.38Z"/>
        <path class="cls-7" d="M29.88,20.51h-2.87c-.09,0-.18-.05-.22-.13l-1.41-2.47c-.1-.17.03-.38.22-.38h2.85c.09-.01.18.04.22.11l1.44,2.49c.1.17-.02.38-.22.38Z"/>
      </g>
      <g>
        <path class="cls-10" d="M24.65,20.51h-2.87c-.09,0-.18-.05-.22-.13l-1.41-2.47c-.1-.17.03-.38.22-.38h2.85c.09-.01.18.04.22.11l1.44,2.49c.1.17-.02.38-.22.38Z"/>
        <path class="cls-7" d="M24.65,20.51h-2.87c-.09,0-.18-.05-.22-.13l-1.41-2.47c-.1-.17.03-.38.22-.38h2.85c.09-.01.18.04.22.11l1.44,2.49c.1.17-.02.38-.22.38Z"/>
      </g>
      <g>
        <path class="cls-10" d="M19.41,20.51h-2.87c-.09,0-.18-.05-.22-.13l-.74-1.3c-.05-.09-.04-.19.01-.28.32-.45.65-.87,1.01-1.22.05-.05.11-.07.18-.07.25,0,.9,0,1.19,0,.09,0,.18.05.22.13l1.44,2.49c.1.17-.02.38-.22.38Z"/>
        <path class="cls-7" d="M19.41,20.51h-2.87c-.09,0-.18-.05-.22-.13l-.74-1.3c-.05-.09-.04-.19.01-.28.32-.45.65-.87,1.01-1.22.05-.05.11-.07.18-.07.25,0,.9,0,1.19,0,.09,0,.18.05.22.13l1.44,2.49c.1.17-.02.38-.22.38Z"/>
      </g>
      <g>
        <path class="cls-10" d="M23.64,14.92s1.18-.13,2.96.68c.26.12.16.5-.12.49l-2.1-.1c-.09,0-.17-.05-.21-.13l-.54-.94"/>
        <path class="cls-7" d="M23.64,14.92s1.18-.13,2.96.68c.26.12.16.5-.12.49l-2.1-.1c-.09,0-.17-.05-.21-.13l-.54-.94"/>
      </g>
      <g>
        <path class="cls-10" d="M22.03,15.97h-2.09c-.28,0-.36-.39-.09-.5.58-.22,1.2-.38,1.87-.48.1-.01.21.04.26.13l.24.42c.12.22,0,.43-.2.43Z"/>
        <path class="cls-7" d="M22.03,15.97h-2.09c-.28,0-.36-.39-.09-.5.58-.22,1.2-.38,1.87-.48.1-.01.21.04.26.13l.24.42c.12.22,0,.43-.2.43Z"/>
      </g>
      <g>
        <path class="cls-10" d="M17.02,33.72l-1.7-2.95c-.05-.08-.13-.13-.22-.13-1.05-.02-1.98.04-2.8.15-.18.03-.28.22-.19.38.4.7,1.33,2.33,1.6,2.8.05.08.13.13.22.13h2.87c.2,0,.32-.21.22-.38Z"/>
        <path class="cls-7" d="M17.02,33.72l-1.7-2.95c-.05-.08-.13-.13-.22-.13-1.05-.02-1.98.04-2.8.15-.18.03-.28.22-.19.38.4.7,1.33,2.33,1.6,2.8.05.08.13.13.22.13h2.87c.2,0,.32-.21.22-.38Z"/>
      </g>
      <g>
        <path class="cls-10" d="M11.78,33.72l-1.26-2.19c-.06-.11-.2-.16-.32-.11-.77.33-1.49.8-2.16,1.39-.09.08-.11.22-.05.32l.48.84c.05.08.13.13.22.13h2.87c.2,0,.32-.21.22-.38Z"/>
        <path class="cls-7" d="M11.78,33.72l-1.26-2.19c-.06-.11-.2-.16-.32-.11-.77.33-1.49.8-2.16,1.39-.09.08-.11.22-.05.32l.48.84c.05.08.13.13.22.13h2.87c.2,0,.32-.21.22-.38Z"/>
      </g>
      <g>
        <path class="cls-10" d="M9.17,38.26l-1.44-2.49c-.05-.08-.13-.13-.22-.13h-1.49c-.1,0-.19.07-.23.16-.23.5-.42,1-.55,1.49-.02.06,0,.13.03.19.13.22.45.78.59,1.04.05.08.13.13.22.13h2.87c.2,0,.32-.21.22-.38Z"/>
        <path class="cls-7" d="M9.17,38.26l-1.44-2.49c-.05-.08-.13-.13-.22-.13h-1.49c-.1,0-.19.07-.23.16-.23.5-.42,1-.55,1.49-.02.06,0,.13.03.19.13.22.45.78.59,1.04.05.08.13.13.22.13h2.87c.2,0,.32-.21.22-.38Z"/>
      </g>
      <g>
        <path class="cls-10" d="M6.44,44.72s.48,1.09,2.07,2.23c.23.16.52-.11.36-.35l-1.14-1.77c-.05-.07-.13-.12-.22-.12h-1.08"/>
        <path class="cls-7" d="M6.44,44.72s.48,1.09,2.07,2.23c.23.16.52-.11.36-.35l-1.14-1.77c-.05-.07-.13-.12-.22-.12h-1.08"/>
      </g>
      <g>
        <path class="cls-10" d="M6.55,42.79l-1.05-1.81c-.14-.25-.52-.11-.48.17.1.61.27,1.23.52,1.86.04.1.14.16.24.16h.49c.25,0,.37-.21.27-.38Z"/>
        <path class="cls-7" d="M6.55,42.79l-1.05-1.81c-.14-.25-.52-.11-.48.17.1.61.27,1.23.52,1.86.04.1.14.16.24.16h.49c.25,0,.37-.21.27-.38Z"/>
      </g>
      <g>
        <path class="cls-10" d="M54.41,52.29h2.87c.09,0,.18.05.22.13l1.41,2.47c.1.17-.03.38-.22.38h-2.85c-.09.01-.18-.04-.22-.11l-1.44-2.49c-.1-.17.02-.38.22-.38Z"/>
        <path class="cls-7" d="M54.41,52.29h2.87c.09,0,.18.05.22.13l1.41,2.47c.1.17-.03.38-.22.38h-2.85c-.09.01-.18-.04-.22-.11l-1.44-2.49c-.1-.17.02-.38.22-.38Z"/>
      </g>
      <g>
        <path class="cls-10" d="M59.65,52.29h2.87c.09,0,.18.05.22.13l1.41,2.47c.1.17-.03.38-.22.38h-2.85c-.09.01-.18-.04-.22-.11l-1.44-2.49c-.1-.17.02-.38.22-.38Z"/>
        <path class="cls-7" d="M59.65,52.29h2.87c.09,0,.18.05.22.13l1.41,2.47c.1.17-.03.38-.22.38h-2.85c-.09.01-.18-.04-.22-.11l-1.44-2.49c-.1-.17.02-.38.22-.38Z"/>
      </g>
      <g>
        <path class="cls-10" d="M64.88,52.29h2.87c.09,0,.18.05.22.13l1.41,2.47c.1.17-.03.38-.22.38h-2.85c-.09.01-.18-.04-.22-.11l-1.44-2.49c-.1-.17.02-.38.22-.38Z"/>
        <path class="cls-7" d="M64.88,52.29h2.87c.09,0,.18.05.22.13l1.41,2.47c.1.17-.03.38-.22.38h-2.85c-.09.01-.18-.04-.22-.11l-1.44-2.49c-.1-.17.02-.38.22-.38Z"/>
      </g>
      <g>
        <path class="cls-10" d="M70.12,52.29h2.87c.09,0,.18.05.22.13l1.41,2.47c.1.17-.03.38-.22.38h-2.85c-.09.01-.18-.04-.22-.11l-1.44-2.49c-.1-.17.02-.38.22-.38Z"/>
        <path class="cls-7" d="M70.12,52.29h2.87c.09,0,.18.05.22.13l1.41,2.47c.1.17-.03.38-.22.38h-2.85c-.09.01-.18-.04-.22-.11l-1.44-2.49c-.1-.17.02-.38.22-.38Z"/>
      </g>
      <g>
        <path class="cls-10" d="M75.35,52.29h2.87c.09,0,.18.05.22.13l1.41,2.47c.1.17-.03.38-.22.38h-2.85c-.09.01-.18-.04-.22-.11l-1.44-2.49c-.1-.17.02-.38.22-.38Z"/>
        <path class="cls-7" d="M75.35,52.29h2.87c.09,0,.18.05.22.13l1.41,2.47c.1.17-.03.38-.22.38h-2.85c-.09.01-.18-.04-.22-.11l-1.44-2.49c-.1-.17.02-.38.22-.38Z"/>
      </g>
      <g>
        <path class="cls-10" d="M80.59,52.29h2.87c.09,0,.18.05.22.13l1.41,2.47c.1.17-.03.38-.22.38h-2.85c-.09.01-.18-.04-.22-.11l-1.44-2.49c-.1-.17.02-.38.22-.38Z"/>
        <path class="cls-7" d="M80.59,52.29h2.87c.09,0,.18.05.22.13l1.41,2.47c.1.17-.03.38-.22.38h-2.85c-.09.01-.18-.04-.22-.11l-1.44-2.49c-.1-.17.02-.38.22-.38Z"/>
      </g>
      <g>
        <path class="cls-10" d="M85.82,52.29h2.87c.09,0,.18.05.22.13l1.41,2.47c.1.17-.03.38-.22.38h-2.85c-.09.01-.18-.04-.22-.11l-1.44-2.49c-.1-.17.02-.38.22-.38Z"/>
        <path class="cls-7" d="M85.82,52.29h2.87c.09,0,.18.05.22.13l1.41,2.47c.1.17-.03.38-.22.38h-2.85c-.09.01-.18-.04-.22-.11l-1.44-2.49c-.1-.17.02-.38.22-.38Z"/>
      </g>
      <g>
        <path class="cls-10" d="M57.03,56.83h2.87c.09,0,.18.05.22.13l1.41,2.47c.1.17-.03.38-.22.38h-2.85c-.09.01-.18-.04-.22-.11l-1.44-2.49c-.1-.17.02-.38.22-.38Z"/>
        <path class="cls-7" d="M57.03,56.83h2.87c.09,0,.18.05.22.13l1.41,2.47c.1.17-.03.38-.22.38h-2.85c-.09.01-.18-.04-.22-.11l-1.44-2.49c-.1-.17.02-.38.22-.38Z"/>
      </g>
      <g>
        <path class="cls-10" d="M62.26,56.83h2.87c.09,0,.18.05.22.13l1.41,2.47c.1.17-.03.38-.22.38h-2.85c-.09.01-.18-.04-.22-.11l-1.44-2.49c-.1-.17.02-.38.22-.38Z"/>
        <path class="cls-7" d="M62.26,56.83h2.87c.09,0,.18.05.22.13l1.41,2.47c.1.17-.03.38-.22.38h-2.85c-.09.01-.18-.04-.22-.11l-1.44-2.49c-.1-.17.02-.38.22-.38Z"/>
      </g>
      <g>
        <path class="cls-10" d="M67.5,56.83h2.87c.09,0,.18.05.22.13l1.41,2.47c.1.17-.03.38-.22.38h-2.85c-.09.01-.18-.04-.22-.11l-1.44-2.49c-.1-.17.02-.38.22-.38Z"/>
        <path class="cls-7" d="M67.5,56.83h2.87c.09,0,.18.05.22.13l1.41,2.47c.1.17-.03.38-.22.38h-2.85c-.09.01-.18-.04-.22-.11l-1.44-2.49c-.1-.17.02-.38.22-.38Z"/>
      </g>
      <g>
        <path class="cls-10" d="M72.73,56.83h2.87c.09,0,.18.05.22.13l1.41,2.47c.1.17-.03.38-.22.38h-2.85c-.09.01-.18-.04-.22-.11l-1.44-2.49c-.1-.17.02-.38.22-.38Z"/>
        <path class="cls-7" d="M72.73,56.83h2.87c.09,0,.18.05.22.13l1.41,2.47c.1.17-.03.38-.22.38h-2.85c-.09.01-.18-.04-.22-.11l-1.44-2.49c-.1-.17.02-.38.22-.38Z"/>
      </g>
      <g>
        <path class="cls-10" d="M77.97,56.83h2.87c.09,0,.18.05.22.13l1.41,2.47c.1.17-.03.38-.22.38h-2.85c-.09.01-.18-.04-.22-.11l-1.44-2.49c-.1-.17.02-.38.22-.38Z"/>
        <path class="cls-7" d="M77.97,56.83h2.87c.09,0,.18.05.22.13l1.41,2.47c.1.17-.03.38-.22.38h-2.85c-.09.01-.18-.04-.22-.11l-1.44-2.49c-.1-.17.02-.38.22-.38Z"/>
      </g>
      <g>
        <path class="cls-10" d="M83.2,56.83h2.87c.09,0,.18.05.22.13l1.41,2.47c.1.17-.03.38-.22.38h-2.85c-.09.01-.18-.04-.22-.11l-1.44-2.49c-.1-.17.02-.38.22-.38Z"/>
        <path class="cls-7" d="M83.2,56.83h2.87c.09,0,.18.05.22.13l1.41,2.47c.1.17-.03.38-.22.38h-2.85c-.09.01-.18-.04-.22-.11l-1.44-2.49c-.1-.17.02-.38.22-.38Z"/>
      </g>
      <g>
        <path class="cls-10" d="M88.44,56.83h2.87c.09,0,.18.05.22.13l1.41,2.47c.1.17-.03.38-.22.38h-2.85c-.09.01-.18-.04-.22-.11l-1.44-2.49c-.1-.17.02-.38.22-.38Z"/>
        <path class="cls-7" d="M88.44,56.83h2.87c.09,0,.18.05.22.13l1.41,2.47c.1.17-.03.38-.22.38h-2.85c-.09.01-.18-.04-.22-.11l-1.44-2.49c-.1-.17.02-.38.22-.38Z"/>
      </g>
      <g>
        <path class="cls-10" d="M59.65,61.36h2.87c.09,0,.18.05.22.13l1.41,2.47c.1.17-.03.38-.22.38h-2.85c-.09.01-.18-.04-.22-.11l-1.44-2.49c-.1-.17.02-.38.22-.38Z"/>
        <path class="cls-7" d="M59.65,61.36h2.87c.09,0,.18.05.22.13l1.41,2.47c.1.17-.03.38-.22.38h-2.85c-.09.01-.18-.04-.22-.11l-1.44-2.49c-.1-.17.02-.38.22-.38Z"/>
      </g>
      <g>
        <path class="cls-10" d="M64.88,61.36h2.87c.09,0,.18.05.22.13l1.41,2.47c.1.17-.03.38-.22.38h-2.85c-.09.01-.18-.04-.22-.11l-1.44-2.49c-.1-.17.02-.38.22-.38Z"/>
        <path class="cls-7" d="M64.88,61.36h2.87c.09,0,.18.05.22.13l1.41,2.47c.1.17-.03.38-.22.38h-2.85c-.09.01-.18-.04-.22-.11l-1.44-2.49c-.1-.17.02-.38.22-.38Z"/>
      </g>
      <g>
        <path class="cls-10" d="M70.12,61.36h2.87c.09,0,.18.05.22.13l1.41,2.47c.1.17-.03.38-.22.38h-2.85c-.09.01-.18-.04-.22-.11l-1.44-2.49c-.1-.17.02-.38.22-.38Z"/>
        <path class="cls-7" d="M70.12,61.36h2.87c.09,0,.18.05.22.13l1.41,2.47c.1.17-.03.38-.22.38h-2.85c-.09.01-.18-.04-.22-.11l-1.44-2.49c-.1-.17.02-.38.22-.38Z"/>
      </g>
      <g>
        <path class="cls-10" d="M75.35,61.36h2.87c.09,0,.18.05.22.13l1.41,2.47c.1.17-.03.38-.22.38h-2.85c-.09.01-.18-.04-.22-.11l-1.44-2.49c-.1-.17.02-.38.22-.38Z"/>
        <path class="cls-7" d="M75.35,61.36h2.87c.09,0,.18.05.22.13l1.41,2.47c.1.17-.03.38-.22.38h-2.85c-.09.01-.18-.04-.22-.11l-1.44-2.49c-.1-.17.02-.38.22-.38Z"/>
      </g>
      <g>
        <path class="cls-10" d="M80.59,61.36h2.87c.09,0,.18.05.22.13l1.41,2.47c.1.17-.03.38-.22.38h-2.85c-.09.01-.18-.04-.22-.11l-1.44-2.49c-.1-.17.02-.38.22-.38Z"/>
        <path class="cls-7" d="M80.59,61.36h2.87c.09,0,.18.05.22.13l1.41,2.47c.1.17-.03.38-.22.38h-2.85c-.09.01-.18-.04-.22-.11l-1.44-2.49c-.1-.17.02-.38.22-.38Z"/>
      </g>
      <g>
        <path class="cls-10" d="M85.82,61.36h2.87c.09,0,.18.05.22.13l1.41,2.47c.1.17-.03.38-.22.38h-2.85c-.09.01-.18-.04-.22-.11l-1.44-2.49c-.1-.17.02-.38.22-.38Z"/>
        <path class="cls-7" d="M85.82,61.36h2.87c.09,0,.18.05.22.13l1.41,2.47c.1.17-.03.38-.22.38h-2.85c-.09.01-.18-.04-.22-.11l-1.44-2.49c-.1-.17.02-.38.22-.38Z"/>
      </g>
      <g>
        <path class="cls-10" d="M62.26,65.89h2.87c.09,0,.18.05.22.13l1.41,2.47c.1.17-.03.38-.22.38h-2.85c-.09.01-.18-.04-.22-.11l-1.44-2.49c-.1-.17.02-.38.22-.38Z"/>
        <path class="cls-7" d="M62.26,65.89h2.87c.09,0,.18.05.22.13l1.41,2.47c.1.17-.03.38-.22.38h-2.85c-.09.01-.18-.04-.22-.11l-1.44-2.49c-.1-.17.02-.38.22-.38Z"/>
      </g>
      <g>
        <path class="cls-10" d="M67.5,65.89h2.87c.09,0,.18.05.22.13l1.41,2.47c.1.17-.03.38-.22.38h-2.85c-.09.01-.18-.04-.22-.11l-1.44-2.49c-.1-.17.02-.38.22-.38Z"/>
        <path class="cls-7" d="M67.5,65.89h2.87c.09,0,.18.05.22.13l1.41,2.47c.1.17-.03.38-.22.38h-2.85c-.09.01-.18-.04-.22-.11l-1.44-2.49c-.1-.17.02-.38.22-.38Z"/>
      </g>
      <g>
        <path class="cls-10" d="M72.73,65.89h2.87c.09,0,.18.05.22.13l1.41,2.47c.1.17-.03.38-.22.38h-2.85c-.09.01-.18-.04-.22-.11l-1.44-2.49c-.1-.17.02-.38.22-.38Z"/>
        <path class="cls-7" d="M72.73,65.89h2.87c.09,0,.18.05.22.13l1.41,2.47c.1.17-.03.38-.22.38h-2.85c-.09.01-.18-.04-.22-.11l-1.44-2.49c-.1-.17.02-.38.22-.38Z"/>
      </g>
      <g>
        <path class="cls-10" d="M77.97,65.89h2.87c.09,0,.18.05.22.13l1.41,2.47c.1.17-.03.38-.22.38h-2.85c-.09.01-.18-.04-.22-.11l-1.44-2.49c-.1-.17.02-.38.22-.38Z"/>
        <path class="cls-7" d="M77.97,65.89h2.87c.09,0,.18.05.22.13l1.41,2.47c.1.17-.03.38-.22.38h-2.85c-.09.01-.18-.04-.22-.11l-1.44-2.49c-.1-.17.02-.38.22-.38Z"/>
      </g>
      <g>
        <path class="cls-10" d="M64.88,70.43h2.87c.09,0,.18.05.22.13l1.41,2.47c.1.17-.03.38-.22.38h-2.85c-.09.01-.18-.04-.22-.11l-1.44-2.49c-.1-.17.02-.38.22-.38Z"/>
        <path class="cls-7" d="M64.88,70.43h2.87c.09,0,.18.05.22.13l1.41,2.47c.1.17-.03.38-.22.38h-2.85c-.09.01-.18-.04-.22-.11l-1.44-2.49c-.1-.17.02-.38.22-.38Z"/>
      </g>
      <g>
        <path class="cls-10" d="M70.12,70.43h2.87c.09,0,.18.05.22.13l1.41,2.47c.1.17-.03.38-.22.38h-2.85c-.09.01-.18-.04-.22-.11l-1.44-2.49c-.1-.17.02-.38.22-.38Z"/>
        <path class="cls-7" d="M70.12,70.43h2.87c.09,0,.18.05.22.13l1.41,2.47c.1.17-.03.38-.22.38h-2.85c-.09.01-.18-.04-.22-.11l-1.44-2.49c-.1-.17.02-.38.22-.38Z"/>
      </g>
      <g>
        <path class="cls-10" d="M75.35,70.43h2.87c.09,0,.18.05.22.13l1.41,2.47c.1.17-.03.38-.22.38h-2.85c-.09.01-.18-.04-.22-.11l-1.44-2.49c-.1-.17.02-.38.22-.38Z"/>
        <path class="cls-7" d="M75.35,70.43h2.87c.09,0,.18.05.22.13l1.41,2.47c.1.17-.03.38-.22.38h-2.85c-.09.01-.18-.04-.22-.11l-1.44-2.49c-.1-.17.02-.38.22-.38Z"/>
      </g>
      <g>
        <path class="cls-10" d="M80.59,70.43h3.41c.09,0,.18.05.22.13.54.9.96,1.73,1.27,2.5.07.17-.05.35-.23.35h-3.22c-.09.02-.18-.03-.22-.11l-1.44-2.49c-.1-.17.02-.38.22-.38Z"/>
        <path class="cls-7" d="M80.59,70.43h3.41c.09,0,.18.05.22.13.54.9.96,1.73,1.27,2.5.07.17-.05.35-.23.35h-3.22c-.09.02-.18-.03-.22-.11l-1.44-2.49c-.1-.17.02-.38.22-.38Z"/>
      </g>
      <g>
        <path class="cls-10" d="M67.5,74.96h2.87c.09,0,.18.05.22.13l1.41,2.47c.1.17-.03.38-.22.38h-2.85c-.09.01-.18-.04-.22-.11l-1.44-2.49c-.1-.17.02-.38.22-.38Z"/>
        <path class="cls-7" d="M67.5,74.96h2.87c.09,0,.18.05.22.13l1.41,2.47c.1.17-.03.38-.22.38h-2.85c-.09.01-.18-.04-.22-.11l-1.44-2.49c-.1-.17.02-.38.22-.38Z"/>
      </g>
      <g>
        <path class="cls-10" d="M72.73,74.96h2.87c.09,0,.18.05.22.13l1.41,2.47c.1.17-.03.38-.22.38h-2.85c-.09.01-.18-.04-.22-.11l-1.44-2.49c-.1-.17.02-.38.22-.38Z"/>
        <path class="cls-7" d="M72.73,74.96h2.87c.09,0,.18.05.22.13l1.41,2.47c.1.17-.03.38-.22.38h-2.85c-.09.01-.18-.04-.22-.11l-1.44-2.49c-.1-.17.02-.38.22-.38Z"/>
      </g>
      <g>
        <path class="cls-10" d="M77.97,74.96h2.87c.09,0,.18.05.22.13l1.41,2.47c.1.17-.03.38-.22.38h-2.85c-.09.01-.18-.04-.22-.11l-1.44-2.49c-.1-.17.02-.38.22-.38Z"/>
        <path class="cls-7" d="M77.97,74.96h2.87c.09,0,.18.05.22.13l1.41,2.47c.1.17-.03.38-.22.38h-2.85c-.09.01-.18-.04-.22-.11l-1.44-2.49c-.1-.17.02-.38.22-.38Z"/>
      </g>
      <g>
        <path class="cls-10" d="M83.2,74.96h2.53c.13,0,.24.09.26.22.1.83.06,1.69-.12,2.56-.02.12-.13.2-.25.21h-.97c-.09,0-.18-.04-.22-.12l-1.44-2.49c-.1-.17.02-.38.22-.38Z"/>
        <path class="cls-7" d="M83.2,74.96h2.53c.13,0,.24.09.26.22.1.83.06,1.69-.12,2.56-.02.12-.13.2-.25.21h-.97c-.09,0-.18-.04-.22-.12l-1.44-2.49c-.1-.17.02-.38.22-.38Z"/>
      </g>
      <g>
        <path class="cls-10" d="M70.12,79.49h2.87c.09,0,.18.05.22.13l1.41,2.47c.1.17-.03.38-.22.38h-2.85c-.09.01-.18-.04-.22-.11l-1.44-2.49c-.1-.17.02-.38.22-.38Z"/>
        <path class="cls-7" d="M70.12,79.49h2.87c.09,0,.18.05.22.13l1.41,2.47c.1.17-.03.38-.22.38h-2.85c-.09.01-.18-.04-.22-.11l-1.44-2.49c-.1-.17.02-.38.22-.38Z"/>
      </g>
      <g>
        <path class="cls-10" d="M75.35,79.49h2.87c.09,0,.18.05.22.13l1.41,2.47c.1.17-.03.38-.22.38h-2.85c-.09.01-.18-.04-.22-.11l-1.44-2.49c-.1-.17.02-.38.22-.38Z"/>
        <path class="cls-7" d="M75.35,79.49h2.87c.09,0,.18.05.22.13l1.41,2.47c.1.17-.03.38-.22.38h-2.85c-.09.01-.18-.04-.22-.11l-1.44-2.49c-.1-.17.02-.38.22-.38Z"/>
      </g>
      <g>
        <path class="cls-10" d="M80.59,79.49h2.87c.09,0,.18.05.22.13l.74,1.3c.05.09.04.19-.01.28-.32.45-.65.87-1.01,1.22-.05.05-.11.07-.18.07-.25,0-.9,0-1.19,0-.09,0-.18-.05-.22-.13l-1.44-2.49c-.1-.17.02-.38.22-.38Z"/>
        <path class="cls-7" d="M80.59,79.49h2.87c.09,0,.18.05.22.13l.74,1.3c.05.09.04.19-.01.28-.32.45-.65.87-1.01,1.22-.05.05-.11.07-.18.07-.25,0-.9,0-1.19,0-.09,0-.18-.05-.22-.13l-1.44-2.49c-.1-.17.02-.38.22-.38Z"/>
      </g>
      <g>
        <path class="cls-10" d="M76.36,85.08s-1.18.13-2.96-.68c-.26-.12-.16-.5.12-.49l2.1.1c.09,0,.17.05.21.13l.54.94"/>
        <path class="cls-7" d="M76.36,85.08s-1.18.13-2.96-.68c-.26-.12-.16-.5.12-.49l2.1.1c.09,0,.17.05.21.13l.54.94"/>
      </g>
      <g>
        <path class="cls-10" d="M77.97,84.02h2.09c.28,0,.36.39.09.5-.58.22-1.2.38-1.87.48-.1.01-.21-.04-.26-.13l-.24-.42c-.12-.22,0-.43.2-.43Z"/>
        <path class="cls-7" d="M77.97,84.02h2.09c.28,0,.36.39.09.5-.58.22-1.2.38-1.87.48-.1.01-.21-.04-.26-.13l-.24-.42c-.12-.22,0-.43.2-.43Z"/>
      </g>
      <g>
        <path class="cls-10" d="M82.98,66.28l1.7,2.95c.05.08.13.13.22.13,1.05.02,1.98-.04,2.8-.15.18-.03.28-.22.19-.38l-1.6-2.8c-.05-.08-.13-.13-.22-.13h-2.87c-.2,0-.32.21-.22.38Z"/>
        <path class="cls-7" d="M82.98,66.28l1.7,2.95c.05.08.13.13.22.13,1.05.02,1.98-.04,2.8-.15.18-.03.28-.22.19-.38l-1.6-2.8c-.05-.08-.13-.13-.22-.13h-2.87c-.2,0-.32.21-.22.38Z"/>
      </g>
      <g>
        <path class="cls-10" d="M88.22,66.28l1.26,2.19c.06.11.2.16.32.11.77-.33,1.49-.8,2.16-1.39.09-.08.11-.22.05-.32l-.48-.84c-.05-.08-.13-.13-.22-.13h-2.87c-.2,0-.32.21-.22.38Z"/>
        <path class="cls-7" d="M88.22,66.28l1.26,2.19c.06.11.2.16.32.11.77-.33,1.49-.8,2.16-1.39.09-.08.11-.22.05-.32l-.48-.84c-.05-.08-.13-.13-.22-.13h-2.87c-.2,0-.32.21-.22.38Z"/>
      </g>
      <g>
        <path class="cls-10" d="M90.83,61.74l1.44,2.49c.05.08.13.13.22.13h1.49c.1,0,.19-.07.23-.16.23-.5.42-1,.55-1.49.02-.06,0-.13-.03-.19-.13-.22-.45-.78-.59-1.04-.05-.08-.13-.13-.22-.13h-2.87c-.2,0-.32.21-.22.38Z"/>
        <path class="cls-7" d="M90.83,61.74l1.44,2.49c.05.08.13.13.22.13h1.49c.1,0,.19-.07.23-.16.23-.5.42-1,.55-1.49.02-.06,0-.13-.03-.19-.13-.22-.45-.78-.59-1.04-.05-.08-.13-.13-.22-.13h-2.87c-.2,0-.32.21-.22.38Z"/>
      </g>
      <g>
        <path class="cls-10" d="M93.56,55.28s-.48-1.09-2.07-2.23c-.23-.16-.52.11-.36.35l1.14,1.77c.05.07.13.12.22.12h1.08"/>
        <path class="cls-7" d="M93.56,55.28s-.48-1.09-2.07-2.23c-.23-.16-.52.11-.36.35l1.14,1.77c.05.07.13.12.22.12h1.08"/>
      </g>
      <g>
        <path class="cls-10" d="M93.45,57.21l1.05,1.81c.14.25.52.11.48-.17-.1-.61-.27-1.23-.52-1.86-.04-.1-.14-.16-.24-.16h-.54c-.2,0-.32.21-.22.38Z"/>
        <path class="cls-7" d="M93.45,57.21l1.05,1.81c.14.25.52.11.48-.17-.1-.61-.27-1.23-.52-1.86-.04-.1-.14-.16-.24-.16h-.54c-.2,0-.32.21-.22.38Z"/>
      </g>
      <g>
        <path class="cls-10" d="M45.81,52.68l-1.44,2.49c-.05.08-.13.13-.22.13h-2.85c-.2-.01-.32-.23-.22-.4l1.41-2.47c.05-.08.13-.13.22-.13h2.87c.2,0,.32.21.22.38Z"/>
        <path class="cls-7" d="M45.81,52.68l-1.44,2.49c-.05.08-.13.13-.22.13h-2.85c-.2-.01-.32-.23-.22-.4l1.41-2.47c.05-.08.13-.13.22-.13h2.87c.2,0,.32.21.22.38Z"/>
      </g>
      <g>
        <path class="cls-10" d="M43.19,57.21l-1.44,2.49c-.05.08-.13.13-.22.13h-2.85c-.2-.01-.32-.23-.22-.4l1.41-2.47c.05-.08.13-.13.22-.13h2.87c.2,0,.32.21.22.38Z"/>
        <path class="cls-7" d="M43.19,57.21l-1.44,2.49c-.05.08-.13.13-.22.13h-2.85c-.2-.01-.32-.23-.22-.4l1.41-2.47c.05-.08.13-.13.22-.13h2.87c.2,0,.32.21.22.38Z"/>
      </g>
      <g>
        <path class="cls-10" d="M40.57,61.74l-1.44,2.49c-.05.08-.13.13-.22.13h-2.85c-.2-.01-.32-.23-.22-.4l1.41-2.47c.05-.08.13-.13.22-.13h2.87c.2,0,.32.21.22.38Z"/>
        <path class="cls-7" d="M40.57,61.74l-1.44,2.49c-.05.08-.13.13-.22.13h-2.85c-.2-.01-.32-.23-.22-.4l1.41-2.47c.05-.08.13-.13.22-.13h2.87c.2,0,.32.21.22.38Z"/>
      </g>
      <g>
        <path class="cls-10" d="M37.96,66.28l-1.44,2.49c-.05.08-.13.13-.22.13h-2.85c-.2-.01-.32-.23-.22-.4l1.41-2.47c.05-.08.13-.13.22-.13h2.87c.2,0,.32.21.22.38Z"/>
        <path class="cls-7" d="M37.96,66.28l-1.44,2.49c-.05.08-.13.13-.22.13h-2.85c-.2-.01-.32-.23-.22-.4l1.41-2.47c.05-.08.13-.13.22-.13h2.87c.2,0,.32.21.22.38Z"/>
      </g>
      <g>
        <path class="cls-10" d="M35.34,70.81l-1.44,2.49c-.05.08-.13.13-.22.13h-2.85c-.2-.01-.32-.23-.22-.4l1.41-2.47c.05-.08.13-.13.22-.13h2.87c.2,0,.32.21.22.38Z"/>
        <path class="cls-7" d="M35.34,70.81l-1.44,2.49c-.05.08-.13.13-.22.13h-2.85c-.2-.01-.32-.23-.22-.4l1.41-2.47c.05-.08.13-.13.22-.13h2.87c.2,0,.32.21.22.38Z"/>
      </g>
      <g>
        <path class="cls-10" d="M32.72,75.34l-1.44,2.49c-.05.08-.13.13-.22.13h-2.85c-.2-.01-.32-.23-.22-.4l1.41-2.47c.05-.08.13-.13.22-.13h2.87c.2,0,.32.21.22.38Z"/>
        <path class="cls-7" d="M32.72,75.34l-1.44,2.49c-.05.08-.13.13-.22.13h-2.85c-.2-.01-.32-.23-.22-.4l1.41-2.47c.05-.08.13-.13.22-.13h2.87c.2,0,.32.21.22.38Z"/>
      </g>
      <g>
        <path class="cls-10" d="M30.1,79.88l-1.44,2.49c-.05.08-.13.13-.22.13h-2.85c-.2-.01-.32-.23-.22-.4l1.41-2.47c.05-.08.13-.13.22-.13h2.87c.2,0,.32.21.22.38Z"/>
        <path class="cls-7" d="M30.1,79.88l-1.44,2.49c-.05.08-.13.13-.22.13h-2.85c-.2-.01-.32-.23-.22-.4l1.41-2.47c.05-.08.13-.13.22-.13h2.87c.2,0,.32.21.22.38Z"/>
      </g>
      <g>
        <path class="cls-10" d="M40.57,52.68l-1.44,2.49c-.05.08-.13.13-.22.13h-2.85c-.2-.01-.32-.23-.22-.4l1.41-2.47c.05-.08.13-.13.22-.13h2.87c.2,0,.32.21.22.38Z"/>
        <path class="cls-7" d="M40.57,52.68l-1.44,2.49c-.05.08-.13.13-.22.13h-2.85c-.2-.01-.32-.23-.22-.4l1.41-2.47c.05-.08.13-.13.22-.13h2.87c.2,0,.32.21.22.38Z"/>
      </g>
      <g>
        <path class="cls-10" d="M37.96,57.21l-1.44,2.49c-.05.08-.13.13-.22.13h-2.85c-.2-.01-.32-.23-.22-.4l1.41-2.47c.05-.08.13-.13.22-.13h2.87c.2,0,.32.21.22.38Z"/>
        <path class="cls-7" d="M37.96,57.21l-1.44,2.49c-.05.08-.13.13-.22.13h-2.85c-.2-.01-.32-.23-.22-.4l1.41-2.47c.05-.08.13-.13.22-.13h2.87c.2,0,.32.21.22.38Z"/>
      </g>
      <g>
        <path class="cls-10" d="M35.34,61.74l-1.44,2.49c-.05.08-.13.13-.22.13h-2.85c-.2-.01-.32-.23-.22-.4l1.41-2.47c.05-.08.13-.13.22-.13h2.87c.2,0,.32.21.22.38Z"/>
        <path class="cls-7" d="M35.34,61.74l-1.44,2.49c-.05.08-.13.13-.22.13h-2.85c-.2-.01-.32-.23-.22-.4l1.41-2.47c.05-.08.13-.13.22-.13h2.87c.2,0,.32.21.22.38Z"/>
      </g>
      <g>
        <path class="cls-10" d="M32.72,66.28l-1.44,2.49c-.05.08-.13.13-.22.13h-2.85c-.2-.01-.32-.23-.22-.4l1.41-2.47c.05-.08.13-.13.22-.13h2.87c.2,0,.32.21.22.38Z"/>
        <path class="cls-7" d="M32.72,66.28l-1.44,2.49c-.05.08-.13.13-.22.13h-2.85c-.2-.01-.32-.23-.22-.4l1.41-2.47c.05-.08.13-.13.22-.13h2.87c.2,0,.32.21.22.38Z"/>
      </g>
      <g>
        <path class="cls-10" d="M30.1,70.81l-1.44,2.49c-.05.08-.13.13-.22.13h-2.85c-.2-.01-.32-.23-.22-.4l1.41-2.47c.05-.08.13-.13.22-.13h2.87c.2,0,.32.21.22.38Z"/>
        <path class="cls-7" d="M30.1,70.81l-1.44,2.49c-.05.08-.13.13-.22.13h-2.85c-.2-.01-.32-.23-.22-.4l1.41-2.47c.05-.08.13-.13.22-.13h2.87c.2,0,.32.21.22.38Z"/>
      </g>
      <g>
        <path class="cls-10" d="M27.49,75.34l-1.44,2.49c-.05.08-.13.13-.22.13h-2.85c-.2-.01-.32-.23-.22-.4l1.41-2.47c.05-.08.13-.13.22-.13h2.87c.2,0,.32.21.22.38Z"/>
        <path class="cls-7" d="M27.49,75.34l-1.44,2.49c-.05.08-.13.13-.22.13h-2.85c-.2-.01-.32-.23-.22-.4l1.41-2.47c.05-.08.13-.13.22-.13h2.87c.2,0,.32.21.22.38Z"/>
      </g>
      <g>
        <path class="cls-10" d="M24.87,79.88l-1.44,2.49c-.05.08-.13.13-.22.13h-2.85c-.2-.01-.32-.23-.22-.4l1.41-2.47c.05-.08.13-.13.22-.13h2.87c.2,0,.32.21.22.38Z"/>
        <path class="cls-7" d="M24.87,79.88l-1.44,2.49c-.05.08-.13.13-.22.13h-2.85c-.2-.01-.32-.23-.22-.4l1.41-2.47c.05-.08.13-.13.22-.13h2.87c.2,0,.32.21.22.38Z"/>
      </g>
      <g>
        <path class="cls-10" d="M35.34,52.68l-1.44,2.49c-.05.08-.13.13-.22.13h-2.85c-.2-.01-.32-.23-.22-.4l1.41-2.47c.05-.08.13-.13.22-.13h2.87c.2,0,.32.21.22.38Z"/>
        <path class="cls-7" d="M35.34,52.68l-1.44,2.49c-.05.08-.13.13-.22.13h-2.85c-.2-.01-.32-.23-.22-.4l1.41-2.47c.05-.08.13-.13.22-.13h2.87c.2,0,.32.21.22.38Z"/>
      </g>
      <g>
        <path class="cls-10" d="M32.72,57.21l-1.44,2.49c-.05.08-.13.13-.22.13h-2.85c-.2-.01-.32-.23-.22-.4l1.41-2.47c.05-.08.13-.13.22-.13h2.87c.2,0,.32.21.22.38Z"/>
        <path class="cls-7" d="M32.72,57.21l-1.44,2.49c-.05.08-.13.13-.22.13h-2.85c-.2-.01-.32-.23-.22-.4l1.41-2.47c.05-.08.13-.13.22-.13h2.87c.2,0,.32.21.22.38Z"/>
      </g>
      <g>
        <path class="cls-10" d="M30.1,61.74l-1.44,2.49c-.05.08-.13.13-.22.13h-2.85c-.2-.01-.32-.23-.22-.4l1.41-2.47c.05-.08.13-.13.22-.13h2.87c.2,0,.32.21.22.38Z"/>
        <path class="cls-7" d="M30.1,61.74l-1.44,2.49c-.05.08-.13.13-.22.13h-2.85c-.2-.01-.32-.23-.22-.4l1.41-2.47c.05-.08.13-.13.22-.13h2.87c.2,0,.32.21.22.38Z"/>
      </g>
      <g>
        <path class="cls-10" d="M27.49,66.28l-1.44,2.49c-.05.08-.13.13-.22.13h-2.85c-.2-.01-.32-.23-.22-.4l1.41-2.47c.05-.08.13-.13.22-.13h2.87c.2,0,.32.21.22.38Z"/>
        <path class="cls-7" d="M27.49,66.28l-1.44,2.49c-.05.08-.13.13-.22.13h-2.85c-.2-.01-.32-.23-.22-.4l1.41-2.47c.05-.08.13-.13.22-.13h2.87c.2,0,.32.21.22.38Z"/>
      </g>
      <g>
        <path class="cls-10" d="M24.87,70.81l-1.44,2.49c-.05.08-.13.13-.22.13h-2.85c-.2-.01-.32-.23-.22-.4l1.41-2.47c.05-.08.13-.13.22-.13h2.87c.2,0,.32.21.22.38Z"/>
        <path class="cls-7" d="M24.87,70.81l-1.44,2.49c-.05.08-.13.13-.22.13h-2.85c-.2-.01-.32-.23-.22-.4l1.41-2.47c.05-.08.13-.13.22-.13h2.87c.2,0,.32.21.22.38Z"/>
      </g>
      <g>
        <path class="cls-10" d="M22.25,75.34l-1.44,2.49c-.05.08-.13.13-.22.13h-2.85c-.2-.01-.32-.23-.22-.4l1.41-2.47c.05-.08.13-.13.22-.13h2.87c.2,0,.32.21.22.38Z"/>
        <path class="cls-7" d="M22.25,75.34l-1.44,2.49c-.05.08-.13.13-.22.13h-2.85c-.2-.01-.32-.23-.22-.4l1.41-2.47c.05-.08.13-.13.22-.13h2.87c.2,0,.32.21.22.38Z"/>
      </g>
      <g>
        <path class="cls-10" d="M30.1,52.67l-1.44,2.49c-.05.08-.13.13-.22.13h-2.85c-.2-.01-.32-.23-.22-.4l1.41-2.47c.05-.08.13-.13.22-.13h2.87c.2,0,.32.21.22.38Z"/>
        <path class="cls-7" d="M30.1,52.67l-1.44,2.49c-.05.08-.13.13-.22.13h-2.85c-.2-.01-.32-.23-.22-.4l1.41-2.47c.05-.08.13-.13.22-.13h2.87c.2,0,.32.21.22.38Z"/>
      </g>
      <g>
        <path class="cls-10" d="M27.49,57.21l-1.44,2.49c-.05.08-.13.13-.22.13h-2.85c-.2-.01-.32-.23-.22-.4l1.41-2.47c.05-.08.13-.13.22-.13h2.87c.2,0,.32.21.22.38Z"/>
        <path class="cls-7" d="M27.49,57.21l-1.44,2.49c-.05.08-.13.13-.22.13h-2.85c-.2-.01-.32-.23-.22-.4l1.41-2.47c.05-.08.13-.13.22-.13h2.87c.2,0,.32.21.22.38Z"/>
      </g>
      <g>
        <path class="cls-10" d="M24.87,61.74l-1.44,2.49c-.05.08-.13.13-.22.13h-2.85c-.2-.01-.32-.23-.22-.4l1.41-2.47c.05-.08.13-.13.22-.13h2.87c.2,0,.32.21.22.38Z"/>
        <path class="cls-7" d="M24.87,61.74l-1.44,2.49c-.05.08-.13.13-.22.13h-2.85c-.2-.01-.32-.23-.22-.4l1.41-2.47c.05-.08.13-.13.22-.13h2.87c.2,0,.32.21.22.38Z"/>
      </g>
      <g>
        <path class="cls-10" d="M22.25,66.28l-1.44,2.49c-.05.08-.13.13-.22.13h-2.85c-.2-.01-.32-.23-.22-.4l1.41-2.47c.05-.08.13-.13.22-.13h2.87c.2,0,.32.21.22.38Z"/>
        <path class="cls-7" d="M22.25,66.28l-1.44,2.49c-.05.08-.13.13-.22.13h-2.85c-.2-.01-.32-.23-.22-.4l1.41-2.47c.05-.08.13-.13.22-.13h2.87c.2,0,.32.21.22.38Z"/>
      </g>
      <g>
        <path class="cls-10" d="M24.87,52.67l-1.44,2.49c-.05.08-.13.13-.22.13h-2.85c-.2-.01-.32-.23-.22-.4l1.41-2.47c.05-.08.13-.13.22-.13h2.87c.2,0,.32.21.22.38Z"/>
        <path class="cls-7" d="M24.87,52.67l-1.44,2.49c-.05.08-.13.13-.22.13h-2.85c-.2-.01-.32-.23-.22-.4l1.41-2.47c.05-.08.13-.13.22-.13h2.87c.2,0,.32.21.22.38Z"/>
      </g>
      <g>
        <path class="cls-10" d="M22.25,57.21l-1.44,2.49c-.05.08-.13.13-.22.13h-2.85c-.2-.01-.32-.23-.22-.4l1.41-2.47c.05-.08.13-.13.22-.13h2.87c.2,0,.32.21.22.38Z"/>
        <path class="cls-7" d="M22.25,57.21l-1.44,2.49c-.05.08-.13.13-.22.13h-2.85c-.2-.01-.32-.23-.22-.4l1.41-2.47c.05-.08.13-.13.22-.13h2.87c.2,0,.32.21.22.38Z"/>
      </g>
      <g>
        <path class="cls-10" d="M19.64,61.74l-1.44,2.49c-.05.08-.13.13-.22.13h-2.85c-.2-.01-.32-.23-.22-.4l1.41-2.47c.05-.08.13-.13.22-.13h2.87c.2,0,.32.21.22.38Z"/>
        <path class="cls-7" d="M19.64,61.74l-1.44,2.49c-.05.08-.13.13-.22.13h-2.85c-.2-.01-.32-.23-.22-.4l1.41-2.47c.05-.08.13-.13.22-.13h2.87c.2,0,.32.21.22.38Z"/>
      </g>
      <g>
        <path class="cls-10" d="M17.02,66.28l-1.7,2.95c-.05.08-.13.13-.22.13-1.05.02-1.98-.04-2.8-.15-.18-.03-.28-.22-.19-.38.4-.7,1.33-2.33,1.6-2.8.05-.08.13-.13.22-.13h2.87c.2,0,.32.21.22.38Z"/>
        <path class="cls-7" d="M17.02,66.28l-1.7,2.95c-.05.08-.13.13-.22.13-1.05.02-1.98-.04-2.8-.15-.18-.03-.28-.22-.19-.38.4-.7,1.33-2.33,1.6-2.8.05-.08.13-.13.22-.13h2.87c.2,0,.32.21.22.38Z"/>
      </g>
      <g>
        <path class="cls-10" d="M19.64,52.67l-1.44,2.49c-.05.08-.13.13-.22.13h-2.85c-.2-.01-.32-.23-.22-.4l1.41-2.47c.05-.08.13-.13.22-.13h2.87c.2,0,.32.21.22.38Z"/>
        <path class="cls-7" d="M19.64,52.67l-1.44,2.49c-.05.08-.13.13-.22.13h-2.85c-.2-.01-.32-.23-.22-.4l1.41-2.47c.05-.08.13-.13.22-.13h2.87c.2,0,.32.21.22.38Z"/>
      </g>
      <g>
        <path class="cls-10" d="M17.02,57.21l-1.44,2.49c-.05.08-.13.13-.22.13h-2.85c-.2-.01-.32-.23-.22-.4l1.41-2.47c.05-.08.13-.13.22-.13h2.87c.2,0,.32.21.22.38Z"/>
        <path class="cls-7" d="M17.02,57.21l-1.44,2.49c-.05.08-.13.13-.22.13h-2.85c-.2-.01-.32-.23-.22-.4l1.41-2.47c.05-.08.13-.13.22-.13h2.87c.2,0,.32.21.22.38Z"/>
      </g>
      <g>
        <path class="cls-10" d="M14.4,61.74l-1.44,2.49c-.05.08-.13.13-.22.13h-2.85c-.2-.01-.32-.23-.22-.4l1.41-2.47c.05-.08.13-.13.22-.13h2.87c.2,0,.32.21.22.38Z"/>
        <path class="cls-7" d="M14.4,61.74l-1.44,2.49c-.05.08-.13.13-.22.13h-2.85c-.2-.01-.32-.23-.22-.4l1.41-2.47c.05-.08.13-.13.22-.13h2.87c.2,0,.32.21.22.38Z"/>
      </g>
      <g>
        <path class="cls-10" d="M11.78,66.28l-1.26,2.19c-.06.11-.2.16-.32.11-.77-.33-1.49-.8-2.16-1.39-.09-.08-.11-.22-.05-.32l.48-.84c.05-.08.13-.13.22-.13h2.87c.2,0,.32.21.22.38Z"/>
        <path class="cls-7" d="M11.78,66.28l-1.26,2.19c-.06.11-.2.16-.32.11-.77-.33-1.49-.8-2.16-1.39-.09-.08-.11-.22-.05-.32l.48-.84c.05-.08.13-.13.22-.13h2.87c.2,0,.32.21.22.38Z"/>
      </g>
      <g>
        <path class="cls-10" d="M14.4,52.67l-1.44,2.49c-.05.08-.13.13-.22.13h-2.85c-.2-.01-.32-.23-.22-.4l1.41-2.47c.05-.08.13-.13.22-.13h2.87c.2,0,.32.21.22.38Z"/>
        <path class="cls-7" d="M14.4,52.67l-1.44,2.49c-.05.08-.13.13-.22.13h-2.85c-.2-.01-.32-.23-.22-.4l1.41-2.47c.05-.08.13-.13.22-.13h2.87c.2,0,.32.21.22.38Z"/>
      </g>
      <g>
        <path class="cls-10" d="M11.78,57.21l-1.44,2.49c-.05.08-.13.13-.22.13h-2.85c-.2-.01-.32-.23-.22-.4l1.41-2.47c.05-.08.13-.13.22-.13h2.87c.2,0,.32.21.22.38Z"/>
        <path class="cls-7" d="M11.78,57.21l-1.44,2.49c-.05.08-.13.13-.22.13h-2.85c-.2-.01-.32-.23-.22-.4l1.41-2.47c.05-.08.13-.13.22-.13h2.87c.2,0,.32.21.22.38Z"/>
      </g>
      <g>
        <path class="cls-10" d="M9.17,61.74l-1.44,2.49c-.05.08-.13.13-.22.13h-1.49c-.1,0-.19-.07-.23-.16-.23-.5-.42-1-.55-1.49-.02-.06,0-.13.03-.19.13-.22.45-.78.59-1.04.05-.08.13-.13.22-.13h2.87c.2,0,.32.21.22.38Z"/>
        <path class="cls-7" d="M9.17,61.74l-1.44,2.49c-.05.08-.13.13-.22.13h-1.49c-.1,0-.19-.07-.23-.16-.23-.5-.42-1-.55-1.49-.02-.06,0-.13.03-.19.13-.22.45-.78.59-1.04.05-.08.13-.13.22-.13h2.87c.2,0,.32.21.22.38Z"/>
      </g>
      <g>
        <path class="cls-10" d="M6.44,55.28s.48-1.09,2.07-2.23c.23-.16.52.11.36.35l-1.14,1.77c-.05.07-.13.12-.22.12h-1.08"/>
        <path class="cls-7" d="M6.44,55.28s.48-1.09,2.07-2.23c.23-.16.52.11.36.35l-1.14,1.77c-.05.07-.13.12-.22.12h-1.08"/>
      </g>
      <g>
        <path class="cls-10" d="M6.55,57.21l-1.05,1.81c-.14.25-.52.11-.48-.17.1-.61.27-1.23.52-1.86.04-.1.14-.16.24-.16h.49c.25,0,.37.21.27.38Z"/>
        <path class="cls-7" d="M6.55,57.21l-1.05,1.81c-.14.25-.52.11-.48-.17.1-.61.27-1.23.52-1.86.04-.1.14-.16.24-.16h.49c.25,0,.37.21.27.38Z"/>
      </g>
      <g>
        <path class="cls-10" d="M19.41,70.43h-3.41c-.09,0-.18.05-.22.13-.54.9-.96,1.73-1.27,2.5-.07.17.05.35.23.35.81,0,2.69.01,3.23.01.09,0,.18-.05.22-.13l1.44-2.49c.1-.17-.02-.38-.22-.38Z"/>
        <path class="cls-7" d="M19.41,70.43h-3.41c-.09,0-.18.05-.22.13-.54.9-.96,1.73-1.27,2.5-.07.17.05.35.23.35.81,0,2.69.01,3.23.01.09,0,.18-.05.22-.13l1.44-2.49c.1-.17-.02-.38-.22-.38Z"/>
      </g>
      <g>
        <path class="cls-10" d="M16.8,74.96h-2.53c-.13,0-.24.09-.26.22-.1.83-.06,1.69.12,2.56.02.12.13.2.25.21h.97c.09,0,.18-.04.22-.12l1.44-2.49c.1-.17-.02-.38-.22-.38Z"/>
        <path class="cls-7" d="M16.8,74.96h-2.53c-.13,0-.24.09-.26.22-.1.83-.06,1.69.12,2.56.02.12.13.2.25.21h.97c.09,0,.18-.04.22-.12l1.44-2.49c.1-.17-.02-.38-.22-.38Z"/>
      </g>
      <g>
        <path class="cls-10" d="M19.41,79.49h-2.87c-.09,0-.18.05-.22.13l-.74,1.3c-.05.09-.04.19.01.28.32.45.65.87,1.01,1.22.05.05.11.07.18.07.25,0,.9,0,1.19,0,.09,0,.18-.05.22-.13l1.44-2.49c.1-.17-.02-.38-.22-.38Z"/>
        <path class="cls-7" d="M19.41,79.49h-2.87c-.09,0-.18.05-.22.13l-.74,1.3c-.05.09-.04.19.01.28.32.45.65.87,1.01,1.22.05.05.11.07.18.07.25,0,.9,0,1.19,0,.09,0,.18-.05.22-.13l1.44-2.49c.1-.17-.02-.38-.22-.38Z"/>
      </g>
      <g>
        <path class="cls-10" d="M23.64,85.08s1.18.13,2.96-.68c.26-.12.16-.5-.12-.49l-2.1.1c-.09,0-.17.05-.21.13l-.54.94"/>
        <path class="cls-7" d="M23.64,85.08s1.18.13,2.96-.68c.26-.12.16-.5-.12-.49l-2.1.1c-.09,0-.17.05-.21.13l-.54.94"/>
      </g>
      <g>
        <path class="cls-10" d="M22.03,84.03h-2.09c-.28,0-.36.39-.09.5.58.22,1.2.38,1.87.48.1.01.21-.04.26-.13l.24-.42c.12-.22,0-.43-.2-.43Z"/>
        <path class="cls-7" d="M22.03,84.03h-2.09c-.28,0-.36.39-.09.5.58.22,1.2.38,1.87.48.1.01.21-.04.26-.13l.24-.42c.12-.22,0-.43-.2-.43Z"/>
      </g>
      <g>
        <path class="cls-10" d="M54.19,47.32l1.44-2.49c.05-.08.13-.13.22-.13h2.85c.2.01.32.23.22.4l-1.41,2.47c-.05.08-.13.13-.22.13h-2.87c-.2,0-.32-.21-.22-.38Z"/>
        <path class="cls-7" d="M54.19,47.32l1.44-2.49c.05-.08.13-.13.22-.13h2.85c.2.01.32.23.22.4l-1.41,2.47c-.05.08-.13.13-.22.13h-2.87c-.2,0-.32-.21-.22-.38Z"/>
      </g>
      <g>
        <path class="cls-10" d="M56.81,42.79l1.44-2.49c.05-.08.13-.13.22-.13h2.85c.2.01.32.23.22.4l-1.41,2.47c-.05.08-.13.13-.22.13h-2.87c-.2,0-.32-.21-.22-.38Z"/>
        <path class="cls-7" d="M56.81,42.79l1.44-2.49c.05-.08.13-.13.22-.13h2.85c.2.01.32.23.22.4l-1.41,2.47c-.05.08-.13.13-.22.13h-2.87c-.2,0-.32-.21-.22-.38Z"/>
      </g>
      <g>
        <path class="cls-10" d="M59.43,38.26l1.44-2.49c.05-.08.13-.13.22-.13h2.85c.2.01.32.23.22.4l-1.41,2.47c-.05.08-.13.13-.22.13h-2.87c-.2,0-.32-.21-.22-.38Z"/>
        <path class="cls-7" d="M59.43,38.26l1.44-2.49c.05-.08.13-.13.22-.13h2.85c.2.01.32.23.22.4l-1.41,2.47c-.05.08-.13.13-.22.13h-2.87c-.2,0-.32-.21-.22-.38Z"/>
      </g>
      <g>
        <path class="cls-10" d="M62.04,33.72l1.44-2.49c.05-.08.13-.13.22-.13h2.85c.2.01.32.23.22.4l-1.41,2.47c-.05.08-.13.13-.22.13h-2.87c-.2,0-.32-.21-.22-.38Z"/>
        <path class="cls-7" d="M62.04,33.72l1.44-2.49c.05-.08.13-.13.22-.13h2.85c.2.01.32.23.22.4l-1.41,2.47c-.05.08-.13.13-.22.13h-2.87c-.2,0-.32-.21-.22-.38Z"/>
      </g>
      <g>
        <path class="cls-10" d="M64.66,29.19l1.44-2.49c.05-.08.13-.13.22-.13h2.85c.2.01.32.23.22.4l-1.41,2.47c-.05.08-.13.13-.22.13h-2.87c-.2,0-.32-.21-.22-.38Z"/>
        <path class="cls-7" d="M64.66,29.19l1.44-2.49c.05-.08.13-.13.22-.13h2.85c.2.01.32.23.22.4l-1.41,2.47c-.05.08-.13.13-.22.13h-2.87c-.2,0-.32-.21-.22-.38Z"/>
      </g>
      <g>
        <path class="cls-10" d="M67.28,24.66l1.44-2.49c.05-.08.13-.13.22-.13h2.85c.2.01.32.23.22.4l-1.41,2.47c-.05.08-.13.13-.22.13h-2.87c-.2,0-.32-.21-.22-.38Z"/>
        <path class="cls-7" d="M67.28,24.66l1.44-2.49c.05-.08.13-.13.22-.13h2.85c.2.01.32.23.22.4l-1.41,2.47c-.05.08-.13.13-.22.13h-2.87c-.2,0-.32-.21-.22-.38Z"/>
      </g>
      <g>
        <path class="cls-10" d="M69.9,20.12l1.44-2.49c.05-.08.13-.13.22-.13h2.85c.2.01.32.23.22.4l-1.41,2.47c-.05.08-.13.13-.22.13h-2.87c-.2,0-.32-.21-.22-.38Z"/>
        <path class="cls-7" d="M69.9,20.12l1.44-2.49c.05-.08.13-.13.22-.13h2.85c.2.01.32.23.22.4l-1.41,2.47c-.05.08-.13.13-.22.13h-2.87c-.2,0-.32-.21-.22-.38Z"/>
      </g>
      <g>
        <path class="cls-10" d="M59.43,47.32l1.44-2.49c.05-.08.13-.13.22-.13h2.85c.2.01.32.23.22.4l-1.41,2.47c-.05.08-.13.13-.22.13h-2.87c-.2,0-.32-.21-.22-.38Z"/>
        <path class="cls-7" d="M59.43,47.32l1.44-2.49c.05-.08.13-.13.22-.13h2.85c.2.01.32.23.22.4l-1.41,2.47c-.05.08-.13.13-.22.13h-2.87c-.2,0-.32-.21-.22-.38Z"/>
      </g>
      <g>
        <path class="cls-10" d="M62.04,42.79l1.44-2.49c.05-.08.13-.13.22-.13h2.85c.2.01.32.23.22.4l-1.41,2.47c-.05.08-.13.13-.22.13h-2.87c-.2,0-.32-.21-.22-.38Z"/>
        <path class="cls-7" d="M62.04,42.79l1.44-2.49c.05-.08.13-.13.22-.13h2.85c.2.01.32.23.22.4l-1.41,2.47c-.05.08-.13.13-.22.13h-2.87c-.2,0-.32-.21-.22-.38Z"/>
      </g>
      <g>
        <path class="cls-10" d="M64.66,38.26l1.44-2.49c.05-.08.13-.13.22-.13h2.85c.2.01.32.23.22.4l-1.41,2.47c-.05.08-.13.13-.22.13h-2.87c-.2,0-.32-.21-.22-.38Z"/>
        <path class="cls-7" d="M64.66,38.26l1.44-2.49c.05-.08.13-.13.22-.13h2.85c.2.01.32.23.22.4l-1.41,2.47c-.05.08-.13.13-.22.13h-2.87c-.2,0-.32-.21-.22-.38Z"/>
      </g>
      <g>
        <path class="cls-10" d="M67.28,33.72l1.44-2.49c.05-.08.13-.13.22-.13h2.85c.2.01.32.23.22.4l-1.41,2.47c-.05.08-.13.13-.22.13h-2.87c-.2,0-.32-.21-.22-.38Z"/>
        <path class="cls-7" d="M67.28,33.72l1.44-2.49c.05-.08.13-.13.22-.13h2.85c.2.01.32.23.22.4l-1.41,2.47c-.05.08-.13.13-.22.13h-2.87c-.2,0-.32-.21-.22-.38Z"/>
      </g>
      <g>
        <path class="cls-10" d="M69.9,29.19l1.44-2.49c.05-.08.13-.13.22-.13h2.85c.2.01.32.23.22.4l-1.41,2.47c-.05.08-.13.13-.22.13h-2.87c-.2,0-.32-.21-.22-.38Z"/>
        <path class="cls-7" d="M69.9,29.19l1.44-2.49c.05-.08.13-.13.22-.13h2.85c.2.01.32.23.22.4l-1.41,2.47c-.05.08-.13.13-.22.13h-2.87c-.2,0-.32-.21-.22-.38Z"/>
      </g>
      <g>
        <path class="cls-10" d="M72.51,24.66l1.44-2.49c.05-.08.13-.13.22-.13h2.85c.2.01.32.23.22.4l-1.41,2.47c-.05.08-.13.13-.22.13h-2.87c-.2,0-.32-.21-.22-.38Z"/>
        <path class="cls-7" d="M72.51,24.66l1.44-2.49c.05-.08.13-.13.22-.13h2.85c.2.01.32.23.22.4l-1.41,2.47c-.05.08-.13.13-.22.13h-2.87c-.2,0-.32-.21-.22-.38Z"/>
      </g>
      <g>
        <path class="cls-10" d="M75.13,20.12l1.44-2.49c.05-.08.13-.13.22-.13h2.85c.2.01.32.23.22.4l-1.41,2.47c-.05.08-.13.13-.22.13h-2.87c-.2,0-.32-.21-.22-.38Z"/>
        <path class="cls-7" d="M75.13,20.12l1.44-2.49c.05-.08.13-.13.22-.13h2.85c.2.01.32.23.22.4l-1.41,2.47c-.05.08-.13.13-.22.13h-2.87c-.2,0-.32-.21-.22-.38Z"/>
      </g>
      <g>
        <path class="cls-10" d="M64.66,47.32l1.44-2.49c.05-.08.13-.13.22-.13h2.85c.2.01.32.23.22.4l-1.41,2.47c-.05.08-.13.13-.22.13h-2.87c-.2,0-.32-.21-.22-.38Z"/>
        <path class="cls-7" d="M64.66,47.32l1.44-2.49c.05-.08.13-.13.22-.13h2.85c.2.01.32.23.22.4l-1.41,2.47c-.05.08-.13.13-.22.13h-2.87c-.2,0-.32-.21-.22-.38Z"/>
      </g>
      <g>
        <path class="cls-10" d="M67.28,42.79l1.44-2.49c.05-.08.13-.13.22-.13h2.85c.2.01.32.23.22.4l-1.41,2.47c-.05.08-.13.13-.22.13h-2.87c-.2,0-.32-.21-.22-.38Z"/>
        <path class="cls-7" d="M67.28,42.79l1.44-2.49c.05-.08.13-.13.22-.13h2.85c.2.01.32.23.22.4l-1.41,2.47c-.05.08-.13.13-.22.13h-2.87c-.2,0-.32-.21-.22-.38Z"/>
      </g>
      <g>
        <path class="cls-10" d="M69.9,38.26l1.44-2.49c.05-.08.13-.13.22-.13h2.85c.2.01.32.23.22.4l-1.41,2.47c-.05.08-.13.13-.22.13h-2.87c-.2,0-.32-.21-.22-.38Z"/>
        <path class="cls-7" d="M69.9,38.26l1.44-2.49c.05-.08.13-.13.22-.13h2.85c.2.01.32.23.22.4l-1.41,2.47c-.05.08-.13.13-.22.13h-2.87c-.2,0-.32-.21-.22-.38Z"/>
      </g>
      <g>
        <path class="cls-10" d="M72.51,33.72l1.44-2.49c.05-.08.13-.13.22-.13h2.85c.2.01.32.23.22.4l-1.41,2.47c-.05.08-.13.13-.22.13h-2.87c-.2,0-.32-.21-.22-.38Z"/>
        <path class="cls-7" d="M72.51,33.72l1.44-2.49c.05-.08.13-.13.22-.13h2.85c.2.01.32.23.22.4l-1.41,2.47c-.05.08-.13.13-.22.13h-2.87c-.2,0-.32-.21-.22-.38Z"/>
      </g>
      <g>
        <path class="cls-10" d="M75.13,29.19l1.44-2.49c.05-.08.13-.13.22-.13h2.85c.2.01.32.23.22.4l-1.41,2.47c-.05.08-.13.13-.22.13h-2.87c-.2,0-.32-.21-.22-.38Z"/>
        <path class="cls-7" d="M75.13,29.19l1.44-2.49c.05-.08.13-.13.22-.13h2.85c.2.01.32.23.22.4l-1.41,2.47c-.05.08-.13.13-.22.13h-2.87c-.2,0-.32-.21-.22-.38Z"/>
      </g>
      <g>
        <path class="cls-10" d="M77.75,24.66l1.44-2.49c.05-.08.13-.13.22-.13h2.85c.2.01.32.23.22.4l-1.41,2.47c-.05.08-.13.13-.22.13h-2.87c-.2,0-.32-.21-.22-.38Z"/>
        <path class="cls-7" d="M77.75,24.66l1.44-2.49c.05-.08.13-.13.22-.13h2.85c.2.01.32.23.22.4l-1.41,2.47c-.05.08-.13.13-.22.13h-2.87c-.2,0-.32-.21-.22-.38Z"/>
      </g>
      <g>
        <path class="cls-10" d="M69.89,47.33l1.44-2.49c.05-.08.13-.13.22-.13h2.85c.2.01.32.23.22.4l-1.41,2.47c-.05.08-.13.13-.22.13h-2.87c-.2,0-.32-.21-.22-.38Z"/>
        <path class="cls-7" d="M69.89,47.33l1.44-2.49c.05-.08.13-.13.22-.13h2.85c.2.01.32.23.22.4l-1.41,2.47c-.05.08-.13.13-.22.13h-2.87c-.2,0-.32-.21-.22-.38Z"/>
      </g>
      <g>
        <path class="cls-10" d="M72.51,42.79l1.44-2.49c.05-.08.13-.13.22-.13h2.85c.2.01.32.23.22.4l-1.41,2.47c-.05.08-.13.13-.22.13h-2.87c-.2,0-.32-.21-.22-.38Z"/>
        <path class="cls-7" d="M72.51,42.79l1.44-2.49c.05-.08.13-.13.22-.13h2.85c.2.01.32.23.22.4l-1.41,2.47c-.05.08-.13.13-.22.13h-2.87c-.2,0-.32-.21-.22-.38Z"/>
      </g>
      <g>
        <path class="cls-10" d="M75.13,38.26l1.44-2.49c.05-.08.13-.13.22-.13h2.85c.2.01.32.23.22.4l-1.41,2.47c-.05.08-.13.13-.22.13h-2.87c-.2,0-.32-.21-.22-.38Z"/>
        <path class="cls-7" d="M75.13,38.26l1.44-2.49c.05-.08.13-.13.22-.13h2.85c.2.01.32.23.22.4l-1.41,2.47c-.05.08-.13.13-.22.13h-2.87c-.2,0-.32-.21-.22-.38Z"/>
      </g>
      <g>
        <path class="cls-10" d="M77.75,33.72l1.44-2.49c.05-.08.13-.13.22-.13h2.85c.2.01.32.23.22.4l-1.41,2.47c-.05.08-.13.13-.22.13h-2.87c-.2,0-.32-.21-.22-.38Z"/>
        <path class="cls-7" d="M77.75,33.72l1.44-2.49c.05-.08.13-.13.22-.13h2.85c.2.01.32.23.22.4l-1.41,2.47c-.05.08-.13.13-.22.13h-2.87c-.2,0-.32-.21-.22-.38Z"/>
      </g>
      <g>
        <path class="cls-10" d="M75.13,47.33l1.44-2.49c.05-.08.13-.13.22-.13h2.85c.2.01.32.23.22.4l-1.41,2.47c-.05.08-.13.13-.22.13h-2.87c-.2,0-.32-.21-.22-.38Z"/>
        <path class="cls-7" d="M75.13,47.33l1.44-2.49c.05-.08.13-.13.22-.13h2.85c.2.01.32.23.22.4l-1.41,2.47c-.05.08-.13.13-.22.13h-2.87c-.2,0-.32-.21-.22-.38Z"/>
      </g>
      <g>
        <path class="cls-10" d="M77.75,42.79l1.44-2.49c.05-.08.13-.13.22-.13h2.85c.2.01.32.23.22.4l-1.41,2.47c-.05.08-.13.13-.22.13h-2.87c-.2,0-.32-.21-.22-.38Z"/>
        <path class="cls-7" d="M77.75,42.79l1.44-2.49c.05-.08.13-.13.22-.13h2.85c.2.01.32.23.22.4l-1.41,2.47c-.05.08-.13.13-.22.13h-2.87c-.2,0-.32-.21-.22-.38Z"/>
      </g>
      <g>
        <path class="cls-10" d="M80.36,38.26l1.44-2.49c.05-.08.13-.13.22-.13h2.85c.2.01.32.23.22.4l-1.41,2.47c-.05.08-.13.13-.22.13h-2.87c-.2,0-.32-.21-.22-.38Z"/>
        <path class="cls-7" d="M80.36,38.26l1.44-2.49c.05-.08.13-.13.22-.13h2.85c.2.01.32.23.22.4l-1.41,2.47c-.05.08-.13.13-.22.13h-2.87c-.2,0-.32-.21-.22-.38Z"/>
      </g>
      <g>
        <path class="cls-10" d="M82.98,33.72l1.7-2.95c.05-.08.13-.13.22-.13,1.05-.02,1.98.04,2.8.15.18.03.28.22.19.38l-1.6,2.8c-.05.08-.13.13-.22.13h-2.87c-.2,0-.32-.21-.22-.38Z"/>
        <path class="cls-7" d="M82.98,33.72l1.7-2.95c.05-.08.13-.13.22-.13,1.05-.02,1.98.04,2.8.15.18.03.28.22.19.38l-1.6,2.8c-.05.08-.13.13-.22.13h-2.87c-.2,0-.32-.21-.22-.38Z"/>
      </g>
      <g>
        <path class="cls-10" d="M80.36,47.33l1.44-2.49c.05-.08.13-.13.22-.13h2.85c.2.01.32.23.22.4l-1.41,2.47c-.05.08-.13.13-.22.13h-2.87c-.2,0-.32-.21-.22-.38Z"/>
        <path class="cls-7" d="M80.36,47.33l1.44-2.49c.05-.08.13-.13.22-.13h2.85c.2.01.32.23.22.4l-1.41,2.47c-.05.08-.13.13-.22.13h-2.87c-.2,0-.32-.21-.22-.38Z"/>
      </g>
      <g>
        <path class="cls-10" d="M82.98,42.79l1.44-2.49c.05-.08.13-.13.22-.13h2.85c.2.01.32.23.22.4l-1.41,2.47c-.05.08-.13.13-.22.13h-2.87c-.2,0-.32-.21-.22-.38Z"/>
        <path class="cls-7" d="M82.98,42.79l1.44-2.49c.05-.08.13-.13.22-.13h2.85c.2.01.32.23.22.4l-1.41,2.47c-.05.08-.13.13-.22.13h-2.87c-.2,0-.32-.21-.22-.38Z"/>
      </g>
      <g>
        <path class="cls-10" d="M85.6,38.26l1.44-2.49c.05-.08.13-.13.22-.13h2.85c.2.01.32.23.22.4l-1.41,2.47c-.05.08-.13.13-.22.13h-2.87c-.2,0-.32-.21-.22-.38Z"/>
        <path class="cls-7" d="M85.6,38.26l1.44-2.49c.05-.08.13-.13.22-.13h2.85c.2.01.32.23.22.4l-1.41,2.47c-.05.08-.13.13-.22.13h-2.87c-.2,0-.32-.21-.22-.38Z"/>
      </g>
      <g>
        <path class="cls-10" d="M88.22,33.72l1.26-2.19c.06-.11.2-.16.32-.11.77.33,1.49.8,2.16,1.39.09.08.11.22.05.32l-.48.84c-.05.08-.13.13-.22.13h-2.87c-.2,0-.32-.21-.22-.38Z"/>
        <path class="cls-7" d="M88.22,33.72l1.26-2.19c.06-.11.2-.16.32-.11.77.33,1.49.8,2.16,1.39.09.08.11.22.05.32l-.48.84c-.05.08-.13.13-.22.13h-2.87c-.2,0-.32-.21-.22-.38Z"/>
      </g>
      <g>
        <path class="cls-10" d="M85.6,47.33l1.44-2.49c.05-.08.13-.13.22-.13h2.85c.2.01.32.23.22.4l-1.41,2.47c-.05.08-.13.13-.22.13h-2.87c-.2,0-.32-.21-.22-.38Z"/>
        <path class="cls-7" d="M85.6,47.33l1.44-2.49c.05-.08.13-.13.22-.13h2.85c.2.01.32.23.22.4l-1.41,2.47c-.05.08-.13.13-.22.13h-2.87c-.2,0-.32-.21-.22-.38Z"/>
      </g>
      <g>
        <path class="cls-10" d="M88.22,42.79l1.44-2.49c.05-.08.13-.13.22-.13h2.85c.2.01.32.23.22.4l-1.41,2.47c-.05.08-.13.13-.22.13h-2.87c-.2,0-.32-.21-.22-.38Z"/>
        <path class="cls-7" d="M88.22,42.79l1.44-2.49c.05-.08.13-.13.22-.13h2.85c.2.01.32.23.22.4l-1.41,2.47c-.05.08-.13.13-.22.13h-2.87c-.2,0-.32-.21-.22-.38Z"/>
      </g>
      <g>
        <path class="cls-10" d="M90.83,38.26l1.44-2.49c.05-.08.13-.13.22-.13h1.49c.1,0,.19.07.23.16.23.5.42,1,.55,1.49.02.06,0,.13-.03.19-.13.22-.45.78-.59,1.04-.05.08-.13.13-.22.13h-2.87c-.2,0-.32-.21-.22-.38Z"/>
        <path class="cls-7" d="M90.83,38.26l1.44-2.49c.05-.08.13-.13.22-.13h1.49c.1,0,.19.07.23.16.23.5.42,1,.55,1.49.02.06,0,.13-.03.19-.13.22-.45.78-.59,1.04-.05.08-.13.13-.22.13h-2.87c-.2,0-.32-.21-.22-.38Z"/>
      </g>
      <g>
        <path class="cls-10" d="M93.56,44.72s-.48,1.09-2.07,2.23c-.23.16-.52-.11-.36-.35l1.14-1.77c.05-.07.13-.12.22-.12h1.08"/>
        <path class="cls-7" d="M93.56,44.72s-.48,1.09-2.07,2.23c-.23.16-.52-.11-.36-.35l1.14-1.77c.05-.07.13-.12.22-.12h1.08"/>
      </g>
      <g>
        <path class="cls-10" d="M93.45,42.79l1.05-1.81c.14-.25.52-.11.48.17-.1.61-.27,1.23-.52,1.86-.04.1-.14.16-.24.16h-.54c-.2,0-.32-.21-.22-.38Z"/>
        <path class="cls-7" d="M93.45,42.79l1.05-1.81c.14-.25.52-.11.48.17-.1.61-.27,1.23-.52,1.86-.04.1-.14.16-.24.16h-.54c-.2,0-.32-.21-.22-.38Z"/>
      </g>
      <g>
        <path class="cls-10" d="M80.59,29.57h3.41c.09,0,.18-.05.22-.13.54-.9.96-1.73,1.27-2.5.07-.17-.05-.35-.23-.35h-3.22c-.09-.02-.18.03-.22.11l-1.44,2.49c-.1.17.02.38.22.38Z"/>
        <path class="cls-7" d="M80.59,29.57h3.41c.09,0,.18-.05.22-.13.54-.9.96-1.73,1.27-2.5.07-.17-.05-.35-.23-.35h-3.22c-.09-.02-.18.03-.22.11l-1.44,2.49c-.1.17.02.38.22.38Z"/>
      </g>
      <g>
        <path class="cls-10" d="M83.2,25.04h2.53c.13,0,.24-.09.26-.22.1-.83.06-1.69-.12-2.56-.02-.12-.13-.2-.25-.21h-.97c-.09,0-.18.04-.22.12l-1.44,2.49c-.1.17.02.38.22.38Z"/>
        <path class="cls-7" d="M83.2,25.04h2.53c.13,0,.24-.09.26-.22.1-.83.06-1.69-.12-2.56-.02-.12-.13-.2-.25-.21h-.97c-.09,0-.18.04-.22.12l-1.44,2.49c-.1.17.02.38.22.38Z"/>
      </g>
      <g>
        <path class="cls-10" d="M80.59,20.51h2.87c.09,0,.18-.05.22-.13l.74-1.3c.05-.09.04-.19-.01-.28-.32-.45-.65-.87-1.01-1.22-.05-.05-.11-.07-.18-.07-.25,0-.9,0-1.19,0-.09,0-.18.05-.22.13l-1.44,2.49c-.1.17.02.38.22.38Z"/>
        <path class="cls-7" d="M80.59,20.51h2.87c.09,0,.18-.05.22-.13l.74-1.3c.05-.09.04-.19-.01-.28-.32-.45-.65-.87-1.01-1.22-.05-.05-.11-.07-.18-.07-.25,0-.9,0-1.19,0-.09,0-.18.05-.22.13l-1.44,2.49c-.1.17.02.38.22.38Z"/>
      </g>
      <g>
        <path class="cls-10" d="M76.36,14.92s-1.18-.13-2.96.68c-.26.12-.16.5.12.49l2.1-.1c.09,0,.17-.05.21-.13l.54-.94"/>
        <path class="cls-7" d="M76.36,14.92s-1.18-.13-2.96.68c-.26.12-.16.5.12.49l2.1-.1c.09,0,.17-.05.21-.13l.54-.94"/>
      </g>
      <g>
        <path class="cls-10" d="M77.97,15.97h2.09c.28,0,.36-.39.09-.5-.58-.22-1.2-.38-1.87-.48-.1-.01-.21.04-.26.13l-.24.42c-.12.22,0,.43.2.43Z"/>
        <path class="cls-7" d="M77.97,15.97h2.09c.28,0,.36-.39.09-.5-.58-.22-1.2-.38-1.87-.48-.1-.01-.21.04-.26.13l-.24.42c-.12.22,0,.43.2.43Z"/>
      </g>
    </g>
  </g>
</svg>