<?xml version="1.0" encoding="UTF-8"?>
<svg id="Layer_1" data-name="Layer 1" xmlns="http://www.w3.org/2000/svg" viewBox="0 0 100 100">
  <defs>
    <style>
      .cls-1 {
        fill: #4a2700;
      }

      .cls-1, .cls-2 {
        stroke-width: 0px;
      }

      .cls-3 {
        opacity: .04;
      }

      .cls-2 {
        fill: #ffeaae;
      }
    </style>
  </defs>
  <path class="cls-2" d="M18.63,35.37c-.26-1.82-1.13-3.53-1.15-5.37-.04-3.91,3.86-6.84,7.71-7.54s7.79.13,11.7.1c.85,0,1.7-.06,2.51-.32.83-.28,1.58-.77,2.29-1.29,4.71-3.39,9.43-8,15.21-7.55,2.3.18,4.46,1.17,6.55,2.16,2.83,1.33,5.72,2.72,7.93,4.93,2.01,2.01,3.35,4.59,5.32,6.64,2.58,2.69,6.2,4.42,8.13,7.62,2.28,3.79,1.58,8.63.24,12.84s-3.27,8.36-3.25,12.78c0,2.63.71,5.2,1.04,7.81s.23,5.42-1.2,7.63c-.96,1.47-2.42,2.54-3.92,3.46-8.36,5.1-18.43,6.42-28.18,7.29-1.14.1-2.3.2-3.42-.07-1.07-.26-2.03-.83-2.96-1.41-4.29-2.67-8.65-5.91-10.35-10.67-1.21-3.39-.91-7.17-2.02-10.6-1.16-3.59-3.77-6.53-6.67-8.93-2.31-1.92-10.07-5.55-10.4-8.71-.19-1.84,2.22-3.4,3.17-4.71,1.29-1.77,2.07-3.85,1.75-6.07Z"/>
  <g class="cls-3">
    <path class="cls-1" d="M56.12,13.85c.24,0,.49,0,.74.03,2.26.17,4.44,1.2,6.37,2.11,2.62,1.24,5.59,2.64,7.79,4.83,1.01,1.01,1.87,2.2,2.71,3.36.8,1.11,1.63,2.26,2.6,3.27,1.03,1.07,2.22,2,3.37,2.89,1.83,1.42,3.56,2.76,4.69,4.64,1.83,3.04,1.89,7.1.19,12.44-.31.96-.65,1.94-.98,2.89-1.13,3.23-2.3,6.56-2.29,10.05,0,1.74.31,3.47.61,5.14.16.89.32,1.82.44,2.73.39,3.13.02,5.52-1.13,7.29-.95,1.47-2.44,2.49-3.76,3.3-8.37,5.1-18.4,6.36-27.97,7.22-.62.06-1.19.1-1.74.1s-1.07-.05-1.52-.16c-.97-.23-1.85-.75-2.81-1.35-4.09-2.54-8.49-5.76-10.15-10.41-.61-1.71-.83-3.57-1.05-5.37-.21-1.73-.42-3.51-.97-5.21-1.04-3.21-3.27-6.21-6.83-9.17-.69-.57-1.81-1.27-3.1-2.07-2.92-1.82-6.91-4.3-7.12-6.31-.11-1.06.96-2.14,1.91-3.08.44-.44.86-.86,1.16-1.28,1.51-2.07,2.15-4.3,1.84-6.44-.11-.8-.34-1.58-.56-2.33-.3-1.02-.58-1.98-.59-2.97-.04-3.71,3.73-6.4,7.3-7.05,1.01-.18,2.12-.27,3.38-.27,1.31,0,2.65.1,3.95.19,1.32.09,2.69.19,4.04.19h.26c.86,0,1.77-.06,2.66-.35.92-.31,1.74-.86,2.42-1.35.81-.58,1.64-1.22,2.44-1.83,3.65-2.78,7.42-5.66,11.71-5.66M56.12,13.35c-5.43,0-9.94,4.35-14.43,7.58-.71.51-1.45,1.01-2.29,1.29-.8.27-1.66.32-2.51.32-.08,0-.17,0-.25,0-2.66,0-5.34-.38-7.99-.38-1.16,0-2.32.07-3.47.28-3.85.7-7.75,3.63-7.71,7.54.02,1.84.9,3.55,1.15,5.37.31,2.22-.46,4.3-1.75,6.07-.95,1.3-3.36,2.86-3.17,4.71.33,3.16,8.08,6.79,10.4,8.71,2.9,2.41,5.52,5.35,6.67,8.93,1.11,3.43.81,7.21,2.02,10.6,1.7,4.76,6.06,8,10.35,10.67.93.58,1.89,1.15,2.96,1.41.54.13,1.09.17,1.64.17.59,0,1.19-.05,1.78-.1,9.75-.87,19.82-2.19,28.18-7.29,1.5-.92,2.97-1.98,3.92-3.46,1.43-2.2,1.53-5.02,1.2-7.63-.33-2.61-1.03-5.18-1.04-7.81-.02-4.42,1.91-8.57,3.25-12.78,1.34-4.21,2.04-9.06-.24-12.84-1.92-3.2-5.54-4.93-8.13-7.62-1.97-2.05-3.31-4.63-5.32-6.64-2.21-2.21-5.1-3.6-7.93-4.93-2.09-.99-4.24-1.98-6.55-2.16-.26-.02-.52-.03-.78-.03h0Z"/>
  </g>
</svg>