<?xml version="1.0" encoding="UTF-8"?>
<svg id="Layer_1" data-name="Layer 1" xmlns="http://www.w3.org/2000/svg" viewBox="0 0 1920 160">
  <defs>
    <style>
      .cls-1 {
        stroke-width: .77px;
      }

      .cls-1, .cls-2, .cls-3, .cls-4, .cls-5, .cls-6, .cls-7, .cls-8, .cls-9, .cls-10, .cls-11, .cls-12, .cls-13, .cls-14, .cls-15, .cls-16, .cls-17, .cls-18, .cls-19, .cls-20, .cls-21, .cls-22, .cls-23, .cls-24, .cls-25, .cls-26, .cls-27, .cls-28, .cls-29, .cls-30, .cls-31, .cls-32, .cls-33, .cls-34, .cls-35, .cls-36, .cls-37, .cls-38, .cls-39, .cls-40, .cls-41, .cls-42, .cls-43, .cls-44, .cls-45, .cls-46, .cls-47, .cls-48, .cls-49, .cls-50, .cls-51, .cls-52, .cls-53 {
        stroke-linecap: round;
        stroke-linejoin: round;
      }

      .cls-1, .cls-2, .cls-6, .cls-54, .cls-11, .cls-22, .cls-30, .cls-32, .cls-38, .cls-39, .cls-40, .cls-42, .cls-47, .cls-51 {
        fill: #ddc8b6;
      }

      .cls-1, .cls-2, .cls-6, .cls-11, .cls-22, .cls-30, .cls-32, .cls-38, .cls-39, .cls-40, .cls-42, .cls-47, .cls-51 {
        stroke: #4a2700;
      }

      .cls-2 {
        stroke-width: .77px;
      }

      .cls-3 {
        stroke-width: .96px;
      }

      .cls-3, .cls-4, .cls-5, .cls-7, .cls-8, .cls-9, .cls-10, .cls-12, .cls-13, .cls-14, .cls-15, .cls-16, .cls-17, .cls-18, .cls-19, .cls-20, .cls-21, .cls-23, .cls-24, .cls-25, .cls-26, .cls-27, .cls-28, .cls-29, .cls-31, .cls-33, .cls-34, .cls-35, .cls-36, .cls-37, .cls-41, .cls-43, .cls-44, .cls-45, .cls-46, .cls-48, .cls-49, .cls-50, .cls-52, .cls-53 {
        stroke: #000;
      }

      .cls-3, .cls-10, .cls-12, .cls-13, .cls-15, .cls-16, .cls-17, .cls-18, .cls-19, .cls-20, .cls-23, .cls-24, .cls-27, .cls-28, .cls-33, .cls-36, .cls-43, .cls-45, .cls-48, .cls-52 {
        fill: #f7b013;
      }

      .cls-4, .cls-9, .cls-14, .cls-26, .cls-29, .cls-41, .cls-44, .cls-46, .cls-49, .cls-50 {
        fill: #66afdd;
      }

      .cls-4, .cls-27, .cls-37 {
        stroke-width: 1.02px;
      }

      .cls-5, .cls-7, .cls-8, .cls-21, .cls-25, .cls-31, .cls-34, .cls-35, .cls-37, .cls-53 {
        fill: rgba(102, 175, 221, .15);
      }

      .cls-5, .cls-13, .cls-46 {
        stroke-width: 1.02px;
      }

      .cls-6 {
        stroke-width: .77px;
      }

      .cls-55 {
        stroke-width: .98px;
      }

      .cls-55, .cls-56 {
        fill: #472f15;
        stroke: #191716;
        stroke-miterlimit: 10;
      }

      .cls-7, .cls-14, .cls-24 {
        stroke-width: 1.02px;
      }

      .cls-8, .cls-17, .cls-26 {
        stroke-width: 1.02px;
      }

      .cls-9, .cls-15, .cls-21 {
        stroke-width: 1.02px;
      }

      .cls-54, .cls-57, .cls-58, .cls-59, .cls-60 {
        stroke-width: 0px;
      }

      .cls-10, .cls-31, .cls-41 {
        stroke-width: 1.02px;
      }

      .cls-11 {
        stroke-width: .77px;
      }

      .cls-12 {
        stroke-width: .96px;
      }

      .cls-16 {
        stroke-width: .96px;
      }

      .cls-18, .cls-34, .cls-49 {
        stroke-width: 1.02px;
      }

      .cls-19, .cls-29, .cls-35 {
        stroke-width: 1.02px;
      }

      .cls-20 {
        stroke-width: .96px;
      }

      .cls-58 {
        fill: none;
      }

      .cls-22 {
        stroke-width: .77px;
      }

      .cls-23 {
        stroke-width: .96px;
      }

      .cls-25, .cls-28, .cls-44 {
        stroke-width: 1.02px;
      }

      .cls-30 {
        stroke-width: .69px;
      }

      .cls-32 {
        stroke-width: .29px;
      }

      .cls-33 {
        stroke-width: .96px;
      }

      .cls-56 {
        stroke-width: .98px;
      }

      .cls-36 {
        stroke-width: .96px;
      }

      .cls-59 {
        fill: rgba(102, 175, 221, .25);
      }

      .cls-38 {
        stroke-width: .77px;
      }

      .cls-39 {
        stroke-width: .77px;
      }

      .cls-40 {
        stroke-width: .72px;
      }

      .cls-42 {
        stroke-width: .77px;
      }

      .cls-43, .cls-50, .cls-53 {
        stroke-width: 1.02px;
      }

      .cls-45 {
        stroke-width: .96px;
      }

      .cls-47 {
        stroke-width: .77px;
      }

      .cls-48 {
        stroke-width: .96px;
      }

      .cls-60 {
        fill: #070707;
      }

      .cls-51 {
        stroke-width: .77px;
      }

      .cls-52 {
        stroke-width: .96px;
      }
    </style>
  </defs>
  <g>
    <ellipse class="cls-56" cx="80" cy="145.63" rx="55" ry="9.79"/>
    <g>
      <path class="cls-54" d="M107.41,32.07h-1.02s.43.19,1.02,0Z"/>
      <path class="cls-59" d="M109.18,125.98h-12.02c-4.11,0-7.67-3.44-7.89-7.49l-4-73.13c-.09-1.59,1.86-2.86,4.33-2.86h7.21c2.47,0,4.72,1.27,5.01,2.86l13.46,73.13c.75,4.05-1.99,7.49-6.1,7.49Z"/>
      <path class="cls-59" d="M82.51,125.64h-4.5c-1.54,0-2.73-1.31-2.65-2.88l1.81-33.79c.05-.87,1-1.58,2.12-1.58h3.27c1.12,0,2.05.7,2.07,1.58l.63,33.79c.03,1.57-1.21,2.88-2.75,2.88Z"/>
      <g>
        <path class="cls-3" d="M54.33,36.17h-2.06c-1.13,0-2.05-.92-2.05-2.05s.92-2.05,2.05-2.05h1.54c-3.48.06-2.13-2.03-3.79-8.08-.34-.42-.56-.67-.56-.67l-2.65,2.63s-3.7,2.93-9.17,5.27c-5.47,2.34-13.69,10.04-11.32,43.8,2.37,33.76,6.86,35.26,6.5,27.44-1.31-28.47-6.41-67.98,14.15-63.55,2,.43,2.78,5.67,3.95,7.31.68-3.8,1.2-6.76,1.5-8.45.16-.92.96-1.59,1.9-1.59Z"/>
        <path class="cls-34" d="M122.62,115.73c-2.18-8.4-12.64-67.47-14.49-77.97-.16-.92-.96-1.59-1.9-1.59h-51.9c-.94,0-1.74.67-1.9,1.59-.3,1.69-.82,4.65-1.5,8.45-3.51,19.78-11.17,62.48-12.99,69.52-2.39,9.22-5.69,9.56,5.8,23.56,9.24,11.25,11.95,10.24,36.54,10.24s27.32,1.02,36.54-10.24c9.22-11.27,8.2-14.34,5.8-23.56Z"/>
        <path class="cls-18" d="M107.58,32.07h-.16c-.59.19-1.02,0-1.02,0h-54.12c-1.13,0-2.05.92-2.05,2.05s.92,2.05,2.05,2.05h55.31c1.13,0,2.05-.92,2.05-2.05s-.92-2.05-2.05-2.05Z"/>
        <path class="cls-34" d="M100.33,12.1c-7.51,3.59-28.62,3.7-41.23,2.05-10.41-1.37-9.11-3.21-11.95-1.37-4.74,3.08,1.37,5.55,2.87,11.21,1.61,6.07.31,8.14,3.79,8.08h53.61c1.02-.33,2.52-1.76,3.25-7.17,1.15-8.58,11-17.36,11-17.36-4.85-7.39-13.82.97-21.33,4.56Z"/>
        <path class="cls-49" d="M107.41,32.07h-1.02s.43.19,1.02,0Z"/>
      </g>
    </g>
  </g>
  <g>
    <ellipse class="cls-56" cx="1360" cy="145.63" rx="55" ry="9.79"/>
    <g>
      <g>
        <path class="cls-11" d="M1387.41,32.07h-1.02s.43.19,1.02,0Z"/>
        <path class="cls-11" d="M1391.48,56.66c-3.57-.53-7.39-1.4-11.83-1.73-7.34-.53-12.46-.15-16.13.27s-13.91,1.46-23.82.27c-3.36-.41-6.99-.54-10.33-.53-3.85,21.53-9.85,54.67-11.44,60.8-2.39,9.22-5.69,9.56,5.8,23.56,9.24,11.25,11.95,10.24,36.54,10.24s27.32,1.02,36.54-10.24c9.22-11.27,8.2-14.34,5.8-23.56-1.55-5.97-7.28-37.54-11.13-59.07Z"/>
      </g>
      <g>
        <path class="cls-33" d="M1334.33,36.17h-2.06c-1.13,0-2.05-.92-2.05-2.05s.92-2.05,2.05-2.05h1.54c-3.48.06-2.13-2.03-3.79-8.08-.34-.42-.56-.67-.56-.67l-2.65,2.63s-3.7,2.93-9.17,5.27c-5.47,2.34-13.69,10.04-11.32,43.8,2.37,33.76,6.86,35.26,6.5,27.44-1.31-28.47-6.41-67.98,14.15-63.55,2,.43,2.78,5.67,3.95,7.31.68-3.8,1.2-6.76,1.5-8.45.16-.92.96-1.59,1.9-1.59Z"/>
        <path class="cls-37" d="M1402.62,115.73c-2.18-8.4-12.64-67.47-14.49-77.97-.16-.92-.96-1.59-1.9-1.59h-51.9c-.94,0-1.74.67-1.9,1.59-.3,1.69-.82,4.65-1.5,8.45-3.51,19.78-11.17,62.48-12.99,69.52-2.39,9.22-5.69,9.56,5.8,23.56,9.24,11.25,11.95,10.24,36.54,10.24s27.32,1.02,36.54-10.24c9.22-11.27,8.2-14.34,5.8-23.56Z"/>
        <path class="cls-27" d="M1387.58,32.07h-.16c-.59.19-1.02,0-1.02,0h-54.12c-1.13,0-2.05.92-2.05,2.05s.92,2.05,2.05,2.05h55.31c1.13,0,2.05-.92,2.05-2.05s-.92-2.05-2.05-2.05Z"/>
        <path class="cls-37" d="M1380.33,12.1c-7.51,3.59-28.62,3.7-41.23,2.05-10.41-1.37-9.11-3.21-11.95-1.37-4.74,3.08,1.37,5.55,2.87,11.21,1.61,6.07.31,8.14,3.79,8.08h53.61c1.02-.33,2.52-1.76,3.25-7.17,1.15-8.58,11-17.36,11-17.36-4.85-7.39-13.82.97-21.33,4.56Z"/>
        <path class="cls-4" d="M1387.41,32.07h-1.02s.43.19,1.02,0Z"/>
      </g>
      <path class="cls-59" d="M1389.18,125.98h-12.02c-4.11,0-7.67-3.44-7.89-7.49l-4-73.13c-.09-1.59,1.86-2.86,4.33-2.86h7.21c2.47,0,4.72,1.27,5.01,2.86l13.46,73.13c.75,4.05-1.99,7.49-6.1,7.49Z"/>
      <path class="cls-59" d="M1362.51,125.64h-4.5c-1.54,0-2.73-1.31-2.65-2.88l1.81-33.79c.05-.87,1-1.58,2.12-1.58h3.27c1.12,0,2.05.7,2.07,1.58l.63,33.79c.03,1.57-1.21,2.88-2.75,2.88Z"/>
      <path class="cls-60" d="M1387.41,32.07h-1.02s.43.19,1.02,0Z"/>
    </g>
  </g>
  <g>
    <ellipse class="cls-56" cx="1520" cy="145.63" rx="55" ry="9.79"/>
    <g>
      <g>
        <path class="cls-42" d="M1548.46,39.68c-3.69.29-9.02.6-14.62.08-8.54-.8-10.76-.68-16.96,0-6.2.68-12.78,1.67-19.04.54-1.18-.22-3.24-.37-5.79-.47-.29,1.67-.68,3.83-1.13,6.4-3.51,19.78-11.17,62.48-12.99,69.52-2.39,9.22-5.69,9.56,5.8,23.56,9.24,11.25,11.95,10.24,36.54,10.24s27.32,1.02,36.54-10.24c9.22-11.27,8.2-14.34,5.8-23.56-2.07-7.98-11.62-61.73-14.15-76.06Z"/>
        <path class="cls-42" d="M1547.41,32.07h-1.02s.43.19,1.02,0Z"/>
      </g>
      <g>
        <path class="cls-16" d="M1494.33,36.17h-2.06c-1.13,0-2.05-.92-2.05-2.05s.92-2.05,2.05-2.05h1.54c-3.48.06-2.13-2.03-3.79-8.08-.34-.42-.56-.67-.56-.67l-2.65,2.63s-3.7,2.93-9.17,5.27c-5.47,2.34-13.69,10.04-11.32,43.8,2.37,33.76,6.86,35.26,6.5,27.44-1.31-28.47-6.41-67.98,14.15-63.55,2,.43,2.78,5.67,3.95,7.31.68-3.8,1.2-6.76,1.5-8.45.16-.92.96-1.59,1.9-1.59Z"/>
        <path class="cls-53" d="M1562.62,115.73c-2.18-8.4-12.64-67.47-14.49-77.97-.16-.92-.96-1.59-1.9-1.59h-51.9c-.94,0-1.74.67-1.9,1.59-.3,1.69-.82,4.65-1.5,8.45-3.51,19.78-11.17,62.48-12.99,69.52-2.39,9.22-5.69,9.56,5.8,23.56,9.24,11.25,11.95,10.24,36.54,10.24s27.32,1.02,36.54-10.24,8.2-14.34,5.8-23.56Z"/>
        <path class="cls-43" d="M1547.58,32.07h-.16c-.59.19-1.02,0-1.02,0h-54.12c-1.13,0-2.05.92-2.05,2.05s.92,2.05,2.05,2.05h55.31c1.13,0,2.05-.92,2.05-2.05s-.92-2.05-2.05-2.05Z"/>
        <path class="cls-53" d="M1540.33,12.1c-7.51,3.59-28.62,3.7-41.23,2.05-10.41-1.37-9.11-3.21-11.95-1.37-4.74,3.08,1.37,5.55,2.87,11.21,1.61,6.07.31,8.14,3.79,8.08h53.61c1.02-.33,2.52-1.76,3.25-7.17,1.15-8.58,11-17.36,11-17.36-4.85-7.39-13.82.97-21.33,4.56Z"/>
        <path class="cls-50" d="M1547.41,32.07h-1.02s.43.19,1.02,0Z"/>
      </g>
      <path class="cls-59" d="M1549.18,125.98h-12.02c-4.11,0-7.67-3.44-7.89-7.49l-4-73.13c-.09-1.59,1.86-2.86,4.33-2.86h7.21c2.47,0,4.72,1.27,5.01,2.86l13.46,73.13c.75,4.05-1.99,7.49-6.1,7.49Z"/>
      <path class="cls-59" d="M1522.51,125.64h-4.5c-1.54,0-2.73-1.31-2.65-2.88l1.81-33.79c.05-.87,1-1.58,2.12-1.58h3.27c1.12,0,2.05.7,2.07,1.58l.63,33.79c.03,1.57-1.21,2.88-2.75,2.88Z"/>
      <path class="cls-60" d="M1547.41,32.07h-1.02s.43.19,1.02,0Z"/>
    </g>
  </g>
  <g>
    <ellipse class="cls-56" cx="1680" cy="145.63" rx="55" ry="9.79"/>
    <g>
      <g>
        <path class="cls-32" d="M1707.41,32.07h-1.02s.43.19,1.02,0Z"/>
        <g>
          <path class="cls-58" d="M1707.41,32.07h-1.02s.43.19,1.02,0Z"/>
          <g>
            <path class="cls-58" d="M1707.41,32.07h-1.02s.43.19,1.02,0Z"/>
            <path class="cls-22" d="M1693.85,27.12c-8.59,1.2-13.34.52-20.68-.17-7.34-.68-5.63-.51-14.34,0-2.63.15-5.34.6-7.99,1.12.44,2.94.44,4.04,2.97,4h-1.54c-1.13,0-2.05.92-2.05,2.05s.92,2.05,2.05,2.05h2.06c-.94,0-1.74.67-1.9,1.59-.3,1.69-.82,4.65-1.5,8.45-3.51,19.78-11.17,62.48-12.99,69.52-2.39,9.22-5.69,9.56,5.8,23.56,9.24,11.25,11.95,10.24,36.54,10.24s27.32,1.02,36.54-10.24c9.22-11.27,8.2-14.34,5.8-23.56-2.18-8.4-12.64-67.47-14.49-77.97-.16-.92-.96-1.59-1.9-1.59h1.35c1.13,0,2.05-.92,2.05-2.05s-.92-2.05-2.05-2.05h-.16c-.59.19-1.02,0-1.02,0h1.02c.97-.31,2.4-1.65,3.15-6.52-6.76.18-9.03.49-16.72,1.56Z"/>
          </g>
        </g>
      </g>
      <g>
        <path class="cls-45" d="M1654.33,36.17h-2.06c-1.13,0-2.05-.92-2.05-2.05s.92-2.05,2.05-2.05h1.54c-3.48.06-2.13-2.03-3.79-8.08-.34-.42-.56-.67-.56-.67l-2.65,2.63s-3.7,2.93-9.17,5.27c-5.47,2.34-13.69,10.04-11.32,43.8s6.86,35.26,6.5,27.44c-1.31-28.47-6.41-67.98,14.15-63.55,2,.43,2.78,5.67,3.95,7.31.68-3.8,1.2-6.76,1.5-8.45.16-.92.96-1.59,1.9-1.59Z"/>
        <path class="cls-25" d="M1722.62,115.73c-2.18-8.4-12.64-67.47-14.49-77.97-.16-.92-.96-1.59-1.9-1.59h-51.9c-.94,0-1.74.67-1.9,1.59-.3,1.69-.82,4.65-1.5,8.45-3.51,19.78-11.17,62.48-12.99,69.52-2.39,9.22-5.69,9.56,5.8,23.56,9.24,11.25,11.95,10.24,36.54,10.24s27.32,1.02,36.54-10.24,8.2-14.34,5.8-23.56Z"/>
        <path class="cls-28" d="M1707.58,32.07h-.16c-.59.19-1.02,0-1.02,0h-54.12c-1.13,0-2.05.92-2.05,2.05s.92,2.05,2.05,2.05h55.31c1.13,0,2.05-.92,2.05-2.05s-.92-2.05-2.05-2.05Z"/>
        <path class="cls-25" d="M1700.33,12.1c-7.51,3.59-28.62,3.7-41.23,2.05-10.41-1.37-9.11-3.21-11.95-1.37-4.74,3.08,1.37,5.55,2.87,11.21,1.61,6.07.31,8.14,3.79,8.08h53.61c1.02-.33,2.52-1.76,3.25-7.17,1.15-8.58,11-17.36,11-17.36-4.85-7.39-13.82.97-21.33,4.56Z"/>
        <path class="cls-44" d="M1707.41,32.07h-1.02s.43.19,1.02,0Z"/>
      </g>
      <path class="cls-59" d="M1709.18,125.98h-12.02c-4.11,0-7.67-3.44-7.89-7.49l-4-73.13c-.09-1.59,1.86-2.86,4.33-2.86h7.21c2.47,0,4.72,1.27,5.01,2.86l13.46,73.13c.75,4.05-1.99,7.49-6.1,7.49Z"/>
      <path class="cls-59" d="M1682.51,125.64h-4.5c-1.54,0-2.73-1.31-2.65-2.88l1.81-33.79c.05-.87,1-1.58,2.12-1.58h3.27c1.12,0,2.05.7,2.07,1.58l.63,33.79c.03,1.57-1.21,2.88-2.75,2.88Z"/>
      <path class="cls-60" d="M1707.41,32.07h-1.02s.43.19,1.02,0Z"/>
    </g>
  </g>
  <g>
    <ellipse class="cls-56" cx="1200" cy="145.63" rx="55" ry="9.79"/>
    <g>
      <g>
        <path class="cls-51" d="M1227.41,32.07h-1.02s.43.19,1.02,0Z"/>
        <path class="cls-51" d="M1233.71,69.07c-4.7-.18-8.76.27-14.52,1-7.87.99-10.26.95-13.33.66s-8.74-1.3-15.68-1.54c-6.94-.24-9.69.62-15.6.28-2-.11-4.83-.32-7.71-.55-3.56,19.71-7.66,41.91-8.93,46.81-2.39,9.22-5.69,9.56,5.8,23.56,9.24,11.25,11.95,10.24,36.54,10.24s27.32,1.02,36.54-10.24c9.22-11.27,8.2-14.34,5.8-23.56-1.27-4.89-5.35-27-8.9-46.67Z"/>
      </g>
      <g>
        <path class="cls-48" d="M1174.33,36.17h-2.06c-1.13,0-2.05-.92-2.05-2.05s.92-2.05,2.05-2.05h1.54c-3.48.06-2.13-2.03-3.79-8.08-.34-.42-.56-.67-.56-.67l-2.65,2.63s-3.7,2.93-9.17,5.27c-5.47,2.34-13.69,10.04-11.32,43.8,2.37,33.76,6.86,35.26,6.5,27.44-1.31-28.47-6.41-67.98,14.15-63.55,2,.43,2.78,5.67,3.95,7.31.68-3.8,1.2-6.76,1.5-8.45.16-.92.96-1.59,1.9-1.59Z"/>
        <path class="cls-8" d="M1242.62,115.73c-2.18-8.4-12.64-67.47-14.49-77.97-.16-.92-.96-1.59-1.9-1.59h-51.9c-.94,0-1.74.67-1.9,1.59-.3,1.69-.82,4.65-1.5,8.45-3.51,19.78-11.17,62.48-12.99,69.52-2.39,9.22-5.69,9.56,5.8,23.56,9.24,11.25,11.95,10.24,36.54,10.24s27.32,1.02,36.54-10.24c9.22-11.27,8.2-14.34,5.8-23.56Z"/>
        <path class="cls-17" d="M1227.58,32.07h-.16c-.59.19-1.02,0-1.02,0h-54.12c-1.13,0-2.05.92-2.05,2.05s.92,2.05,2.05,2.05h55.31c1.13,0,2.05-.92,2.05-2.05s-.92-2.05-2.05-2.05Z"/>
        <path class="cls-8" d="M1220.33,12.1c-7.51,3.59-28.62,3.7-41.23,2.05-10.41-1.37-9.11-3.21-11.95-1.37-4.74,3.08,1.37,5.55,2.87,11.21,1.61,6.07.31,8.14,3.79,8.08h53.61c1.02-.33,2.52-1.76,3.25-7.17,1.15-8.58,11-17.36,11-17.36-4.85-7.39-13.82.97-21.33,4.56Z"/>
        <path class="cls-26" d="M1227.41,32.07h-1.02s.43.19,1.02,0Z"/>
      </g>
      <path class="cls-59" d="M1229.18,125.98h-12.02c-4.11,0-7.67-3.44-7.89-7.49l-4-73.13c-.09-1.59,1.86-2.86,4.33-2.86h7.21c2.47,0,4.72,1.27,5.01,2.86l13.46,73.13c.75,4.05-1.99,7.49-6.1,7.49Z"/>
      <path class="cls-59" d="M1202.51,125.64h-4.5c-1.54,0-2.73-1.31-2.65-2.88l1.81-33.79c.05-.87,1-1.58,2.12-1.58h3.27c1.12,0,2.05.7,2.07,1.58l.63,33.79c.03,1.57-1.21,2.88-2.75,2.88Z"/>
    </g>
  </g>
  <g>
    <ellipse class="cls-55" cx="1040" cy="145.63" rx="55" ry="9.79"/>
    <g>
      <g>
        <path class="cls-1" d="M1067.41,32.07h-1.02s.43.19,1.02,0Z"/>
        <path class="cls-1" d="M1049.98,81.29c-4.78.17-5.79.15-10.06-.02s-16.12-.32-22.27.02c-2.49.14-9.7.17-13.04,0-2.64,14.38-5.75,30.85-6.68,34.44-2.39,9.22-5.69,9.56,5.8,23.56,9.24,11.25,11.95,10.24,36.54,10.24s27.32,1.02,36.54-10.24c9.22-11.27,8.2-14.34,5.8-23.56-.9-3.46-4.16-20.73-6.68-34.43-1.35-.05-5.36.26-8.31.2-6.86-.13-12.87-.38-17.65-.21Z"/>
      </g>
      <g>
        <path class="cls-52" d="M1014.33,36.17h-2.06c-1.13,0-2.05-.92-2.05-2.05s.92-2.05,2.05-2.05h1.54c-3.48.06-2.13-2.03-3.79-8.08-.34-.42-.56-.67-.56-.67l-2.65,2.63s-3.7,2.93-9.17,5.27c-5.47,2.34-13.69,10.04-11.32,43.8s6.86,35.26,6.5,27.44c-1.31-28.47-6.41-67.98,14.15-63.55,2,.43,2.78,5.67,3.95,7.31.68-3.8,1.2-6.76,1.5-8.45.16-.92.96-1.59,1.9-1.59Z"/>
        <path class="cls-35" d="M1082.62,115.73c-2.18-8.4-12.64-67.47-14.49-77.97-.16-.92-.96-1.59-1.9-1.59h-51.9c-.94,0-1.74.67-1.9,1.59-.3,1.69-.82,4.65-1.5,8.45-3.51,19.78-11.17,62.48-12.99,69.52-2.39,9.22-5.69,9.56,5.8,23.56,9.24,11.25,11.95,10.24,36.54,10.24s27.32,1.02,36.54-10.24c9.22-11.27,8.2-14.34,5.8-23.56Z"/>
        <path class="cls-19" d="M1067.58,32.07h-.16c-.59.19-1.02,0-1.02,0h-54.12c-1.13,0-2.05.92-2.05,2.05s.92,2.05,2.05,2.05h55.31c1.13,0,2.05-.92,2.05-2.05s-.92-2.05-2.05-2.05Z"/>
        <path class="cls-35" d="M1060.33,12.1c-7.51,3.59-28.62,3.7-41.23,2.05-10.41-1.37-9.11-3.21-11.95-1.37-4.74,3.08,1.37,5.55,2.87,11.21,1.61,6.07.31,8.14,3.79,8.08h53.61c1.02-.33,2.52-1.76,3.25-7.17,1.15-8.58,11-17.36,11-17.36-4.85-7.39-13.82.97-21.33,4.56Z"/>
        <path class="cls-29" d="M1067.41,32.07h-1.02s.43.19,1.02,0Z"/>
      </g>
      <path class="cls-59" d="M1069.18,125.98h-12.02c-4.11,0-7.67-3.44-7.89-7.49l-4-73.13c-.09-1.59,1.86-2.86,4.33-2.86h7.21c2.47,0,4.72,1.27,5.01,2.86l13.46,73.13c.75,4.05-1.99,7.49-6.1,7.49Z"/>
      <path class="cls-59" d="M1042.51,125.64h-4.5c-1.54,0-2.73-1.31-2.65-2.88l1.81-33.79c.05-.87,1-1.58,2.12-1.58h3.27c1.12,0,2.05.7,2.07,1.58l.63,33.79c.03,1.57-1.21,2.88-2.75,2.88Z"/>
    </g>
  </g>
  <g>
    <ellipse class="cls-56" cx="880" cy="145.63" rx="55" ry="9.79"/>
    <g>
      <path class="cls-39" d="M885.26,92.87c-8.03-.96-15.87-1.09-27.71,0-6.85.63-12,.53-15.15.34-1.96,10.48-3.79,19.91-4.47,22.53-2.39,9.22-5.69,9.56,5.8,23.56,9.24,11.25,11.95,10.24,36.54,10.24s27.32,1.02,36.54-10.24c9.22-11.27,8.2-14.34,5.8-23.56-.67-2.58-2.66-12.89-4.68-23.66-3.38.4-7.6.93-11.55,1.28-7.61.67-13.1.47-21.13-.49Z"/>
      <g>
        <path class="cls-3" d="M854.33,36.17h-2.06c-1.13,0-2.05-.92-2.05-2.05s.92-2.05,2.05-2.05h1.54c-3.48.06-2.13-2.03-3.79-8.08-.34-.42-.56-.67-.56-.67l-2.65,2.63s-3.7,2.93-9.17,5.27c-5.47,2.34-13.69,10.04-11.32,43.8,2.37,33.76,6.86,35.26,6.5,27.44-1.31-28.47-6.41-67.98,14.15-63.55,2,.43,2.78,5.67,3.95,7.31.68-3.8,1.2-6.76,1.5-8.45.16-.92.96-1.59,1.9-1.59Z"/>
        <path class="cls-34" d="M922.62,115.73c-2.18-8.4-12.64-67.47-14.49-77.97-.16-.92-.96-1.59-1.9-1.59h-51.9c-.94,0-1.74.67-1.9,1.59-.3,1.69-.82,4.65-1.5,8.45-3.51,19.78-11.17,62.48-12.99,69.52-2.39,9.22-5.69,9.56,5.8,23.56,9.24,11.25,11.95,10.24,36.54,10.24s27.32,1.02,36.54-10.24c9.22-11.27,8.2-14.34,5.8-23.56Z"/>
        <path class="cls-18" d="M907.58,32.07h-.16c-.59.19-1.02,0-1.02,0h-54.12c-1.13,0-2.05.92-2.05,2.05s.92,2.05,2.05,2.05h55.31c1.13,0,2.05-.92,2.05-2.05s-.92-2.05-2.05-2.05Z"/>
        <path class="cls-34" d="M900.33,12.1c-7.51,3.59-28.62,3.7-41.23,2.05-10.41-1.37-9.11-3.21-11.95-1.37-4.74,3.08,1.37,5.55,2.87,11.21,1.61,6.07.31,8.14,3.79,8.08h53.61c1.02-.33,2.52-1.76,3.25-7.17,1.15-8.58,11-17.36,11-17.36-4.85-7.39-13.82.97-21.33,4.56Z"/>
        <path class="cls-49" d="M907.41,32.07h-1.02s.43.19,1.02,0Z"/>
      </g>
      <path class="cls-59" d="M909.18,125.98h-12.02c-4.11,0-7.67-3.44-7.89-7.49l-4-73.13c-.09-1.59,1.86-2.86,4.33-2.86h7.21c2.47,0,4.72,1.27,5.01,2.86l13.46,73.13c.75,4.05-1.99,7.49-6.1,7.49Z"/>
      <path class="cls-59" d="M882.51,125.64h-4.5c-1.54,0-2.73-1.31-2.65-2.88l1.81-33.79c.05-.87,1-1.58,2.12-1.58h3.27c1.12,0,2.05.7,2.07,1.58l.63,33.79c.03,1.57-1.21,2.88-2.75,2.88Z"/>
      <path class="cls-39" d="M907.41,32.07h-1.02s.43.19,1.02,0Z"/>
    </g>
  </g>
  <g>
    <ellipse class="cls-56" cx="720" cy="145.63" rx="55" ry="9.79"/>
    <g>
      <g>
        <path class="cls-6" d="M747.41,32.07h-1.02s.43.19,1.02,0Z"/>
        <path class="cls-6" d="M720.31,104.52c-6.67.52-4.95.2-18.84-.68-5.42-.34-13.66-.12-21.06-.02-1.49,7.84-1.88,9.62-2.47,11.92-2.39,9.22-5.69,9.56,5.8,23.56,9.24,11.25,11.95,10.24,36.54,10.24s27.32,1.02,36.54-10.24c9.22-11.27,8.2-14.34,5.8-23.56-.54-2.1-1.25-5.5-2.56-12.37-.43-.06-11.01.42-11.46.47-12.98,1.59-16.65-.22-28.28.68Z"/>
      </g>
      <g>
        <path class="cls-23" d="M694.33,36.17h-2.06c-1.13,0-2.05-.92-2.05-2.05s.92-2.05,2.05-2.05h1.54c-3.48.06-2.13-2.03-3.79-8.08-.34-.42-.56-.67-.56-.67l-2.65,2.63s-3.7,2.93-9.17,5.27c-5.47,2.34-13.69,10.04-11.32,43.8,2.37,33.76,6.86,35.26,6.5,27.44-1.31-28.47-6.41-67.98,14.15-63.55,2,.43,2.78,5.67,3.95,7.31.68-3.8,1.2-6.76,1.5-8.45.16-.92.96-1.59,1.9-1.59Z"/>
        <path class="cls-5" d="M762.62,115.73c-2.18-8.4-12.64-67.47-14.49-77.97-.16-.92-.96-1.59-1.9-1.59h-51.9c-.94,0-1.74.67-1.9,1.59-.3,1.69-.82,4.65-1.5,8.45-3.51,19.78-11.17,62.48-12.99,69.52-2.39,9.22-5.69,9.56,5.8,23.56,9.24,11.25,11.95,10.24,36.54,10.24s27.32,1.02,36.54-10.24c9.22-11.27,8.2-14.34,5.8-23.56Z"/>
        <path class="cls-13" d="M747.58,32.07h-.16c-.59.19-1.02,0-1.02,0h-54.12c-1.13,0-2.05.92-2.05,2.05s.92,2.05,2.05,2.05h55.31c1.13,0,2.05-.92,2.05-2.05s-.92-2.05-2.05-2.05Z"/>
        <path class="cls-5" d="M740.33,12.1c-7.51,3.59-28.62,3.7-41.23,2.05-10.41-1.37-9.11-3.21-11.95-1.37-4.74,3.08,1.37,5.55,2.87,11.21,1.61,6.07.31,8.14,3.79,8.08h53.61c1.02-.33,2.52-1.76,3.25-7.17,1.15-8.58,11-17.36,11-17.36-4.85-7.39-13.82.97-21.33,4.56Z"/>
        <path class="cls-46" d="M747.41,32.07h-1.02s.43.19,1.02,0Z"/>
      </g>
      <path class="cls-59" d="M749.18,125.98h-12.02c-4.11,0-7.67-3.44-7.89-7.49l-4-73.13c-.09-1.59,1.86-2.86,4.33-2.86h7.21c2.47,0,4.72,1.27,5.01,2.86l13.46,73.13c.75,4.05-1.99,7.49-6.1,7.49Z"/>
      <path class="cls-59" d="M722.51,125.64h-4.5c-1.54,0-2.73-1.31-2.65-2.88l1.81-33.79c.05-.87,1-1.58,2.12-1.58h3.27c1.12,0,2.05.7,2.07,1.58l.63,33.79c.03,1.57-1.21,2.88-2.75,2.88Z"/>
    </g>
  </g>
  <g>
    <ellipse class="cls-56" cx="560" cy="145.63" rx="55" ry="9.79"/>
    <g>
      <g>
        <path class="cls-47" d="M587.41,32.07h-1.02s.43.19,1.02,0Z"/>
        <path class="cls-47" d="M594.98,116.89c-1.1.3-20.98.38-25.79.33-4.81-.05-18.86.74-28.65,0-4.16-.31-13.53-.36-22.93-.31-2.33,8.1-4.86,9.01,6.13,22.39,9.24,11.25,11.95,10.24,36.54,10.24s27.32,1.02,36.54-10.24c8.84-10.8,8.26-14.07,6.09-22.44-3.44-.19-7.25-.15-7.92.04Z"/>
      </g>
      <g>
        <path class="cls-20" d="M534.33,36.17h-2.06c-1.13,0-2.05-.92-2.05-2.05s.92-2.05,2.05-2.05h1.54c-3.48.06-2.13-2.03-3.79-8.08-.34-.42-.56-.67-.56-.67l-2.65,2.63s-3.7,2.93-9.17,5.27c-5.47,2.34-13.69,10.04-11.32,43.8,2.37,33.76,6.86,35.26,6.5,27.44-1.31-28.47-6.41-67.98,14.15-63.55,2,.43,2.78,5.67,3.95,7.31.68-3.8,1.2-6.76,1.5-8.45.16-.92.96-1.59,1.9-1.59Z"/>
        <path class="cls-21" d="M602.62,115.73c-2.18-8.4-12.64-67.47-14.49-77.97-.16-.92-.96-1.59-1.9-1.59h-51.9c-.94,0-1.74.67-1.9,1.59-.3,1.69-.82,4.65-1.5,8.45-3.51,19.78-11.17,62.48-12.99,69.52-2.39,9.22-5.69,9.56,5.8,23.56,9.24,11.25,11.95,10.24,36.54,10.24s27.32,1.02,36.54-10.24,8.2-14.34,5.8-23.56Z"/>
        <path class="cls-15" d="M587.58,32.07h-.16c-.59.19-1.02,0-1.02,0h-54.12c-1.13,0-2.05.92-2.05,2.05s.92,2.05,2.05,2.05h55.31c1.13,0,2.05-.92,2.05-2.05s-.92-2.05-2.05-2.05Z"/>
        <path class="cls-21" d="M580.33,12.1c-7.51,3.59-28.62,3.7-41.23,2.05-10.41-1.37-9.11-3.21-11.95-1.37-4.74,3.08,1.37,5.55,2.87,11.21,1.61,6.07.31,8.14,3.79,8.08h53.61c1.02-.33,2.52-1.76,3.25-7.17,1.15-8.58,11-17.36,11-17.36-4.85-7.39-13.82.97-21.33,4.56Z"/>
        <path class="cls-9" d="M587.41,32.07h-1.02s.43.19,1.02,0Z"/>
      </g>
      <path class="cls-59" d="M589.18,125.98h-12.02c-4.11,0-7.67-3.44-7.89-7.49l-4-73.13c-.09-1.59,1.86-2.86,4.33-2.86h7.21c2.47,0,4.72,1.27,5.01,2.86l13.46,73.13c.75,4.05-1.99,7.49-6.1,7.49Z"/>
      <path class="cls-59" d="M562.51,125.64h-4.5c-1.54,0-2.73-1.31-2.65-2.88l1.81-33.79c.05-.87,1-1.58,2.12-1.58h3.27c1.12,0,2.05.7,2.07,1.58l.63,33.79c.03,1.57-1.21,2.88-2.75,2.88Z"/>
    </g>
  </g>
  <g>
    <ellipse class="cls-56" cx="400" cy="145.63" rx="55" ry="9.79"/>
    <g>
      <g>
        <path class="cls-54" d="M427.41,32.07h-1.02s.43.19,1.02,0Z"/>
        <path class="cls-2" d="M433.58,128.37c-4.1-.68-16.9,0-20.49,0s-17.41.68-24.93,0c-4.43-.4-19.93-.33-31.93-.2.99,2.59,3.21,5.91,7.5,11.13,9.24,11.25,11.95,10.24,36.54,10.24s27.32,1.02,36.54-10.24c3.96-4.83,6.02-8.16,6.9-11.11-4.31.33-8.38.48-10.13.18Z"/>
      </g>
      <g>
        <path class="cls-36" d="M374.33,36.17h-2.06c-1.13,0-2.05-.92-2.05-2.05s.92-2.05,2.05-2.05h1.54c-3.48.06-2.13-2.03-3.79-8.08-.34-.42-.56-.67-.56-.67l-2.65,2.63s-3.7,2.93-9.17,5.27c-5.47,2.34-13.69,10.04-11.32,43.8,2.37,33.76,6.86,35.26,6.5,27.44-1.31-28.47-6.41-67.98,14.15-63.55,2,.43,2.78,5.67,3.95,7.31.68-3.8,1.2-6.76,1.5-8.45.16-.92.96-1.59,1.9-1.59Z"/>
        <path class="cls-31" d="M442.62,115.73c-2.18-8.4-12.64-67.47-14.49-77.97-.16-.92-.96-1.59-1.9-1.59h-51.9c-.94,0-1.74.67-1.9,1.59-.3,1.69-.82,4.65-1.5,8.45-3.51,19.78-11.17,62.48-12.99,69.52-2.39,9.22-5.69,9.56,5.8,23.56,9.24,11.25,11.95,10.24,36.54,10.24s27.32,1.02,36.54-10.24c9.22-11.27,8.2-14.34,5.8-23.56Z"/>
        <path class="cls-10" d="M427.58,32.07h-.16c-.59.19-1.02,0-1.02,0h-54.12c-1.13,0-2.05.92-2.05,2.05s.92,2.05,2.05,2.05h55.31c1.13,0,2.05-.92,2.05-2.05s-.92-2.05-2.05-2.05Z"/>
        <path class="cls-31" d="M420.33,12.1c-7.51,3.59-28.62,3.7-41.23,2.05-10.41-1.37-9.11-3.21-11.95-1.37-4.74,3.08,1.37,5.55,2.87,11.21,1.61,6.07.31,8.14,3.79,8.08h53.61c1.02-.33,2.52-1.76,3.25-7.17,1.15-8.58,11-17.36,11-17.36-4.85-7.39-13.82.97-21.33,4.56Z"/>
        <path class="cls-41" d="M427.41,32.07h-1.02s.43.19,1.02,0Z"/>
      </g>
      <path class="cls-59" d="M429.18,125.98h-12.02c-4.11,0-7.67-3.44-7.89-7.49l-4-73.13c-.09-1.59,1.86-2.86,4.33-2.86h7.21c2.47,0,4.72,1.27,5.01,2.86l13.46,73.13c.75,4.05-1.99,7.49-6.1,7.49Z"/>
      <path class="cls-59" d="M402.51,125.64h-4.5c-1.54,0-2.73-1.31-2.65-2.88l1.81-33.79c.05-.87,1-1.58,2.12-1.58h3.27c1.12,0,2.05.7,2.07,1.58l.63,33.79c.03,1.57-1.21,2.88-2.75,2.88Z"/>
    </g>
  </g>
  <g>
    <ellipse class="cls-56" cx="240" cy="145.63" rx="55" ry="9.79"/>
    <g>
      <g>
        <path class="cls-54" d="M267.41,32.07h-1.02s.43.19,1.02,0Z"/>
        <path class="cls-39" d="M220.54,138.13c-5.25-.78-12.17-.89-18.36-.76.49.61,1,1.26,1.56,1.93,9.24,11.25,11.95,10.24,36.54,10.24s27.32,1.02,36.54-10.24c.4-.49.77-.95,1.13-1.41-2.55-.05-5.4-.1-8.31-.16-9.19-.18-36.79,2.23-49.09.4Z"/>
      </g>
      <path class="cls-59" d="M269.18,125.98h-12.02c-4.11,0-7.67-3.44-7.89-7.49l-4-73.13c-.09-1.59,1.86-2.86,4.33-2.86h7.21c2.47,0,4.72,1.27,5.01,2.86l13.46,73.13c.75,4.05-1.99,7.49-6.1,7.49Z"/>
      <path class="cls-59" d="M242.51,125.64h-4.5c-1.54,0-2.73-1.31-2.65-2.88l1.81-33.79c.05-.87,1-1.58,2.12-1.58h3.27c1.12,0,2.05.7,2.07,1.58l.63,33.79c.03,1.57-1.21,2.88-2.75,2.88Z"/>
      <g>
        <path class="cls-3" d="M214.33,36.17h-2.06c-1.13,0-2.05-.92-2.05-2.05s.92-2.05,2.05-2.05h1.54c-3.48.06-2.13-2.03-3.79-8.08-.34-.42-.56-.67-.56-.67l-2.65,2.63s-3.7,2.93-9.17,5.27c-5.47,2.34-13.69,10.04-11.32,43.8,2.37,33.76,6.86,35.26,6.5,27.44-1.31-28.47-6.41-67.98,14.15-63.55,2,.43,2.78,5.67,3.95,7.31.68-3.8,1.2-6.76,1.5-8.45.16-.92.96-1.59,1.9-1.59Z"/>
        <path class="cls-34" d="M282.62,115.73c-2.18-8.4-12.64-67.47-14.49-77.97-.16-.92-.96-1.59-1.9-1.59h-51.9c-.94,0-1.74.67-1.9,1.59-.3,1.69-.82,4.65-1.5,8.45-3.51,19.78-11.17,62.48-12.99,69.52-2.39,9.22-5.69,9.56,5.8,23.56,9.24,11.25,11.95,10.24,36.54,10.24s27.32,1.02,36.54-10.24c9.22-11.27,8.2-14.34,5.8-23.56Z"/>
        <path class="cls-18" d="M267.58,32.07h-.16c-.59.19-1.02,0-1.02,0h-54.12c-1.13,0-2.05.92-2.05,2.05s.92,2.05,2.05,2.05h55.31c1.13,0,2.05-.92,2.05-2.05s-.92-2.05-2.05-2.05Z"/>
        <path class="cls-34" d="M260.33,12.1c-7.51,3.59-28.62,3.7-41.23,2.05-10.41-1.37-9.11-3.21-11.95-1.37-4.74,3.08,1.37,5.55,2.87,11.21,1.61,6.07.31,8.14,3.79,8.08h53.61c1.02-.33,2.52-1.76,3.25-7.17,1.15-8.58,11-17.36,11-17.36-4.85-7.39-13.82.97-21.33,4.56Z"/>
        <path class="cls-49" d="M267.41,32.07h-1.02s.43.19,1.02,0Z"/>
      </g>
    </g>
  </g>
  <g>
    <ellipse class="cls-56" cx="1840" cy="145.63" rx="55" ry="9.79"/>
    <g>
      <path class="cls-30" d="M1894.25,147.24c-4.11-4.51-13.73-4.6-16.07-4.82-12.02-1.09-5.55-3.58-13.83-3-5.48,6.74-9.61,6-26.62,6-15.9,0-20.53.63-25.55-4.79-47.5,3.08-14.33,8.01,6.62,13.43-.02,0-.04,0-.06,0,11.41,3.83,11.39-3.69,22.17-1.15,18.58,4.37,57.92-.65,53.33-5.68Z"/>
      <g>
        <path class="cls-38" d="M1867.41,32.07h-1.02s.43.19,1.02,0Z"/>
        <path class="cls-38" d="M1819.1,14.15c-10.41-1.37-9.11-3.21-11.95-1.37-4.74,3.08,1.37,5.55,2.87,11.21,1.61,6.07.31,8.14,3.79,8.08h-1.54c-1.13,0-2.05.92-2.05,2.05s.92,2.05,2.05,2.05h2.06c-.94,0-1.74.67-1.9,1.59-.3,1.69-.82,4.65-1.5,8.45-3.51,19.78-11.17,62.48-12.99,69.52-2.39,9.22-5.69,9.56,5.8,23.56,9.24,11.25,11.95,10.24,36.54,10.24s27.32,1.02,36.54-10.24c9.22-11.27,8.2-14.34,5.8-23.56-2.18-8.4-12.64-67.47-14.49-77.97-.16-.92-.96-1.59-1.9-1.59h1.35c1.13,0,2.05-.92,2.05-2.05s-.92-2.05-2.05-2.05h-.16c-.59.19-1.02,0-1.02,0h1.02c1.02-.33,2.52-1.76,3.25-7.17.76-5.68,5.32-11.43,8.33-14.68h-15.18c-1.18.69-2.35,1.34-3.48,1.88-7.51,3.59-28.62,3.7-41.23,2.05Z"/>
      </g>
      <g>
        <path class="cls-12" d="M1814.33,36.17h-2.06c-1.13,0-2.05-.92-2.05-2.05s.92-2.05,2.05-2.05h1.54c-3.48.06-2.13-2.03-3.79-8.08-.34-.42-.56-.67-.56-.67l-2.65,2.63s-3.7,2.93-9.17,5.27c-5.47,2.34-13.69,10.04-11.32,43.8,2.37,33.76,6.86,35.26,6.5,27.44-1.31-28.47-6.41-67.98,14.15-63.55,2,.43,2.78,5.67,3.95,7.31.68-3.8,1.2-6.76,1.5-8.45.16-.92.96-1.59,1.9-1.59Z"/>
        <path class="cls-7" d="M1882.62,115.73c-2.18-8.4-12.64-67.47-14.49-77.97-.16-.92-.96-1.59-1.9-1.59h-51.9c-.94,0-1.74.67-1.9,1.59-.3,1.69-.82,4.65-1.5,8.45-3.51,19.78-11.17,62.48-12.99,69.52-2.39,9.22-5.69,9.56,5.8,23.56,9.24,11.25,11.95,10.24,36.54,10.24s27.32,1.02,36.54-10.24c9.22-11.27,8.2-14.34,5.8-23.56Z"/>
        <path class="cls-24" d="M1867.58,32.07h-.16c-.59.19-1.02,0-1.02,0h-54.12c-1.13,0-2.05.92-2.05,2.05s.92,2.05,2.05,2.05h55.31c1.13,0,2.05-.92,2.05-2.05s-.92-2.05-2.05-2.05Z"/>
        <path class="cls-7" d="M1860.33,12.1c-7.51,3.59-28.62,3.7-41.23,2.05-10.41-1.37-9.11-3.21-11.95-1.37-4.74,3.08,1.37,5.55,2.87,11.21,1.61,6.07.31,8.14,3.79,8.08h53.61c1.02-.33,2.52-1.76,3.25-7.17,1.15-8.58,11-17.36,11-17.36-4.85-7.39-13.82.97-21.33,4.56Z"/>
        <path class="cls-14" d="M1867.41,32.07h-1.02s.43.19,1.02,0Z"/>
      </g>
      <path class="cls-59" d="M1869.18,125.98h-12.02c-4.11,0-7.67-3.44-7.89-7.49l-4-73.13c-.09-1.59,1.86-2.86,4.33-2.86h7.21c2.47,0,4.72,1.27,5.01,2.86l13.46,73.13c.75,4.05-1.99,7.49-6.1,7.49Z"/>
      <path class="cls-59" d="M1842.51,125.64h-4.5c-1.54,0-2.73-1.31-2.65-2.88l1.81-33.79c.05-.87,1-1.58,2.12-1.58h3.27c1.12,0,2.05.7,2.07,1.58l.63,33.79c.03,1.57-1.21,2.88-2.75,2.88Z"/>
      <path class="cls-57" d="M1867.41,32.07h-1.02s.43.19,1.02,0Z"/>
      <path class="cls-60" d="M1867.41,32.07h-1.02s.43.19,1.02,0Z"/>
      <path class="cls-38" d="M1861.32,9.74c-8.08,2.84-17.91,1.74-18.94,1.79-8.88.48-2.45,1.33-16.85.34-10.3-.7-12.91.13-10.26,1.66,0,0-.01,0-.02,0,0,0,0,0,0,0,1.34.28,6.06,6.25,1.62,14.1-3.82,6.76,2.16,16.36,3.9,18.9.16.22.31.43.45.64,4.77,6.83,5.49,10.61,5.22,13.31.25,2.48-.44,4.1-.78,5.69-.06.28-.06.58.02.86.4,1.41,1.46,3.08,3.79,5.41,3.52,3.52,4.46,9.48,4.32,16.06.19,9.92-2.56,21.79-2.9,28.99.14,2.43.81,3.93,2.39,4.03,2.72.16,3.45-5.7,3.51-13.52-.05-7.55-.56-16.41-.51-23.44-.06-8.41.49-14.84,3.19-14.5,7.62.95-.92,45.48,13.82,19.54,2.81-4.95,7.61-4.3,7.88-9.05,0-.09,0-.17,0-.26-.11-2.13-.47-4.16-.92-5.71-.2-.7-.25-1.57-.17-2.54.01-.18,0-.37-.03-.54-5.86-27.75-.04-50.78,3.82-60.64.6-1.54-1.01-1.66-2.57-1.11ZM1847.33,48.12c-2.6-6.25,2.94-27.77,2.94-27.77,2.35,3.07-1.55,9.02,1.16,17.11,4.36,13.05,3.14,28.02-4.1,10.66Z"/>
    </g>
    <path class="cls-40" d="M1862.88,112.33c.42,5.9.74,18.2,5.33,23.5s18.04,9.83,11.85,12.71c-6.2,2.88-6.79-.6-15.87,1.95-7.81,2.19-10.26.96-12.6-.29-2.34-1.25,4.55-7.31,5.01-13.77.71-10.05-2.46-25.03.14-19.96,1.15,2.25-.3,7.26,3.35,19.01,2.32,7.46,4.36-19.36-1.57-24.89-5.94-5.53,2.05-7.95,2.29-12.1s1.83,10.37,2.07,13.83Z"/>
  </g>
</svg>