<?xml version="1.0" encoding="UTF-8"?>
<svg id="Layer_1" data-name="Layer 1" xmlns="http://www.w3.org/2000/svg" xmlns:xlink="http://www.w3.org/1999/xlink" viewBox="0 0 960 120">
  <defs>
    <style>
      .cls-1 {
        fill: url(#linear-gradient-4);
      }

      .cls-1, .cls-2, .cls-3, .cls-4, .cls-5, .cls-6, .cls-7, .cls-8, .cls-9, .cls-10, .cls-11, .cls-12, .cls-13, .cls-14, .cls-15, .cls-16, .cls-17, .cls-18, .cls-19, .cls-20, .cls-21, .cls-22, .cls-23, .cls-24 {
        stroke-linecap: round;
        stroke-linejoin: round;
      }

      .cls-1, .cls-2, .cls-3, .cls-4, .cls-5, .cls-7, .cls-8, .cls-9, .cls-10, .cls-11, .cls-12, .cls-13, .cls-14, .cls-15, .cls-16, .cls-17, .cls-18, .cls-19, .cls-20, .cls-21, .cls-23, .cls-24 {
        stroke: #4a2700;
      }

      .cls-1, .cls-2, .cls-3, .cls-4, .cls-5, .cls-7, .cls-8, .cls-9, .cls-10, .cls-11, .cls-13, .cls-14, .cls-15, .cls-16, .cls-17, .cls-18, .cls-19, .cls-20, .cls-21, .cls-23, .cls-24 {
        stroke-width: .27px;
      }

      .cls-2 {
        fill: url(#linear-gradient-16);
      }

      .cls-3 {
        fill: url(#linear-gradient-21);
      }

      .cls-4 {
        fill: url(#linear-gradient-14);
      }

      .cls-5 {
        fill: url(#linear-gradient-8);
      }

      .cls-6 {
        fill: #3d3c3a;
        stroke: #000;
      }

      .cls-7 {
        fill: url(#linear-gradient-19);
      }

      .cls-8 {
        fill: url(#linear-gradient-12);
      }

      .cls-9 {
        fill: url(#linear-gradient-3);
      }

      .cls-10 {
        fill: url(#linear-gradient-17);
      }

      .cls-11 {
        fill: url(#linear-gradient-5);
      }

      .cls-12 {
        fill: url(#linear-gradient-22);
        stroke-width: .26px;
      }

      .cls-13 {
        fill: url(#linear-gradient-20);
      }

      .cls-14 {
        fill: url(#linear-gradient-13);
      }

      .cls-15 {
        fill: url(#linear-gradient-9);
      }

      .cls-16 {
        fill: url(#linear-gradient-6);
      }

      .cls-17 {
        fill: url(#linear-gradient-7);
      }

      .cls-18 {
        fill: url(#linear-gradient-11);
      }

      .cls-19 {
        fill: url(#linear-gradient);
      }

      .cls-20 {
        fill: url(#linear-gradient-10);
      }

      .cls-21 {
        fill: url(#linear-gradient-18);
      }

      .cls-22 {
        fill: #11100e;
        stroke: #68635f;
        stroke-width: .23px;
      }

      .cls-23 {
        fill: url(#linear-gradient-2);
      }

      .cls-24 {
        fill: url(#linear-gradient-15);
      }
    </style>
    <linearGradient id="linear-gradient" x1="224.44" y1="35.51" x2="224.56" y2="35.51" gradientUnits="userSpaceOnUse">
      <stop offset="0" stop-color="#dba040"/>
      <stop offset="1" stop-color="#ebae49"/>
    </linearGradient>
    <linearGradient id="linear-gradient-2" x1="-8.07" y1="164.79" x2="-7.95" y2="164.79" gradientTransform="translate(431.04 -92.59) rotate(60)" xlink:href="#linear-gradient"/>
    <linearGradient id="linear-gradient-3" x1="344.44" x2="344.56" xlink:href="#linear-gradient"/>
    <linearGradient id="linear-gradient-4" x1="-68.9" y1="328.87" x2="-68.78" y2="328.87" gradientTransform="translate(730.22 232.41) rotate(120)" xlink:href="#linear-gradient"/>
    <linearGradient id="linear-gradient-5" x1="51.93" y1="60.87" x2="52.05" y2="60.87" gradientTransform="translate(431.04 -92.59) rotate(60)" xlink:href="#linear-gradient"/>
    <linearGradient id="linear-gradient-6" x1="464.44" x2="464.56" xlink:href="#linear-gradient"/>
    <linearGradient id="linear-gradient-7" x1="-17.22" y1="567.51" x2="-17.09" y2="567.51" gradientTransform="translate(598.35 654) rotate(-180)" xlink:href="#linear-gradient"/>
    <linearGradient id="linear-gradient-8" x1="-128.9" y1="224.95" x2="-128.78" y2="224.95" gradientTransform="translate(730.22 232.41) rotate(120)" xlink:href="#linear-gradient"/>
    <linearGradient id="linear-gradient-9" x1="111.93" y1="-43.05" x2="112.05" y2="-43.05" gradientTransform="translate(431.04 -92.59) rotate(60)" xlink:href="#linear-gradient"/>
    <linearGradient id="linear-gradient-10" x1="584.44" x2="584.56" xlink:href="#linear-gradient"/>
    <linearGradient id="linear-gradient-11" x1="-137.22" y1="567.51" x2="-137.09" y2="567.51" gradientTransform="translate(598.35 654) rotate(-180)" xlink:href="#linear-gradient"/>
    <linearGradient id="linear-gradient-12" x1="-188.9" y1="121.02" x2="-188.78" y2="121.02" gradientTransform="translate(730.22 232.41) rotate(120)" xlink:href="#linear-gradient"/>
    <linearGradient id="linear-gradient-13" x1="275.29" y1="750" x2="275.41" y2="750" gradientTransform="translate(163.84 752.59) rotate(-120)" xlink:href="#linear-gradient"/>
    <linearGradient id="linear-gradient-14" x1="171.93" y1="-146.98" x2="172.05" y2="-146.98" gradientTransform="translate(431.04 -92.59) rotate(60)" xlink:href="#linear-gradient"/>
    <linearGradient id="linear-gradient-15" x1="704.44" x2="704.56" xlink:href="#linear-gradient"/>
    <linearGradient id="linear-gradient-16" x1="-257.22" y1="567.51" x2="-257.09" y2="567.51" gradientTransform="translate(598.35 654) rotate(-180)" xlink:href="#linear-gradient"/>
    <linearGradient id="linear-gradient-17" x1="696.12" y1="585.92" x2="696.24" y2="585.92" gradientTransform="translate(-135.34 423.59) rotate(-60)" xlink:href="#linear-gradient"/>
    <linearGradient id="linear-gradient-18" x1="-248.9" y1="17.1" x2="-248.78" y2="17.1" gradientTransform="translate(730.22 232.41) rotate(120)" xlink:href="#linear-gradient"/>
    <linearGradient id="linear-gradient-19" x1="215.29" y1="853.92" x2="215.41" y2="853.92" gradientTransform="translate(163.84 752.59) rotate(-120)" xlink:href="#linear-gradient"/>
    <linearGradient id="linear-gradient-20" x1="231.93" y1="-250.9" x2="232.05" y2="-250.9" gradientTransform="translate(431.04 -92.59) rotate(60)" xlink:href="#linear-gradient"/>
    <linearGradient id="linear-gradient-21" x1="104.44" x2="104.56" xlink:href="#linear-gradient"/>
    <linearGradient id="linear-gradient-22" x1="853.41" y1="61" x2="946.59" y2="61" xlink:href="#linear-gradient"/>
  </defs>
  <g>
    <circle class="cls-6" cx="300" cy="60" r="58.59"/>
    <path class="cls-22" d="M309.05,112.5c-2.95,0-5.79-.87-8.2-2.52l-.85-.58-.85.58c-2.41,1.65-5.25,2.52-8.2,2.52-2.57,0-5.11-.68-7.35-1.98-3.06-1.76-5.38-4.56-6.53-7.87l-.43-1.22-1.27.24c-.89.17-1.81.26-2.73.26-2.57,0-5.11-.68-7.35-1.98-4.84-2.79-7.71-8.19-7.3-13.74l.07-1.02-.92-.44c-5.01-2.43-8.25-7.61-8.25-13.19,0-3.51,1.27-6.91,3.57-9.59l.84-.98-.84-.98c-2.3-2.67-3.57-6.08-3.57-9.59,0-5.58,3.24-10.76,8.25-13.19l.92-.44-.08-1.02c-.12-1.66.04-3.31.48-4.92,1.03-3.74,3.45-6.87,6.82-8.82,2.24-1.29,4.78-1.97,7.35-1.97.92,0,1.84.09,2.74.26l1.27.24.43-1.22c1.17-3.32,3.48-6.12,6.52-7.87,2.24-1.29,4.78-1.98,7.35-1.98,2.95,0,5.79.87,8.2,2.52l.85.58.85-.58c2.42-1.65,5.25-2.52,8.2-2.52,2.57,0,5.11.68,7.35,1.98,3.03,1.75,5.35,4.55,6.52,7.87l.43,1.22,1.27-.24c.9-.17,1.82-.26,2.74-.26,2.57,0,5.11.68,7.35,1.98,3.37,1.95,5.8,5.08,6.82,8.82.44,1.61.6,3.27.48,4.92l-.08,1.02.92.44c5.01,2.43,8.25,7.61,8.25,13.19,0,3.51-1.27,6.91-3.57,9.59l-.84.98.84.98c2.3,2.67,3.57,6.08,3.57,9.59,0,5.58-3.24,10.76-8.25,13.19l-.92.44.08,1.02c.12,1.66-.04,3.31-.48,4.92-1.03,3.74-3.45,6.87-6.82,8.82-2.24,1.29-4.78,1.97-7.35,1.97-.92,0-1.83-.09-2.73-.26l-1.27-.24-.43,1.22c-1.15,3.31-3.47,6.1-6.53,7.87-2.24,1.29-4.78,1.97-7.35,1.97Z"/>
    <path class="cls-19" d="M281.13,24.35c-.12-.21-.19-.45-.19-.67-.03-3.43,1.82-6.64,4.82-8.38,1.47-.85,3.14-1.3,4.82-1.3,2.47,0,4.81.94,6.59,2.65l.56.54c.61.59,1.42.92,2.27.92s1.66-.33,2.27-.92l.56-.54c1.78-1.71,4.11-2.65,6.58-2.65,1.68,0,3.35.45,4.82,1.3,3,1.73,4.85,4.94,4.82,8.38,0,.22-.07.46-.19.67l-18.87,32.68-18.87-32.68Z"/>
    <path class="cls-23" d="M336,29.35c1.24,2.14,1.59,4.64,1,7.03l-.19.75c-.2.83-.08,1.69.34,2.42s1.11,1.27,1.93,1.51l.75.22c2.37.68,4.35,2.24,5.59,4.38.84,1.46,1.29,3.13,1.29,4.83,0,3.47-1.86,6.67-4.85,8.36-.2.11-.43.17-.67.17h-37.73s18.86-32.67,18.86-32.67c.12-.21.29-.39.48-.5,2.96-1.74,6.66-1.75,9.66-.02,1.47.85,2.7,2.07,3.54,3.53Z"/>
  </g>
  <g>
    <circle class="cls-6" cx="420" cy="60" r="58.59"/>
    <path class="cls-22" d="M429.05,112.5c-2.95,0-5.79-.87-8.2-2.52l-.85-.58-.85.58c-2.41,1.65-5.25,2.52-8.2,2.52-2.57,0-5.11-.68-7.35-1.98-3.06-1.76-5.38-4.56-6.53-7.87l-.43-1.22-1.27.24c-.89.17-1.81.26-2.73.26-2.57,0-5.11-.68-7.35-1.98-4.84-2.79-7.71-8.19-7.3-13.74l.07-1.02-.92-.44c-5.01-2.43-8.25-7.61-8.25-13.19,0-3.51,1.27-6.91,3.57-9.59l.84-.98-.84-.98c-2.3-2.67-3.57-6.08-3.57-9.59,0-5.58,3.24-10.76,8.25-13.19l.92-.44-.08-1.02c-.12-1.66.04-3.31.48-4.92,1.03-3.74,3.45-6.87,6.82-8.82,2.24-1.29,4.78-1.97,7.35-1.97.92,0,1.84.09,2.74.26l1.27.24.43-1.22c1.17-3.32,3.48-6.12,6.52-7.87,2.24-1.29,4.78-1.98,7.35-1.98,2.95,0,5.79.87,8.2,2.52l.85.58.85-.58c2.42-1.65,5.25-2.52,8.2-2.52,2.57,0,5.11.68,7.35,1.98,3.03,1.75,5.35,4.55,6.52,7.87l.43,1.22,1.27-.24c.9-.17,1.82-.26,2.74-.26,2.57,0,5.11.68,7.35,1.98,3.37,1.95,5.8,5.08,6.82,8.82.44,1.61.6,3.27.48,4.92l-.08,1.02.92.44c5.01,2.43,8.25,7.61,8.25,13.19,0,3.51-1.27,6.91-3.57,9.59l-.84.98.84.98c2.3,2.67,3.57,6.08,3.57,9.59,0,5.58-3.24,10.76-8.25,13.19l-.92.44.08,1.02c.12,1.66-.04,3.31-.48,4.92-1.03,3.74-3.45,6.87-6.82,8.82-2.24,1.29-4.78,1.97-7.35,1.97-.92,0-1.83-.09-2.73-.26l-1.27-.24-.43,1.22c-1.15,3.31-3.47,6.1-6.53,7.87-2.24,1.29-4.78,1.97-7.35,1.97Z"/>
    <path class="cls-9" d="M401.13,24.35c-.12-.21-.19-.45-.19-.67-.03-3.43,1.82-6.64,4.82-8.38,1.47-.85,3.14-1.3,4.82-1.3,2.47,0,4.81.94,6.59,2.65l.56.54c.61.59,1.42.92,2.27.92s1.66-.33,2.27-.92l.56-.54c1.78-1.71,4.11-2.65,6.58-2.65,1.68,0,3.35.45,4.82,1.3,3,1.73,4.85,4.94,4.82,8.38,0,.22-.07.46-.19.67l-18.87,32.68-18.87-32.68Z"/>
    <path class="cls-1" d="M465.41,76.35c-1.24,2.14-3.22,3.69-5.59,4.38l-.74.21c-.82.24-1.5.77-1.93,1.51s-.55,1.6-.34,2.42l.19.75c.59,2.39.24,4.89-1,7.03-.84,1.46-2.07,2.68-3.54,3.53-3,1.73-6.7,1.73-9.66-.02-.19-.11-.36-.29-.48-.5l-18.87-32.68h37.73c.25,0,.48.06.68.17,2.99,1.69,4.85,4.9,4.85,8.36,0,1.7-.44,3.37-1.29,4.83Z"/>
    <path class="cls-11" d="M456,29.35c1.24,2.14,1.59,4.64,1,7.03l-.19.75c-.2.83-.08,1.69.34,2.42s1.11,1.27,1.93,1.51l.75.22c2.37.68,4.35,2.24,5.59,4.38.84,1.46,1.29,3.13,1.29,4.83,0,3.47-1.86,6.67-4.85,8.36-.2.11-.43.17-.67.17h-37.73s18.86-32.67,18.86-32.67c.12-.21.29-.39.48-.5,2.96-1.74,6.66-1.75,9.66-.02,1.47.85,2.7,2.07,3.54,3.53Z"/>
  </g>
  <g>
    <circle class="cls-6" cx="540" cy="60" r="58.59"/>
    <path class="cls-22" d="M549.05,112.5c-2.95,0-5.79-.87-8.2-2.52l-.85-.58-.85.58c-2.41,1.65-5.25,2.52-8.2,2.52-2.57,0-5.11-.68-7.35-1.98-3.06-1.76-5.38-4.56-6.53-7.87l-.43-1.22-1.27.24c-.89.17-1.81.26-2.73.26-2.57,0-5.11-.68-7.35-1.98-4.84-2.79-7.71-8.19-7.3-13.74l.07-1.02-.92-.44c-5.01-2.43-8.25-7.61-8.25-13.19,0-3.51,1.27-6.91,3.57-9.59l.84-.98-.84-.98c-2.3-2.67-3.57-6.08-3.57-9.59,0-5.58,3.24-10.76,8.25-13.19l.92-.44-.08-1.02c-.12-1.66.04-3.31.48-4.92,1.03-3.74,3.45-6.87,6.82-8.82,2.24-1.29,4.78-1.97,7.35-1.97.92,0,1.84.09,2.74.26l1.27.24.43-1.22c1.17-3.32,3.48-6.12,6.52-7.87,2.24-1.29,4.78-1.98,7.35-1.98,2.95,0,5.79.87,8.2,2.52l.85.58.85-.58c2.42-1.65,5.25-2.52,8.2-2.52,2.57,0,5.11.68,7.35,1.98,3.03,1.75,5.35,4.55,6.52,7.87l.43,1.22,1.27-.24c.9-.17,1.82-.26,2.74-.26,2.57,0,5.11.68,7.35,1.98,3.37,1.95,5.8,5.08,6.82,8.82.44,1.61.6,3.27.48,4.92l-.08,1.02.92.44c5.01,2.43,8.25,7.61,8.25,13.19,0,3.51-1.27,6.91-3.57,9.59l-.84.98.84.98c2.3,2.67,3.57,6.08,3.57,9.59,0,5.58-3.24,10.76-8.25,13.19l-.92.44.08,1.02c.12,1.66-.04,3.31-.48,4.92-1.03,3.74-3.45,6.87-6.82,8.82-2.24,1.29-4.78,1.97-7.35,1.97-.92,0-1.83-.09-2.73-.26l-1.27-.24-.43,1.22c-1.15,3.31-3.47,6.1-6.53,7.87-2.24,1.29-4.78,1.97-7.35,1.97Z"/>
    <g>
      <path class="cls-16" d="M521.13,24.35c-.12-.21-.19-.45-.19-.67-.03-3.43,1.82-6.64,4.82-8.38,1.47-.85,3.14-1.3,4.82-1.3,2.47,0,4.81.94,6.59,2.65l.56.54c.61.59,1.42.92,2.27.92s1.66-.33,2.27-.92l.56-.54c1.78-1.71,4.11-2.65,6.58-2.65,1.68,0,3.35.45,4.82,1.3,3,1.73,4.85,4.94,4.82,8.38,0,.22-.07.46-.19.67l-18.87,32.68-18.87-32.68Z"/>
      <path class="cls-17" d="M549.41,108c-2.47,0-4.81-.94-6.59-2.65l-.56-.54c-.61-.59-1.42-.91-2.27-.91s-1.66.32-2.27.91l-.56.54c-1.78,1.71-4.11,2.65-6.58,2.65-1.68,0-3.35-.45-4.82-1.3-3-1.73-4.85-4.94-4.82-8.38,0-.22.07-.46.19-.67l18.87-32.68,18.87,32.67c.12.21.19.45.19.67.03,3.43-1.82,6.64-4.82,8.38-1.47.85-3.14,1.3-4.82,1.3Z"/>
    </g>
    <path class="cls-5" d="M585.41,76.35c-1.24,2.14-3.22,3.69-5.59,4.38l-.74.21c-.82.24-1.5.77-1.93,1.51s-.55,1.6-.34,2.42l.19.75c.59,2.39.24,4.89-1,7.03-.84,1.46-2.07,2.68-3.54,3.53-3,1.73-6.7,1.73-9.66-.02-.19-.11-.36-.29-.48-.5l-18.87-32.68h37.73c.25,0,.48.06.68.17,2.99,1.69,4.85,4.9,4.85,8.36,0,1.7-.44,3.37-1.29,4.83Z"/>
    <path class="cls-15" d="M576,29.35c1.24,2.14,1.59,4.64,1,7.03l-.19.75c-.2.83-.08,1.69.34,2.42s1.11,1.27,1.93,1.51l.75.22c2.37.68,4.35,2.24,5.59,4.38.84,1.46,1.29,3.13,1.29,4.83,0,3.47-1.86,6.67-4.85,8.36-.2.11-.43.17-.67.17h-37.73s18.86-32.67,18.86-32.67c.12-.21.29-.39.48-.5,2.96-1.74,6.66-1.75,9.66-.02,1.47.85,2.7,2.07,3.54,3.53Z"/>
  </g>
  <g>
    <circle class="cls-6" cx="660" cy="60" r="58.59"/>
    <path class="cls-22" d="M669.05,112.5c-2.95,0-5.79-.87-8.2-2.52l-.85-.58-.85.58c-2.41,1.65-5.25,2.52-8.2,2.52-2.57,0-5.11-.68-7.35-1.98-3.06-1.76-5.38-4.56-6.53-7.87l-.43-1.22-1.27.24c-.89.17-1.81.26-2.73.26-2.57,0-5.11-.68-7.35-1.98-4.84-2.79-7.71-8.19-7.3-13.74l.07-1.02-.92-.44c-5.01-2.43-8.25-7.61-8.25-13.19,0-3.51,1.27-6.91,3.57-9.59l.84-.98-.84-.98c-2.3-2.67-3.57-6.08-3.57-9.59,0-5.58,3.24-10.76,8.25-13.19l.92-.44-.08-1.02c-.12-1.66.04-3.31.48-4.92,1.03-3.74,3.45-6.87,6.82-8.82,2.24-1.29,4.78-1.97,7.35-1.97.92,0,1.84.09,2.74.26l1.27.24.43-1.22c1.17-3.32,3.48-6.12,6.52-7.87,2.24-1.29,4.78-1.98,7.35-1.98,2.95,0,5.79.87,8.2,2.52l.85.58.85-.58c2.42-1.65,5.25-2.52,8.2-2.52,2.57,0,5.11.68,7.35,1.98,3.03,1.75,5.35,4.55,6.52,7.87l.43,1.22,1.27-.24c.9-.17,1.82-.26,2.74-.26,2.57,0,5.11.68,7.35,1.98,3.37,1.95,5.8,5.08,6.82,8.82.44,1.61.6,3.27.48,4.92l-.08,1.02.92.44c5.01,2.43,8.25,7.61,8.25,13.19,0,3.51-1.27,6.91-3.57,9.59l-.84.98.84.98c2.3,2.67,3.57,6.08,3.57,9.59,0,5.58-3.24,10.76-8.25,13.19l-.92.44.08,1.02c.12,1.66-.04,3.31-.48,4.92-1.03,3.74-3.45,6.87-6.82,8.82-2.24,1.29-4.78,1.97-7.35,1.97-.92,0-1.83-.09-2.73-.26l-1.27-.24-.43,1.22c-1.15,3.31-3.47,6.1-6.53,7.87-2.24,1.29-4.78,1.97-7.35,1.97Z"/>
    <g>
      <path class="cls-20" d="M641.13,24.35c-.12-.21-.19-.45-.19-.67-.03-3.43,1.82-6.64,4.82-8.38,1.47-.85,3.14-1.3,4.82-1.3,2.47,0,4.81.94,6.59,2.65l.56.54c.61.59,1.42.92,2.27.92s1.66-.33,2.27-.92l.56-.54c1.78-1.71,4.11-2.65,6.58-2.65,1.68,0,3.35.45,4.82,1.3,3,1.73,4.85,4.94,4.82,8.38,0,.22-.07.46-.19.67l-18.87,32.68-18.87-32.68Z"/>
      <path class="cls-18" d="M669.41,108c-2.47,0-4.81-.94-6.59-2.65l-.56-.54c-.61-.59-1.42-.91-2.27-.91s-1.66.32-2.27.91l-.56.54c-1.78,1.71-4.11,2.65-6.58,2.65-1.68,0-3.35-.45-4.82-1.3-3-1.73-4.85-4.94-4.82-8.38,0-.22.07-.46.19-.67l18.87-32.68,18.87,32.67c.12.21.19.45.19.67.03,3.43-1.82,6.64-4.82,8.38-1.47.85-3.14,1.3-4.82,1.3Z"/>
    </g>
    <path class="cls-8" d="M705.41,76.35c-1.24,2.14-3.22,3.69-5.59,4.38l-.74.21c-.82.24-1.5.77-1.93,1.51s-.55,1.6-.34,2.42l.19.75c.59,2.39.24,4.89-1,7.03-.84,1.46-2.07,2.68-3.54,3.53-3,1.73-6.7,1.73-9.66-.02-.19-.11-.36-.29-.48-.5l-18.87-32.68h37.73c.25,0,.48.06.68.17,2.99,1.69,4.85,4.9,4.85,8.36,0,1.7-.44,3.37-1.29,4.83Z"/>
    <g>
      <path class="cls-14" d="M637.69,95.67c-.12.21-.29.39-.48.5-2.96,1.74-6.66,1.75-9.66.02-1.47-.85-2.7-2.07-3.54-3.53-1.24-2.14-1.59-4.64-1-7.03l.19-.75c.2-.83.08-1.69-.34-2.42s-1.11-1.27-1.93-1.51l-.75-.22c-2.37-.68-4.35-2.24-5.59-4.38-.84-1.46-1.29-3.13-1.29-4.83,0-3.47,1.86-6.67,4.85-8.36.2-.11.43-.17.67-.17h37.73s-18.87,32.68-18.87,32.68Z"/>
      <path class="cls-4" d="M696,29.35c1.24,2.14,1.59,4.64,1,7.03l-.19.75c-.2.83-.08,1.69.34,2.42s1.11,1.27,1.93,1.51l.75.22c2.37.68,4.35,2.24,5.59,4.38.84,1.46,1.29,3.13,1.29,4.83,0,3.47-1.86,6.67-4.85,8.36-.2.11-.43.17-.67.17h-37.73s18.86-32.67,18.86-32.67c.12-.21.29-.39.48-.5,2.96-1.74,6.66-1.75,9.66-.02,1.47.85,2.7,2.07,3.54,3.53Z"/>
    </g>
  </g>
  <g>
    <circle class="cls-6" cx="780" cy="60" r="58.59"/>
    <path class="cls-22" d="M789.05,112.5c-2.95,0-5.79-.87-8.2-2.52l-.85-.58-.85.58c-2.41,1.65-5.25,2.52-8.2,2.52-2.57,0-5.11-.68-7.35-1.98-3.06-1.76-5.38-4.56-6.53-7.87l-.43-1.22-1.27.24c-.89.17-1.81.26-2.73.26-2.57,0-5.11-.68-7.35-1.98-4.84-2.79-7.71-8.19-7.3-13.74l.07-1.02-.92-.44c-5.01-2.43-8.25-7.61-8.25-13.19,0-3.51,1.27-6.91,3.57-9.59l.84-.98-.84-.98c-2.3-2.67-3.57-6.08-3.57-9.59,0-5.58,3.24-10.76,8.25-13.19l.92-.44-.08-1.02c-.12-1.66.04-3.31.48-4.92,1.03-3.74,3.45-6.87,6.82-8.82,2.24-1.29,4.78-1.97,7.35-1.97.92,0,1.84.09,2.74.26l1.27.24.43-1.22c1.17-3.32,3.48-6.12,6.52-7.87,2.24-1.29,4.78-1.98,7.35-1.98,2.95,0,5.79.87,8.2,2.52l.85.58.85-.58c2.42-1.65,5.25-2.52,8.2-2.52,2.57,0,5.11.68,7.35,1.98,3.03,1.75,5.35,4.55,6.52,7.87l.43,1.22,1.27-.24c.9-.17,1.82-.26,2.74-.26,2.57,0,5.11.68,7.35,1.98,3.37,1.95,5.8,5.08,6.82,8.82.44,1.61.6,3.27.48,4.92l-.08,1.02.92.44c5.01,2.43,8.25,7.61,8.25,13.19,0,3.51-1.27,6.91-3.57,9.59l-.84.98.84.98c2.3,2.67,3.57,6.08,3.57,9.59,0,5.58-3.24,10.76-8.25,13.19l-.92.44.08,1.02c.12,1.66-.04,3.31-.48,4.92-1.03,3.74-3.45,6.87-6.82,8.82-2.24,1.29-4.78,1.97-7.35,1.97-.92,0-1.83-.09-2.73-.26l-1.27-.24-.43,1.22c-1.15,3.31-3.47,6.1-6.53,7.87-2.24,1.29-4.78,1.97-7.35,1.97Z"/>
    <g>
      <path class="cls-24" d="M761.13,24.35c-.12-.21-.19-.45-.19-.67-.03-3.43,1.82-6.64,4.82-8.38,1.47-.85,3.14-1.3,4.82-1.3,2.47,0,4.81.94,6.59,2.65l.56.54c.61.59,1.42.92,2.27.92s1.66-.33,2.27-.92l.56-.54c1.78-1.71,4.11-2.65,6.58-2.65,1.68,0,3.35.45,4.82,1.3,3,1.73,4.85,4.94,4.82,8.38,0,.22-.07.46-.19.67l-18.87,32.68-18.87-32.68Z"/>
      <path class="cls-2" d="M789.41,108c-2.47,0-4.81-.94-6.59-2.65l-.56-.54c-.61-.59-1.42-.91-2.27-.91s-1.66.32-2.27.91l-.56.54c-1.78,1.71-4.11,2.65-6.58,2.65-1.68,0-3.35-.45-4.82-1.3-3-1.73-4.85-4.94-4.82-8.38,0-.22.07-.46.19-.67l18.87-32.68,18.87,32.67c.12.21.19.45.19.67.03,3.43-1.82,6.64-4.82,8.38-1.47.85-3.14,1.3-4.82,1.3Z"/>
    </g>
    <g>
      <path class="cls-10" d="M738.82,59.01c-.25,0-.48-.06-.68-.17-2.99-1.69-4.85-4.89-4.84-8.36,0-1.7.44-3.37,1.29-4.83,1.24-2.14,3.22-3.69,5.59-4.38l.74-.21c.82-.24,1.5-.77,1.93-1.51s.55-1.6.34-2.42l-.19-.75c-.59-2.39-.24-4.89,1-7.03.84-1.46,2.07-2.68,3.54-3.53,3-1.73,6.7-1.73,9.66.02.19.11.36.29.48.5l18.87,32.68h-37.73Z"/>
      <path class="cls-21" d="M825.41,76.35c-1.24,2.14-3.22,3.69-5.59,4.38l-.74.21c-.82.24-1.5.77-1.93,1.51s-.55,1.6-.34,2.42l.19.75c.59,2.39.24,4.89-1,7.03-.84,1.46-2.07,2.68-3.54,3.53-3,1.73-6.7,1.73-9.66-.02-.19-.11-.36-.29-.48-.5l-18.87-32.68h37.73c.25,0,.48.06.68.17,2.99,1.69,4.85,4.9,4.85,8.36,0,1.7-.44,3.37-1.29,4.83Z"/>
    </g>
    <g>
      <path class="cls-7" d="M757.69,95.67c-.12.21-.29.39-.48.5-2.96,1.74-6.66,1.75-9.66.02-1.47-.85-2.7-2.07-3.54-3.53-1.24-2.14-1.59-4.64-1-7.03l.19-.75c.2-.83.08-1.69-.34-2.42s-1.11-1.27-1.93-1.51l-.75-.22c-2.37-.68-4.35-2.24-5.59-4.38-.84-1.46-1.29-3.13-1.29-4.83,0-3.47,1.86-6.67,4.85-8.36.2-.11.43-.17.67-.17h37.73s-18.87,32.68-18.87,32.68Z"/>
      <path class="cls-13" d="M816,29.35c1.24,2.14,1.59,4.64,1,7.03l-.19.75c-.2.83-.08,1.69.34,2.42s1.11,1.27,1.93,1.51l.75.22c2.37.68,4.35,2.24,5.59,4.38.84,1.46,1.29,3.13,1.29,4.83,0,3.47-1.86,6.67-4.85,8.36-.2.11-.43.17-.67.17h-37.73s18.86-32.67,18.86-32.67c.12-.21.29-.39.48-.5,2.96-1.74,6.66-1.75,9.66-.02,1.47.85,2.7,2.07,3.54,3.53Z"/>
    </g>
  </g>
  <g>
    <circle class="cls-6" cx="180" cy="60" r="58.59"/>
    <path class="cls-22" d="M189.05,112.5c-2.95,0-5.79-.87-8.2-2.52l-.85-.58-.85.58c-2.41,1.65-5.25,2.52-8.2,2.52-2.57,0-5.11-.68-7.35-1.98-3.06-1.76-5.38-4.56-6.53-7.87l-.43-1.22-1.27.24c-.89.17-1.81.26-2.73.26-2.57,0-5.11-.68-7.35-1.98-4.84-2.79-7.71-8.19-7.3-13.74l.07-1.02-.92-.44c-5.01-2.43-8.25-7.61-8.25-13.19,0-3.51,1.27-6.91,3.57-9.59l.84-.98-.84-.98c-2.3-2.67-3.57-6.08-3.57-9.59,0-5.58,3.24-10.76,8.25-13.19l.92-.44-.08-1.02c-.12-1.66.04-3.31.48-4.92,1.03-3.74,3.45-6.87,6.82-8.82,2.24-1.29,4.78-1.97,7.35-1.97.92,0,1.84.09,2.74.26l1.27.24.43-1.22c1.17-3.32,3.48-6.12,6.52-7.87,2.24-1.29,4.78-1.98,7.35-1.98,2.95,0,5.79.87,8.2,2.52l.85.58.85-.58c2.42-1.65,5.25-2.52,8.2-2.52,2.57,0,5.11.68,7.35,1.98,3.03,1.75,5.35,4.55,6.52,7.87l.43,1.22,1.27-.24c.9-.17,1.82-.26,2.74-.26,2.57,0,5.11.68,7.35,1.98,3.37,1.95,5.8,5.08,6.82,8.82.44,1.61.6,3.27.48,4.92l-.08,1.02.92.44c5.01,2.43,8.25,7.61,8.25,13.19,0,3.51-1.27,6.91-3.57,9.59l-.84.98.84.98c2.3,2.67,3.57,6.08,3.57,9.59,0,5.58-3.24,10.76-8.25,13.19l-.92.44.08,1.02c.12,1.66-.04,3.31-.48,4.92-1.03,3.74-3.45,6.87-6.82,8.82-2.24,1.29-4.78,1.97-7.35,1.97-.92,0-1.83-.09-2.73-.26l-1.27-.24-.43,1.22c-1.15,3.31-3.47,6.1-6.53,7.87-2.24,1.29-4.78,1.97-7.35,1.97Z"/>
    <path class="cls-3" d="M161.13,24.35c-.12-.21-.19-.45-.19-.67-.03-3.43,1.82-6.64,4.82-8.38,1.47-.85,3.14-1.3,4.82-1.3,2.47,0,4.81.94,6.59,2.65l.56.54c.61.59,1.42.92,2.27.92s1.66-.33,2.27-.92l.56-.54c1.78-1.71,4.11-2.65,6.58-2.65,1.68,0,3.35.45,4.82,1.3,3,1.73,4.85,4.94,4.82,8.38,0,.22-.07.46-.19.67l-18.87,32.68-18.87-32.68Z"/>
  </g>
  <g>
    <circle class="cls-6" cx="60" cy="60" r="58.59"/>
    <path class="cls-22" d="M69.05,112.5c-2.95,0-5.79-.87-8.2-2.52l-.85-.58-.85.58c-2.41,1.65-5.25,2.52-8.2,2.52-2.57,0-5.11-.68-7.35-1.98-3.06-1.76-5.38-4.56-6.53-7.87l-.43-1.22-1.27.24c-.89.17-1.81.26-2.73.26-2.57,0-5.11-.68-7.35-1.98-4.84-2.79-7.71-8.19-7.3-13.74l.07-1.02-.92-.44c-5.01-2.43-8.25-7.61-8.25-13.19,0-3.51,1.27-6.91,3.57-9.59l.84-.98-.84-.98c-2.3-2.67-3.57-6.08-3.57-9.59,0-5.58,3.24-10.76,8.25-13.19l.92-.44-.08-1.02c-.12-1.66.04-3.31.48-4.92,1.03-3.74,3.45-6.87,6.82-8.82,2.24-1.29,4.78-1.97,7.35-1.97.92,0,1.84.09,2.74.26l1.27.24.43-1.22c1.17-3.32,3.48-6.12,6.52-7.87,2.24-1.29,4.78-1.98,7.35-1.98,2.95,0,5.79.87,8.2,2.52l.85.58.85-.58c2.42-1.65,5.25-2.52,8.2-2.52,2.57,0,5.11.68,7.35,1.98,3.03,1.75,5.35,4.55,6.52,7.87l.43,1.22,1.27-.24c.9-.17,1.82-.26,2.74-.26,2.57,0,5.11.68,7.35,1.98,3.37,1.95,5.8,5.08,6.82,8.82.44,1.61.6,3.27.48,4.92l-.08,1.02.92.44c5.01,2.43,8.25,7.61,8.25,13.19,0,3.51-1.27,6.91-3.57,9.59l-.84.98.84.98c2.3,2.67,3.57,6.08,3.57,9.59,0,5.58-3.24,10.76-8.25,13.19l-.92.44.08,1.02c.12,1.66-.04,3.31-.48,4.92-1.03,3.74-3.45,6.87-6.82,8.82-2.24,1.29-4.78,1.97-7.35,1.97-.92,0-1.83-.09-2.73-.26l-1.27-.24-.43,1.22c-1.15,3.31-3.47,6.1-6.53,7.87-2.24,1.29-4.78,1.97-7.35,1.97Z"/>
  </g>
  <g>
    <g>
      <circle class="cls-6" cx="900" cy="60" r="58.59"/>
      <path class="cls-22" d="M909.05,112.5c-2.95,0-5.79-.87-8.2-2.52l-.85-.58-.85.58c-2.41,1.65-5.25,2.52-8.2,2.52-2.57,0-5.11-.68-7.35-1.98-3.06-1.76-5.38-4.56-6.53-7.87l-.43-1.22-1.27.24c-.89.17-1.81.26-2.73.26-2.57,0-5.11-.68-7.35-1.98-4.84-2.79-7.71-8.19-7.3-13.74l.07-1.02-.92-.44c-5.01-2.43-8.25-7.61-8.25-13.19,0-3.51,1.27-6.91,3.57-9.59l.84-.98-.84-.98c-2.3-2.67-3.57-6.08-3.57-9.59,0-5.58,3.24-10.76,8.25-13.19l.92-.44-.08-1.02c-.12-1.66.04-3.31.48-4.92,1.03-3.74,3.45-6.87,6.82-8.82,2.24-1.29,4.78-1.97,7.35-1.97.92,0,1.84.09,2.74.26l1.27.24.43-1.22c1.17-3.32,3.48-6.12,6.52-7.87,2.24-1.29,4.78-1.98,7.35-1.98,2.95,0,5.79.87,8.2,2.52l.85.58.85-.58c2.42-1.65,5.25-2.52,8.2-2.52,2.57,0,5.11.68,7.35,1.98,3.03,1.75,5.35,4.55,6.52,7.87l.43,1.22,1.27-.24c.9-.17,1.82-.26,2.74-.26,2.57,0,5.11.68,7.35,1.98,3.37,1.95,5.8,5.08,6.82,8.82.44,1.61.6,3.27.48,4.92l-.08,1.02.92.44c5.01,2.43,8.25,7.61,8.25,13.19,0,3.51-1.27,6.91-3.57,9.59l-.84.98.84.98c2.3,2.67,3.57,6.08,3.57,9.59,0,5.58-3.24,10.76-8.25,13.19l-.92.44.08,1.02c.12,1.66-.04,3.31-.48,4.92-1.03,3.74-3.45,6.87-6.82,8.82-2.24,1.29-4.78,1.97-7.35,1.97-.92,0-1.83-.09-2.73-.26l-1.27-.24-.43,1.22c-1.15,3.31-3.47,6.1-6.53,7.87-2.24,1.29-4.78,1.97-7.35,1.97Z"/>
    </g>
    <path class="cls-12" d="M909.05,108c-2.58,0-5.11-1.02-6.97-2.8l-2.08-2-2.08,2c-1.85,1.78-4.39,2.8-6.97,2.8-1.78,0-3.54-.48-5.1-1.37-2.34-1.35-4.02-3.52-4.74-6.12-.13-.49-.23-.99-.29-1.51l-.47-4-3.7,1.6c-1.27.55-2.62.83-4,.83-1.78,0-3.54-.47-5.1-1.37-3.9-2.25-5.87-6.84-4.8-11.16l.7-2.81-2.78-.8c-4.28-1.23-7.26-5.24-7.26-9.74,0-3.2,1.53-6.25,4.09-8.16l3.23-2.41-3.23-2.41c-2.56-1.91-4.09-4.96-4.09-8.16,0-4.5,2.99-8.5,7.26-9.74l2.78-.8-.7-2.81c-.41-1.64-.38-3.38.07-5.04.71-2.59,2.39-4.76,4.74-6.11,1.56-.9,3.32-1.37,5.1-1.37,1.38,0,2.73.28,4.01.83l3.71,1.61.47-4.01c.37-3.17,2.25-6.02,5.02-7.62,1.55-.9,3.32-1.37,5.1-1.37,2.61,0,5.09,1,6.97,2.8l2.08,2,2.08-2c1.88-1.81,4.35-2.8,6.97-2.8,1.78,0,3.54.47,5.1,1.37,2.77,1.6,4.65,4.45,5.02,7.62l.47,4.01,3.71-1.61c1.28-.55,2.62-.83,4.01-.83,1.78,0,3.54.47,5.1,1.37,2.34,1.35,4.02,3.52,4.73,6.12.46,1.66.48,3.4.07,5.04l-.7,2.81,2.78.8c4.27,1.23,7.26,5.24,7.26,9.74,0,3.2-1.53,6.25-4.09,8.16l-3.23,2.41,3.23,2.41c2.56,1.91,4.09,4.96,4.09,8.16,0,4.5-2.99,8.5-7.26,9.74l-2.78.8.7,2.81c.41,1.64.38,3.38-.07,5.04-.71,2.59-2.39,4.76-4.73,6.11-1.55.9-3.32,1.37-5.1,1.37-1.38,0-2.73-.28-4-.83l-3.7-1.6-.47,4c-.06.51-.16,1.02-.29,1.51-.71,2.59-2.39,4.76-4.73,6.12-1.56.9-3.32,1.37-5.1,1.37Z"/>
  </g>
</svg>