<?xml version="1.0" encoding="UTF-8"?>
<svg id="Layer_1" data-name="Layer 1" xmlns="http://www.w3.org/2000/svg" xmlns:xlink="http://www.w3.org/1999/xlink" viewBox="0 0 105 105">
  <defs>
    <style>
      .cls-1 {
        fill: none;
        filter: url(#drop-shadow-13);
        stroke: url(#linear-gradient);
        stroke-miterlimit: 10;
      }

      .cls-2 {
        fill: url(#radial-gradient);
        filter: url(#drop-shadow-12);
      }

      .cls-2, .cls-3 {
        stroke-width: 0px;
      }

      .cls-3 {
        fill: url(#radial-gradient-2);
      }
    </style>
    <radialGradient id="radial-gradient" cx="253.11" cy="53.55" fx="253.11" fy="53.55" r="48.68" gradientTransform="translate(-200.61 -1.05)" gradientUnits="userSpaceOnUse">
      <stop offset="0" stop-color="#523d0b"/>
      <stop offset="1" stop-color="#7d5b15"/>
    </radialGradient>
    <filter id="drop-shadow-12" filterUnits="userSpaceOnUse">
      <feOffset dx="0" dy="0"/>
      <feGaussianBlur result="blur" stdDeviation="5"/>
      <feFlood flood-color="#000" flood-opacity=".25"/>
      <feComposite in2="blur" operator="in"/>
      <feComposite in="SourceGraphic"/>
    </filter>
    <linearGradient id="linear-gradient" x1="295.83" y1="77.58" x2="210.36" y2="28.23" gradientTransform="translate(-200.61 -1.05)" gradientUnits="userSpaceOnUse">
      <stop offset="0" stop-color="#4b370c"/>
      <stop offset="1" stop-color="#3f2c07"/>
    </linearGradient>
    <filter id="drop-shadow-13" filterUnits="userSpaceOnUse">
      <feOffset dx="0" dy="0"/>
      <feGaussianBlur result="blur-2" stdDeviation="5"/>
      <feFlood flood-color="#000" flood-opacity=".25"/>
      <feComposite in2="blur-2" operator="in"/>
      <feComposite in="SourceGraphic"/>
    </filter>
    <radialGradient id="radial-gradient-2" cx="253.11" cy="53.55" fx="253.11" fy="53.55" r="47.24" gradientTransform="translate(-200.61 -1.05)" gradientUnits="userSpaceOnUse">
      <stop offset="0" stop-color="#3f2c07"/>
      <stop offset="1" stop-color="#4b370c"/>
    </radialGradient>
  </defs>
  <path class="cls-2" d="M61.03,100.96c-2.75-.19-5.32-2.73-7.93-3.11-2.88-.36-5.18,2.24-7.9,2.8-3.37.71-6.37-2.25-9.39-3.98-1.88-1.16-4.08-2.53-4.85-4.67-.3-.64-.38-1.12-.8-1.53-1.05-.71-2.33-.28-4.37-.6-.48-.06-.97-.1-1.46-.14-8.81.33-9.62-6.52-11.02-13.38-1.21-4.2-6.72-6.02-8.51-10.01-4.52-8.25,5.9-10.99,2.11-17.4-1.43-2.45-3.55-4.94-3.2-7.99.23-3.15,2.27-5.97,4.89-8.04,1.31-1.09,2.87-2.31,3.77-3.65,1.17-1.94.24-4.38.76-6.51.68-3.01,4.29-5,6.92-6.75,1.91-1.21,3.86-2.78,5.68-2.85,1.62-.22,3.4.64,4.87-.29,1.09-.74,2.03-2.53,2.74-3.98,1.82-4.54,5.48-5.21,9.86-4.77,2.88.14,6.06-.36,8.36,1.17,1.13.68,1.76.02,2.95-.51,1.28-.63,2.93-.63,4.38-.62,3.3.16,7.18-.78,9.79.9,3.56,1.89,3.41,9.16,8.42,8.17,2.98-.6,5.21.93,7.88,2.78,2.63,1.75,6.24,3.74,6.92,6.75.51,2.09-.37,4.46.68,6.39,1.71,2.63,5.55,4.52,7.18,7.38,2.48,3.53,1.76,7.95-.92,11.2-4.19,5.64,1.05,7.77,2.32,12.85,1.3,6.35-4.59,9.56-8.26,13.47-1.42,1.8-.59,4.19-.91,6.37-.82,4.32-5.64,6.05-8.82,8.43-1.09.71-2.19,1.38-3.25,1.58-1.4.28-2.68-.06-4.04-.06-2.06.07-2.87,2.02-3.85,3.74-1.63,4.46-6.17,7.22-10.83,6.87l-.18-.02Z"/>
  <path class="cls-1" d="M61.03,100.96c-2.75-.19-5.32-2.73-7.93-3.11-2.88-.36-5.18,2.24-7.9,2.8-3.37.71-6.37-2.25-9.39-3.98-1.88-1.16-4.08-2.53-4.85-4.67-.3-.64-.38-1.12-.8-1.53-1.05-.71-2.33-.28-4.37-.6-.48-.06-.97-.1-1.46-.14-8.81.33-9.62-6.52-11.02-13.38-1.21-4.2-6.72-6.02-8.51-10.01-4.52-8.25,5.9-10.99,2.11-17.4-1.43-2.45-3.55-4.94-3.2-7.99.23-3.15,2.27-5.97,4.89-8.04,1.31-1.09,2.87-2.31,3.77-3.65,1.17-1.94.24-4.38.76-6.51.68-3.01,4.29-5,6.92-6.75,1.91-1.21,3.86-2.78,5.68-2.85,1.62-.22,3.4.64,4.87-.29,1.09-.74,2.03-2.53,2.74-3.98,1.82-4.54,5.48-5.21,9.86-4.77,2.88.14,6.06-.36,8.36,1.17,1.13.68,1.76.02,2.95-.51,1.28-.63,2.93-.63,4.38-.62,3.3.16,7.18-.78,9.79.9,3.56,1.89,3.41,9.16,8.42,8.17,2.98-.6,5.21.93,7.88,2.78,2.63,1.75,6.24,3.74,6.92,6.75.51,2.09-.37,4.46.68,6.39,1.71,2.63,5.55,4.52,7.18,7.38,2.48,3.53,1.76,7.95-.92,11.2-4.19,5.64,1.05,7.77,2.32,12.85,1.3,6.35-4.59,9.56-8.26,13.47-1.42,1.8-.59,4.19-.91,6.37-.82,4.32-5.64,6.05-8.82,8.43-1.09.71-2.19,1.38-3.25,1.58-1.4.28-2.68-.06-4.04-.06-2.06.07-2.87,2.02-3.85,3.74-1.63,4.46-6.17,7.22-10.83,6.87l-.18-.02Z"/>
  <path class="cls-3" d="M52.5,50.5h0s0,0,0,0h0s19.31-33.45,19.31-33.45c.12-.2.21-.41.27-.63.06-.22.1-.45.1-.68,0-.92-.11-1.83-.33-2.71-.23-.88-.57-1.74-1.02-2.54-.23-.4-.48-.79-.76-1.16-.56-.74-1.22-1.42-1.98-2.01-.38-.3-.79-.57-1.22-.82-.32-.18-.64-.35-.96-.49-1.3-.59-2.67-.89-4.03-.93-1.7-.05-3.38.3-4.9,1.03-1.82.87-3.4,2.28-4.48,4.15-.18-.31-.37-.61-.58-.9-.83-1.14-1.86-2.07-3.01-2.77-1.73-1.05-3.75-1.58-5.78-1.51-1.7.05-3.41.52-4.99,1.43-.86.5-1.62,1.09-2.28,1.77s-1.22,1.42-1.67,2.23c-.45.8-.79,1.66-1.02,2.54-.23.88-.34,1.8-.33,2.71,0,.46.14.91.37,1.31l19.31,33.45ZM36.8,20.46c-.09,0-.17-.04-.22-.13l-1.44-2.49c-.05-.08-.05-.18,0-.26l1.44-2.46s.06-.07.1-.1.08-.03.12-.03c.09,0,.17.04.22.13l1.44,2.46s.03.08.03.13-.01.09-.03.13l-.72,1.24-.72,1.24c-.05.09-.14.13-.22.13ZM39.41,24.99c-.09,0-.17-.04-.22-.13l-.72-1.24-.72-1.24s-.03-.08-.03-.13.01-.09.03-.13l1.44-2.46c.1-.17.34-.17.44,0l1.44,2.46c.05.08.05.18,0,.26l-1.44,2.49c-.05.09-.14.13-.22.13ZM62.01,22.12s.03.08.03.13-.01.09-.03.13l-.72,1.24-.72,1.24s-.06.07-.1.1c-.12.06-.27.03-.35-.1l-1.44-2.49c-.03-.06-.03-.13-.02-.19,0-.02,0-.04.02-.06l1.44-2.46s.06-.07.1-.1.08-.03.12-.03c.09,0,.17.04.22.13l1.44,2.46ZM61.3,17.65s0-.04.02-.06l1.44-2.46c.1-.17.34-.17.44,0l1.44,2.46c.05.08.05.18,0,.26l-1.44,2.49s-.06.07-.1.1c-.04.02-.08.03-.12.03-.09,0-.17-.04-.22-.13l-.72-1.24-.72-1.24c-.03-.06-.03-.13-.02-.19ZM48.23,31.19l1.44-2.46c.05-.08.14-.13.22-.13s.17.04.22.13l1.44,2.46c.05.08.05.18,0,.26l-1.44,2.49c-.05.09-.14.13-.22.13s-.17-.04-.22-.13l-.72-1.24-.72-1.24c-.03-.06-.03-.13-.02-.19,0-.02,0-.04.02-.06ZM48.2,28.16l-.72,1.24c-.05.09-.14.13-.22.13s-.17-.04-.22-.13l-1.44-2.49c-.05-.08-.05-.18,0-.26l1.44-2.46s.06-.07.1-.1.08-.03.12-.03c.09,0,.17.04.22.13l.72,1.23.72,1.23s.03.08.03.13-.01.09-.03.13l-.72,1.24ZM50.84,35.72l.72-1.23.72-1.23c.05-.08.14-.13.22-.13.04,0,.09.01.12.03s.07.05.1.1l1.44,2.46c.05.08.05.18,0,.26l-1.44,2.49c-.05.09-.14.13-.22.13s-.17-.04-.22-.13l-.72-1.24-.72-1.24s-.03-.08-.03-.13c0-.04.01-.09.03-.13ZM53.46,31.45c-.05-.08-.05-.18,0-.26l1.44-2.46c.05-.08.14-.13.22-.13s.17.04.22.13l1.44,2.46c.05.08.05.18,0,.26l-1.44,2.49c-.1.17-.34.17-.44,0l-1.44-2.49ZM56.08,26.91c-.05-.08-.05-.18,0-.26l1.44-2.46s.06-.07.1-.1c.04-.02.08-.03.12-.03.09,0,.17.04.22.13l.72,1.23.72,1.23s.03.08.03.13c0,.04-.01.09-.03.13l-.72,1.24-.72,1.24c-.05.09-.14.13-.22.13-.04,0-.09-.01-.12-.03-.04-.02-.07-.05-.1-.1l-1.44-2.49ZM59.39,17.85l-.72,1.24-.72,1.24c-.05.09-.14.13-.22.13s-.17-.04-.22-.13l-1.44-2.49c-.05-.08-.05-.18,0-.26l1.44-2.46c.05-.08.14-.13.22-.13.04,0,.09.01.12.03.04.02.07.05.1.1l.72,1.23.72,1.23s.03.08.03.13-.01.09-.03.13ZM56.77,22.12s.03.08.03.13c0,.04-.01.09-.03.13l-1.44,2.49c-.05.09-.14.13-.22.13s-.17-.04-.22-.13l-1.44-2.49c-.05-.08-.05-.18,0-.26l1.44-2.46c.05-.08.14-.13.22-.13.04,0,.09.01.12.03s.07.05.1.1l1.44,2.46ZM54.16,26.66c.05.08.05.18,0,.26l-1.44,2.49s-.06.07-.1.1c-.04.02-.08.03-.12.03-.09,0-.17-.04-.22-.13l-.72-1.24-.72-1.24s-.03-.08-.03-.13c0-.04.01-.09.03-.13l.72-1.23.72-1.23c.05-.08.14-.13.22-.13s.17.04.22.13l1.44,2.46ZM51.54,22.38l-.72,1.24-.72,1.24c-.05.09-.14.13-.22.13-.04,0-.09-.01-.12-.03-.04-.02-.07-.05-.1-.1l-.72-1.24-.72-1.24c-.03-.06-.03-.13-.02-.19,0-.02,0-.04.02-.06l1.44-2.46c.07-.13.23-.16.34-.1.04.02.07.05.1.1l1.44,2.46c.05.08.05.18,0,.26ZM48.92,17.85l-.72,1.24-.72,1.24c-.05.09-.14.13-.22.13-.04,0-.09-.01-.12-.03-.04-.02-.07-.05-.1-.1l-1.44-2.49c-.05-.08-.05-.18,0-.26l1.44-2.46c.05-.08.14-.13.22-.13s.17.04.22.13l.72,1.23.72,1.23s.03.08.03.13c0,.04-.01.09-.03.13ZM46.3,22.12s.03.08.03.13-.01.09-.03.13l-.72,1.24-.72,1.24c-.05.09-.14.13-.22.13s-.17-.04-.22-.13l-1.44-2.49c-.05-.08-.05-.18,0-.26l1.44-2.46c.05-.08.14-.13.22-.13s.17.04.22.13l1.44,2.46ZM43.69,17.85l-1.44,2.49s-.06.07-.1.1c-.04.02-.08.03-.12.03-.09,0-.17-.04-.22-.13l-.72-1.24-.72-1.24s-.03-.08-.03-.13c0-.04.01-.09.03-.13l.72-1.23.72-1.23c.05-.08.14-.13.22-.13s.17.04.22.13l1.44,2.46c.05.08.05.18,0,.26ZM42.03,29.53c-.09,0-.17-.04-.22-.13l-1.44-2.49s-.03-.08-.03-.13c0-.04.01-.09.03-.13l.72-1.23.72-1.23c.05-.08.14-.13.22-.13.04,0,.09.01.12.03s.07.05.1.1l1.44,2.46c.05.08.05.18,0,.26l-1.44,2.49c-.05.09-.14.13-.22.13ZM44.65,34.06s-.09-.01-.12-.03c-.04-.02-.07-.05-.1-.1l-1.44-2.49c-.05-.08-.05-.18,0-.26l1.44-2.46c.1-.17.34-.17.44,0l.72,1.23.72,1.23s.03.08.03.13-.01.09-.03.13l-.72,1.24-.72,1.24c-.05.09-.14.13-.22.13ZM47.49,38.46c-.05.09-.14.13-.22.13-.04,0-.09-.01-.12-.03-.04-.02-.07-.05-.1-.1l-1.44-2.49c-.05-.08-.05-.18,0-.26l1.44-2.46c.05-.08.14-.13.22-.13s.17.04.22.13l.72,1.23.72,1.23s.01.04.02.06c.02.06.02.13-.02.19l-.72,1.24-.72,1.24ZM49.76,43.09s-.07-.05-.1-.1l-.72-1.24-.72-1.24c-.03-.06-.03-.13-.02-.19,0-.02,0-.04.02-.06l1.44-2.46c.07-.13.23-.16.34-.1.04.02.07.05.1.1l1.44,2.46c.05.08.05.18,0,.26l-1.44,2.49c-.07.13-.23.16-.35.1ZM54.16,45.05l-.72,1.24-.72,1.24c-.05.09-.14.13-.22.13s-.17-.04-.22-.13l-1.44-2.49c-.05-.08-.05-.18,0-.26l1.44-2.46c.05-.08.14-.13.22-.13s.17.04.22.13l1.44,2.46s.03.08.03.13-.01.09-.03.13ZM56.77,40.51l-1.44,2.49s-.06.07-.1.1-.08.03-.12.03c-.09,0-.17-.04-.22-.13l-1.44-2.49c-.05-.08-.05-.18,0-.26l1.44-2.46c.05-.08.14-.13.22-.13s.17.04.22.13l1.44,2.46s.03.08.03.13c0,.04-.01.09-.03.13ZM59.39,35.98l-.72,1.24-.72,1.24c-.05.09-.14.13-.22.13s-.17-.04-.22-.13l-1.44-2.49c-.05-.08-.05-.18,0-.26l1.44-2.46c.05-.08.14-.13.22-.13.04,0,.09.01.12.03.04.02.07.05.1.1l.72,1.23.72,1.23s.03.08.03.13-.01.09-.03.13ZM62.01,31.45l-.72,1.24-.72,1.24c-.05.09-.14.13-.22.13s-.17-.04-.22-.13l-1.44-2.49c-.03-.06-.03-.13-.02-.19,0-.02,0-.04.02-.06l1.44-2.46c.05-.08.14-.13.22-.13s.17.04.22.13l1.44,2.46c.05.08.05.18,0,.26ZM64.63,26.91l-1.44,2.49c-.05.09-.14.13-.22.13s-.17-.04-.22-.13l-.72-1.24-.72-1.24s-.03-.08-.03-.13c0-.04.01-.09.03-.13l1.44-2.46c.1-.17.34-.17.44,0l1.44,2.46c.05.08.05.18,0,.26ZM67.24,22.38l-1.44,2.49s-.06.07-.1.1c-.04.02-.08.03-.12.03-.09,0-.17-.04-.22-.13l-1.44-2.49s-.03-.08-.03-.13c0-.04.01-.09.03-.13l.72-1.23.72-1.23c.05-.08.14-.13.22-.13s.17.04.22.13l1.44,2.46c.05.08.05.18,0,.26ZM69.86,17.85l-.72,1.24-.72,1.24c-.05.09-.14.13-.22.13-.04,0-.09-.01-.12-.03-.04-.02-.07-.05-.1-.1l-1.44-2.49c-.05-.08-.05-.18,0-.26l1.44-2.46c.1-.17.34-.17.44,0l.72,1.23.72,1.23s.03.08.03.13-.01.09-.03.13ZM69.16,13.06l.54-.93s.1.13.23.41c.04.09.09.2.14.32.1.24.21.54.3.91.09.36.17.79.22,1.27.01.14-.07.24-.18.27-.05.02-.11.02-.17,0-.05-.02-.1-.06-.13-.12l-.96-1.87c-.04-.08-.04-.17,0-.25ZM67.15,9.07c.06,0,.12.01.17.06.24.19.47.41.7.64.23.23.44.48.65.75.06.08.07.2.02.29l-.24.42c-.06.11-.15.16-.24.17s-.18-.04-.22-.12l-1.05-1.81c-.11-.18.04-.38.21-.39ZM65.59,10.47s.09.01.12.03.07.05.1.1l1.44,2.46c.05.08.05.18,0,.26l-1.44,2.49c-.05.09-.14.13-.22.13s-.17-.04-.22-.13l-1.44-2.49s-.03-.08-.03-.13c0-.04.01-.09.03-.13l.72-1.23.72-1.23c.05-.08.14-.13.22-.13ZM61.31,8.52l.75-1.29c.04-.06.1-.1.17-.11.02,0,.05-.02.07-.01.28.03.55.06.81.1.26.04.51.1.75.17.06.02.12.06.15.12.03.05.08.13.13.22.15.26.36.62.47.81.02.04.03.08.03.13s-.01.09-.03.13l-1.44,2.49c-.05.09-.14.13-.22.13s-.17-.04-.22-.13l-.72-1.24-.72-1.24s-.03-.08-.03-.13.01-.09.03-.13ZM60.35,10.47c.09,0,.17.04.22.13l1.44,2.46c.05.08.05.18,0,.26l-.72,1.24-.72,1.24c-.05.09-.14.13-.22.13s-.17-.04-.22-.13l-1.44-2.49c-.05-.08-.05-.18,0-.26l1.44-2.46c.05-.08.14-.13.22-.13ZM56.32,8.75c.33-.25.69-.48,1.07-.67.38-.2.78-.36,1.21-.51.06-.02.12-.02.17,0,.05.02.1.06.13.11l.49.84s.03.08.03.13-.01.09-.03.13l-.72,1.24-.72,1.24c-.05.09-.14.13-.22.13-.04,0-.09-.01-.12-.03-.04-.02-.07-.05-.1-.1l-1.26-2.19c-.03-.06-.04-.12-.03-.18.01-.06.04-.11.09-.15ZM53.19,12.59c.51-.91,1.02-1.69,1.53-2.35.11-.14.33-.13.42.03l1.63,2.79c.05.08.05.18,0,.26l-1.44,2.49c-.05.09-.14.13-.22.13s-.17-.04-.22-.13l-1.7-2.95s-.03-.08-.03-.13.01-.09.03-.13ZM52.28,15.13c.1-.17.34-.17.44,0l1.44,2.46c.05.08.05.18,0,.26l-1.44,2.49c-.05.09-.14.13-.22.13s-.17-.04-.22-.13l-.72-1.24-.72-1.24s-.03-.08-.03-.13c0-.04.01-.09.03-.13l1.44-2.46ZM49.85,10.27s.05-.07.09-.09c.04-.02.07-.03.12-.04.08,0,.16.03.22.1.26.33.51.69.77,1.08.26.39.51.81.76,1.27.02.04.03.08.03.13s-.01.09-.03.13l-1.7,2.95s-.06.07-.1.1c-.04.02-.08.03-.12.03-.09,0-.17-.04-.22-.13l-.72-1.24-.72-1.24s-.03-.08-.03-.13c0-.04.01-.09.03-.13.07-.12.18-.31.31-.53.07-.11.14-.24.22-.37.38-.65.85-1.45,1.1-1.88ZM45.61,8.52l.49-.84c.06-.1.19-.15.3-.12.85.29,1.61.67,2.28,1.18.05.04.08.09.09.15.01.06,0,.12-.03.18l-.63,1.09-.63,1.09c-.05.09-.14.13-.22.13-.04,0-.09-.01-.12-.03-.04-.02-.07-.05-.1-.1l-1.44-2.49c-.05-.08-.05-.18,0-.26ZM44.65,10.47c.09,0,.17.04.22.13l1.44,2.46s.03.08.03.13c0,.04-.01.09-.03.13l-1.44,2.49s-.06.07-.1.1-.08.03-.12.03c-.09,0-.17-.04-.22-.13l-1.44-2.49c-.05-.08-.05-.18,0-.26l1.44-2.46c.05-.08.14-.13.22-.13ZM40.37,8.52c.11-.19.32-.55.47-.81.05-.09.1-.16.13-.22.03-.06.09-.1.15-.12.48-.14,1.01-.22,1.56-.27.1,0,.19.04.24.13l.75,1.29c.05.08.05.18,0,.26l-1.44,2.49s-.06.07-.1.1c-.04.02-.08.03-.12.03-.09,0-.17-.04-.22-.13l-.72-1.24-.72-1.24s-.03-.08-.03-.13.01-.09.03-.13ZM39.19,10.6c.1-.17.34-.17.44,0l1.44,2.46c.05.08.05.18,0,.26l-1.44,2.49s-.06.07-.1.1c-.04.02-.08.03-.12.03-.09,0-.17-.04-.22-.13l-.72-1.24-.72-1.24c-.03-.06-.03-.13-.02-.19,0-.02,0-.04.02-.06l1.44-2.46ZM36.32,10.51c.21-.27.43-.52.65-.75.23-.23.46-.44.7-.64.06-.04.12-.06.17-.06.17,0,.32.2.21.39l-1.04,1.81c-.05.09-.14.13-.22.12-.04,0-.09-.02-.13-.05s-.08-.07-.11-.12l-.24-.42s-.04-.1-.03-.15c0-.05.02-.1.05-.14ZM34.62,13.76c.09-.36.2-.67.3-.91.2-.48.38-.72.38-.72l.54.93c.04.08.05.17,0,.25l-.96,1.87c-.13.25-.51.14-.48-.14.05-.49.13-.91.22-1.27ZM52.5,54.5h0s0,0,0,0h0s-19.31,33.45-19.31,33.45c-.23.4-.36.85-.37,1.31-.02,2.29.72,4.56,2.11,6.42.84,1.12,1.91,2.09,3.2,2.83,3.16,1.82,6.85,1.85,9.89.4.61-.29,1.19-.64,1.73-1.05.54-.41,1.05-.87,1.51-1.39s.88-1.09,1.24-1.71c1.44,2.5,3.77,4.16,6.37,4.84,1.3.34,2.67.43,4.03.26,1.36-.17,2.71-.62,3.97-1.35.86-.5,1.62-1.09,2.28-1.77,1.32-1.35,2.24-3,2.7-4.77.23-.88.34-1.8.33-2.71,0-.46-.14-.91-.37-1.31l-19.31-33.45ZM68.08,84.57s.08-.03.12-.03c.09,0,.17.04.22.13l.72,1.24.72,1.24s.03.08.03.13c0,.04-.01.09-.03.13l-.72,1.23-.72,1.23c-.05.08-.14.13-.22.13s-.17-.04-.22-.13l-1.44-2.46c-.05-.08-.05-.18,0-.26l1.44-2.49s.06-.07.1-.1ZM65.59,80.01c.09,0,.17.04.22.13l1.44,2.49c.05.08.05.18,0,.26l-1.44,2.46c-.05.08-.14.13-.22.13s-.17-.04-.22-.13l-1.44-2.46s-.03-.08-.03-.13c0-.04.01-.09.03-.13l.72-1.24.72-1.24c.05-.09.14-.13.22-.13ZM42.99,82.88s-.03-.08-.03-.13c0-.04.01-.09.03-.13l1.44-2.49s.06-.07.1-.1c.04-.02.08-.03.12-.03.09,0,.17.04.22.13l1.44,2.49s.03.08.03.13c0,.04-.01.09-.03.13l-.72,1.23-.72,1.23c-.05.08-.14.13-.22.13s-.17-.04-.22-.13l-1.44-2.46ZM43.69,87.41l-1.44,2.46s-.06.07-.1.1-.08.03-.12.03c-.09,0-.17-.04-.22-.13l-.72-1.23-.72-1.23s-.03-.08-.03-.13c0-.04.01-.09.03-.13l.72-1.24.72-1.24c.05-.09.14-.13.22-.13.04,0,.09.01.12.03.04.02.07.05.1.1l1.44,2.49c.05.08.05.18,0,.26ZM56.77,73.81l-1.44,2.46c-.05.08-.14.13-.22.13-.09,0-.17-.04-.22-.13l-1.44-2.46s-.03-.08-.03-.13c0-.04.01-.09.03-.13l1.44-2.49c.05-.09.14-.13.22-.13s.17.04.22.13l1.44,2.49c.05.08.05.18,0,.26ZM57.51,75.6s.06-.07.1-.1c.04-.02.08-.03.12-.03.09,0,.17.04.22.13l.72,1.24.72,1.24s.03.08.03.13c0,.04-.01.09-.03.13l-.72,1.23-.72,1.23c-.05.08-.14.13-.22.13-.09,0-.17-.04-.22-.13l-1.44-2.46c-.05-.08-.05-.18,0-.26l1.44-2.49ZM54.16,69.28l-1.44,2.46s-.06.07-.1.1-.08.03-.12.03c-.09,0-.17-.04-.22-.13l-.72-1.23-.72-1.23s-.03-.08-.03-.13.01-.09.03-.13l.72-1.24.72-1.24c.05-.09.14-.13.22-.13s.17.04.22.13l1.44,2.49c.05.08.05.18,0,.26ZM51.54,73.55c.03.06.03.13.02.19,0,.02,0,.04-.02.06l-1.44,2.46c-.05.08-.14.13-.22.13-.09,0-.17-.04-.22-.13l-1.44-2.46c-.05-.08-.05-.18,0-.26l.72-1.24.72-1.24s.06-.07.1-.1c.12-.06.27-.03.35.1l1.44,2.49ZM48.2,76.84l.72,1.24s.03.08.03.13-.01.09-.03.13l-1.44,2.46c-.1.17-.34.17-.44,0l-1.44-2.46c-.05-.08-.05-.18,0-.26l1.44-2.49c.05-.09.14-.13.22-.13s.17.04.22.13l.72,1.24ZM45.61,87.15l1.44-2.49s.06-.07.1-.1c.04-.02.08-.03.12-.03.09,0,.17.04.22.13l.72,1.24.72,1.24s.03.08.03.13c0,.04-.01.09-.03.13l-1.44,2.46c-.1.17-.34.17-.44,0l-1.44-2.46c-.05-.08-.05-.18,0-.26ZM48.23,82.88c-.05-.08-.05-.18,0-.26l.72-1.24.72-1.24c.05-.09.14-.13.22-.13s.17.04.22.13l1.44,2.49s.03.08.03.13-.01.09-.03.13l-1.44,2.46s-.06.07-.1.1-.08.03-.12.03c-.09,0-.17-.04-.22-.13l-1.44-2.46ZM51.56,79.57l-.72-1.23s-.01-.04-.02-.06c-.02-.06-.02-.13.02-.19l.72-1.24.72-1.24c.05-.09.14-.13.22-.13.04,0,.09.01.12.03.04.02.07.05.1.1l1.44,2.49c.05.08.05.18,0,.26l-1.44,2.46s-.06.07-.1.1c-.04.02-.08.03-.12.03-.09,0-.17-.04-.22-.13l-.72-1.23ZM53.46,82.62l1.44-2.49c.1-.17.34-.17.44,0l1.44,2.49c.05.08.05.18,0,.26l-1.44,2.46c-.05.08-.14.13-.22.13-.04,0-.09-.01-.12-.03s-.07-.05-.1-.1l-1.44-2.46s-.03-.08-.03-.13c0-.04.01-.09.03-.13ZM56.08,87.15l1.44-2.49c.05-.09.14-.13.22-.13s.17.04.22.13l.72,1.24.72,1.24s.03.08.03.13-.01.09-.03.13l-1.44,2.46c-.05.08-.14.13-.22.13-.04,0-.09-.01-.12-.03s-.07-.05-.1-.1l-1.44-2.46c-.05-.08-.05-.18,0-.26ZM58.7,82.88c-.05-.08-.05-.18,0-.26l1.44-2.49c.05-.09.14-.13.22-.13s.17.04.22.13l.72,1.24.72,1.24c.03.06.03.13.02.19,0,.02,0,.04-.02.06l-1.44,2.46c-.05.08-.14.13-.22.13-.09,0-.17-.04-.22-.13l-1.44-2.46ZM61.31,87.15l.72-1.24.72-1.24c.05-.09.14-.13.22-.13.04,0,.09.01.12.03.04.02.07.05.1.1l1.44,2.49c.05.08.05.18,0,.26l-1.44,2.46c-.05.08-.14.13-.22.13-.09,0-.17-.04-.22-.13l-.72-1.23-.72-1.23s-.01-.04-.02-.06c-.02-.06-.02-.13.02-.19ZM62.97,75.47c.09,0,.17.04.22.13l1.44,2.49c.05.08.05.18,0,.26l-1.44,2.46s-.06.07-.1.1-.08.03-.12.03c-.09,0-.17-.04-.22-.13l-.72-1.23-.72-1.23s-.03-.08-.03-.13.01-.09.03-.13l.72-1.24.72-1.24c.05-.09.14-.13.22-.13ZM60.48,70.97s.07.05.1.1l.72,1.24.72,1.24s.03.08.03.13c0,.04-.01.09-.03.13l-1.44,2.46c-.07.13-.23.16-.34.1-.04-.02-.07-.05-.1-.1l-1.44-2.46c-.05-.08-.05-.18,0-.26l1.44-2.49c.07-.13.23-.16.35-.1ZM57.73,66.41c.09,0,.17.04.22.13l.72,1.24.72,1.24s.03.08.03.13c0,.04-.01.09-.03.13l-.72,1.23-.72,1.23c-.05.08-.14.13-.22.13-.04,0-.09-.01-.12-.03-.04-.02-.07-.05-.1-.1l-1.44-2.46c-.05-.08-.05-.18,0-.26l1.44-2.49c.05-.09.14-.13.22-.13ZM55.12,61.87c.09,0,.17.04.22.13l1.44,2.49c.05.08.05.18,0,.26l-1.44,2.46s-.06.07-.1.1-.08.03-.12.03c-.09,0-.17-.04-.22-.13l-1.44-2.46s-.03-.08-.03-.13c0-.04.01-.09.03-.13l1.44-2.49c.05-.09.14-.13.22-.13ZM50.84,59.95l.72-1.24.72-1.24c.05-.09.14-.13.22-.13.04,0,.09.01.12.03.04.02.07.05.1.1l1.44,2.49c.05.08.05.18,0,.26l-1.44,2.46c-.05.08-.14.13-.22.13s-.17-.04-.22-.13l-.72-1.23-.72-1.23s-.01-.04-.02-.06c-.02-.06-.02-.13.02-.19ZM48.23,64.49l.72-1.24.72-1.24c.05-.09.14-.13.22-.13.04,0,.09.01.12.03.04.02.07.05.1.1l.72,1.24.72,1.24s.03.08.03.13c0,.04-.01.09-.03.13l-1.44,2.46s-.06.07-.1.1-.08.03-.12.03c-.09,0-.17-.04-.22-.13l-1.44-2.46c-.05-.08-.05-.18,0-.26ZM45.61,69.02l1.44-2.49s.06-.07.1-.1c.04-.02.08-.03.12-.03.09,0,.17.04.22.13l.72,1.24.72,1.24s.03.08.03.13c0,.04-.01.09-.03.13l-1.44,2.46c-.1.17-.34.17-.44,0l-1.44-2.46c-.05-.08-.05-.18,0-.26ZM42.99,73.55l1.44-2.49c.05-.09.14-.13.22-.13s.17.04.22.13l1.44,2.49c.05.08.05.18,0,.26l-1.44,2.46c-.05.08-.14.13-.22.13-.04,0-.09-.01-.12-.03s-.07-.05-.1-.1l-1.44-2.46s-.03-.08-.03-.13c0-.04.01-.09.03-.13ZM40.37,78.09l.72-1.24.72-1.24c.05-.09.14-.13.22-.13s.17.04.22.13l1.44,2.49c.05.08.05.18,0,.26l-1.44,2.46c-.1.17-.34.17-.44,0l-.72-1.23-.72-1.23s-.03-.08-.03-.13c0-.04.01-.09.03-.13ZM37.76,82.62l.72-1.24.72-1.24c.05-.09.14-.13.22-.13.04,0,.09.01.12.03.04.02.07.05.1.1l1.44,2.49c.05.08.05.18,0,.26l-1.44,2.46c-.05.08-.14.13-.22.13s-.17-.04-.22-.13l-.72-1.23-.72-1.23s-.01-.04-.02-.06c-.02-.06-.02-.13.02-.19ZM35.14,87.15l1.44-2.49c.07-.13.23-.16.35-.1.04.02.07.05.1.1l.72,1.24.72,1.24s.03.08.03.13c0,.04-.01.09-.03.13l-1.44,2.46c-.07.13-.23.16-.34.1-.04-.02-.07-.05-.1-.1l-1.44-2.46c-.05-.08-.05-.18,0-.26ZM35.84,91.94l-.54.93s-.7-.96-.9-2.9c-.03-.28.35-.39.48-.14l.96,1.87c.04.08.04.17,0,.25ZM37.68,95.87c-.24-.19-.47-.41-.7-.64-.23-.23-.44-.48-.65-.75-.06-.08-.07-.2-.02-.29l.24-.42c.12-.22.37-.22.47-.05l.52.91.52.91c.04.06.04.12.03.18-.04.17-.25.28-.42.15ZM39.54,94.5s-.08.03-.12.03c-.09,0-.17-.04-.22-.13l-.72-1.23-.72-1.23s-.03-.08-.03-.13.01-.09.03-.13l.72-1.24.72-1.24c.05-.09.14-.13.22-.13s.17.04.22.13l1.44,2.49c.05.08.05.18,0,.26l-1.44,2.46s-.06.07-.1.1ZM43.69,96.48l-.75,1.29c-.05.09-.15.14-.24.13-.55-.05-1.08-.13-1.56-.27-.06-.02-.12-.06-.15-.12-.06-.11-.18-.3-.29-.5s-.23-.4-.31-.53c-.02-.04-.03-.08-.03-.13s.01-.09.03-.13l.72-1.24.72-1.24c.05-.09.14-.13.22-.13s.17.04.22.13l1.44,2.49c.05.08.05.18,0,.26ZM44.65,94.53s-.09-.01-.12-.03c-.04-.02-.07-.05-.1-.1l-1.44-2.46c-.05-.08-.05-.18,0-.26l1.44-2.49c.05-.09.14-.13.22-.13s.17.04.22.13l1.44,2.49c.05.08.05.18,0,.26l-.72,1.23-.72,1.23c-.05.08-.14.13-.22.13ZM48.68,96.25c-.67.5-1.43.89-2.28,1.18-.11.04-.24-.01-.3-.12l-.49-.84c-.05-.08-.05-.18,0-.26l1.44-2.49c.05-.09.14-.13.22-.13s.17.04.22.13l.63,1.09.63,1.09c.03.06.04.12.03.18-.01.06-.04.11-.1.15ZM51.81,92.41c-.25.46-.51.88-.76,1.27-.26.39-.51.75-.77,1.08-.06.07-.14.1-.22.1-.08,0-.16-.05-.2-.13-.15-.26-.38-.65-.62-1.06s-.49-.84-.69-1.19c-.13-.23-.24-.42-.31-.53-.01-.02-.01-.04-.02-.06-.02-.06-.02-.13.02-.19l.72-1.24.72-1.24s.06-.07.1-.1c.12-.06.27-.03.35.1l1.7,2.95s.03.08.03.13-.01.09-.03.13ZM52.62,89.97s-.08.03-.12.03c-.09,0-.17-.04-.22-.13l-.72-1.23-.72-1.23s-.03-.08-.03-.13c0-.04.01-.09.03-.13l.72-1.24.72-1.24c.05-.09.14-.13.22-.13s.17.04.22.13l1.44,2.49c.05.08.05.18,0,.26l-1.44,2.46s-.06.07-.1.1ZM54.94,94.85c-.08,0-.16-.03-.22-.1-.51-.65-1.03-1.43-1.53-2.35-.02-.04-.03-.08-.03-.13,0-.04.01-.09.03-.13l1.7-2.95c.05-.09.14-.13.22-.13s.17.04.22.13l1.44,2.49c.05.08.05.18,0,.26l-1.63,2.79c-.05.08-.12.12-.2.13ZM59.39,96.48l-.49.84c-.03.05-.08.09-.13.11-.05.02-.11.02-.17,0-.42-.14-.83-.31-1.21-.51-.38-.2-.74-.42-1.07-.67-.05-.04-.08-.09-.1-.15-.01-.06,0-.12.03-.18l1.26-2.19c.05-.09.14-.13.22-.13s.17.04.22.13l.72,1.24.72,1.24s.03.08.03.13c0,.04-.01.09-.03.13ZM60.23,94.5s-.07-.05-.1-.1l-1.44-2.46c-.05-.08-.05-.18,0-.26l.72-1.24.72-1.24c.05-.09.14-.13.22-.13.04,0,.09.01.12.03.04.02.07.05.1.1l.72,1.24.72,1.24s.03.08.03.13-.01.09-.03.13l-1.44,2.46c-.07.13-.23.16-.34.1ZM64.63,96.48c-.15.25-.47.81-.6,1.03-.03.06-.09.1-.15.12-.24.07-.49.12-.75.17s-.53.08-.81.1c-.05,0-.1,0-.14-.03-.04-.02-.08-.06-.1-.1l-.75-1.29s-.01-.04-.02-.06c-.02-.06-.02-.13.02-.19l.72-1.24.72-1.24c.05-.09.14-.13.22-.13.04,0,.09.01.12.03.04.02.07.05.1.1l1.44,2.49s.03.08.03.13-.01.09-.03.13ZM65.81,94.4s-.06.07-.1.1-.08.03-.12.03c-.09,0-.17-.04-.22-.13l-1.44-2.46s-.03-.08-.03-.13c0-.04.01-.09.03-.13l.72-1.24.72-1.24c.05-.09.14-.13.22-.13s.17.04.22.13l1.44,2.49c.05.08.05.18,0,.26l-1.44,2.46ZM68.68,94.49c-.42.54-.87.99-1.35,1.38-.17.13-.38.02-.42-.15-.01-.06,0-.12.03-.18l1.04-1.81c.1-.17.34-.17.47.05l.24.42s.04.1.03.15-.02.1-.05.14ZM70.51,90.65c-.08.42-.17.79-.27,1.09-.25.76-.53,1.13-.53,1.13l-.27-.47-.27-.47s-.03-.08-.03-.12c0-.04,0-.09.03-.12l.96-1.87c.06-.12.19-.16.3-.13.05.02.1.05.14.09.03.05.05.11.05.18-.02.24-.06.47-.09.68ZM6.99,47.7c.94,1.58,2.28,2.9,3.87,3.8.1.06.21.09.32.13.21.09.43.14.66.17.11.01.23.04.34.04h38.63L31.5,18.4c-.23-.4-.56-.74-.95-.97-1.58-.93-3.39-1.43-5.23-1.45-1.84-.02-3.72.44-5.44,1.43-.63.36-1.21.78-1.74,1.25-.26.23-.51.48-.75.73-1.41,1.52-2.33,3.4-2.67,5.39-.06.33-.1.66-.12,1-.15,2.01.27,4.08,1.36,5.96-.72,0-1.42.07-2.1.21-1.02.21-1.98.57-2.87,1.06-3.25,1.79-5.46,5.28-5.46,9.29,0,1.49.3,2.9.85,4.18.18.43.39.84.63,1.24ZM11.18,49.49c-.06,0-.12,0-.17-.05-.4-.28-.73-.57-.99-.83-.8-.79-1.07-1.4-1.07-1.4h1.08s.09,0,.12.03c.04.02.07.05.09.09l1.14,1.77c.11.18-.02.38-.19.39ZM11.19,45.67c-.09,0-.18-.05-.22-.13l-1.41-2.47c-.05-.08-.04-.18,0-.25s.12-.13.22-.13h1.42s1.42-.01,1.42-.01c.05,0,.09.01.13.03s.07.05.09.09l1.44,2.49c.1.17-.02.38-.22.38h-2.87ZM37.84,41.01s-.05.07-.09.09-.08.04-.13.04h-2.87s-.09-.01-.13-.03c-.04-.02-.07-.05-.09-.09l-1.41-2.47c-.07-.13-.02-.28.09-.35.04-.02.08-.04.13-.04h2.85s.09,0,.13.02c.04.02.07.05.09.09l1.44,2.49c.05.09.04.18,0,.26ZM38.8,42.68c.07,0,.13.03.18.08.02.02.04.03.05.05l1.44,2.49c.07.13.02.28-.09.35-.04.02-.08.04-.13.04h-2.87c-.09,0-.18-.05-.22-.13l-1.41-2.47c-.05-.08-.04-.18,0-.25.02-.04.05-.07.09-.09.04-.02.08-.04.13-.04h2.85ZM24.28,41.14c-.09,0-.18-.05-.22-.13l-1.41-2.47c-.05-.08-.04-.18,0-.25.02-.04.05-.07.09-.09.04-.02.08-.04.13-.04h2.85c.07-.01.13.02.18.07.02.02.04.03.05.05l1.44,2.49s.04.09.03.13c0,.13-.11.25-.26.25h-2.87ZM24.53,45.67h-2.87c-.09,0-.18-.05-.22-.13l-1.41-2.47s-.03-.09-.03-.13c0-.13.11-.25.25-.25h2.85s.04,0,.06,0c.06.02.12.05.16.11l1.44,2.49c.1.17-.02.38-.22.38ZM25.35,33.66s.08-.04.13-.04h2.85c.09-.01.18.04.22.11l1.44,2.49c.1.17-.02.38-.22.38h-2.87c-.09,0-.18-.05-.22-.13l-1.41-2.47c-.07-.13-.02-.28.09-.35ZM25.35,42.73s.08-.04.13-.04h2.85c.09-.01.18.04.22.11l1.44,2.49c.05.09.04.18,0,.26-.02.04-.05.07-.09.09s-.08.04-.13.04h-2.87c-.09,0-.18-.05-.22-.13l-1.41-2.47c-.07-.13-.02-.28.09-.35ZM29.51,41.14s-.09-.01-.13-.03c-.04-.02-.07-.05-.09-.09l-1.41-2.47s-.03-.09-.03-.13c0-.13.11-.25.25-.25h2.85s.09,0,.13.02c.04.02.07.05.09.09l1.44,2.49c.05.09.04.18,0,.26-.04.07-.12.13-.22.13h-2.87ZM30.72,42.69h2.85s.09,0,.13.02c.04.02.07.05.09.09l1.44,2.49s.04.09.03.13c0,.09-.05.17-.12.22-.04.02-.08.04-.13.04h-2.87c-.09,0-.18-.05-.22-.13l-1.41-2.47s-.03-.09-.03-.13c0-.13.11-.25.25-.25ZM35.22,36.48s-.05.07-.09.09-.08.04-.13.04h-2.87c-.09,0-.18-.05-.22-.13l-.71-1.24-.71-1.24s-.03-.09-.03-.13c0-.13.11-.25.25-.25h2.85s.09,0,.13.02c.04.02.07.05.09.09l.72,1.24.72,1.24c.05.09.04.18,0,.26ZM32.52,32.04s-.08.04-.13.04h-2.87c-.09,0-.18-.05-.22-.13l-.71-1.24-.71-1.24s-.03-.09-.03-.13c0-.13.11-.25.25-.25h2.85s.04,0,.06,0c.06.02.12.05.16.11l1.44,2.49c.07.13.02.28-.09.35ZM29.77,27.54h-2.87c-.09,0-.18-.05-.22-.13l-1.41-2.47s-.01-.04-.02-.07c-.04-.15.07-.32.24-.32h2.85c.09-.01.18.04.22.11l1.44,2.49s.04.09.03.13c0,.13-.11.25-.26.25ZM25.71,29.08c.09,0,.18.05.22.13l1.44,2.49s.04.09.03.13c0,.09-.05.17-.12.22-.04.02-.08.04-.13.04h-2.87c-.09,0-.18-.05-.22-.13l-1.41-2.47c-.05-.08-.04-.18,0-.25.02-.04.05-.07.09-.09.04-.02.08-.04.13-.04h2.85ZM24.75,27.41s-.05.07-.09.09-.08.04-.13.04h-2.87s-.09-.01-.13-.03c-.04-.02-.07-.05-.09-.09l-1.41-2.47c-.07-.13-.02-.28.09-.35.04-.02.08-.04.13-.04h2.85s.09,0,.13.02c.04.02.07.05.09.09l1.44,2.49c.05.09.04.18,0,.26ZM20.48,29.08c.09,0,.18.05.22.13l.72,1.24.72,1.24c.05.09.04.18,0,.26-.02.04-.05.07-.09.09s-.08.04-.13.04h-3.41c-.09,0-.18-.05-.22-.13-.27-.45-.51-.88-.72-1.3-.21-.42-.39-.82-.55-1.2-.02-.04-.02-.09-.02-.13.01-.12.12-.23.25-.23.5,0,1.43,0,2.18-.01.45,0,.84,0,1.05,0ZM20.12,33.66s.08-.04.13-.04h1.42s1.42-.01,1.42-.01c.05,0,.09.01.13.03.04.02.07.05.09.09l.72,1.24.72,1.24c.05.09.04.18,0,.26-.02.04-.05.07-.09.09s-.08.04-.13.04h-2.87c-.09,0-.18-.05-.22-.13l-1.41-2.47c-.07-.13-.02-.28.09-.35ZM20.48,38.14s.09.01.13.03c.04.02.07.05.09.09l1.44,2.49c.1.17-.02.38-.22.38h-2.87c-.09,0-.18-.05-.22-.13l-.71-1.24-.71-1.24s-.03-.09-.03-.13c0-.13.11-.25.25-.25h2.85ZM17.86,42.68c.09,0,.18.05.22.13l1.44,2.49c.07.13.02.28-.09.35-.04.02-.08.04-.13.04h-2.87c-.09,0-.18-.05-.22-.13l-1.41-2.47c-.05-.08-.04-.18,0-.25.04-.07.12-.13.22-.13h2.85ZM16.68,41.14h-2.87c-.09,0-.18-.05-.22-.13l-1.41-2.47c-.07-.13-.02-.28.09-.35.04-.02.08-.04.13-.04h2.85c.09-.01.18.04.22.11l1.44,2.49c.1.17-.02.38-.22.38ZM16.68,50.21h-2.87c-.09,0-.18-.05-.22-.13l-.71-1.24-.71-1.24s-.03-.09-.03-.13c0-.13.11-.25.25-.25h2.85s.09,0,.13.02c.04.02.07.05.09.09l1.44,2.49c.1.17-.02.38-.22.38ZM22.13,50.08c-.04.07-.12.13-.22.13h-2.87c-.09,0-.18-.05-.22-.13l-1.41-2.47c-.05-.08-.04-.18,0-.25.02-.04.05-.07.09-.09.04-.02.08-.04.13-.04h2.85c.07-.01.13.02.18.07.02.02.04.03.05.05l1.44,2.49c.05.09.04.18,0,.26ZM27.37,50.08c-.04.07-.12.13-.22.13h-2.87s-.09-.01-.13-.03c-.04-.02-.07-.05-.09-.09l-1.41-2.47s-.03-.09-.03-.13c0-.13.11-.25.25-.25h2.85s.09,0,.13.02c.04.02.07.05.09.09l1.44,2.49c.05.09.04.18,0,.26ZM32.6,50.08s-.05.07-.09.09-.08.04-.13.04h-2.87c-.09,0-.18-.05-.22-.13l-1.41-2.47c-.07-.13-.02-.28.09-.35.04-.02.08-.04.13-.04h1.42s1.42-.01,1.42-.01c.05,0,.09.01.13.03.04.02.07.05.09.09l.72,1.24.72,1.24c.05.09.04.18,0,.26ZM37.62,50.21h-2.87c-.09,0-.18-.05-.22-.13l-1.41-2.47s-.03-.09-.03-.13c0-.13.11-.25.25-.25h2.85c.09-.01.18.04.22.11l1.44,2.49c.1.17-.02.38-.22.38ZM43.07,50.08s-.05.07-.09.09-.08.04-.13.04h-2.87c-.09,0-.18-.05-.22-.13l-.71-1.24-.71-1.24s-.03-.09-.03-.13c0-.13.11-.25.25-.25h2.85s.09,0,.13.02c.04.02.07.05.09.09l.72,1.24.72,1.24c.05.09.04.18,0,.26ZM46.87,47.34l1.44,2.49s.04.09.03.13c0,.09-.05.17-.12.22-.04.02-.08.04-.13.04h-2.87c-.09,0-.18-.05-.22-.13l-1.41-2.47c-.05-.08-.04-.18,0-.25.02-.04.05-.07.09-.09.04-.02.08-.04.13-.04h2.85c.09-.01.18.04.22.11ZM44.1,42.69c.06.02.12.05.16.11l1.44,2.49c.05.09.04.18,0,.26-.04.07-.12.13-.22.13h-2.87c-.09,0-.18-.05-.22-.13l-1.41-2.47s-.03-.09-.03-.13c0-.13.11-.25.25-.25h2.85s.04,0,.06,0ZM41.64,38.27l1.44,2.49c.1.17-.02.38-.22.38h-2.87c-.09,0-.18-.05-.22-.13l-1.41-2.47s-.03-.09-.03-.13c0-.13.11-.25.25-.25h2.85c.09-.01.18.04.22.11ZM39.02,33.74l1.44,2.49s.04.09.03.13c0,.09-.05.17-.12.22-.04.02-.08.04-.13.04h-2.87c-.09,0-.18-.05-.22-.13l-1.41-2.47c-.05-.08-.04-.18,0-.25.02-.04.05-.07.09-.09.04-.02.08-.04.13-.04h2.85c.09-.01.18.04.22.11ZM36.31,29.11s.07.05.09.09l1.44,2.49c.05.09.04.18,0,.26-.04.07-.12.13-.22.13h-2.87c-.09,0-.18-.05-.22-.13l-1.41-2.47c-.07-.13-.02-.28.09-.35.04-.02.08-.04.13-.04h2.85s.09,0,.13.02ZM33.69,24.58s.07.05.09.09l.72,1.24.72,1.24c.05.09.04.18,0,.26-.02.04-.05.07-.09.09s-.08.04-.13.04h-2.87c-.09,0-.18-.05-.22-.13l-.71-1.24-.71-1.24s-.03-.09-.03-.13c0-.13.11-.25.25-.25h1.42s1.42-.01,1.42-.01c.05,0,.09.01.13.03ZM30.95,20.01s.04.01.06.02c.06.02.12.05.16.11l.72,1.24.72,1.24c.07.13.02.28-.09.35-.04.02-.08.04-.13.04h-2.87c-.09,0-.18-.05-.22-.13l-.71-1.24-.71-1.24s-.03-.09-.03-.13c0-.13.11-.25.25-.25h2.85ZM26.36,17.41c.07,0,.15,0,.26,0,.4.03,1.04.12,1.86.41.2.07.42.16.64.26.13.06.17.18.14.29-.01.05-.04.11-.09.14-.04.04-.1.06-.17.05l-2.1-.1s-.04-.01-.06-.02c-.06-.02-.12-.05-.15-.11l-.27-.47-.27-.47s.07,0,.21,0ZM25.71,20.01c.09,0,.18.05.22.13l1.44,2.49s.04.09.03.13c0,.09-.05.17-.12.22-.04.02-.08.04-.13.04h-2.87c-.09,0-.18-.05-.22-.13l-1.41-2.47c-.05-.08-.04-.18,0-.25.02-.04.05-.07.09-.09.04-.02.08-.04.13-.04h2.85ZM22.35,17.98c.58-.22,1.2-.38,1.87-.48.1-.01.21.04.26.13l.24.42c.03.05.05.11.05.16,0,.05,0,.1-.03.14-.04.08-.12.13-.22.13h-2.09c-.28,0-.36-.39-.09-.5ZM18.07,21.37s0-.05.02-.07c.16-.23.32-.44.49-.65s.34-.39.52-.57c.05-.05.11-.07.18-.07.25,0,.9,0,1.19,0,.09,0,.18.05.22.13l.72,1.24.72,1.24c.05.09.04.18,0,.26-.02.04-.05.07-.09.09s-.08.04-.13.04h-2.87c-.09,0-.18-.05-.22-.13l-.74-1.3c-.04-.06-.03-.14-.01-.21ZM16.64,24.75c.01-.06.04-.11.09-.15.04-.04.1-.06.16-.06h.97s.04,0,.06.01c.06.02.12.05.16.11l1.44,2.49c.07.13.02.28-.09.35-.04.02-.08.04-.13.04h-2.53s-.06-.02-.08-.03c-.09-.03-.16-.1-.17-.19-.05-.42-.07-.84-.04-1.27.02-.43.08-.86.17-1.3ZM14.79,33.3c.41-.06.85-.1,1.32-.13.47-.03.96-.04,1.48-.03.09,0,.17.05.22.13l1.7,2.95c.05.09.04.18,0,.26-.04.07-.12.13-.22.13h-2.87s-.09-.01-.13-.03c-.04-.02-.07-.05-.09-.09-.03-.06-.08-.14-.13-.23s-.11-.2-.18-.31c-.2-.35-.45-.78-.68-1.19-.24-.41-.46-.81-.61-1.07-.09-.16,0-.35.19-.38ZM10.54,35.31c.67-.59,1.39-1.06,2.16-1.39.06-.03.12-.03.18,0,.06.02.11.06.14.12l1.26,2.19s.04.09.03.13c0,.13-.11.25-.26.25h-2.87c-.09,0-.18-.05-.22-.13l-.48-.84c-.03-.05-.04-.11-.03-.17s.04-.11.08-.15ZM8.28,38.3s.05-.08.09-.11c.04-.03.09-.04.14-.04h1.49c.09,0,.18.04.22.12l1.44,2.49c.05.09.04.18,0,.26-.02.04-.05.07-.09.09s-.08.04-.13.04h-2.87c-.09,0-.18-.05-.22-.13-.07-.13-.19-.33-.3-.53-.11-.2-.23-.4-.29-.51-.03-.06-.04-.13-.03-.19.12-.49.31-.98.55-1.49ZM7.56,43.47c.06-.1.19-.14.3-.11.05.02.1.06.14.12l1.05,1.81c.1.17-.02.38-.27.38h-.49s-.05-.01-.07-.02c-.07-.02-.14-.07-.17-.14-.26-.63-.42-1.25-.52-1.86-.01-.07,0-.13.04-.18ZM97.27,56.5c-.28-.36-.59-.7-.91-1.02-.65-.64-1.39-1.19-2.18-1.65-.2-.11-.42-.2-.64-.25s-.45-.08-.68-.08h-38.62l19.32,33.45c.23.4.56.74.95.98,2.37,1.4,5.25,1.82,7.99,1.12.91-.24,1.81-.6,2.67-1.09,5.05-2.92,6.81-9.33,3.93-14.32,1.8,0,3.5-.46,4.97-1.28,3.25-1.79,5.46-5.28,5.46-9.29,0-.5-.03-.98-.1-1.46-.26-1.91-1.03-3.66-2.16-5.1ZM93.82,55.51c.06,0,.12,0,.17.05.4.28.73.57.99.83.54.52.83.97.97,1.21.07.12.1.19.1.19h-1.08c-.09,0-.17-.04-.22-.11l-1.14-1.77c-.11-.18.02-.38.19-.39ZM93.81,59.33c.09,0,.18.05.22.13l1.41,2.47c.05.08.04.18,0,.25-.04.07-.12.13-.22.13h-2.85c-.09.01-.18-.04-.22-.11l-1.44-2.49c-.1-.17.02-.38.22-.38h2.87ZM67.38,63.86h2.87c.09,0,.18.05.22.13l1.41,2.47s.01.04.02.07c.04.15-.07.32-.24.32h-2.85c-.09.01-.18-.04-.22-.11l-1.44-2.49c-.1-.17.02-.38.22-.38ZM66.2,62.32s-.09-.01-.13-.03c-.04-.02-.07-.05-.09-.09l-1.44-2.49c-.05-.09-.04-.18,0-.26.04-.07.12-.13.22-.13h2.87c.09,0,.18.05.22.13l.71,1.24.71,1.24s.03.09.03.13c0,.13-.11.25-.25.25h-2.85ZM80.72,63.86c.09,0,.18.05.22.13l1.41,2.47s.03.09.03.13c0,.13-.11.25-.25.25h-2.85s-.09,0-.13-.02c-.04-.02-.07-.05-.09-.09l-1.44-2.49c-.05-.09-.04-.18,0-.26.04-.07.12-.13.22-.13h2.87ZM80.47,59.33h2.87c.09,0,.18.05.22.13l1.41,2.47c.07.13.02.28-.09.35-.04.02-.08.04-.13.04h-2.85c-.09.01-.18-.04-.22-.11l-1.44-2.49c-.1-.17.02-.38.22-.38ZM79.77,71.13c0,.13-.11.25-.25.25h-2.85s-.09,0-.13-.02c-.04-.02-.07-.05-.09-.09l-.72-1.24-.72-1.24c-.05-.09-.04-.18,0-.26.02-.04.05-.07.09-.09.04-.02.08-.04.13-.04h2.87c.09,0,.18.05.22.13l.71,1.24.71,1.24s.03.09.03.13ZM79.52,62.31h-2.85s-.09,0-.13-.02c-.04-.02-.07-.05-.09-.09l-.72-1.24-.72-1.24c-.05-.09-.04-.18,0-.26.02-.04.05-.07.09-.09.04-.02.08-.04.13-.04h2.87c.09,0,.18.05.22.13l.71,1.24.71,1.24s.03.09.03.13c0,.13-.11.25-.25.25ZM75.49,63.86s.09.01.13.03c.04.02.07.05.09.09l1.41,2.47c.07.13.02.28-.09.35-.04.02-.08.04-.13.04h-2.85s-.09,0-.13-.02c-.04-.02-.07-.05-.09-.09l-1.44-2.49c-.04-.06-.03-.13-.02-.19.03-.1.12-.19.24-.19h2.87ZM74.5,62.18s-.05.07-.09.09c-.04.02-.08.04-.13.04h-2.85c-.09.01-.18-.04-.22-.11l-1.44-2.49c-.1-.17.02-.38.22-.38h2.87c.09,0,.18.05.22.13l1.41,2.47c.05.08.04.18,0,.25ZM70,68.39h2.87c.09,0,.18.05.22.13l1.41,2.47c.05.08.04.18,0,.25-.02.04-.05.07-.09.09-.04.02-.08.04-.13.04h-2.85c-.09.01-.18-.04-.22-.11l-1.44-2.49c-.1-.17.02-.38.22-.38ZM72.62,72.93h2.87c.09,0,.18.05.22.13l1.41,2.47c.07.13.02.28-.09.35-.04.02-.08.04-.13.04h-2.85c-.07.01-.13-.02-.18-.07-.02-.02-.04-.03-.05-.05l-1.44-2.49s-.04-.09-.03-.13c0-.13.11-.25.26-.25ZM75.01,77.59c.04-.07.12-.13.22-.13h2.87c.09,0,.18.05.22.13l1.41,2.47s.03.09.03.13c0,.13-.11.25-.25.25h-1.42s-1.42.01-1.42.01c-.05,0-.09-.01-.13-.03-.04-.02-.07-.05-.09-.09l-.72-1.24-.72-1.24c-.05-.09-.04-.18,0-.26ZM79.29,75.92s-.09-.01-.13-.03c-.04-.02-.07-.05-.09-.09l-1.44-2.49c-.05-.09-.04-.18,0-.26.04-.07.12-.13.22-.13h2.87c.09,0,.18.05.22.13l.71,1.24.71,1.24s.03.09.03.13c0,.13-.11.25-.25.25h-2.85ZM80.34,77.49s.08-.04.13-.04h2.87c.09,0,.18.05.22.13l1.41,2.47s.01.04.02.07c.04.15-.07.32-.24.32h-2.85s-.04,0-.06,0c-.06-.02-.12-.05-.16-.11l-1.44-2.49c-.07-.13-.02-.28.09-.35ZM84.52,75.92c-.09,0-.18-.05-.22-.13l-1.44-2.49c-.1-.17.02-.38.22-.38h3.41c.09,0,.18.05.22.13.27.45.51.88.72,1.3.21.42.39.82.55,1.2.03.08.02.17-.02.24-.04.07-.12.11-.21.11h-3.22ZM84.97,71.25c-.04.07-.12.13-.22.13h-2.85c-.09.01-.18-.04-.22-.11l-1.44-2.49c-.1-.17.02-.38.22-.38h2.87c.09,0,.18.05.22.13l1.41,2.47c.05.08.04.18,0,.25ZM84.52,66.86s-.09-.01-.13-.03c-.04-.02-.07-.05-.09-.09l-1.44-2.49c-.07-.13-.02-.28.09-.35.04-.02.08-.04.13-.04h2.87c.09,0,.18.05.22.13l1.41,2.47c.05.08.04.18,0,.25-.02.04-.05.07-.09.09-.04.02-.08.04-.13.04h-2.85ZM87.14,62.32s-.04-.01-.06-.02c-.06-.02-.12-.05-.16-.11l-.72-1.24-.72-1.24c-.05-.09-.04-.18,0-.26.02-.04.05-.07.09-.09.04-.02.08-.04.13-.04h2.87c.09,0,.18.05.22.13l.71,1.24.71,1.24s.03.09.03.13c0,.13-.11.25-.25.25h-2.85ZM88.1,63.99s.05-.07.09-.09c.04-.02.08-.04.13-.04h2.87c.09,0,.18.05.22.13l.71,1.24.71,1.24s.03.09.03.13c0,.13-.11.25-.25.25h-2.85s-.04,0-.06,0c-.06-.02-.12-.05-.16-.11l-1.44-2.49c-.05-.09-.04-.18,0-.26ZM88.32,54.79h2.87c.09,0,.18.05.22.13l.71,1.24.71,1.24s.03.09.03.13c0,.13-.11.25-.25.25h-2.85s-.04,0-.06,0c-.06-.02-.12-.05-.16-.11l-1.44-2.49c-.1-.17.02-.38.22-.38ZM82.87,54.92c.04-.07.12-.13.22-.13h2.87c.07,0,.13.03.18.08.02.02.04.03.05.05l1.41,2.47c.05.08.04.18,0,.25-.02.04-.05.07-.09.09-.04.02-.08.04-.13.04h-2.85s-.09,0-.13-.02c-.04-.02-.07-.05-.09-.09l-1.44-2.49c-.05-.09-.04-.18,0-.26ZM77.63,54.92c.04-.07.12-.13.22-.13h2.87s.09.01.13.03.07.05.09.09l1.41,2.47s.03.09.03.13c0,.09-.05.17-.12.21-.04.02-.08.04-.13.04h-2.85c-.09.01-.18-.04-.22-.11l-1.44-2.49c-.05-.09-.04-.18,0-.26ZM72.4,54.92s.05-.07.09-.09c.04-.02.08-.04.13-.04h2.87c.09,0,.18.05.22.13l1.41,2.47c.07.13.02.28-.09.35-.04.02-.08.04-.13.04h-1.42s-1.42.01-1.42.01c-.05,0-.09-.01-.13-.03-.04-.02-.07-.05-.09-.09l-.72-1.24-.72-1.24c-.05-.09-.04-.18,0-.26ZM67.38,54.79h2.87c.09,0,.18.05.22.13l1.41,2.47c.07.13.02.28-.09.35-.04.02-.08.04-.13.04h-2.85c-.09.01-.18-.04-.22-.11l-1.44-2.49c-.1-.17.02-.38.22-.38ZM61.93,54.92s.05-.07.09-.09c.04-.02.08-.04.13-.04h2.87c.09,0,.18.05.22.13l.71,1.24.71,1.24s.03.09.03.13c0,.13-.11.25-.25.25h-2.85s-.09,0-.13-.02c-.04-.02-.07-.05-.09-.09l-.72-1.24-.72-1.24c-.05-.09-.04-.18,0-.26ZM58.13,57.66l-1.44-2.49c-.1-.17.02-.38.22-.38h2.87c.09,0,.18.05.22.13l1.41,2.47c.05.08.04.18,0,.25-.02.04-.05.07-.09.09-.04.02-.08.04-.13.04h-2.85c-.09.01-.18-.04-.22-.11ZM60.79,62.24s-.04-.03-.05-.05l-1.44-2.49c-.04-.06-.03-.13-.02-.19.03-.1.12-.19.24-.19h2.87c.09,0,.18.05.22.13l1.41,2.47c.07.13.02.28-.09.35-.04.02-.08.04-.13.04h-2.85c-.07.01-.13-.02-.18-.07ZM63.45,66.82s-.07-.05-.09-.09l-.72-1.24-.72-1.24c-.05-.09-.04-.18,0-.26.02-.04.05-.07.09-.09.04-.02.08-.04.13-.04h2.87c.09,0,.18.05.22.13l.71,1.24.71,1.24s.03.09.03.13c0,.04-.01.09-.03.12-.04.07-.12.13-.22.13h-1.42s-1.42.01-1.42.01c-.05,0-.09-.01-.13-.03ZM66.14,71.37c-.06-.02-.12-.05-.16-.11l-.72-1.24-.72-1.24c-.05-.09-.04-.18,0-.26.02-.04.05-.07.09-.09.04-.02.08-.04.13-.04h2.87c.09,0,.18.05.22.13l.71,1.24.71,1.24s.03.09.03.13c0,.13-.11.25-.25.25h-2.85s-.04,0-.06,0ZM68.75,75.91c-.06-.02-.12-.05-.16-.11l-1.44-2.49c-.07-.13-.02-.28.09-.35.04-.02.08-.04.13-.04h2.87s.09.01.13.03c.04.02.07.05.09.09l1.41,2.47s.03.09.03.13c0,.13-.11.25-.25.25h-2.85s-.04,0-.06,0ZM71.21,80.33l-1.44-2.49c-.1-.17.02-.38.22-.38h2.87c.09,0,.18.05.22.13l1.41,2.47c.05.08.04.18,0,.25-.02.04-.05.07-.09.09-.04.02-.08.04-.13.04h-2.85c-.09.01-.18-.04-.22-.11ZM74.05,84.99c-.09,0-.18-.05-.22-.13l-1.44-2.49c-.1-.17.02-.38.22-.38h2.87c.09,0,.18.05.22.13l1.41,2.47c.07.13.02.28-.09.35-.04.02-.08.04-.13.04h-2.85ZM75.89,86.91c-.19-.09-.19-.33-.05-.43.04-.04.1-.06.17-.05l2.1.1c.09,0,.17.05.21.13l.54.94s-1.18.13-2.96-.68ZM79.29,84.99s-.04-.01-.06-.02c-.06-.02-.12-.05-.16-.11l-.72-1.24-.72-1.24c-.05-.09-.04-.18,0-.26.02-.04.05-.07.09-.09.04-.02.08-.04.13-.04h2.87c.09,0,.18.05.22.13l.71,1.24.71,1.24s.03.09.03.13c0,.13-.11.25-.25.25h-2.85ZM82.65,87.02c-.58.22-1.2.38-1.87.48-.03,0-.05,0-.07-.01-.08-.01-.15-.05-.18-.11l-.24-.42c-.09-.16-.05-.32.06-.39.04-.02.08-.04.13-.04h2.09c.28,0,.36.39.09.5ZM86.91,83.69c-.16.23-.32.44-.49.65-.17.2-.34.39-.52.57-.05.05-.11.07-.18.07-.25,0-.9,0-1.19,0-.09,0-.18-.05-.22-.13l-1.44-2.49c-.1-.17.02-.38.22-.38h2.87c.09,0,.18.05.22.13l.74,1.3s.04.09.03.14-.02.1-.05.14ZM88.36,80.25c-.01.06-.04.11-.09.15-.04.04-.1.06-.16.06h-.97s-.09,0-.13-.03c-.04-.02-.07-.05-.09-.09l-1.44-2.49c-.04-.06-.03-.13-.02-.19.03-.1.12-.19.24-.19h2.53c.06,0,.12.02.17.06.05.04.08.1.09.16.05.42.06.84.04,1.27-.02.43-.08.86-.17,1.3ZM90.21,71.7c-.62.09-1.32.13-2.06.14-.25,0-.48.02-.74.01-.05,0-.09-.01-.13-.04s-.07-.05-.09-.09l-1.7-2.95c-.05-.09-.04-.18,0-.26.02-.04.05-.07.09-.09.04-.02.08-.04.13-.04h2.87c.09,0,.18.05.22.13l1.6,2.8s.03.08.03.12c0,.12-.09.24-.22.26ZM94.46,69.69c-.67.59-1.39,1.06-2.16,1.39-.06.03-.12.03-.18,0s-.11-.06-.14-.12l-.63-1.09-.63-1.09c-.05-.09-.04-.18,0-.26.04-.07.12-.13.22-.13h2.87c.09,0,.18.05.22.13l.48.84c.03.05.04.11.03.17,0,.06-.04.11-.08.15ZM97.03,65.95c-.09.25-.2.5-.31.75-.02.05-.05.08-.09.11s-.09.04-.14.04h-1.49c-.09,0-.18-.04-.22-.12l-1.44-2.49c-.1-.17.02-.38.22-.38h2.87c.09,0,.18.05.22.13.15.25.47.82.59,1.04.03.06.04.13.03.19-.06.24-.14.49-.23.74ZM97.44,61.53c-.06.1-.19.14-.3.11-.05-.02-.1-.06-.14-.12l-1.05-1.81c-.07-.13-.02-.28.09-.35.04-.02.08-.04.13-.04h.54c.1,0,.2.06.24.16.13.32.23.63.32.94s.15.62.2.92c.01.07,0,.13-.04.18ZM50.77,53.5H12.15c-.46,0-.92.11-1.32.34-.4.23-.78.48-1.15.75-.73.55-1.39,1.19-1.95,1.91-1.41,1.8-2.26,4.08-2.26,6.56,0,3.28,1.48,6.21,3.8,8.15.52.43,1.07.81,1.66,1.14.3.16.6.31.91.44.62.27,1.28.47,1.96.62.34.07.69.12,1.04.16s.71.05,1.07.05c-1.08,1.87-1.51,3.94-1.35,5.96.26,3.35,2.13,6.54,5.29,8.36,2.15,1.24,4.54,1.65,6.81,1.33.91-.13,1.79-.37,2.63-.73.42-.18.83-.38,1.22-.62.2-.12.38-.26.54-.43.16-.16.3-.35.41-.55l9.66-16.73,9.66-16.73ZM43.07,64.24l-.72,1.24-.72,1.24s-.06.07-.09.09c-.04.02-.08.03-.13.03h-2.85s-.09-.03-.13-.05c-.07-.05-.12-.13-.12-.21,0-.04,0-.09.03-.13l1.41-2.47c.05-.08.13-.13.22-.13h2.87c.15,0,.25.12.26.25,0,.04-.01.09-.03.13ZM12.17,66.46l1.41-2.47c.05-.08.13-.13.22-.13h2.87c.2,0,.32.21.22.38l-.72,1.24-.72,1.24s-.06.07-.09.09c-.04.02-.08.03-.13.03h-2.85s-.09-.03-.13-.05c-.07-.05-.12-.13-.12-.21,0-.04,0-.09.03-.13ZM9.78,62.31c-.17,0-.28-.16-.24-.32,0-.02,0-.04.02-.07l1.41-2.47c.05-.08.13-.13.22-.13h2.87c.2,0,.32.21.22.38l-1.44,2.49s-.06.07-.09.09c-.04.02-.08.03-.13.03h-2.85ZM15.01,62.31c-.2,0-.32-.21-.22-.38l1.41-2.47c.05-.08.13-.13.22-.13h2.87s.09.01.13.04c.04.02.07.05.09.09.04.07.05.17,0,.26l-.72,1.24-.72,1.24s-.06.07-.09.09c-.04.02-.08.03-.13.03h-2.85ZM17.41,66.46l1.41-2.47c.05-.08.13-.13.22-.13h2.87c.1,0,.18.05.22.13.04.07.05.17,0,.26l-1.44,2.49c-.05.08-.13.13-.22.13h-2.85s-.09-.03-.13-.05c-.04-.02-.07-.05-.09-.09-.04-.07-.05-.17,0-.25ZM32.38,63.86s.09.01.13.04c.11.07.16.22.09.35l-.72,1.24-.72,1.24s-.06.07-.09.09c-.04.02-.08.03-.13.03h-2.85c-.2-.01-.32-.23-.22-.4l1.41-2.47c.05-.08.13-.13.22-.13h2.87ZM30.5,61.93l1.41-2.47c.05-.08.13-.13.22-.13h2.87s.09.01.13.04c.04.02.07.05.09.09.04.07.05.17,0,.26l-1.44,2.49c-.05.08-.13.13-.22.13h-2.85s-.09-.03-.13-.05c-.11-.07-.16-.22-.09-.35ZM29.99,68.78l-.72,1.24-.72,1.24c-.03.06-.09.09-.16.11-.02,0-.04.02-.06.02h-2.85c-.2-.01-.32-.23-.22-.4l1.41-2.47c.05-.08.13-.13.22-.13h2.87s.09.01.13.04c.11.07.16.22.09.35ZM29.99,59.71l-.72,1.24-.72,1.24c-.03.06-.09.09-.16.11-.02,0-.04.02-.06.02h-2.85c-.2-.01-.32-.23-.22-.4l1.41-2.47c.05-.08.13-.13.22-.13h2.87s.09.01.13.04c.11.07.16.22.09.35ZM27.15,63.86s.09.01.13.04c.08.05.12.13.12.22,0,.04-.01.09-.03.13l-1.44,2.49c-.03.06-.09.09-.16.11-.02,0-.04.02-.06.02h-2.85s-.09-.03-.13-.05c-.07-.05-.12-.13-.12-.21,0-.04,0-.09.03-.13l1.41-2.47c.05-.08.13-.13.22-.13h2.87ZM24.75,59.71l-1.44,2.49c-.05.08-.13.13-.22.13h-2.85s-.09-.03-.13-.05c-.07-.05-.12-.13-.12-.21,0-.04,0-.09.03-.13l1.41-2.47c.05-.08.13-.13.22-.13h2.87s.09.01.13.04c.08.05.12.13.12.22,0,.04-.01.09-.03.13ZM20.03,70.99l1.41-2.47c.05-.08.13-.13.22-.13h2.87s.09.01.13.04c.08.05.12.13.12.22,0,.04-.01.09-.03.13l-1.44,2.49c-.05.08-.13.13-.22.13h-2.85s-.09-.03-.13-.05c-.07-.05-.12-.13-.12-.21,0-.04,0-.09.03-.13ZM21.91,72.93c.1,0,.18.05.22.13s.05.17,0,.26l-1.44,2.49s-.06.07-.09.09c-.04.02-.08.03-.13.03-.2,0-.59,0-1.05,0-.45,0-.97,0-1.41,0-.3,0-.57,0-.77,0-.09,0-.17-.05-.21-.11s-.06-.16-.02-.24c.16-.39.34-.79.55-1.2.21-.42.45-.85.72-1.3.02-.04.06-.07.09-.09.04-.02.08-.03.13-.03h3.41ZM20.03,80.06l1.41-2.47c.05-.08.13-.13.22-.13h2.87s.09.01.13.04c.08.05.12.13.12.22,0,.04-.01.09-.03.13l-1.44,2.49c-.05.08-.13.13-.22.13h-2.85s-.09-.03-.13-.05c-.07-.05-.12-.13-.12-.21,0-.04,0-.09.03-.13ZM22.86,75.91s-.09-.01-.13-.04c-.07-.05-.12-.13-.12-.21,0-.04,0-.09.03-.13l1.41-2.47c.05-.08.13-.13.22-.13h2.87s.09.01.13.04c.08.05.12.13.12.22,0,.04-.01.09-.03.13l-1.44,2.49c-.05.08-.13.13-.22.13h-2.85ZM25.26,80.06l1.41-2.47c.05-.08.13-.13.22-.13h2.87s.09.01.13.04c.11.07.16.22.09.35l-.72,1.24-.72,1.24c-.03.06-.09.09-.16.11-.02,0-.04.02-.06.02h-2.85c-.2-.01-.32-.23-.22-.4ZM28.1,75.91c-.2,0-.32-.21-.22-.38l1.41-2.47c.05-.08.13-.13.22-.13h2.87s.09.01.13.04c.11.07.16.22.09.35l-.72,1.24-.72,1.24s-.06.07-.09.09c-.04.02-.08.03-.13.03h-2.85ZM30.72,71.38s-.09-.01-.13-.04c-.11-.07-.16-.22-.09-.35l1.41-2.47c.05-.08.13-.13.22-.13h2.87s.09.01.13.04c.04.02.07.05.09.09.04.07.05.17,0,.26l-1.44,2.49c-.05.08-.13.13-.22.13h-2.85ZM33.33,66.84s-.09-.01-.13-.04c-.07-.05-.12-.13-.12-.21,0-.04,0-.09.03-.13l1.41-2.47c.05-.08.13-.13.22-.13h2.87c.2,0,.32.21.22.38l-1.44,2.49c-.05.08-.13.13-.22.13h-2.85ZM35.95,62.31s-.09-.01-.13-.04c-.04-.02-.07-.05-.09-.09-.03-.06-.03-.12-.02-.19,0-.02,0-.04.02-.07l1.41-2.47c.05-.08.13-.13.22-.13h2.87c.2,0,.32.21.22.38l-1.44,2.49s-.06.07-.09.09c-.04.02-.08.03-.13.03h-2.85ZM45.69,59.71l-.72,1.24-.72,1.24s-.06.07-.09.09c-.04.02-.08.03-.13.03h-2.85c-.2-.01-.32-.23-.22-.4l1.41-2.47c.05-.08.13-.13.22-.13h2.87s.09.01.13.04c.04.02.07.05.09.09.04.07.05.17,0,.26ZM43.58,57.39l1.41-2.47c.05-.08.13-.13.22-.13h2.87c.1,0,.18.05.22.13s.05.17,0,.26l-1.44,2.49c-.05.08-.13.13-.22.13h-2.85c-.1-.01-.18-.07-.22-.14s-.05-.17,0-.25ZM38.35,57.39l1.41-2.47c.05-.08.13-.13.22-.13h2.87c.2,0,.32.21.22.38l-.72,1.24-.72,1.24s-.06.07-.09.09c-.04.02-.08.03-.13.03h-2.85s-.09-.03-.13-.05c-.07-.05-.12-.13-.12-.21,0-.04,0-.09.03-.13ZM33.11,57.39l1.41-2.47c.05-.08.13-.13.22-.13h2.87c.2,0,.32.21.22.38l-1.44,2.49c-.05.08-.13.13-.22.13h-2.85s-.09-.03-.13-.05c-.07-.05-.12-.13-.12-.21,0-.04,0-.09.03-.13ZM27.88,57.39l1.41-2.47c.05-.08.13-.13.22-.13h2.87s.09.01.13.04c.11.07.16.22.09.35l-.72,1.24-.72,1.24s-.06.07-.09.09c-.04.02-.08.03-.13.03h-2.85c-.2-.01-.32-.23-.22-.4ZM22.64,57.39l1.41-2.47c.05-.08.13-.13.22-.13h2.87c.2,0,.32.21.22.38l-1.44,2.49c-.03.06-.09.09-.16.11-.02,0-.04.02-.06.02h-2.85s-.09-.03-.13-.05c-.07-.05-.12-.13-.12-.21,0-.04,0-.09.03-.13ZM17.41,57.39l1.41-2.47c.05-.08.13-.13.22-.13h2.87c.1,0,.18.05.22.13.04.07.05.17,0,.26l-1.44,2.49c-.05.08-.13.13-.22.13h-2.85s-.09-.03-.13-.05c-.04-.02-.07-.05-.09-.09-.04-.07-.05-.17,0-.25ZM12.18,57.39l1.41-2.47c.05-.08.13-.13.22-.13h2.87c.2,0,.32.21.22.38l-.72,1.24-.72,1.24s-.06.07-.09.09-.08.03-.13.03h-2.85s-.09-.03-.13-.05c-.07-.05-.12-.13-.12-.21,0-.04,0-.09.03-.13ZM9.38,57.1c.16-.21.37-.45.64-.71.27-.26.6-.54.99-.83.23-.16.52.11.36.35l-1.14,1.77c-.05.07-.13.12-.22.12h-1.08s.12-.28.44-.69ZM7.53,61.35c.05-.3.12-.61.2-.92s.19-.62.32-.94c.02-.05.05-.09.1-.12.04-.03.09-.04.14-.04h.49c.25,0,.37.21.27.38l-1.05,1.81c-.07.12-.2.15-.31.11-.11-.04-.19-.14-.17-.28ZM10.01,66.86h-1.49s-.1-.02-.14-.05c-.04-.03-.07-.06-.09-.11-.23-.5-.42-1-.55-1.49-.02-.06,0-.13.03-.19.03-.05.07-.13.12-.22.1-.18.23-.4.33-.58.05-.09.1-.17.14-.24.02-.04.06-.07.09-.09.04-.02.08-.03.13-.03h2.87c.2,0,.32.21.22.38l-1.44,2.49c-.05.08-.13.13-.22.13ZM14.28,68.78l-1.26,2.19c-.06.11-.2.16-.32.11-.77-.33-1.49-.8-2.16-1.39-.05-.04-.07-.09-.08-.15,0-.06,0-.12.03-.17l.48-.84c.05-.08.13-.13.22-.13h2.87c.2,0,.32.21.22.38ZM14.79,71.7c-.18-.03-.28-.22-.19-.38.3-.52.9-1.57,1.29-2.26.13-.23.24-.42.31-.54.02-.04.06-.07.09-.09.04-.02.08-.03.13-.03h2.87s.09.01.13.04c.04.02.07.05.09.09.04.07.05.17,0,.26l-1.7,2.95s-.05.07-.09.09c-.04.02-.08.03-.13.04-.26,0-.49,0-.74-.01-.74-.01-1.44-.05-2.06-.14ZM17.86,80.46h-.97c-.06,0-.12-.03-.16-.06-.04-.04-.08-.09-.09-.15-.09-.44-.14-.87-.17-1.3-.02-.43,0-.85.04-1.27,0-.06.04-.12.09-.16.05-.04.11-.06.17-.06h2.53s.09.01.13.04c.11.07.16.22.09.35l-.72,1.24-.72,1.24c-.03.06-.09.09-.16.11-.02,0-.04.02-.06.02ZM22.14,82.38l-1.44,2.49c-.05.08-.13.13-.22.13-.15,0-.38,0-.61,0-.23,0-.46,0-.58,0-.07,0-.13-.03-.18-.07-.18-.18-.35-.37-.52-.57-.17-.2-.33-.42-.49-.65-.06-.08-.06-.19-.01-.28l.74-1.3c.05-.08.13-.13.22-.13h2.87c.15,0,.25.12.26.25,0,.04-.01.09-.03.13ZM24.73,86.95l-.24.42c-.05.09-.16.14-.26.13-.68-.1-1.3-.26-1.87-.48-.13-.05-.18-.17-.16-.29.01-.06.04-.11.08-.15s.1-.06.17-.06h2.09c.1,0,.18.05.22.13.02.04.03.09.03.14s-.02.1-.05.16ZM25.71,84.99h-2.85s-.09-.03-.13-.05c-.07-.05-.12-.13-.12-.21,0-.04,0-.09.03-.13l1.41-2.47c.03-.06.09-.09.16-.11.02,0,.04-.02.06-.02h2.87s.09.01.13.04c.08.05.12.13.12.22,0,.04-.01.09-.03.13l-1.44,2.49c-.05.08-.13.13-.22.13ZM29.11,86.91c-1.11.5-1.99.64-2.49.67-.1,0-.19,0-.26,0-.14,0-.21,0-.21,0l.54-.94c.04-.08.12-.12.21-.13l2.1-.1c.14,0,.23.09.26.2.03.11-.01.23-.14.29ZM32.6,82.38l-.72,1.24-.72,1.24s-.06.07-.09.09c-.04.02-.08.03-.13.03h-2.85c-.2-.01-.32-.23-.22-.4l1.41-2.47c.05-.08.13-.13.22-.13h2.87s.09.01.13.04c.11.07.16.22.09.35ZM35.22,77.84l-1.44,2.49c-.05.08-.13.13-.22.13h-2.85s-.09-.03-.13-.05c-.11-.07-.16-.22-.09-.35l1.41-2.47c.05-.08.13-.13.22-.13h2.87s.09.01.13.04c.04.02.07.05.09.09.04.07.05.17,0,.26ZM37.84,73.31l-1.44,2.49c-.05.08-.13.13-.22.13h-2.85s-.09-.03-.13-.05c-.07-.05-.12-.13-.12-.21,0-.04,0-.09.03-.13l1.41-2.47c.05-.08.13-.13.22-.13h2.87c.1,0,.18.05.22.13.04.07.05.17,0,.26ZM40.46,68.78l-1.44,2.49c-.05.08-.13.13-.22.13h-2.85s-.09-.03-.13-.05c-.04-.02-.07-.05-.09-.09-.03-.06-.03-.12-.02-.19,0-.02,0-.04.02-.07l1.41-2.47s.06-.07.09-.09c.04-.02.08-.03.13-.03h2.87c.2,0,.32.21.22.38ZM92.86,51.5c.46,0,.92-.11,1.32-.34,1.2-.68,2.25-1.59,3.09-2.67.56-.72,1.04-1.52,1.4-2.37.18-.43.34-.87.46-1.32.25-.91.39-1.87.39-2.86,0-1.82-.46-3.54-1.26-5.04-.96-1.8-2.43-3.28-4.2-4.25-1.18-.65-2.5-1.08-3.91-1.22-.35-.04-.71-.05-1.07-.05.9-1.56,1.35-3.26,1.38-4.95.01-.67-.04-1.35-.15-2.01-.06-.33-.13-.66-.22-.98-.71-2.59-2.41-4.92-4.94-6.38-1.29-.74-2.67-1.19-4.05-1.36-.46-.06-.92-.08-1.39-.08-.92.01-1.83.14-2.71.39s-1.73.6-2.52,1.07c-.4.23-.72.57-.95.97l-19.31,33.45h38.63ZM66.65,47.61l-1.41,2.47c-.05.08-.13.13-.22.13h-2.87s-.09-.01-.13-.04c-.11-.07-.16-.22-.09-.35l.72-1.24.72-1.24s.06-.07.09-.09c.04-.02.08-.03.13-.03h2.85c.2.01.32.23.22.4ZM89.99,42.69s.09.01.13.04c.07.05.12.13.12.21,0,.04,0,.09-.03.13l-1.41,2.47c-.05.08-.13.13-.22.13h-2.87s-.09-.01-.13-.04-.07-.05-.09-.09c-.04-.07-.05-.17,0-.26l1.44-2.49c.05-.08.13-.13.22-.13h2.85ZM88.1,40.76l1.44-2.49c.05-.08.13-.13.22-.13h2.85s.09.03.13.05c.07.05.12.13.12.21,0,.04,0,.09-.03.13l-1.41,2.47c-.05.08-.13.13-.22.13h-2.87s-.09-.01-.13-.04c-.11-.07-.16-.22-.09-.35ZM87.59,38.54l-1.41,2.47c-.05.08-.13.13-.22.13h-2.87c-.1,0-.18-.05-.22-.13-.04-.07-.05-.17,0-.26l.72-1.24.72-1.24c.03-.06.09-.09.16-.11.02,0,.04-.02.06-.02h2.85s.09.03.13.05c.07.05.12.13.12.21,0,.04,0,.09-.03.13ZM72.62,41.14c-.2,0-.32-.21-.22-.38l1.44-2.49c.05-.08.13-.13.22-.13h2.85s.09.03.13.05c.07.05.12.13.12.21,0,.04,0,.09-.03.13l-1.41,2.47c-.05.08-.13.13-.22.13h-2.87ZM74.52,43.01s0,.04-.02.07l-1.41,2.47c-.05.08-.13.13-.22.13h-2.87c-.12,0-.21-.09-.24-.19-.02-.06-.02-.13.02-.19l1.44-2.49s.06-.07.09-.09c.04-.02.08-.03.13-.03h2.85c.17.01.28.18.24.33ZM75.01,36.22l1.44-2.49c.05-.08.13-.13.22-.13h2.85s.09.03.13.05c.07.05.12.13.12.21,0,.04,0,.09-.03.13l-1.41,2.47c-.05.08-.13.13-.22.13h-2.87c-.12,0-.21-.09-.24-.19-.02-.06-.02-.13.02-.19ZM75.01,45.29l1.44-2.49c.05-.08.13-.13.22-.13h2.85s.09.03.13.05c.07.05.12.13.12.21,0,.04,0,.09-.03.13l-1.41,2.47c-.05.08-.13.13-.22.13h-2.87c-.1,0-.18-.05-.22-.13-.04-.07-.05-.17,0-.26ZM77.85,41.14s-.09-.01-.13-.04-.07-.05-.09-.09c-.04-.07-.05-.17,0-.26l1.44-2.49s.06-.07.09-.09c.04-.02.08-.03.13-.03h2.85c.2.01.32.23.22.4l-1.41,2.47c-.05.08-.13.13-.22.13h-2.87ZM80.25,45.29l1.44-2.49s.06-.07.09-.09c.04-.02.08-.03.13-.03h2.85c.2.01.32.23.22.4l-1.41,2.47c-.05.08-.13.13-.22.13h-2.87c-.2,0-.32-.21-.22-.38ZM84.97,34.01l-1.41,2.47c-.05.08-.13.13-.22.13h-2.87c-.1,0-.18-.05-.22-.13-.04-.07-.05-.17,0-.26l.72-1.24.72-1.24s.06-.07.09-.09c.04-.02.08-.03.13-.03h2.85c.2.01.32.23.22.4ZM83.09,32.07c-.2,0-.32-.21-.22-.38l1.44-2.49c.05-.08.13-.13.22-.13h3.22c.09.02.17.06.21.13.02.03.04.07.04.11s0,.08-.02.13c-.16.39-.34.79-.55,1.2-.21.42-.45.85-.72,1.3-.05.08-.13.13-.22.13h-3.41ZM84.97,24.94l-1.41,2.47c-.05.08-.13.13-.22.13h-2.87c-.1,0-.18-.05-.22-.13-.04-.07-.05-.17,0-.26l.72-1.24.72-1.24s.06-.07.09-.09c.04-.02.08-.03.13-.03h2.85c.2.01.32.23.22.4ZM82.14,29.09c.2,0,.32.21.22.38l-1.41,2.47c-.05.08-.13.13-.22.13h-2.87s-.09-.01-.13-.04-.07-.05-.09-.09c-.04-.07-.05-.17,0-.26l.72-1.24.72-1.24s.06-.07.09-.09c.04-.02.08-.03.13-.03h2.85ZM79.74,24.94l-1.41,2.47c-.05.08-.13.13-.22.13h-2.87c-.12,0-.21-.09-.24-.19-.02-.06-.02-.13.02-.19l1.44-2.49c.05-.08.13-.13.22-.13h2.85s.09.03.13.05c.11.07.16.22.09.35ZM76.9,29.09s.09.01.13.04c.07.05.12.13.12.21,0,.04,0,.09-.03.13l-1.41,2.47c-.05.08-.13.13-.22.13h-2.87c-.2,0-.32-.21-.22-.38l1.44-2.49c.05-.08.13-.13.22-.13h2.85ZM74.28,33.62c.17,0,.28.16.24.32,0,.02,0,.04-.02.07l-1.41,2.47c-.05.08-.13.13-.22.13h-2.87c-.2,0-.32-.21-.22-.38l1.44-2.49s.06-.07.09-.09c.04-.02.08-.03.13-.03h2.85ZM71.67,38.16c.2,0,.32.21.22.38l-1.41,2.47c-.05.08-.13.13-.22.13h-2.87c-.2,0-.32-.21-.22-.38l.72-1.24.72-1.24s.06-.07.09-.09c.04-.02.08-.03.13-.03h2.85ZM69.05,42.69c.2,0,.32.21.22.38l-1.41,2.47s-.03.03-.05.05c-.03.03-.07.05-.11.06-.02,0-.04.02-.06.02h-2.87c-.2,0-.32-.21-.22-.38l1.44-2.49s.06-.07.09-.09c.04-.02.08-.03.13-.03h2.85ZM71.89,47.61l-1.41,2.47c-.05.08-.13.13-.22.13h-2.87c-.15,0-.25-.12-.26-.25,0-.04.01-.09.03-.13l1.44-2.49c.05-.08.13-.13.22-.13h2.85s.09.03.13.05c.07.05.12.13.12.21,0,.04,0,.09-.03.13ZM77.12,47.61l-1.41,2.47c-.05.08-.13.13-.22.13h-2.87s-.09-.01-.13-.04-.07-.05-.09-.09c-.04-.07-.05-.17,0-.26l.72-1.24.72-1.24s.06-.07.09-.09c.04-.02.08-.03.13-.03h2.85c.2.01.32.23.22.4ZM82.36,47.61l-1.41,2.47c-.05.08-.13.13-.22.13h-2.87c-.2,0-.32-.21-.22-.38l1.44-2.49s.06-.07.09-.09c.04-.02.08-.03.13-.03h2.85s.09.03.13.05c.07.05.12.13.12.21,0,.04,0,.09-.03.13ZM87.59,47.61l-1.41,2.47c-.05.08-.13.13-.22.13h-2.87c-.1,0-.18-.05-.22-.13-.04-.07-.05-.17,0-.26l1.44-2.49c.05-.08.13-.13.22-.13h2.85c.1.01.18.07.22.14.04.07.05.17,0,.25ZM92.82,47.61l-1.41,2.47c-.05.08-.13.13-.22.13h-2.87c-.2,0-.32-.21-.22-.38l.72-1.24.72-1.24s.06-.07.09-.09c.04-.02.08-.03.13-.03h2.85c.2.01.32.23.22.4ZM90.94,45.68c-.2,0-.32-.21-.22-.38l1.44-2.49c.05-.08.13-.13.22-.13h2.85c.1.01.18.07.22.14.04.07.05.17,0,.25l-1.41,2.47c-.05.08-.13.13-.22.13h-2.87ZM95.62,47.9c-.16.21-.37.45-.64.71s-.6.54-.99.83c-.23.16-.52-.11-.36-.35l1.14-1.77c.05-.07.13-.12.22-.12h1.08s-.12.28-.44.69ZM97.47,43.65c-.05.3-.11.61-.2.92s-.19.62-.32.94c-.02.05-.05.09-.1.12-.04.03-.09.04-.14.04h-.54c-.12,0-.21-.09-.24-.19-.02-.06-.02-.13.02-.19l1.04-1.81c.11-.18.35-.16.44-.01.03.05.05.11.04.18ZM94.86,38.18s.08-.03.13-.03h1.49c.1,0,.19.07.23.16.23.5.42,1,.55,1.49.02.06,0,.13-.03.19-.09.16-.3.52-.46.8-.05.09-.1.17-.14.24-.02.04-.06.07-.09.09-.04.02-.08.03-.13.03h-2.87s-.09-.01-.13-.04-.07-.05-.09-.09c-.04-.07-.05-.17,0-.26l.72-1.24.72-1.24s.06-.07.09-.09ZM90.72,36.22l1.26-2.19c.06-.11.2-.16.32-.11.77.33,1.49.8,2.16,1.39.09.08.11.22.05.32l-.48.84c-.05.08-.13.13-.22.13h-2.87s-.09-.01-.13-.04-.07-.05-.09-.09c-.04-.07-.05-.17,0-.26ZM90.21,33.3s.08.02.12.05c.1.07.14.21.07.33l-1.6,2.8c-.05.08-.13.13-.22.13h-2.87c-.2,0-.32-.21-.22-.38l1.7-2.95c.04-.08.13-.13.22-.13.52,0,1.02,0,1.48.03.47.03.9.07,1.32.13ZM88.11,24.55c.12,0,.23.09.25.21.18.88.22,1.73.12,2.56-.02.13-.13.22-.26.22h-2.53c-.2,0-.32-.21-.22-.38l1.44-2.49c.05-.08.13-.13.22-.13h.97ZM82.86,22.62l1.44-2.49c.05-.08.13-.13.22-.13.15,0,.38,0,.61,0,.23,0,.46,0,.58,0,.07,0,.13.03.18.07.18.18.35.37.52.57.17.2.33.42.49.65.06.08.06.19.01.28l-.74,1.3c-.05.08-.13.13-.22.13h-2.87c-.1,0-.18-.05-.22-.13-.04-.07-.05-.17,0-.26ZM80.27,18.05l.24-.42s.07-.08.11-.1c.05-.02.1-.03.15-.02.68.1,1.3.26,1.87.48.07.03.11.07.14.12.08.15-.02.38-.23.38h-2.09s-.09-.01-.13-.04c-.11-.07-.16-.23-.06-.39ZM79.16,20.04s.08-.03.13-.03h2.85c.2.01.32.23.22.4l-1.41,2.47c-.05.08-.13.13-.22.13h-2.87s-.09-.01-.13-.04-.07-.05-.09-.09c-.04-.07-.05-.17,0-.26l.72-1.24.72-1.24s.06-.07.09-.09ZM75.77,18.22c.02-.05.06-.1.13-.13.45-.2.85-.34,1.21-.45s.68-.16.93-.19c.26-.03.46-.04.6-.04s.21,0,.21,0l-.54.94s-.05.07-.09.09-.08.04-.12.04l-2.1.1c-.21,0-.32-.2-.25-.36ZM72.4,22.62l1.44-2.49c.05-.08.13-.13.22-.13h2.85s.09.03.13.05c.07.05.12.13.12.21,0,.04,0,.09-.03.13l-1.41,2.47c-.05.08-.13.13-.22.13h-2.87c-.2,0-.32-.21-.22-.38ZM69.78,27.16l1.44-2.49s.06-.07.09-.09c.04-.02.08-.03.13-.03h2.85c.17.01.28.18.24.33,0,.02,0,.04-.02.07l-1.41,2.47c-.05.08-.13.13-.22.13h-2.87c-.2,0-.32-.21-.22-.38ZM67.16,31.69l.72-1.24.72-1.24s.06-.07.09-.09c.04-.02.08-.03.13-.03h2.85c.2.01.32.23.22.4l-1.41,2.47c-.05.08-.13.13-.22.13h-2.87c-.2,0-.32-.21-.22-.38ZM64.54,36.22l.72-1.24.72-1.24s.06-.07.09-.09c.04-.02.08-.03.13-.03h2.85c.2.01.32.23.22.4l-1.41,2.47c-.05.08-.13.13-.22.13h-2.87s-.09-.01-.13-.04-.07-.05-.09-.09c-.04-.07-.05-.17,0-.26ZM61.93,40.76l1.44-2.49c.05-.08.13-.13.22-.13h2.85s.09.03.13.05c.04.02.07.05.09.09.04.07.05.17,0,.25l-1.41,2.47c-.05.08-.13.13-.22.13h-2.87c-.1,0-.18-.05-.22-.13-.04-.07-.05-.17,0-.26ZM59.31,45.29l1.44-2.49c.05-.08.13-.13.22-.13h2.85s.09.03.13.05c.07.05.12.13.12.21,0,.04,0,.09-.03.13l-1.41,2.47c-.05.08-.13.13-.22.13h-2.87s-.09-.01-.13-.04-.07-.05-.09-.09c-.04-.07-.05-.17,0-.26ZM58.13,47.34c.05-.08.13-.13.22-.13h2.85c.1.01.18.07.22.14.04.07.05.17,0,.25l-1.41,2.47c-.05.08-.13.13-.22.13h-2.87c-.1,0-.18-.05-.22-.13-.04-.07-.05-.17,0-.26l1.44-2.49Z"/>
</svg>