<?xml version="1.0" encoding="UTF-8"?>
<svg id="Layer_1" data-name="Layer 1" xmlns="http://www.w3.org/2000/svg" xmlns:xlink="http://www.w3.org/1999/xlink" viewBox="0 0 105 105">
  <defs>
    <style>
      .cls-1 {
        fill: url(#linear-gradient-6);
      }

      .cls-1, .cls-2, .cls-3, .cls-4, .cls-5, .cls-6 {
        stroke-width: .26px;
      }

      .cls-1, .cls-2, .cls-3, .cls-4, .cls-5, .cls-6, .cls-7 {
        stroke: #4a2700;
        stroke-linecap: round;
        stroke-linejoin: round;
      }

      .cls-8 {
        fill: #4a2700;
      }

      .cls-8, .cls-9, .cls-10 {
        stroke-width: 0px;
      }

      .cls-11, .cls-7 {
        opacity: .04;
      }

      .cls-2 {
        fill: url(#linear-gradient-5);
      }

      .cls-12 {
        opacity: .08;
      }

      .cls-9, .cls-7 {
        fill: none;
      }

      .cls-3 {
        fill: url(#linear-gradient-4);
      }

      .cls-4 {
        fill: url(#linear-gradient);
      }

      .cls-13 {
        filter: url(#drop-shadow-2);
      }

      .cls-14 {
        clip-path: url(#clippath);
      }

      .cls-5 {
        fill: url(#linear-gradient-2);
      }

      .cls-6 {
        fill: url(#linear-gradient-3);
      }

      .cls-7 {
        stroke-width: .26px;
      }

      .cls-10 {
        fill: #ffe197;
      }
    </style>
    <filter id="drop-shadow-2" filterUnits="userSpaceOnUse">
      <feOffset dx="0" dy="0"/>
      <feGaussianBlur result="blur" stdDeviation="5"/>
      <feFlood flood-color="#000" flood-opacity=".25"/>
      <feComposite in2="blur" operator="in"/>
      <feComposite in="SourceGraphic"/>
    </filter>
    <clipPath id="clippath">
      <path class="cls-9" d="M9.35,41.3c1.36-4.77,7.79-5.71,10.2-9.59,1.66-2.68-1.12-8.13,1.48-11.62,1.45-1.94,9.34-1.03,13.87-3.29,3.63-1.81,3.6-6.95,7.64-7.56,1.39-.21,5.31,1.56,9.42,1.21,3.47-.29,7.07-2.79,9.42-2.24,3.3.77,5.78,7.79,10,9.83s10.2-.88,14.45,3.37c2.71,2.71,1.27,7.56,3.01,10.85s6.69,5.04,7.02,8.55c.54,5.79-1.56,8.07-1.86,12.39-.2,2.86,2.39,7.05-.11,12.17-1.46,2.99-7.68,2.49-9.43,5.92-2.06,4.05.17,11.96-4.39,14.09-2.41,1.13-5.82-.23-7.13.82-3.1,2.5-2.69,7.03-8.99,7.44-8.07.52-9.33-.99-12-.75-3.12.28-7.21,2.15-12.01.22-3.74-1.5-5.7-4.71-8.66-6.03-3.84-1.71-8.35-1.79-9.98-6.69-2.31-6.94-1.5-14.42-8.83-16.23-1.48-.36,1.47-6.81.93-12.16-.5-5.05-4.55-8.98-4.06-10.7Z"/>
    </clipPath>
    <linearGradient id="linear-gradient" x1="-25.54" y1="70.44" x2="-25.41" y2="70.44" gradientUnits="userSpaceOnUse">
      <stop offset="0" stop-color="#945a14"/>
      <stop offset="1" stop-color="#965a18"/>
    </linearGradient>
    <linearGradient id="linear-gradient-2" x1="-25.54" y1="76.22" x2="-25.41" y2="76.22" gradientUnits="userSpaceOnUse">
      <stop offset="0" stop-color="#945a14"/>
      <stop offset="1" stop-color="#965a18"/>
    </linearGradient>
    <linearGradient id="linear-gradient-3" x1="-25.54" y1="70.44" x2="-25.41" y2="70.44" xlink:href="#linear-gradient-2"/>
    <linearGradient id="linear-gradient-4" x1="-25.54" y1="32.56" x2="-25.41" y2="32.56" xlink:href="#linear-gradient-2"/>
    <linearGradient id="linear-gradient-5" y1="26.78" y2="26.78" xlink:href="#linear-gradient-2"/>
    <linearGradient id="linear-gradient-6" x1="-25.54" y1="32.56" x2="-25.41" y2="32.56" xlink:href="#linear-gradient-2"/>
  </defs>
  <g class="cls-13">
    <g>
      <path class="cls-10" d="M8.77,41.17c1.38-4.83,7.9-5.79,10.33-9.72,1.68-2.72-1.14-8.24,1.5-11.78,1.47-1.97,9.46-1.04,14.06-3.33,3.68-1.83,3.64-7.04,7.74-7.67,1.41-.21,5.38,1.58,9.54,1.22,3.51-.3,7.17-2.83,9.54-2.27,3.34.78,5.85,7.89,10.14,9.97s10.34-.89,14.65,3.42c2.75,2.75,1.28,7.66,3.06,11s6.78,5.11,7.11,8.67c.55,5.87-1.58,8.18-1.89,12.56-.2,2.9,2.42,7.14-.11,12.33-1.48,3.03-7.79,2.52-9.56,6-2.09,4.11.17,12.12-4.44,14.28-2.44,1.14-5.9-.23-7.22.83-3.14,2.53-2.73,7.13-9.11,7.54-8.18.53-9.46-1-12.16-.76-3.17.29-7.31,2.18-12.17.22-3.79-1.52-5.77-4.77-8.78-6.11-3.9-1.74-8.46-1.81-10.11-6.78-2.34-7.03-1.52-14.62-8.94-16.44-1.5-.37,1.49-6.9.94-12.33-.51-5.12-4.61-9.1-4.11-10.84Z"/>
      <g class="cls-12">
        <path class="cls-8" d="M60.75,8.04c.22,0,.43.02.62.07,1.5.35,2.92,2.28,4.44,4.32,1.65,2.22,3.35,4.52,5.6,5.61,1.86.9,4.03.9,6.13.91,2.94,0,5.99.01,8.38,2.41,1.43,1.43,1.62,3.54,1.83,5.76.16,1.76.33,3.58,1.14,5.12.8,1.52,2.2,2.7,3.56,3.84,1.71,1.44,3.33,2.81,3.5,4.64.32,3.45-.31,5.66-.93,7.8-.41,1.42-.83,2.89-.96,4.67-.07,1,.17,2.14.43,3.34.54,2.55,1.15,5.44-.49,8.81-.62,1.28-2.36,1.88-4.19,2.51-2.14.74-4.36,1.51-5.36,3.48-.86,1.68-1.02,3.96-1.18,6.17-.25,3.44-.48,6.69-3.03,7.88-.64.3-1.44.44-2.52.44-.46,0-.93-.02-1.38-.05-.43-.02-.85-.04-1.24-.04-.74,0-1.59.06-2.18.55-1.14.92-1.83,2.07-2.5,3.19-1.23,2.05-2.38,3.99-6.33,4.24-1.13.07-2.2.11-3.18.11-2.95,0-4.62-.33-5.96-.59-.85-.17-1.58-.31-2.39-.31-.21,0-.41,0-.63.03-.85.08-1.76.26-2.72.46-1.44.3-3.08.63-4.8.63-1.57,0-3.01-.27-4.42-.84-1.97-.79-3.44-2.08-4.87-3.32-1.26-1.1-2.44-2.13-3.89-2.78-.97-.43-1.98-.76-2.96-1.08-2.94-.96-5.71-1.87-6.88-5.39-.59-1.78-.98-3.6-1.35-5.37-1.09-5.13-2.12-9.97-7.92-11.39-.25-.31.15-2.21.43-3.6.51-2.44,1.14-5.48.86-8.31-.3-2.96-1.71-5.49-2.85-7.51-.74-1.32-1.44-2.57-1.28-3.14.72-2.53,2.96-3.92,5.34-5.4,1.87-1.17,3.81-2.37,4.94-4.2.84-1.35.68-3.22.52-5.19-.19-2.33-.39-4.74.96-6.55.61-.81,3-1.07,5.53-1.35,2.8-.31,5.98-.65,8.35-1.84,1.81-.9,2.75-2.5,3.66-4.04,1.04-1.76,1.93-3.27,3.93-3.58.06,0,.12-.01.19-.01.51,0,1.34.2,2.3.42,1.63.38,3.66.86,5.86.86.4,0,.79-.02,1.17-.05,1.66-.14,3.3-.74,4.88-1.32,1.45-.53,2.81-1.03,3.89-1.03M60.75,7.54c-2.36,0-5.64,2.08-8.81,2.35-.38.03-.75.05-1.12.05-3.51,0-6.71-1.29-8.16-1.29-.1,0-.18,0-.26.02-4.1.62-4.06,5.83-7.74,7.67-4.59,2.29-12.59,1.37-14.06,3.33-2.64,3.54.18,9.06-1.5,11.78-2.44,3.94-8.95,4.89-10.33,9.72-.5,1.74,3.6,5.72,4.11,10.84.54,5.43-2.45,11.96-.94,12.33,7.43,1.82,6.61,9.41,8.94,16.44,1.65,4.97,6.22,5.04,10.11,6.78,3,1.34,4.99,4.59,8.78,6.11,1.62.65,3.16.88,4.6.88,2.91,0,5.45-.91,7.57-1.1.2-.02.4-.03.59-.03,1.97,0,3.45.9,8.36.9.94,0,2-.03,3.21-.11,6.38-.41,5.97-5,9.11-7.54.43-.35,1.09-.44,1.87-.44.79,0,1.7.09,2.62.09s1.9-.1,2.74-.49c4.61-2.16,2.36-10.17,4.44-14.28,1.77-3.48,8.08-2.97,9.56-6,2.53-5.19-.09-9.44.11-12.33.3-4.38,2.44-6.69,1.89-12.56-.33-3.56-5.34-5.33-7.11-8.67-1.77-3.34-.31-8.25-3.06-11-4.31-4.31-10.36-1.34-14.65-3.42s-6.8-9.19-10.14-9.97c-.23-.05-.48-.08-.73-.08h0Z"/>
      </g>
    </g>
    <g class="cls-14">
      <g class="cls-11">
        <path class="cls-4" d="M19.84,86.95c3.43,1.98,7.5,1.84,10.66-.02.4-.23.72-.57.95-.98l19.31-33.45H12.15c-.46,0-.92.11-1.32.34-3.19,1.81-5.36,5.26-5.36,9.23,0,5.83,4.67,10.56,10.44,10.56-2.88,4.99-1.12,11.4,3.93,14.32Z"/>
        <path class="cls-5" d="M52.5,53.5h0s0,0,0,0l-19.31,33.45c-.23.4-.36.85-.37,1.31-.03,3.67,1.88,7.27,5.31,9.25,5.05,2.92,11.48,1.24,14.37-3.76,2.88,4.99,9.31,6.67,14.37,3.76,3.43-1.98,5.35-5.58,5.31-9.25,0-.46-.14-.91-.37-1.31l-19.31-33.45Z"/>
        <path class="cls-6" d="M92.85,52.5h-38.62l19.32,33.45c.23.4.56.74.95.98,3.16,1.86,7.23,2,10.66.02,5.05-2.92,6.81-9.33,3.93-14.32,5.76,0,10.44-4.73,10.44-10.56,0-3.97-2.16-7.42-5.36-9.23-.4-.23-.86-.34-1.32-.34Z"/>
        <path class="cls-3" d="M85.16,16.05c-3.43-1.98-7.51-1.84-10.67.02-.4.23-.72.57-.95.97l-19.31,33.45h38.63c.46,0,.92-.11,1.32-.34,3.19-1.81,5.35-5.26,5.35-9.22,0-5.83-4.67-10.56-10.44-10.56,2.88-4.99,1.12-11.4-3.93-14.32Z"/>
        <path class="cls-2" d="M52.5,49.5h0s0,0,0,0l19.31-33.45c.23-.4.36-.85.37-1.31.03-3.67-1.88-7.26-5.31-9.25-5.05-2.92-11.48-1.24-14.37,3.76-2.88-4.99-9.31-6.67-14.37-3.76-3.43,1.98-5.34,5.58-5.31,9.25,0,.46.14.91.37,1.31l19.31,33.45Z"/>
        <path class="cls-1" d="M12.14,50.5h38.63L31.46,17.05c-.23-.4-.56-.74-.95-.97-3.16-1.86-7.23-2.01-10.67-.02-5.05,2.92-6.81,9.33-3.93,14.32-5.76,0-10.44,4.73-10.44,10.56,0,3.96,2.16,7.42,5.35,9.22.4.23.86.34,1.32.34Z"/>
      </g>
      <g>
        <g>
          <path class="cls-10" d="M52.28,46.53l-1.44-2.49c-.05-.08-.05-.18,0-.26l1.44-2.46c.1-.17.34-.17.44,0l1.44,2.46c.05.08.05.18,0,.26l-1.44,2.49c-.1.17-.34.17-.44,0Z"/>
          <path class="cls-7" d="M52.28,46.53l-1.44-2.49c-.05-.08-.05-.18,0-.26l1.44-2.46c.1-.17.34-.17.44,0l1.44,2.46c.05.08.05.18,0,.26l-1.44,2.49c-.1.17-.34.17-.44,0Z"/>
        </g>
        <g>
          <path class="cls-10" d="M49.66,42l-1.44-2.49c-.05-.08-.05-.18,0-.26l1.44-2.46c.1-.17.34-.17.44,0l1.44,2.46c.05.08.05.18,0,.26l-1.44,2.49c-.1.17-.34.17-.44,0Z"/>
          <path class="cls-7" d="M49.66,42l-1.44-2.49c-.05-.08-.05-.18,0-.26l1.44-2.46c.1-.17.34-.17.44,0l1.44,2.46c.05.08.05.18,0,.26l-1.44,2.49c-.1.17-.34.17-.44,0Z"/>
        </g>
        <g>
          <path class="cls-10" d="M47.04,37.46l-1.44-2.49c-.05-.08-.05-.18,0-.26l1.44-2.46c.1-.17.34-.17.44,0l1.44,2.46c.05.08.05.18,0,.26l-1.44,2.49c-.1.17-.34.17-.44,0Z"/>
          <path class="cls-7" d="M47.04,37.46l-1.44-2.49c-.05-.08-.05-.18,0-.26l1.44-2.46c.1-.17.34-.17.44,0l1.44,2.46c.05.08.05.18,0,.26l-1.44,2.49c-.1.17-.34.17-.44,0Z"/>
        </g>
        <g>
          <path class="cls-10" d="M44.43,32.93l-1.44-2.49c-.05-.08-.05-.18,0-.26l1.44-2.46c.1-.17.34-.17.44,0l1.44,2.46c.05.08.05.18,0,.26l-1.44,2.49c-.1.17-.34.17-.44,0Z"/>
          <path class="cls-7" d="M44.43,32.93l-1.44-2.49c-.05-.08-.05-.18,0-.26l1.44-2.46c.1-.17.34-.17.44,0l1.44,2.46c.05.08.05.18,0,.26l-1.44,2.49c-.1.17-.34.17-.44,0Z"/>
        </g>
        <g>
          <path class="cls-10" d="M41.81,28.4l-1.44-2.49c-.05-.08-.05-.18,0-.26l1.44-2.46c.1-.17.34-.17.44,0l1.44,2.46c.05.08.05.18,0,.26l-1.44,2.49c-.1.17-.34.17-.44,0Z"/>
          <path class="cls-7" d="M41.81,28.4l-1.44-2.49c-.05-.08-.05-.18,0-.26l1.44-2.46c.1-.17.34-.17.44,0l1.44,2.46c.05.08.05.18,0,.26l-1.44,2.49c-.1.17-.34.17-.44,0Z"/>
        </g>
        <g>
          <path class="cls-10" d="M39.19,23.86l-1.44-2.49c-.05-.08-.05-.18,0-.26l1.44-2.46c.1-.17.34-.17.44,0l1.44,2.46c.05.08.05.18,0,.26l-1.44,2.49c-.1.17-.34.17-.44,0Z"/>
          <path class="cls-7" d="M39.19,23.86l-1.44-2.49c-.05-.08-.05-.18,0-.26l1.44-2.46c.1-.17.34-.17.44,0l1.44,2.46c.05.08.05.18,0,.26l-1.44,2.49c-.1.17-.34.17-.44,0Z"/>
        </g>
        <g>
          <path class="cls-10" d="M36.57,19.33l-1.44-2.49c-.05-.08-.05-.18,0-.26l1.44-2.46c.1-.17.34-.17.44,0l1.44,2.46c.05.08.05.18,0,.26l-1.44,2.49c-.1.17-.34.17-.44,0Z"/>
          <path class="cls-7" d="M36.57,19.33l-1.44-2.49c-.05-.08-.05-.18,0-.26l1.44-2.46c.1-.17.34-.17.44,0l1.44,2.46c.05.08.05.18,0,.26l-1.44,2.49c-.1.17-.34.17-.44,0Z"/>
        </g>
        <g>
          <path class="cls-10" d="M54.9,42l-1.44-2.49c-.05-.08-.05-.18,0-.26l1.44-2.46c.1-.17.34-.17.44,0l1.44,2.46c.05.08.05.18,0,.26l-1.44,2.49c-.1.17-.34.17-.44,0Z"/>
          <path class="cls-7" d="M54.9,42l-1.44-2.49c-.05-.08-.05-.18,0-.26l1.44-2.46c.1-.17.34-.17.44,0l1.44,2.46c.05.08.05.18,0,.26l-1.44,2.49c-.1.17-.34.17-.44,0Z"/>
        </g>
        <g>
          <path class="cls-10" d="M52.28,37.47l-1.44-2.49c-.05-.08-.05-.18,0-.26l1.44-2.46c.1-.17.34-.17.44,0l1.44,2.46c.05.08.05.18,0,.26l-1.44,2.49c-.1.17-.34.17-.44,0Z"/>
          <path class="cls-7" d="M52.28,37.47l-1.44-2.49c-.05-.08-.05-.18,0-.26l1.44-2.46c.1-.17.34-.17.44,0l1.44,2.46c.05.08.05.18,0,.26l-1.44,2.49c-.1.17-.34.17-.44,0Z"/>
        </g>
        <g>
          <path class="cls-10" d="M49.66,32.93l-1.44-2.49c-.05-.08-.05-.18,0-.26l1.44-2.46c.1-.17.34-.17.44,0l1.44,2.46c.05.08.05.18,0,.26l-1.44,2.49c-.1.17-.34.17-.44,0Z"/>
          <path class="cls-7" d="M49.66,32.93l-1.44-2.49c-.05-.08-.05-.18,0-.26l1.44-2.46c.1-.17.34-.17.44,0l1.44,2.46c.05.08.05.18,0,.26l-1.44,2.49c-.1.17-.34.17-.44,0Z"/>
        </g>
        <g>
          <path class="cls-10" d="M47.04,28.4l-1.44-2.49c-.05-.08-.05-.18,0-.26l1.44-2.46c.1-.17.34-.17.44,0l1.44,2.46c.05.08.05.18,0,.26l-1.44,2.49c-.1.17-.34.17-.44,0Z"/>
          <path class="cls-7" d="M47.04,28.4l-1.44-2.49c-.05-.08-.05-.18,0-.26l1.44-2.46c.1-.17.34-.17.44,0l1.44,2.46c.05.08.05.18,0,.26l-1.44,2.49c-.1.17-.34.17-.44,0Z"/>
        </g>
        <g>
          <path class="cls-10" d="M44.43,23.86l-1.44-2.49c-.05-.08-.05-.18,0-.26l1.44-2.46c.1-.17.34-.17.44,0l1.44,2.46c.05.08.05.18,0,.26l-1.44,2.49c-.1.17-.34.17-.44,0Z"/>
          <path class="cls-7" d="M44.43,23.86l-1.44-2.49c-.05-.08-.05-.18,0-.26l1.44-2.46c.1-.17.34-.17.44,0l1.44,2.46c.05.08.05.18,0,.26l-1.44,2.49c-.1.17-.34.17-.44,0Z"/>
        </g>
        <g>
          <path class="cls-10" d="M41.81,19.33l-1.44-2.49c-.05-.08-.05-.18,0-.26l1.44-2.46c.1-.17.34-.17.44,0l1.44,2.46c.05.08.05.18,0,.26l-1.44,2.49c-.1.17-.34.17-.44,0Z"/>
          <path class="cls-7" d="M41.81,19.33l-1.44-2.49c-.05-.08-.05-.18,0-.26l1.44-2.46c.1-.17.34-.17.44,0l1.44,2.46c.05.08.05.18,0,.26l-1.44,2.49c-.1.17-.34.17-.44,0Z"/>
        </g>
        <g>
          <path class="cls-10" d="M39.19,14.8l-1.44-2.49c-.05-.08-.05-.18,0-.26l1.44-2.46c.1-.17.34-.17.44,0l1.44,2.46c.05.08.05.18,0,.26l-1.44,2.49c-.1.17-.34.17-.44,0Z"/>
          <path class="cls-7" d="M39.19,14.8l-1.44-2.49c-.05-.08-.05-.18,0-.26l1.44-2.46c.1-.17.34-.17.44,0l1.44,2.46c.05.08.05.18,0,.26l-1.44,2.49c-.1.17-.34.17-.44,0Z"/>
        </g>
        <g>
          <path class="cls-10" d="M57.51,37.47l-1.44-2.49c-.05-.08-.05-.18,0-.26l1.44-2.46c.1-.17.34-.17.44,0l1.44,2.46c.05.08.05.18,0,.26l-1.44,2.49c-.1.17-.34.17-.44,0Z"/>
          <path class="cls-7" d="M57.51,37.47l-1.44-2.49c-.05-.08-.05-.18,0-.26l1.44-2.46c.1-.17.34-.17.44,0l1.44,2.46c.05.08.05.18,0,.26l-1.44,2.49c-.1.17-.34.17-.44,0Z"/>
        </g>
        <g>
          <path class="cls-10" d="M54.9,32.93l-1.44-2.49c-.05-.08-.05-.18,0-.26l1.44-2.46c.1-.17.34-.17.44,0l1.44,2.46c.05.08.05.18,0,.26l-1.44,2.49c-.1.17-.34.17-.44,0Z"/>
          <path class="cls-7" d="M54.9,32.93l-1.44-2.49c-.05-.08-.05-.18,0-.26l1.44-2.46c.1-.17.34-.17.44,0l1.44,2.46c.05.08.05.18,0,.26l-1.44,2.49c-.1.17-.34.17-.44,0Z"/>
        </g>
        <g>
          <path class="cls-10" d="M52.28,28.4l-1.44-2.49c-.05-.08-.05-.18,0-.26l1.44-2.46c.1-.17.34-.17.44,0l1.44,2.46c.05.08.05.18,0,.26l-1.44,2.49c-.1.17-.34.17-.44,0Z"/>
          <path class="cls-7" d="M52.28,28.4l-1.44-2.49c-.05-.08-.05-.18,0-.26l1.44-2.46c.1-.17.34-.17.44,0l1.44,2.46c.05.08.05.18,0,.26l-1.44,2.49c-.1.17-.34.17-.44,0Z"/>
        </g>
        <g>
          <path class="cls-10" d="M49.66,23.87l-1.44-2.49c-.05-.08-.05-.18,0-.26l1.44-2.46c.1-.17.34-.17.44,0l1.44,2.46c.05.08.05.18,0,.26l-1.44,2.49c-.1.17-.34.17-.44,0Z"/>
          <path class="cls-7" d="M49.66,23.87l-1.44-2.49c-.05-.08-.05-.18,0-.26l1.44-2.46c.1-.17.34-.17.44,0l1.44,2.46c.05.08.05.18,0,.26l-1.44,2.49c-.1.17-.34.17-.44,0Z"/>
        </g>
        <g>
          <path class="cls-10" d="M47.04,19.33l-1.44-2.49c-.05-.08-.05-.18,0-.26l1.44-2.46c.1-.17.34-.17.44,0l1.44,2.46c.05.08.05.18,0,.26l-1.44,2.49c-.1.17-.34.17-.44,0Z"/>
          <path class="cls-7" d="M47.04,19.33l-1.44-2.49c-.05-.08-.05-.18,0-.26l1.44-2.46c.1-.17.34-.17.44,0l1.44,2.46c.05.08.05.18,0,.26l-1.44,2.49c-.1.17-.34.17-.44,0Z"/>
        </g>
        <g>
          <path class="cls-10" d="M44.43,14.8l-1.44-2.49c-.05-.08-.05-.18,0-.26l1.44-2.46c.1-.17.34-.17.44,0l1.44,2.46c.05.08.05.18,0,.26l-1.44,2.49c-.1.17-.34.17-.44,0Z"/>
          <path class="cls-7" d="M44.43,14.8l-1.44-2.49c-.05-.08-.05-.18,0-.26l1.44-2.46c.1-.17.34-.17.44,0l1.44,2.46c.05.08.05.18,0,.26l-1.44,2.49c-.1.17-.34.17-.44,0Z"/>
        </g>
        <g>
          <path class="cls-10" d="M60.13,32.93l-1.44-2.49c-.05-.08-.05-.18,0-.26l1.44-2.46c.1-.17.34-.17.44,0l1.44,2.46c.05.08.05.18,0,.26l-1.44,2.49c-.1.17-.34.17-.44,0Z"/>
          <path class="cls-7" d="M60.13,32.93l-1.44-2.49c-.05-.08-.05-.18,0-.26l1.44-2.46c.1-.17.34-.17.44,0l1.44,2.46c.05.08.05.18,0,.26l-1.44,2.49c-.1.17-.34.17-.44,0Z"/>
        </g>
        <g>
          <path class="cls-10" d="M57.51,28.4l-1.44-2.49c-.05-.08-.05-.18,0-.26l1.44-2.46c.1-.17.34-.17.44,0l1.44,2.46c.05.08.05.18,0,.26l-1.44,2.49c-.1.17-.34.17-.44,0Z"/>
          <path class="cls-7" d="M57.51,28.4l-1.44-2.49c-.05-.08-.05-.18,0-.26l1.44-2.46c.1-.17.34-.17.44,0l1.44,2.46c.05.08.05.18,0,.26l-1.44,2.49c-.1.17-.34.17-.44,0Z"/>
        </g>
        <g>
          <path class="cls-10" d="M54.9,23.87l-1.44-2.49c-.05-.08-.05-.18,0-.26l1.44-2.46c.1-.17.34-.17.44,0l1.44,2.46c.05.08.05.18,0,.26l-1.44,2.49c-.1.17-.34.17-.44,0Z"/>
          <path class="cls-7" d="M54.9,23.87l-1.44-2.49c-.05-.08-.05-.18,0-.26l1.44-2.46c.1-.17.34-.17.44,0l1.44,2.46c.05.08.05.18,0,.26l-1.44,2.49c-.1.17-.34.17-.44,0Z"/>
        </g>
        <g>
          <path class="cls-10" d="M52.28,19.33l-1.44-2.49c-.05-.08-.05-.18,0-.26l1.44-2.46c.1-.17.34-.17.44,0l1.44,2.46c.05.08.05.18,0,.26l-1.44,2.49c-.1.17-.34.17-.44,0Z"/>
          <path class="cls-7" d="M52.28,19.33l-1.44-2.49c-.05-.08-.05-.18,0-.26l1.44-2.46c.1-.17.34-.17.44,0l1.44,2.46c.05.08.05.18,0,.26l-1.44,2.49c-.1.17-.34.17-.44,0Z"/>
        </g>
        <g>
          <path class="cls-10" d="M62.75,28.4l-1.44-2.49c-.05-.08-.05-.18,0-.26l1.44-2.46c.1-.17.34-.17.44,0l1.44,2.46c.05.08.05.18,0,.26l-1.44,2.49c-.1.17-.34.17-.44,0Z"/>
          <path class="cls-7" d="M62.75,28.4l-1.44-2.49c-.05-.08-.05-.18,0-.26l1.44-2.46c.1-.17.34-.17.44,0l1.44,2.46c.05.08.05.18,0,.26l-1.44,2.49c-.1.17-.34.17-.44,0Z"/>
        </g>
        <g>
          <path class="cls-10" d="M60.13,23.87l-1.44-2.49c-.05-.08-.05-.18,0-.26l1.44-2.46c.1-.17.34-.17.44,0l1.44,2.46c.05.08.05.18,0,.26l-1.44,2.49c-.1.17-.34.17-.44,0Z"/>
          <path class="cls-7" d="M60.13,23.87l-1.44-2.49c-.05-.08-.05-.18,0-.26l1.44-2.46c.1-.17.34-.17.44,0l1.44,2.46c.05.08.05.18,0,.26l-1.44,2.49c-.1.17-.34.17-.44,0Z"/>
        </g>
        <g>
          <path class="cls-10" d="M57.51,19.33l-1.44-2.49c-.05-.08-.05-.18,0-.26l1.44-2.46c.1-.17.34-.17.44,0l1.44,2.46c.05.08.05.18,0,.26l-1.44,2.49c-.1.17-.34.17-.44,0Z"/>
          <path class="cls-7" d="M57.51,19.33l-1.44-2.49c-.05-.08-.05-.18,0-.26l1.44-2.46c.1-.17.34-.17.44,0l1.44,2.46c.05.08.05.18,0,.26l-1.44,2.49c-.1.17-.34.17-.44,0Z"/>
        </g>
        <g>
          <path class="cls-10" d="M54.9,14.8l-1.7-2.95c-.05-.08-.05-.18,0-.25.51-.91,1.02-1.69,1.53-2.35.11-.14.33-.13.42.03l1.63,2.79c.05.08.05.18,0,.26l-1.44,2.49c-.1.17-.34.17-.44,0Z"/>
          <path class="cls-7" d="M54.9,14.8l-1.7-2.95c-.05-.08-.05-.18,0-.25.51-.91,1.02-1.69,1.53-2.35.11-.14.33-.13.42.03l1.63,2.79c.05.08.05.18,0,.26l-1.44,2.49c-.1.17-.34.17-.44,0Z"/>
        </g>
        <g>
          <path class="cls-10" d="M65.37,23.87l-1.44-2.49c-.05-.08-.05-.18,0-.26l1.44-2.46c.1-.17.34-.17.44,0l1.44,2.46c.05.08.05.18,0,.26l-1.44,2.49c-.1.17-.34.17-.44,0Z"/>
          <path class="cls-7" d="M65.37,23.87l-1.44-2.49c-.05-.08-.05-.18,0-.26l1.44-2.46c.1-.17.34-.17.44,0l1.44,2.46c.05.08.05.18,0,.26l-1.44,2.49c-.1.17-.34.17-.44,0Z"/>
        </g>
        <g>
          <path class="cls-10" d="M62.75,19.33l-1.44-2.49c-.05-.08-.05-.18,0-.26l1.44-2.46c.1-.17.34-.17.44,0l1.44,2.46c.05.08.05.18,0,.26l-1.44,2.49c-.1.17-.34.17-.44,0Z"/>
          <path class="cls-7" d="M62.75,19.33l-1.44-2.49c-.05-.08-.05-.18,0-.26l1.44-2.46c.1-.17.34-.17.44,0l1.44,2.46c.05.08.05.18,0,.26l-1.44,2.49c-.1.17-.34.17-.44,0Z"/>
        </g>
        <g>
          <path class="cls-10" d="M60.13,14.8l-1.44-2.49c-.05-.08-.05-.18,0-.26l1.44-2.46c.1-.17.34-.17.44,0l1.44,2.46c.05.08.05.18,0,.26l-1.44,2.49c-.1.17-.34.17-.44,0Z"/>
          <path class="cls-7" d="M60.13,14.8l-1.44-2.49c-.05-.08-.05-.18,0-.26l1.44-2.46c.1-.17.34-.17.44,0l1.44,2.46c.05.08.05.18,0,.26l-1.44,2.49c-.1.17-.34.17-.44,0Z"/>
        </g>
        <g>
          <path class="cls-10" d="M57.51,10.27l-1.26-2.19c-.06-.11-.04-.26.06-.33.67-.5,1.43-.89,2.28-1.18.11-.04.24.01.3.12l.49.84c.05.08.05.18,0,.26l-1.44,2.49c-.1.17-.34.17-.44,0Z"/>
          <path class="cls-7" d="M57.51,10.27l-1.26-2.19c-.06-.11-.04-.26.06-.33.67-.5,1.43-.89,2.28-1.18.11-.04.24.01.3.12l.49.84c.05.08.05.18,0,.26l-1.44,2.49c-.1.17-.34.17-.44,0Z"/>
        </g>
        <g>
          <path class="cls-10" d="M67.98,19.33l-1.44-2.49c-.05-.08-.05-.18,0-.26l1.44-2.46c.1-.17.34-.17.44,0l1.44,2.46c.05.08.05.18,0,.26l-1.44,2.49c-.1.17-.34.17-.44,0Z"/>
          <path class="cls-7" d="M67.98,19.33l-1.44-2.49c-.05-.08-.05-.18,0-.26l1.44-2.46c.1-.17.34-.17.44,0l1.44,2.46c.05.08.05.18,0,.26l-1.44,2.49c-.1.17-.34.17-.44,0Z"/>
        </g>
        <g>
          <path class="cls-10" d="M65.37,14.8l-1.44-2.49c-.05-.08-.05-.18,0-.26l1.44-2.46c.1-.17.34-.17.44,0l1.44,2.46c.05.08.05.18,0,.26l-1.44,2.49c-.1.17-.34.17-.44,0Z"/>
          <path class="cls-7" d="M65.37,14.8l-1.44-2.49c-.05-.08-.05-.18,0-.26l1.44-2.46c.1-.17.34-.17.44,0l1.44,2.46c.05.08.05.18,0,.26l-1.44,2.49c-.1.17-.34.17-.44,0Z"/>
        </g>
        <g>
          <path class="cls-10" d="M62.75,10.27l-1.44-2.49c-.05-.08-.05-.18,0-.26l.75-1.29c.05-.09.15-.14.24-.13.55.05,1.08.13,1.56.27.06.02.12.06.15.12.13.22.45.78.6,1.03.05.08.05.18,0,.26l-1.44,2.49c-.1.17-.34.17-.44,0Z"/>
          <path class="cls-7" d="M62.75,10.27l-1.44-2.49c-.05-.08-.05-.18,0-.26l.75-1.29c.05-.09.15-.14.24-.13.55.05,1.08.13,1.56.27.06.02.12.06.15.12.13.22.45.78.6,1.03.05.08.05.18,0,.26l-1.44,2.49c-.1.17-.34.17-.44,0Z"/>
        </g>
        <g>
          <path class="cls-10" d="M69.71,11.13s.7.96.9,2.9c.03.28-.35.39-.48.14l-.96-1.87c-.04-.08-.04-.17,0-.25l.54-.93"/>
          <path class="cls-7" d="M69.71,11.13s.7.96.9,2.9c.03.28-.35.39-.48.14l-.96-1.87c-.04-.08-.04-.17,0-.25l.54-.93"/>
        </g>
        <g>
          <path class="cls-10" d="M67.98,10.27l-1.04-1.81c-.14-.25.16-.51.38-.33.48.39.93.84,1.35,1.38.06.08.07.2.02.29l-.24.42c-.12.22-.37.22-.47.05Z"/>
          <path class="cls-7" d="M67.98,10.27l-1.04-1.81c-.14-.25.16-.51.38-.33.48.39.93.84,1.35,1.38.06.08.07.2.02.29l-.24.42c-.12.22-.37.22-.47.05Z"/>
        </g>
        <g>
          <path class="cls-10" d="M50.1,14.8l1.7-2.95c.05-.08.05-.18,0-.25-.51-.91-1.02-1.69-1.53-2.35-.11-.14-.33-.13-.42.03-.41.7-1.35,2.32-1.63,2.79-.05.08-.05.18,0,.26l1.44,2.49c.1.17.34.17.44,0Z"/>
          <path class="cls-7" d="M50.1,14.8l1.7-2.95c.05-.08.05-.18,0-.25-.51-.91-1.02-1.69-1.53-2.35-.11-.14-.33-.13-.42.03-.41.7-1.35,2.32-1.63,2.79-.05.08-.05.18,0,.26l1.44,2.49c.1.17.34.17.44,0Z"/>
        </g>
        <g>
          <path class="cls-10" d="M47.49,10.27l1.26-2.19c.06-.11.04-.26-.06-.33-.67-.5-1.43-.89-2.28-1.18-.11-.04-.24.01-.3.12l-.49.84c-.05.08-.05.18,0,.26l1.44,2.49c.1.17.34.17.44,0Z"/>
          <path class="cls-7" d="M47.49,10.27l1.26-2.19c.06-.11.04-.26-.06-.33-.67-.5-1.43-.89-2.28-1.18-.11-.04-.24.01-.3.12l-.49.84c-.05.08-.05.18,0,.26l1.44,2.49c.1.17.34.17.44,0Z"/>
        </g>
        <g>
          <path class="cls-10" d="M42.25,10.27l1.44-2.49c.05-.08.05-.18,0-.26l-.75-1.29c-.05-.09-.15-.14-.24-.13-.55.05-1.08.13-1.56.27-.06.02-.12.06-.15.12-.13.22-.45.78-.6,1.03-.05.08-.05.18,0,.26l1.44,2.49c.1.17.34.17.44,0Z"/>
          <path class="cls-7" d="M42.25,10.27l1.44-2.49c.05-.08.05-.18,0-.26l-.75-1.29c-.05-.09-.15-.14-.24-.13-.55.05-1.08.13-1.56.27-.06.02-.12.06-.15.12-.13.22-.45.78-.6,1.03-.05.08-.05.18,0,.26l1.44,2.49c.1.17.34.17.44,0Z"/>
        </g>
        <g>
          <path class="cls-10" d="M35.29,11.13s-.7.96-.9,2.9c-.03.28.35.39.48.14l.96-1.87c.04-.08.04-.17,0-.25l-.54-.93"/>
          <path class="cls-7" d="M35.29,11.13s-.7.96-.9,2.9c-.03.28.35.39.48.14l.96-1.87c.04-.08.04-.17,0-.25l-.54-.93"/>
        </g>
        <g>
          <path class="cls-10" d="M37.02,10.27l1.04-1.81c.14-.25-.16-.51-.38-.33-.48.39-.93.84-1.35,1.38-.06.08-.07.2-.02.29l.24.42c.12.22.37.22.47.05Z"/>
          <path class="cls-7" d="M37.02,10.27l1.04-1.81c.14-.25-.16-.51-.38-.33-.48.39-.93.84-1.35,1.38-.06.08-.07.2-.02.29l.24.42c.12.22.37.22.47.05Z"/>
        </g>
        <g>
          <path class="cls-10" d="M52.72,56.47l1.44,2.49c.05.08.05.18,0,.26l-1.44,2.46c-.1.17-.34.17-.44,0l-1.44-2.46c-.05-.08-.05-.18,0-.26l1.44-2.49c.1-.17.34-.17.44,0Z"/>
          <path class="cls-7" d="M52.72,56.47l1.44,2.49c.05.08.05.18,0,.26l-1.44,2.46c-.1.17-.34.17-.44,0l-1.44-2.46c-.05-.08-.05-.18,0-.26l1.44-2.49c.1-.17.34-.17.44,0Z"/>
        </g>
        <g>
          <path class="cls-10" d="M55.34,61l1.44,2.49c.05.08.05.18,0,.26l-1.44,2.46c-.1.17-.34.17-.44,0l-1.44-2.46c-.05-.08-.05-.18,0-.26l1.44-2.49c.1-.17.34-.17.44,0Z"/>
          <path class="cls-7" d="M55.34,61l1.44,2.49c.05.08.05.18,0,.26l-1.44,2.46c-.1.17-.34.17-.44,0l-1.44-2.46c-.05-.08-.05-.18,0-.26l1.44-2.49c.1-.17.34-.17.44,0Z"/>
        </g>
        <g>
          <path class="cls-10" d="M57.96,65.54l1.44,2.49c.05.08.05.18,0,.26l-1.44,2.46c-.1.17-.34.17-.44,0l-1.44-2.46c-.05-.08-.05-.18,0-.26l1.44-2.49c.1-.17.34-.17.44,0Z"/>
          <path class="cls-7" d="M57.96,65.54l1.44,2.49c.05.08.05.18,0,.26l-1.44,2.46c-.1.17-.34.17-.44,0l-1.44-2.46c-.05-.08-.05-.18,0-.26l1.44-2.49c.1-.17.34-.17.44,0Z"/>
        </g>
        <g>
          <path class="cls-10" d="M60.57,70.07l1.44,2.49c.05.08.05.18,0,.26l-1.44,2.46c-.1.17-.34.17-.44,0l-1.44-2.46c-.05-.08-.05-.18,0-.26l1.44-2.49c.1-.17.34-.17.44,0Z"/>
          <path class="cls-7" d="M60.57,70.07l1.44,2.49c.05.08.05.18,0,.26l-1.44,2.46c-.1.17-.34.17-.44,0l-1.44-2.46c-.05-.08-.05-.18,0-.26l1.44-2.49c.1-.17.34-.17.44,0Z"/>
        </g>
        <g>
          <path class="cls-10" d="M63.19,74.6l1.44,2.49c.05.08.05.18,0,.26l-1.44,2.46c-.1.17-.34.17-.44,0l-1.44-2.46c-.05-.08-.05-.18,0-.26l1.44-2.49c.1-.17.34-.17.44,0Z"/>
          <path class="cls-7" d="M63.19,74.6l1.44,2.49c.05.08.05.18,0,.26l-1.44,2.46c-.1.17-.34.17-.44,0l-1.44-2.46c-.05-.08-.05-.18,0-.26l1.44-2.49c.1-.17.34-.17.44,0Z"/>
        </g>
        <g>
          <path class="cls-10" d="M65.81,79.14l1.44,2.49c.05.08.05.18,0,.26l-1.44,2.46c-.1.17-.34.17-.44,0l-1.44-2.46c-.05-.08-.05-.18,0-.26l1.44-2.49c.1-.17.34-.17.44,0Z"/>
          <path class="cls-7" d="M65.81,79.14l1.44,2.49c.05.08.05.18,0,.26l-1.44,2.46c-.1.17-.34.17-.44,0l-1.44-2.46c-.05-.08-.05-.18,0-.26l1.44-2.49c.1-.17.34-.17.44,0Z"/>
        </g>
        <g>
          <path class="cls-10" d="M68.43,83.67l1.44,2.49c.05.08.05.18,0,.26l-1.44,2.46c-.1.17-.34.17-.44,0l-1.44-2.46c-.05-.08-.05-.18,0-.26l1.44-2.49c.1-.17.34-.17.44,0Z"/>
          <path class="cls-7" d="M68.43,83.67l1.44,2.49c.05.08.05.18,0,.26l-1.44,2.46c-.1.17-.34.17-.44,0l-1.44-2.46c-.05-.08-.05-.18,0-.26l1.44-2.49c.1-.17.34-.17.44,0Z"/>
        </g>
        <g>
          <path class="cls-10" d="M50.1,61l1.44,2.49c.05.08.05.18,0,.26l-1.44,2.46c-.1.17-.34.17-.44,0l-1.44-2.46c-.05-.08-.05-.18,0-.26l1.44-2.49c.1-.17.34-.17.44,0Z"/>
          <path class="cls-7" d="M50.1,61l1.44,2.49c.05.08.05.18,0,.26l-1.44,2.46c-.1.17-.34.17-.44,0l-1.44-2.46c-.05-.08-.05-.18,0-.26l1.44-2.49c.1-.17.34-.17.44,0Z"/>
        </g>
        <g>
          <path class="cls-10" d="M52.72,65.53l1.44,2.49c.05.08.05.18,0,.26l-1.44,2.46c-.1.17-.34.17-.44,0l-1.44-2.46c-.05-.08-.05-.18,0-.26l1.44-2.49c.1-.17.34-.17.44,0Z"/>
          <path class="cls-7" d="M52.72,65.53l1.44,2.49c.05.08.05.18,0,.26l-1.44,2.46c-.1.17-.34.17-.44,0l-1.44-2.46c-.05-.08-.05-.18,0-.26l1.44-2.49c.1-.17.34-.17.44,0Z"/>
        </g>
        <g>
          <path class="cls-10" d="M55.34,70.07l1.44,2.49c.05.08.05.18,0,.26l-1.44,2.46c-.1.17-.34.17-.44,0l-1.44-2.46c-.05-.08-.05-.18,0-.26l1.44-2.49c.1-.17.34-.17.44,0Z"/>
          <path class="cls-7" d="M55.34,70.07l1.44,2.49c.05.08.05.18,0,.26l-1.44,2.46c-.1.17-.34.17-.44,0l-1.44-2.46c-.05-.08-.05-.18,0-.26l1.44-2.49c.1-.17.34-.17.44,0Z"/>
        </g>
        <g>
          <path class="cls-10" d="M57.96,74.6l1.44,2.49c.05.08.05.18,0,.26l-1.44,2.46c-.1.17-.34.17-.44,0l-1.44-2.46c-.05-.08-.05-.18,0-.26l1.44-2.49c.1-.17.34-.17.44,0Z"/>
          <path class="cls-7" d="M57.96,74.6l1.44,2.49c.05.08.05.18,0,.26l-1.44,2.46c-.1.17-.34.17-.44,0l-1.44-2.46c-.05-.08-.05-.18,0-.26l1.44-2.49c.1-.17.34-.17.44,0Z"/>
        </g>
        <g>
          <path class="cls-10" d="M60.57,79.14l1.44,2.49c.05.08.05.18,0,.26l-1.44,2.46c-.1.17-.34.17-.44,0l-1.44-2.46c-.05-.08-.05-.18,0-.26l1.44-2.49c.1-.17.34-.17.44,0Z"/>
          <path class="cls-7" d="M60.57,79.14l1.44,2.49c.05.08.05.18,0,.26l-1.44,2.46c-.1.17-.34.17-.44,0l-1.44-2.46c-.05-.08-.05-.18,0-.26l1.44-2.49c.1-.17.34-.17.44,0Z"/>
        </g>
        <g>
          <path class="cls-10" d="M63.19,83.67l1.44,2.49c.05.08.05.18,0,.26l-1.44,2.46c-.1.17-.34.17-.44,0l-1.44-2.46c-.05-.08-.05-.18,0-.26l1.44-2.49c.1-.17.34-.17.44,0Z"/>
          <path class="cls-7" d="M63.19,83.67l1.44,2.49c.05.08.05.18,0,.26l-1.44,2.46c-.1.17-.34.17-.44,0l-1.44-2.46c-.05-.08-.05-.18,0-.26l1.44-2.49c.1-.17.34-.17.44,0Z"/>
        </g>
        <g>
          <path class="cls-10" d="M65.81,88.2l1.44,2.49c.05.08.05.18,0,.26l-1.44,2.46c-.1.17-.34.17-.44,0l-1.44-2.46c-.05-.08-.05-.18,0-.26l1.44-2.49c.1-.17.34-.17.44,0Z"/>
          <path class="cls-7" d="M65.81,88.2l1.44,2.49c.05.08.05.18,0,.26l-1.44,2.46c-.1.17-.34.17-.44,0l-1.44-2.46c-.05-.08-.05-.18,0-.26l1.44-2.49c.1-.17.34-.17.44,0Z"/>
        </g>
        <g>
          <path class="cls-10" d="M47.49,65.53l1.44,2.49c.05.08.05.18,0,.26l-1.44,2.46c-.1.17-.34.17-.44,0l-1.44-2.46c-.05-.08-.05-.18,0-.26l1.44-2.49c.1-.17.34-.17.44,0Z"/>
          <path class="cls-7" d="M47.49,65.53l1.44,2.49c.05.08.05.18,0,.26l-1.44,2.46c-.1.17-.34.17-.44,0l-1.44-2.46c-.05-.08-.05-.18,0-.26l1.44-2.49c.1-.17.34-.17.44,0Z"/>
        </g>
        <g>
          <path class="cls-10" d="M50.1,70.07l1.44,2.49c.05.08.05.18,0,.26l-1.44,2.46c-.1.17-.34.17-.44,0l-1.44-2.46c-.05-.08-.05-.18,0-.26l1.44-2.49c.1-.17.34-.17.44,0Z"/>
          <path class="cls-7" d="M50.1,70.07l1.44,2.49c.05.08.05.18,0,.26l-1.44,2.46c-.1.17-.34.17-.44,0l-1.44-2.46c-.05-.08-.05-.18,0-.26l1.44-2.49c.1-.17.34-.17.44,0Z"/>
        </g>
        <g>
          <path class="cls-10" d="M52.72,74.6l1.44,2.49c.05.08.05.18,0,.26l-1.44,2.46c-.1.17-.34.17-.44,0l-1.44-2.46c-.05-.08-.05-.18,0-.26l1.44-2.49c.1-.17.34-.17.44,0Z"/>
          <path class="cls-7" d="M52.72,74.6l1.44,2.49c.05.08.05.18,0,.26l-1.44,2.46c-.1.17-.34.17-.44,0l-1.44-2.46c-.05-.08-.05-.18,0-.26l1.44-2.49c.1-.17.34-.17.44,0Z"/>
        </g>
        <g>
          <path class="cls-10" d="M55.34,79.13l1.44,2.49c.05.08.05.18,0,.26l-1.44,2.46c-.1.17-.34.17-.44,0l-1.44-2.46c-.05-.08-.05-.18,0-.26l1.44-2.49c.1-.17.34-.17.44,0Z"/>
          <path class="cls-7" d="M55.34,79.13l1.44,2.49c.05.08.05.18,0,.26l-1.44,2.46c-.1.17-.34.17-.44,0l-1.44-2.46c-.05-.08-.05-.18,0-.26l1.44-2.49c.1-.17.34-.17.44,0Z"/>
        </g>
        <g>
          <path class="cls-10" d="M57.96,83.67l1.44,2.49c.05.08.05.18,0,.26l-1.44,2.46c-.1.17-.34.17-.44,0l-1.44-2.46c-.05-.08-.05-.18,0-.26l1.44-2.49c.1-.17.34-.17.44,0Z"/>
          <path class="cls-7" d="M57.96,83.67l1.44,2.49c.05.08.05.18,0,.26l-1.44,2.46c-.1.17-.34.17-.44,0l-1.44-2.46c-.05-.08-.05-.18,0-.26l1.44-2.49c.1-.17.34-.17.44,0Z"/>
        </g>
        <g>
          <path class="cls-10" d="M60.57,88.2l1.44,2.49c.05.08.05.18,0,.26l-1.44,2.46c-.1.17-.34.17-.44,0l-1.44-2.46c-.05-.08-.05-.18,0-.26l1.44-2.49c.1-.17.34-.17.44,0Z"/>
          <path class="cls-7" d="M60.57,88.2l1.44,2.49c.05.08.05.18,0,.26l-1.44,2.46c-.1.17-.34.17-.44,0l-1.44-2.46c-.05-.08-.05-.18,0-.26l1.44-2.49c.1-.17.34-.17.44,0Z"/>
        </g>
        <g>
          <path class="cls-10" d="M44.87,70.07l1.44,2.49c.05.08.05.18,0,.26l-1.44,2.46c-.1.17-.34.17-.44,0l-1.44-2.46c-.05-.08-.05-.18,0-.26l1.44-2.49c.1-.17.34-.17.44,0Z"/>
          <path class="cls-7" d="M44.87,70.07l1.44,2.49c.05.08.05.18,0,.26l-1.44,2.46c-.1.17-.34.17-.44,0l-1.44-2.46c-.05-.08-.05-.18,0-.26l1.44-2.49c.1-.17.34-.17.44,0Z"/>
        </g>
        <g>
          <path class="cls-10" d="M47.49,74.6l1.44,2.49c.05.08.05.18,0,.26l-1.44,2.46c-.1.17-.34.17-.44,0l-1.44-2.46c-.05-.08-.05-.18,0-.26l1.44-2.49c.1-.17.34-.17.44,0Z"/>
          <path class="cls-7" d="M47.49,74.6l1.44,2.49c.05.08.05.18,0,.26l-1.44,2.46c-.1.17-.34.17-.44,0l-1.44-2.46c-.05-.08-.05-.18,0-.26l1.44-2.49c.1-.17.34-.17.44,0Z"/>
        </g>
        <g>
          <path class="cls-10" d="M50.1,79.13l1.44,2.49c.05.08.05.18,0,.26l-1.44,2.46c-.1.17-.34.17-.44,0l-1.44-2.46c-.05-.08-.05-.18,0-.26l1.44-2.49c.1-.17.34-.17.44,0Z"/>
          <path class="cls-7" d="M50.1,79.13l1.44,2.49c.05.08.05.18,0,.26l-1.44,2.46c-.1.17-.34.17-.44,0l-1.44-2.46c-.05-.08-.05-.18,0-.26l1.44-2.49c.1-.17.34-.17.44,0Z"/>
        </g>
        <g>
          <path class="cls-10" d="M52.72,83.67l1.44,2.49c.05.08.05.18,0,.26l-1.44,2.46c-.1.17-.34.17-.44,0l-1.44-2.46c-.05-.08-.05-.18,0-.26l1.44-2.49c.1-.17.34-.17.44,0Z"/>
          <path class="cls-7" d="M52.72,83.67l1.44,2.49c.05.08.05.18,0,.26l-1.44,2.46c-.1.17-.34.17-.44,0l-1.44-2.46c-.05-.08-.05-.18,0-.26l1.44-2.49c.1-.17.34-.17.44,0Z"/>
        </g>
        <g>
          <path class="cls-10" d="M42.25,74.6l1.44,2.49c.05.08.05.18,0,.26l-1.44,2.46c-.1.17-.34.17-.44,0l-1.44-2.46c-.05-.08-.05-.18,0-.26l1.44-2.49c.1-.17.34-.17.44,0Z"/>
          <path class="cls-7" d="M42.25,74.6l1.44,2.49c.05.08.05.18,0,.26l-1.44,2.46c-.1.17-.34.17-.44,0l-1.44-2.46c-.05-.08-.05-.18,0-.26l1.44-2.49c.1-.17.34-.17.44,0Z"/>
        </g>
        <g>
          <path class="cls-10" d="M44.87,79.13l1.44,2.49c.05.08.05.18,0,.26l-1.44,2.46c-.1.17-.34.17-.44,0l-1.44-2.46c-.05-.08-.05-.18,0-.26l1.44-2.49c.1-.17.34-.17.44,0Z"/>
          <path class="cls-7" d="M44.87,79.13l1.44,2.49c.05.08.05.18,0,.26l-1.44,2.46c-.1.17-.34.17-.44,0l-1.44-2.46c-.05-.08-.05-.18,0-.26l1.44-2.49c.1-.17.34-.17.44,0Z"/>
        </g>
        <g>
          <path class="cls-10" d="M47.49,83.67l1.44,2.49c.05.08.05.18,0,.26l-1.44,2.46c-.1.17-.34.17-.44,0l-1.44-2.46c-.05-.08-.05-.18,0-.26l1.44-2.49c.1-.17.34-.17.44,0Z"/>
          <path class="cls-7" d="M47.49,83.67l1.44,2.49c.05.08.05.18,0,.26l-1.44,2.46c-.1.17-.34.17-.44,0l-1.44-2.46c-.05-.08-.05-.18,0-.26l1.44-2.49c.1-.17.34-.17.44,0Z"/>
        </g>
        <g>
          <path class="cls-10" d="M50.1,88.2l1.7,2.95c.05.08.05.18,0,.25-.51.91-1.02,1.69-1.53,2.35-.11.14-.33.13-.42-.03-.41-.7-1.35-2.32-1.63-2.79-.05-.08-.05-.18,0-.26l1.44-2.49c.1-.17.34-.17.44,0Z"/>
          <path class="cls-7" d="M50.1,88.2l1.7,2.95c.05.08.05.18,0,.25-.51.91-1.02,1.69-1.53,2.35-.11.14-.33.13-.42-.03-.41-.7-1.35-2.32-1.63-2.79-.05-.08-.05-.18,0-.26l1.44-2.49c.1-.17.34-.17.44,0Z"/>
        </g>
        <g>
          <path class="cls-10" d="M39.63,79.13l1.44,2.49c.05.08.05.18,0,.26l-1.44,2.46c-.1.17-.34.17-.44,0l-1.44-2.46c-.05-.08-.05-.18,0-.26l1.44-2.49c.1-.17.34-.17.44,0Z"/>
          <path class="cls-7" d="M39.63,79.13l1.44,2.49c.05.08.05.18,0,.26l-1.44,2.46c-.1.17-.34.17-.44,0l-1.44-2.46c-.05-.08-.05-.18,0-.26l1.44-2.49c.1-.17.34-.17.44,0Z"/>
        </g>
        <g>
          <path class="cls-10" d="M42.25,83.67l1.44,2.49c.05.08.05.18,0,.26l-1.44,2.46c-.1.17-.34.17-.44,0l-1.44-2.46c-.05-.08-.05-.18,0-.26l1.44-2.49c.1-.17.34-.17.44,0Z"/>
          <path class="cls-7" d="M42.25,83.67l1.44,2.49c.05.08.05.18,0,.26l-1.44,2.46c-.1.17-.34.17-.44,0l-1.44-2.46c-.05-.08-.05-.18,0-.26l1.44-2.49c.1-.17.34-.17.44,0Z"/>
        </g>
        <g>
          <path class="cls-10" d="M44.87,88.2l1.44,2.49c.05.08.05.18,0,.26l-1.44,2.46c-.1.17-.34.17-.44,0l-1.44-2.46c-.05-.08-.05-.18,0-.26l1.44-2.49c.1-.17.34-.17.44,0Z"/>
          <path class="cls-7" d="M44.87,88.2l1.44,2.49c.05.08.05.18,0,.26l-1.44,2.46c-.1.17-.34.17-.44,0l-1.44-2.46c-.05-.08-.05-.18,0-.26l1.44-2.49c.1-.17.34-.17.44,0Z"/>
        </g>
        <g>
          <path class="cls-10" d="M47.49,92.73l1.26,2.19c.06.11.04.26-.06.33-.67.5-1.43.89-2.28,1.18-.11.04-.24-.01-.3-.12l-.49-.84c-.05-.08-.05-.18,0-.26l1.44-2.49c.1-.17.34-.17.44,0Z"/>
          <path class="cls-7" d="M47.49,92.73l1.26,2.19c.06.11.04.26-.06.33-.67.5-1.43.89-2.28,1.18-.11.04-.24-.01-.3-.12l-.49-.84c-.05-.08-.05-.18,0-.26l1.44-2.49c.1-.17.34-.17.44,0Z"/>
        </g>
        <g>
          <path class="cls-10" d="M37.02,83.67l1.44,2.49c.05.08.05.18,0,.26l-1.44,2.46c-.1.17-.34.17-.44,0l-1.44-2.46c-.05-.08-.05-.18,0-.26l1.44-2.49c.1-.17.34-.17.44,0Z"/>
          <path class="cls-7" d="M37.02,83.67l1.44,2.49c.05.08.05.18,0,.26l-1.44,2.46c-.1.17-.34.17-.44,0l-1.44-2.46c-.05-.08-.05-.18,0-.26l1.44-2.49c.1-.17.34-.17.44,0Z"/>
        </g>
        <g>
          <path class="cls-10" d="M39.63,88.2l1.44,2.49c.05.08.05.18,0,.26l-1.44,2.46c-.1.17-.34.17-.44,0l-1.44-2.46c-.05-.08-.05-.18,0-.26l1.44-2.49c.1-.17.34-.17.44,0Z"/>
          <path class="cls-7" d="M39.63,88.2l1.44,2.49c.05.08.05.18,0,.26l-1.44,2.46c-.1.17-.34.17-.44,0l-1.44-2.46c-.05-.08-.05-.18,0-.26l1.44-2.49c.1-.17.34-.17.44,0Z"/>
        </g>
        <g>
          <path class="cls-10" d="M42.25,92.73l1.44,2.49c.05.08.05.18,0,.26l-.75,1.29c-.05.09-.15.14-.24.13-.55-.05-1.08-.13-1.56-.27-.06-.02-.12-.06-.15-.12-.13-.22-.45-.78-.6-1.03-.05-.08-.05-.18,0-.26l1.44-2.49c.1-.17.34-.17.44,0Z"/>
          <path class="cls-7" d="M42.25,92.73l1.44,2.49c.05.08.05.18,0,.26l-.75,1.29c-.05.09-.15.14-.24.13-.55-.05-1.08-.13-1.56-.27-.06-.02-.12-.06-.15-.12-.13-.22-.45-.78-.6-1.03-.05-.08-.05-.18,0-.26l1.44-2.49c.1-.17.34-.17.44,0Z"/>
        </g>
        <g>
          <path class="cls-10" d="M35.29,91.87s-.7-.96-.9-2.9c-.03-.28.35-.39.48-.14l.96,1.87c.04.08.04.17,0,.25l-.54.93"/>
          <path class="cls-7" d="M35.29,91.87s-.7-.96-.9-2.9c-.03-.28.35-.39.48-.14l.96,1.87c.04.08.04.17,0,.25l-.54.93"/>
        </g>
        <g>
          <path class="cls-10" d="M37.02,92.73l1.04,1.81c.14.25-.16.51-.38.33-.48-.39-.93-.84-1.35-1.38-.06-.08-.07-.2-.02-.29l.24-.42c.12-.22.37-.22.47-.05Z"/>
          <path class="cls-7" d="M37.02,92.73l1.04,1.81c.14.25-.16.51-.38.33-.48-.39-.93-.84-1.35-1.38-.06-.08-.07-.2-.02-.29l.24-.42c.12-.22.37-.22.47-.05Z"/>
        </g>
        <g>
          <path class="cls-10" d="M54.9,88.2l-1.7,2.95c-.05.08-.05.18,0,.25.51.91,1.02,1.69,1.53,2.35.11.14.33.13.42-.03l1.63-2.79c.05-.08.05-.18,0-.26l-1.44-2.49c-.1-.17-.34-.17-.44,0Z"/>
          <path class="cls-7" d="M54.9,88.2l-1.7,2.95c-.05.08-.05.18,0,.25.51.91,1.02,1.69,1.53,2.35.11.14.33.13.42-.03l1.63-2.79c.05-.08.05-.18,0-.26l-1.44-2.49c-.1-.17-.34-.17-.44,0Z"/>
        </g>
        <g>
          <path class="cls-10" d="M57.51,92.73l-1.26,2.19c-.06.11-.04.26.06.33.67.5,1.43.89,2.28,1.18.11.04.24-.01.3-.12l.49-.84c.05-.08.05-.18,0-.26l-1.44-2.49c-.1-.17-.34-.17-.44,0Z"/>
          <path class="cls-7" d="M57.51,92.73l-1.26,2.19c-.06.11-.04.26.06.33.67.5,1.43.89,2.28,1.18.11.04.24-.01.3-.12l.49-.84c.05-.08.05-.18,0-.26l-1.44-2.49c-.1-.17-.34-.17-.44,0Z"/>
        </g>
        <g>
          <path class="cls-10" d="M62.75,92.73l-1.44,2.49c-.05.08-.05.18,0,.26l.75,1.29c.05.09.15.14.24.13.55-.05,1.08-.13,1.56-.27.06-.02.12-.06.15-.12.13-.22.45-.78.6-1.03.05-.08.05-.18,0-.26l-1.44-2.49c-.1-.17-.34-.17-.44,0Z"/>
          <path class="cls-7" d="M62.75,92.73l-1.44,2.49c-.05.08-.05.18,0,.26l.75,1.29c.05.09.15.14.24.13.55-.05,1.08-.13,1.56-.27.06-.02.12-.06.15-.12.13-.22.45-.78.6-1.03.05-.08.05-.18,0-.26l-1.44-2.49c-.1-.17-.34-.17-.44,0Z"/>
        </g>
        <g>
          <path class="cls-10" d="M69.71,91.87s.7-.96.9-2.9c.03-.28-.35-.39-.48-.14l-.96,1.87c-.04.08-.04.17,0,.25l.54.93"/>
          <path class="cls-7" d="M69.71,91.87s.7-.96.9-2.9c.03-.28-.35-.39-.48-.14l-.96,1.87c-.04.08-.04.17,0,.25l.54.93"/>
        </g>
        <g>
          <path class="cls-10" d="M67.98,92.73l-1.04,1.81c-.14.25.16.51.38.33.48-.39.93-.84,1.35-1.38.06-.08.07-.2.02-.29l-.24-.42c-.12-.22-.37-.22-.47-.05Z"/>
          <path class="cls-7" d="M67.98,92.73l-1.04,1.81c-.14.25.16.51.38.33.48-.39.93-.84,1.35-1.38.06-.08.07-.2.02-.29l-.24-.42c-.12-.22-.37-.22-.47-.05Z"/>
        </g>
        <g>
          <path class="cls-10" d="M48.09,49.21h-2.87c-.09,0-.18-.05-.22-.13l-1.41-2.47c-.1-.17.03-.38.22-.38h2.85c.09-.01.18.04.22.11l1.44,2.49c.1.17-.02.38-.22.38Z"/>
          <path class="cls-7" d="M48.09,49.21h-2.87c-.09,0-.18-.05-.22-.13l-1.41-2.47c-.1-.17.03-.38.22-.38h2.85c.09-.01.18.04.22.11l1.44,2.49c.1.17-.02.38-.22.38Z"/>
        </g>
        <g>
          <path class="cls-10" d="M42.85,49.21h-2.87c-.09,0-.18-.05-.22-.13l-1.41-2.47c-.1-.17.03-.38.22-.38h2.85c.09-.01.18.04.22.11l1.44,2.49c.1.17-.02.38-.22.38Z"/>
          <path class="cls-7" d="M42.85,49.21h-2.87c-.09,0-.18-.05-.22-.13l-1.41-2.47c-.1-.17.03-.38.22-.38h2.85c.09-.01.18.04.22.11l1.44,2.49c.1.17-.02.38-.22.38Z"/>
        </g>
        <g>
          <path class="cls-10" d="M37.62,49.21h-2.87c-.09,0-.18-.05-.22-.13l-1.41-2.47c-.1-.17.03-.38.22-.38h2.85c.09-.01.18.04.22.11l1.44,2.49c.1.17-.02.38-.22.38Z"/>
          <path class="cls-7" d="M37.62,49.21h-2.87c-.09,0-.18-.05-.22-.13l-1.41-2.47c-.1-.17.03-.38.22-.38h2.85c.09-.01.18.04.22.11l1.44,2.49c.1.17-.02.38-.22.38Z"/>
        </g>
        <g>
          <path class="cls-10" d="M32.38,49.21h-2.87c-.09,0-.18-.05-.22-.13l-1.41-2.47c-.1-.17.03-.38.22-.38h2.85c.09-.01.18.04.22.11l1.44,2.49c.1.17-.02.38-.22.38Z"/>
          <path class="cls-7" d="M32.38,49.21h-2.87c-.09,0-.18-.05-.22-.13l-1.41-2.47c-.1-.17.03-.38.22-.38h2.85c.09-.01.18.04.22.11l1.44,2.49c.1.17-.02.38-.22.38Z"/>
        </g>
        <g>
          <path class="cls-10" d="M27.15,49.21h-2.87c-.09,0-.18-.05-.22-.13l-1.41-2.47c-.1-.17.03-.38.22-.38h2.85c.09-.01.18.04.22.11l1.44,2.49c.1.17-.02.38-.22.38Z"/>
          <path class="cls-7" d="M27.15,49.21h-2.87c-.09,0-.18-.05-.22-.13l-1.41-2.47c-.1-.17.03-.38.22-.38h2.85c.09-.01.18.04.22.11l1.44,2.49c.1.17-.02.38-.22.38Z"/>
        </g>
        <g>
          <path class="cls-10" d="M21.91,49.21h-2.87c-.09,0-.18-.05-.22-.13l-1.41-2.47c-.1-.17.03-.38.22-.38h2.85c.09-.01.18.04.22.11l1.44,2.49c.1.17-.02.38-.22.38Z"/>
          <path class="cls-7" d="M21.91,49.21h-2.87c-.09,0-.18-.05-.22-.13l-1.41-2.47c-.1-.17.03-.38.22-.38h2.85c.09-.01.18.04.22.11l1.44,2.49c.1.17-.02.38-.22.38Z"/>
        </g>
        <g>
          <path class="cls-10" d="M16.68,49.21h-2.87c-.09,0-.18-.05-.22-.13l-1.41-2.47c-.1-.17.03-.38.22-.38h2.85c.09-.01.18.04.22.11l1.44,2.49c.1.17-.02.38-.22.38Z"/>
          <path class="cls-7" d="M16.68,49.21h-2.87c-.09,0-.18-.05-.22-.13l-1.41-2.47c-.1-.17.03-.38.22-.38h2.85c.09-.01.18.04.22.11l1.44,2.49c.1.17-.02.38-.22.38Z"/>
        </g>
        <g>
          <path class="cls-10" d="M45.47,44.67h-2.87c-.09,0-.18-.05-.22-.13l-1.41-2.47c-.1-.17.03-.38.22-.38h2.85c.09-.01.18.04.22.11l1.44,2.49c.1.17-.02.38-.22.38Z"/>
          <path class="cls-7" d="M45.47,44.67h-2.87c-.09,0-.18-.05-.22-.13l-1.41-2.47c-.1-.17.03-.38.22-.38h2.85c.09-.01.18.04.22.11l1.44,2.49c.1.17-.02.38-.22.38Z"/>
        </g>
        <g>
          <path class="cls-10" d="M40.23,44.67h-2.87c-.09,0-.18-.05-.22-.13l-1.41-2.47c-.1-.17.03-.38.22-.38h2.85c.09-.01.18.04.22.11l1.44,2.49c.1.17-.02.38-.22.38Z"/>
          <path class="cls-7" d="M40.23,44.67h-2.87c-.09,0-.18-.05-.22-.13l-1.41-2.47c-.1-.17.03-.38.22-.38h2.85c.09-.01.18.04.22.11l1.44,2.49c.1.17-.02.38-.22.38Z"/>
        </g>
        <g>
          <path class="cls-10" d="M35,44.67h-2.87c-.09,0-.18-.05-.22-.13l-1.41-2.47c-.1-.17.03-.38.22-.38h2.85c.09-.01.18.04.22.11l1.44,2.49c.1.17-.02.38-.22.38Z"/>
          <path class="cls-7" d="M35,44.67h-2.87c-.09,0-.18-.05-.22-.13l-1.41-2.47c-.1-.17.03-.38.22-.38h2.85c.09-.01.18.04.22.11l1.44,2.49c.1.17-.02.38-.22.38Z"/>
        </g>
        <g>
          <path class="cls-10" d="M29.77,44.67h-2.87c-.09,0-.18-.05-.22-.13l-1.41-2.47c-.1-.17.03-.38.22-.38h2.85c.09-.01.18.04.22.11l1.44,2.49c.1.17-.02.38-.22.38Z"/>
          <path class="cls-7" d="M29.77,44.67h-2.87c-.09,0-.18-.05-.22-.13l-1.41-2.47c-.1-.17.03-.38.22-.38h2.85c.09-.01.18.04.22.11l1.44,2.49c.1.17-.02.38-.22.38Z"/>
        </g>
        <g>
          <path class="cls-10" d="M24.53,44.67h-2.87c-.09,0-.18-.05-.22-.13l-1.41-2.47c-.1-.17.03-.38.22-.38h2.85c.09-.01.18.04.22.11l1.44,2.49c.1.17-.02.38-.22.38Z"/>
          <path class="cls-7" d="M24.53,44.67h-2.87c-.09,0-.18-.05-.22-.13l-1.41-2.47c-.1-.17.03-.38.22-.38h2.85c.09-.01.18.04.22.11l1.44,2.49c.1.17-.02.38-.22.38Z"/>
        </g>
        <g>
          <path class="cls-10" d="M19.3,44.67h-2.87c-.09,0-.18-.05-.22-.13l-1.41-2.47c-.1-.17.03-.38.22-.38h2.85c.09-.01.18.04.22.11l1.44,2.49c.1.17-.02.38-.22.38Z"/>
          <path class="cls-7" d="M19.3,44.67h-2.87c-.09,0-.18-.05-.22-.13l-1.41-2.47c-.1-.17.03-.38.22-.38h2.85c.09-.01.18.04.22.11l1.44,2.49c.1.17-.02.38-.22.38Z"/>
        </g>
        <g>
          <path class="cls-10" d="M14.06,44.67h-2.87c-.09,0-.18-.05-.22-.13l-1.41-2.47c-.1-.17.03-.38.22-.38h2.85c.09-.01.18.04.22.11l1.44,2.49c.1.17-.02.38-.22.38Z"/>
          <path class="cls-7" d="M14.06,44.67h-2.87c-.09,0-.18-.05-.22-.13l-1.41-2.47c-.1-.17.03-.38.22-.38h2.85c.09-.01.18.04.22.11l1.44,2.49c.1.17-.02.38-.22.38Z"/>
        </g>
        <g>
          <path class="cls-10" d="M42.85,40.14h-2.87c-.09,0-.18-.05-.22-.13l-1.41-2.47c-.1-.17.03-.38.22-.38h2.85c.09-.01.18.04.22.11l1.44,2.49c.1.17-.02.38-.22.38Z"/>
          <path class="cls-7" d="M42.85,40.14h-2.87c-.09,0-.18-.05-.22-.13l-1.41-2.47c-.1-.17.03-.38.22-.38h2.85c.09-.01.18.04.22.11l1.44,2.49c.1.17-.02.38-.22.38Z"/>
        </g>
        <g>
          <path class="cls-10" d="M37.62,40.14h-2.87c-.09,0-.18-.05-.22-.13l-1.41-2.47c-.1-.17.03-.38.22-.38h2.85c.09-.01.18.04.22.11l1.44,2.49c.1.17-.02.38-.22.38Z"/>
          <path class="cls-7" d="M37.62,40.14h-2.87c-.09,0-.18-.05-.22-.13l-1.41-2.47c-.1-.17.03-.38.22-.38h2.85c.09-.01.18.04.22.11l1.44,2.49c.1.17-.02.38-.22.38Z"/>
        </g>
        <g>
          <path class="cls-10" d="M32.38,40.14h-2.87c-.09,0-.18-.05-.22-.13l-1.41-2.47c-.1-.17.03-.38.22-.38h2.85c.09-.01.18.04.22.11l1.44,2.49c.1.17-.02.38-.22.38Z"/>
          <path class="cls-7" d="M32.38,40.14h-2.87c-.09,0-.18-.05-.22-.13l-1.41-2.47c-.1-.17.03-.38.22-.38h2.85c.09-.01.18.04.22.11l1.44,2.49c.1.17-.02.38-.22.38Z"/>
        </g>
        <g>
          <path class="cls-10" d="M27.15,40.14h-2.87c-.09,0-.18-.05-.22-.13l-1.41-2.47c-.1-.17.03-.38.22-.38h2.85c.09-.01.18.04.22.11l1.44,2.49c.1.17-.02.38-.22.38Z"/>
          <path class="cls-7" d="M27.15,40.14h-2.87c-.09,0-.18-.05-.22-.13l-1.41-2.47c-.1-.17.03-.38.22-.38h2.85c.09-.01.18.04.22.11l1.44,2.49c.1.17-.02.38-.22.38Z"/>
        </g>
        <g>
          <path class="cls-10" d="M21.91,40.14h-2.87c-.09,0-.18-.05-.22-.13l-1.41-2.47c-.1-.17.03-.38.22-.38h2.85c.09-.01.18.04.22.11l1.44,2.49c.1.17-.02.38-.22.38Z"/>
          <path class="cls-7" d="M21.91,40.14h-2.87c-.09,0-.18-.05-.22-.13l-1.41-2.47c-.1-.17.03-.38.22-.38h2.85c.09-.01.18.04.22.11l1.44,2.49c.1.17-.02.38-.22.38Z"/>
        </g>
        <g>
          <path class="cls-10" d="M16.68,40.14h-2.87c-.09,0-.18-.05-.22-.13l-1.41-2.47c-.1-.17.03-.38.22-.38h2.85c.09-.01.18.04.22.11l1.44,2.49c.1.17-.02.38-.22.38Z"/>
          <path class="cls-7" d="M16.68,40.14h-2.87c-.09,0-.18-.05-.22-.13l-1.41-2.47c-.1-.17.03-.38.22-.38h2.85c.09-.01.18.04.22.11l1.44,2.49c.1.17-.02.38-.22.38Z"/>
        </g>
        <g>
          <path class="cls-10" d="M40.24,35.61h-2.87c-.09,0-.18-.05-.22-.13l-1.41-2.47c-.1-.17.03-.38.22-.38h2.85c.09-.01.18.04.22.11l1.44,2.49c.1.17-.02.38-.22.38Z"/>
          <path class="cls-7" d="M40.24,35.61h-2.87c-.09,0-.18-.05-.22-.13l-1.41-2.47c-.1-.17.03-.38.22-.38h2.85c.09-.01.18.04.22.11l1.44,2.49c.1.17-.02.38-.22.38Z"/>
        </g>
        <g>
          <path class="cls-10" d="M35,35.61h-2.87c-.09,0-.18-.05-.22-.13l-1.41-2.47c-.1-.17.03-.38.22-.38h2.85c.09-.01.18.04.22.11l1.44,2.49c.1.17-.02.38-.22.38Z"/>
          <path class="cls-7" d="M35,35.61h-2.87c-.09,0-.18-.05-.22-.13l-1.41-2.47c-.1-.17.03-.38.22-.38h2.85c.09-.01.18.04.22.11l1.44,2.49c.1.17-.02.38-.22.38Z"/>
        </g>
        <g>
          <path class="cls-10" d="M29.77,35.61h-2.87c-.09,0-.18-.05-.22-.13l-1.41-2.47c-.1-.17.03-.38.22-.38h2.85c.09-.01.18.04.22.11l1.44,2.49c.1.17-.02.38-.22.38Z"/>
          <path class="cls-7" d="M29.77,35.61h-2.87c-.09,0-.18-.05-.22-.13l-1.41-2.47c-.1-.17.03-.38.22-.38h2.85c.09-.01.18.04.22.11l1.44,2.49c.1.17-.02.38-.22.38Z"/>
        </g>
        <g>
          <path class="cls-10" d="M24.53,35.61h-2.87c-.09,0-.18-.05-.22-.13l-1.41-2.47c-.1-.17.03-.38.22-.38h2.85c.09-.01.18.04.22.11l1.44,2.49c.1.17-.02.38-.22.38Z"/>
          <path class="cls-7" d="M24.53,35.61h-2.87c-.09,0-.18-.05-.22-.13l-1.41-2.47c-.1-.17.03-.38.22-.38h2.85c.09-.01.18.04.22.11l1.44,2.49c.1.17-.02.38-.22.38Z"/>
        </g>
        <g>
          <path class="cls-10" d="M37.62,31.07h-2.87c-.09,0-.18-.05-.22-.13l-1.41-2.47c-.1-.17.03-.38.22-.38h2.85c.09-.01.18.04.22.11l1.44,2.49c.1.17-.02.38-.22.38Z"/>
          <path class="cls-7" d="M37.62,31.07h-2.87c-.09,0-.18-.05-.22-.13l-1.41-2.47c-.1-.17.03-.38.22-.38h2.85c.09-.01.18.04.22.11l1.44,2.49c.1.17-.02.38-.22.38Z"/>
        </g>
        <g>
          <path class="cls-10" d="M32.38,31.07h-2.87c-.09,0-.18-.05-.22-.13l-1.41-2.47c-.1-.17.03-.38.22-.38h2.85c.09-.01.18.04.22.11l1.44,2.49c.1.17-.02.38-.22.38Z"/>
          <path class="cls-7" d="M32.38,31.07h-2.87c-.09,0-.18-.05-.22-.13l-1.41-2.47c-.1-.17.03-.38.22-.38h2.85c.09-.01.18.04.22.11l1.44,2.49c.1.17-.02.38-.22.38Z"/>
        </g>
        <g>
          <path class="cls-10" d="M27.15,31.07h-2.87c-.09,0-.18-.05-.22-.13l-1.41-2.47c-.1-.17.03-.38.22-.38h2.85c.09-.01.18.04.22.11l1.44,2.49c.1.17-.02.38-.22.38Z"/>
          <path class="cls-7" d="M27.15,31.07h-2.87c-.09,0-.18-.05-.22-.13l-1.41-2.47c-.1-.17.03-.38.22-.38h2.85c.09-.01.18.04.22.11l1.44,2.49c.1.17-.02.38-.22.38Z"/>
        </g>
        <g>
          <path class="cls-10" d="M21.91,31.07h-3.41c-.09,0-.18-.05-.22-.13-.54-.9-.96-1.73-1.27-2.5-.07-.17.05-.35.23-.35.81,0,2.69-.01,3.23-.01.09,0,.18.05.22.13l1.44,2.49c.1.17-.02.38-.22.38Z"/>
          <path class="cls-7" d="M21.91,31.07h-3.41c-.09,0-.18-.05-.22-.13-.54-.9-.96-1.73-1.27-2.5-.07-.17.05-.35.23-.35.81,0,2.69-.01,3.23-.01.09,0,.18.05.22.13l1.44,2.49c.1.17-.02.38-.22.38Z"/>
        </g>
        <g>
          <path class="cls-10" d="M35,26.54h-2.87c-.09,0-.18-.05-.22-.13l-1.41-2.47c-.1-.17.03-.38.22-.38h2.85c.09-.01.18.04.22.11l1.44,2.49c.1.17-.02.38-.22.38Z"/>
          <path class="cls-7" d="M35,26.54h-2.87c-.09,0-.18-.05-.22-.13l-1.41-2.47c-.1-.17.03-.38.22-.38h2.85c.09-.01.18.04.22.11l1.44,2.49c.1.17-.02.38-.22.38Z"/>
        </g>
        <g>
          <path class="cls-10" d="M29.77,26.54h-2.87c-.09,0-.18-.05-.22-.13l-1.41-2.47c-.1-.17.03-.38.22-.38h2.85c.09-.01.18.04.22.11l1.44,2.49c.1.17-.02.38-.22.38Z"/>
          <path class="cls-7" d="M29.77,26.54h-2.87c-.09,0-.18-.05-.22-.13l-1.41-2.47c-.1-.17.03-.38.22-.38h2.85c.09-.01.18.04.22.11l1.44,2.49c.1.17-.02.38-.22.38Z"/>
        </g>
        <g>
          <path class="cls-10" d="M24.53,26.54h-2.87c-.09,0-.18-.05-.22-.13l-1.41-2.47c-.1-.17.03-.38.22-.38h2.85c.09-.01.18.04.22.11l1.44,2.49c.1.17-.02.38-.22.38Z"/>
          <path class="cls-7" d="M24.53,26.54h-2.87c-.09,0-.18-.05-.22-.13l-1.41-2.47c-.1-.17.03-.38.22-.38h2.85c.09-.01.18.04.22.11l1.44,2.49c.1.17-.02.38-.22.38Z"/>
        </g>
        <g>
          <path class="cls-10" d="M19.3,26.54h-2.53c-.13,0-.24-.09-.26-.22-.1-.83-.06-1.69.12-2.56.02-.12.13-.2.25-.21h.97c.09,0,.18.04.22.12l1.44,2.49c.1.17-.02.38-.22.38Z"/>
          <path class="cls-7" d="M19.3,26.54h-2.53c-.13,0-.24-.09-.26-.22-.1-.83-.06-1.69.12-2.56.02-.12.13-.2.25-.21h.97c.09,0,.18.04.22.12l1.44,2.49c.1.17-.02.38-.22.38Z"/>
        </g>
        <g>
          <path class="cls-10" d="M32.38,22.01h-2.87c-.09,0-.18-.05-.22-.13l-1.41-2.47c-.1-.17.03-.38.22-.38h2.85c.09-.01.18.04.22.11l1.44,2.49c.1.17-.02.38-.22.38Z"/>
          <path class="cls-7" d="M32.38,22.01h-2.87c-.09,0-.18-.05-.22-.13l-1.41-2.47c-.1-.17.03-.38.22-.38h2.85c.09-.01.18.04.22.11l1.44,2.49c.1.17-.02.38-.22.38Z"/>
        </g>
        <g>
          <path class="cls-10" d="M27.15,22.01h-2.87c-.09,0-.18-.05-.22-.13l-1.41-2.47c-.1-.17.03-.38.22-.38h2.85c.09-.01.18.04.22.11l1.44,2.49c.1.17-.02.38-.22.38Z"/>
          <path class="cls-7" d="M27.15,22.01h-2.87c-.09,0-.18-.05-.22-.13l-1.41-2.47c-.1-.17.03-.38.22-.38h2.85c.09-.01.18.04.22.11l1.44,2.49c.1.17-.02.38-.22.38Z"/>
        </g>
        <g>
          <path class="cls-10" d="M21.91,22.01h-2.87c-.09,0-.18-.05-.22-.13l-.74-1.3c-.05-.09-.04-.19.01-.28.32-.45.65-.87,1.01-1.22.05-.05.11-.07.18-.07.25,0,.9,0,1.19,0,.09,0,.18.05.22.13l1.44,2.49c.1.17-.02.38-.22.38Z"/>
          <path class="cls-7" d="M21.91,22.01h-2.87c-.09,0-.18-.05-.22-.13l-.74-1.3c-.05-.09-.04-.19.01-.28.32-.45.65-.87,1.01-1.22.05-.05.11-.07.18-.07.25,0,.9,0,1.19,0,.09,0,.18.05.22.13l1.44,2.49c.1.17-.02.38-.22.38Z"/>
        </g>
        <g>
          <path class="cls-10" d="M26.14,16.42s1.18-.13,2.96.68c.26.12.16.5-.12.49l-2.1-.1c-.09,0-.17-.05-.21-.13l-.54-.94"/>
          <path class="cls-7" d="M26.14,16.42s1.18-.13,2.96.68c.26.12.16.5-.12.49l-2.1-.1c-.09,0-.17-.05-.21-.13l-.54-.94"/>
        </g>
        <g>
          <path class="cls-10" d="M24.53,17.47h-2.09c-.28,0-.36-.39-.09-.5.58-.22,1.2-.38,1.87-.48.1-.01.21.04.26.13l.24.42c.12.22,0,.43-.2.43Z"/>
          <path class="cls-7" d="M24.53,17.47h-2.09c-.28,0-.36-.39-.09-.5.58-.22,1.2-.38,1.87-.48.1-.01.21.04.26.13l.24.42c.12.22,0,.43-.2.43Z"/>
        </g>
        <g>
          <path class="cls-10" d="M19.52,35.22l-1.7-2.95c-.05-.08-.13-.13-.22-.13-1.05-.02-1.98.04-2.8.15-.18.03-.28.22-.19.38.4.7,1.33,2.33,1.6,2.8.05.08.13.13.22.13h2.87c.2,0,.32-.21.22-.38Z"/>
          <path class="cls-7" d="M19.52,35.22l-1.7-2.95c-.05-.08-.13-.13-.22-.13-1.05-.02-1.98.04-2.8.15-.18.03-.28.22-.19.38.4.7,1.33,2.33,1.6,2.8.05.08.13.13.22.13h2.87c.2,0,.32-.21.22-.38Z"/>
        </g>
        <g>
          <path class="cls-10" d="M14.28,35.22l-1.26-2.19c-.06-.11-.2-.16-.32-.11-.77.33-1.49.8-2.16,1.39-.09.08-.11.22-.05.32l.48.84c.05.08.13.13.22.13h2.87c.2,0,.32-.21.22-.38Z"/>
          <path class="cls-7" d="M14.28,35.22l-1.26-2.19c-.06-.11-.2-.16-.32-.11-.77.33-1.49.8-2.16,1.39-.09.08-.11.22-.05.32l.48.84c.05.08.13.13.22.13h2.87c.2,0,.32-.21.22-.38Z"/>
        </g>
        <g>
          <path class="cls-10" d="M11.67,39.76l-1.44-2.49c-.05-.08-.13-.13-.22-.13h-1.49c-.1,0-.19.07-.23.16-.23.5-.42,1-.55,1.49-.02.06,0,.13.03.19.13.22.45.78.59,1.04.05.08.13.13.22.13h2.87c.2,0,.32-.21.22-.38Z"/>
          <path class="cls-7" d="M11.67,39.76l-1.44-2.49c-.05-.08-.13-.13-.22-.13h-1.49c-.1,0-.19.07-.23.16-.23.5-.42,1-.55,1.49-.02.06,0,.13.03.19.13.22.45.78.59,1.04.05.08.13.13.22.13h2.87c.2,0,.32-.21.22-.38Z"/>
        </g>
        <g>
          <path class="cls-10" d="M8.94,46.22s.48,1.09,2.07,2.23c.23.16.52-.11.36-.35l-1.14-1.77c-.05-.07-.13-.12-.22-.12h-1.08"/>
          <path class="cls-7" d="M8.94,46.22s.48,1.09,2.07,2.23c.23.16.52-.11.36-.35l-1.14-1.77c-.05-.07-.13-.12-.22-.12h-1.08"/>
        </g>
        <g>
          <path class="cls-10" d="M9.05,44.29l-1.05-1.81c-.14-.25-.52-.11-.48.17.1.61.27,1.23.52,1.86.04.1.14.16.24.16h.49c.25,0,.37-.21.27-.38Z"/>
          <path class="cls-7" d="M9.05,44.29l-1.05-1.81c-.14-.25-.52-.11-.48.17.1.61.27,1.23.52,1.86.04.1.14.16.24.16h.49c.25,0,.37-.21.27-.38Z"/>
        </g>
        <g>
          <path class="cls-10" d="M56.91,53.79h2.87c.09,0,.18.05.22.13l1.41,2.47c.1.17-.03.38-.22.38h-2.85c-.09.01-.18-.04-.22-.11l-1.44-2.49c-.1-.17.02-.38.22-.38Z"/>
          <path class="cls-7" d="M56.91,53.79h2.87c.09,0,.18.05.22.13l1.41,2.47c.1.17-.03.38-.22.38h-2.85c-.09.01-.18-.04-.22-.11l-1.44-2.49c-.1-.17.02-.38.22-.38Z"/>
        </g>
        <g>
          <path class="cls-10" d="M62.15,53.79h2.87c.09,0,.18.05.22.13l1.41,2.47c.1.17-.03.38-.22.38h-2.85c-.09.01-.18-.04-.22-.11l-1.44-2.49c-.1-.17.02-.38.22-.38Z"/>
          <path class="cls-7" d="M62.15,53.79h2.87c.09,0,.18.05.22.13l1.41,2.47c.1.17-.03.38-.22.38h-2.85c-.09.01-.18-.04-.22-.11l-1.44-2.49c-.1-.17.02-.38.22-.38Z"/>
        </g>
        <g>
          <path class="cls-10" d="M67.38,53.79h2.87c.09,0,.18.05.22.13l1.41,2.47c.1.17-.03.38-.22.38h-2.85c-.09.01-.18-.04-.22-.11l-1.44-2.49c-.1-.17.02-.38.22-.38Z"/>
          <path class="cls-7" d="M67.38,53.79h2.87c.09,0,.18.05.22.13l1.41,2.47c.1.17-.03.38-.22.38h-2.85c-.09.01-.18-.04-.22-.11l-1.44-2.49c-.1-.17.02-.38.22-.38Z"/>
        </g>
        <g>
          <path class="cls-10" d="M72.62,53.79h2.87c.09,0,.18.05.22.13l1.41,2.47c.1.17-.03.38-.22.38h-2.85c-.09.01-.18-.04-.22-.11l-1.44-2.49c-.1-.17.02-.38.22-.38Z"/>
          <path class="cls-7" d="M72.62,53.79h2.87c.09,0,.18.05.22.13l1.41,2.47c.1.17-.03.38-.22.38h-2.85c-.09.01-.18-.04-.22-.11l-1.44-2.49c-.1-.17.02-.38.22-.38Z"/>
        </g>
        <g>
          <path class="cls-10" d="M77.85,53.79h2.87c.09,0,.18.05.22.13l1.41,2.47c.1.17-.03.38-.22.38h-2.85c-.09.01-.18-.04-.22-.11l-1.44-2.49c-.1-.17.02-.38.22-.38Z"/>
          <path class="cls-7" d="M77.85,53.79h2.87c.09,0,.18.05.22.13l1.41,2.47c.1.17-.03.38-.22.38h-2.85c-.09.01-.18-.04-.22-.11l-1.44-2.49c-.1-.17.02-.38.22-.38Z"/>
        </g>
        <g>
          <path class="cls-10" d="M83.09,53.79h2.87c.09,0,.18.05.22.13l1.41,2.47c.1.17-.03.38-.22.38h-2.85c-.09.01-.18-.04-.22-.11l-1.44-2.49c-.1-.17.02-.38.22-.38Z"/>
          <path class="cls-7" d="M83.09,53.79h2.87c.09,0,.18.05.22.13l1.41,2.47c.1.17-.03.38-.22.38h-2.85c-.09.01-.18-.04-.22-.11l-1.44-2.49c-.1-.17.02-.38.22-.38Z"/>
        </g>
        <g>
          <path class="cls-10" d="M88.32,53.79h2.87c.09,0,.18.05.22.13l1.41,2.47c.1.17-.03.38-.22.38h-2.85c-.09.01-.18-.04-.22-.11l-1.44-2.49c-.1-.17.02-.38.22-.38Z"/>
          <path class="cls-7" d="M88.32,53.79h2.87c.09,0,.18.05.22.13l1.41,2.47c.1.17-.03.38-.22.38h-2.85c-.09.01-.18-.04-.22-.11l-1.44-2.49c-.1-.17.02-.38.22-.38Z"/>
        </g>
        <g>
          <path class="cls-10" d="M59.53,58.33h2.87c.09,0,.18.05.22.13l1.41,2.47c.1.17-.03.38-.22.38h-2.85c-.09.01-.18-.04-.22-.11l-1.44-2.49c-.1-.17.02-.38.22-.38Z"/>
          <path class="cls-7" d="M59.53,58.33h2.87c.09,0,.18.05.22.13l1.41,2.47c.1.17-.03.38-.22.38h-2.85c-.09.01-.18-.04-.22-.11l-1.44-2.49c-.1-.17.02-.38.22-.38Z"/>
        </g>
        <g>
          <path class="cls-10" d="M64.76,58.33h2.87c.09,0,.18.05.22.13l1.41,2.47c.1.17-.03.38-.22.38h-2.85c-.09.01-.18-.04-.22-.11l-1.44-2.49c-.1-.17.02-.38.22-.38Z"/>
          <path class="cls-7" d="M64.76,58.33h2.87c.09,0,.18.05.22.13l1.41,2.47c.1.17-.03.38-.22.38h-2.85c-.09.01-.18-.04-.22-.11l-1.44-2.49c-.1-.17.02-.38.22-.38Z"/>
        </g>
        <g>
          <path class="cls-10" d="M70,58.33h2.87c.09,0,.18.05.22.13l1.41,2.47c.1.17-.03.38-.22.38h-2.85c-.09.01-.18-.04-.22-.11l-1.44-2.49c-.1-.17.02-.38.22-.38Z"/>
          <path class="cls-7" d="M70,58.33h2.87c.09,0,.18.05.22.13l1.41,2.47c.1.17-.03.38-.22.38h-2.85c-.09.01-.18-.04-.22-.11l-1.44-2.49c-.1-.17.02-.38.22-.38Z"/>
        </g>
        <g>
          <path class="cls-10" d="M75.23,58.33h2.87c.09,0,.18.05.22.13l1.41,2.47c.1.17-.03.38-.22.38h-2.85c-.09.01-.18-.04-.22-.11l-1.44-2.49c-.1-.17.02-.38.22-.38Z"/>
          <path class="cls-7" d="M75.23,58.33h2.87c.09,0,.18.05.22.13l1.41,2.47c.1.17-.03.38-.22.38h-2.85c-.09.01-.18-.04-.22-.11l-1.44-2.49c-.1-.17.02-.38.22-.38Z"/>
        </g>
        <g>
          <path class="cls-10" d="M80.47,58.33h2.87c.09,0,.18.05.22.13l1.41,2.47c.1.17-.03.38-.22.38h-2.85c-.09.01-.18-.04-.22-.11l-1.44-2.49c-.1-.17.02-.38.22-.38Z"/>
          <path class="cls-7" d="M80.47,58.33h2.87c.09,0,.18.05.22.13l1.41,2.47c.1.17-.03.38-.22.38h-2.85c-.09.01-.18-.04-.22-.11l-1.44-2.49c-.1-.17.02-.38.22-.38Z"/>
        </g>
        <g>
          <path class="cls-10" d="M85.7,58.33h2.87c.09,0,.18.05.22.13l1.41,2.47c.1.17-.03.38-.22.38h-2.85c-.09.01-.18-.04-.22-.11l-1.44-2.49c-.1-.17.02-.38.22-.38Z"/>
          <path class="cls-7" d="M85.7,58.33h2.87c.09,0,.18.05.22.13l1.41,2.47c.1.17-.03.38-.22.38h-2.85c-.09.01-.18-.04-.22-.11l-1.44-2.49c-.1-.17.02-.38.22-.38Z"/>
        </g>
        <g>
          <path class="cls-10" d="M90.94,58.33h2.87c.09,0,.18.05.22.13l1.41,2.47c.1.17-.03.38-.22.38h-2.85c-.09.01-.18-.04-.22-.11l-1.44-2.49c-.1-.17.02-.38.22-.38Z"/>
          <path class="cls-7" d="M90.94,58.33h2.87c.09,0,.18.05.22.13l1.41,2.47c.1.17-.03.38-.22.38h-2.85c-.09.01-.18-.04-.22-.11l-1.44-2.49c-.1-.17.02-.38.22-.38Z"/>
        </g>
        <g>
          <path class="cls-10" d="M62.15,62.86h2.87c.09,0,.18.05.22.13l1.41,2.47c.1.17-.03.38-.22.38h-2.85c-.09.01-.18-.04-.22-.11l-1.44-2.49c-.1-.17.02-.38.22-.38Z"/>
          <path class="cls-7" d="M62.15,62.86h2.87c.09,0,.18.05.22.13l1.41,2.47c.1.17-.03.38-.22.38h-2.85c-.09.01-.18-.04-.22-.11l-1.44-2.49c-.1-.17.02-.38.22-.38Z"/>
        </g>
        <g>
          <path class="cls-10" d="M67.38,62.86h2.87c.09,0,.18.05.22.13l1.41,2.47c.1.17-.03.38-.22.38h-2.85c-.09.01-.18-.04-.22-.11l-1.44-2.49c-.1-.17.02-.38.22-.38Z"/>
          <path class="cls-7" d="M67.38,62.86h2.87c.09,0,.18.05.22.13l1.41,2.47c.1.17-.03.38-.22.38h-2.85c-.09.01-.18-.04-.22-.11l-1.44-2.49c-.1-.17.02-.38.22-.38Z"/>
        </g>
        <g>
          <path class="cls-10" d="M72.62,62.86h2.87c.09,0,.18.05.22.13l1.41,2.47c.1.17-.03.38-.22.38h-2.85c-.09.01-.18-.04-.22-.11l-1.44-2.49c-.1-.17.02-.38.22-.38Z"/>
          <path class="cls-7" d="M72.62,62.86h2.87c.09,0,.18.05.22.13l1.41,2.47c.1.17-.03.38-.22.38h-2.85c-.09.01-.18-.04-.22-.11l-1.44-2.49c-.1-.17.02-.38.22-.38Z"/>
        </g>
        <g>
          <path class="cls-10" d="M77.85,62.86h2.87c.09,0,.18.05.22.13l1.41,2.47c.1.17-.03.38-.22.38h-2.85c-.09.01-.18-.04-.22-.11l-1.44-2.49c-.1-.17.02-.38.22-.38Z"/>
          <path class="cls-7" d="M77.85,62.86h2.87c.09,0,.18.05.22.13l1.41,2.47c.1.17-.03.38-.22.38h-2.85c-.09.01-.18-.04-.22-.11l-1.44-2.49c-.1-.17.02-.38.22-.38Z"/>
        </g>
        <g>
          <path class="cls-10" d="M83.09,62.86h2.87c.09,0,.18.05.22.13l1.41,2.47c.1.17-.03.38-.22.38h-2.85c-.09.01-.18-.04-.22-.11l-1.44-2.49c-.1-.17.02-.38.22-.38Z"/>
          <path class="cls-7" d="M83.09,62.86h2.87c.09,0,.18.05.22.13l1.41,2.47c.1.17-.03.38-.22.38h-2.85c-.09.01-.18-.04-.22-.11l-1.44-2.49c-.1-.17.02-.38.22-.38Z"/>
        </g>
        <g>
          <path class="cls-10" d="M88.32,62.86h2.87c.09,0,.18.05.22.13l1.41,2.47c.1.17-.03.38-.22.38h-2.85c-.09.01-.18-.04-.22-.11l-1.44-2.49c-.1-.17.02-.38.22-.38Z"/>
          <path class="cls-7" d="M88.32,62.86h2.87c.09,0,.18.05.22.13l1.41,2.47c.1.17-.03.38-.22.38h-2.85c-.09.01-.18-.04-.22-.11l-1.44-2.49c-.1-.17.02-.38.22-.38Z"/>
        </g>
        <g>
          <path class="cls-10" d="M64.76,67.39h2.87c.09,0,.18.05.22.13l1.41,2.47c.1.17-.03.38-.22.38h-2.85c-.09.01-.18-.04-.22-.11l-1.44-2.49c-.1-.17.02-.38.22-.38Z"/>
          <path class="cls-7" d="M64.76,67.39h2.87c.09,0,.18.05.22.13l1.41,2.47c.1.17-.03.38-.22.38h-2.85c-.09.01-.18-.04-.22-.11l-1.44-2.49c-.1-.17.02-.38.22-.38Z"/>
        </g>
        <g>
          <path class="cls-10" d="M70,67.39h2.87c.09,0,.18.05.22.13l1.41,2.47c.1.17-.03.38-.22.38h-2.85c-.09.01-.18-.04-.22-.11l-1.44-2.49c-.1-.17.02-.38.22-.38Z"/>
          <path class="cls-7" d="M70,67.39h2.87c.09,0,.18.05.22.13l1.41,2.47c.1.17-.03.38-.22.38h-2.85c-.09.01-.18-.04-.22-.11l-1.44-2.49c-.1-.17.02-.38.22-.38Z"/>
        </g>
        <g>
          <path class="cls-10" d="M75.23,67.39h2.87c.09,0,.18.05.22.13l1.41,2.47c.1.17-.03.38-.22.38h-2.85c-.09.01-.18-.04-.22-.11l-1.44-2.49c-.1-.17.02-.38.22-.38Z"/>
          <path class="cls-7" d="M75.23,67.39h2.87c.09,0,.18.05.22.13l1.41,2.47c.1.17-.03.38-.22.38h-2.85c-.09.01-.18-.04-.22-.11l-1.44-2.49c-.1-.17.02-.38.22-.38Z"/>
        </g>
        <g>
          <path class="cls-10" d="M80.47,67.39h2.87c.09,0,.18.05.22.13l1.41,2.47c.1.17-.03.38-.22.38h-2.85c-.09.01-.18-.04-.22-.11l-1.44-2.49c-.1-.17.02-.38.22-.38Z"/>
          <path class="cls-7" d="M80.47,67.39h2.87c.09,0,.18.05.22.13l1.41,2.47c.1.17-.03.38-.22.38h-2.85c-.09.01-.18-.04-.22-.11l-1.44-2.49c-.1-.17.02-.38.22-.38Z"/>
        </g>
        <g>
          <path class="cls-10" d="M67.38,71.93h2.87c.09,0,.18.05.22.13l1.41,2.47c.1.17-.03.38-.22.38h-2.85c-.09.01-.18-.04-.22-.11l-1.44-2.49c-.1-.17.02-.38.22-.38Z"/>
          <path class="cls-7" d="M67.38,71.93h2.87c.09,0,.18.05.22.13l1.41,2.47c.1.17-.03.38-.22.38h-2.85c-.09.01-.18-.04-.22-.11l-1.44-2.49c-.1-.17.02-.38.22-.38Z"/>
        </g>
        <g>
          <path class="cls-10" d="M72.62,71.93h2.87c.09,0,.18.05.22.13l1.41,2.47c.1.17-.03.38-.22.38h-2.85c-.09.01-.18-.04-.22-.11l-1.44-2.49c-.1-.17.02-.38.22-.38Z"/>
          <path class="cls-7" d="M72.62,71.93h2.87c.09,0,.18.05.22.13l1.41,2.47c.1.17-.03.38-.22.38h-2.85c-.09.01-.18-.04-.22-.11l-1.44-2.49c-.1-.17.02-.38.22-.38Z"/>
        </g>
        <g>
          <path class="cls-10" d="M77.85,71.93h2.87c.09,0,.18.05.22.13l1.41,2.47c.1.17-.03.38-.22.38h-2.85c-.09.01-.18-.04-.22-.11l-1.44-2.49c-.1-.17.02-.38.22-.38Z"/>
          <path class="cls-7" d="M77.85,71.93h2.87c.09,0,.18.05.22.13l1.41,2.47c.1.17-.03.38-.22.38h-2.85c-.09.01-.18-.04-.22-.11l-1.44-2.49c-.1-.17.02-.38.22-.38Z"/>
        </g>
        <g>
          <path class="cls-10" d="M83.09,71.93h3.41c.09,0,.18.05.22.13.54.9.96,1.73,1.27,2.5.07.17-.05.35-.23.35h-3.22c-.09.02-.18-.03-.22-.11l-1.44-2.49c-.1-.17.02-.38.22-.38Z"/>
          <path class="cls-7" d="M83.09,71.93h3.41c.09,0,.18.05.22.13.54.9.96,1.73,1.27,2.5.07.17-.05.35-.23.35h-3.22c-.09.02-.18-.03-.22-.11l-1.44-2.49c-.1-.17.02-.38.22-.38Z"/>
        </g>
        <g>
          <path class="cls-10" d="M70,76.46h2.87c.09,0,.18.05.22.13l1.41,2.47c.1.17-.03.38-.22.38h-2.85c-.09.01-.18-.04-.22-.11l-1.44-2.49c-.1-.17.02-.38.22-.38Z"/>
          <path class="cls-7" d="M70,76.46h2.87c.09,0,.18.05.22.13l1.41,2.47c.1.17-.03.38-.22.38h-2.85c-.09.01-.18-.04-.22-.11l-1.44-2.49c-.1-.17.02-.38.22-.38Z"/>
        </g>
        <g>
          <path class="cls-10" d="M75.23,76.46h2.87c.09,0,.18.05.22.13l1.41,2.47c.1.17-.03.38-.22.38h-2.85c-.09.01-.18-.04-.22-.11l-1.44-2.49c-.1-.17.02-.38.22-.38Z"/>
          <path class="cls-7" d="M75.23,76.46h2.87c.09,0,.18.05.22.13l1.41,2.47c.1.17-.03.38-.22.38h-2.85c-.09.01-.18-.04-.22-.11l-1.44-2.49c-.1-.17.02-.38.22-.38Z"/>
        </g>
        <g>
          <path class="cls-10" d="M80.47,76.46h2.87c.09,0,.18.05.22.13l1.41,2.47c.1.17-.03.38-.22.38h-2.85c-.09.01-.18-.04-.22-.11l-1.44-2.49c-.1-.17.02-.38.22-.38Z"/>
          <path class="cls-7" d="M80.47,76.46h2.87c.09,0,.18.05.22.13l1.41,2.47c.1.17-.03.38-.22.38h-2.85c-.09.01-.18-.04-.22-.11l-1.44-2.49c-.1-.17.02-.38.22-.38Z"/>
        </g>
        <g>
          <path class="cls-10" d="M85.7,76.46h2.53c.13,0,.24.09.26.22.1.83.06,1.69-.12,2.56-.02.12-.13.2-.25.21h-.97c-.09,0-.18-.04-.22-.12l-1.44-2.49c-.1-.17.02-.38.22-.38Z"/>
          <path class="cls-7" d="M85.7,76.46h2.53c.13,0,.24.09.26.22.1.83.06,1.69-.12,2.56-.02.12-.13.2-.25.21h-.97c-.09,0-.18-.04-.22-.12l-1.44-2.49c-.1-.17.02-.38.22-.38Z"/>
        </g>
        <g>
          <path class="cls-10" d="M72.62,80.99h2.87c.09,0,.18.05.22.13l1.41,2.47c.1.17-.03.38-.22.38h-2.85c-.09.01-.18-.04-.22-.11l-1.44-2.49c-.1-.17.02-.38.22-.38Z"/>
          <path class="cls-7" d="M72.62,80.99h2.87c.09,0,.18.05.22.13l1.41,2.47c.1.17-.03.38-.22.38h-2.85c-.09.01-.18-.04-.22-.11l-1.44-2.49c-.1-.17.02-.38.22-.38Z"/>
        </g>
        <g>
          <path class="cls-10" d="M77.85,80.99h2.87c.09,0,.18.05.22.13l1.41,2.47c.1.17-.03.38-.22.38h-2.85c-.09.01-.18-.04-.22-.11l-1.44-2.49c-.1-.17.02-.38.22-.38Z"/>
          <path class="cls-7" d="M77.85,80.99h2.87c.09,0,.18.05.22.13l1.41,2.47c.1.17-.03.38-.22.38h-2.85c-.09.01-.18-.04-.22-.11l-1.44-2.49c-.1-.17.02-.38.22-.38Z"/>
        </g>
        <g>
          <path class="cls-10" d="M83.09,80.99h2.87c.09,0,.18.05.22.13l.74,1.3c.05.09.04.19-.01.28-.32.45-.65.87-1.01,1.22-.05.05-.11.07-.18.07-.25,0-.9,0-1.19,0-.09,0-.18-.05-.22-.13l-1.44-2.49c-.1-.17.02-.38.22-.38Z"/>
          <path class="cls-7" d="M83.09,80.99h2.87c.09,0,.18.05.22.13l.74,1.3c.05.09.04.19-.01.28-.32.45-.65.87-1.01,1.22-.05.05-.11.07-.18.07-.25,0-.9,0-1.19,0-.09,0-.18-.05-.22-.13l-1.44-2.49c-.1-.17.02-.38.22-.38Z"/>
        </g>
        <g>
          <path class="cls-10" d="M78.86,86.58s-1.18.13-2.96-.68c-.26-.12-.16-.5.12-.49l2.1.1c.09,0,.17.05.21.13l.54.94"/>
          <path class="cls-7" d="M78.86,86.58s-1.18.13-2.96-.68c-.26-.12-.16-.5.12-.49l2.1.1c.09,0,.17.05.21.13l.54.94"/>
        </g>
        <g>
          <path class="cls-10" d="M80.47,85.52h2.09c.28,0,.36.39.09.5-.58.22-1.2.38-1.87.48-.1.01-.21-.04-.26-.13l-.24-.42c-.12-.22,0-.43.2-.43Z"/>
          <path class="cls-7" d="M80.47,85.52h2.09c.28,0,.36.39.09.5-.58.22-1.2.38-1.87.48-.1.01-.21-.04-.26-.13l-.24-.42c-.12-.22,0-.43.2-.43Z"/>
        </g>
        <g>
          <path class="cls-10" d="M85.48,67.78l1.7,2.95c.05.08.13.13.22.13,1.05.02,1.98-.04,2.8-.15.18-.03.28-.22.19-.38l-1.6-2.8c-.05-.08-.13-.13-.22-.13h-2.87c-.2,0-.32.21-.22.38Z"/>
          <path class="cls-7" d="M85.48,67.78l1.7,2.95c.05.08.13.13.22.13,1.05.02,1.98-.04,2.8-.15.18-.03.28-.22.19-.38l-1.6-2.8c-.05-.08-.13-.13-.22-.13h-2.87c-.2,0-.32.21-.22.38Z"/>
        </g>
        <g>
          <path class="cls-10" d="M90.72,67.78l1.26,2.19c.06.11.2.16.32.11.77-.33,1.49-.8,2.16-1.39.09-.08.11-.22.05-.32l-.48-.84c-.05-.08-.13-.13-.22-.13h-2.87c-.2,0-.32.21-.22.38Z"/>
          <path class="cls-7" d="M90.72,67.78l1.26,2.19c.06.11.2.16.32.11.77-.33,1.49-.8,2.16-1.39.09-.08.11-.22.05-.32l-.48-.84c-.05-.08-.13-.13-.22-.13h-2.87c-.2,0-.32.21-.22.38Z"/>
        </g>
        <g>
          <path class="cls-10" d="M93.33,63.24l1.44,2.49c.05.08.13.13.22.13h1.49c.1,0,.19-.07.23-.16.23-.5.42-1,.55-1.49.02-.06,0-.13-.03-.19-.13-.22-.45-.78-.59-1.04-.05-.08-.13-.13-.22-.13h-2.87c-.2,0-.32.21-.22.38Z"/>
          <path class="cls-7" d="M93.33,63.24l1.44,2.49c.05.08.13.13.22.13h1.49c.1,0,.19-.07.23-.16.23-.5.42-1,.55-1.49.02-.06,0-.13-.03-.19-.13-.22-.45-.78-.59-1.04-.05-.08-.13-.13-.22-.13h-2.87c-.2,0-.32.21-.22.38Z"/>
        </g>
        <g>
          <path class="cls-10" d="M96.06,56.78s-.48-1.09-2.07-2.23c-.23-.16-.52.11-.36.35l1.14,1.77c.05.07.13.12.22.12h1.08"/>
          <path class="cls-7" d="M96.06,56.78s-.48-1.09-2.07-2.23c-.23-.16-.52.11-.36.35l1.14,1.77c.05.07.13.12.22.12h1.08"/>
        </g>
        <g>
          <path class="cls-10" d="M95.95,58.71l1.05,1.81c.14.25.52.11.48-.17-.1-.61-.27-1.23-.52-1.86-.04-.1-.14-.16-.24-.16h-.54c-.2,0-.32.21-.22.38Z"/>
          <path class="cls-7" d="M95.95,58.71l1.05,1.81c.14.25.52.11.48-.17-.1-.61-.27-1.23-.52-1.86-.04-.1-.14-.16-.24-.16h-.54c-.2,0-.32.21-.22.38Z"/>
        </g>
        <g>
          <path class="cls-10" d="M48.31,54.18l-1.44,2.49c-.05.08-.13.13-.22.13h-2.85c-.2-.01-.32-.23-.22-.4l1.41-2.47c.05-.08.13-.13.22-.13h2.87c.2,0,.32.21.22.38Z"/>
          <path class="cls-7" d="M48.31,54.18l-1.44,2.49c-.05.08-.13.13-.22.13h-2.85c-.2-.01-.32-.23-.22-.4l1.41-2.47c.05-.08.13-.13.22-.13h2.87c.2,0,.32.21.22.38Z"/>
        </g>
        <g>
          <path class="cls-10" d="M45.69,58.71l-1.44,2.49c-.05.08-.13.13-.22.13h-2.85c-.2-.01-.32-.23-.22-.4l1.41-2.47c.05-.08.13-.13.22-.13h2.87c.2,0,.32.21.22.38Z"/>
          <path class="cls-7" d="M45.69,58.71l-1.44,2.49c-.05.08-.13.13-.22.13h-2.85c-.2-.01-.32-.23-.22-.4l1.41-2.47c.05-.08.13-.13.22-.13h2.87c.2,0,.32.21.22.38Z"/>
        </g>
        <g>
          <path class="cls-10" d="M43.07,63.24l-1.44,2.49c-.05.08-.13.13-.22.13h-2.85c-.2-.01-.32-.23-.22-.4l1.41-2.47c.05-.08.13-.13.22-.13h2.87c.2,0,.32.21.22.38Z"/>
          <path class="cls-7" d="M43.07,63.24l-1.44,2.49c-.05.08-.13.13-.22.13h-2.85c-.2-.01-.32-.23-.22-.4l1.41-2.47c.05-.08.13-.13.22-.13h2.87c.2,0,.32.21.22.38Z"/>
        </g>
        <g>
          <path class="cls-10" d="M40.46,67.78l-1.44,2.49c-.05.08-.13.13-.22.13h-2.85c-.2-.01-.32-.23-.22-.4l1.41-2.47c.05-.08.13-.13.22-.13h2.87c.2,0,.32.21.22.38Z"/>
          <path class="cls-7" d="M40.46,67.78l-1.44,2.49c-.05.08-.13.13-.22.13h-2.85c-.2-.01-.32-.23-.22-.4l1.41-2.47c.05-.08.13-.13.22-.13h2.87c.2,0,.32.21.22.38Z"/>
        </g>
        <g>
          <path class="cls-10" d="M37.84,72.31l-1.44,2.49c-.05.08-.13.13-.22.13h-2.85c-.2-.01-.32-.23-.22-.4l1.41-2.47c.05-.08.13-.13.22-.13h2.87c.2,0,.32.21.22.38Z"/>
          <path class="cls-7" d="M37.84,72.31l-1.44,2.49c-.05.08-.13.13-.22.13h-2.85c-.2-.01-.32-.23-.22-.4l1.41-2.47c.05-.08.13-.13.22-.13h2.87c.2,0,.32.21.22.38Z"/>
        </g>
        <g>
          <path class="cls-10" d="M35.22,76.84l-1.44,2.49c-.05.08-.13.13-.22.13h-2.85c-.2-.01-.32-.23-.22-.4l1.41-2.47c.05-.08.13-.13.22-.13h2.87c.2,0,.32.21.22.38Z"/>
          <path class="cls-7" d="M35.22,76.84l-1.44,2.49c-.05.08-.13.13-.22.13h-2.85c-.2-.01-.32-.23-.22-.4l1.41-2.47c.05-.08.13-.13.22-.13h2.87c.2,0,.32.21.22.38Z"/>
        </g>
        <g>
          <path class="cls-10" d="M32.6,81.38l-1.44,2.49c-.05.08-.13.13-.22.13h-2.85c-.2-.01-.32-.23-.22-.4l1.41-2.47c.05-.08.13-.13.22-.13h2.87c.2,0,.32.21.22.38Z"/>
          <path class="cls-7" d="M32.6,81.38l-1.44,2.49c-.05.08-.13.13-.22.13h-2.85c-.2-.01-.32-.23-.22-.4l1.41-2.47c.05-.08.13-.13.22-.13h2.87c.2,0,.32.21.22.38Z"/>
        </g>
        <g>
          <path class="cls-10" d="M43.07,54.18l-1.44,2.49c-.05.08-.13.13-.22.13h-2.85c-.2-.01-.32-.23-.22-.4l1.41-2.47c.05-.08.13-.13.22-.13h2.87c.2,0,.32.21.22.38Z"/>
          <path class="cls-7" d="M43.07,54.18l-1.44,2.49c-.05.08-.13.13-.22.13h-2.85c-.2-.01-.32-.23-.22-.4l1.41-2.47c.05-.08.13-.13.22-.13h2.87c.2,0,.32.21.22.38Z"/>
        </g>
        <g>
          <path class="cls-10" d="M40.46,58.71l-1.44,2.49c-.05.08-.13.13-.22.13h-2.85c-.2-.01-.32-.23-.22-.4l1.41-2.47c.05-.08.13-.13.22-.13h2.87c.2,0,.32.21.22.38Z"/>
          <path class="cls-7" d="M40.46,58.71l-1.44,2.49c-.05.08-.13.13-.22.13h-2.85c-.2-.01-.32-.23-.22-.4l1.41-2.47c.05-.08.13-.13.22-.13h2.87c.2,0,.32.21.22.38Z"/>
        </g>
        <g>
          <path class="cls-10" d="M37.84,63.24l-1.44,2.49c-.05.08-.13.13-.22.13h-2.85c-.2-.01-.32-.23-.22-.4l1.41-2.47c.05-.08.13-.13.22-.13h2.87c.2,0,.32.21.22.38Z"/>
          <path class="cls-7" d="M37.84,63.24l-1.44,2.49c-.05.08-.13.13-.22.13h-2.85c-.2-.01-.32-.23-.22-.4l1.41-2.47c.05-.08.13-.13.22-.13h2.87c.2,0,.32.21.22.38Z"/>
        </g>
        <g>
          <path class="cls-10" d="M35.22,67.78l-1.44,2.49c-.05.08-.13.13-.22.13h-2.85c-.2-.01-.32-.23-.22-.4l1.41-2.47c.05-.08.13-.13.22-.13h2.87c.2,0,.32.21.22.38Z"/>
          <path class="cls-7" d="M35.22,67.78l-1.44,2.49c-.05.08-.13.13-.22.13h-2.85c-.2-.01-.32-.23-.22-.4l1.41-2.47c.05-.08.13-.13.22-.13h2.87c.2,0,.32.21.22.38Z"/>
        </g>
        <g>
          <path class="cls-10" d="M32.6,72.31l-1.44,2.49c-.05.08-.13.13-.22.13h-2.85c-.2-.01-.32-.23-.22-.4l1.41-2.47c.05-.08.13-.13.22-.13h2.87c.2,0,.32.21.22.38Z"/>
          <path class="cls-7" d="M32.6,72.31l-1.44,2.49c-.05.08-.13.13-.22.13h-2.85c-.2-.01-.32-.23-.22-.4l1.41-2.47c.05-.08.13-.13.22-.13h2.87c.2,0,.32.21.22.38Z"/>
        </g>
        <g>
          <path class="cls-10" d="M29.99,76.84l-1.44,2.49c-.05.08-.13.13-.22.13h-2.85c-.2-.01-.32-.23-.22-.4l1.41-2.47c.05-.08.13-.13.22-.13h2.87c.2,0,.32.21.22.38Z"/>
          <path class="cls-7" d="M29.99,76.84l-1.44,2.49c-.05.08-.13.13-.22.13h-2.85c-.2-.01-.32-.23-.22-.4l1.41-2.47c.05-.08.13-.13.22-.13h2.87c.2,0,.32.21.22.38Z"/>
        </g>
        <g>
          <path class="cls-10" d="M27.37,81.38l-1.44,2.49c-.05.08-.13.13-.22.13h-2.85c-.2-.01-.32-.23-.22-.4l1.41-2.47c.05-.08.13-.13.22-.13h2.87c.2,0,.32.21.22.38Z"/>
          <path class="cls-7" d="M27.37,81.38l-1.44,2.49c-.05.08-.13.13-.22.13h-2.85c-.2-.01-.32-.23-.22-.4l1.41-2.47c.05-.08.13-.13.22-.13h2.87c.2,0,.32.21.22.38Z"/>
        </g>
        <g>
          <path class="cls-10" d="M37.84,54.18l-1.44,2.49c-.05.08-.13.13-.22.13h-2.85c-.2-.01-.32-.23-.22-.4l1.41-2.47c.05-.08.13-.13.22-.13h2.87c.2,0,.32.21.22.38Z"/>
          <path class="cls-7" d="M37.84,54.18l-1.44,2.49c-.05.08-.13.13-.22.13h-2.85c-.2-.01-.32-.23-.22-.4l1.41-2.47c.05-.08.13-.13.22-.13h2.87c.2,0,.32.21.22.38Z"/>
        </g>
        <g>
          <path class="cls-10" d="M35.22,58.71l-1.44,2.49c-.05.08-.13.13-.22.13h-2.85c-.2-.01-.32-.23-.22-.4l1.41-2.47c.05-.08.13-.13.22-.13h2.87c.2,0,.32.21.22.38Z"/>
          <path class="cls-7" d="M35.22,58.71l-1.44,2.49c-.05.08-.13.13-.22.13h-2.85c-.2-.01-.32-.23-.22-.4l1.41-2.47c.05-.08.13-.13.22-.13h2.87c.2,0,.32.21.22.38Z"/>
        </g>
        <g>
          <path class="cls-10" d="M32.6,63.24l-1.44,2.49c-.05.08-.13.13-.22.13h-2.85c-.2-.01-.32-.23-.22-.4l1.41-2.47c.05-.08.13-.13.22-.13h2.87c.2,0,.32.21.22.38Z"/>
          <path class="cls-7" d="M32.6,63.24l-1.44,2.49c-.05.08-.13.13-.22.13h-2.85c-.2-.01-.32-.23-.22-.4l1.41-2.47c.05-.08.13-.13.22-.13h2.87c.2,0,.32.21.22.38Z"/>
        </g>
        <g>
          <path class="cls-10" d="M29.99,67.78l-1.44,2.49c-.05.08-.13.13-.22.13h-2.85c-.2-.01-.32-.23-.22-.4l1.41-2.47c.05-.08.13-.13.22-.13h2.87c.2,0,.32.21.22.38Z"/>
          <path class="cls-7" d="M29.99,67.78l-1.44,2.49c-.05.08-.13.13-.22.13h-2.85c-.2-.01-.32-.23-.22-.4l1.41-2.47c.05-.08.13-.13.22-.13h2.87c.2,0,.32.21.22.38Z"/>
        </g>
        <g>
          <path class="cls-10" d="M27.37,72.31l-1.44,2.49c-.05.08-.13.13-.22.13h-2.85c-.2-.01-.32-.23-.22-.4l1.41-2.47c.05-.08.13-.13.22-.13h2.87c.2,0,.32.21.22.38Z"/>
          <path class="cls-7" d="M27.37,72.31l-1.44,2.49c-.05.08-.13.13-.22.13h-2.85c-.2-.01-.32-.23-.22-.4l1.41-2.47c.05-.08.13-.13.22-.13h2.87c.2,0,.32.21.22.38Z"/>
        </g>
        <g>
          <path class="cls-10" d="M24.75,76.84l-1.44,2.49c-.05.08-.13.13-.22.13h-2.85c-.2-.01-.32-.23-.22-.4l1.41-2.47c.05-.08.13-.13.22-.13h2.87c.2,0,.32.21.22.38Z"/>
          <path class="cls-7" d="M24.75,76.84l-1.44,2.49c-.05.08-.13.13-.22.13h-2.85c-.2-.01-.32-.23-.22-.4l1.41-2.47c.05-.08.13-.13.22-.13h2.87c.2,0,.32.21.22.38Z"/>
        </g>
        <g>
          <path class="cls-10" d="M32.6,54.17l-1.44,2.49c-.05.08-.13.13-.22.13h-2.85c-.2-.01-.32-.23-.22-.4l1.41-2.47c.05-.08.13-.13.22-.13h2.87c.2,0,.32.21.22.38Z"/>
          <path class="cls-7" d="M32.6,54.17l-1.44,2.49c-.05.08-.13.13-.22.13h-2.85c-.2-.01-.32-.23-.22-.4l1.41-2.47c.05-.08.13-.13.22-.13h2.87c.2,0,.32.21.22.38Z"/>
        </g>
        <g>
          <path class="cls-10" d="M29.99,58.71l-1.44,2.49c-.05.08-.13.13-.22.13h-2.85c-.2-.01-.32-.23-.22-.4l1.41-2.47c.05-.08.13-.13.22-.13h2.87c.2,0,.32.21.22.38Z"/>
          <path class="cls-7" d="M29.99,58.71l-1.44,2.49c-.05.08-.13.13-.22.13h-2.85c-.2-.01-.32-.23-.22-.4l1.41-2.47c.05-.08.13-.13.22-.13h2.87c.2,0,.32.21.22.38Z"/>
        </g>
        <g>
          <path class="cls-10" d="M27.37,63.24l-1.44,2.49c-.05.08-.13.13-.22.13h-2.85c-.2-.01-.32-.23-.22-.4l1.41-2.47c.05-.08.13-.13.22-.13h2.87c.2,0,.32.21.22.38Z"/>
          <path class="cls-7" d="M27.37,63.24l-1.44,2.49c-.05.08-.13.13-.22.13h-2.85c-.2-.01-.32-.23-.22-.4l1.41-2.47c.05-.08.13-.13.22-.13h2.87c.2,0,.32.21.22.38Z"/>
        </g>
        <g>
          <path class="cls-10" d="M24.75,67.78l-1.44,2.49c-.05.08-.13.13-.22.13h-2.85c-.2-.01-.32-.23-.22-.4l1.41-2.47c.05-.08.13-.13.22-.13h2.87c.2,0,.32.21.22.38Z"/>
          <path class="cls-7" d="M24.75,67.78l-1.44,2.49c-.05.08-.13.13-.22.13h-2.85c-.2-.01-.32-.23-.22-.4l1.41-2.47c.05-.08.13-.13.22-.13h2.87c.2,0,.32.21.22.38Z"/>
        </g>
        <g>
          <path class="cls-10" d="M27.37,54.17l-1.44,2.49c-.05.08-.13.13-.22.13h-2.85c-.2-.01-.32-.23-.22-.4l1.41-2.47c.05-.08.13-.13.22-.13h2.87c.2,0,.32.21.22.38Z"/>
          <path class="cls-7" d="M27.37,54.17l-1.44,2.49c-.05.08-.13.13-.22.13h-2.85c-.2-.01-.32-.23-.22-.4l1.41-2.47c.05-.08.13-.13.22-.13h2.87c.2,0,.32.21.22.38Z"/>
        </g>
        <g>
          <path class="cls-10" d="M24.75,58.71l-1.44,2.49c-.05.08-.13.13-.22.13h-2.85c-.2-.01-.32-.23-.22-.4l1.41-2.47c.05-.08.13-.13.22-.13h2.87c.2,0,.32.21.22.38Z"/>
          <path class="cls-7" d="M24.75,58.71l-1.44,2.49c-.05.08-.13.13-.22.13h-2.85c-.2-.01-.32-.23-.22-.4l1.41-2.47c.05-.08.13-.13.22-.13h2.87c.2,0,.32.21.22.38Z"/>
        </g>
        <g>
          <path class="cls-10" d="M22.14,63.24l-1.44,2.49c-.05.08-.13.13-.22.13h-2.85c-.2-.01-.32-.23-.22-.4l1.41-2.47c.05-.08.13-.13.22-.13h2.87c.2,0,.32.21.22.38Z"/>
          <path class="cls-7" d="M22.14,63.24l-1.44,2.49c-.05.08-.13.13-.22.13h-2.85c-.2-.01-.32-.23-.22-.4l1.41-2.47c.05-.08.13-.13.22-.13h2.87c.2,0,.32.21.22.38Z"/>
        </g>
        <g>
          <path class="cls-10" d="M19.52,67.78l-1.7,2.95c-.05.08-.13.13-.22.13-1.05.02-1.98-.04-2.8-.15-.18-.03-.28-.22-.19-.38.4-.7,1.33-2.33,1.6-2.8.05-.08.13-.13.22-.13h2.87c.2,0,.32.21.22.38Z"/>
          <path class="cls-7" d="M19.52,67.78l-1.7,2.95c-.05.08-.13.13-.22.13-1.05.02-1.98-.04-2.8-.15-.18-.03-.28-.22-.19-.38.4-.7,1.33-2.33,1.6-2.8.05-.08.13-.13.22-.13h2.87c.2,0,.32.21.22.38Z"/>
        </g>
        <g>
          <path class="cls-10" d="M22.14,54.17l-1.44,2.49c-.05.08-.13.13-.22.13h-2.85c-.2-.01-.32-.23-.22-.4l1.41-2.47c.05-.08.13-.13.22-.13h2.87c.2,0,.32.21.22.38Z"/>
          <path class="cls-7" d="M22.14,54.17l-1.44,2.49c-.05.08-.13.13-.22.13h-2.85c-.2-.01-.32-.23-.22-.4l1.41-2.47c.05-.08.13-.13.22-.13h2.87c.2,0,.32.21.22.38Z"/>
        </g>
        <g>
          <path class="cls-10" d="M19.52,58.71l-1.44,2.49c-.05.08-.13.13-.22.13h-2.85c-.2-.01-.32-.23-.22-.4l1.41-2.47c.05-.08.13-.13.22-.13h2.87c.2,0,.32.21.22.38Z"/>
          <path class="cls-7" d="M19.52,58.71l-1.44,2.49c-.05.08-.13.13-.22.13h-2.85c-.2-.01-.32-.23-.22-.4l1.41-2.47c.05-.08.13-.13.22-.13h2.87c.2,0,.32.21.22.38Z"/>
        </g>
        <g>
          <path class="cls-10" d="M16.9,63.24l-1.44,2.49c-.05.08-.13.13-.22.13h-2.85c-.2-.01-.32-.23-.22-.4l1.41-2.47c.05-.08.13-.13.22-.13h2.87c.2,0,.32.21.22.38Z"/>
          <path class="cls-7" d="M16.9,63.24l-1.44,2.49c-.05.08-.13.13-.22.13h-2.85c-.2-.01-.32-.23-.22-.4l1.41-2.47c.05-.08.13-.13.22-.13h2.87c.2,0,.32.21.22.38Z"/>
        </g>
        <g>
          <path class="cls-10" d="M14.28,67.78l-1.26,2.19c-.06.11-.2.16-.32.11-.77-.33-1.49-.8-2.16-1.39-.09-.08-.11-.22-.05-.32l.48-.84c.05-.08.13-.13.22-.13h2.87c.2,0,.32.21.22.38Z"/>
          <path class="cls-7" d="M14.28,67.78l-1.26,2.19c-.06.11-.2.16-.32.11-.77-.33-1.49-.8-2.16-1.39-.09-.08-.11-.22-.05-.32l.48-.84c.05-.08.13-.13.22-.13h2.87c.2,0,.32.21.22.38Z"/>
        </g>
        <g>
          <path class="cls-10" d="M16.9,54.17l-1.44,2.49c-.05.08-.13.13-.22.13h-2.85c-.2-.01-.32-.23-.22-.4l1.41-2.47c.05-.08.13-.13.22-.13h2.87c.2,0,.32.21.22.38Z"/>
          <path class="cls-7" d="M16.9,54.17l-1.44,2.49c-.05.08-.13.13-.22.13h-2.85c-.2-.01-.32-.23-.22-.4l1.41-2.47c.05-.08.13-.13.22-.13h2.87c.2,0,.32.21.22.38Z"/>
        </g>
        <g>
          <path class="cls-10" d="M14.28,58.71l-1.44,2.49c-.05.08-.13.13-.22.13h-2.85c-.2-.01-.32-.23-.22-.4l1.41-2.47c.05-.08.13-.13.22-.13h2.87c.2,0,.32.21.22.38Z"/>
          <path class="cls-7" d="M14.28,58.71l-1.44,2.49c-.05.08-.13.13-.22.13h-2.85c-.2-.01-.32-.23-.22-.4l1.41-2.47c.05-.08.13-.13.22-.13h2.87c.2,0,.32.21.22.38Z"/>
        </g>
        <g>
          <path class="cls-10" d="M11.67,63.24l-1.44,2.49c-.05.08-.13.13-.22.13h-1.49c-.1,0-.19-.07-.23-.16-.23-.5-.42-1-.55-1.49-.02-.06,0-.13.03-.19.13-.22.45-.78.59-1.04.05-.08.13-.13.22-.13h2.87c.2,0,.32.21.22.38Z"/>
          <path class="cls-7" d="M11.67,63.24l-1.44,2.49c-.05.08-.13.13-.22.13h-1.49c-.1,0-.19-.07-.23-.16-.23-.5-.42-1-.55-1.49-.02-.06,0-.13.03-.19.13-.22.45-.78.59-1.04.05-.08.13-.13.22-.13h2.87c.2,0,.32.21.22.38Z"/>
        </g>
        <g>
          <path class="cls-10" d="M8.94,56.78s.48-1.09,2.07-2.23c.23-.16.52.11.36.35l-1.14,1.77c-.05.07-.13.12-.22.12h-1.08"/>
          <path class="cls-7" d="M8.94,56.78s.48-1.09,2.07-2.23c.23-.16.52.11.36.35l-1.14,1.77c-.05.07-.13.12-.22.12h-1.08"/>
        </g>
        <g>
          <path class="cls-10" d="M9.05,58.71l-1.05,1.81c-.14.25-.52.11-.48-.17.1-.61.27-1.23.52-1.86.04-.1.14-.16.24-.16h.49c.25,0,.37.21.27.38Z"/>
          <path class="cls-7" d="M9.05,58.71l-1.05,1.81c-.14.25-.52.11-.48-.17.1-.61.27-1.23.52-1.86.04-.1.14-.16.24-.16h.49c.25,0,.37.21.27.38Z"/>
        </g>
        <g>
          <path class="cls-10" d="M21.91,71.93h-3.41c-.09,0-.18.05-.22.13-.54.9-.96,1.73-1.27,2.5-.07.17.05.35.23.35.81,0,2.69.01,3.23.01.09,0,.18-.05.22-.13l1.44-2.49c.1-.17-.02-.38-.22-.38Z"/>
          <path class="cls-7" d="M21.91,71.93h-3.41c-.09,0-.18.05-.22.13-.54.9-.96,1.73-1.27,2.5-.07.17.05.35.23.35.81,0,2.69.01,3.23.01.09,0,.18-.05.22-.13l1.44-2.49c.1-.17-.02-.38-.22-.38Z"/>
        </g>
        <g>
          <path class="cls-10" d="M19.3,76.46h-2.53c-.13,0-.24.09-.26.22-.1.83-.06,1.69.12,2.56.02.12.13.2.25.21h.97c.09,0,.18-.04.22-.12l1.44-2.49c.1-.17-.02-.38-.22-.38Z"/>
          <path class="cls-7" d="M19.3,76.46h-2.53c-.13,0-.24.09-.26.22-.1.83-.06,1.69.12,2.56.02.12.13.2.25.21h.97c.09,0,.18-.04.22-.12l1.44-2.49c.1-.17-.02-.38-.22-.38Z"/>
        </g>
        <g>
          <path class="cls-10" d="M21.91,80.99h-2.87c-.09,0-.18.05-.22.13l-.74,1.3c-.05.09-.04.19.01.28.32.45.65.87,1.01,1.22.05.05.11.07.18.07.25,0,.9,0,1.19,0,.09,0,.18-.05.22-.13l1.44-2.49c.1-.17-.02-.38-.22-.38Z"/>
          <path class="cls-7" d="M21.91,80.99h-2.87c-.09,0-.18.05-.22.13l-.74,1.3c-.05.09-.04.19.01.28.32.45.65.87,1.01,1.22.05.05.11.07.18.07.25,0,.9,0,1.19,0,.09,0,.18-.05.22-.13l1.44-2.49c.1-.17-.02-.38-.22-.38Z"/>
        </g>
        <g>
          <path class="cls-10" d="M26.14,86.58s1.18.13,2.96-.68c.26-.12.16-.5-.12-.49l-2.1.1c-.09,0-.17.05-.21.13l-.54.94"/>
          <path class="cls-7" d="M26.14,86.58s1.18.13,2.96-.68c.26-.12.16-.5-.12-.49l-2.1.1c-.09,0-.17.05-.21.13l-.54.94"/>
        </g>
        <g>
          <path class="cls-10" d="M24.53,85.53h-2.09c-.28,0-.36.39-.09.5.58.22,1.2.38,1.87.48.1.01.21-.04.26-.13l.24-.42c.12-.22,0-.43-.2-.43Z"/>
          <path class="cls-7" d="M24.53,85.53h-2.09c-.28,0-.36.39-.09.5.58.22,1.2.38,1.87.48.1.01.21-.04.26-.13l.24-.42c.12-.22,0-.43-.2-.43Z"/>
        </g>
        <g>
          <path class="cls-10" d="M56.69,48.82l1.44-2.49c.05-.08.13-.13.22-.13h2.85c.2.01.32.23.22.4l-1.41,2.47c-.05.08-.13.13-.22.13h-2.87c-.2,0-.32-.21-.22-.38Z"/>
          <path class="cls-7" d="M56.69,48.82l1.44-2.49c.05-.08.13-.13.22-.13h2.85c.2.01.32.23.22.4l-1.41,2.47c-.05.08-.13.13-.22.13h-2.87c-.2,0-.32-.21-.22-.38Z"/>
        </g>
        <g>
          <path class="cls-10" d="M59.31,44.29l1.44-2.49c.05-.08.13-.13.22-.13h2.85c.2.01.32.23.22.4l-1.41,2.47c-.05.08-.13.13-.22.13h-2.87c-.2,0-.32-.21-.22-.38Z"/>
          <path class="cls-7" d="M59.31,44.29l1.44-2.49c.05-.08.13-.13.22-.13h2.85c.2.01.32.23.22.4l-1.41,2.47c-.05.08-.13.13-.22.13h-2.87c-.2,0-.32-.21-.22-.38Z"/>
        </g>
        <g>
          <path class="cls-10" d="M61.93,39.76l1.44-2.49c.05-.08.13-.13.22-.13h2.85c.2.01.32.23.22.4l-1.41,2.47c-.05.08-.13.13-.22.13h-2.87c-.2,0-.32-.21-.22-.38Z"/>
          <path class="cls-7" d="M61.93,39.76l1.44-2.49c.05-.08.13-.13.22-.13h2.85c.2.01.32.23.22.4l-1.41,2.47c-.05.08-.13.13-.22.13h-2.87c-.2,0-.32-.21-.22-.38Z"/>
        </g>
        <g>
          <path class="cls-10" d="M64.54,35.22l1.44-2.49c.05-.08.13-.13.22-.13h2.85c.2.01.32.23.22.4l-1.41,2.47c-.05.08-.13.13-.22.13h-2.87c-.2,0-.32-.21-.22-.38Z"/>
          <path class="cls-7" d="M64.54,35.22l1.44-2.49c.05-.08.13-.13.22-.13h2.85c.2.01.32.23.22.4l-1.41,2.47c-.05.08-.13.13-.22.13h-2.87c-.2,0-.32-.21-.22-.38Z"/>
        </g>
        <g>
          <path class="cls-10" d="M67.16,30.69l1.44-2.49c.05-.08.13-.13.22-.13h2.85c.2.01.32.23.22.4l-1.41,2.47c-.05.08-.13.13-.22.13h-2.87c-.2,0-.32-.21-.22-.38Z"/>
          <path class="cls-7" d="M67.16,30.69l1.44-2.49c.05-.08.13-.13.22-.13h2.85c.2.01.32.23.22.4l-1.41,2.47c-.05.08-.13.13-.22.13h-2.87c-.2,0-.32-.21-.22-.38Z"/>
        </g>
        <g>
          <path class="cls-10" d="M69.78,26.16l1.44-2.49c.05-.08.13-.13.22-.13h2.85c.2.01.32.23.22.4l-1.41,2.47c-.05.08-.13.13-.22.13h-2.87c-.2,0-.32-.21-.22-.38Z"/>
          <path class="cls-7" d="M69.78,26.16l1.44-2.49c.05-.08.13-.13.22-.13h2.85c.2.01.32.23.22.4l-1.41,2.47c-.05.08-.13.13-.22.13h-2.87c-.2,0-.32-.21-.22-.38Z"/>
        </g>
        <g>
          <path class="cls-10" d="M72.4,21.62l1.44-2.49c.05-.08.13-.13.22-.13h2.85c.2.01.32.23.22.4l-1.41,2.47c-.05.08-.13.13-.22.13h-2.87c-.2,0-.32-.21-.22-.38Z"/>
          <path class="cls-7" d="M72.4,21.62l1.44-2.49c.05-.08.13-.13.22-.13h2.85c.2.01.32.23.22.4l-1.41,2.47c-.05.08-.13.13-.22.13h-2.87c-.2,0-.32-.21-.22-.38Z"/>
        </g>
        <g>
          <path class="cls-10" d="M61.93,48.82l1.44-2.49c.05-.08.13-.13.22-.13h2.85c.2.01.32.23.22.4l-1.41,2.47c-.05.08-.13.13-.22.13h-2.87c-.2,0-.32-.21-.22-.38Z"/>
          <path class="cls-7" d="M61.93,48.82l1.44-2.49c.05-.08.13-.13.22-.13h2.85c.2.01.32.23.22.4l-1.41,2.47c-.05.08-.13.13-.22.13h-2.87c-.2,0-.32-.21-.22-.38Z"/>
        </g>
        <g>
          <path class="cls-10" d="M64.54,44.29l1.44-2.49c.05-.08.13-.13.22-.13h2.85c.2.01.32.23.22.4l-1.41,2.47c-.05.08-.13.13-.22.13h-2.87c-.2,0-.32-.21-.22-.38Z"/>
          <path class="cls-7" d="M64.54,44.29l1.44-2.49c.05-.08.13-.13.22-.13h2.85c.2.01.32.23.22.4l-1.41,2.47c-.05.08-.13.13-.22.13h-2.87c-.2,0-.32-.21-.22-.38Z"/>
        </g>
        <g>
          <path class="cls-10" d="M67.16,39.76l1.44-2.49c.05-.08.13-.13.22-.13h2.85c.2.01.32.23.22.4l-1.41,2.47c-.05.08-.13.13-.22.13h-2.87c-.2,0-.32-.21-.22-.38Z"/>
          <path class="cls-7" d="M67.16,39.76l1.44-2.49c.05-.08.13-.13.22-.13h2.85c.2.01.32.23.22.4l-1.41,2.47c-.05.08-.13.13-.22.13h-2.87c-.2,0-.32-.21-.22-.38Z"/>
        </g>
        <g>
          <path class="cls-10" d="M69.78,35.22l1.44-2.49c.05-.08.13-.13.22-.13h2.85c.2.01.32.23.22.4l-1.41,2.47c-.05.08-.13.13-.22.13h-2.87c-.2,0-.32-.21-.22-.38Z"/>
          <path class="cls-7" d="M69.78,35.22l1.44-2.49c.05-.08.13-.13.22-.13h2.85c.2.01.32.23.22.4l-1.41,2.47c-.05.08-.13.13-.22.13h-2.87c-.2,0-.32-.21-.22-.38Z"/>
        </g>
        <g>
          <path class="cls-10" d="M72.4,30.69l1.44-2.49c.05-.08.13-.13.22-.13h2.85c.2.01.32.23.22.4l-1.41,2.47c-.05.08-.13.13-.22.13h-2.87c-.2,0-.32-.21-.22-.38Z"/>
          <path class="cls-7" d="M72.4,30.69l1.44-2.49c.05-.08.13-.13.22-.13h2.85c.2.01.32.23.22.4l-1.41,2.47c-.05.08-.13.13-.22.13h-2.87c-.2,0-.32-.21-.22-.38Z"/>
        </g>
        <g>
          <path class="cls-10" d="M75.01,26.16l1.44-2.49c.05-.08.13-.13.22-.13h2.85c.2.01.32.23.22.4l-1.41,2.47c-.05.08-.13.13-.22.13h-2.87c-.2,0-.32-.21-.22-.38Z"/>
          <path class="cls-7" d="M75.01,26.16l1.44-2.49c.05-.08.13-.13.22-.13h2.85c.2.01.32.23.22.4l-1.41,2.47c-.05.08-.13.13-.22.13h-2.87c-.2,0-.32-.21-.22-.38Z"/>
        </g>
        <g>
          <path class="cls-10" d="M77.63,21.62l1.44-2.49c.05-.08.13-.13.22-.13h2.85c.2.01.32.23.22.4l-1.41,2.47c-.05.08-.13.13-.22.13h-2.87c-.2,0-.32-.21-.22-.38Z"/>
          <path class="cls-7" d="M77.63,21.62l1.44-2.49c.05-.08.13-.13.22-.13h2.85c.2.01.32.23.22.4l-1.41,2.47c-.05.08-.13.13-.22.13h-2.87c-.2,0-.32-.21-.22-.38Z"/>
        </g>
        <g>
          <path class="cls-10" d="M67.16,48.82l1.44-2.49c.05-.08.13-.13.22-.13h2.85c.2.01.32.23.22.4l-1.41,2.47c-.05.08-.13.13-.22.13h-2.87c-.2,0-.32-.21-.22-.38Z"/>
          <path class="cls-7" d="M67.16,48.82l1.44-2.49c.05-.08.13-.13.22-.13h2.85c.2.01.32.23.22.4l-1.41,2.47c-.05.08-.13.13-.22.13h-2.87c-.2,0-.32-.21-.22-.38Z"/>
        </g>
        <g>
          <path class="cls-10" d="M69.78,44.29l1.44-2.49c.05-.08.13-.13.22-.13h2.85c.2.01.32.23.22.4l-1.41,2.47c-.05.08-.13.13-.22.13h-2.87c-.2,0-.32-.21-.22-.38Z"/>
          <path class="cls-7" d="M69.78,44.29l1.44-2.49c.05-.08.13-.13.22-.13h2.85c.2.01.32.23.22.4l-1.41,2.47c-.05.08-.13.13-.22.13h-2.87c-.2,0-.32-.21-.22-.38Z"/>
        </g>
        <g>
          <path class="cls-10" d="M72.4,39.76l1.44-2.49c.05-.08.13-.13.22-.13h2.85c.2.01.32.23.22.4l-1.41,2.47c-.05.08-.13.13-.22.13h-2.87c-.2,0-.32-.21-.22-.38Z"/>
          <path class="cls-7" d="M72.4,39.76l1.44-2.49c.05-.08.13-.13.22-.13h2.85c.2.01.32.23.22.4l-1.41,2.47c-.05.08-.13.13-.22.13h-2.87c-.2,0-.32-.21-.22-.38Z"/>
        </g>
        <g>
          <path class="cls-10" d="M75.01,35.22l1.44-2.49c.05-.08.13-.13.22-.13h2.85c.2.01.32.23.22.4l-1.41,2.47c-.05.08-.13.13-.22.13h-2.87c-.2,0-.32-.21-.22-.38Z"/>
          <path class="cls-7" d="M75.01,35.22l1.44-2.49c.05-.08.13-.13.22-.13h2.85c.2.01.32.23.22.4l-1.41,2.47c-.05.08-.13.13-.22.13h-2.87c-.2,0-.32-.21-.22-.38Z"/>
        </g>
        <g>
          <path class="cls-10" d="M77.63,30.69l1.44-2.49c.05-.08.13-.13.22-.13h2.85c.2.01.32.23.22.4l-1.41,2.47c-.05.08-.13.13-.22.13h-2.87c-.2,0-.32-.21-.22-.38Z"/>
          <path class="cls-7" d="M77.63,30.69l1.44-2.49c.05-.08.13-.13.22-.13h2.85c.2.01.32.23.22.4l-1.41,2.47c-.05.08-.13.13-.22.13h-2.87c-.2,0-.32-.21-.22-.38Z"/>
        </g>
        <g>
          <path class="cls-10" d="M80.25,26.16l1.44-2.49c.05-.08.13-.13.22-.13h2.85c.2.01.32.23.22.4l-1.41,2.47c-.05.08-.13.13-.22.13h-2.87c-.2,0-.32-.21-.22-.38Z"/>
          <path class="cls-7" d="M80.25,26.16l1.44-2.49c.05-.08.13-.13.22-.13h2.85c.2.01.32.23.22.4l-1.41,2.47c-.05.08-.13.13-.22.13h-2.87c-.2,0-.32-.21-.22-.38Z"/>
        </g>
        <g>
          <path class="cls-10" d="M72.39,48.83l1.44-2.49c.05-.08.13-.13.22-.13h2.85c.2.01.32.23.22.4l-1.41,2.47c-.05.08-.13.13-.22.13h-2.87c-.2,0-.32-.21-.22-.38Z"/>
          <path class="cls-7" d="M72.39,48.83l1.44-2.49c.05-.08.13-.13.22-.13h2.85c.2.01.32.23.22.4l-1.41,2.47c-.05.08-.13.13-.22.13h-2.87c-.2,0-.32-.21-.22-.38Z"/>
        </g>
        <g>
          <path class="cls-10" d="M75.01,44.29l1.44-2.49c.05-.08.13-.13.22-.13h2.85c.2.01.32.23.22.4l-1.41,2.47c-.05.08-.13.13-.22.13h-2.87c-.2,0-.32-.21-.22-.38Z"/>
          <path class="cls-7" d="M75.01,44.29l1.44-2.49c.05-.08.13-.13.22-.13h2.85c.2.01.32.23.22.4l-1.41,2.47c-.05.08-.13.13-.22.13h-2.87c-.2,0-.32-.21-.22-.38Z"/>
        </g>
        <g>
          <path class="cls-10" d="M77.63,39.76l1.44-2.49c.05-.08.13-.13.22-.13h2.85c.2.01.32.23.22.4l-1.41,2.47c-.05.08-.13.13-.22.13h-2.87c-.2,0-.32-.21-.22-.38Z"/>
          <path class="cls-7" d="M77.63,39.76l1.44-2.49c.05-.08.13-.13.22-.13h2.85c.2.01.32.23.22.4l-1.41,2.47c-.05.08-.13.13-.22.13h-2.87c-.2,0-.32-.21-.22-.38Z"/>
        </g>
        <g>
          <path class="cls-10" d="M80.25,35.22l1.44-2.49c.05-.08.13-.13.22-.13h2.85c.2.01.32.23.22.4l-1.41,2.47c-.05.08-.13.13-.22.13h-2.87c-.2,0-.32-.21-.22-.38Z"/>
          <path class="cls-7" d="M80.25,35.22l1.44-2.49c.05-.08.13-.13.22-.13h2.85c.2.01.32.23.22.4l-1.41,2.47c-.05.08-.13.13-.22.13h-2.87c-.2,0-.32-.21-.22-.38Z"/>
        </g>
        <g>
          <path class="cls-10" d="M77.63,48.83l1.44-2.49c.05-.08.13-.13.22-.13h2.85c.2.01.32.23.22.4l-1.41,2.47c-.05.08-.13.13-.22.13h-2.87c-.2,0-.32-.21-.22-.38Z"/>
          <path class="cls-7" d="M77.63,48.83l1.44-2.49c.05-.08.13-.13.22-.13h2.85c.2.01.32.23.22.4l-1.41,2.47c-.05.08-.13.13-.22.13h-2.87c-.2,0-.32-.21-.22-.38Z"/>
        </g>
        <g>
          <path class="cls-10" d="M80.25,44.29l1.44-2.49c.05-.08.13-.13.22-.13h2.85c.2.01.32.23.22.4l-1.41,2.47c-.05.08-.13.13-.22.13h-2.87c-.2,0-.32-.21-.22-.38Z"/>
          <path class="cls-7" d="M80.25,44.29l1.44-2.49c.05-.08.13-.13.22-.13h2.85c.2.01.32.23.22.4l-1.41,2.47c-.05.08-.13.13-.22.13h-2.87c-.2,0-.32-.21-.22-.38Z"/>
        </g>
        <g>
          <path class="cls-10" d="M82.86,39.76l1.44-2.49c.05-.08.13-.13.22-.13h2.85c.2.01.32.23.22.4l-1.41,2.47c-.05.08-.13.13-.22.13h-2.87c-.2,0-.32-.21-.22-.38Z"/>
          <path class="cls-7" d="M82.86,39.76l1.44-2.49c.05-.08.13-.13.22-.13h2.85c.2.01.32.23.22.4l-1.41,2.47c-.05.08-.13.13-.22.13h-2.87c-.2,0-.32-.21-.22-.38Z"/>
        </g>
        <g>
          <path class="cls-10" d="M85.48,35.22l1.7-2.95c.05-.08.13-.13.22-.13,1.05-.02,1.98.04,2.8.15.18.03.28.22.19.38l-1.6,2.8c-.05.08-.13.13-.22.13h-2.87c-.2,0-.32-.21-.22-.38Z"/>
          <path class="cls-7" d="M85.48,35.22l1.7-2.95c.05-.08.13-.13.22-.13,1.05-.02,1.98.04,2.8.15.18.03.28.22.19.38l-1.6,2.8c-.05.08-.13.13-.22.13h-2.87c-.2,0-.32-.21-.22-.38Z"/>
        </g>
        <g>
          <path class="cls-10" d="M82.86,48.83l1.44-2.49c.05-.08.13-.13.22-.13h2.85c.2.01.32.23.22.4l-1.41,2.47c-.05.08-.13.13-.22.13h-2.87c-.2,0-.32-.21-.22-.38Z"/>
          <path class="cls-7" d="M82.86,48.83l1.44-2.49c.05-.08.13-.13.22-.13h2.85c.2.01.32.23.22.4l-1.41,2.47c-.05.08-.13.13-.22.13h-2.87c-.2,0-.32-.21-.22-.38Z"/>
        </g>
        <g>
          <path class="cls-10" d="M85.48,44.29l1.44-2.49c.05-.08.13-.13.22-.13h2.85c.2.01.32.23.22.4l-1.41,2.47c-.05.08-.13.13-.22.13h-2.87c-.2,0-.32-.21-.22-.38Z"/>
          <path class="cls-7" d="M85.48,44.29l1.44-2.49c.05-.08.13-.13.22-.13h2.85c.2.01.32.23.22.4l-1.41,2.47c-.05.08-.13.13-.22.13h-2.87c-.2,0-.32-.21-.22-.38Z"/>
        </g>
        <g>
          <path class="cls-10" d="M88.1,39.76l1.44-2.49c.05-.08.13-.13.22-.13h2.85c.2.01.32.23.22.4l-1.41,2.47c-.05.08-.13.13-.22.13h-2.87c-.2,0-.32-.21-.22-.38Z"/>
          <path class="cls-7" d="M88.1,39.76l1.44-2.49c.05-.08.13-.13.22-.13h2.85c.2.01.32.23.22.4l-1.41,2.47c-.05.08-.13.13-.22.13h-2.87c-.2,0-.32-.21-.22-.38Z"/>
        </g>
        <g>
          <path class="cls-10" d="M90.72,35.22l1.26-2.19c.06-.11.2-.16.32-.11.77.33,1.49.8,2.16,1.39.09.08.11.22.05.32l-.48.84c-.05.08-.13.13-.22.13h-2.87c-.2,0-.32-.21-.22-.38Z"/>
          <path class="cls-7" d="M90.72,35.22l1.26-2.19c.06-.11.2-.16.32-.11.77.33,1.49.8,2.16,1.39.09.08.11.22.05.32l-.48.84c-.05.08-.13.13-.22.13h-2.87c-.2,0-.32-.21-.22-.38Z"/>
        </g>
        <g>
          <path class="cls-10" d="M88.1,48.83l1.44-2.49c.05-.08.13-.13.22-.13h2.85c.2.01.32.23.22.4l-1.41,2.47c-.05.08-.13.13-.22.13h-2.87c-.2,0-.32-.21-.22-.38Z"/>
          <path class="cls-7" d="M88.1,48.83l1.44-2.49c.05-.08.13-.13.22-.13h2.85c.2.01.32.23.22.4l-1.41,2.47c-.05.08-.13.13-.22.13h-2.87c-.2,0-.32-.21-.22-.38Z"/>
        </g>
        <g>
          <path class="cls-10" d="M90.72,44.29l1.44-2.49c.05-.08.13-.13.22-.13h2.85c.2.01.32.23.22.4l-1.41,2.47c-.05.08-.13.13-.22.13h-2.87c-.2,0-.32-.21-.22-.38Z"/>
          <path class="cls-7" d="M90.72,44.29l1.44-2.49c.05-.08.13-.13.22-.13h2.85c.2.01.32.23.22.4l-1.41,2.47c-.05.08-.13.13-.22.13h-2.87c-.2,0-.32-.21-.22-.38Z"/>
        </g>
        <g>
          <path class="cls-10" d="M93.33,39.76l1.44-2.49c.05-.08.13-.13.22-.13h1.49c.1,0,.19.07.23.16.23.5.42,1,.55,1.49.02.06,0,.13-.03.19-.13.22-.45.78-.59,1.04-.05.08-.13.13-.22.13h-2.87c-.2,0-.32-.21-.22-.38Z"/>
          <path class="cls-7" d="M93.33,39.76l1.44-2.49c.05-.08.13-.13.22-.13h1.49c.1,0,.19.07.23.16.23.5.42,1,.55,1.49.02.06,0,.13-.03.19-.13.22-.45.78-.59,1.04-.05.08-.13.13-.22.13h-2.87c-.2,0-.32-.21-.22-.38Z"/>
        </g>
        <g>
          <path class="cls-10" d="M96.06,46.22s-.48,1.09-2.07,2.23c-.23.16-.52-.11-.36-.35l1.14-1.77c.05-.07.13-.12.22-.12h1.08"/>
          <path class="cls-7" d="M96.06,46.22s-.48,1.09-2.07,2.23c-.23.16-.52-.11-.36-.35l1.14-1.77c.05-.07.13-.12.22-.12h1.08"/>
        </g>
        <g>
          <path class="cls-10" d="M95.95,44.29l1.05-1.81c.14-.25.52-.11.48.17-.1.61-.27,1.23-.52,1.86-.04.1-.14.16-.24.16h-.54c-.2,0-.32-.21-.22-.38Z"/>
          <path class="cls-7" d="M95.95,44.29l1.05-1.81c.14-.25.52-.11.48.17-.1.61-.27,1.23-.52,1.86-.04.1-.14.16-.24.16h-.54c-.2,0-.32-.21-.22-.38Z"/>
        </g>
        <g>
          <path class="cls-10" d="M83.09,31.07h3.41c.09,0,.18-.05.22-.13.54-.9.96-1.73,1.27-2.5.07-.17-.05-.35-.23-.35h-3.22c-.09-.02-.18.03-.22.11l-1.44,2.49c-.1.17.02.38.22.38Z"/>
          <path class="cls-7" d="M83.09,31.07h3.41c.09,0,.18-.05.22-.13.54-.9.96-1.73,1.27-2.5.07-.17-.05-.35-.23-.35h-3.22c-.09-.02-.18.03-.22.11l-1.44,2.49c-.1.17.02.38.22.38Z"/>
        </g>
        <g>
          <path class="cls-10" d="M85.7,26.54h2.53c.13,0,.24-.09.26-.22.1-.83.06-1.69-.12-2.56-.02-.12-.13-.2-.25-.21h-.97c-.09,0-.18.04-.22.12l-1.44,2.49c-.1.17.02.38.22.38Z"/>
          <path class="cls-7" d="M85.7,26.54h2.53c.13,0,.24-.09.26-.22.1-.83.06-1.69-.12-2.56-.02-.12-.13-.2-.25-.21h-.97c-.09,0-.18.04-.22.12l-1.44,2.49c-.1.17.02.38.22.38Z"/>
        </g>
        <g>
          <path class="cls-10" d="M83.09,22.01h2.87c.09,0,.18-.05.22-.13l.74-1.3c.05-.09.04-.19-.01-.28-.32-.45-.65-.87-1.01-1.22-.05-.05-.11-.07-.18-.07-.25,0-.9,0-1.19,0-.09,0-.18.05-.22.13l-1.44,2.49c-.1.17.02.38.22.38Z"/>
          <path class="cls-7" d="M83.09,22.01h2.87c.09,0,.18-.05.22-.13l.74-1.3c.05-.09.04-.19-.01-.28-.32-.45-.65-.87-1.01-1.22-.05-.05-.11-.07-.18-.07-.25,0-.9,0-1.19,0-.09,0-.18.05-.22.13l-1.44,2.49c-.1.17.02.38.22.38Z"/>
        </g>
        <g>
          <path class="cls-10" d="M78.86,16.42s-1.18-.13-2.96.68c-.26.12-.16.5.12.49l2.1-.1c.09,0,.17-.05.21-.13l.54-.94"/>
          <path class="cls-7" d="M78.86,16.42s-1.18-.13-2.96.68c-.26.12-.16.5.12.49l2.1-.1c.09,0,.17-.05.21-.13l.54-.94"/>
        </g>
        <g>
          <path class="cls-10" d="M80.47,17.47h2.09c.28,0,.36-.39.09-.5-.58-.22-1.2-.38-1.87-.48-.1-.01-.21.04-.26.13l-.24.42c-.12.22,0,.43.2.43Z"/>
          <path class="cls-7" d="M80.47,17.47h2.09c.28,0,.36-.39.09-.5-.58-.22-1.2-.38-1.87-.48-.1-.01-.21.04-.26.13l-.24.42c-.12.22,0,.43.2.43Z"/>
        </g>
      </g>
    </g>
  </g>
</svg>