<?xml version="1.0" encoding="UTF-8"?>
<svg id="Layer_1" data-name="Layer 1" xmlns="http://www.w3.org/2000/svg" xmlns:xlink="http://www.w3.org/1999/xlink" viewBox="0 0 105 105">
  <defs>
    <style>
      .cls-1 {
        fill: url(#linear-gradient-4);
      }

      .cls-1, .cls-2, .cls-3, .cls-4, .cls-5, .cls-6, .cls-7 {
        stroke: rgba(74, 39, 0, .08);
        stroke-linecap: round;
        stroke-linejoin: round;
      }

      .cls-1, .cls-3, .cls-4, .cls-5, .cls-6, .cls-7 {
        stroke-width: .26px;
      }

      .cls-2 {
        stroke-width: .26px;
      }

      .cls-2, .cls-8 {
        fill: #fcd888;
      }

      .cls-3 {
        fill: url(#linear-gradient-3);
      }

      .cls-8 {
        filter: url(#drop-shadow-3);
        stroke: #4a2700;
        stroke-miterlimit: 10;
        stroke-width: .5px;
      }

      .cls-4 {
        fill: url(#linear-gradient-6);
      }

      .cls-5 {
        fill: url(#linear-gradient-2);
      }

      .cls-6 {
        fill: url(#linear-gradient);
      }

      .cls-7 {
        fill: url(#linear-gradient-5);
      }
    </style>
    <filter id="drop-shadow-3" filterUnits="userSpaceOnUse">
      <feOffset dx="0" dy="0"/>
      <feGaussianBlur result="blur" stdDeviation="5"/>
      <feFlood flood-color="#000" flood-opacity=".25"/>
      <feComposite in2="blur" operator="in"/>
      <feComposite in="SourceGraphic"/>
    </filter>
    <linearGradient id="linear-gradient" x1="-24.86" y1="70.74" x2="-24.73" y2="70.74" gradientUnits="userSpaceOnUse">
      <stop offset="0" stop-color="#945a14"/>
      <stop offset="1" stop-color="#f3cd80"/>
    </linearGradient>
    <linearGradient id="linear-gradient-2" x1="-24.86" y1="76.52" x2="-24.73" y2="76.52" xlink:href="#linear-gradient"/>
    <linearGradient id="linear-gradient-3" x1="-24.86" y1="70.74" x2="-24.73" y2="70.74" xlink:href="#linear-gradient"/>
    <linearGradient id="linear-gradient-4" x1="-24.86" y1="32.86" x2="-24.73" y2="32.86" xlink:href="#linear-gradient"/>
    <linearGradient id="linear-gradient-5" x1="-24.86" y1="27.08" x2="-24.73" y2="27.08" xlink:href="#linear-gradient"/>
    <linearGradient id="linear-gradient-6" x1="-24.82" y1="33.21" x2="-24.69" y2="33.21" xlink:href="#linear-gradient"/>
  </defs>
  <path class="cls-8" d="M61.03,100.96c-2.75-.19-5.32-2.73-7.93-3.11-2.88-.36-5.18,2.24-7.9,2.8-3.37.71-6.37-2.25-9.39-3.98-1.88-1.16-4.08-2.53-4.85-4.67-.3-.64-.38-1.12-.8-1.53-1.05-.71-2.33-.28-4.37-.6-.48-.06-.97-.1-1.46-.14-8.81.33-9.62-6.52-11.02-13.38-1.21-4.2-6.72-6.02-8.51-10.01-4.52-8.25,5.9-10.99,2.11-17.4-1.43-2.45-3.55-4.94-3.2-7.99.23-3.15,2.27-5.97,4.89-8.04,1.31-1.09,2.87-2.31,3.77-3.65,1.17-1.94.24-4.38.76-6.51.68-3.01,4.29-5,6.92-6.75,1.91-1.21,3.86-2.78,5.68-2.85,1.62-.22,3.4.64,4.87-.29,1.09-.74,2.03-2.53,2.74-3.98,1.82-4.54,5.48-5.21,9.86-4.77,2.88.14,6.06-.36,8.36,1.17,1.13.68,1.76.02,2.95-.51,1.28-.63,2.93-.63,4.38-.62,3.3.16,7.18-.78,9.79.9,3.56,1.89,3.41,9.16,8.42,8.17,2.98-.6,5.21.93,7.88,2.78,2.63,1.75,6.24,3.74,6.92,6.75.51,2.09-.37,4.46.68,6.39,1.71,2.63,5.55,4.52,7.18,7.38,2.48,3.53,1.76,7.95-.92,11.2-4.19,5.64,1.05,7.77,2.32,12.85,1.3,6.35-4.59,9.56-8.26,13.47-1.42,1.8-.59,4.19-.91,6.37-.82,4.32-5.64,6.05-8.82,8.43-1.09.71-2.19,1.38-3.25,1.58-1.4.28-2.68-.06-4.04-.06-2.06.07-2.87,2.02-3.85,3.74-1.63,4.46-6.17,7.22-10.83,6.87l-.18-.02Z"/>
  <path class="cls-6" d="M20.51,87.25c3.43,1.98,7.5,1.84,10.66-.02.4-.23.72-.57.95-.98l19.31-33.45H12.82c-.46,0-.92.11-1.32.34-3.19,1.81-5.36,5.26-5.36,9.23,0,5.83,4.67,10.56,10.44,10.56-2.88,4.99-1.12,11.4,3.93,14.32Z"/>
  <path class="cls-5" d="M53.18,53.8h0s0,0,0,0l-19.31,33.45c-.23.4-.36.85-.37,1.31-.03,3.67,1.88,7.27,5.31,9.25,5.05,2.92,11.48,1.24,14.37-3.76,2.88,4.99,9.31,6.67,14.37,3.76,3.43-1.98,5.35-5.58,5.31-9.25,0-.46-.14-.91-.37-1.31l-19.31-33.45Z"/>
  <path class="cls-3" d="M93.53,52.8h-38.62l19.32,33.45c.23.4.56.74.95.98,3.16,1.86,7.23,2,10.66.02,5.05-2.92,6.81-9.33,3.93-14.32,5.76,0,10.44-4.73,10.44-10.56,0-3.97-2.16-7.42-5.36-9.23-.4-.23-.86-.34-1.32-.34Z"/>
  <path class="cls-1" d="M85.84,16.36c-3.43-1.98-7.51-1.84-10.67.02-.4.23-.72.57-.95.97l-19.31,33.45h38.63c.46,0,.92-.11,1.32-.34,3.19-1.81,5.35-5.26,5.35-9.22,0-5.83-4.67-10.56-10.44-10.56,2.88-4.99,1.12-11.4-3.93-14.32Z"/>
  <path class="cls-7" d="M53.18,49.8h0s0,0,0,0l19.31-33.45c.23-.4.36-.85.37-1.31.03-3.67-1.88-7.26-5.31-9.25-5.05-2.92-11.48-1.24-14.37,3.76-2.88-4.99-9.31-6.67-14.37-3.76-3.43,1.98-5.34,5.58-5.31,9.25,0,.46.14.91.37,1.31l19.31,33.45Z"/>
  <path class="cls-4" d="M12.86,51.15h38.63l-19.31-33.45c-.23-.4-.56-.74-.95-.97-3.16-1.86-7.23-2.01-10.67-.02-5.05,2.92-6.81,9.33-3.93,14.32-5.76,0-10.44,4.73-10.44,10.56,0,3.96,2.16,7.42,5.35,9.22.4.23.86.34,1.32.34Z"/>
  <path class="cls-2" d="M52.96,46.84l-1.44-2.49c-.05-.08-.05-.18,0-.26l1.44-2.46c.1-.17.34-.17.44,0l1.44,2.46c.05.08.05.18,0,.26l-1.44,2.49c-.1.17-.34.17-.44,0Z"/>
  <path class="cls-2" d="M50.34,42.3l-1.44-2.49c-.05-.08-.05-.18,0-.26l1.44-2.46c.1-.17.34-.17.44,0l1.44,2.46c.05.08.05.18,0,.26l-1.44,2.49c-.1.17-.34.17-.44,0Z"/>
  <path class="cls-2" d="M47.72,37.77l-1.44-2.49c-.05-.08-.05-.18,0-.26l1.44-2.46c.1-.17.34-.17.44,0l1.44,2.46c.05.08.05.18,0,.26l-1.44,2.49c-.1.17-.34.17-.44,0Z"/>
  <path class="cls-2" d="M45.1,33.23l-1.44-2.49c-.05-.08-.05-.18,0-.26l1.44-2.46c.1-.17.34-.17.44,0l1.44,2.46c.05.08.05.18,0,.26l-1.44,2.49c-.1.17-.34.17-.44,0Z"/>
  <path class="cls-2" d="M42.49,28.7l-1.44-2.49c-.05-.08-.05-.18,0-.26l1.44-2.46c.1-.17.34-.17.44,0l1.44,2.46c.05.08.05.18,0,.26l-1.44,2.49c-.1.17-.34.17-.44,0Z"/>
  <path class="cls-2" d="M39.87,24.17l-1.44-2.49c-.05-.08-.05-.18,0-.26l1.44-2.46c.1-.17.34-.17.44,0l1.44,2.46c.05.08.05.18,0,.26l-1.44,2.49c-.1.17-.34.17-.44,0Z"/>
  <path class="cls-2" d="M37.25,19.63l-1.44-2.49c-.05-.08-.05-.18,0-.26l1.44-2.46c.1-.17.34-.17.44,0l1.44,2.46c.05.08.05.18,0,.26l-1.44,2.49c-.1.17-.34.17-.44,0Z"/>
  <path class="cls-2" d="M55.57,42.3l-1.44-2.49c-.05-.08-.05-.18,0-.26l1.44-2.46c.1-.17.34-.17.44,0l1.44,2.46c.05.08.05.18,0,.26l-1.44,2.49c-.1.17-.34.17-.44,0Z"/>
  <path class="cls-2" d="M52.96,37.77l-1.44-2.49c-.05-.08-.05-.18,0-.26l1.44-2.46c.1-.17.34-.17.44,0l1.44,2.46c.05.08.05.18,0,.26l-1.44,2.49c-.1.17-.34.17-.44,0Z"/>
  <path class="cls-2" d="M50.34,33.24l-1.44-2.49c-.05-.08-.05-.18,0-.26l1.44-2.46c.1-.17.34-.17.44,0l1.44,2.46c.05.08.05.18,0,.26l-1.44,2.49c-.1.17-.34.17-.44,0Z"/>
  <path class="cls-2" d="M47.72,28.7l-1.44-2.49c-.05-.08-.05-.18,0-.26l1.44-2.46c.1-.17.34-.17.44,0l1.44,2.46c.05.08.05.18,0,.26l-1.44,2.49c-.1.17-.34.17-.44,0Z"/>
  <path class="cls-2" d="M45.1,24.17l-1.44-2.49c-.05-.08-.05-.18,0-.26l1.44-2.46c.1-.17.34-.17.44,0l1.44,2.46c.05.08.05.18,0,.26l-1.44,2.49c-.1.17-.34.17-.44,0Z"/>
  <path class="cls-2" d="M42.49,19.63l-1.44-2.49c-.05-.08-.05-.18,0-.26l1.44-2.46c.1-.17.34-.17.44,0l1.44,2.46c.05.08.05.18,0,.26l-1.44,2.49c-.1.17-.34.17-.44,0Z"/>
  <path class="cls-2" d="M39.87,15.1l-1.44-2.49c-.05-.08-.05-.18,0-.26l1.44-2.46c.1-.17.34-.17.44,0l1.44,2.46c.05.08.05.18,0,.26l-1.44,2.49c-.1.17-.34.17-.44,0Z"/>
  <path class="cls-2" d="M58.19,37.77l-1.44-2.49c-.05-.08-.05-.18,0-.26l1.44-2.46c.1-.17.34-.17.44,0l1.44,2.46c.05.08.05.18,0,.26l-1.44,2.49c-.1.17-.34.17-.44,0Z"/>
  <path class="cls-2" d="M55.57,33.24l-1.44-2.49c-.05-.08-.05-.18,0-.26l1.44-2.46c.1-.17.34-.17.44,0l1.44,2.46c.05.08.05.18,0,.26l-1.44,2.49c-.1.17-.34.17-.44,0Z"/>
  <path class="cls-2" d="M52.96,28.7l-1.44-2.49c-.05-.08-.05-.18,0-.26l1.44-2.46c.1-.17.34-.17.44,0l1.44,2.46c.05.08.05.18,0,.26l-1.44,2.49c-.1.17-.34.17-.44,0Z"/>
  <path class="cls-2" d="M50.34,24.17l-1.44-2.49c-.05-.08-.05-.18,0-.26l1.44-2.46c.1-.17.34-.17.44,0l1.44,2.46c.05.08.05.18,0,.26l-1.44,2.49c-.1.17-.34.17-.44,0Z"/>
  <path class="cls-2" d="M47.72,19.63l-1.44-2.49c-.05-.08-.05-.18,0-.26l1.44-2.46c.1-.17.34-.17.44,0l1.44,2.46c.05.08.05.18,0,.26l-1.44,2.49c-.1.17-.34.17-.44,0Z"/>
  <path class="cls-2" d="M45.1,15.1l-1.44-2.49c-.05-.08-.05-.18,0-.26l1.44-2.46c.1-.17.34-.17.44,0l1.44,2.46c.05.08.05.18,0,.26l-1.44,2.49c-.1.17-.34.17-.44,0Z"/>
  <path class="cls-2" d="M60.81,33.24l-1.44-2.49c-.05-.08-.05-.18,0-.26l1.44-2.46c.1-.17.34-.17.44,0l1.44,2.46c.05.08.05.18,0,.26l-1.44,2.49c-.1.17-.34.17-.44,0Z"/>
  <path class="cls-2" d="M58.19,28.7l-1.44-2.49c-.05-.08-.05-.18,0-.26l1.44-2.46c.1-.17.34-.17.44,0l1.44,2.46c.05.08.05.18,0,.26l-1.44,2.49c-.1.17-.34.17-.44,0Z"/>
  <path class="cls-2" d="M55.57,24.17l-1.44-2.49c-.05-.08-.05-.18,0-.26l1.44-2.46c.1-.17.34-.17.44,0l1.44,2.46c.05.08.05.18,0,.26l-1.44,2.49c-.1.17-.34.17-.44,0Z"/>
  <path class="cls-2" d="M52.96,19.64l-1.44-2.49c-.05-.08-.05-.18,0-.26l1.44-2.46c.1-.17.34-.17.44,0l1.44,2.46c.05.08.05.18,0,.26l-1.44,2.49c-.1.17-.34.17-.44,0Z"/>
  <path class="cls-2" d="M63.43,28.7l-1.44-2.49c-.05-.08-.05-.18,0-.26l1.44-2.46c.1-.17.34-.17.44,0l1.44,2.46c.05.08.05.18,0,.26l-1.44,2.49c-.1.17-.34.17-.44,0Z"/>
  <path class="cls-2" d="M60.81,24.17l-1.44-2.49c-.05-.08-.05-.18,0-.26l1.44-2.46c.1-.17.34-.17.44,0l1.44,2.46c.05.08.05.18,0,.26l-1.44,2.49c-.1.17-.34.17-.44,0Z"/>
  <path class="cls-2" d="M58.19,19.64l-1.44-2.49c-.05-.08-.05-.18,0-.26l1.44-2.46c.1-.17.34-.17.44,0l1.44,2.46c.05.08.05.18,0,.26l-1.44,2.49c-.1.17-.34.17-.44,0Z"/>
  <path class="cls-2" d="M55.57,15.1l-1.7-2.95c-.05-.08-.05-.18,0-.25.51-.91,1.02-1.69,1.53-2.35.11-.14.33-.13.42.03l1.63,2.79c.05.08.05.18,0,.26l-1.44,2.49c-.1.17-.34.17-.44,0Z"/>
  <path class="cls-2" d="M66.04,24.17l-1.44-2.49c-.05-.08-.05-.18,0-.26l1.44-2.46c.1-.17.34-.17.44,0l1.44,2.46c.05.08.05.18,0,.26l-1.44,2.49c-.1.17-.34.17-.44,0Z"/>
  <path class="cls-2" d="M63.43,19.64l-1.44-2.49c-.05-.08-.05-.18,0-.26l1.44-2.46c.1-.17.34-.17.44,0l1.44,2.46c.05.08.05.18,0,.26l-1.44,2.49c-.1.17-.34.17-.44,0Z"/>
  <path class="cls-2" d="M60.81,15.1l-1.44-2.49c-.05-.08-.05-.18,0-.26l1.44-2.46c.1-.17.34-.17.44,0l1.44,2.46c.05.08.05.18,0,.26l-1.44,2.49c-.1.17-.34.17-.44,0Z"/>
  <path class="cls-2" d="M58.19,10.57l-1.26-2.19c-.06-.11-.04-.26.06-.33.67-.5,1.43-.89,2.28-1.18.11-.04.24.01.3.12l.49.84c.05.08.05.18,0,.26l-1.44,2.49c-.1.17-.34.17-.44,0Z"/>
  <path class="cls-2" d="M68.66,19.64l-1.44-2.49c-.05-.08-.05-.18,0-.26l1.44-2.46c.1-.17.34-.17.44,0l1.44,2.46c.05.08.05.18,0,.26l-1.44,2.49c-.1.17-.34.17-.44,0Z"/>
  <path class="cls-2" d="M66.04,15.1l-1.44-2.49c-.05-.08-.05-.18,0-.26l1.44-2.46c.1-.17.34-.17.44,0l1.44,2.46c.05.08.05.18,0,.26l-1.44,2.49c-.1.17-.34.17-.44,0Z"/>
  <path class="cls-2" d="M63.43,10.57l-1.44-2.49c-.05-.08-.05-.18,0-.26l.75-1.29c.05-.09.15-.14.24-.13.55.05,1.08.13,1.56.27.06.02.12.06.15.12.13.22.45.78.6,1.03.05.08.05.18,0,.26l-1.44,2.49c-.1.17-.34.17-.44,0Z"/>
  <path class="cls-2" d="M70.38,11.44s.7.96.9,2.9c.03.28-.35.39-.48.14l-.96-1.87c-.04-.08-.04-.17,0-.25l.54-.93"/>
  <path class="cls-2" d="M68.66,10.57l-1.04-1.81c-.14-.25.16-.51.38-.33.48.39.93.84,1.35,1.38.06.08.07.2.02.29l-.24.42c-.12.22-.37.22-.47.05Z"/>
  <path class="cls-2" d="M50.78,15.1l1.7-2.95c.05-.08.05-.18,0-.25-.51-.91-1.02-1.69-1.53-2.35-.11-.14-.33-.13-.42.03-.41.7-1.35,2.32-1.63,2.79-.05.08-.05.18,0,.26l1.44,2.49c.1.17.34.17.44,0Z"/>
  <path class="cls-2" d="M48.16,10.57l1.26-2.19c.06-.11.04-.26-.06-.33-.67-.5-1.43-.89-2.28-1.18-.11-.04-.24.01-.3.12l-.49.84c-.05.08-.05.18,0,.26l1.44,2.49c.1.17.34.17.44,0Z"/>
  <path class="cls-2" d="M42.93,10.57l1.44-2.49c.05-.08.05-.18,0-.26l-.75-1.29c-.05-.09-.15-.14-.24-.13-.55.05-1.08.13-1.56.27-.06.02-.12.06-.15.12-.13.22-.45.78-.6,1.03-.05.08-.05.18,0,.26l1.44,2.49c.1.17.34.17.44,0Z"/>
  <path class="cls-2" d="M35.97,11.44s-.7.96-.9,2.9c-.03.28.35.39.48.14l.96-1.87c.04-.08.04-.17,0-.25l-.54-.93"/>
  <path class="cls-2" d="M37.69,10.57l1.04-1.81c.14-.25-.16-.51-.38-.33-.48.39-.93.84-1.35,1.38-.06.08-.07.2-.02.29l.24.42c.12.22.37.22.47.05Z"/>
  <path class="cls-2" d="M53.4,56.77l1.44,2.49c.05.08.05.18,0,.26l-1.44,2.46c-.1.17-.34.17-.44,0l-1.44-2.46c-.05-.08-.05-.18,0-.26l1.44-2.49c.1-.17.34-.17.44,0Z"/>
  <path class="cls-2" d="M56.02,61.3l1.44,2.49c.05.08.05.18,0,.26l-1.44,2.46c-.1.17-.34.17-.44,0l-1.44-2.46c-.05-.08-.05-.18,0-.26l1.44-2.49c.1-.17.34-.17.44,0Z"/>
  <path class="cls-2" d="M58.63,65.84l1.44,2.49c.05.08.05.18,0,.26l-1.44,2.46c-.1.17-.34.17-.44,0l-1.44-2.46c-.05-.08-.05-.18,0-.26l1.44-2.49c.1-.17.34-.17.44,0Z"/>
  <path class="cls-2" d="M61.25,70.37l1.44,2.49c.05.08.05.18,0,.26l-1.44,2.46c-.1.17-.34.17-.44,0l-1.44-2.46c-.05-.08-.05-.18,0-.26l1.44-2.49c.1-.17.34-.17.44,0Z"/>
  <path class="cls-2" d="M63.87,74.91l1.44,2.49c.05.08.05.18,0,.26l-1.44,2.46c-.1.17-.34.17-.44,0l-1.44-2.46c-.05-.08-.05-.18,0-.26l1.44-2.49c.1-.17.34-.17.44,0Z"/>
  <path class="cls-2" d="M66.49,79.44l1.44,2.49c.05.08.05.18,0,.26l-1.44,2.46c-.1.17-.34.17-.44,0l-1.44-2.46c-.05-.08-.05-.18,0-.26l1.44-2.49c.1-.17.34-.17.44,0Z"/>
  <path class="cls-2" d="M69.1,83.97l1.44,2.49c.05.08.05.18,0,.26l-1.44,2.46c-.1.17-.34.17-.44,0l-1.44-2.46c-.05-.08-.05-.18,0-.26l1.44-2.49c.1-.17.34-.17.44,0Z"/>
  <path class="cls-2" d="M50.78,61.3l1.44,2.49c.05.08.05.18,0,.26l-1.44,2.46c-.1.17-.34.17-.44,0l-1.44-2.46c-.05-.08-.05-.18,0-.26l1.44-2.49c.1-.17.34-.17.44,0Z"/>
  <path class="cls-2" d="M53.4,65.84l1.44,2.49c.05.08.05.18,0,.26l-1.44,2.46c-.1.17-.34.17-.44,0l-1.44-2.46c-.05-.08-.05-.18,0-.26l1.44-2.49c.1-.17.34-.17.44,0Z"/>
  <path class="cls-2" d="M56.02,70.37l1.44,2.49c.05.08.05.18,0,.26l-1.44,2.46c-.1.17-.34.17-.44,0l-1.44-2.46c-.05-.08-.05-.18,0-.26l1.44-2.49c.1-.17.34-.17.44,0Z"/>
  <path class="cls-2" d="M58.63,74.9l1.44,2.49c.05.08.05.18,0,.26l-1.44,2.46c-.1.17-.34.17-.44,0l-1.44-2.46c-.05-.08-.05-.18,0-.26l1.44-2.49c.1-.17.34-.17.44,0Z"/>
  <path class="cls-2" d="M61.25,79.44l1.44,2.49c.05.08.05.18,0,.26l-1.44,2.46c-.1.17-.34.17-.44,0l-1.44-2.46c-.05-.08-.05-.18,0-.26l1.44-2.49c.1-.17.34-.17.44,0Z"/>
  <path class="cls-2" d="M63.87,83.97l1.44,2.49c.05.08.05.18,0,.26l-1.44,2.46c-.1.17-.34.17-.44,0l-1.44-2.46c-.05-.08-.05-.18,0-.26l1.44-2.49c.1-.17.34-.17.44,0Z"/>
  <path class="cls-2" d="M66.49,88.51l1.44,2.49c.05.08.05.18,0,.26l-1.44,2.46c-.1.17-.34.17-.44,0l-1.44-2.46c-.05-.08-.05-.18,0-.26l1.44-2.49c.1-.17.34-.17.44,0Z"/>
  <path class="cls-2" d="M48.16,65.84l1.44,2.49c.05.08.05.18,0,.26l-1.44,2.46c-.1.17-.34.17-.44,0l-1.44-2.46c-.05-.08-.05-.18,0-.26l1.44-2.49c.1-.17.34-.17.44,0Z"/>
  <path class="cls-2" d="M50.78,70.37l1.44,2.49c.05.08.05.18,0,.26l-1.44,2.46c-.1.17-.34.17-.44,0l-1.44-2.46c-.05-.08-.05-.18,0-.26l1.44-2.49c.1-.17.34-.17.44,0Z"/>
  <path class="cls-2" d="M53.4,74.9l1.44,2.49c.05.08.05.18,0,.26l-1.44,2.46c-.1.17-.34.17-.44,0l-1.44-2.46c-.05-.08-.05-.18,0-.26l1.44-2.49c.1-.17.34-.17.44,0Z"/>
  <path class="cls-2" d="M56.02,79.44l1.44,2.49c.05.08.05.18,0,.26l-1.44,2.46c-.1.17-.34.17-.44,0l-1.44-2.46c-.05-.08-.05-.18,0-.26l1.44-2.49c.1-.17.34-.17.44,0Z"/>
  <path class="cls-2" d="M58.63,83.97l1.44,2.49c.05.08.05.18,0,.26l-1.44,2.46c-.1.17-.34.17-.44,0l-1.44-2.46c-.05-.08-.05-.18,0-.26l1.44-2.49c.1-.17.34-.17.44,0Z"/>
  <path class="cls-2" d="M61.25,88.51l1.44,2.49c.05.08.05.18,0,.26l-1.44,2.46c-.1.17-.34.17-.44,0l-1.44-2.46c-.05-.08-.05-.18,0-.26l1.44-2.49c.1-.17.34-.17.44,0Z"/>
  <path class="cls-2" d="M45.55,70.37l1.44,2.49c.05.08.05.18,0,.26l-1.44,2.46c-.1.17-.34.17-.44,0l-1.44-2.46c-.05-.08-.05-.18,0-.26l1.44-2.49c.1-.17.34-.17.44,0Z"/>
  <path class="cls-2" d="M48.16,74.9l1.44,2.49c.05.08.05.18,0,.26l-1.44,2.46c-.1.17-.34.17-.44,0l-1.44-2.46c-.05-.08-.05-.18,0-.26l1.44-2.49c.1-.17.34-.17.44,0Z"/>
  <path class="cls-2" d="M50.78,79.44l1.44,2.49c.05.08.05.18,0,.26l-1.44,2.46c-.1.17-.34.17-.44,0l-1.44-2.46c-.05-.08-.05-.18,0-.26l1.44-2.49c.1-.17.34-.17.44,0Z"/>
  <path class="cls-2" d="M53.4,83.97l1.44,2.49c.05.08.05.18,0,.26l-1.44,2.46c-.1.17-.34.17-.44,0l-1.44-2.46c-.05-.08-.05-.18,0-.26l1.44-2.49c.1-.17.34-.17.44,0Z"/>
  <path class="cls-2" d="M42.93,74.9l1.44,2.49c.05.08.05.18,0,.26l-1.44,2.46c-.1.17-.34.17-.44,0l-1.44-2.46c-.05-.08-.05-.18,0-.26l1.44-2.49c.1-.17.34-.17.44,0Z"/>
  <path class="cls-2" d="M45.55,79.44l1.44,2.49c.05.08.05.18,0,.26l-1.44,2.46c-.1.17-.34.17-.44,0l-1.44-2.46c-.05-.08-.05-.18,0-.26l1.44-2.49c.1-.17.34-.17.44,0Z"/>
  <path class="cls-2" d="M48.16,83.97l1.44,2.49c.05.08.05.18,0,.26l-1.44,2.46c-.1.17-.34.17-.44,0l-1.44-2.46c-.05-.08-.05-.18,0-.26l1.44-2.49c.1-.17.34-.17.44,0Z"/>
  <path class="cls-2" d="M50.78,88.5l1.7,2.95c.05.08.05.18,0,.25-.51.91-1.02,1.69-1.53,2.35-.11.14-.33.13-.42-.03-.41-.7-1.35-2.32-1.63-2.79-.05-.08-.05-.18,0-.26l1.44-2.49c.1-.17.34-.17.44,0Z"/>
  <path class="cls-2" d="M40.31,79.44l1.44,2.49c.05.08.05.18,0,.26l-1.44,2.46c-.1.17-.34.17-.44,0l-1.44-2.46c-.05-.08-.05-.18,0-.26l1.44-2.49c.1-.17.34-.17.44,0Z"/>
  <path class="cls-2" d="M42.93,83.97l1.44,2.49c.05.08.05.18,0,.26l-1.44,2.46c-.1.17-.34.17-.44,0l-1.44-2.46c-.05-.08-.05-.18,0-.26l1.44-2.49c.1-.17.34-.17.44,0Z"/>
  <path class="cls-2" d="M45.55,88.5l1.44,2.49c.05.08.05.18,0,.26l-1.44,2.46c-.1.17-.34.17-.44,0l-1.44-2.46c-.05-.08-.05-.18,0-.26l1.44-2.49c.1-.17.34-.17.44,0Z"/>
  <path class="cls-2" d="M48.16,93.04l1.26,2.19c.06.11.04.26-.06.33-.67.5-1.43.89-2.28,1.18-.11.04-.24-.01-.3-.12l-.49-.84c-.05-.08-.05-.18,0-.26l1.44-2.49c.1-.17.34-.17.44,0Z"/>
  <path class="cls-2" d="M37.69,83.97l1.44,2.49c.05.08.05.18,0,.26l-1.44,2.46c-.1.17-.34.17-.44,0l-1.44-2.46c-.05-.08-.05-.18,0-.26l1.44-2.49c.1-.17.34-.17.44,0Z"/>
  <path class="cls-2" d="M40.31,88.5l1.44,2.49c.05.08.05.18,0,.26l-1.44,2.46c-.1.17-.34.17-.44,0l-1.44-2.46c-.05-.08-.05-.18,0-.26l1.44-2.49c.1-.17.34-.17.44,0Z"/>
  <path class="cls-2" d="M42.93,93.04l1.44,2.49c.05.08.05.18,0,.26l-.75,1.29c-.05.09-.15.14-.24.13-.55-.05-1.08-.13-1.56-.27-.06-.02-.12-.06-.15-.12-.13-.22-.45-.78-.6-1.03-.05-.08-.05-.18,0-.26l1.44-2.49c.1-.17.34-.17.44,0Z"/>
  <path class="cls-2" d="M35.97,92.17s-.7-.96-.9-2.9c-.03-.28.35-.39.48-.14l.96,1.87c.04.08.04.17,0,.25l-.54.93"/>
  <path class="cls-2" d="M37.69,93.04l1.04,1.81c.14.25-.16.51-.38.33-.48-.39-.93-.84-1.35-1.38-.06-.08-.07-.2-.02-.29l.24-.42c.12-.22.37-.22.47-.05Z"/>
  <path class="cls-2" d="M55.57,88.5l-1.7,2.95c-.05.08-.05.18,0,.25.51.91,1.02,1.69,1.53,2.35.11.14.33.13.42-.03l1.63-2.79c.05-.08.05-.18,0-.26l-1.44-2.49c-.1-.17-.34-.17-.44,0Z"/>
  <path class="cls-2" d="M58.19,93.04l-1.26,2.19c-.06.11-.04.26.06.33.67.5,1.43.89,2.28,1.18.11.04.24-.01.3-.12l.49-.84c.05-.08.05-.18,0-.26l-1.44-2.49c-.1-.17-.34-.17-.44,0Z"/>
  <path class="cls-2" d="M63.43,93.04l-1.44,2.49c-.05.08-.05.18,0,.26l.75,1.29c.05.09.15.14.24.13.55-.05,1.08-.13,1.56-.27.06-.02.12-.06.15-.12.13-.22.45-.78.6-1.03.05-.08.05-.18,0-.26l-1.44-2.49c-.1-.17-.34-.17-.44,0Z"/>
  <path class="cls-2" d="M70.38,92.17s.7-.96.9-2.9c.03-.28-.35-.39-.48-.14l-.96,1.87c-.04.08-.04.17,0,.25l.54.93"/>
  <path class="cls-2" d="M68.66,93.04l-1.04,1.81c-.14.25.16.51.38.33.48-.39.93-.84,1.35-1.38.06-.08.07-.2.02-.29l-.24-.42c-.12-.22-.37-.22-.47-.05Z"/>
  <path class="cls-2" d="M48.76,49.51h-2.87c-.09,0-.18-.05-.22-.13l-1.41-2.47c-.1-.17.03-.38.22-.38h2.85c.09-.01.18.04.22.11l1.44,2.49c.1.17-.02.38-.22.38Z"/>
  <path class="cls-2" d="M43.53,49.51h-2.87c-.09,0-.18-.05-.22-.13l-1.41-2.47c-.1-.17.03-.38.22-.38h2.85c.09-.01.18.04.22.11l1.44,2.49c.1.17-.02.38-.22.38Z"/>
  <path class="cls-2" d="M38.29,49.51h-2.87c-.09,0-.18-.05-.22-.13l-1.41-2.47c-.1-.17.03-.38.22-.38h2.85c.09-.01.18.04.22.11l1.44,2.49c.1.17-.02.38-.22.38Z"/>
  <path class="cls-2" d="M33.06,49.51h-2.87c-.09,0-.18-.05-.22-.13l-1.41-2.47c-.1-.17.03-.38.22-.38h2.85c.09-.01.18.04.22.11l1.44,2.49c.1.17-.02.38-.22.38Z"/>
  <path class="cls-2" d="M27.82,49.51h-2.87c-.09,0-.18-.05-.22-.13l-1.41-2.47c-.1-.17.03-.38.22-.38h2.85c.09-.01.18.04.22.11l1.44,2.49c.1.17-.02.38-.22.38Z"/>
  <path class="cls-2" d="M22.59,49.51h-2.87c-.09,0-.18-.05-.22-.13l-1.41-2.47c-.1-.17.03-.38.22-.38h2.85c.09-.01.18.04.22.11l1.44,2.49c.1.17-.02.38-.22.38Z"/>
  <path class="cls-2" d="M17.35,49.51h-2.87c-.09,0-.18-.05-.22-.13l-1.41-2.47c-.1-.17.03-.38.22-.38h2.85c.09-.01.18.04.22.11l1.44,2.49c.1.17-.02.38-.22.38Z"/>
  <path class="cls-2" d="M46.15,44.98h-2.87c-.09,0-.18-.05-.22-.13l-1.41-2.47c-.1-.17.03-.38.22-.38h2.85c.09-.01.18.04.22.11l1.44,2.49c.1.17-.02.38-.22.38Z"/>
  <path class="cls-2" d="M40.91,44.98h-2.87c-.09,0-.18-.05-.22-.13l-1.41-2.47c-.1-.17.03-.38.22-.38h2.85c.09-.01.18.04.22.11l1.44,2.49c.1.17-.02.38-.22.38Z"/>
  <path class="cls-2" d="M35.68,44.98h-2.87c-.09,0-.18-.05-.22-.13l-1.41-2.47c-.1-.17.03-.38.22-.38h2.85c.09-.01.18.04.22.11l1.44,2.49c.1.17-.02.38-.22.38Z"/>
  <path class="cls-2" d="M30.44,44.98h-2.87c-.09,0-.18-.05-.22-.13l-1.41-2.47c-.1-.17.03-.38.22-.38h2.85c.09-.01.18.04.22.11l1.44,2.49c.1.17-.02.38-.22.38Z"/>
  <path class="cls-2" d="M25.21,44.98h-2.87c-.09,0-.18-.05-.22-.13l-1.41-2.47c-.1-.17.03-.38.22-.38h2.85c.09-.01.18.04.22.11l1.44,2.49c.1.17-.02.38-.22.38Z"/>
  <path class="cls-2" d="M19.97,44.98h-2.87c-.09,0-.18-.05-.22-.13l-1.41-2.47c-.1-.17.03-.38.22-.38h2.85c.09-.01.18.04.22.11l1.44,2.49c.1.17-.02.38-.22.38Z"/>
  <path class="cls-2" d="M14.74,44.98h-2.87c-.09,0-.18-.05-.22-.13l-1.41-2.47c-.1-.17.03-.38.22-.38h2.85c.09-.01.18.04.22.11l1.44,2.49c.1.17-.02.38-.22.38Z"/>
  <path class="cls-2" d="M43.53,40.44h-2.87c-.09,0-.18-.05-.22-.13l-1.41-2.47c-.1-.17.03-.38.22-.38h2.85c.09-.01.18.04.22.11l1.44,2.49c.1.17-.02.38-.22.38Z"/>
  <path class="cls-2" d="M38.3,40.44h-2.87c-.09,0-.18-.05-.22-.13l-1.41-2.47c-.1-.17.03-.38.22-.38h2.85c.09-.01.18.04.22.11l1.44,2.49c.1.17-.02.38-.22.38Z"/>
  <path class="cls-2" d="M33.06,40.44h-2.87c-.09,0-.18-.05-.22-.13l-1.41-2.47c-.1-.17.03-.38.22-.38h2.85c.09-.01.18.04.22.11l1.44,2.49c.1.17-.02.38-.22.38Z"/>
  <path class="cls-2" d="M27.83,40.44h-2.87c-.09,0-.18-.05-.22-.13l-1.41-2.47c-.1-.17.03-.38.22-.38h2.85c.09-.01.18.04.22.11l1.44,2.49c.1.17-.02.38-.22.38Z"/>
  <path class="cls-2" d="M22.59,40.44h-2.87c-.09,0-.18-.05-.22-.13l-1.41-2.47c-.1-.17.03-.38.22-.38h2.85c.09-.01.18.04.22.11l1.44,2.49c.1.17-.02.38-.22.38Z"/>
  <path class="cls-2" d="M17.36,40.44h-2.87c-.09,0-.18-.05-.22-.13l-1.41-2.47c-.1-.17.03-.38.22-.38h2.85c.09-.01.18.04.22.11l1.44,2.49c.1.17-.02.38-.22.38Z"/>
  <path class="cls-2" d="M40.91,35.91h-2.87c-.09,0-.18-.05-.22-.13l-1.41-2.47c-.1-.17.03-.38.22-.38h2.85c.09-.01.18.04.22.11l1.44,2.49c.1.17-.02.38-.22.38Z"/>
  <path class="cls-2" d="M35.68,35.91h-2.87c-.09,0-.18-.05-.22-.13l-1.41-2.47c-.1-.17.03-.38.22-.38h2.85c.09-.01.18.04.22.11l1.44,2.49c.1.17-.02.38-.22.38Z"/>
  <path class="cls-2" d="M30.44,35.91h-2.87c-.09,0-.18-.05-.22-.13l-1.41-2.47c-.1-.17.03-.38.22-.38h2.85c.09-.01.18.04.22.11l1.44,2.49c.1.17-.02.38-.22.38Z"/>
  <path class="cls-2" d="M25.21,35.91h-2.87c-.09,0-.18-.05-.22-.13l-1.41-2.47c-.1-.17.03-.38.22-.38h2.85c.09-.01.18.04.22.11l1.44,2.49c.1.17-.02.38-.22.38Z"/>
  <path class="cls-2" d="M38.3,31.38h-2.87c-.09,0-.18-.05-.22-.13l-1.41-2.47c-.1-.17.03-.38.22-.38h2.85c.09-.01.18.04.22.11l1.44,2.49c.1.17-.02.38-.22.38Z"/>
  <path class="cls-2" d="M33.06,31.38h-2.87c-.09,0-.18-.05-.22-.13l-1.41-2.47c-.1-.17.03-.38.22-.38h2.85c.09-.01.18.04.22.11l1.44,2.49c.1.17-.02.38-.22.38Z"/>
  <path class="cls-2" d="M27.83,31.38h-2.87c-.09,0-.18-.05-.22-.13l-1.41-2.47c-.1-.17.03-.38.22-.38h2.85c.09-.01.18.04.22.11l1.44,2.49c.1.17-.02.38-.22.38Z"/>
  <path class="cls-2" d="M22.59,31.38h-3.41c-.09,0-.18-.05-.22-.13-.54-.9-.96-1.73-1.27-2.5-.07-.17.05-.35.23-.35.81,0,2.69-.01,3.23-.01.09,0,.18.05.22.13l1.44,2.49c.1.17-.02.38-.22.38Z"/>
  <path class="cls-2" d="M35.68,26.84h-2.87c-.09,0-.18-.05-.22-.13l-1.41-2.47c-.1-.17.03-.38.22-.38h2.85c.09-.01.18.04.22.11l1.44,2.49c.1.17-.02.38-.22.38Z"/>
  <path class="cls-2" d="M30.44,26.84h-2.87c-.09,0-.18-.05-.22-.13l-1.41-2.47c-.1-.17.03-.38.22-.38h2.85c.09-.01.18.04.22.11l1.44,2.49c.1.17-.02.38-.22.38Z"/>
  <path class="cls-2" d="M25.21,26.84h-2.87c-.09,0-.18-.05-.22-.13l-1.41-2.47c-.1-.17.03-.38.22-.38h2.85c.09-.01.18.04.22.11l1.44,2.49c.1.17-.02.38-.22.38Z"/>
  <path class="cls-2" d="M19.97,26.84h-2.53c-.13,0-.24-.09-.26-.22-.1-.83-.06-1.69.12-2.56.02-.12.13-.2.25-.21h.97c.09,0,.18.04.22.12l1.44,2.49c.1.17-.02.38-.22.38Z"/>
  <path class="cls-2" d="M33.06,22.31h-2.87c-.09,0-.18-.05-.22-.13l-1.41-2.47c-.1-.17.03-.38.22-.38h2.85c.09-.01.18.04.22.11l1.44,2.49c.1.17-.02.38-.22.38Z"/>
  <path class="cls-2" d="M27.83,22.31h-2.87c-.09,0-.18-.05-.22-.13l-1.41-2.47c-.1-.17.03-.38.22-.38h2.85c.09-.01.18.04.22.11l1.44,2.49c.1.17-.02.38-.22.38Z"/>
  <path class="cls-2" d="M22.59,22.31h-2.87c-.09,0-.18-.05-.22-.13l-.74-1.3c-.05-.09-.04-.19.01-.28.32-.45.65-.87,1.01-1.22.05-.05.11-.07.18-.07.25,0,.9,0,1.19,0,.09,0,.18.05.22.13l1.44,2.49c.1.17-.02.38-.22.38Z"/>
  <path class="cls-2" d="M26.82,16.72s1.18-.13,2.96.68c.26.12.16.5-.12.49l-2.1-.1c-.09,0-.17-.05-.21-.13l-.54-.94"/>
  <path class="cls-2" d="M25.21,17.78h-2.09c-.28,0-.36-.39-.09-.5.58-.22,1.2-.38,1.87-.48.1-.01.21.04.26.13l.24.42c.12.22,0,.43-.2.43Z"/>
  <path class="cls-2" d="M20.19,35.53l-1.7-2.95c-.05-.08-.13-.13-.22-.13-1.05-.02-1.98.04-2.8.15-.18.03-.28.22-.19.38.4.7,1.33,2.33,1.6,2.8.05.08.13.13.22.13h2.87c.2,0,.32-.21.22-.38Z"/>
  <path class="cls-2" d="M14.96,35.53l-1.26-2.19c-.06-.11-.2-.16-.32-.11-.77.33-1.49.8-2.16,1.39-.09.08-.11.22-.05.32l.48.84c.05.08.13.13.22.13h2.87c.2,0,.32-.21.22-.38Z"/>
  <path class="cls-2" d="M12.34,40.06l-1.44-2.49c-.05-.08-.13-.13-.22-.13h-1.49c-.1,0-.19.07-.23.16-.23.5-.42,1-.55,1.49-.02.06,0,.13.03.19.13.22.45.78.59,1.04.05.08.13.13.22.13h2.87c.2,0,.32-.21.22-.38Z"/>
  <path class="cls-2" d="M9.61,46.52s.48,1.09,2.07,2.23c.23.16.52-.11.36-.35l-1.14-1.77c-.05-.07-.13-.12-.22-.12h-1.08"/>
  <path class="cls-2" d="M9.73,44.6l-1.05-1.81c-.14-.25-.52-.11-.48.17.1.61.27,1.23.52,1.86.04.1.14.16.24.16h.49c.25,0,.37-.21.27-.38Z"/>
  <path class="cls-2" d="M57.59,54.1h2.87c.09,0,.18.05.22.13l1.41,2.47c.1.17-.03.38-.22.38h-2.85c-.09.01-.18-.04-.22-.11l-1.44-2.49c-.1-.17.02-.38.22-.38Z"/>
  <path class="cls-2" d="M62.82,54.1h2.87c.09,0,.18.05.22.13l1.41,2.47c.1.17-.03.38-.22.38h-2.85c-.09.01-.18-.04-.22-.11l-1.44-2.49c-.1-.17.02-.38.22-.38Z"/>
  <path class="cls-2" d="M68.06,54.1h2.87c.09,0,.18.05.22.13l1.41,2.47c.1.17-.03.38-.22.38h-2.85c-.09.01-.18-.04-.22-.11l-1.44-2.49c-.1-.17.02-.38.22-.38Z"/>
  <path class="cls-2" d="M73.29,54.1h2.87c.09,0,.18.05.22.13l1.41,2.47c.1.17-.03.38-.22.38h-2.85c-.09.01-.18-.04-.22-.11l-1.44-2.49c-.1-.17.02-.38.22-.38Z"/>
  <path class="cls-2" d="M78.53,54.1h2.87c.09,0,.18.05.22.13l1.41,2.47c.1.17-.03.38-.22.38h-2.85c-.09.01-.18-.04-.22-.11l-1.44-2.49c-.1-.17.02-.38.22-.38Z"/>
  <path class="cls-2" d="M83.76,54.1h2.87c.09,0,.18.05.22.13l1.41,2.47c.1.17-.03.38-.22.38h-2.85c-.09.01-.18-.04-.22-.11l-1.44-2.49c-.1-.17.02-.38.22-.38Z"/>
  <path class="cls-2" d="M89,54.1h2.87c.09,0,.18.05.22.13l1.41,2.47c.1.17-.03.38-.22.38h-2.85c-.09.01-.18-.04-.22-.11l-1.44-2.49c-.1-.17.02-.38.22-.38Z"/>
  <path class="cls-2" d="M60.21,58.63h2.87c.09,0,.18.05.22.13l1.41,2.47c.1.17-.03.38-.22.38h-2.85c-.09.01-.18-.04-.22-.11l-1.44-2.49c-.1-.17.02-.38.22-.38Z"/>
  <path class="cls-2" d="M65.44,58.63h2.87c.09,0,.18.05.22.13l1.41,2.47c.1.17-.03.38-.22.38h-2.85c-.09.01-.18-.04-.22-.11l-1.44-2.49c-.1-.17.02-.38.22-.38Z"/>
  <path class="cls-2" d="M70.68,58.63h2.87c.09,0,.18.05.22.13l1.41,2.47c.1.17-.03.38-.22.38h-2.85c-.09.01-.18-.04-.22-.11l-1.44-2.49c-.1-.17.02-.38.22-.38Z"/>
  <path class="cls-2" d="M75.91,58.63h2.87c.09,0,.18.05.22.13l1.41,2.47c.1.17-.03.38-.22.38h-2.85c-.09.01-.18-.04-.22-.11l-1.44-2.49c-.1-.17.02-.38.22-.38Z"/>
  <path class="cls-2" d="M81.15,58.63h2.87c.09,0,.18.05.22.13l1.41,2.47c.1.17-.03.38-.22.38h-2.85c-.09.01-.18-.04-.22-.11l-1.44-2.49c-.1-.17.02-.38.22-.38Z"/>
  <path class="cls-2" d="M86.38,58.63h2.87c.09,0,.18.05.22.13l1.41,2.47c.1.17-.03.38-.22.38h-2.85c-.09.01-.18-.04-.22-.11l-1.44-2.49c-.1-.17.02-.38.22-.38Z"/>
  <path class="cls-2" d="M91.62,58.63h2.87c.09,0,.18.05.22.13l1.41,2.47c.1.17-.03.38-.22.38h-2.85c-.09.01-.18-.04-.22-.11l-1.44-2.49c-.1-.17.02-.38.22-.38Z"/>
  <path class="cls-2" d="M62.82,63.16h2.87c.09,0,.18.05.22.13l1.41,2.47c.1.17-.03.38-.22.38h-2.85c-.09.01-.18-.04-.22-.11l-1.44-2.49c-.1-.17.02-.38.22-.38Z"/>
  <path class="cls-2" d="M68.06,63.16h2.87c.09,0,.18.05.22.13l1.41,2.47c.1.17-.03.38-.22.38h-2.85c-.09.01-.18-.04-.22-.11l-1.44-2.49c-.1-.17.02-.38.22-.38Z"/>
  <path class="cls-2" d="M73.29,63.16h2.87c.09,0,.18.05.22.13l1.41,2.47c.1.17-.03.38-.22.38h-2.85c-.09.01-.18-.04-.22-.11l-1.44-2.49c-.1-.17.02-.38.22-.38Z"/>
  <path class="cls-2" d="M78.53,63.16h2.87c.09,0,.18.05.22.13l1.41,2.47c.1.17-.03.38-.22.38h-2.85c-.09.01-.18-.04-.22-.11l-1.44-2.49c-.1-.17.02-.38.22-.38Z"/>
  <path class="cls-2" d="M83.76,63.16h2.87c.09,0,.18.05.22.13l1.41,2.47c.1.17-.03.38-.22.38h-2.85c-.09.01-.18-.04-.22-.11l-1.44-2.49c-.1-.17.02-.38.22-.38Z"/>
  <path class="cls-2" d="M89,63.16h2.87c.09,0,.18.05.22.13l1.41,2.47c.1.17-.03.38-.22.38h-2.85c-.09.01-.18-.04-.22-.11l-1.44-2.49c-.1-.17.02-.38.22-.38Z"/>
  <path class="cls-2" d="M65.44,67.7h2.87c.09,0,.18.05.22.13l1.41,2.47c.1.17-.03.38-.22.38h-2.85c-.09.01-.18-.04-.22-.11l-1.44-2.49c-.1-.17.02-.38.22-.38Z"/>
  <path class="cls-2" d="M70.68,67.7h2.87c.09,0,.18.05.22.13l1.41,2.47c.1.17-.03.38-.22.38h-2.85c-.09.01-.18-.04-.22-.11l-1.44-2.49c-.1-.17.02-.38.22-.38Z"/>
  <path class="cls-2" d="M75.91,67.7h2.87c.09,0,.18.05.22.13l1.41,2.47c.1.17-.03.38-.22.38h-2.85c-.09.01-.18-.04-.22-.11l-1.44-2.49c-.1-.17.02-.38.22-.38Z"/>
  <path class="cls-2" d="M81.15,67.7h2.87c.09,0,.18.05.22.13l1.41,2.47c.1.17-.03.38-.22.38h-2.85c-.09.01-.18-.04-.22-.11l-1.44-2.49c-.1-.17.02-.38.22-.38Z"/>
  <path class="cls-2" d="M68.06,72.23h2.87c.09,0,.18.05.22.13l1.41,2.47c.1.17-.03.38-.22.38h-2.85c-.09.01-.18-.04-.22-.11l-1.44-2.49c-.1-.17.02-.38.22-.38Z"/>
  <path class="cls-2" d="M73.29,72.23h2.87c.09,0,.18.05.22.13l1.41,2.47c.1.17-.03.38-.22.38h-2.85c-.09.01-.18-.04-.22-.11l-1.44-2.49c-.1-.17.02-.38.22-.38Z"/>
  <path class="cls-2" d="M78.53,72.23h2.87c.09,0,.18.05.22.13l1.41,2.47c.1.17-.03.38-.22.38h-2.85c-.09.01-.18-.04-.22-.11l-1.44-2.49c-.1-.17.02-.38.22-.38Z"/>
  <path class="cls-2" d="M83.76,72.23h3.41c.09,0,.18.05.22.13.54.9.96,1.73,1.27,2.5.07.17-.05.35-.23.35h-3.22c-.09.02-.18-.03-.22-.11l-1.44-2.49c-.1-.17.02-.38.22-.38Z"/>
  <path class="cls-2" d="M70.68,76.76h2.87c.09,0,.18.05.22.13l1.41,2.47c.1.17-.03.38-.22.38h-2.85c-.09.01-.18-.04-.22-.11l-1.44-2.49c-.1-.17.02-.38.22-.38Z"/>
  <path class="cls-2" d="M75.91,76.76h2.87c.09,0,.18.05.22.13l1.41,2.47c.1.17-.03.38-.22.38h-2.85c-.09.01-.18-.04-.22-.11l-1.44-2.49c-.1-.17.02-.38.22-.38Z"/>
  <path class="cls-2" d="M81.15,76.76h2.87c.09,0,.18.05.22.13l1.41,2.47c.1.17-.03.38-.22.38h-2.85c-.09.01-.18-.04-.22-.11l-1.44-2.49c-.1-.17.02-.38.22-.38Z"/>
  <path class="cls-2" d="M86.38,76.76h2.53c.13,0,.24.09.26.22.1.83.06,1.69-.12,2.56-.02.12-.13.2-.25.21h-.97c-.09,0-.18-.04-.22-.12l-1.44-2.49c-.1-.17.02-.38.22-.38Z"/>
  <path class="cls-2" d="M73.29,81.29h2.87c.09,0,.18.05.22.13l1.41,2.47c.1.17-.03.38-.22.38h-2.85c-.09.01-.18-.04-.22-.11l-1.44-2.49c-.1-.17.02-.38.22-.38Z"/>
  <path class="cls-2" d="M78.53,81.29h2.87c.09,0,.18.05.22.13l1.41,2.47c.1.17-.03.38-.22.38h-2.85c-.09.01-.18-.04-.22-.11l-1.44-2.49c-.1-.17.02-.38.22-.38Z"/>
  <path class="cls-2" d="M83.76,81.29h2.87c.09,0,.18.05.22.13l.74,1.3c.05.09.04.19-.01.28-.32.45-.65.87-1.01,1.22-.05.05-.11.07-.18.07-.25,0-.9,0-1.19,0-.09,0-.18-.05-.22-.13l-1.44-2.49c-.1-.17.02-.38.22-.38Z"/>
  <path class="cls-2" d="M79.53,86.89s-1.18.13-2.96-.68c-.26-.12-.16-.5.12-.49l2.1.1c.09,0,.17.05.21.13l.54.94"/>
  <path class="cls-2" d="M81.14,85.83h2.09c.28,0,.36.39.09.5-.58.22-1.2.38-1.87.48-.1.01-.21-.04-.26-.13l-.24-.42c-.12-.22,0-.43.2-.43Z"/>
  <path class="cls-2" d="M86.16,68.08l1.7,2.95c.05.08.13.13.22.13,1.05.02,1.98-.04,2.8-.15.18-.03.28-.22.19-.38l-1.6-2.8c-.05-.08-.13-.13-.22-.13h-2.87c-.2,0-.32.21-.22.38Z"/>
  <path class="cls-2" d="M91.39,68.08l1.26,2.19c.06.11.2.16.32.11.77-.33,1.49-.8,2.16-1.39.09-.08.11-.22.05-.32l-.48-.84c-.05-.08-.13-.13-.22-.13h-2.87c-.2,0-.32.21-.22.38Z"/>
  <path class="cls-2" d="M94.01,63.54l1.44,2.49c.05.08.13.13.22.13h1.49c.1,0,.19-.07.23-.16.23-.5.42-1,.55-1.49.02-.06,0-.13-.03-.19-.13-.22-.45-.78-.59-1.04-.05-.08-.13-.13-.22-.13h-2.87c-.2,0-.32.21-.22.38Z"/>
  <path class="cls-2" d="M96.74,57.09s-.48-1.09-2.07-2.23c-.23-.16-.52.11-.36.35l1.14,1.77c.05.07.13.12.22.12h1.08"/>
  <path class="cls-2" d="M96.63,59.01l1.05,1.81c.14.25.52.11.48-.17-.1-.61-.27-1.23-.52-1.86-.04-.1-.14-.16-.24-.16h-.54c-.2,0-.32.21-.22.38Z"/>
  <path class="cls-2" d="M48.99,54.48l-1.44,2.49c-.05.08-.13.13-.22.13h-2.85c-.2-.01-.32-.23-.22-.4l1.41-2.47c.05-.08.13-.13.22-.13h2.87c.2,0,.32.21.22.38Z"/>
  <path class="cls-2" d="M46.37,59.01l-1.44,2.49c-.05.08-.13.13-.22.13h-2.85c-.2-.01-.32-.23-.22-.4l1.41-2.47c.05-.08.13-.13.22-.13h2.87c.2,0,.32.21.22.38Z"/>
  <path class="cls-2" d="M43.75,63.55l-1.44,2.49c-.05.08-.13.13-.22.13h-2.85c-.2-.01-.32-.23-.22-.4l1.41-2.47c.05-.08.13-.13.22-.13h2.87c.2,0,.32.21.22.38Z"/>
  <path class="cls-2" d="M41.13,68.08l-1.44,2.49c-.05.08-.13.13-.22.13h-2.85c-.2-.01-.32-.23-.22-.4l1.41-2.47c.05-.08.13-.13.22-.13h2.87c.2,0,.32.21.22.38Z"/>
  <path class="cls-2" d="M38.52,72.61l-1.44,2.49c-.05.08-.13.13-.22.13h-2.85c-.2-.01-.32-.23-.22-.4l1.41-2.47c.05-.08.13-.13.22-.13h2.87c.2,0,.32.21.22.38Z"/>
  <path class="cls-2" d="M35.9,77.15l-1.44,2.49c-.05.08-.13.13-.22.13h-2.85c-.2-.01-.32-.23-.22-.4l1.41-2.47c.05-.08.13-.13.22-.13h2.87c.2,0,.32.21.22.38Z"/>
  <path class="cls-2" d="M33.28,81.68l-1.44,2.49c-.05.08-.13.13-.22.13h-2.85c-.2-.01-.32-.23-.22-.4l1.41-2.47c.05-.08.13-.13.22-.13h2.87c.2,0,.32.21.22.38Z"/>
  <path class="cls-2" d="M43.75,54.48l-1.44,2.49c-.05.08-.13.13-.22.13h-2.85c-.2-.01-.32-.23-.22-.4l1.41-2.47c.05-.08.13-.13.22-.13h2.87c.2,0,.32.21.22.38Z"/>
  <path class="cls-2" d="M41.13,59.01l-1.44,2.49c-.05.08-.13.13-.22.13h-2.85c-.2-.01-.32-.23-.22-.4l1.41-2.47c.05-.08.13-.13.22-.13h2.87c.2,0,.32.21.22.38Z"/>
  <path class="cls-2" d="M38.52,63.55l-1.44,2.49c-.05.08-.13.13-.22.13h-2.85c-.2-.01-.32-.23-.22-.4l1.41-2.47c.05-.08.13-.13.22-.13h2.87c.2,0,.32.21.22.38Z"/>
  <path class="cls-2" d="M35.9,68.08l-1.44,2.49c-.05.08-.13.13-.22.13h-2.85c-.2-.01-.32-.23-.22-.4l1.41-2.47c.05-.08.13-.13.22-.13h2.87c.2,0,.32.21.22.38Z"/>
  <path class="cls-2" d="M33.28,72.61l-1.44,2.49c-.05.08-.13.13-.22.13h-2.85c-.2-.01-.32-.23-.22-.4l1.41-2.47c.05-.08.13-.13.22-.13h2.87c.2,0,.32.21.22.38Z"/>
  <path class="cls-2" d="M30.66,77.15l-1.44,2.49c-.05.08-.13.13-.22.13h-2.85c-.2-.01-.32-.23-.22-.4l1.41-2.47c.05-.08.13-.13.22-.13h2.87c.2,0,.32.21.22.38Z"/>
  <path class="cls-2" d="M28.05,81.68l-1.44,2.49c-.05.08-.13.13-.22.13h-2.85c-.2-.01-.32-.23-.22-.4l1.41-2.47c.05-.08.13-.13.22-.13h2.87c.2,0,.32.21.22.38Z"/>
  <path class="cls-2" d="M38.52,54.48l-1.44,2.49c-.05.08-.13.13-.22.13h-2.85c-.2-.01-.32-.23-.22-.4l1.41-2.47c.05-.08.13-.13.22-.13h2.87c.2,0,.32.21.22.38Z"/>
  <path class="cls-2" d="M35.9,59.01l-1.44,2.49c-.05.08-.13.13-.22.13h-2.85c-.2-.01-.32-.23-.22-.4l1.41-2.47c.05-.08.13-.13.22-.13h2.87c.2,0,.32.21.22.38Z"/>
  <path class="cls-2" d="M33.28,63.55l-1.44,2.49c-.05.08-.13.13-.22.13h-2.85c-.2-.01-.32-.23-.22-.4l1.41-2.47c.05-.08.13-.13.22-.13h2.87c.2,0,.32.21.22.38Z"/>
  <path class="cls-2" d="M30.66,68.08l-1.44,2.49c-.05.08-.13.13-.22.13h-2.85c-.2-.01-.32-.23-.22-.4l1.41-2.47c.05-.08.13-.13.22-.13h2.87c.2,0,.32.21.22.38Z"/>
  <path class="cls-2" d="M28.05,72.61l-1.44,2.49c-.05.08-.13.13-.22.13h-2.85c-.2-.01-.32-.23-.22-.4l1.41-2.47c.05-.08.13-.13.22-.13h2.87c.2,0,.32.21.22.38Z"/>
  <path class="cls-2" d="M25.43,77.15l-1.44,2.49c-.05.08-.13.13-.22.13h-2.85c-.2-.01-.32-.23-.22-.4l1.41-2.47c.05-.08.13-.13.22-.13h2.87c.2,0,.32.21.22.38Z"/>
  <path class="cls-2" d="M33.28,54.48l-1.44,2.49c-.05.08-.13.13-.22.13h-2.85c-.2-.01-.32-.23-.22-.4l1.41-2.47c.05-.08.13-.13.22-.13h2.87c.2,0,.32.21.22.38Z"/>
  <path class="cls-2" d="M30.66,59.01l-1.44,2.49c-.05.08-.13.13-.22.13h-2.85c-.2-.01-.32-.23-.22-.4l1.41-2.47c.05-.08.13-.13.22-.13h2.87c.2,0,.32.21.22.38Z"/>
  <path class="cls-2" d="M28.05,63.55l-1.44,2.49c-.05.08-.13.13-.22.13h-2.85c-.2-.01-.32-.23-.22-.4l1.41-2.47c.05-.08.13-.13.22-.13h2.87c.2,0,.32.21.22.38Z"/>
  <path class="cls-2" d="M25.43,68.08l-1.44,2.49c-.05.08-.13.13-.22.13h-2.85c-.2-.01-.32-.23-.22-.4l1.41-2.47c.05-.08.13-.13.22-.13h2.87c.2,0,.32.21.22.38Z"/>
  <path class="cls-2" d="M28.05,54.48l-1.44,2.49c-.05.08-.13.13-.22.13h-2.85c-.2-.01-.32-.23-.22-.4l1.41-2.47c.05-.08.13-.13.22-.13h2.87c.2,0,.32.21.22.38Z"/>
  <path class="cls-2" d="M25.43,59.01l-1.44,2.49c-.05.08-.13.13-.22.13h-2.85c-.2-.01-.32-.23-.22-.4l1.41-2.47c.05-.08.13-.13.22-.13h2.87c.2,0,.32.21.22.38Z"/>
  <path class="cls-2" d="M22.81,63.55l-1.44,2.49c-.05.08-.13.13-.22.13h-2.85c-.2-.01-.32-.23-.22-.4l1.41-2.47c.05-.08.13-.13.22-.13h2.87c.2,0,.32.21.22.38Z"/>
  <path class="cls-2" d="M20.2,68.08l-1.7,2.95c-.05.08-.13.13-.22.13-1.05.02-1.98-.04-2.8-.15-.18-.03-.28-.22-.19-.38.4-.7,1.33-2.33,1.6-2.8.05-.08.13-.13.22-.13h2.87c.2,0,.32.21.22.38Z"/>
  <path class="cls-2" d="M22.81,54.48l-1.44,2.49c-.05.08-.13.13-.22.13h-2.85c-.2-.01-.32-.23-.22-.4l1.41-2.47c.05-.08.13-.13.22-.13h2.87c.2,0,.32.21.22.38Z"/>
  <path class="cls-2" d="M20.2,59.01l-1.44,2.49c-.05.08-.13.13-.22.13h-2.85c-.2-.01-.32-.23-.22-.4l1.41-2.47c.05-.08.13-.13.22-.13h2.87c.2,0,.32.21.22.38Z"/>
  <path class="cls-2" d="M17.58,63.54l-1.44,2.49c-.05.08-.13.13-.22.13h-2.85c-.2-.01-.32-.23-.22-.4l1.41-2.47c.05-.08.13-.13.22-.13h2.87c.2,0,.32.21.22.38Z"/>
  <path class="cls-2" d="M14.96,68.08l-1.26,2.19c-.06.11-.2.16-.32.11-.77-.33-1.49-.8-2.16-1.39-.09-.08-.11-.22-.05-.32l.48-.84c.05-.08.13-.13.22-.13h2.87c.2,0,.32.21.22.38Z"/>
  <path class="cls-2" d="M17.58,54.48l-1.44,2.49c-.05.08-.13.13-.22.13h-2.85c-.2-.01-.32-.23-.22-.4l1.41-2.47c.05-.08.13-.13.22-.13h2.87c.2,0,.32.21.22.38Z"/>
  <path class="cls-2" d="M14.96,59.01l-1.44,2.49c-.05.08-.13.13-.22.13h-2.85c-.2-.01-.32-.23-.22-.4l1.41-2.47c.05-.08.13-.13.22-.13h2.87c.2,0,.32.21.22.38Z"/>
  <path class="cls-2" d="M12.34,63.54l-1.44,2.49c-.05.08-.13.13-.22.13h-1.49c-.1,0-.19-.07-.23-.16-.23-.5-.42-1-.55-1.49-.02-.06,0-.13.03-.19.13-.22.45-.78.59-1.04.05-.08.13-.13.22-.13h2.87c.2,0,.32.21.22.38Z"/>
  <path class="cls-2" d="M9.62,57.09s.48-1.09,2.07-2.23c.23-.16.52.11.36.35l-1.14,1.77c-.05.07-.13.12-.22.12h-1.08"/>
  <path class="cls-2" d="M9.73,59.01l-1.05,1.81c-.14.25-.52.11-.48-.17.1-.61.27-1.23.52-1.86.04-.1.14-.16.24-.16h.49c.25,0,.37.21.27.38Z"/>
  <path class="cls-2" d="M22.59,72.23h-3.41c-.09,0-.18.05-.22.13-.54.9-.96,1.73-1.27,2.5-.07.17.05.35.23.35.81,0,2.69.01,3.23.01.09,0,.18-.05.22-.13l1.44-2.49c.1-.17-.02-.38-.22-.38Z"/>
  <path class="cls-2" d="M19.97,76.76h-2.53c-.13,0-.24.09-.26.22-.1.83-.06,1.69.12,2.56.02.12.13.2.25.21h.97c.09,0,.18-.04.22-.12l1.44-2.49c.1-.17-.02-.38-.22-.38Z"/>
  <path class="cls-2" d="M22.59,81.3h-2.87c-.09,0-.18.05-.22.13l-.74,1.3c-.05.09-.04.19.01.28.32.45.65.87,1.01,1.22.05.05.11.07.18.07.25,0,.9,0,1.19,0,.09,0,.18-.05.22-.13l1.44-2.49c.1-.17-.02-.38-.22-.38Z"/>
  <path class="cls-2" d="M26.82,86.89s1.18.13,2.96-.68c.26-.12.16-.5-.12-.49l-2.1.1c-.09,0-.17.05-.21.13l-.54.94"/>
  <path class="cls-2" d="M25.21,85.83h-2.09c-.28,0-.36.39-.09.5.58.22,1.2.38,1.87.48.1.01.21-.04.26-.13l.24-.42c.12-.22,0-.43-.2-.43Z"/>
  <path class="cls-2" d="M57.37,49.13l1.44-2.49c.05-.08.13-.13.22-.13h2.85c.2.01.32.23.22.4l-1.41,2.47c-.05.08-.13.13-.22.13h-2.87c-.2,0-.32-.21-.22-.38Z"/>
  <path class="cls-2" d="M59.99,44.59l1.44-2.49c.05-.08.13-.13.22-.13h2.85c.2.01.32.23.22.4l-1.41,2.47c-.05.08-.13.13-.22.13h-2.87c-.2,0-.32-.21-.22-.38Z"/>
  <path class="cls-2" d="M62.6,40.06l1.44-2.49c.05-.08.13-.13.22-.13h2.85c.2.01.32.23.22.4l-1.41,2.47c-.05.08-.13.13-.22.13h-2.87c-.2,0-.32-.21-.22-.38Z"/>
  <path class="cls-2" d="M65.22,35.53l1.44-2.49c.05-.08.13-.13.22-.13h2.85c.2.01.32.23.22.4l-1.41,2.47c-.05.08-.13.13-.22.13h-2.87c-.2,0-.32-.21-.22-.38Z"/>
  <path class="cls-2" d="M67.84,30.99l1.44-2.49c.05-.08.13-.13.22-.13h2.85c.2.01.32.23.22.4l-1.41,2.47c-.05.08-.13.13-.22.13h-2.87c-.2,0-.32-.21-.22-.38Z"/>
  <path class="cls-2" d="M70.46,26.46l1.44-2.49c.05-.08.13-.13.22-.13h2.85c.2.01.32.23.22.4l-1.41,2.47c-.05.08-.13.13-.22.13h-2.87c-.2,0-.32-.21-.22-.38Z"/>
  <path class="cls-2" d="M73.07,21.93l1.44-2.49c.05-.08.13-.13.22-.13h2.85c.2.01.32.23.22.4l-1.41,2.47c-.05.08-.13.13-.22.13h-2.87c-.2,0-.32-.21-.22-.38Z"/>
  <path class="cls-2" d="M62.6,49.13l1.44-2.49c.05-.08.13-.13.22-.13h2.85c.2.01.32.23.22.4l-1.41,2.47c-.05.08-.13.13-.22.13h-2.87c-.2,0-.32-.21-.22-.38Z"/>
  <path class="cls-2" d="M65.22,44.59l1.44-2.49c.05-.08.13-.13.22-.13h2.85c.2.01.32.23.22.4l-1.41,2.47c-.05.08-.13.13-.22.13h-2.87c-.2,0-.32-.21-.22-.38Z"/>
  <path class="cls-2" d="M67.84,40.06l1.44-2.49c.05-.08.13-.13.22-.13h2.85c.2.01.32.23.22.4l-1.41,2.47c-.05.08-.13.13-.22.13h-2.87c-.2,0-.32-.21-.22-.38Z"/>
  <path class="cls-2" d="M70.46,35.53l1.44-2.49c.05-.08.13-.13.22-.13h2.85c.2.01.32.23.22.4l-1.41,2.47c-.05.08-.13.13-.22.13h-2.87c-.2,0-.32-.21-.22-.38Z"/>
  <path class="cls-2" d="M73.07,30.99l1.44-2.49c.05-.08.13-.13.22-.13h2.85c.2.01.32.23.22.4l-1.41,2.47c-.05.08-.13.13-.22.13h-2.87c-.2,0-.32-.21-.22-.38Z"/>
  <path class="cls-2" d="M75.69,26.46l1.44-2.49c.05-.08.13-.13.22-.13h2.85c.2.01.32.23.22.4l-1.41,2.47c-.05.08-.13.13-.22.13h-2.87c-.2,0-.32-.21-.22-.38Z"/>
  <path class="cls-2" d="M78.31,21.93l1.44-2.49c.05-.08.13-.13.22-.13h2.85c.2.01.32.23.22.4l-1.41,2.47c-.05.08-.13.13-.22.13h-2.87c-.2,0-.32-.21-.22-.38Z"/>
  <path class="cls-2" d="M67.84,49.13l1.44-2.49c.05-.08.13-.13.22-.13h2.85c.2.01.32.23.22.4l-1.41,2.47c-.05.08-.13.13-.22.13h-2.87c-.2,0-.32-.21-.22-.38Z"/>
  <path class="cls-2" d="M70.46,44.59l1.44-2.49c.05-.08.13-.13.22-.13h2.85c.2.01.32.23.22.4l-1.41,2.47c-.05.08-.13.13-.22.13h-2.87c-.2,0-.32-.21-.22-.38Z"/>
  <path class="cls-2" d="M73.07,40.06l1.44-2.49c.05-.08.13-.13.22-.13h2.85c.2.01.32.23.22.4l-1.41,2.47c-.05.08-.13.13-.22.13h-2.87c-.2,0-.32-.21-.22-.38Z"/>
  <path class="cls-2" d="M75.69,35.53l1.44-2.49c.05-.08.13-.13.22-.13h2.85c.2.01.32.23.22.4l-1.41,2.47c-.05.08-.13.13-.22.13h-2.87c-.2,0-.32-.21-.22-.38Z"/>
  <path class="cls-2" d="M78.31,30.99l1.44-2.49c.05-.08.13-.13.22-.13h2.85c.2.01.32.23.22.4l-1.41,2.47c-.05.08-.13.13-.22.13h-2.87c-.2,0-.32-.21-.22-.38Z"/>
  <path class="cls-2" d="M80.92,26.46l1.44-2.49c.05-.08.13-.13.22-.13h2.85c.2.01.32.23.22.4l-1.41,2.47c-.05.08-.13.13-.22.13h-2.87c-.2,0-.32-.21-.22-.38Z"/>
  <path class="cls-2" d="M73.07,49.13l1.44-2.49c.05-.08.13-.13.22-.13h2.85c.2.01.32.23.22.4l-1.41,2.47c-.05.08-.13.13-.22.13h-2.87c-.2,0-.32-.21-.22-.38Z"/>
  <path class="cls-2" d="M75.69,44.59l1.44-2.49c.05-.08.13-.13.22-.13h2.85c.2.01.32.23.22.4l-1.41,2.47c-.05.08-.13.13-.22.13h-2.87c-.2,0-.32-.21-.22-.38Z"/>
  <path class="cls-2" d="M78.31,40.06l1.44-2.49c.05-.08.13-.13.22-.13h2.85c.2.01.32.23.22.4l-1.41,2.47c-.05.08-.13.13-.22.13h-2.87c-.2,0-.32-.21-.22-.38Z"/>
  <path class="cls-2" d="M80.92,35.53l1.44-2.49c.05-.08.13-.13.22-.13h2.85c.2.01.32.23.22.4l-1.41,2.47c-.05.08-.13.13-.22.13h-2.87c-.2,0-.32-.21-.22-.38Z"/>
  <path class="cls-2" d="M78.31,49.13l1.44-2.49c.05-.08.13-.13.22-.13h2.85c.2.01.32.23.22.4l-1.41,2.47c-.05.08-.13.13-.22.13h-2.87c-.2,0-.32-.21-.22-.38Z"/>
  <path class="cls-2" d="M80.92,44.59l1.44-2.49c.05-.08.13-.13.22-.13h2.85c.2.01.32.23.22.4l-1.41,2.47c-.05.08-.13.13-.22.13h-2.87c-.2,0-.32-.21-.22-.38Z"/>
  <path class="cls-2" d="M83.54,40.06l1.44-2.49c.05-.08.13-.13.22-.13h2.85c.2.01.32.23.22.4l-1.41,2.47c-.05.08-.13.13-.22.13h-2.87c-.2,0-.32-.21-.22-.38Z"/>
  <path class="cls-2" d="M86.16,35.53l1.7-2.95c.05-.08.13-.13.22-.13,1.05-.02,1.98.04,2.8.15.18.03.28.22.19.38l-1.6,2.8c-.05.08-.13.13-.22.13h-2.87c-.2,0-.32-.21-.22-.38Z"/>
  <path class="cls-2" d="M83.54,49.13l1.44-2.49c.05-.08.13-.13.22-.13h2.85c.2.01.32.23.22.4l-1.41,2.47c-.05.08-.13.13-.22.13h-2.87c-.2,0-.32-.21-.22-.38Z"/>
  <path class="cls-2" d="M86.16,44.59l1.44-2.49c.05-.08.13-.13.22-.13h2.85c.2.01.32.23.22.4l-1.41,2.47c-.05.08-.13.13-.22.13h-2.87c-.2,0-.32-.21-.22-.38Z"/>
  <path class="cls-2" d="M88.78,40.06l1.44-2.49c.05-.08.13-.13.22-.13h2.85c.2.01.32.23.22.4l-1.41,2.47c-.05.08-.13.13-.22.13h-2.87c-.2,0-.32-.21-.22-.38Z"/>
  <path class="cls-2" d="M91.39,35.53l1.26-2.19c.06-.11.2-.16.32-.11.77.33,1.49.8,2.16,1.39.09.08.11.22.05.32l-.48.84c-.05.08-.13.13-.22.13h-2.87c-.2,0-.32-.21-.22-.38Z"/>
  <path class="cls-2" d="M88.78,49.13l1.44-2.49c.05-.08.13-.13.22-.13h2.85c.2.01.32.23.22.4l-1.41,2.47c-.05.08-.13.13-.22.13h-2.87c-.2,0-.32-.21-.22-.38Z"/>
  <path class="cls-2" d="M91.39,44.6l1.44-2.49c.05-.08.13-.13.22-.13h2.85c.2.01.32.23.22.4l-1.41,2.47c-.05.08-.13.13-.22.13h-2.87c-.2,0-.32-.21-.22-.38Z"/>
  <path class="cls-2" d="M94.01,40.06l1.44-2.49c.05-.08.13-.13.22-.13h1.49c.1,0,.19.07.23.16.23.5.42,1,.55,1.49.02.06,0,.13-.03.19-.13.22-.45.78-.59,1.04-.05.08-.13.13-.22.13h-2.87c-.2,0-.32-.21-.22-.38Z"/>
  <path class="cls-2" d="M96.74,46.52s-.48,1.09-2.07,2.23c-.23.16-.52-.11-.36-.35l1.14-1.77c.05-.07.13-.12.22-.12h1.08"/>
  <path class="cls-2" d="M96.63,44.6l1.05-1.81c.14-.25.52-.11.48.17-.1.61-.27,1.23-.52,1.86-.04.1-.14.16-.24.16h-.54c-.2,0-.32-.21-.22-.38Z"/>
  <path class="cls-2" d="M83.76,31.38h3.41c.09,0,.18-.05.22-.13.54-.9.96-1.73,1.27-2.5.07-.17-.05-.35-.23-.35h-3.22c-.09-.02-.18.03-.22.11l-1.44,2.49c-.1.17.02.38.22.38Z"/>
  <path class="cls-2" d="M86.38,26.84h2.53c.13,0,.24-.09.26-.22.1-.83.06-1.69-.12-2.56-.02-.12-.13-.2-.25-.21h-.97c-.09,0-.18.04-.22.12l-1.44,2.49c-.1.17.02.38.22.38Z"/>
  <path class="cls-2" d="M83.76,22.31h2.87c.09,0,.18-.05.22-.13l.74-1.3c.05-.09.04-.19-.01-.28-.32-.45-.65-.87-1.01-1.22-.05-.05-.11-.07-.18-.07-.25,0-.9,0-1.19,0-.09,0-.18.05-.22.13l-1.44,2.49c-.1.17.02.38.22.38Z"/>
  <path class="cls-2" d="M79.53,16.72s-1.18-.13-2.96.68c-.26.12-.16.5.12.49l2.1-.1c.09,0,.17-.05.21-.13l.54-.94"/>
  <path class="cls-2" d="M81.14,17.78h2.09c.28,0,.36-.39.09-.5-.58-.22-1.2-.38-1.87-.48-.1-.01-.21.04-.26.13l-.24.42c-.12.22,0,.43.2.43Z"/>
</svg>