<?xml version="1.0" encoding="UTF-8"?>
<svg id="Layer_1" data-name="Layer 1" xmlns="http://www.w3.org/2000/svg" xmlns:xlink="http://www.w3.org/1999/xlink" viewBox="0 0 105 105">
  <defs>
    <style>
      .cls-1 {
        fill: url(#radial-gradient);
        filter: url(#drop-shadow-1);
      }

      .cls-1, .cls-2 {
        stroke-width: 0px;
      }

      .cls-2 {
        fill: url(#radial-gradient-2);
      }

      .cls-3 {
        fill: none;
        filter: url(#drop-shadow-2);
        stroke: url(#linear-gradient);
        stroke-miterlimit: 10;
      }
    </style>
    <radialGradient id="radial-gradient" cx="52.5" cy="52.5" fx="52.5" fy="52.5" r="49.79" gradientUnits="userSpaceOnUse">
      <stop offset="0" stop-color="#e6bf6f"/>
      <stop offset="1" stop-color="#efd199"/>
    </radialGradient>
    <filter id="drop-shadow-1" filterUnits="userSpaceOnUse">
      <feOffset dx="0" dy="0"/>
      <feGaussianBlur result="blur" stdDeviation="5"/>
      <feFlood flood-color="#000" flood-opacity=".25"/>
      <feComposite in2="blur" operator="in"/>
      <feComposite in="SourceGraphic"/>
    </filter>
    <linearGradient id="linear-gradient" x1="2.41" y1="52.5" x2="102.59" y2="52.5" gradientUnits="userSpaceOnUse">
      <stop offset="0" stop-color="#e7bb68"/>
      <stop offset="1" stop-color="#e2b253"/>
    </linearGradient>
    <filter id="drop-shadow-2" filterUnits="userSpaceOnUse">
      <feOffset dx="0" dy="0"/>
      <feGaussianBlur result="blur-2" stdDeviation="5"/>
      <feFlood flood-color="#000" flood-opacity=".25"/>
      <feComposite in2="blur-2" operator="in"/>
      <feComposite in="SourceGraphic"/>
    </filter>
    <radialGradient id="radial-gradient-2" cx="52.5" cy="52.5" fx="52.5" fy="52.5" r="47.24" gradientUnits="userSpaceOnUse">
      <stop offset="0" stop-color="#e2b253"/>
      <stop offset="1" stop-color="#e7bb68"/>
    </radialGradient>
  </defs>
  <path class="cls-1" d="M96.79,52.5c3.21-2.39,5.3-6.24,5.3-10.56,0-5.99-3.99-11.05-9.43-12.62.53-2.13.51-4.38-.09-6.56-.92-3.36-3.1-6.17-6.13-7.92-2.01-1.16-4.29-1.77-6.6-1.77-1.82,0-3.58.38-5.2,1.08-.46-3.98-2.75-7.71-6.5-9.87-2.01-1.16-4.29-1.77-6.6-1.77-3.42,0-6.66,1.34-9.05,3.64-2.39-2.3-5.63-3.64-9.05-3.64-2.31,0-4.59.61-6.6,1.77-3.75,2.16-6.03,5.9-6.5,9.87-1.62-.7-3.38-1.08-5.2-1.08-2.31,0-4.59.61-6.6,1.77-3.03,1.75-5.21,4.56-6.13,7.92-.6,2.18-.62,4.43-.09,6.56-5.44,1.57-9.43,6.63-9.43,12.62,0,4.33,2.09,8.17,5.3,10.56-3.21,2.39-5.3,6.24-5.3,10.56,0,5.99,3.99,11.05,9.43,12.62-1.36,5.49,1.03,11.48,6.21,14.48,2.01,1.16,4.29,1.77,6.6,1.77,1.81,0,3.58-.38,5.19-1.08.08.65.2,1.3.38,1.95.92,3.36,3.1,6.17,6.13,7.92,2.01,1.16,4.29,1.77,6.6,1.77h0c3.42,0,6.66-1.34,9.05-3.64,2.39,2.3,5.63,3.64,9.05,3.64,2.31,0,4.59-.61,6.6-1.77,3.03-1.75,5.21-4.56,6.13-7.92.18-.65.3-1.3.38-1.95,1.61.7,3.38,1.08,5.19,1.08h0c2.3,0,4.59-.61,6.6-1.77,3.03-1.75,5.21-4.56,6.13-7.92.6-2.18.62-4.43.09-6.56,5.44-1.57,9.43-6.63,9.43-12.62,0-4.33-2.09-8.17-5.3-10.56Z"/>
  <path class="cls-3" d="M96.79,52.5c3.21-2.39,5.3-6.24,5.3-10.56,0-5.99-3.99-11.05-9.43-12.62.53-2.13.51-4.38-.09-6.56-.92-3.36-3.1-6.17-6.13-7.92-2.01-1.16-4.29-1.77-6.6-1.77-1.82,0-3.58.38-5.2,1.08-.46-3.98-2.75-7.71-6.5-9.87-2.01-1.16-4.29-1.77-6.6-1.77-3.42,0-6.66,1.34-9.05,3.64-2.39-2.3-5.63-3.64-9.05-3.64-2.31,0-4.59.61-6.6,1.77-3.75,2.16-6.03,5.9-6.5,9.87-1.62-.7-3.38-1.08-5.2-1.08-2.31,0-4.59.61-6.6,1.77-3.03,1.75-5.21,4.56-6.13,7.92-.6,2.18-.62,4.43-.09,6.56-5.44,1.57-9.43,6.63-9.43,12.62,0,4.33,2.09,8.17,5.3,10.56-3.21,2.39-5.3,6.24-5.3,10.56,0,5.99,3.99,11.05,9.43,12.62-1.36,5.49,1.03,11.48,6.21,14.48,2.01,1.16,4.29,1.77,6.6,1.77,1.81,0,3.58-.38,5.19-1.08.08.65.2,1.3.38,1.95.92,3.36,3.1,6.17,6.13,7.92,2.01,1.16,4.29,1.77,6.6,1.77h0c3.42,0,6.66-1.34,9.05-3.64,2.39,2.3,5.63,3.64,9.05,3.64,2.31,0,4.59-.61,6.6-1.77,3.03-1.75,5.21-4.56,6.13-7.92.18-.65.3-1.3.38-1.95,1.61.7,3.38,1.08,5.19,1.08h0c2.3,0,4.59-.61,6.6-1.77,3.03-1.75,5.21-4.56,6.13-7.92.6-2.18.62-4.43.09-6.56,5.44-1.57,9.43-6.63,9.43-12.62,0-4.33-2.09-8.17-5.3-10.56Z"/>
  <path class="cls-2" d="M52.5,50.5h0s0,0,0,0l19.31-33.45c.23-.4.36-.85.37-1.31.03-3.67-1.88-7.26-5.31-9.25-5.05-2.92-11.48-1.24-14.37,3.76-2.88-4.99-9.31-6.67-14.37-3.76-3.43,1.98-5.34,5.58-5.31,9.25,0,.46.14.91.37,1.31l19.31,33.45ZM36.57,20.33l-1.44-2.49c-.05-.08-.05-.18,0-.26l1.44-2.46c.1-.17.34-.17.44,0l1.44,2.46c.05.08.05.18,0,.26l-1.44,2.49c-.1.17-.34.17-.44,0ZM39.19,24.86l-1.44-2.49c-.05-.08-.05-.18,0-.26l1.44-2.46c.1-.17.34-.17.44,0l1.44,2.46c.05.08.05.18,0,.26l-1.44,2.49c-.1.17-.34.17-.44,0ZM62.01,22.12c.05.08.05.18,0,.26l-1.44,2.49c-.1.17-.34.17-.44,0l-1.44-2.49c-.05-.08-.05-.18,0-.26l1.44-2.46c.1-.17.34-.17.44,0l1.44,2.46ZM61.31,17.59l1.44-2.46c.1-.17.34-.17.44,0l1.44,2.46c.05.08.05.18,0,.26l-1.44,2.49c-.1.17-.34.17-.44,0l-1.44-2.49c-.05-.08-.05-.18,0-.26ZM48.23,31.19l1.44-2.46c.1-.17.34-.17.44,0l1.44,2.46c.05.08.05.18,0,.26l-1.44,2.49c-.1.17-.34.17-.44,0l-1.44-2.49c-.05-.08-.05-.18,0-.26ZM47.49,29.4c-.1.17-.34.17-.44,0l-1.44-2.49c-.05-.08-.05-.18,0-.26l1.44-2.46c.1-.17.34-.17.44,0l1.44,2.46c.05.08.05.18,0,.26l-1.44,2.49ZM50.84,35.72l1.44-2.46c.1-.17.34-.17.44,0l1.44,2.46c.05.08.05.18,0,.26l-1.44,2.49c-.1.17-.34.17-.44,0l-1.44-2.49c-.05-.08-.05-.18,0-.26ZM53.46,31.45c-.05-.08-.05-.18,0-.26l1.44-2.46c.1-.17.34-.17.44,0l1.44,2.46c.05.08.05.18,0,.26l-1.44,2.49c-.1.17-.34.17-.44,0l-1.44-2.49ZM56.08,26.91c-.05-.08-.05-.18,0-.26l1.44-2.46c.1-.17.34-.17.44,0l1.44,2.46c.05.08.05.18,0,.26l-1.44,2.49c-.1.17-.34.17-.44,0l-1.44-2.49ZM59.39,17.85l-1.44,2.49c-.1.17-.34.17-.44,0l-1.44-2.49c-.05-.08-.05-.18,0-.26l1.44-2.46c.1-.17.34-.17.44,0l1.44,2.46c.05.08.05.18,0,.26ZM56.77,22.12c.05.08.05.18,0,.26l-1.44,2.49c-.1.17-.34.17-.44,0l-1.44-2.49c-.05-.08-.05-.18,0-.26l1.44-2.46c.1-.17.34-.17.44,0l1.44,2.46ZM54.16,26.66c.05.08.05.18,0,.26l-1.44,2.49c-.1.17-.34.17-.44,0l-1.44-2.49c-.05-.08-.05-.18,0-.26l1.44-2.46c.1-.17.34-.17.44,0l1.44,2.46ZM51.54,22.38l-1.44,2.49c-.1.17-.34.17-.44,0l-1.44-2.49c-.05-.08-.05-.18,0-.26l1.44-2.46c.1-.17.34-.17.44,0l1.44,2.46c.05.08.05.18,0,.26ZM48.92,17.85l-1.44,2.49c-.1.17-.34.17-.44,0l-1.44-2.49c-.05-.08-.05-.18,0-.26l1.44-2.46c.1-.17.34-.17.44,0l1.44,2.46c.05.08.05.18,0,.26ZM46.3,22.12c.05.08.05.18,0,.26l-1.44,2.49c-.1.17-.34.17-.44,0l-1.44-2.49c-.05-.08-.05-.18,0-.26l1.44-2.46c.1-.17.34-.17.44,0l1.44,2.46ZM43.69,17.85l-1.44,2.49c-.1.17-.34.17-.44,0l-1.44-2.49c-.05-.08-.05-.18,0-.26l1.44-2.46c.1-.17.34-.17.44,0l1.44,2.46c.05.08.05.18,0,.26ZM41.81,29.4l-1.44-2.49c-.05-.08-.05-.18,0-.26l1.44-2.46c.1-.17.34-.17.44,0l1.44,2.46c.05.08.05.18,0,.26l-1.44,2.49c-.1.17-.34.17-.44,0ZM44.43,33.93l-1.44-2.49c-.05-.08-.05-.18,0-.26l1.44-2.46c.1-.17.34-.17.44,0l1.44,2.46c.05.08.05.18,0,.26l-1.44,2.49c-.1.17-.34.17-.44,0ZM47.04,38.46l-1.44-2.49c-.05-.08-.05-.18,0-.26l1.44-2.46c.1-.17.34-.17.44,0l1.44,2.46c.05.08.05.18,0,.26l-1.44,2.49c-.1.17-.34.17-.44,0ZM49.66,43l-1.44-2.49c-.05-.08-.05-.18,0-.26l1.44-2.46c.1-.17.34-.17.44,0l1.44,2.46c.05.08.05.18,0,.26l-1.44,2.49c-.1.17-.34.17-.44,0ZM54.16,45.05l-1.44,2.49c-.1.17-.34.17-.44,0l-1.44-2.49c-.05-.08-.05-.18,0-.26l1.44-2.46c.1-.17.34-.17.44,0l1.44,2.46c.05.08.05.18,0,.26ZM56.77,40.51l-1.44,2.49c-.1.17-.34.17-.44,0l-1.44-2.49c-.05-.08-.05-.18,0-.26l1.44-2.46c.1-.17.34-.17.44,0l1.44,2.46c.05.08.05.18,0,.26ZM59.39,35.98l-1.44,2.49c-.1.17-.34.17-.44,0l-1.44-2.49c-.05-.08-.05-.18,0-.26l1.44-2.46c.1-.17.34-.17.44,0l1.44,2.46c.05.08.05.18,0,.26ZM62.01,31.45l-1.44,2.49c-.1.17-.34.17-.44,0l-1.44-2.49c-.05-.08-.05-.18,0-.26l1.44-2.46c.1-.17.34-.17.44,0l1.44,2.46c.05.08.05.18,0,.26ZM64.63,26.91l-1.44,2.49c-.1.17-.34.17-.44,0l-1.44-2.49c-.05-.08-.05-.18,0-.26l1.44-2.46c.1-.17.34-.17.44,0l1.44,2.46c.05.08.05.18,0,.26ZM67.24,22.38l-1.44,2.49c-.1.17-.34.17-.44,0l-1.44-2.49c-.05-.08-.05-.18,0-.26l1.44-2.46c.1-.17.34-.17.44,0l1.44,2.46c.05.08.05.18,0,.26ZM69.86,17.85l-1.44,2.49c-.1.17-.34.17-.44,0l-1.44-2.49c-.05-.08-.05-.18,0-.26l1.44-2.46c.1-.17.34-.17.44,0l1.44,2.46c.05.08.05.18,0,.26ZM69.16,13.06l.54-.93s.7.96.9,2.9c.03.28-.35.39-.48.14l-.96-1.87c-.04-.08-.04-.17,0-.25ZM67.32,9.13c.48.39.93.84,1.35,1.38.06.08.07.2.02.29l-.24.42c-.12.22-.37.22-.47.05l-1.04-1.81c-.14-.25.16-.51.38-.33ZM65.81,10.6l1.44,2.46c.05.08.05.18,0,.26l-1.44,2.49c-.1.17-.34.17-.44,0l-1.44-2.49c-.05-.08-.05-.18,0-.26l1.44-2.46c.1-.17.34-.17.44,0ZM61.31,8.52l.75-1.29c.05-.09.15-.14.24-.13.55.05,1.08.13,1.56.27.06.02.12.06.15.12.13.22.45.78.6,1.03.05.08.05.18,0,.26l-1.44,2.49c-.1.17-.34.17-.44,0l-1.44-2.49c-.05-.08-.05-.18,0-.26ZM60.57,10.6l1.44,2.46c.05.08.05.18,0,.26l-1.44,2.49c-.1.17-.34.17-.44,0l-1.44-2.49c-.05-.08-.05-.18,0-.26l1.44-2.46c.1-.17.34-.17.44,0ZM56.32,8.75c.67-.5,1.43-.89,2.28-1.18.11-.04.24.01.3.12l.49.84c.05.08.05.18,0,.26l-1.44,2.49c-.1.17-.34.17-.44,0l-1.26-2.19c-.06-.11-.04-.26.06-.33ZM53.19,12.59c.51-.91,1.02-1.69,1.53-2.35.11-.14.33-.13.42.03l1.63,2.79c.05.08.05.18,0,.26l-1.44,2.49c-.1.17-.34.17-.44,0l-1.7-2.95c-.05-.08-.05-.18,0-.25ZM52.72,15.13l1.44,2.46c.05.08.05.18,0,.26l-1.44,2.49c-.1.17-.34.17-.44,0l-1.44-2.49c-.05-.08-.05-.18,0-.26l1.44-2.46c.1-.17.34-.17.44,0ZM50.28,10.24c.51.65,1.03,1.43,1.53,2.35.04.08.04.18,0,.25l-1.7,2.95c-.1.17-.34.17-.44,0l-1.44-2.49c-.05-.08-.05-.18,0-.26.27-.47,1.22-2.09,1.63-2.79.09-.16.31-.17.42-.03ZM45.61,8.52l.49-.84c.06-.1.19-.15.3-.12.85.29,1.61.67,2.28,1.18.1.08.13.22.06.33l-1.26,2.19c-.1.17-.34.17-.44,0l-1.44-2.49c-.05-.08-.05-.18,0-.26ZM44.87,10.6l1.44,2.46c.05.08.05.18,0,.26l-1.44,2.49c-.1.17-.34.17-.44,0l-1.44-2.49c-.05-.08-.05-.18,0-.26l1.44-2.46c.1-.17.34-.17.44,0ZM40.37,8.52c.15-.25.47-.81.6-1.03.03-.06.09-.1.15-.12.48-.14,1.01-.22,1.56-.27.1,0,.19.04.24.13l.75,1.29c.05.08.05.18,0,.26l-1.44,2.49c-.1.17-.34.17-.44,0l-1.44-2.49c-.05-.08-.05-.18,0-.26ZM39.19,10.6c.1-.17.34-.17.44,0l1.44,2.46c.05.08.05.18,0,.26l-1.44,2.49c-.1.17-.34.17-.44,0l-1.44-2.49c-.05-.08-.05-.18,0-.26l1.44-2.46ZM36.32,10.51c.42-.54.87-.99,1.35-1.38.22-.18.53.08.38.33l-1.04,1.81c-.1.17-.34.17-.47-.05l-.24-.42c-.05-.09-.04-.21.02-.29ZM35.29,12.13l.54.93c.04.08.05.17,0,.25l-.96,1.87c-.13.25-.51.14-.48-.14.19-1.95.9-2.9.9-2.9ZM52.5,54.5h0s0,0,0,0l-19.31,33.45c-.23.4-.36.85-.37,1.31-.03,3.67,1.88,7.27,5.31,9.25,5.05,2.92,11.48,1.24,14.37-3.76,2.88,4.99,9.31,6.67,14.37,3.76,3.43-1.98,5.35-5.58,5.31-9.25,0-.46-.14-.91-.37-1.31l-19.31-33.45ZM68.43,84.67l1.44,2.49c.05.08.05.18,0,.26l-1.44,2.46c-.1.17-.34.17-.44,0l-1.44-2.46c-.05-.08-.05-.18,0-.26l1.44-2.49c.1-.17.34-.17.44,0ZM65.81,80.14l1.44,2.49c.05.08.05.18,0,.26l-1.44,2.46c-.1.17-.34.17-.44,0l-1.44-2.46c-.05-.08-.05-.18,0-.26l1.44-2.49c.1-.17.34-.17.44,0ZM42.99,82.88c-.05-.08-.05-.18,0-.26l1.44-2.49c.1-.17.34-.17.44,0l1.44,2.49c.05.08.05.18,0,.26l-1.44,2.46c-.1.17-.34.17-.44,0l-1.44-2.46ZM43.69,87.41l-1.44,2.46c-.1.17-.34.17-.44,0l-1.44-2.46c-.05-.08-.05-.18,0-.26l1.44-2.49c.1-.17.34-.17.44,0l1.44,2.49c.05.08.05.18,0,.26ZM56.77,73.81l-1.44,2.46c-.1.17-.34.17-.44,0l-1.44-2.46c-.05-.08-.05-.18,0-.26l1.44-2.49c.1-.17.34-.17.44,0l1.44,2.49c.05.08.05.18,0,.26ZM57.51,75.6c.1-.17.34-.17.44,0l1.44,2.49c.05.08.05.18,0,.26l-1.44,2.46c-.1.17-.34.17-.44,0l-1.44-2.46c-.05-.08-.05-.18,0-.26l1.44-2.49ZM54.16,69.28l-1.44,2.46c-.1.17-.34.17-.44,0l-1.44-2.46c-.05-.08-.05-.18,0-.26l1.44-2.49c.1-.17.34-.17.44,0l1.44,2.49c.05.08.05.18,0,.26ZM51.54,73.55c.05.08.05.18,0,.26l-1.44,2.46c-.1.17-.34.17-.44,0l-1.44-2.46c-.05-.08-.05-.18,0-.26l1.44-2.49c.1-.17.34-.17.44,0l1.44,2.49ZM48.92,78.09c.05.08.05.18,0,.26l-1.44,2.46c-.1.17-.34.17-.44,0l-1.44-2.46c-.05-.08-.05-.18,0-.26l1.44-2.49c.1-.17.34-.17.44,0l1.44,2.49ZM45.61,87.15l1.44-2.49c.1-.17.34-.17.44,0l1.44,2.49c.05.08.05.18,0,.26l-1.44,2.46c-.1.17-.34.17-.44,0l-1.44-2.46c-.05-.08-.05-.18,0-.26ZM48.23,82.88c-.05-.08-.05-.18,0-.26l1.44-2.49c.1-.17.34-.17.44,0l1.44,2.49c.05.08.05.18,0,.26l-1.44,2.46c-.1.17-.34.17-.44,0l-1.44-2.46ZM50.84,78.34c-.05-.08-.05-.18,0-.26l1.44-2.49c.1-.17.34-.17.44,0l1.44,2.49c.05.08.05.18,0,.26l-1.44,2.46c-.1.17-.34.17-.44,0l-1.44-2.46ZM53.46,82.62l1.44-2.49c.1-.17.34-.17.44,0l1.44,2.49c.05.08.05.18,0,.26l-1.44,2.46c-.1.17-.34.17-.44,0l-1.44-2.46c-.05-.08-.05-.18,0-.26ZM56.08,87.15l1.44-2.49c.1-.17.34-.17.44,0l1.44,2.49c.05.08.05.18,0,.26l-1.44,2.46c-.1.17-.34.17-.44,0l-1.44-2.46c-.05-.08-.05-.18,0-.26ZM58.7,82.88c-.05-.08-.05-.18,0-.26l1.44-2.49c.1-.17.34-.17.44,0l1.44,2.49c.05.08.05.18,0,.26l-1.44,2.46c-.1.17-.34.17-.44,0l-1.44-2.46ZM61.31,87.15l1.44-2.49c.1-.17.34-.17.44,0l1.44,2.49c.05.08.05.18,0,.26l-1.44,2.46c-.1.17-.34.17-.44,0l-1.44-2.46c-.05-.08-.05-.18,0-.26ZM63.19,75.6l1.44,2.49c.05.08.05.18,0,.26l-1.44,2.46c-.1.17-.34.17-.44,0l-1.44-2.46c-.05-.08-.05-.18,0-.26l1.44-2.49c.1-.17.34-.17.44,0ZM60.57,71.07l1.44,2.49c.05.08.05.18,0,.26l-1.44,2.46c-.1.17-.34.17-.44,0l-1.44-2.46c-.05-.08-.05-.18,0-.26l1.44-2.49c.1-.17.34-.17.44,0ZM57.96,66.54l1.44,2.49c.05.08.05.18,0,.26l-1.44,2.46c-.1.17-.34.17-.44,0l-1.44-2.46c-.05-.08-.05-.18,0-.26l1.44-2.49c.1-.17.34-.17.44,0ZM55.34,62l1.44,2.49c.05.08.05.18,0,.26l-1.44,2.46c-.1.17-.34.17-.44,0l-1.44-2.46c-.05-.08-.05-.18,0-.26l1.44-2.49c.1-.17.34-.17.44,0ZM50.84,59.95l1.44-2.49c.1-.17.34-.17.44,0l1.44,2.49c.05.08.05.18,0,.26l-1.44,2.46c-.1.17-.34.17-.44,0l-1.44-2.46c-.05-.08-.05-.18,0-.26ZM48.23,64.49l1.44-2.49c.1-.17.34-.17.44,0l1.44,2.49c.05.08.05.18,0,.26l-1.44,2.46c-.1.17-.34.17-.44,0l-1.44-2.46c-.05-.08-.05-.18,0-.26ZM45.61,69.02l1.44-2.49c.1-.17.34-.17.44,0l1.44,2.49c.05.08.05.18,0,.26l-1.44,2.46c-.1.17-.34.17-.44,0l-1.44-2.46c-.05-.08-.05-.18,0-.26ZM42.99,73.55l1.44-2.49c.1-.17.34-.17.44,0l1.44,2.49c.05.08.05.18,0,.26l-1.44,2.46c-.1.17-.34.17-.44,0l-1.44-2.46c-.05-.08-.05-.18,0-.26ZM40.37,78.09l1.44-2.49c.1-.17.34-.17.44,0l1.44,2.49c.05.08.05.18,0,.26l-1.44,2.46c-.1.17-.34.17-.44,0l-1.44-2.46c-.05-.08-.05-.18,0-.26ZM37.76,82.62l1.44-2.49c.1-.17.34-.17.44,0l1.44,2.49c.05.08.05.18,0,.26l-1.44,2.46c-.1.17-.34.17-.44,0l-1.44-2.46c-.05-.08-.05-.18,0-.26ZM35.14,87.15l1.44-2.49c.1-.17.34-.17.44,0l1.44,2.49c.05.08.05.18,0,.26l-1.44,2.46c-.1.17-.34.17-.44,0l-1.44-2.46c-.05-.08-.05-.18,0-.26ZM35.84,91.94l-.54.93s-.7-.96-.9-2.9c-.03-.28.35-.39.48-.14l.96,1.87c.04.08.04.17,0,.25ZM37.68,95.87c-.48-.39-.93-.84-1.35-1.38-.06-.08-.07-.2-.02-.29l.24-.42c.12-.22.37-.22.47-.05l1.04,1.81c.14.25-.16.51-.38.33ZM39.19,94.4l-1.44-2.46c-.05-.08-.05-.18,0-.26l1.44-2.49c.1-.17.34-.17.44,0l1.44,2.49c.05.08.05.18,0,.26l-1.44,2.46c-.1.17-.34.17-.44,0ZM43.69,96.48l-.75,1.29c-.05.09-.15.14-.24.13-.55-.05-1.08-.13-1.56-.27-.06-.02-.12-.06-.15-.12-.13-.22-.45-.78-.6-1.03-.05-.08-.05-.18,0-.26l1.44-2.49c.1-.17.34-.17.44,0l1.44,2.49c.05.08.05.18,0,.26ZM44.43,94.4l-1.44-2.46c-.05-.08-.05-.18,0-.26l1.44-2.49c.1-.17.34-.17.44,0l1.44,2.49c.05.08.05.18,0,.26l-1.44,2.46c-.1.17-.34.17-.44,0ZM48.68,96.25c-.67.5-1.43.89-2.28,1.18-.11.04-.24-.01-.3-.12l-.49-.84c-.05-.08-.05-.18,0-.26l1.44-2.49c.1-.17.34-.17.44,0l1.26,2.19c.06.11.04.26-.06.33ZM51.81,92.41c-.51.91-1.02,1.69-1.53,2.35-.11.14-.33.13-.42-.03-.41-.7-1.35-2.32-1.63-2.79-.05-.08-.05-.18,0-.26l1.44-2.49c.1-.17.34-.17.44,0l1.7,2.95c.05.08.05.18,0,.25ZM52.28,89.87l-1.44-2.46c-.05-.08-.05-.18,0-.26l1.44-2.49c.1-.17.34-.17.44,0l1.44,2.49c.05.08.05.18,0,.26l-1.44,2.46c-.1.17-.34.17-.44,0ZM54.72,94.76c-.51-.65-1.03-1.43-1.53-2.35-.04-.08-.04-.18,0-.25l1.7-2.95c.1-.17.34-.17.44,0l1.44,2.49c.05.08.05.18,0,.26l-1.63,2.79c-.09.16-.31.17-.42.03ZM59.39,96.48l-.49.84c-.06.1-.19.15-.3.12-.85-.29-1.61-.67-2.28-1.18-.1-.08-.13-.22-.06-.33l1.26-2.19c.1-.17.34-.17.44,0l1.44,2.49c.05.08.05.18,0,.26ZM60.13,94.4l-1.44-2.46c-.05-.08-.05-.18,0-.26l1.44-2.49c.1-.17.34-.17.44,0l1.44,2.49c.05.08.05.18,0,.26l-1.44,2.46c-.1.17-.34.17-.44,0ZM64.63,96.48c-.15.25-.47.81-.6,1.03-.03.06-.09.1-.15.12-.48.14-1.01.22-1.56.27-.1,0-.19-.04-.24-.13l-.75-1.29c-.05-.08-.05-.18,0-.26l1.44-2.49c.1-.17.34-.17.44,0l1.44,2.49c.05.08.05.18,0,.26ZM65.81,94.4c-.1.17-.34.17-.44,0l-1.44-2.46c-.05-.08-.05-.18,0-.26l1.44-2.49c.1-.17.34-.17.44,0l1.44,2.49c.05.08.05.18,0,.26l-1.44,2.46ZM68.68,94.49c-.42.54-.87.99-1.35,1.38-.22.18-.53-.08-.38-.33l1.04-1.81c.1-.17.34-.17.47.05l.24.42c.05.09.04.21-.02.29ZM69.71,92.87l-.54-.93c-.04-.08-.05-.17,0-.25l.96-1.87c.13-.25.51-.14.48.14-.19,1.95-.9,2.9-.9,2.9ZM10.82,51.16c.4.23.86.34,1.32.34h38.63L31.46,18.05c-.23-.4-.56-.74-.95-.97-3.16-1.86-7.23-2.01-10.67-.02-5.05,2.92-6.81,9.33-3.93,14.32-5.76,0-10.44,4.73-10.44,10.56,0,3.96,2.16,7.42,5.35,9.22ZM11,49.44c-1.59-1.14-2.07-2.23-2.07-2.23h1.08c.09,0,.17.04.22.11l1.14,1.77c.15.24-.14.51-.36.35ZM37.62,41.14h-2.87c-.09,0-.18-.05-.22-.13l-1.41-2.47c-.1-.17.03-.38.22-.38h2.85c.09-.01.18.04.22.11l1.44,2.49c.1.17-.02.38-.22.38ZM38.8,42.68c.09,0,.18.05.22.13l1.44,2.49c.1.17-.02.38-.22.38h-2.87c-.09,0-.18-.05-.22-.13l-1.41-2.47c-.1-.17.03-.38.22-.38h2.85ZM24.28,41.14c-.09,0-.18-.05-.22-.13l-1.41-2.47c-.1-.17.03-.38.22-.38h2.85c.09-.01.18.04.22.11l1.44,2.49c.1.17-.02.38-.22.38h-2.87ZM24.53,45.67h-2.87c-.09,0-.18-.05-.22-.13l-1.41-2.47c-.1-.17.03-.38.22-.38h2.85c.09-.01.18.04.22.11l1.44,2.49c.1.17-.02.38-.22.38ZM25.48,33.62h2.85c.09-.01.18.04.22.11l1.44,2.49c.1.17-.02.38-.22.38h-2.87c-.09,0-.18-.05-.22-.13l-1.41-2.47c-.1-.17.03-.38.22-.38ZM25.48,42.69h2.85c.09-.01.18.04.22.11l1.44,2.49c.1.17-.02.38-.22.38h-2.87c-.09,0-.18-.05-.22-.13l-1.41-2.47c-.1-.17.03-.38.22-.38ZM29.51,41.14c-.09,0-.18-.05-.22-.13l-1.41-2.47c-.1-.17.03-.38.22-.38h2.85c.09-.01.18.04.22.11l1.44,2.49c.1.17-.02.38-.22.38h-2.87ZM30.72,42.69h2.85c.09-.01.18.04.22.11l1.44,2.49c.1.17-.02.38-.22.38h-2.87c-.09,0-.18-.05-.22-.13l-1.41-2.47c-.1-.17.03-.38.22-.38ZM35,36.61h-2.87c-.09,0-.18-.05-.22-.13l-1.41-2.47c-.1-.17.03-.38.22-.38h2.85c.09-.01.18.04.22.11l1.44,2.49c.1.17-.02.38-.22.38ZM32.38,32.07h-2.87c-.09,0-.18-.05-.22-.13l-1.41-2.47c-.1-.17.03-.38.22-.38h2.85c.09-.01.18.04.22.11l1.44,2.49c.1.17-.02.38-.22.38ZM29.77,27.54h-2.87c-.09,0-.18-.05-.22-.13l-1.41-2.47c-.1-.17.03-.38.22-.38h2.85c.09-.01.18.04.22.11l1.44,2.49c.1.17-.02.38-.22.38ZM25.71,29.08c.09,0,.18.05.22.13l1.44,2.49c.1.17-.02.38-.22.38h-2.87c-.09,0-.18-.05-.22-.13l-1.41-2.47c-.1-.17.03-.38.22-.38h2.85ZM24.53,27.54h-2.87c-.09,0-.18-.05-.22-.13l-1.41-2.47c-.1-.17.03-.38.22-.38h2.85c.09-.01.18.04.22.11l1.44,2.49c.1.17-.02.38-.22.38ZM20.48,29.08c.09,0,.18.05.22.13l1.44,2.49c.1.17-.02.38-.22.38h-3.41c-.09,0-.18-.05-.22-.13-.54-.9-.96-1.73-1.27-2.5-.07-.17.05-.35.23-.35.81,0,2.69-.01,3.23-.01ZM20.25,33.62h2.85c.09-.01.18.04.22.11l1.44,2.49c.1.17-.02.38-.22.38h-2.87c-.09,0-.18-.05-.22-.13l-1.41-2.47c-.1-.17.03-.38.22-.38ZM20.48,38.14c.09,0,.18.05.22.13l1.44,2.49c.1.17-.02.38-.22.38h-2.87c-.09,0-.18-.05-.22-.13l-1.41-2.47c-.1-.17.03-.38.22-.38h2.85ZM17.86,42.68c.09,0,.18.05.22.13l1.44,2.49c.1.17-.02.38-.22.38h-2.87c-.09,0-.18-.05-.22-.13l-1.41-2.47c-.1-.17.03-.38.22-.38h2.85ZM16.68,41.14h-2.87c-.09,0-.18-.05-.22-.13l-1.41-2.47c-.1-.17.03-.38.22-.38h2.85c.09-.01.18.04.22.11l1.44,2.49c.1.17-.02.38-.22.38ZM12.62,42.68c.09,0,.18.05.22.13l1.44,2.49c.1.17-.02.38-.22.38h-2.87c-.09,0-.18-.05-.22-.13l-1.41-2.47c-.1-.17.03-.38.22-.38h2.85ZM16.68,50.21h-2.87c-.09,0-.18-.05-.22-.13l-1.41-2.47c-.1-.17.03-.38.22-.38h2.85c.09-.01.18.04.22.11l1.44,2.49c.1.17-.02.38-.22.38ZM21.91,50.21h-2.87c-.09,0-.18-.05-.22-.13l-1.41-2.47c-.1-.17.03-.38.22-.38h2.85c.09-.01.18.04.22.11l1.44,2.49c.1.17-.02.38-.22.38ZM27.15,50.21h-2.87c-.09,0-.18-.05-.22-.13l-1.41-2.47c-.1-.17.03-.38.22-.38h2.85c.09-.01.18.04.22.11l1.44,2.49c.1.17-.02.38-.22.38ZM32.38,50.21h-2.87c-.09,0-.18-.05-.22-.13l-1.41-2.47c-.1-.17.03-.38.22-.38h2.85c.09-.01.18.04.22.11l1.44,2.49c.1.17-.02.38-.22.38ZM37.62,50.21h-2.87c-.09,0-.18-.05-.22-.13l-1.41-2.47c-.1-.17.03-.38.22-.38h2.85c.09-.01.18.04.22.11l1.44,2.49c.1.17-.02.38-.22.38ZM42.85,50.21h-2.87c-.09,0-.18-.05-.22-.13l-1.41-2.47c-.1-.17.03-.38.22-.38h2.85c.09-.01.18.04.22.11l1.44,2.49c.1.17-.02.38-.22.38ZM46.87,47.34l1.44,2.49c.1.17-.02.38-.22.38h-2.87c-.09,0-.18-.05-.22-.13l-1.41-2.47c-.1-.17.03-.38.22-.38h2.85c.09-.01.18.04.22.11ZM44.26,42.81l1.44,2.49c.1.17-.02.38-.22.38h-2.87c-.09,0-.18-.05-.22-.13l-1.41-2.47c-.1-.17.03-.38.22-.38h2.85c.09-.01.18.04.22.11ZM41.64,38.27l1.44,2.49c.1.17-.02.38-.22.38h-2.87c-.09,0-.18-.05-.22-.13l-1.41-2.47c-.1-.17.03-.38.22-.38h2.85c.09-.01.18.04.22.11ZM39.02,33.74l1.44,2.49c.1.17-.02.38-.22.38h-2.87c-.09,0-.18-.05-.22-.13l-1.41-2.47c-.1-.17.03-.38.22-.38h2.85c.09-.01.18.04.22.11ZM36.4,29.21l1.44,2.49c.1.17-.02.38-.22.38h-2.87c-.09,0-.18-.05-.22-.13l-1.41-2.47c-.1-.17.03-.38.22-.38h2.85c.09-.01.18.04.22.11ZM33.79,24.67l1.44,2.49c.1.17-.02.38-.22.38h-2.87c-.09,0-.18-.05-.22-.13l-1.41-2.47c-.1-.17.03-.38.22-.38h2.85c.09-.01.18.04.22.11ZM30.95,20.01c.09,0,.18.05.22.13l1.44,2.49c.1.17-.02.38-.22.38h-2.87c-.09,0-.18-.05-.22-.13l-1.41-2.47c-.1-.17.03-.38.22-.38h2.85ZM29.11,18.09c.26.12.16.5-.12.49l-2.1-.1c-.09,0-.17-.05-.21-.13l-.54-.94s1.18-.13,2.96.68ZM25.71,20.01c.09,0,.18.05.22.13l1.44,2.49c.1.17-.02.38-.22.38h-2.87c-.09,0-.18-.05-.22-.13l-1.41-2.47c-.1-.17.03-.38.22-.38h2.85ZM22.35,17.98c.58-.22,1.2-.38,1.87-.48.1-.01.21.04.26.13l.24.42c.12.22,0,.43-.2.43h-2.09c-.28,0-.36-.39-.09-.5ZM18.09,21.31c.32-.45.65-.87,1.01-1.22.05-.05.11-.07.18-.07.25,0,.9,0,1.19,0,.09,0,.18.05.22.13l1.44,2.49c.1.17-.02.38-.22.38h-2.87c-.09,0-.18-.05-.22-.13l-.74-1.3c-.05-.09-.04-.19.01-.28ZM16.64,24.75c.02-.12.13-.2.25-.21h.97c.09,0,.18.04.22.12l1.44,2.49c.1.17-.02.38-.22.38h-2.53c-.13,0-.24-.09-.26-.22-.1-.83-.06-1.69.12-2.56ZM14.79,33.3c.82-.12,1.75-.17,2.8-.15.09,0,.17.05.22.13l1.7,2.95c.1.17-.02.38-.22.38h-2.87c-.09,0-.18-.05-.22-.13-.27-.47-1.2-2.1-1.6-2.8-.09-.16,0-.35.19-.38ZM10.54,35.31c.67-.59,1.39-1.06,2.16-1.39.12-.05.26,0,.32.11l1.26,2.19c.1.17-.02.38-.22.38h-2.87c-.09,0-.18-.05-.22-.13l-.48-.84c-.06-.11-.04-.24.05-.32ZM8.28,38.3c.04-.09.13-.15.23-.15h1.49c.09,0,.18.04.22.12l1.44,2.49c.1.17-.02.38-.22.38h-2.87c-.09,0-.18-.05-.22-.13-.15-.25-.47-.82-.59-1.04-.03-.06-.04-.13-.03-.19.12-.49.31-.98.55-1.49ZM8.05,45.51c-.26-.63-.42-1.25-.52-1.86-.04-.28.33-.42.48-.17l1.05,1.81c.1.17-.02.38-.27.38h-.49c-.1,0-.2-.06-.24-.16ZM99.53,63.06c0-3.97-2.16-7.42-5.36-9.23-.4-.23-.86-.34-1.32-.34h-38.62l19.32,33.45c.23.4.56.74.95.98,3.16,1.86,7.23,2,10.66.02,5.05-2.92,6.81-9.33,3.93-14.32,5.76,0,10.44-4.73,10.44-10.56ZM96.71,59.32c.1,0,.2.06.24.16.26.63.42,1.25.52,1.86.04.28-.33.42-.48.17l-1.05-1.81c-.1-.17.02-.38.22-.38h.54ZM94,55.56c1.59,1.14,2.07,2.23,2.07,2.23h-1.08c-.09,0-.17-.04-.22-.11l-1.14-1.77c-.15-.24.14-.51.36-.35ZM67.38,63.86h2.87c.09,0,.18.05.22.13l1.41,2.47c.1.17-.03.38-.22.38h-2.85c-.09.01-.18-.04-.22-.11l-1.44-2.49c-.1-.17.02-.38.22-.38ZM66.2,62.32c-.09,0-.18-.05-.22-.13l-1.44-2.49c-.1-.17.02-.38.22-.38h2.87c.09,0,.18.05.22.13l1.41,2.47c.1.17-.03.38-.22.38h-2.85ZM80.72,63.86c.09,0,.18.05.22.13l1.41,2.47c.1.17-.03.38-.22.38h-2.85c-.09.01-.18-.04-.22-.11l-1.44-2.49c-.1-.17.02-.38.22-.38h2.87ZM80.47,59.33h2.87c.09,0,.18.05.22.13l1.41,2.47c.1.17-.03.38-.22.38h-2.85c-.09.01-.18-.04-.22-.11l-1.44-2.49c-.1-.17.02-.38.22-.38ZM79.52,71.38h-2.85c-.09.01-.18-.04-.22-.11l-1.44-2.49c-.1-.17.02-.38.22-.38h2.87c.09,0,.18.05.22.13l1.41,2.47c.1.17-.03.38-.22.38ZM79.52,62.31h-2.85c-.09.01-.18-.04-.22-.11l-1.44-2.49c-.1-.17.02-.38.22-.38h2.87c.09,0,.18.05.22.13l1.41,2.47c.1.17-.03.38-.22.38ZM75.49,63.86c.09,0,.18.05.22.13l1.41,2.47c.1.17-.03.38-.22.38h-2.85c-.09.01-.18-.04-.22-.11l-1.44-2.49c-.1-.17.02-.38.22-.38h2.87ZM74.28,62.31h-2.85c-.09.01-.18-.04-.22-.11l-1.44-2.49c-.1-.17.02-.38.22-.38h2.87c.09,0,.18.05.22.13l1.41,2.47c.1.17-.03.38-.22.38ZM70,68.39h2.87c.09,0,.18.05.22.13l1.41,2.47c.1.17-.03.38-.22.38h-2.85c-.09.01-.18-.04-.22-.11l-1.44-2.49c-.1-.17.02-.38.22-.38ZM72.62,72.93h2.87c.09,0,.18.05.22.13l1.41,2.47c.1.17-.03.38-.22.38h-2.85c-.09.01-.18-.04-.22-.11l-1.44-2.49c-.1-.17.02-.38.22-.38ZM75.23,77.46h2.87c.09,0,.18.05.22.13l1.41,2.47c.1.17-.03.38-.22.38h-2.85c-.09.01-.18-.04-.22-.11l-1.44-2.49c-.1-.17.02-.38.22-.38ZM79.29,75.92c-.09,0-.18-.05-.22-.13l-1.44-2.49c-.1-.17.02-.38.22-.38h2.87c.09,0,.18.05.22.13l1.41,2.47c.1.17-.03.38-.22.38h-2.85ZM80.47,77.46h2.87c.09,0,.18.05.22.13l1.41,2.47c.1.17-.03.38-.22.38h-2.85c-.09.01-.18-.04-.22-.11l-1.44-2.49c-.1-.17.02-.38.22-.38ZM84.52,75.92c-.09,0-.18-.05-.22-.13l-1.44-2.49c-.1-.17.02-.38.22-.38h3.41c.09,0,.18.05.22.13.54.9.96,1.73,1.27,2.5.07.17-.05.35-.23.35h-3.22ZM84.75,71.38h-2.85c-.09.01-.18-.04-.22-.11l-1.44-2.49c-.1-.17.02-.38.22-.38h2.87c.09,0,.18.05.22.13l1.41,2.47c.1.17-.03.38-.22.38ZM84.52,66.86c-.09,0-.18-.05-.22-.13l-1.44-2.49c-.1-.17.02-.38.22-.38h2.87c.09,0,.18.05.22.13l1.41,2.47c.1.17-.03.38-.22.38h-2.85ZM87.14,62.32c-.09,0-.18-.05-.22-.13l-1.44-2.49c-.1-.17.02-.38.22-.38h2.87c.09,0,.18.05.22.13l1.41,2.47c.1.17-.03.38-.22.38h-2.85ZM88.32,63.86h2.87c.09,0,.18.05.22.13l1.41,2.47c.1.17-.03.38-.22.38h-2.85c-.09.01-.18-.04-.22-.11l-1.44-2.49c-.1-.17.02-.38.22-.38ZM92.38,62.32c-.09,0-.18-.05-.22-.13l-1.44-2.49c-.1-.17.02-.38.22-.38h2.87c.09,0,.18.05.22.13l1.41,2.47c.1.17-.03.38-.22.38h-2.85ZM88.32,54.79h2.87c.09,0,.18.05.22.13l1.41,2.47c.1.17-.03.38-.22.38h-2.85c-.09.01-.18-.04-.22-.11l-1.44-2.49c-.1-.17.02-.38.22-.38ZM83.09,54.79h2.87c.09,0,.18.05.22.13l1.41,2.47c.1.17-.03.38-.22.38h-2.85c-.09.01-.18-.04-.22-.11l-1.44-2.49c-.1-.17.02-.38.22-.38ZM77.85,54.79h2.87c.09,0,.18.05.22.13l1.41,2.47c.1.17-.03.38-.22.38h-2.85c-.09.01-.18-.04-.22-.11l-1.44-2.49c-.1-.17.02-.38.22-.38ZM72.62,54.79h2.87c.09,0,.18.05.22.13l1.41,2.47c.1.17-.03.38-.22.38h-2.85c-.09.01-.18-.04-.22-.11l-1.44-2.49c-.1-.17.02-.38.22-.38ZM67.38,54.79h2.87c.09,0,.18.05.22.13l1.41,2.47c.1.17-.03.38-.22.38h-2.85c-.09.01-.18-.04-.22-.11l-1.44-2.49c-.1-.17.02-.38.22-.38ZM62.15,54.79h2.87c.09,0,.18.05.22.13l1.41,2.47c.1.17-.03.38-.22.38h-2.85c-.09.01-.18-.04-.22-.11l-1.44-2.49c-.1-.17.02-.38.22-.38ZM58.13,57.66l-1.44-2.49c-.1-.17.02-.38.22-.38h2.87c.09,0,.18.05.22.13l1.41,2.47c.1.17-.03.38-.22.38h-2.85c-.09.01-.18-.04-.22-.11ZM60.74,62.19l-1.44-2.49c-.1-.17.02-.38.22-.38h2.87c.09,0,.18.05.22.13l1.41,2.47c.1.17-.03.38-.22.38h-2.85c-.09.01-.18-.04-.22-.11ZM63.36,66.73l-1.44-2.49c-.1-.17.02-.38.22-.38h2.87c.09,0,.18.05.22.13l1.41,2.47c.1.17-.03.38-.22.38h-2.85c-.09.01-.18-.04-.22-.11ZM65.98,71.26l-1.44-2.49c-.1-.17.02-.38.22-.38h2.87c.09,0,.18.05.22.13l1.41,2.47c.1.17-.03.38-.22.38h-2.85c-.09.01-.18-.04-.22-.11ZM68.59,75.79l-1.44-2.49c-.1-.17.02-.38.22-.38h2.87c.09,0,.18.05.22.13l1.41,2.47c.1.17-.03.38-.22.38h-2.85c-.09.01-.18-.04-.22-.11ZM71.21,80.33l-1.44-2.49c-.1-.17.02-.38.22-.38h2.87c.09,0,.18.05.22.13l1.41,2.47c.1.17-.03.38-.22.38h-2.85c-.09.01-.18-.04-.22-.11ZM74.05,84.99c-.09,0-.18-.05-.22-.13l-1.44-2.49c-.1-.17.02-.38.22-.38h2.87c.09,0,.18.05.22.13l1.41,2.47c.1.17-.03.38-.22.38h-2.85ZM75.89,86.91c-.26-.12-.16-.5.12-.49l2.1.1c.09,0,.17.05.21.13l.54.94s-1.18.13-2.96-.68ZM79.29,84.99c-.09,0-.18-.05-.22-.13l-1.44-2.49c-.1-.17.02-.38.22-.38h2.87c.09,0,.18.05.22.13l1.41,2.47c.1.17-.03.38-.22.38h-2.85ZM82.65,87.02c-.58.22-1.2.38-1.87.48-.1.01-.21-.04-.26-.13l-.24-.42c-.12-.22,0-.43.2-.43h2.09c.28,0,.36.39.09.5ZM86.91,83.69c-.32.45-.65.87-1.01,1.22-.05.05-.11.07-.18.07-.25,0-.9,0-1.19,0-.09,0-.18-.05-.22-.13l-1.44-2.49c-.1-.17.02-.38.22-.38h2.87c.09,0,.18.05.22.13l.74,1.3c.05.09.04.19-.01.28ZM88.36,80.25c-.02.12-.13.2-.25.21h-.97c-.09,0-.18-.04-.22-.12l-1.44-2.49c-.1-.17.02-.38.22-.38h2.53c.13,0,.24.09.26.22.1.83.06,1.69-.12,2.56ZM90.21,71.7c-.82.12-1.75.17-2.8.15-.09,0-.17-.05-.22-.13l-1.7-2.95c-.1-.17.02-.38.22-.38h2.87c.09,0,.18.05.22.13l1.6,2.8c.09.16,0,.35-.19.38ZM94.46,69.69c-.67.59-1.39,1.06-2.16,1.39-.12.05-.26,0-.32-.11l-1.26-2.19c-.1-.17.02-.38.22-.38h2.87c.09,0,.18.05.22.13l.48.84c.06.11.04.24-.05.32ZM94.77,66.73l-1.44-2.49c-.1-.17.02-.38.22-.38h2.87c.09,0,.18.05.22.13.15.25.47.82.59,1.04.03.06.04.13.03.19-.12.49-.31.98-.55,1.49-.04.09-.13.15-.23.15h-1.49c-.09,0-.18-.04-.22-.12ZM12.15,53.5c-.46,0-.92.11-1.32.34-3.19,1.81-5.36,5.26-5.36,9.23,0,5.83,4.67,10.56,10.44,10.56-2.88,4.99-1.12,11.4,3.93,14.32,3.43,1.98,7.5,1.84,10.66-.02.4-.23.72-.57.95-.97l19.31-33.45H12.15ZM38.35,57.39l1.41-2.47c.05-.08.13-.13.22-.13h2.87c.2,0,.32.21.22.38l-1.44,2.49c-.05.08-.13.13-.22.13h-2.85c-.2-.01-.32-.23-.22-.4ZM12.17,66.46l1.41-2.47c.05-.08.13-.13.22-.13h2.87c.2,0,.32.21.22.38l-1.44,2.49c-.05.08-.13.13-.22.13h-2.85c-.2-.01-.32-.23-.22-.4ZM9.78,62.31c-.2,0-.32-.21-.22-.38l1.41-2.47c.05-.08.13-.13.22-.13h2.87c.2,0,.32.21.22.38l-1.44,2.49c-.05.08-.13.13-.22.13h-2.85ZM15.01,62.31c-.2,0-.32-.21-.22-.38l1.41-2.47c.05-.08.13-.13.22-.13h2.87c.2,0,.32.21.22.38l-1.44,2.49c-.05.08-.13.13-.22.13h-2.85ZM17.41,66.46l1.41-2.47c.05-.08.13-.13.22-.13h2.87c.2,0,.32.21.22.38l-1.44,2.49c-.05.08-.13.13-.22.13h-2.85c-.2-.01-.32-.23-.22-.4ZM32.38,63.86c.2,0,.32.21.22.38l-1.44,2.49c-.05.08-.13.13-.22.13h-2.85c-.2-.01-.32-.23-.22-.4l1.41-2.47c.05-.08.13-.13.22-.13h2.87ZM30.5,61.93l1.41-2.47c.05-.08.13-.13.22-.13h2.87c.2,0,.32.21.22.38l-1.44,2.49c-.05.08-.13.13-.22.13h-2.85c-.2-.01-.32-.23-.22-.4ZM29.99,68.78l-1.44,2.49c-.05.08-.13.13-.22.13h-2.85c-.2-.01-.32-.23-.22-.4l1.41-2.47c.05-.08.13-.13.22-.13h2.87c.2,0,.32.21.22.38ZM29.99,59.71l-1.44,2.49c-.05.08-.13.13-.22.13h-2.85c-.2-.01-.32-.23-.22-.4l1.41-2.47c.05-.08.13-.13.22-.13h2.87c.2,0,.32.21.22.38ZM27.15,63.86c.2,0,.32.21.22.38l-1.44,2.49c-.05.08-.13.13-.22.13h-2.85c-.2-.01-.32-.23-.22-.4l1.41-2.47c.05-.08.13-.13.22-.13h2.87ZM24.75,59.71l-1.44,2.49c-.05.08-.13.13-.22.13h-2.85c-.2-.01-.32-.23-.22-.4l1.41-2.47c.05-.08.13-.13.22-.13h2.87c.2,0,.32.21.22.38ZM20.03,70.99l1.41-2.47c.05-.08.13-.13.22-.13h2.87c.2,0,.32.21.22.38l-1.44,2.49c-.05.08-.13.13-.22.13h-2.85c-.2-.01-.32-.23-.22-.4ZM21.91,72.93c.2,0,.32.21.22.38l-1.44,2.49c-.05.08-.13.13-.22.13-.54,0-2.42-.01-3.23-.01-.18,0-.3-.18-.23-.35.31-.77.73-1.61,1.27-2.5.05-.08.13-.13.22-.13h3.41ZM20.03,80.06l1.41-2.47c.05-.08.13-.13.22-.13h2.87c.2,0,.32.21.22.38l-1.44,2.49c-.05.08-.13.13-.22.13h-2.85c-.2-.01-.32-.23-.22-.4ZM22.86,75.91c-.2,0-.32-.21-.22-.38l1.41-2.47c.05-.08.13-.13.22-.13h2.87c.2,0,.32.21.22.38l-1.44,2.49c-.05.08-.13.13-.22.13h-2.85ZM25.26,80.06l1.41-2.47c.05-.08.13-.13.22-.13h2.87c.2,0,.32.21.22.38l-1.44,2.49c-.05.08-.13.13-.22.13h-2.85c-.2-.01-.32-.23-.22-.4ZM28.1,75.91c-.2,0-.32-.21-.22-.38l1.41-2.47c.05-.08.13-.13.22-.13h2.87c.2,0,.32.21.22.38l-1.44,2.49c-.05.08-.13.13-.22.13h-2.85ZM30.72,71.38c-.2,0-.32-.21-.22-.38l1.41-2.47c.05-.08.13-.13.22-.13h2.87c.2,0,.32.21.22.38l-1.44,2.49c-.05.08-.13.13-.22.13h-2.85ZM33.33,66.84c-.2,0-.32-.21-.22-.38l1.41-2.47c.05-.08.13-.13.22-.13h2.87c.2,0,.32.21.22.38l-1.44,2.49c-.05.08-.13.13-.22.13h-2.85ZM35.95,62.31c-.2,0-.32-.21-.22-.38l1.41-2.47c.05-.08.13-.13.22-.13h2.87c.2,0,.32.21.22.38l-1.44,2.49c-.05.08-.13.13-.22.13h-2.85ZM33.11,57.39l1.41-2.47c.05-.08.13-.13.22-.13h2.87c.2,0,.32.21.22.38l-1.44,2.49c-.05.08-.13.13-.22.13h-2.85c-.2-.01-.32-.23-.22-.4ZM27.88,57.39l1.41-2.47c.05-.08.13-.13.22-.13h2.87c.2,0,.32.21.22.38l-1.44,2.49c-.05.08-.13.13-.22.13h-2.85c-.2-.01-.32-.23-.22-.4ZM22.64,57.39l1.41-2.47c.05-.08.13-.13.22-.13h2.87c.2,0,.32.21.22.38l-1.44,2.49c-.05.08-.13.13-.22.13h-2.85c-.2-.01-.32-.23-.22-.4ZM17.41,57.39l1.41-2.47c.05-.08.13-.13.22-.13h2.87c.2,0,.32.21.22.38l-1.44,2.49c-.05.08-.13.13-.22.13h-2.85c-.2-.01-.32-.23-.22-.4ZM12.18,57.39l1.41-2.47c.05-.08.13-.13.22-.13h2.87c.2,0,.32.21.22.38l-1.44,2.49c-.05.08-.13.13-.22.13h-2.85c-.2-.01-.32-.23-.22-.4ZM11,55.56c.23-.16.52.11.36.35l-1.14,1.77c-.05.07-.13.12-.22.12h-1.08s.48-1.09,2.07-2.23ZM7.53,61.35c.1-.61.27-1.23.52-1.86.04-.1.14-.16.24-.16h.49c.25,0,.37.21.27.38l-1.05,1.81c-.14.25-.52.11-.48-.17ZM10.01,66.86h-1.49c-.1,0-.19-.07-.23-.16-.23-.5-.42-1-.55-1.49-.02-.06,0-.13.03-.19.13-.22.45-.78.59-1.04.05-.08.13-.13.22-.13h2.87c.2,0,.32.21.22.38l-1.44,2.49c-.05.08-.13.13-.22.13ZM14.28,68.78l-1.26,2.19c-.06.11-.2.16-.32.11-.77-.33-1.49-.8-2.16-1.39-.09-.08-.11-.22-.05-.32l.48-.84c.05-.08.13-.13.22-.13h2.87c.2,0,.32.21.22.38ZM14.79,71.7c-.18-.03-.28-.22-.19-.38.4-.7,1.33-2.33,1.6-2.8.05-.08.13-.13.22-.13h2.87c.2,0,.32.21.22.38l-1.7,2.95c-.05.08-.13.13-.22.13-1.05.02-1.98-.04-2.8-.15ZM16.89,80.45c-.12,0-.23-.09-.25-.21-.18-.88-.22-1.73-.12-2.56.02-.13.13-.22.26-.22h2.53c.2,0,.32.21.22.38l-1.44,2.49c-.05.08-.13.13-.22.13h-.97ZM22.14,82.38l-1.44,2.49c-.05.08-.13.13-.22.13-.29,0-.94,0-1.19,0-.07,0-.13-.03-.18-.07-.36-.35-.69-.76-1.01-1.22-.06-.08-.06-.19-.01-.28l.74-1.3c.05-.08.13-.13.22-.13h2.87c.2,0,.32.21.22.38ZM24.73,86.95l-.24.42c-.05.09-.16.14-.26.13-.68-.1-1.3-.26-1.87-.48-.27-.1-.19-.5.09-.5h2.09c.2,0,.32.21.2.43ZM25.71,84.99h-2.85c-.2-.01-.32-.23-.22-.4l1.41-2.47c.05-.08.13-.13.22-.13h2.87c.2,0,.32.21.22.38l-1.44,2.49c-.05.08-.13.13-.22.13ZM29.11,86.91c-1.78.81-2.96.68-2.96.68l.54-.94c.04-.08.12-.12.21-.13l2.1-.1c.28-.01.37.37.12.49ZM32.6,82.38l-1.44,2.49c-.05.08-.13.13-.22.13h-2.85c-.2-.01-.32-.23-.22-.4l1.41-2.47c.05-.08.13-.13.22-.13h2.87c.2,0,.32.21.22.38ZM35.22,77.84l-1.44,2.49c-.05.08-.13.13-.22.13h-2.85c-.2-.01-.32-.23-.22-.4l1.41-2.47c.05-.08.13-.13.22-.13h2.87c.2,0,.32.21.22.38ZM37.84,73.31l-1.44,2.49c-.05.08-.13.13-.22.13h-2.85c-.2-.01-.32-.23-.22-.4l1.41-2.47c.05-.08.13-.13.22-.13h2.87c.2,0,.32.21.22.38ZM40.46,68.78l-1.44,2.49c-.05.08-.13.13-.22.13h-2.85c-.2-.01-.32-.23-.22-.4l1.41-2.47c.05-.08.13-.13.22-.13h2.87c.2,0,.32.21.22.38ZM43.07,64.24l-1.44,2.49c-.05.08-.13.13-.22.13h-2.85c-.2-.01-.32-.23-.22-.4l1.41-2.47c.05-.08.13-.13.22-.13h2.87c.2,0,.32.21.22.38ZM45.69,59.71l-1.44,2.49c-.05.08-.13.13-.22.13h-2.85c-.2-.01-.32-.23-.22-.4l1.41-2.47c.05-.08.13-.13.22-.13h2.87c.2,0,.32.21.22.38ZM46.87,57.66c-.05.08-.13.13-.22.13h-2.85c-.2-.01-.32-.23-.22-.4l1.41-2.47c.05-.08.13-.13.22-.13h2.87c.2,0,.32.21.22.38l-1.44,2.49ZM92.86,51.5c.46,0,.92-.11,1.32-.34,3.19-1.81,5.35-5.26,5.35-9.22,0-5.83-4.67-10.56-10.44-10.56,2.88-4.99,1.12-11.4-3.93-14.32-3.43-1.98-7.51-1.84-10.67.02-.4.23-.72.57-.95.97l-19.31,33.45h38.63ZM66.65,47.61l-1.41,2.47c-.05.08-.13.13-.22.13h-2.87c-.2,0-.32-.21-.22-.38l1.44-2.49c.05-.08.13-.13.22-.13h2.85c.2.01.32.23.22.4ZM89.99,42.69c.2,0,.32.21.22.38l-1.41,2.47c-.05.08-.13.13-.22.13h-2.87c-.2,0-.32-.21-.22-.38l1.44-2.49c.05-.08.13-.13.22-.13h2.85ZM88.1,40.76l1.44-2.49c.05-.08.13-.13.22-.13h2.85c.2.01.32.23.22.4l-1.41,2.47c-.05.08-.13.13-.22.13h-2.87c-.2,0-.32-.21-.22-.38ZM87.59,38.54l-1.41,2.47c-.05.08-.13.13-.22.13h-2.87c-.2,0-.32-.21-.22-.38l1.44-2.49c.05-.08.13-.13.22-.13h2.85c.2.01.32.23.22.4ZM72.62,41.14c-.2,0-.32-.21-.22-.38l1.44-2.49c.05-.08.13-.13.22-.13h2.85c.2.01.32.23.22.4l-1.41,2.47c-.05.08-.13.13-.22.13h-2.87ZM74.5,43.07l-1.41,2.47c-.05.08-.13.13-.22.13h-2.87c-.2,0-.32-.21-.22-.38l1.44-2.49c.05-.08.13-.13.22-.13h2.85c.2.01.32.23.22.4ZM75.01,36.22l1.44-2.49c.05-.08.13-.13.22-.13h2.85c.2.01.32.23.22.4l-1.41,2.47c-.05.08-.13.13-.22.13h-2.87c-.2,0-.32-.21-.22-.38ZM75.01,45.29l1.44-2.49c.05-.08.13-.13.22-.13h2.85c.2.01.32.23.22.4l-1.41,2.47c-.05.08-.13.13-.22.13h-2.87c-.2,0-.32-.21-.22-.38ZM77.85,41.14c-.2,0-.32-.21-.22-.38l1.44-2.49c.05-.08.13-.13.22-.13h2.85c.2.01.32.23.22.4l-1.41,2.47c-.05.08-.13.13-.22.13h-2.87ZM80.25,45.29l1.44-2.49c.05-.08.13-.13.22-.13h2.85c.2.01.32.23.22.4l-1.41,2.47c-.05.08-.13.13-.22.13h-2.87c-.2,0-.32-.21-.22-.38ZM84.97,34.01l-1.41,2.47c-.05.08-.13.13-.22.13h-2.87c-.2,0-.32-.21-.22-.38l1.44-2.49c.05-.08.13-.13.22-.13h2.85c.2.01.32.23.22.4ZM83.09,32.07c-.2,0-.32-.21-.22-.38l1.44-2.49c.05-.08.13-.13.22-.13h3.22c.18.02.3.2.23.37-.31.77-.73,1.61-1.27,2.5-.05.08-.13.13-.22.13h-3.41ZM84.97,24.94l-1.41,2.47c-.05.08-.13.13-.22.13h-2.87c-.2,0-.32-.21-.22-.38l1.44-2.49c.05-.08.13-.13.22-.13h2.85c.2.01.32.23.22.4ZM82.14,29.09c.2,0,.32.21.22.38l-1.41,2.47c-.05.08-.13.13-.22.13h-2.87c-.2,0-.32-.21-.22-.38l1.44-2.49c.05-.08.13-.13.22-.13h2.85ZM79.74,24.94l-1.41,2.47c-.05.08-.13.13-.22.13h-2.87c-.2,0-.32-.21-.22-.38l1.44-2.49c.05-.08.13-.13.22-.13h2.85c.2.01.32.23.22.4ZM76.9,29.09c.2,0,.32.21.22.38l-1.41,2.47c-.05.08-.13.13-.22.13h-2.87c-.2,0-.32-.21-.22-.38l1.44-2.49c.05-.08.13-.13.22-.13h2.85ZM74.28,33.62c.2,0,.32.21.22.38l-1.41,2.47c-.05.08-.13.13-.22.13h-2.87c-.2,0-.32-.21-.22-.38l1.44-2.49c.05-.08.13-.13.22-.13h2.85ZM71.67,38.16c.2,0,.32.21.22.38l-1.41,2.47c-.05.08-.13.13-.22.13h-2.87c-.2,0-.32-.21-.22-.38l1.44-2.49c.05-.08.13-.13.22-.13h2.85ZM69.05,42.69c.2,0,.32.21.22.38l-1.41,2.47c-.05.08-.13.13-.22.13h-2.87c-.2,0-.32-.21-.22-.38l1.44-2.49c.05-.08.13-.13.22-.13h2.85ZM71.89,47.61l-1.41,2.47c-.05.08-.13.13-.22.13h-2.87c-.2,0-.32-.21-.22-.38l1.44-2.49c.05-.08.13-.13.22-.13h2.85c.2.01.32.23.22.4ZM77.12,47.61l-1.41,2.47c-.05.08-.13.13-.22.13h-2.87c-.2,0-.32-.21-.22-.38l1.44-2.49c.05-.08.13-.13.22-.13h2.85c.2.01.32.23.22.4ZM82.36,47.61l-1.41,2.47c-.05.08-.13.13-.22.13h-2.87c-.2,0-.32-.21-.22-.38l1.44-2.49c.05-.08.13-.13.22-.13h2.85c.2.01.32.23.22.4ZM87.59,47.61l-1.41,2.47c-.05.08-.13.13-.22.13h-2.87c-.2,0-.32-.21-.22-.38l1.44-2.49c.05-.08.13-.13.22-.13h2.85c.2.01.32.23.22.4ZM92.82,47.61l-1.41,2.47c-.05.08-.13.13-.22.13h-2.87c-.2,0-.32-.21-.22-.38l1.44-2.49c.05-.08.13-.13.22-.13h2.85c.2.01.32.23.22.4ZM90.94,45.68c-.2,0-.32-.21-.22-.38l1.44-2.49c.05-.08.13-.13.22-.13h2.85c.2.01.32.23.22.4l-1.41,2.47c-.05.08-.13.13-.22.13h-2.87ZM93.99,49.44c-.23.16-.52-.11-.36-.35l1.14-1.77c.05-.07.13-.12.22-.12h1.08s-.48,1.09-2.07,2.23ZM97.47,43.65c-.1.61-.27,1.23-.52,1.86-.04.1-.14.16-.24.16h-.54c-.2,0-.32-.21-.22-.38l1.05-1.81c.14-.25.52-.11.48.17ZM94.99,38.14h1.49c.1,0,.19.07.23.16.23.5.42,1,.55,1.49.02.06,0,.13-.03.19-.13.22-.45.78-.59,1.04-.05.08-.13.13-.22.13h-2.87c-.2,0-.32-.21-.22-.38l1.44-2.49c.05-.08.13-.13.22-.13ZM90.72,36.22l1.26-2.19c.06-.11.2-.16.32-.11.77.33,1.49.8,2.16,1.39.09.08.11.22.05.32l-.48.84c-.05.08-.13.13-.22.13h-2.87c-.2,0-.32-.21-.22-.38ZM90.21,33.3c.18.03.28.22.19.38l-1.6,2.8c-.05.08-.13.13-.22.13h-2.87c-.2,0-.32-.21-.22-.38l1.7-2.95c.05-.08.13-.13.22-.13,1.05-.02,1.98.04,2.8.15ZM88.11,24.55c.12,0,.23.09.25.21.18.88.22,1.73.12,2.56-.02.13-.13.22-.26.22h-2.53c-.2,0-.32-.21-.22-.38l1.44-2.49c.05-.08.13-.13.22-.13h.97ZM82.86,22.62l1.44-2.49c.05-.08.13-.13.22-.13.29,0,.94,0,1.19,0,.07,0,.13.03.18.07.36.35.69.76,1.01,1.22.06.08.06.19.01.28l-.74,1.3c-.05.08-.13.13-.22.13h-2.87c-.2,0-.32-.21-.22-.38ZM80.27,18.05l.24-.42c.05-.09.16-.14.26-.13.68.1,1.3.26,1.87.48.27.1.19.5-.09.5h-2.09c-.2,0-.32-.21-.2-.43ZM79.29,20.01h2.85c.2.01.32.23.22.4l-1.41,2.47c-.05.08-.13.13-.22.13h-2.87c-.2,0-.32-.21-.22-.38l1.44-2.49c.05-.08.13-.13.22-.13ZM75.89,18.09c1.78-.81,2.96-.68,2.96-.68l-.54.94c-.04.08-.12.12-.21.13l-2.1.1c-.28.01-.37-.37-.12-.49ZM72.4,22.62l1.44-2.49c.05-.08.13-.13.22-.13h2.85c.2.01.32.23.22.4l-1.41,2.47c-.05.08-.13.13-.22.13h-2.87c-.2,0-.32-.21-.22-.38ZM69.78,27.16l1.44-2.49c.05-.08.13-.13.22-.13h2.85c.2.01.32.23.22.4l-1.41,2.47c-.05.08-.13.13-.22.13h-2.87c-.2,0-.32-.21-.22-.38ZM67.16,31.69l1.44-2.49c.05-.08.13-.13.22-.13h2.85c.2.01.32.23.22.4l-1.41,2.47c-.05.08-.13.13-.22.13h-2.87c-.2,0-.32-.21-.22-.38ZM64.54,36.22l1.44-2.49c.05-.08.13-.13.22-.13h2.85c.2.01.32.23.22.4l-1.41,2.47c-.05.08-.13.13-.22.13h-2.87c-.2,0-.32-.21-.22-.38ZM61.93,40.76l1.44-2.49c.05-.08.13-.13.22-.13h2.85c.2.01.32.23.22.4l-1.41,2.47c-.05.08-.13.13-.22.13h-2.87c-.2,0-.32-.21-.22-.38ZM59.31,45.29l1.44-2.49c.05-.08.13-.13.22-.13h2.85c.2.01.32.23.22.4l-1.41,2.47c-.05.08-.13.13-.22.13h-2.87c-.2,0-.32-.21-.22-.38ZM58.13,47.34c.05-.08.13-.13.22-.13h2.85c.2.01.32.23.22.4l-1.41,2.47c-.05.08-.13.13-.22.13h-2.87c-.2,0-.32-.21-.22-.38l1.44-2.49Z"/>
</svg>