<?xml version="1.0" encoding="UTF-8"?><svg id="Layer_1" xmlns="http://www.w3.org/2000/svg" viewBox="0 0 850.39 850.39"><path d="m758.88,168.37c-19.7-.6-34.63,10.26-53.94,1.02-14.75-7.06-31.78-11.5-41.15-26.08,9.01-4.55,18.06-8.98,27.11-13.46,4.27-2.12,8.85-5.12,13.66-5.85,10.91-1.66,26.34,14.07,35.37,8.32-3.44-5.75-10.38-5.52-14.61-9.55.54-1.67,3.24-2.31,1.92-5.02-5.9-3.01-13.03.42-19.71-2.21,1.41-10.77,7.37-20.41,8.6-30.95-5.95-3-10,13-11.8,16.98-2.01,4.43-4.03,9.14-7.42,12.72-7.64,8.06-21.7,10.86-31.74,14.43-9.83,3.5-19.05,2.71-29.33,2.72-9.04,0-22.43,3.65-30.87.48-8.28-3.11-15.85-10.47-24.14-14.21-6.14-2.77-19.44-4.45-23.65-9.85,10.65-8.14,24.12-20.85,38.51-21.07,7.2-.11,14.52,3.88,20.72,7.16,4.29,2.27,14.18,11.16,19.1,7.31-3.9-7.3-12.66-9.76-17.81-16.62,7-.45,18.27,8.52,23.31,1.72-19.26-12.55-40.09-11.52-61.55-7.28,8.41-7.79,19.44-12.14,29.93-16.36,11.91-4.79,24.89-1.98,36.77-6.43-8.33-6.36-18.59-1.01-27.54-4.35,2.03-5.83,14.37-15.43,11.6-21.89-6.27.31-13.07,12.53-16.78,16.74-5.74,6.51-11.49,10.47-20.37,7.63-2.76-8.69,23.91-39.28,10.22-42.4-18.34,31.51-37.78,62.65-61.82,90.69,3.12-32.38,13.51-64.01,6.44-96.95-4.75,11.22-.45,23.98-6.05,35.6-5.65-7.42-6.05-17.13-12.56-24.09-4.55,5.54,2.57,18.35,4.58,24.15,3.19,9.19,6.37,17.01,2.22,26.52-3.65,8.37-10.97,15.39-16.61,22.45-5.22,6.54-10.55,16.7-17.72,21.22-6.82,4.29-16.93,5.01-24.46,8.08-7.47,3.05-14.62,6.87-21.33,11.36-13.95,9.33-24.7,21.53-35.39,34.28-14.4-18.31-23.96-37.51-17.43-60.88,3.09-11.05,8.3-21.34,13.78-31.37,4.83-8.84,11.5-18.63,7.32-29.05q14.77-18.72,13.44-22.1c-5.94,2.84-8.31,9.82-14.17,12.66-3.87-7.63-1.22-16.67-6.05-24.12-6.9,4.28-.74,26.15-.1,32.94,1.13,12-5.65,20.67-12.43,29.82-7.93-11.6-11.73-24.86-19.53-36.37-7.56,7.8,7.51,27.92,9.6,36.08,3.75,14.64-5.28,27.8-9.85,41.07-15.05-13.33-27.77-28.3-32.78-48.19-2.49-9.89-3.53-20.11.6-29.71,2.34-5.43,15.51-19.92,9.7-25.59-7.88,6.82-10.81,17.55-18.12,24.84-4.34-5.38-.94-12.94-6.06-17.38-4.05,1.66-1.68,5.54-3.39,7.71-3.13-.33-3.94-7.03-9.45-2.29,13.07,16.36,14.72,36.45,18.97,56.31-14.45-2.09-28.24-8.05-34.59-22.04-4.05-8.9-6.51-18.43-10.78-27.31-1.81-3.77-6.54-19.18-12.71-14.14,5.11,11.75,10.7,23.42,13.02,37.73-10.54-3.88-24.55-6.44-32.66-14.71-3.74-3.82-5.77-8.43-6.98-13.56-.75-3.18-1.25-13.67-6.71-11.67-1.67,6.07,1.99,14.65,3.62,20.56,1.64,5.93,4.92,10.49,10.01,13.92,12.09,8.14,26.15,10.98,36.76,21.76-12.52,2.19-25.19,3.84-37.9,2.62-5.6-.54-31.74-5.08-32.39,3.71,8.06,3.34,17.25-.52,26.26,2.36-5.82,6.81-15.32,7.45-20.2,14.27,3.8,4.79,14.51-3.6,18.83-5.27,8.19-3.16,16.16-4.38,24.91-4.09,16.18.53,34.61,1.27,49.93,6.94,25,9.26,36.91,33.73,47.19,56.51-11.56-6.65-25.05-13.9-35.15-22.59-8.71-7.5-11.18-18.82-16.62-28.47-5.42,1.34-9.99,2.36-13.01,6.24-.48,3.87,2.22,7.21.73,11.28-10.5,5.81-22.76,3.83-34.21,3.56-11.99-.29-23.7.34-35.62,1.55-9.24.94-18.12.27-26.36-4.39-4.29-2.43-7.81-5.67-11.08-9.33-2.09-2.34-3.53-6.1-7.35-4.47.28,11.3,14.13,20.3,20.6,27.97-8.6,4.62-24.77,3.63-31.95-3.5-9.5-9.42-3.75-24.42-11.95-33.97-4.7,9.44,1.63,18.39-.65,27.07-6.51-1.41-5.79-9.77-11.8-11.44-3.8,4.21,2.22,7.63.48,11.46-11.02,3.06-22.98,3.17-33.79,8.28,2.52,5.08,6.38,3.23,10.75,2.24,5.82-1.31,11.77-2.08,17.74-1.86,10.72.4,20.96,4.01,29.64,10.29,5.06,3.67,7.86,6.53,14.41,6.06,6.3-.46,12.78-2.16,18.92-3.52,11.41-2.53,26.66-9.23,38.32-5.74-1.45,6.2-10.82,12.34-15.77,15.28-6.52,3.88-13.73,6.3-20.77,9.02-6.14,2.37-35.28,17.33-26.18,26.67,9.12-10.94,20.39-18.56,35.41-19-.3,7.97-6.49,14.26-5.15,22,6.32,2.75,9.59-8.4,11.83-12.4,3.52-6.3,8-11.67,13.22-16.64,8.73-8.31,20.16-20.59,32.18-23.07,26.54-5.48,52.1,6.97,64.6,30.9-14.87,4.67-28.19,12.31-41.56,21.67-4.16-12.54-2.33-24.31-1.15-35.92-11.76-4.3-11.72,5.78-14.85,11.71q-13.47-15.3-16.74-13.55c1.54,13.95,26.81,40.96,10.06,52.92-26.81-9.54-54.09-7-81.56-3.01-7.16-8.32-16.17-12.6-24.37-19.42-6.8-5.66-10.23-14.24-18.17-18.76.97,8.97,7.31,13.05,9.61,18.87-1.04,2.41-4.48,1.79-5.07,5.87,11.52,1.3,19.76,8.05,26.86,17.79-8.03,2.62-15.16,6.2-23.76,4.21-6.41-1.49-13.15-4.1-18.98-7.11-6.01-3.09-11.36-7.25-15.18-12.89-2.02-2.97-7.02-15.5-12.13-10.93,1.29,7.29,8.46,12,9.59,20.25-13.38,4.78-27.72,6.97-40.47,13.58,2.25,8.74,29.09-3.69,35.18-5.03,12.95-2.84,23.13,5.56,33.59,11.74-12.14,9.89-27.92,5.37-41.23,12.84,7.42,4.19,14.27-.09,20.03,2.61.07,3.23-3.82,4.5-1.86,10.02,12.21-10.96,25.55-18.58,42.27-18.13-1.05,10.2-8.93,17.39-15.74,24.26-7.86,7.93-16.08,15.5-24.31,23.05-9.6,8.8-14.01,9.46-25.96,4.33-5.09-2.18-19.9-12.22-24.34-5.58,10.42,7.59,22.96,11.4,33.95,18.24-4.14,12.87-11.82,23.1-19.74,33.44,14.39-4.87,21.45-16.77,28.1-29.76,3.76,6.83,1.82,13.52,5.5,19.27,7.32-2.35,2.51-19.23,4.68-25.1,3.15-8.51,16.14-16.35,22.79-22.4,2.64-.63,3.86,2.08,6.3,1.68,3.33-.55,4.26-4.84,5.5-7.4,2.5-5.19,5.55-10.14,9.41-14.43,7.82-8.7,18.38-13.82,29.85-15.67,9.65-1.56,22.81-2.6,30.52,4.66,6.47,6.09,6.37,16.06,5.02,24.18-4.83,29.09-32.09,41.13-51.22,60.01-32.85,32.41-40.69,98.04.58,126.91-6.85,22.24-13.08,41.31-8.03,64.95,4.8,22.5,17.38,42.04,30.73,60.4,28.57,39.27,60.83,77.27,94.77,111.99-1.43,5.75-13.28,36.45-5.22,38.53,5.35-10.03,5.68-21.91,11.27-32.55,5.34,4.86,10.09,9.19,14.61,13.3-1.25,11.69-6.22,22.27-4.73,33.79,6.21-8.1,6.5-18.35,11.15-27.24,5.73,2.77,10.56,7.28,15.87,10.82,5.17,3.45,13.06,5.94,17.45,10.08,4.71,4.44,6.54,12.48,9.04,18.45,2.92,6.96,6.19,13.8,9,20.8,5.83,14.49,1.1,27.38-.3,42.15-.65,6.83-2.31,31.3,7.22,33.33,2.4-7.79-2.45-15.55-1.74-23.4.81-8.95,2.51-19.37,6.04-27.66,4.25,7.44,8.49,14.89,12.75,22.32,2.55,4.44,5.69,12.74,11.05,6.08-12.6-26.98-27.08-53.53-33.75-84.29,13.13,2.91,25.47,3.66,37.08-6.49,0,6.61-3.12,23.9,3.38,27.97,3.18-4.96,2.37-11.48,2.72-17.08.37-5.9,1.06-11.77,1.73-17.64,1.43-12.52,10.07-18.23,18.73-26.76,9.35-9.2,18.69-18.41,28.03-27.62,3.42-3.37,20.17-23.79,24.31-21.4.13,15.49-6.45,30.18-9.27,45.92,6.86-.6,8.38-10.7,10.09-15.9,2.88-8.78,5.35-17.95,6.74-27.09,1.36-8.98,2.36-14.47,8.47-21.53,5.75-6.65,12.07-12.79,18.05-19.23,8.1,8.13,17.4,16.22,22.39,26.79,5.05,10.71,3.69,23.09,8.37,33.91,7.55-3.76.42-22.17,1.24-29.6,6.59,1.29,13.86,13.55,20.11,6.49-16.91-12.97-34.24-25.23-45.13-44.47,13.03-13.8,26.37-27.51,37.09-43.26,5.05,1.92,8.04,5.74,13.31,6.88,1.51-7.39-6.64-7.15-8.32-11.89,19.28-28.58,31.35-57.07,35.72-91.43,6.32,13.61,5.86,28.93,10.67,42.94,7.95-2.93,3.33-16.27,2.45-22.39-1.24-8.67-2.04-17.67-4.27-26.15-2.37-9.04-8.87-15.55-11.7-24.31-2.71-8.38-2.9-17.42-6.7-25.48,10.35-2.15,21.41-4.46,23.72-16.42,2.79-14.49-5.22-28.59-15.71-37.87,1.69-15.35,5.31-29.07,19.46-36.91,10.54,1.92,16.09,15.45,28.67,11.18,11.63-3.95,13.16-19.72,14.28-29.96,1.26-11.52,3.77-29.61-3.06-39.84-8.13-12.17-21.37-5.46-32.7-9.44-1.11-11.61-2.19-22.94-3.28-34.39,13.36-2.55,25.42,2.62,36.9,3.6,8.84-7.7-9.76-10.27-13.37-13.32-.48-9.87-.97-20.05-1.46-30.32,15.71.83,32.44,10.73,44.03,20.77,6.42,5.57,11.84,12.29,13.58,20.8,1.97,9.62-1.15,18.73,5.01,27.4,4.62-9.57-1.25-18.59,1.61-27.13,4.7,1.97,6.42,7.53,11.63,8.28,4-5.63-7.46-15.25-10.63-19.2-5.88-7.32-11.77-14.64-17.65-21.96,8.4-6.28,28.11-4.95,32.6-15.71Zm-126.11,80.63c-4.65-4.06-3.11-14.42-3.91-19.99-1.2-8.36-3.03-16.64-5.72-24.65-5.18-15.37-13.67-29.42-24.86-41.15-20.03-21-47.34-30.12-76.05-27.66,63.16-20.57,114.83,58.5,110.55,113.46Zm-1.55-49.92c6.02,7.34,11.09,33.23,8.73,44.94-1.84-14.87-4.56-29.56-8.73-44.94Zm-117.02-57.6c32.02-10.64,58.66-.41,80.61,22.82,20.25,21.43,31.22,47.53,32.43,77.32.12,2.85.38,5.81-2.03,8.88-1.89-5.55-1.41-10.86-2-16.01-3.5-30.31-15.03-56.69-40.04-75.14-26.42-19.5-54.85-23.49-84.54-6.7-.77.44-1.64.71-2.48,1.01-.13.05-.36-.19-1.25-.7,5.78-5.34,12.13-9.1,19.32-11.49Zm69.65,56.68c-10.85-1.2-6.72,21.26-8.19,27.87-2.63,11.86-9.96,21.66-17.86,30.6-17.45-13-36.97-18.95-58.47-19.83-8.34-18.29-16.47-40.67-.85-57.51,12.31-13.26,32.13-19.91,49.92-17.14,45.36,7.08,56.53,57.22,52.4,95.71-10.33,4.66-19.51,8.8-28.38,12.79-2.69-.96-3.41-2.78-3.95-5.7,16.04-19.43,19.01-42.31,15.37-66.78Zm-135.63-29.57c-.66,12.2-1.72,23.2,2.23,34.05-.1-13.67,1.95-26.64,11-37.74,1.8,2.63-1.06,4.31-.53,6.99,6.26-9.72,12.73-18.76,23.29-23.66-.89,1.23-1.99,2.37-2.63,3.71-2.88,6.04-10.65,8.11-12.24,15.16,8.01-5.25,14.1-12.69,21.42-18.71,1.76-.68,3.53-1.36,5.29-2.04-21.34,19.39-34.94,41.9-30.27,72.39-10.12-14.32-4.52-33.54,1.64-48.02-4.41,1.88-4.39,6.44-5.67,9.99-4.98,13.83-4.75,28-1.3,42.99-3.77-3.54-3.65-7.44-3.99-11.12-5.43,1.46-2.41-4.62-5.44-5.64-1.02,3.88,1.75,7.31,1.4,11.35-16.96-19.98-23.25-28.94-4.21-49.71Zm-30.49,28.18s0,0,.01-.01c0,0,0,0-.01.01,1.66-.57,1.3-2.39,1.82-3.98,17.23,12.35,29.38,27.49,33.99,48.02-8.26-15.5-16.96-30.65-31.44-41.43-.22-.16-.47-.27-.73-.32-.21-.04-.41-.07-.62-.09l.88,1.43c10.04,10.66,18.85,22.13,23.71,36.18.93,2.69,2.5,5.24,1.21,9.73-3.22-7.73-5.53-14.62-9.82-20.45-3.91,1.81,2.62,13.34,1.99,17.23-3.49-9.88-9.01-18.83-15.77-26.8-3.49-4.12-7.29-8.03-11.24-11.72-2.63-2.46-10.58-7.03-10.34-11.27-1.81-1.79-4.9-2.46-5.18-6.08,7.64-3.51,13.15,12.16,21.54,9.57Zm-13.89,52.65c-4.17,9.77-8.01,19.55-9.62,30.07-1.89-11.64,1.09-21.77,9.62-30.07Zm-16.61,28.98c-1.7-12.77,1.99-23.94,10.38-33.6-5.84,10.52-9.09,21.75-10.38,33.6Zm20.41-23.27c-2.74,9.1-6.19,18.02-6.77,27.65-1.66-10.16-.05-19.55,6.77-27.65Zm5.5,97.46c-4.15,5.46-9.87,7.02-16.46,6.19,5.49-2.06,10.97-4.12,16.46-6.19Zm4.47,5.19c2.03,1.21,2.72,2.23,2.1,4.25-5.1,1.19-10.17,3.64-17.11,2.9,5.39-3.26,10.88-3.64,15.01-7.14Zm-13.67-154.8c12.82,10.13,23.94,21.54,27.97,38.19-7.22-14.29-17.34-26.43-27.97-38.19Zm-26.87-2.28c5.1,4.41,9.64,9.57,14.66,15.86-12.46,16.57-23.37,34.26-32.32,53.46-21.68-25.44-12.61-50.25,17.66-69.32Zm-93.72,45.21c1.09,5.35-.62,11,1.21,17.48,1.41-12.24,1.95-23.5,7.67-33.61-2.28,9.72-3.76,19.48-2.54,30.28,1.56-9.9,2.57-19.15,7.21-27.61-3.89,22.96-3.62,45.16,11.05,65.83,1.34-7.72-4.51-18.3-5.22-26.22-.81-9.09.24-18.24,2.89-26.96,2.46-8.11,6.24-15.77,10.59-23.02,1.36-2.26,10.54-19.44,13.23-14.68,2.26-2.15,4.51-4.3,6.77-6.45-16.54,24.19-23.33,50.52-6.99,76.74,12.49,20.05,32.16,33.38,55.55,37.09-12.94,1.85-22.51-3.12-34.68-6.51,9.12,7.96,21.07,8.08,31.9,11.41-13.78,1.02-26.28-3.61-38.69-8.66t0,0c-5.86-5.07-10.83-11.17-17.74-15,3.23,7.64,9.59,12.17,16.27,16.37h0c6.61,5.9,14.86,8.06,23.45,10.1-1.55,2.69-4.65.43-6.5,2.49,5.13,1.33,10.04,2.6,16.13,4.18-7.38,1.94-13.28-.87-20.54-1.07,14.44,8.43,28.8,6.88,43.27,5.02-8.46,3.6-17.32,4-26.23,4.17,9.15,1.64,18.23.74,28.06-.98-11.24,9.07-29.84,5.44-42.75,3.4-18.41-2.9-33.59-10.37-49.97-18.8,5.62,7.32,13.75,11.59,21.07,17.56-31.93-4.05-56.81-55.81-44.47-92.54Zm63.6,44.76c-13.89-4.93-25.31-33.44-20.27-53.02q1.86,23.72,20.27,53.02Zm9.9,126.89c-29.68-24.91-61.85-29.8-97.52-13.79.52-2.55,2.68-3.04,4.12-3.86,23.29-13.26,47.02-13.67,71.11-2.2,2.02.96,4.13,1.73,6.19,2.6-3.5-3.9-8.8-4.84-13.77-7.7,10.78-.99,26.86,8.53,30.54,17.52-2.05.65-2.93-1.8-4.72-1.77,1.29,2.9,4.88,4.8,4.05,9.21Zm-38.38-44.4c34.21-10.11,74.84,36.16,68.4,75.6-6.05-39.48-23.07-69.33-68.4-75.6Zm-87.29-158.45c10.51-9.24,31.62-5.88,43.03-.25-2.12-.19-4.25-.38-7.94-.71,3.24,1.96,5.19,3.15,7.27,4.4-1.87,2.12-3.44-1.05-5.5.6,2.3,1.67,4.51,3.28,6.72,4.89-14.34-4.75-28.92-8.07-43.57-8.93Zm-15.8,178.21c-5.24-6.55-6-12.75-7.13-18.89-2.35,8.43-1.52,16.71,1.75,26.5-6.2-5.3-7.41-11.27-10.11-17.93-.81,7.43,2.25,12.97,2.09,19.09-3.67-6.92-11.73-10.6-11.1-20.65.79-12.61,3.41-24.28,9.32-36.36,1.88,4.58-2.2,7.46-.42,12.21,7.43-16.87,15.94-31.89,30.93-41.94-8.96,9.89-17.72,19.92-22.92,32.57,8.11-15,21.11-25.15,34.08-35.43,5.93-4.7,9.03-11.94,13.54-17.99-1.98,9.47-7.86,16.93-12.88,25.95,4.78-2.13,8.82-3.55,9.98-9.67,2.03,4.02-.17,6.09-.09,8.88,1.24-1.72,2.24-3.09,3.17-4.37,2.43.54-1.68,10.25-7.95,20.98-3.81,6.52-9.3,11.82-14.46,19.52,6.82-2,8.72-7.3,14.03-10.33-3.16,7.63-9.99,11.04-13.42,17.19,2.84.78,3.49-3.15,6.45-1.93-5.49,9.38-21.23,13.11-15.57,28.69-4.26-4.27-5.78-9.46-7.74-14.85-.61,2.39-2.85,1.96-4.04,3.09-1.46,4.93,1.58,9.13,2.5,15.68Zm109.68,269.39c-8.96-10.61-18.22-20.98-26.81-31.89-15.47-19.64-29.74-40.08-41.4-62.31-9.81-18.71-23.33-35.31-31.7-54.89-7.03-16.45-11.09-33.24-6.7-51.17.48-1.95.69-3.97,3.38-6.17-2.17,12.99-.45,24.88,1.96,36.7,3.83,18.75,11.65,35.82,21.8,51.92,24.85,39.39,51.36,77.63,79.92,114.43.5.64.71,1.5,1.06,2.26-.51.37-1.02.74-1.52,1.12Zm22.76,14.58c-5-6.34-11.1-11.83-14.56-19.38.57-.45,1.13-.9,1.7-1.34,4.82,6.5,9.63,13,14.45,19.5-.53.41-1.06.81-1.59,1.22Zm-17.78-47.88c6.6-7.54,13.18-15.06,19.76-22.57.61.36,1.22.72,1.83,1.08-3.31,10.68-9.7,19.76-15.28,29.37-3.52-1.87-4.43-4.68-6.31-7.87Zm27.08,39.25c-4.32-2.81-5.43-7.19-9.48-8.23.43,4.06,2.63,7.38,4.23,11.15-2.62-2.2-22.77-22.92-9.71-21.88-.96-2.7-2.34-5.15-1.16-8.36,6.37-17.31,17.6-32.05,25.46-48.82,2.35,26.02-2.45,50.86-9.33,76.14Zm-31.12-45.03c-3.56-.12-3.88-2.89-5.74-3.65-15.17-20.59-30.86-40.81-43.89-62.9,11.22,23.36,27.29,43.48,42.72,64.03.31,2.38,3.1,3.87,2.56,7.04-3.28.15-4.16-2.56-5.48-4.3-21.45-28.32-41.72-57.38-56.24-90.03-.61-1.38-1.85-2.48-2.79-3.71,0,0,0,0,0,0-1.02-3.14-1.96-6.32-3.08-9.43-1.01-2.79-1.15-6.39-5.39-6.55.19-.56.38-1.13.57-1.69-.18-.3-.38-.58-.58-.87.16-.33.29-.68.37-1.04-2.48-13.76-7.68-27-7.76-41.24-1.3,14.15,2.71,27.58,5.22,41.22-5.15-1.3-6.63-20.42-7.43-24.94-1.86-10.5-2.56-21.31.23-31.73-15.24,28.57,3.36,68.58,18.3,93.52,9.14,15.25,19.15,30.04,29.3,44.63,5.12,7.36,10.34,14.64,15.68,21.83,2.26,3.04,14.59,15.15,12.61,18.88-4.47,3.63-38.37-45.82-42.13-51.5-13.75-20.78-27.65-42.68-37.23-65.74-8.26-19.89-12.83-42.27-5.21-63.08,7.43-20.29,23.08-32.82,39.66-45.38-7.38,1.95-13.82,5.87-20.55,9.79,9.39-22.82,64.73-26.7,89.33-6.13-8.6-2.38-16.37-7.52-25.99-8.1,9.16,3.4,16.42,7.21,24.46,12.68-2.48.58-3.29.88-4.99,2.19,5.01,4.69,10.35,9.64,14.96,15.49,2.42-.95,4.43-1.74,8.04-3.16-2.49,11.25-2.42,22.62-3.01,34.05-.56,10.9-3.49,21.62-3.08,32.57,8.78-2.46,8.72-22.33,9.63-29.41,1.61-12.5,2.8-24.8,9.08-36.03,5.01,1.72,5.61,14.2,6.68,18.83,1.85,8,3.49,16.05,4.71,24.17,1.19,7.92,2.63,16.53,2.28,24.58-.34,7.71-4.1,12.73-8.78,18.61-8.37,10.52-20.43,17.13-26.98,29.14-3.28,6.02-4.76,12.46-6.3,19.08-1.01,4.32-6.73,16.27-3,19.84,6.34.89,9.68-20.99,11.05-25.48,3.38-11.06,7.42-16.84,17.69-22.46,2.08,8.21.62,15.84,1.42,23.63,1.19,1.14,2.59,2.48,4.51,4.32-11.18,23.06-32.18,38.12-45.44,58.41Zm45.72-80.63c-.57-10.08.98-12.46,12.23-17.5.46,12.99-6.43,22.95-10.96,33.69-.18-5.58-.97-10.87-1.27-16.19Zm18.44,152.64c-3.69-5.89-8.58-10.15-10.57-16.99-4.14-14.21-3.02-30.79-.89-45.21,10.81,24.57,13.91,51.73,21.77,77.46-5.21-3.34-7.15-10.22-10.31-15.26Zm5.32-45.25c7.91,3.94,10.62,10.29,11.82,17.68,2.45,15.02,1.45,30.46,6.54,46.9-10.94-15.58-19.74-47.22-18.36-64.58Zm43.6,23.03c-.75-4.25,1.99-7.5,2.77-11.26-4.3,1.43-4.43,5.76-6.12,8.96-1.55,2.93-2.3,6.29-5.77,9.84,1.4-4.83,2.41-8.34,3.43-11.84-6.76,8.67-6.88,19.44-10.05,29.54-.23-3.65-.47-7.3-.73-11.35-1.19,3.15.24,6.35-1.78,9.77-1.11-6.92-1.31-13.37-4.36-19.27v13.34c-3.72-6.69-3.99-14.04-4.14-21.16-.19-8.79-3.39-15.63-9.83-21.3-8.53-7.52-15.46-16.27-20.85-26.32-3.06-5.71-4.4-11.6-4.47-18.09-.24-20.65,3.42-40.18,15.82-58.38,4.39,10.22,8.86,19.97,8.76,30.85-.19,19.99,3.26,39.38,8.53,58.53.72,2.62.82,5.95,4.6,7.17,4.14-2.59,1.37-6.19.69-8.88-2.87-11.38-5.17-22.8-5.14-34.59,0-1.91-.87-4.04.62-5.39,19.35,13.97,25.39,36.17,34.81,56.31.82,2.7-2.09,4.52-2.12,7.26,2.24.69,2.37-2.72,5.54-2.01-3.3,6.29-7.67,11.8-10.19,18.28Zm13.48-25.85c-4.52-8.43-9.56-15.85-10.09-25.58,3.09,2.81,6.19,5.63,9.53,8.67-.58,1.6-1.16,3.19-2.17,5.96,2.25-1.35,3.6-2.16,5.02-3.01,1.59,1.96,3.09,3.82,4.82,5.95-2.23,2.51-4.38,4.94-7.1,8.01Zm21.3,5.17c12.2-17.36,28-31.35,43.22-45.9-12.34,17.23-27.99,31.36-43.22,45.9Zm43.66-64.34c-2.98,8.02-12.64,15.18-18.37,21.42-2.42.83-1.54-2.27-4.43-1.57-10.26,6.75-18.82,17.28-28.46,26.92-1.67-2.54-.72-4.13.24-5.86-2.62-.48-4.93,5.05-7.25-.12.68-3.67,4.19-5.51,6.86-9.74-3.66,2.92-6.24,4.99-9.36,7.48-19.53-17.42-40-35.62-46.85-61.94-3.88-14.91-8.92-29.84-12.36-44.8-3.42-14.86-2.41-30.35-3.79-45.45,9.26,9.99,18.74,20.47,23.37,33.54,4.86,13.69,1.72,29.07,7.94,42.35,3.41-7.51.72-15.41,2.47-23.54,6.59,3.76,9.36,10.69,14.58,14.83,7.85-3.59-9.13-18.46-11.68-22.5-6.03-9.54-7.42-20.99-13.04-30.8-5.49-9.59-14.23-16.86-18.74-27.01-4.35-9.8-5.13-20.72-4.94-31.3,3.04-1.47,30.74,30.08,34.41,33.52,11.52,10.8,23.57,20.99,35.33,31.51,9.41,8.42,13.24,18.78,11.71,31.32-.98,7.98-1.45,14.92.2,22.88.82,3.96,3.25,21.63,8.17,21.62,5.02-4.09-1.15-18.56-1.26-24.14-.21-10.55,2.54-20.94,6.1-30.79,7.96,2.07,11.55,12.38,14.65,19.03,4.33,9.27,7.84,18.9,10.8,28.69,2.21,7.29,6.51,16.87,3.7,24.45Zm21.7-11.76c-1.7,1.41-3.41,2.82-5.09,4.22-3.04-1.09-4.93-3.18-5.78-5.64-5.65-16.26-11.09-32.59-17.06-50.28,18.72,6.4,34.73,14.03,44.7,30.71-1.35,2.34-2.59,4.48-3.82,6.61l3.69-2.36c-4.86,9.8-11.19,18.15-19.46,26.59-1.48-5.3,2.67-6.85,2.82-9.85Zm5.07,15.64c1.18-5.35,14.82-20.94,21.05-23.5-6.01,8.71-12.87,16.68-21.05,23.5Zm18.51-40.22c-4.02-3.06-6.16-6.79-6.83-12.2,4.66.38,8.42,1.05,11.96,3.04-.95,3.69-2.76,6.37-5.13,9.17Zm10.99-13.61c-4.91.02-8.56-2.91-13.33-4.87,10.19-11.17,19.75-21.65,29.31-32.13-1.31,10.85-9.09,18.5-10.95,28.53-.56,3.38-2.3,6.19-5.04,8.47Zm5.79,7.16c11.99-15.87,21.15-33.48,31.2-50.55-6.78,19.05-17.53,35.69-31.2,50.55Zm34.67-86.84c-2.7,5.74-7.92,11.07-11.7,16.17-14.56,19.7-28.78,39.74-43.89,59.02-26.04-9.4-49.18-22.82-71.85-37.67,13.48.07,26.96-3.41,40.43-1.76,6.55.8,12.29,3.01,18.1,6.09,3.75,1.99,13.61,9.5,17.39,5.26,1.79-5.23-18.49-13.28-22.21-14.91-10.14-4.45-20.35-6.56-31.42-6.29-11.54.27-22.86-.04-34.13-2.9-11.81-3-19.2-10.55-27.71-18.78,15.18.26,26.31-8.42,38.84-15.53,12.03-6.83,31.98-4.47,41.47-15.22-9.17-3.37-16.61,3.19-25.02,1.98,1.89-5.6,8.23-8.19,9.49-14.19-5.08-4.7-27.99,19.24-33.23,23.2-11.41,8.63-24.49,12.04-38.62,8.25-13.29-3.57-23.03-21.02-31.5-30.99-5.5-6.47-10.99-12.94-16.48-19.41-4.15-4.89-10.75-10.22-12.51-16.39,11.91-.81,23.88.54,34.9-4.6-9.6.24-19.09-.48-28.61-1.94,9.6-1.34,19.63.27,30.41-5.46-10.41,2.41-18.98,3.56-27.79,1.52,12.31-.74,23.63-4.53,34.63-11.02,13.46,14.04,29.35,23.51,49.91,28.62-5.01-7.1-15.64-10.81-22.69-15.47-5.73-3.79-21.39-13.45-20.58-21.7.02-.31.04-.62.06-.93.13-.72.47-1.34,1.43-.66,4.98,3.68,9.96,7.36,14.93,11.04.21-.22.14-.15.35-.37-13.2-15.91-23.39-32.5-13.45-53.23,7.73-16.14,21.97-29.86,38.18-37.33,30.09-13.86,72.21-8.65,81.06,27.8.39-9.41-4.19-15.8-7.55-22.81,3.63-.02,3.31,3.74,5.87,4.6-1.19-5.65-4.63-9.57-8.28-13.29-2.45-2.5-5.37-4.51-8.59-5.89-22.45-9.64-45.34-10.53-68.49-.77-17.24,7.27-29.43,20.33-38.94,36.12-1.12,1.86-1.54,4.26-5.03,5.88,7.64-22.61,20.67-39.77,41.94-48.28,26.46-10.59,52.43-7.38,76.52,8.39,13.34,9.39,19.96,22.62,22.15,38.13,4.07-7.94,1.9-15.74-11.03-36.65,22.79,17.72,32.33,62.98,6.91,82.92,1.8-6.12,5.39-11.66,5.72-19-.92.85-1.39,1.28-2.01,1.85-.39-1.25-.76-2.42-1.23-3.92-2.66,2.74-2.71,6.91-6.52,9.14.48-5.51,4.07-10.1,1.85-16.26-4.26,6.2-5.6,13.42-11.99,18.17-.18-6.21,4.19-10.79,3.4-17.4-1.8,4.12-4.68,5.43-8.43,5.51,1.02-4.26,2.04-8.54,3.22-13.45-3.93,1.25-4.31,5.34-8.41,6.79-11.43-1.93-23.37-10.19-37.73-3.23,9.51.5,17.82,1.65,26.58,7.1-5.44-.4-9.52-1.35-13.62,1.06,3.47.66,6.99.11,10.26,2.95-5.1.1-9.7-1.77-15.09.23,5.51,3.6,12.22,2.99,17.23,8.12-7.03-1.27-12.97-4.61-21.07-2.26,12.57,4.32,23.41,8.92,32.1,16.94.82,2.48-2.96,1.29-2.17,3.73,17.23,12.76,35.19,25,52.32,39.1-1.16,5.92,4.54,9.05,6.11,14.82,1.55-3.57-2.62-5.33-.42-9.38,15.03,26.34,14.6,51.35-1.56,76.9,23.32-24.71,15.33-68.61-3.09-93.38,26,15.29,19.87,54.64,17.85,79.04,5.71-11.7,6.2-24.45,7.31-38.37,4.02,6.49,2.74,12.55,3.29,17.67,1.51-9.29-.85-18.95-1.75-28.73,6.26,6.8,5.43,21.97,5.54,30.45.07,5.09.86,10.55-1.35,15.26Zm-161.82-181.96c6.36-6.17,13.78-10.42,22.64-12.04-7.66,3.81-15.11,7.99-22.64,12.04Zm184.34,103.57c-7.4,15.25-23.65-3.72-25.84-11.88-1.87,6.21,1.18,10.81.84,15.79-3.49-1.32-3.18-5.49-6.41-7.58-.44,4.88,2.32,8.12,5.26,12.61-11.63-7.47-13.34-12.75-8.88-24.51-1.66-1.75-3.15,1.09-5.01.15.78-2.29-.1-4.45-1.7-7.08,9.76-3.15,22.19-4,31.44,1.26,7.71,4.38,9.46,13.06,10.29,21.24Zm32.03-69.93c-6.77-2.1-13.55-4.19-20.32-6.29,7.95-2.12,14.52.7,20.96,4.01-.21.76-.43,1.52-.64,2.28Zm-10.86-14.43c4.55.89,8.18,2.77,9.72,6.18-14.23-1.62-30.41-5.77-44.03.69-11.61,5.5-17.53,17.34-19.47,29.57-6.37-15.51,9.15-28.66,21.8-33.12,4.7-1.66,15.15-4,24.51-3.97-12.29-.86-24.57-.33-35.29,6.46-12.85,8.14-15.65,21.56-16.77,35.69-4.1-12.45-.64-22.1,4.53-31.49-6.12,6.27-7.58,10.29-9.65,26.42-3.89-10.19,1.48-24.31,11.11-29.24,16.86-11.01,47.66-20.48,65.48-6.02-3.92-.32-7.92-.77-11.96-1.18Zm25.76-30.53c-16.39-.19-31.05-.88-45.55,1.88,9.93,1.84,20.09,2.16,29.79,5.94-10.91.2-21.84-.4-34.16,1.1,9.75,2.92,18.88-.16,27.78,4.2-10.76.45-20.84.09-30.59,3.37,11.97.84,24.23-.74,36.66,4.39-3.27,1.73-5.91.95-8.36.83-11.05-.54-22.09-.89-32.99,1.43-28.16,6-36.84,18.93-38.86,41.28-.28,3.11-.41,6.23-1.89,9.55-.52-3.28-1.41-6.56-1.49-9.86-.34-13.34-1.76-26.73,1.1-39.98.78-3.61,3.73-5.51,6.54-7.39,2.41-1.61,4.92-3.06,6.98-5.53-3.87,1.72-7.75,3.43-12.03,5.33,13.44-14.94,78.94-26.81,97.06-16.54Zm-10.54-60.94c-7.18-1.06-14.46-.66-21.95-2.69-5.36-16.39-12.27-31.96-21.97-46.17,12.08-6.48,16.8-5.88,25.99,2.92,14.04,13.44,19.18,26.29,17.93,45.94Z" stroke-width="0"/><path d="m553.46,378.1c-12.96-12.34-27.8-21.57-44.89-27.08,15.67,7.86,30.88,16.48,44.89,27.08Z" stroke-width="0"/><path d="m524.31,274.41c-9.86-6.61-20.43-5.97-31.08-3.4,10.61-.95,20.8,1.67,31.08,3.4Z" stroke-width="0"/><path d="m324,292.85c-7.72-17.14-13.48-34.57-9.54-53.85,1.36-6.64,4.55-12.62,5.93-19.19-9.63,14.87-10.43,31.1-7.02,47.82,1.85,9.05,3.87,18.17,10.63,25.22Z" stroke-width="0"/></svg>