<?xml version="1.0" encoding="UTF-8"?>
<svg id="Layer_1" data-name="Layer 1" xmlns="http://www.w3.org/2000/svg" xmlns:xlink="http://www.w3.org/1999/xlink" viewBox="0 0 99.43 100.26">
  <defs>
    <style>
      .cls-1 {
        fill: url(#linear-gradient-6);
      }

      .cls-1, .cls-2, .cls-3, .cls-4, .cls-5, .cls-6, .cls-7, .cls-8 {
        stroke: #4a2700;
        stroke-linecap: round;
        stroke-linejoin: round;
        stroke-width: .26px;
      }

      .cls-2 {
        fill: url(#linear-gradient-5);
      }

      .cls-3 {
        fill: url(#linear-gradient-7);
      }

      .cls-4 {
        fill: url(#linear-gradient-4);
      }

      .cls-5 {
        fill: url(#linear-gradient);
      }

      .cls-6 {
        fill: url(#linear-gradient-2);
      }

      .cls-7 {
        fill: url(#linear-gradient-3);
      }

      .cls-8 {
        fill: #ebae49;
      }
    </style>
    <linearGradient id="linear-gradient" x1=".13" y1="50.13" x2="99.3" y2="50.13" gradientUnits="userSpaceOnUse">
      <stop offset="0" stop-color="#dba040"/>
      <stop offset="1" stop-color="#ebae49"/>
    </linearGradient>
    <linearGradient id="linear-gradient-2" x1="-28.32" y1="69.07" x2="-28.2" y2="69.07" gradientUnits="userSpaceOnUse">
      <stop offset="0" stop-color="#945a14"/>
      <stop offset="1" stop-color="#965a18"/>
    </linearGradient>
    <linearGradient id="linear-gradient-3" x1="-28.32" y1="74.85" x2="-28.2" y2="74.85" xlink:href="#linear-gradient-2"/>
    <linearGradient id="linear-gradient-4" x1="-28.32" y1="69.07" x2="-28.2" y2="69.07" xlink:href="#linear-gradient-2"/>
    <linearGradient id="linear-gradient-5" x1="-28.32" y1="31.19" x2="-28.2" y2="31.19" xlink:href="#linear-gradient-2"/>
    <linearGradient id="linear-gradient-6" x1="-28.32" y1="25.41" x2="-28.2" y2="25.41" xlink:href="#linear-gradient-2"/>
    <linearGradient id="linear-gradient-7" y1="31.19" y2="31.19" xlink:href="#linear-gradient-2"/>
  </defs>
  <path class="cls-5" d="M94,50.13c3.21-2.39,5.3-6.24,5.3-10.56,0-5.99-3.99-11.05-9.43-12.62.53-2.13.51-4.38-.09-6.56-.92-3.36-3.1-6.17-6.13-7.92-2.01-1.16-4.29-1.77-6.6-1.77-1.82,0-3.58.38-5.2,1.08-.46-3.98-2.75-7.71-6.5-9.87-2.01-1.16-4.29-1.77-6.6-1.77-3.42,0-6.66,1.34-9.05,3.64-2.39-2.3-5.63-3.64-9.05-3.64-2.31,0-4.59.61-6.6,1.77-3.75,2.16-6.03,5.9-6.5,9.87-1.62-.7-3.38-1.08-5.2-1.08-2.31,0-4.59.61-6.6,1.77-3.03,1.75-5.21,4.56-6.13,7.92-.6,2.18-.62,4.43-.09,6.56C4.12,28.51.13,33.58.13,39.56c0,4.33,2.09,8.17,5.3,10.56C2.22,52.52.13,56.36.13,60.69c0,5.99,3.99,11.05,9.43,12.62-1.36,5.49,1.03,11.48,6.21,14.48,2.01,1.16,4.29,1.77,6.6,1.77,1.81,0,3.58-.38,5.19-1.08.08.65.2,1.3.38,1.95.92,3.36,3.1,6.17,6.13,7.92,2.01,1.16,4.29,1.77,6.6,1.77h0c3.42,0,6.66-1.34,9.05-3.64,2.39,2.3,5.63,3.64,9.05,3.64,2.31,0,4.59-.61,6.6-1.77,3.03-1.75,5.21-4.56,6.13-7.92.18-.65.3-1.3.38-1.95,1.61.7,3.38,1.08,5.19,1.08h0c2.3,0,4.59-.61,6.6-1.77,3.03-1.75,5.21-4.56,6.13-7.92.6-2.18.62-4.43.09-6.56,5.44-1.57,9.43-6.63,9.43-12.62,0-4.33-2.09-8.17-5.3-10.56Z"/>
  <g>
    <path class="cls-6" d="M17.05,85.58c3.43,1.98,7.5,1.84,10.66-.02.4-.23.72-.57.95-.98l19.31-33.45H9.36c-.46,0-.92.11-1.32.34-3.19,1.81-5.36,5.26-5.36,9.23,0,5.83,4.67,10.56,10.44,10.56-2.88,4.99-1.12,11.4,3.93,14.32Z"/>
    <path class="cls-7" d="M49.71,52.12h0s0,0,0,0l-19.31,33.45c-.23.4-.36.85-.37,1.31-.03,3.67,1.88,7.27,5.31,9.25,5.05,2.92,11.48,1.24,14.37-3.76,2.88,4.99,9.31,6.67,14.37,3.76,3.43-1.98,5.35-5.58,5.31-9.25,0-.46-.14-.91-.37-1.31l-19.31-33.45Z"/>
    <path class="cls-4" d="M90.07,51.13h-38.62l19.32,33.45c.23.4.56.74.95.98,3.16,1.86,7.23,2,10.66.02,5.05-2.92,6.81-9.33,3.93-14.32,5.76,0,10.44-4.73,10.44-10.56,0-3.97-2.16-7.42-5.36-9.23-.4-.23-.86-.34-1.32-.34Z"/>
    <path class="cls-2" d="M82.38,14.68c-3.43-1.98-7.51-1.84-10.67.02-.4.23-.72.57-.95.97l-19.31,33.45h38.63c.46,0,.92-.11,1.32-.34,3.19-1.81,5.35-5.26,5.35-9.22,0-5.83-4.67-10.56-10.44-10.56,2.88-4.99,1.12-11.4-3.93-14.32Z"/>
    <path class="cls-1" d="M49.71,48.13h0s0,0,0,0l19.31-33.45c.23-.4.36-.85.37-1.31.03-3.67-1.88-7.26-5.31-9.25-5.05-2.92-11.48-1.24-14.37,3.76-2.88-4.99-9.31-6.67-14.37-3.76-3.43,1.98-5.34,5.58-5.31,9.25,0,.46.14.91.37,1.31l19.31,33.45Z"/>
    <path class="cls-3" d="M9.35,49.13h38.63L28.67,15.68c-.23-.4-.56-.74-.95-.97-3.16-1.86-7.23-2.01-10.67-.02-5.05,2.92-6.81,9.33-3.93,14.32-5.76,0-10.44,4.73-10.44,10.56,0,3.96,2.16,7.42,5.35,9.22.4.23.86.34,1.32.34Z"/>
  </g>
  <g>
    <path class="cls-8" d="M49.49,45.16l-1.44-2.49c-.05-.08-.05-.18,0-.26l1.44-2.46c.1-.17.34-.17.44,0l1.44,2.46c.05.08.05.18,0,.26l-1.44,2.49c-.1.17-.34.17-.44,0Z"/>
    <path class="cls-8" d="M46.88,40.63l-1.44-2.49c-.05-.08-.05-.18,0-.26l1.44-2.46c.1-.17.34-.17.44,0l1.44,2.46c.05.08.05.18,0,.26l-1.44,2.49c-.1.17-.34.17-.44,0Z"/>
    <path class="cls-8" d="M44.26,36.09l-1.44-2.49c-.05-.08-.05-.18,0-.26l1.44-2.46c.1-.17.34-.17.44,0l1.44,2.46c.05.08.05.18,0,.26l-1.44,2.49c-.1.17-.34.17-.44,0Z"/>
    <path class="cls-8" d="M41.64,31.56l-1.44-2.49c-.05-.08-.05-.18,0-.26l1.44-2.46c.1-.17.34-.17.44,0l1.44,2.46c.05.08.05.18,0,.26l-1.44,2.49c-.1.17-.34.17-.44,0Z"/>
    <path class="cls-8" d="M39.02,27.03l-1.44-2.49c-.05-.08-.05-.18,0-.26l1.44-2.46c.1-.17.34-.17.44,0l1.44,2.46c.05.08.05.18,0,.26l-1.44,2.49c-.1.17-.34.17-.44,0Z"/>
    <path class="cls-8" d="M36.41,22.49l-1.44-2.49c-.05-.08-.05-.18,0-.26l1.44-2.46c.1-.17.34-.17.44,0l1.44,2.46c.05.08.05.18,0,.26l-1.44,2.49c-.1.17-.34.17-.44,0Z"/>
    <path class="cls-8" d="M33.79,17.96l-1.44-2.49c-.05-.08-.05-.18,0-.26l1.44-2.46c.1-.17.34-.17.44,0l1.44,2.46c.05.08.05.18,0,.26l-1.44,2.49c-.1.17-.34.17-.44,0Z"/>
    <path class="cls-8" d="M52.11,40.63l-1.44-2.49c-.05-.08-.05-.18,0-.26l1.44-2.46c.1-.17.34-.17.44,0l1.44,2.46c.05.08.05.18,0,.26l-1.44,2.49c-.1.17-.34.17-.44,0Z"/>
    <path class="cls-8" d="M49.49,36.09l-1.44-2.49c-.05-.08-.05-.18,0-.26l1.44-2.46c.1-.17.34-.17.44,0l1.44,2.46c.05.08.05.18,0,.26l-1.44,2.49c-.1.17-.34.17-.44,0Z"/>
    <path class="cls-8" d="M46.88,31.56l-1.44-2.49c-.05-.08-.05-.18,0-.26l1.44-2.46c.1-.17.34-.17.44,0l1.44,2.46c.05.08.05.18,0,.26l-1.44,2.49c-.1.17-.34.17-.44,0Z"/>
    <path class="cls-8" d="M44.26,27.03l-1.44-2.49c-.05-.08-.05-.18,0-.26l1.44-2.46c.1-.17.34-.17.44,0l1.44,2.46c.05.08.05.18,0,.26l-1.44,2.49c-.1.17-.34.17-.44,0Z"/>
    <path class="cls-8" d="M41.64,22.49l-1.44-2.49c-.05-.08-.05-.18,0-.26l1.44-2.46c.1-.17.34-.17.44,0l1.44,2.46c.05.08.05.18,0,.26l-1.44,2.49c-.1.17-.34.17-.44,0Z"/>
    <path class="cls-8" d="M39.02,17.96l-1.44-2.49c-.05-.08-.05-.18,0-.26l1.44-2.46c.1-.17.34-.17.44,0l1.44,2.46c.05.08.05.18,0,.26l-1.44,2.49c-.1.17-.34.17-.44,0Z"/>
    <path class="cls-8" d="M36.41,13.43l-1.44-2.49c-.05-.08-.05-.18,0-.26l1.44-2.46c.1-.17.34-.17.44,0l1.44,2.46c.05.08.05.18,0,.26l-1.44,2.49c-.1.17-.34.17-.44,0Z"/>
    <path class="cls-8" d="M54.73,36.09l-1.44-2.49c-.05-.08-.05-.18,0-.26l1.44-2.46c.1-.17.34-.17.44,0l1.44,2.46c.05.08.05.18,0,.26l-1.44,2.49c-.1.17-.34.17-.44,0Z"/>
    <path class="cls-8" d="M52.11,31.56l-1.44-2.49c-.05-.08-.05-.18,0-.26l1.44-2.46c.1-.17.34-.17.44,0l1.44,2.46c.05.08.05.18,0,.26l-1.44,2.49c-.1.17-.34.17-.44,0Z"/>
    <path class="cls-8" d="M49.49,27.03l-1.44-2.49c-.05-.08-.05-.18,0-.26l1.44-2.46c.1-.17.34-.17.44,0l1.44,2.46c.05.08.05.18,0,.26l-1.44,2.49c-.1.17-.34.17-.44,0Z"/>
    <path class="cls-8" d="M46.88,22.49l-1.44-2.49c-.05-.08-.05-.18,0-.26l1.44-2.46c.1-.17.34-.17.44,0l1.44,2.46c.05.08.05.18,0,.26l-1.44,2.49c-.1.17-.34.17-.44,0Z"/>
    <path class="cls-8" d="M44.26,17.96l-1.44-2.49c-.05-.08-.05-.18,0-.26l1.44-2.46c.1-.17.34-.17.44,0l1.44,2.46c.05.08.05.18,0,.26l-1.44,2.49c-.1.17-.34.17-.44,0Z"/>
    <path class="cls-8" d="M41.64,13.43l-1.44-2.49c-.05-.08-.05-.18,0-.26l1.44-2.46c.1-.17.34-.17.44,0l1.44,2.46c.05.08.05.18,0,.26l-1.44,2.49c-.1.17-.34.17-.44,0Z"/>
    <path class="cls-8" d="M57.35,31.56l-1.44-2.49c-.05-.08-.05-.18,0-.26l1.44-2.46c.1-.17.34-.17.44,0l1.44,2.46c.05.08.05.18,0,.26l-1.44,2.49c-.1.17-.34.17-.44,0Z"/>
    <path class="cls-8" d="M54.73,27.03l-1.44-2.49c-.05-.08-.05-.18,0-.26l1.44-2.46c.1-.17.34-.17.44,0l1.44,2.46c.05.08.05.18,0,.26l-1.44,2.49c-.1.17-.34.17-.44,0Z"/>
    <path class="cls-8" d="M52.11,22.49l-1.44-2.49c-.05-.08-.05-.18,0-.26l1.44-2.46c.1-.17.34-.17.44,0l1.44,2.46c.05.08.05.18,0,.26l-1.44,2.49c-.1.17-.34.17-.44,0Z"/>
    <path class="cls-8" d="M49.49,17.96l-1.44-2.49c-.05-.08-.05-.18,0-.26l1.44-2.46c.1-.17.34-.17.44,0l1.44,2.46c.05.08.05.18,0,.26l-1.44,2.49c-.1.17-.34.17-.44,0Z"/>
    <path class="cls-8" d="M59.96,27.03l-1.44-2.49c-.05-.08-.05-.18,0-.26l1.44-2.46c.1-.17.34-.17.44,0l1.44,2.46c.05.08.05.18,0,.26l-1.44,2.49c-.1.17-.34.17-.44,0Z"/>
    <path class="cls-8" d="M57.35,22.49l-1.44-2.49c-.05-.08-.05-.18,0-.26l1.44-2.46c.1-.17.34-.17.44,0l1.44,2.46c.05.08.05.18,0,.26l-1.44,2.49c-.1.17-.34.17-.44,0Z"/>
    <path class="cls-8" d="M54.73,17.96l-1.44-2.49c-.05-.08-.05-.18,0-.26l1.44-2.46c.1-.17.34-.17.44,0l1.44,2.46c.05.08.05.18,0,.26l-1.44,2.49c-.1.17-.34.17-.44,0Z"/>
    <path class="cls-8" d="M52.11,13.43l-1.7-2.95c-.05-.08-.05-.18,0-.25.51-.91,1.02-1.69,1.53-2.35.11-.14.33-.13.42.03l1.63,2.79c.05.08.05.18,0,.26l-1.44,2.49c-.1.17-.34.17-.44,0Z"/>
    <path class="cls-8" d="M62.58,22.49l-1.44-2.49c-.05-.08-.05-.18,0-.26l1.44-2.46c.1-.17.34-.17.44,0l1.44,2.46c.05.08.05.18,0,.26l-1.44,2.49c-.1.17-.34.17-.44,0Z"/>
    <path class="cls-8" d="M59.96,17.96l-1.44-2.49c-.05-.08-.05-.18,0-.26l1.44-2.46c.1-.17.34-.17.44,0l1.44,2.46c.05.08.05.18,0,.26l-1.44,2.49c-.1.17-.34.17-.44,0Z"/>
    <path class="cls-8" d="M57.35,13.43l-1.44-2.49c-.05-.08-.05-.18,0-.26l1.44-2.46c.1-.17.34-.17.44,0l1.44,2.46c.05.08.05.18,0,.26l-1.44,2.49c-.1.17-.34.17-.44,0Z"/>
    <path class="cls-8" d="M54.73,8.89l-1.26-2.19c-.06-.11-.04-.26.06-.33.67-.5,1.43-.89,2.28-1.18.11-.04.24.01.3.12l.49.84c.05.08.05.18,0,.26l-1.44,2.49c-.1.17-.34.17-.44,0Z"/>
    <path class="cls-8" d="M65.2,17.96l-1.44-2.49c-.05-.08-.05-.18,0-.26l1.44-2.46c.1-.17.34-.17.44,0l1.44,2.46c.05.08.05.18,0,.26l-1.44,2.49c-.1.17-.34.17-.44,0Z"/>
    <path class="cls-8" d="M62.58,13.43l-1.44-2.49c-.05-.08-.05-.18,0-.26l1.44-2.46c.1-.17.34-.17.44,0l1.44,2.46c.05.08.05.18,0,.26l-1.44,2.49c-.1.17-.34.17-.44,0Z"/>
    <path class="cls-8" d="M59.96,8.89l-1.44-2.49c-.05-.08-.05-.18,0-.26l.75-1.29c.05-.09.15-.14.24-.13.55.05,1.08.13,1.56.27.06.02.12.06.15.12.13.22.45.78.6,1.03.05.08.05.18,0,.26l-1.44,2.49c-.1.17-.34.17-.44,0Z"/>
    <path class="cls-8" d="M66.92,9.76s.7.96.9,2.9c.03.28-.35.39-.48.14l-.96-1.87c-.04-.08-.04-.17,0-.25l.54-.93"/>
    <path class="cls-8" d="M65.2,8.89l-1.04-1.81c-.14-.25.16-.51.38-.33.48.39.93.84,1.35,1.38.06.08.07.2.02.29l-.24.42c-.12.22-.37.22-.47.05Z"/>
    <path class="cls-8" d="M47.32,13.43l1.7-2.95c.05-.08.05-.18,0-.25-.51-.91-1.02-1.69-1.53-2.35-.11-.14-.33-.13-.42.03-.41.7-1.35,2.32-1.63,2.79-.05.08-.05.18,0,.26l1.44,2.49c.1.17.34.17.44,0Z"/>
    <path class="cls-8" d="M44.7,8.89l1.26-2.19c.06-.11.04-.26-.06-.33-.67-.5-1.43-.89-2.28-1.18-.11-.04-.24.01-.3.12l-.49.84c-.05.08-.05.18,0,.26l1.44,2.49c.1.17.34.17.44,0Z"/>
    <path class="cls-8" d="M39.47,8.89l1.44-2.49c.05-.08.05-.18,0-.26l-.75-1.29c-.05-.09-.15-.14-.24-.13-.55.05-1.08.13-1.56.27-.06.02-.12.06-.15.12-.13.22-.45.78-.6,1.03-.05.08-.05.18,0,.26l1.44,2.49c.1.17.34.17.44,0Z"/>
    <path class="cls-8" d="M32.51,9.76s-.7.96-.9,2.9c-.03.28.35.39.48.14l.96-1.87c.04-.08.04-.17,0-.25l-.54-.93"/>
    <path class="cls-8" d="M34.23,8.89l1.04-1.81c.14-.25-.16-.51-.38-.33-.48.39-.93.84-1.35,1.38-.06.08-.07.2-.02.29l.24.42c.12.22.37.22.47.05Z"/>
    <path class="cls-8" d="M49.94,55.1l1.44,2.49c.05.08.05.18,0,.26l-1.44,2.46c-.1.17-.34.17-.44,0l-1.44-2.46c-.05-.08-.05-.18,0-.26l1.44-2.49c.1-.17.34-.17.44,0Z"/>
    <path class="cls-8" d="M52.55,59.63l1.44,2.49c.05.08.05.18,0,.26l-1.44,2.46c-.1.17-.34.17-.44,0l-1.44-2.46c-.05-.08-.05-.18,0-.26l1.44-2.49c.1-.17.34-.17.44,0Z"/>
    <path class="cls-8" d="M55.17,64.16l1.44,2.49c.05.08.05.18,0,.26l-1.44,2.46c-.1.17-.34.17-.44,0l-1.44-2.46c-.05-.08-.05-.18,0-.26l1.44-2.49c.1-.17.34-.17.44,0Z"/>
    <path class="cls-8" d="M57.79,68.7l1.44,2.49c.05.08.05.18,0,.26l-1.44,2.46c-.1.17-.34.17-.44,0l-1.44-2.46c-.05-.08-.05-.18,0-.26l1.44-2.49c.1-.17.34-.17.44,0Z"/>
    <path class="cls-8" d="M60.41,73.23l1.44,2.49c.05.08.05.18,0,.26l-1.44,2.46c-.1.17-.34.17-.44,0l-1.44-2.46c-.05-.08-.05-.18,0-.26l1.44-2.49c.1-.17.34-.17.44,0Z"/>
    <path class="cls-8" d="M63.02,77.76l1.44,2.49c.05.08.05.18,0,.26l-1.44,2.46c-.1.17-.34.17-.44,0l-1.44-2.46c-.05-.08-.05-.18,0-.26l1.44-2.49c.1-.17.34-.17.44,0Z"/>
    <path class="cls-8" d="M65.64,82.3l1.44,2.49c.05.08.05.18,0,.26l-1.44,2.46c-.1.17-.34.17-.44,0l-1.44-2.46c-.05-.08-.05-.18,0-.26l1.44-2.49c.1-.17.34-.17.44,0Z"/>
    <path class="cls-8" d="M47.32,59.63l1.44,2.49c.05.08.05.18,0,.26l-1.44,2.46c-.1.17-.34.17-.44,0l-1.44-2.46c-.05-.08-.05-.18,0-.26l1.44-2.49c.1-.17.34-.17.44,0Z"/>
    <path class="cls-8" d="M49.94,64.16l1.44,2.49c.05.08.05.18,0,.26l-1.44,2.46c-.1.17-.34.17-.44,0l-1.44-2.46c-.05-.08-.05-.18,0-.26l1.44-2.49c.1-.17.34-.17.44,0Z"/>
    <path class="cls-8" d="M52.55,68.7l1.44,2.49c.05.08.05.18,0,.26l-1.44,2.46c-.1.17-.34.17-.44,0l-1.44-2.46c-.05-.08-.05-.18,0-.26l1.44-2.49c.1-.17.34-.17.44,0Z"/>
    <path class="cls-8" d="M55.17,73.23l1.44,2.49c.05.08.05.18,0,.26l-1.44,2.46c-.1.17-.34.17-.44,0l-1.44-2.46c-.05-.08-.05-.18,0-.26l1.44-2.49c.1-.17.34-.17.44,0Z"/>
    <path class="cls-8" d="M57.79,77.76l1.44,2.49c.05.08.05.18,0,.26l-1.44,2.46c-.1.17-.34.17-.44,0l-1.44-2.46c-.05-.08-.05-.18,0-.26l1.44-2.49c.1-.17.34-.17.44,0Z"/>
    <path class="cls-8" d="M60.41,82.3l1.44,2.49c.05.08.05.18,0,.26l-1.44,2.46c-.1.17-.34.17-.44,0l-1.44-2.46c-.05-.08-.05-.18,0-.26l1.44-2.49c.1-.17.34-.17.44,0Z"/>
    <path class="cls-8" d="M63.02,86.83l1.44,2.49c.05.08.05.18,0,.26l-1.44,2.46c-.1.17-.34.17-.44,0l-1.44-2.46c-.05-.08-.05-.18,0-.26l1.44-2.49c.1-.17.34-.17.44,0Z"/>
    <path class="cls-8" d="M44.7,64.16l1.44,2.49c.05.08.05.18,0,.26l-1.44,2.46c-.1.17-.34.17-.44,0l-1.44-2.46c-.05-.08-.05-.18,0-.26l1.44-2.49c.1-.17.34-.17.44,0Z"/>
    <path class="cls-8" d="M47.32,68.7l1.44,2.49c.05.08.05.18,0,.26l-1.44,2.46c-.1.17-.34.17-.44,0l-1.44-2.46c-.05-.08-.05-.18,0-.26l1.44-2.49c.1-.17.34-.17.44,0Z"/>
    <path class="cls-8" d="M49.94,73.23l1.44,2.49c.05.08.05.18,0,.26l-1.44,2.46c-.1.17-.34.17-.44,0l-1.44-2.46c-.05-.08-.05-.18,0-.26l1.44-2.49c.1-.17.34-.17.44,0Z"/>
    <path class="cls-8" d="M52.55,77.76l1.44,2.49c.05.08.05.18,0,.26l-1.44,2.46c-.1.17-.34.17-.44,0l-1.44-2.46c-.05-.08-.05-.18,0-.26l1.44-2.49c.1-.17.34-.17.44,0Z"/>
    <path class="cls-8" d="M55.17,82.3l1.44,2.49c.05.08.05.18,0,.26l-1.44,2.46c-.1.17-.34.17-.44,0l-1.44-2.46c-.05-.08-.05-.18,0-.26l1.44-2.49c.1-.17.34-.17.44,0Z"/>
    <path class="cls-8" d="M57.79,86.83l1.44,2.49c.05.08.05.18,0,.26l-1.44,2.46c-.1.17-.34.17-.44,0l-1.44-2.46c-.05-.08-.05-.18,0-.26l1.44-2.49c.1-.17.34-.17.44,0Z"/>
    <path class="cls-8" d="M42.08,68.69l1.44,2.49c.05.08.05.18,0,.26l-1.44,2.46c-.1.17-.34.17-.44,0l-1.44-2.46c-.05-.08-.05-.18,0-.26l1.44-2.49c.1-.17.34-.17.44,0Z"/>
    <path class="cls-8" d="M44.7,73.23l1.44,2.49c.05.08.05.18,0,.26l-1.44,2.46c-.1.17-.34.17-.44,0l-1.44-2.46c-.05-.08-.05-.18,0-.26l1.44-2.49c.1-.17.34-.17.44,0Z"/>
    <path class="cls-8" d="M47.32,77.76l1.44,2.49c.05.08.05.18,0,.26l-1.44,2.46c-.1.17-.34.17-.44,0l-1.44-2.46c-.05-.08-.05-.18,0-.26l1.44-2.49c.1-.17.34-.17.44,0Z"/>
    <path class="cls-8" d="M49.94,82.3l1.44,2.49c.05.08.05.18,0,.26l-1.44,2.46c-.1.17-.34.17-.44,0l-1.44-2.46c-.05-.08-.05-.18,0-.26l1.44-2.49c.1-.17.34-.17.44,0Z"/>
    <path class="cls-8" d="M39.47,73.23l1.44,2.49c.05.08.05.18,0,.26l-1.44,2.46c-.1.17-.34.17-.44,0l-1.44-2.46c-.05-.08-.05-.18,0-.26l1.44-2.49c.1-.17.34-.17.44,0Z"/>
    <path class="cls-8" d="M42.08,77.76l1.44,2.49c.05.08.05.18,0,.26l-1.44,2.46c-.1.17-.34.17-.44,0l-1.44-2.46c-.05-.08-.05-.18,0-.26l1.44-2.49c.1-.17.34-.17.44,0Z"/>
    <path class="cls-8" d="M44.7,82.3l1.44,2.49c.05.08.05.18,0,.26l-1.44,2.46c-.1.17-.34.17-.44,0l-1.44-2.46c-.05-.08-.05-.18,0-.26l1.44-2.49c.1-.17.34-.17.44,0Z"/>
    <path class="cls-8" d="M47.32,86.83l1.7,2.95c.05.08.05.18,0,.25-.51.91-1.02,1.69-1.53,2.35-.11.14-.33.13-.42-.03-.41-.7-1.35-2.32-1.63-2.79-.05-.08-.05-.18,0-.26l1.44-2.49c.1-.17.34-.17.44,0Z"/>
    <path class="cls-8" d="M36.85,77.76l1.44,2.49c.05.08.05.18,0,.26l-1.44,2.46c-.1.17-.34.17-.44,0l-1.44-2.46c-.05-.08-.05-.18,0-.26l1.44-2.49c.1-.17.34-.17.44,0Z"/>
    <path class="cls-8" d="M39.47,82.29l1.44,2.49c.05.08.05.18,0,.26l-1.44,2.46c-.1.17-.34.17-.44,0l-1.44-2.46c-.05-.08-.05-.18,0-.26l1.44-2.49c.1-.17.34-.17.44,0Z"/>
    <path class="cls-8" d="M42.08,86.83l1.44,2.49c.05.08.05.18,0,.26l-1.44,2.46c-.1.17-.34.17-.44,0l-1.44-2.46c-.05-.08-.05-.18,0-.26l1.44-2.49c.1-.17.34-.17.44,0Z"/>
    <path class="cls-8" d="M44.7,91.36l1.26,2.19c.06.11.04.26-.06.33-.67.5-1.43.89-2.28,1.18-.11.04-.24-.01-.3-.12l-.49-.84c-.05-.08-.05-.18,0-.26l1.44-2.49c.1-.17.34-.17.44,0Z"/>
    <path class="cls-8" d="M34.23,82.29l1.44,2.49c.05.08.05.18,0,.26l-1.44,2.46c-.1.17-.34.17-.44,0l-1.44-2.46c-.05-.08-.05-.18,0-.26l1.44-2.49c.1-.17.34-.17.44,0Z"/>
    <path class="cls-8" d="M36.85,86.83l1.44,2.49c.05.08.05.18,0,.26l-1.44,2.46c-.1.17-.34.17-.44,0l-1.44-2.46c-.05-.08-.05-.18,0-.26l1.44-2.49c.1-.17.34-.17.44,0Z"/>
    <path class="cls-8" d="M39.47,91.36l1.44,2.49c.05.08.05.18,0,.26l-.75,1.29c-.05.09-.15.14-.24.13-.55-.05-1.08-.13-1.56-.27-.06-.02-.12-.06-.15-.12-.13-.22-.45-.78-.6-1.03-.05-.08-.05-.18,0-.26l1.44-2.49c.1-.17.34-.17.44,0Z"/>
    <path class="cls-8" d="M32.51,90.49s-.7-.96-.9-2.9c-.03-.28.35-.39.48-.14l.96,1.87c.04.08.04.17,0,.25l-.54.93"/>
    <path class="cls-8" d="M34.23,91.36l1.04,1.81c.14.25-.16.51-.38.33-.48-.39-.93-.84-1.35-1.38-.06-.08-.07-.2-.02-.29l.24-.42c.12-.22.37-.22.47-.05Z"/>
    <path class="cls-8" d="M52.11,86.83l-1.7,2.95c-.05.08-.05.18,0,.25.51.91,1.02,1.69,1.53,2.35.11.14.33.13.42-.03l1.63-2.79c.05-.08.05-.18,0-.26l-1.44-2.49c-.1-.17-.34-.17-.44,0Z"/>
    <path class="cls-8" d="M54.73,91.36l-1.26,2.19c-.06.11-.04.26.06.33.67.5,1.43.89,2.28,1.18.11.04.24-.01.3-.12l.49-.84c.05-.08.05-.18,0-.26l-1.44-2.49c-.1-.17-.34-.17-.44,0Z"/>
    <path class="cls-8" d="M59.96,91.36l-1.44,2.49c-.05.08-.05.18,0,.26l.75,1.29c.05.09.15.14.24.13.55-.05,1.08-.13,1.56-.27.06-.02.12-.06.15-.12.13-.22.45-.78.6-1.03.05-.08.05-.18,0-.26l-1.44-2.49c-.1-.17-.34-.17-.44,0Z"/>
    <path class="cls-8" d="M66.92,90.5s.7-.96.9-2.9c.03-.28-.35-.39-.48-.14l-.96,1.87c-.04.08-.04.17,0,.25l.54.93"/>
    <path class="cls-8" d="M65.2,91.36l-1.04,1.81c-.14.25.16.51.38.33.48-.39.93-.84,1.35-1.38.06-.08.07-.2.02-.29l-.24-.42c-.12-.22-.37-.22-.47-.05Z"/>
    <path class="cls-8" d="M45.3,47.84h-2.87c-.09,0-.18-.05-.22-.13l-1.41-2.47c-.1-.17.03-.38.22-.38h2.85c.09-.01.18.04.22.11l1.44,2.49c.1.17-.02.38-.22.38Z"/>
    <path class="cls-8" d="M40.07,47.84h-2.87c-.09,0-.18-.05-.22-.13l-1.41-2.47c-.1-.17.03-.38.22-.38h2.85c.09-.01.18.04.22.11l1.44,2.49c.1.17-.02.38-.22.38Z"/>
    <path class="cls-8" d="M34.83,47.84h-2.87c-.09,0-.18-.05-.22-.13l-1.41-2.47c-.1-.17.03-.38.22-.38h2.85c.09-.01.18.04.22.11l1.44,2.49c.1.17-.02.38-.22.38Z"/>
    <path class="cls-8" d="M29.6,47.84h-2.87c-.09,0-.18-.05-.22-.13l-1.41-2.47c-.1-.17.03-.38.22-.38h2.85c.09-.01.18.04.22.11l1.44,2.49c.1.17-.02.38-.22.38Z"/>
    <path class="cls-8" d="M24.36,47.84h-2.87c-.09,0-.18-.05-.22-.13l-1.41-2.47c-.1-.17.03-.38.22-.38h2.85c.09-.01.18.04.22.11l1.44,2.49c.1.17-.02.38-.22.38Z"/>
    <path class="cls-8" d="M19.13,47.84h-2.87c-.09,0-.18-.05-.22-.13l-1.41-2.47c-.1-.17.03-.38.22-.38h2.85c.09-.01.18.04.22.11l1.44,2.49c.1.17-.02.38-.22.38Z"/>
    <path class="cls-8" d="M13.89,47.84h-2.87c-.09,0-.18-.05-.22-.13l-1.41-2.47c-.1-.17.03-.38.22-.38h2.85c.09-.01.18.04.22.11l1.44,2.49c.1.17-.02.38-.22.38Z"/>
    <path class="cls-8" d="M42.68,43.3h-2.87c-.09,0-.18-.05-.22-.13l-1.41-2.47c-.1-.17.03-.38.22-.38h2.85c.09-.01.18.04.22.11l1.44,2.49c.1.17-.02.38-.22.38Z"/>
    <path class="cls-8" d="M37.45,43.3h-2.87c-.09,0-.18-.05-.22-.13l-1.41-2.47c-.1-.17.03-.38.22-.38h2.85c.09-.01.18.04.22.11l1.44,2.49c.1.17-.02.38-.22.38Z"/>
    <path class="cls-8" d="M32.21,43.3h-2.87c-.09,0-.18-.05-.22-.13l-1.41-2.47c-.1-.17.03-.38.22-.38h2.85c.09-.01.18.04.22.11l1.44,2.49c.1.17-.02.38-.22.38Z"/>
    <path class="cls-8" d="M26.98,43.3h-2.87c-.09,0-.18-.05-.22-.13l-1.41-2.47c-.1-.17.03-.38.22-.38h2.85c.09-.01.18.04.22.11l1.44,2.49c.1.17-.02.38-.22.38Z"/>
    <path class="cls-8" d="M21.74,43.3h-2.87c-.09,0-.18-.05-.22-.13l-1.41-2.47c-.1-.17.03-.38.22-.38h2.85c.09-.01.18.04.22.11l1.44,2.49c.1.17-.02.38-.22.38Z"/>
    <path class="cls-8" d="M16.51,43.3h-2.87c-.09,0-.18-.05-.22-.13l-1.41-2.47c-.1-.17.03-.38.22-.38h2.85c.09-.01.18.04.22.11l1.44,2.49c.1.17-.02.38-.22.38Z"/>
    <path class="cls-8" d="M11.28,43.3h-2.87c-.09,0-.18-.05-.22-.13l-1.41-2.47c-.1-.17.03-.38.22-.38h2.85c.09-.01.18.04.22.11l1.44,2.49c.1.17-.02.38-.22.38Z"/>
    <path class="cls-8" d="M40.07,38.77h-2.87c-.09,0-.18-.05-.22-.13l-1.41-2.47c-.1-.17.03-.38.22-.38h2.85c.09-.01.18.04.22.11l1.44,2.49c.1.17-.02.38-.22.38Z"/>
    <path class="cls-8" d="M34.83,38.77h-2.87c-.09,0-.18-.05-.22-.13l-1.41-2.47c-.1-.17.03-.38.22-.38h2.85c.09-.01.18.04.22.11l1.44,2.49c.1.17-.02.38-.22.38Z"/>
    <path class="cls-8" d="M29.6,38.77h-2.87c-.09,0-.18-.05-.22-.13l-1.41-2.47c-.1-.17.03-.38.22-.38h2.85c.09-.01.18.04.22.11l1.44,2.49c.1.17-.02.38-.22.38Z"/>
    <path class="cls-8" d="M24.36,38.77h-2.87c-.09,0-.18-.05-.22-.13l-1.41-2.47c-.1-.17.03-.38.22-.38h2.85c.09-.01.18.04.22.11l1.44,2.49c.1.17-.02.38-.22.38Z"/>
    <path class="cls-8" d="M19.13,38.77h-2.87c-.09,0-.18-.05-.22-.13l-1.41-2.47c-.1-.17.03-.38.22-.38h2.85c.09-.01.18.04.22.11l1.44,2.49c.1.17-.02.38-.22.38Z"/>
    <path class="cls-8" d="M13.89,38.77h-2.87c-.09,0-.18-.05-.22-.13l-1.41-2.47c-.1-.17.03-.38.22-.38h2.85c.09-.01.18.04.22.11l1.44,2.49c.1.17-.02.38-.22.38Z"/>
    <path class="cls-8" d="M37.45,34.24h-2.87c-.09,0-.18-.05-.22-.13l-1.41-2.47c-.1-.17.03-.38.22-.38h2.85c.09-.01.18.04.22.11l1.44,2.49c.1.17-.02.38-.22.38Z"/>
    <path class="cls-8" d="M32.22,34.24h-2.87c-.09,0-.18-.05-.22-.13l-1.41-2.47c-.1-.17.03-.38.22-.38h2.85c.09-.01.18.04.22.11l1.44,2.49c.1.17-.02.38-.22.38Z"/>
    <path class="cls-8" d="M26.98,34.24h-2.87c-.09,0-.18-.05-.22-.13l-1.41-2.47c-.1-.17.03-.38.22-.38h2.85c.09-.01.18.04.22.11l1.44,2.49c.1.17-.02.38-.22.38Z"/>
    <path class="cls-8" d="M21.75,34.24h-2.87c-.09,0-.18-.05-.22-.13l-1.41-2.47c-.1-.17.03-.38.22-.38h2.85c.09-.01.18.04.22.11l1.44,2.49c.1.17-.02.38-.22.38Z"/>
    <path class="cls-8" d="M34.83,29.7h-2.87c-.09,0-.18-.05-.22-.13l-1.41-2.47c-.1-.17.03-.38.22-.38h2.85c.09-.01.18.04.22.11l1.44,2.49c.1.17-.02.38-.22.38Z"/>
    <path class="cls-8" d="M29.6,29.7h-2.87c-.09,0-.18-.05-.22-.13l-1.41-2.47c-.1-.17.03-.38.22-.38h2.85c.09-.01.18.04.22.11l1.44,2.49c.1.17-.02.38-.22.38Z"/>
    <path class="cls-8" d="M24.36,29.7h-2.87c-.09,0-.18-.05-.22-.13l-1.41-2.47c-.1-.17.03-.38.22-.38h2.85c.09-.01.18.04.22.11l1.44,2.49c.1.17-.02.38-.22.38Z"/>
    <path class="cls-8" d="M19.13,29.7h-3.41c-.09,0-.18-.05-.22-.13-.54-.9-.96-1.73-1.27-2.5-.07-.17.05-.35.23-.35.81,0,2.69-.01,3.23-.01.09,0,.18.05.22.13l1.44,2.49c.1.17-.02.38-.22.38Z"/>
    <path class="cls-8" d="M32.22,25.17h-2.87c-.09,0-.18-.05-.22-.13l-1.41-2.47c-.1-.17.03-.38.22-.38h2.85c.09-.01.18.04.22.11l1.44,2.49c.1.17-.02.38-.22.38Z"/>
    <path class="cls-8" d="M26.98,25.17h-2.87c-.09,0-.18-.05-.22-.13l-1.41-2.47c-.1-.17.03-.38.22-.38h2.85c.09-.01.18.04.22.11l1.44,2.49c.1.17-.02.38-.22.38Z"/>
    <path class="cls-8" d="M21.75,25.17h-2.87c-.09,0-.18-.05-.22-.13l-1.41-2.47c-.1-.17.03-.38.22-.38h2.85c.09-.01.18.04.22.11l1.44,2.49c.1.17-.02.38-.22.38Z"/>
    <path class="cls-8" d="M16.51,25.17h-2.53c-.13,0-.24-.09-.26-.22-.1-.83-.06-1.69.12-2.56.02-.12.13-.2.25-.21h.97c.09,0,.18.04.22.12l1.44,2.49c.1.17-.02.38-.22.38Z"/>
    <path class="cls-8" d="M29.6,20.64h-2.87c-.09,0-.18-.05-.22-.13l-1.41-2.47c-.1-.17.03-.38.22-.38h2.85c.09-.01.18.04.22.11l1.44,2.49c.1.17-.02.38-.22.38Z"/>
    <path class="cls-8" d="M24.36,20.64h-2.87c-.09,0-.18-.05-.22-.13l-1.41-2.47c-.1-.17.03-.38.22-.38h2.85c.09-.01.18.04.22.11l1.44,2.49c.1.17-.02.38-.22.38Z"/>
    <path class="cls-8" d="M19.13,20.64h-2.87c-.09,0-.18-.05-.22-.13l-.74-1.3c-.05-.09-.04-.19.01-.28.32-.45.65-.87,1.01-1.22.05-.05.11-.07.18-.07.25,0,.9,0,1.19,0,.09,0,.18.05.22.13l1.44,2.49c.1.17-.02.38-.22.38Z"/>
    <path class="cls-8" d="M23.36,15.04s1.18-.13,2.96.68c.26.12.16.5-.12.49l-2.1-.1c-.09,0-.17-.05-.21-.13l-.54-.94"/>
    <path class="cls-8" d="M21.75,16.1h-2.09c-.28,0-.36-.39-.09-.5.58-.22,1.2-.38,1.87-.48.1-.01.21.04.26.13l.24.42c.12.22,0,.43-.2.43Z"/>
    <path class="cls-8" d="M16.73,33.85l-1.7-2.95c-.05-.08-.13-.13-.22-.13-1.05-.02-1.98.04-2.8.15-.18.03-.28.22-.19.38.4.7,1.33,2.33,1.6,2.8.05.08.13.13.22.13h2.87c.2,0,.32-.21.22-.38Z"/>
    <path class="cls-8" d="M11.5,33.85l-1.26-2.19c-.06-.11-.2-.16-.32-.11-.77.33-1.49.8-2.16,1.39-.09.08-.11.22-.05.32l.48.84c.05.08.13.13.22.13h2.87c.2,0,.32-.21.22-.38Z"/>
    <path class="cls-8" d="M8.88,38.39l-1.44-2.49c-.05-.08-.13-.13-.22-.13h-1.49c-.1,0-.19.07-.23.16-.23.5-.42,1-.55,1.49-.02.06,0,.13.03.19.13.22.45.78.59,1.04.05.08.13.13.22.13h2.87c.2,0,.32-.21.22-.38Z"/>
    <path class="cls-8" d="M6.15,44.84s.48,1.09,2.07,2.23c.23.16.52-.11.36-.35l-1.14-1.77c-.05-.07-.13-.12-.22-.12h-1.08"/>
    <path class="cls-8" d="M6.26,42.92l-1.05-1.81c-.14-.25-.52-.11-.48.17.1.61.27,1.23.52,1.86.04.1.14.16.24.16h.49c.25,0,.37-.21.27-.38Z"/>
    <path class="cls-8" d="M54.13,52.42h2.87c.09,0,.18.05.22.13l1.41,2.47c.1.17-.03.38-.22.38h-2.85c-.09.01-.18-.04-.22-.11l-1.44-2.49c-.1-.17.02-.38.22-.38Z"/>
    <path class="cls-8" d="M59.36,52.42h2.87c.09,0,.18.05.22.13l1.41,2.47c.1.17-.03.38-.22.38h-2.85c-.09.01-.18-.04-.22-.11l-1.44-2.49c-.1-.17.02-.38.22-.38Z"/>
    <path class="cls-8" d="M64.6,52.42h2.87c.09,0,.18.05.22.13l1.41,2.47c.1.17-.03.38-.22.38h-2.85c-.09.01-.18-.04-.22-.11l-1.44-2.49c-.1-.17.02-.38.22-.38Z"/>
    <path class="cls-8" d="M69.83,52.42h2.87c.09,0,.18.05.22.13l1.41,2.47c.1.17-.03.38-.22.38h-2.85c-.09.01-.18-.04-.22-.11l-1.44-2.49c-.1-.17.02-.38.22-.38Z"/>
    <path class="cls-8" d="M75.07,52.42h2.87c.09,0,.18.05.22.13l1.41,2.47c.1.17-.03.38-.22.38h-2.85c-.09.01-.18-.04-.22-.11l-1.44-2.49c-.1-.17.02-.38.22-.38Z"/>
    <path class="cls-8" d="M80.3,52.42h2.87c.09,0,.18.05.22.13l1.41,2.47c.1.17-.03.38-.22.38h-2.85c-.09.01-.18-.04-.22-.11l-1.44-2.49c-.1-.17.02-.38.22-.38Z"/>
    <path class="cls-8" d="M85.54,52.42h2.87c.09,0,.18.05.22.13l1.41,2.47c.1.17-.03.38-.22.38h-2.85c-.09.01-.18-.04-.22-.11l-1.44-2.49c-.1-.17.02-.38.22-.38Z"/>
    <path class="cls-8" d="M56.74,56.95h2.87c.09,0,.18.05.22.13l1.41,2.47c.1.17-.03.38-.22.38h-2.85c-.09.01-.18-.04-.22-.11l-1.44-2.49c-.1-.17.02-.38.22-.38Z"/>
    <path class="cls-8" d="M61.98,56.95h2.87c.09,0,.18.05.22.13l1.41,2.47c.1.17-.03.38-.22.38h-2.85c-.09.01-.18-.04-.22-.11l-1.44-2.49c-.1-.17.02-.38.22-.38Z"/>
    <path class="cls-8" d="M67.21,56.95h2.87c.09,0,.18.05.22.13l1.41,2.47c.1.17-.03.38-.22.38h-2.85c-.09.01-.18-.04-.22-.11l-1.44-2.49c-.1-.17.02-.38.22-.38Z"/>
    <path class="cls-8" d="M72.45,56.95h2.87c.09,0,.18.05.22.13l1.41,2.47c.1.17-.03.38-.22.38h-2.85c-.09.01-.18-.04-.22-.11l-1.44-2.49c-.1-.17.02-.38.22-.38Z"/>
    <path class="cls-8" d="M77.68,56.95h2.87c.09,0,.18.05.22.13l1.41,2.47c.1.17-.03.38-.22.38h-2.85c-.09.01-.18-.04-.22-.11l-1.44-2.49c-.1-.17.02-.38.22-.38Z"/>
    <path class="cls-8" d="M82.92,56.95h2.87c.09,0,.18.05.22.13l1.41,2.47c.1.17-.03.38-.22.38h-2.85c-.09.01-.18-.04-.22-.11l-1.44-2.49c-.1-.17.02-.38.22-.38Z"/>
    <path class="cls-8" d="M88.15,56.95h2.87c.09,0,.18.05.22.13l1.41,2.47c.1.17-.03.38-.22.38h-2.85c-.09.01-.18-.04-.22-.11l-1.44-2.49c-.1-.17.02-.38.22-.38Z"/>
    <path class="cls-8" d="M59.36,61.49h2.87c.09,0,.18.05.22.13l1.41,2.47c.1.17-.03.38-.22.38h-2.85c-.09.01-.18-.04-.22-.11l-1.44-2.49c-.1-.17.02-.38.22-.38Z"/>
    <path class="cls-8" d="M64.6,61.49h2.87c.09,0,.18.05.22.13l1.41,2.47c.1.17-.03.38-.22.38h-2.85c-.09.01-.18-.04-.22-.11l-1.44-2.49c-.1-.17.02-.38.22-.38Z"/>
    <path class="cls-8" d="M69.83,61.49h2.87c.09,0,.18.05.22.13l1.41,2.47c.1.17-.03.38-.22.38h-2.85c-.09.01-.18-.04-.22-.11l-1.44-2.49c-.1-.17.02-.38.22-.38Z"/>
    <path class="cls-8" d="M75.07,61.49h2.87c.09,0,.18.05.22.13l1.41,2.47c.1.17-.03.38-.22.38h-2.85c-.09.01-.18-.04-.22-.11l-1.44-2.49c-.1-.17.02-.38.22-.38Z"/>
    <path class="cls-8" d="M80.3,61.49h2.87c.09,0,.18.05.22.13l1.41,2.47c.1.17-.03.38-.22.38h-2.85c-.09.01-.18-.04-.22-.11l-1.44-2.49c-.1-.17.02-.38.22-.38Z"/>
    <path class="cls-8" d="M85.54,61.49h2.87c.09,0,.18.05.22.13l1.41,2.47c.1.17-.03.38-.22.38h-2.85c-.09.01-.18-.04-.22-.11l-1.44-2.49c-.1-.17.02-.38.22-.38Z"/>
    <path class="cls-8" d="M61.98,66.02h2.87c.09,0,.18.05.22.13l1.41,2.47c.1.17-.03.38-.22.38h-2.85c-.09.01-.18-.04-.22-.11l-1.44-2.49c-.1-.17.02-.38.22-.38Z"/>
    <path class="cls-8" d="M67.21,66.02h2.87c.09,0,.18.05.22.13l1.41,2.47c.1.17-.03.38-.22.38h-2.85c-.09.01-.18-.04-.22-.11l-1.44-2.49c-.1-.17.02-.38.22-.38Z"/>
    <path class="cls-8" d="M72.45,66.02h2.87c.09,0,.18.05.22.13l1.41,2.47c.1.17-.03.38-.22.38h-2.85c-.09.01-.18-.04-.22-.11l-1.44-2.49c-.1-.17.02-.38.22-.38Z"/>
    <path class="cls-8" d="M77.68,66.02h2.87c.09,0,.18.05.22.13l1.41,2.47c.1.17-.03.38-.22.38h-2.85c-.09.01-.18-.04-.22-.11l-1.44-2.49c-.1-.17.02-.38.22-.38Z"/>
    <path class="cls-8" d="M64.6,70.55h2.87c.09,0,.18.05.22.13l1.41,2.47c.1.17-.03.38-.22.38h-2.85c-.09.01-.18-.04-.22-.11l-1.44-2.49c-.1-.17.02-.38.22-.38Z"/>
    <path class="cls-8" d="M69.83,70.55h2.87c.09,0,.18.05.22.13l1.41,2.47c.1.17-.03.38-.22.38h-2.85c-.09.01-.18-.04-.22-.11l-1.44-2.49c-.1-.17.02-.38.22-.38Z"/>
    <path class="cls-8" d="M75.07,70.55h2.87c.09,0,.18.05.22.13l1.41,2.47c.1.17-.03.38-.22.38h-2.85c-.09.01-.18-.04-.22-.11l-1.44-2.49c-.1-.17.02-.38.22-.38Z"/>
    <path class="cls-8" d="M80.3,70.55h3.41c.09,0,.18.05.22.13.54.9.96,1.73,1.27,2.5.07.17-.05.35-.23.35h-3.22c-.09.02-.18-.03-.22-.11l-1.44-2.49c-.1-.17.02-.38.22-.38Z"/>
    <path class="cls-8" d="M67.21,75.09h2.87c.09,0,.18.05.22.13l1.41,2.47c.1.17-.03.38-.22.38h-2.85c-.09.01-.18-.04-.22-.11l-1.44-2.49c-.1-.17.02-.38.22-.38Z"/>
    <path class="cls-8" d="M72.45,75.09h2.87c.09,0,.18.05.22.13l1.41,2.47c.1.17-.03.38-.22.38h-2.85c-.09.01-.18-.04-.22-.11l-1.44-2.49c-.1-.17.02-.38.22-.38Z"/>
    <path class="cls-8" d="M77.68,75.09h2.87c.09,0,.18.05.22.13l1.41,2.47c.1.17-.03.38-.22.38h-2.85c-.09.01-.18-.04-.22-.11l-1.44-2.49c-.1-.17.02-.38.22-.38Z"/>
    <path class="cls-8" d="M82.92,75.09h2.53c.13,0,.24.09.26.22.1.83.06,1.69-.12,2.56-.02.12-.13.2-.25.21h-.97c-.09,0-.18-.04-.22-.12l-1.44-2.49c-.1-.17.02-.38.22-.38Z"/>
    <path class="cls-8" d="M69.83,79.62h2.87c.09,0,.18.05.22.13l1.41,2.47c.1.17-.03.38-.22.38h-2.85c-.09.01-.18-.04-.22-.11l-1.44-2.49c-.1-.17.02-.38.22-.38Z"/>
    <path class="cls-8" d="M75.06,79.62h2.87c.09,0,.18.05.22.13l1.41,2.47c.1.17-.03.38-.22.38h-2.85c-.09.01-.18-.04-.22-.11l-1.44-2.49c-.1-.17.02-.38.22-.38Z"/>
    <path class="cls-8" d="M80.3,79.62h2.87c.09,0,.18.05.22.13l.74,1.3c.05.09.04.19-.01.28-.32.45-.65.87-1.01,1.22-.05.05-.11.07-.18.07-.25,0-.9,0-1.19,0-.09,0-.18-.05-.22-.13l-1.44-2.49c-.1-.17.02-.38.22-.38Z"/>
    <path class="cls-8" d="M76.07,85.21s-1.18.13-2.96-.68c-.26-.12-.16-.5.12-.49l2.1.1c.09,0,.17.05.21.13l.54.94"/>
    <path class="cls-8" d="M77.68,84.15h2.09c.28,0,.36.39.09.5-.58.22-1.2.38-1.87.48-.1.01-.21-.04-.26-.13l-.24-.42c-.12-.22,0-.43.2-.43Z"/>
    <path class="cls-8" d="M82.7,66.4l1.7,2.95c.05.08.13.13.22.13,1.05.02,1.98-.04,2.8-.15.18-.03.28-.22.19-.38l-1.6-2.8c-.05-.08-.13-.13-.22-.13h-2.87c-.2,0-.32.21-.22.38Z"/>
    <path class="cls-8" d="M87.93,66.4l1.26,2.19c.06.11.2.16.32.11.77-.33,1.49-.8,2.16-1.39.09-.08.11-.22.05-.32l-.48-.84c-.05-.08-.13-.13-.22-.13h-2.87c-.2,0-.32.21-.22.38Z"/>
    <path class="cls-8" d="M90.55,61.87l1.44,2.49c.05.08.13.13.22.13h1.49c.1,0,.19-.07.23-.16.23-.5.42-1,.55-1.49.02-.06,0-.13-.03-.19-.13-.22-.45-.78-.59-1.04-.05-.08-.13-.13-.22-.13h-2.87c-.2,0-.32.21-.22.38Z"/>
    <path class="cls-8" d="M93.28,55.41s-.48-1.09-2.07-2.23c-.23-.16-.52.11-.36.35l1.14,1.77c.05.07.13.12.22.12h1.08"/>
    <path class="cls-8" d="M93.17,57.34l1.05,1.81c.14.25.52.11.48-.17-.1-.61-.27-1.23-.52-1.86-.04-.1-.14-.16-.24-.16h-.54c-.2,0-.32.21-.22.38Z"/>
    <path class="cls-8" d="M45.52,52.8l-1.44,2.49c-.05.08-.13.13-.22.13h-2.85c-.2-.01-.32-.23-.22-.4l1.41-2.47c.05-.08.13-.13.22-.13h2.87c.2,0,.32.21.22.38Z"/>
    <path class="cls-8" d="M42.91,57.34l-1.44,2.49c-.05.08-.13.13-.22.13h-2.85c-.2-.01-.32-.23-.22-.4l1.41-2.47c.05-.08.13-.13.22-.13h2.87c.2,0,.32.21.22.38Z"/>
    <path class="cls-8" d="M40.29,61.87l-1.44,2.49c-.05.08-.13.13-.22.13h-2.85c-.2-.01-.32-.23-.22-.4l1.41-2.47c.05-.08.13-.13.22-.13h2.87c.2,0,.32.21.22.38Z"/>
    <path class="cls-8" d="M37.67,66.4l-1.44,2.49c-.05.08-.13.13-.22.13h-2.85c-.2-.01-.32-.23-.22-.4l1.41-2.47c.05-.08.13-.13.22-.13h2.87c.2,0,.32.21.22.38Z"/>
    <path class="cls-8" d="M35.05,70.94l-1.44,2.49c-.05.08-.13.13-.22.13h-2.85c-.2-.01-.32-.23-.22-.4l1.41-2.47c.05-.08.13-.13.22-.13h2.87c.2,0,.32.21.22.38Z"/>
    <path class="cls-8" d="M32.44,75.47l-1.44,2.49c-.05.08-.13.13-.22.13h-2.85c-.2-.01-.32-.23-.22-.4l1.41-2.47c.05-.08.13-.13.22-.13h2.87c.2,0,.32.21.22.38Z"/>
    <path class="cls-8" d="M29.82,80l-1.44,2.49c-.05.08-.13.13-.22.13h-2.85c-.2-.01-.32-.23-.22-.4l1.41-2.47c.05-.08.13-.13.22-.13h2.87c.2,0,.32.21.22.38Z"/>
    <path class="cls-8" d="M40.29,52.8l-1.44,2.49c-.05.08-.13.13-.22.13h-2.85c-.2-.01-.32-.23-.22-.4l1.41-2.47c.05-.08.13-.13.22-.13h2.87c.2,0,.32.21.22.38Z"/>
    <path class="cls-8" d="M37.67,57.34l-1.44,2.49c-.05.08-.13.13-.22.13h-2.85c-.2-.01-.32-.23-.22-.4l1.41-2.47c.05-.08.13-.13.22-.13h2.87c.2,0,.32.21.22.38Z"/>
    <path class="cls-8" d="M35.05,61.87l-1.44,2.49c-.05.08-.13.13-.22.13h-2.85c-.2-.01-.32-.23-.22-.4l1.41-2.47c.05-.08.13-.13.22-.13h2.87c.2,0,.32.21.22.38Z"/>
    <path class="cls-8" d="M32.44,66.4l-1.44,2.49c-.05.08-.13.13-.22.13h-2.85c-.2-.01-.32-.23-.22-.4l1.41-2.47c.05-.08.13-.13.22-.13h2.87c.2,0,.32.21.22.38Z"/>
    <path class="cls-8" d="M29.82,70.94l-1.44,2.49c-.05.08-.13.13-.22.13h-2.85c-.2-.01-.32-.23-.22-.4l1.41-2.47c.05-.08.13-.13.22-.13h2.87c.2,0,.32.21.22.38Z"/>
    <path class="cls-8" d="M27.2,75.47l-1.44,2.49c-.05.08-.13.13-.22.13h-2.85c-.2-.01-.32-.23-.22-.4l1.41-2.47c.05-.08.13-.13.22-.13h2.87c.2,0,.32.21.22.38Z"/>
    <path class="cls-8" d="M24.58,80l-1.44,2.49c-.05.08-.13.13-.22.13h-2.85c-.2-.01-.32-.23-.22-.4l1.41-2.47c.05-.08.13-.13.22-.13h2.87c.2,0,.32.21.22.38Z"/>
    <path class="cls-8" d="M35.05,52.8l-1.44,2.49c-.05.08-.13.13-.22.13h-2.85c-.2-.01-.32-.23-.22-.4l1.41-2.47c.05-.08.13-.13.22-.13h2.87c.2,0,.32.21.22.38Z"/>
    <path class="cls-8" d="M32.44,57.34l-1.44,2.49c-.05.08-.13.13-.22.13h-2.85c-.2-.01-.32-.23-.22-.4l1.41-2.47c.05-.08.13-.13.22-.13h2.87c.2,0,.32.21.22.38Z"/>
    <path class="cls-8" d="M29.82,61.87l-1.44,2.49c-.05.08-.13.13-.22.13h-2.85c-.2-.01-.32-.23-.22-.4l1.41-2.47c.05-.08.13-.13.22-.13h2.87c.2,0,.32.21.22.38Z"/>
    <path class="cls-8" d="M27.2,66.4l-1.44,2.49c-.05.08-.13.13-.22.13h-2.85c-.2-.01-.32-.23-.22-.4l1.41-2.47c.05-.08.13-.13.22-.13h2.87c.2,0,.32.21.22.38Z"/>
    <path class="cls-8" d="M24.58,70.94l-1.44,2.49c-.05.08-.13.13-.22.13h-2.85c-.2-.01-.32-.23-.22-.4l1.41-2.47c.05-.08.13-.13.22-.13h2.87c.2,0,.32.21.22.38Z"/>
    <path class="cls-8" d="M21.97,75.47l-1.44,2.49c-.05.08-.13.13-.22.13h-2.85c-.2-.01-.32-.23-.22-.4l1.41-2.47c.05-.08.13-.13.22-.13h2.87c.2,0,.32.21.22.38Z"/>
    <path class="cls-8" d="M29.82,52.8l-1.44,2.49c-.05.08-.13.13-.22.13h-2.85c-.2-.01-.32-.23-.22-.4l1.41-2.47c.05-.08.13-.13.22-.13h2.87c.2,0,.32.21.22.38Z"/>
    <path class="cls-8" d="M27.2,57.34l-1.44,2.49c-.05.08-.13.13-.22.13h-2.85c-.2-.01-.32-.23-.22-.4l1.41-2.47c.05-.08.13-.13.22-.13h2.87c.2,0,.32.21.22.38Z"/>
    <path class="cls-8" d="M24.58,61.87l-1.44,2.49c-.05.08-.13.13-.22.13h-2.85c-.2-.01-.32-.23-.22-.4l1.41-2.47c.05-.08.13-.13.22-.13h2.87c.2,0,.32.21.22.38Z"/>
    <path class="cls-8" d="M21.97,66.4l-1.44,2.49c-.05.08-.13.13-.22.13h-2.85c-.2-.01-.32-.23-.22-.4l1.41-2.47c.05-.08.13-.13.22-.13h2.87c.2,0,.32.21.22.38Z"/>
    <path class="cls-8" d="M24.59,52.8l-1.44,2.49c-.05.08-.13.13-.22.13h-2.85c-.2-.01-.32-.23-.22-.4l1.41-2.47c.05-.08.13-.13.22-.13h2.87c.2,0,.32.21.22.38Z"/>
    <path class="cls-8" d="M21.97,57.34l-1.44,2.49c-.05.08-.13.13-.22.13h-2.85c-.2-.01-.32-.23-.22-.4l1.41-2.47c.05-.08.13-.13.22-.13h2.87c.2,0,.32.21.22.38Z"/>
    <path class="cls-8" d="M19.35,61.87l-1.44,2.49c-.05.08-.13.13-.22.13h-2.85c-.2-.01-.32-.23-.22-.4l1.41-2.47c.05-.08.13-.13.22-.13h2.87c.2,0,.32.21.22.38Z"/>
    <path class="cls-8" d="M16.73,66.4l-1.7,2.95c-.05.08-.13.13-.22.13-1.05.02-1.98-.04-2.8-.15-.18-.03-.28-.22-.19-.38.4-.7,1.33-2.33,1.6-2.8.05-.08.13-.13.22-.13h2.87c.2,0,.32.21.22.38Z"/>
    <path class="cls-8" d="M19.35,52.8l-1.44,2.49c-.05.08-.13.13-.22.13h-2.85c-.2-.01-.32-.23-.22-.4l1.41-2.47c.05-.08.13-.13.22-.13h2.87c.2,0,.32.21.22.38Z"/>
    <path class="cls-8" d="M16.73,57.34l-1.44,2.49c-.05.08-.13.13-.22.13h-2.85c-.2-.01-.32-.23-.22-.4l1.41-2.47c.05-.08.13-.13.22-.13h2.87c.2,0,.32.21.22.38Z"/>
    <path class="cls-8" d="M14.12,61.87l-1.44,2.49c-.05.08-.13.13-.22.13h-2.85c-.2-.01-.32-.23-.22-.4l1.41-2.47c.05-.08.13-.13.22-.13h2.87c.2,0,.32.21.22.38Z"/>
    <path class="cls-8" d="M11.5,66.4l-1.26,2.19c-.06.11-.2.16-.32.11-.77-.33-1.49-.8-2.16-1.39-.09-.08-.11-.22-.05-.32l.48-.84c.05-.08.13-.13.22-.13h2.87c.2,0,.32.21.22.38Z"/>
    <path class="cls-8" d="M14.12,52.8l-1.44,2.49c-.05.08-.13.13-.22.13h-2.85c-.2-.01-.32-.23-.22-.4l1.41-2.47c.05-.08.13-.13.22-.13h2.87c.2,0,.32.21.22.38Z"/>
    <path class="cls-8" d="M11.5,57.34l-1.44,2.49c-.05.08-.13.13-.22.13h-2.85c-.2-.01-.32-.23-.22-.4l1.41-2.47c.05-.08.13-.13.22-.13h2.87c.2,0,.32.21.22.38Z"/>
    <path class="cls-8" d="M8.88,61.87l-1.44,2.49c-.05.08-.13.13-.22.13h-1.49c-.1,0-.19-.07-.23-.16-.23-.5-.42-1-.55-1.49-.02-.06,0-.13.03-.19.13-.22.45-.78.59-1.04.05-.08.13-.13.22-.13h2.87c.2,0,.32.21.22.38Z"/>
    <path class="cls-8" d="M6.15,55.41s.48-1.09,2.07-2.23c.23-.16.52.11.36.35l-1.14,1.77c-.05.07-.13.12-.22.12h-1.08"/>
    <path class="cls-8" d="M6.26,57.34l-1.05,1.81c-.14.25-.52.11-.48-.17.1-.61.27-1.23.52-1.86.04-.1.14-.16.24-.16h.49c.25,0,.37.21.27.38Z"/>
    <path class="cls-8" d="M19.13,70.55h-3.41c-.09,0-.18.05-.22.13-.54.9-.96,1.73-1.27,2.5-.07.17.05.35.23.35.81,0,2.69.01,3.23.01.09,0,.18-.05.22-.13l1.44-2.49c.1-.17-.02-.38-.22-.38Z"/>
    <path class="cls-8" d="M16.51,75.09h-2.53c-.13,0-.24.09-.26.22-.1.83-.06,1.69.12,2.56.02.12.13.2.25.21h.97c.09,0,.18-.04.22-.12l1.44-2.49c.1-.17-.02-.38-.22-.38Z"/>
    <path class="cls-8" d="M19.13,79.62h-2.87c-.09,0-.18.05-.22.13l-.74,1.3c-.05.09-.04.19.01.28.32.45.65.87,1.01,1.22.05.05.11.07.18.07.25,0,.9,0,1.19,0,.09,0,.18-.05.22-.13l1.44-2.49c.1-.17-.02-.38-.22-.38Z"/>
    <path class="cls-8" d="M23.36,85.21s1.18.13,2.96-.68c.26-.12.16-.5-.12-.49l-2.1.1c-.09,0-.17.05-.21.13l-.54.94"/>
    <path class="cls-8" d="M21.75,84.15h-2.09c-.28,0-.36.39-.09.5.58.22,1.2.38,1.87.48.1.01.21-.04.26-.13l.24-.42c.12-.22,0-.43-.2-.43Z"/>
    <path class="cls-8" d="M53.91,47.45l1.44-2.49c.05-.08.13-.13.22-.13h2.85c.2.01.32.23.22.4l-1.41,2.47c-.05.08-.13.13-.22.13h-2.87c-.2,0-.32-.21-.22-.38Z"/>
    <path class="cls-8" d="M56.52,42.92l1.44-2.49c.05-.08.13-.13.22-.13h2.85c.2.01.32.23.22.4l-1.41,2.47c-.05.08-.13.13-.22.13h-2.87c-.2,0-.32-.21-.22-.38Z"/>
    <path class="cls-8" d="M59.14,38.39l1.44-2.49c.05-.08.13-.13.22-.13h2.85c.2.01.32.23.22.4l-1.41,2.47c-.05.08-.13.13-.22.13h-2.87c-.2,0-.32-.21-.22-.38Z"/>
    <path class="cls-8" d="M61.76,33.85l1.44-2.49c.05-.08.13-.13.22-.13h2.85c.2.01.32.23.22.4l-1.41,2.47c-.05.08-.13.13-.22.13h-2.87c-.2,0-.32-.21-.22-.38Z"/>
    <path class="cls-8" d="M64.38,29.32l1.44-2.49c.05-.08.13-.13.22-.13h2.85c.2.01.32.23.22.4l-1.41,2.47c-.05.08-.13.13-.22.13h-2.87c-.2,0-.32-.21-.22-.38Z"/>
    <path class="cls-8" d="M66.99,24.78l1.44-2.49c.05-.08.13-.13.22-.13h2.85c.2.01.32.23.22.4l-1.41,2.47c-.05.08-.13.13-.22.13h-2.87c-.2,0-.32-.21-.22-.38Z"/>
    <path class="cls-8" d="M69.61,20.25l1.44-2.49c.05-.08.13-.13.22-.13h2.85c.2.01.32.23.22.4l-1.41,2.47c-.05.08-.13.13-.22.13h-2.87c-.2,0-.32-.21-.22-.38Z"/>
    <path class="cls-8" d="M59.14,47.45l1.44-2.49c.05-.08.13-.13.22-.13h2.85c.2.01.32.23.22.4l-1.41,2.47c-.05.08-.13.13-.22.13h-2.87c-.2,0-.32-.21-.22-.38Z"/>
    <path class="cls-8" d="M61.76,42.92l1.44-2.49c.05-.08.13-.13.22-.13h2.85c.2.01.32.23.22.4l-1.41,2.47c-.05.08-.13.13-.22.13h-2.87c-.2,0-.32-.21-.22-.38Z"/>
    <path class="cls-8" d="M64.38,38.39l1.44-2.49c.05-.08.13-.13.22-.13h2.85c.2.01.32.23.22.4l-1.41,2.47c-.05.08-.13.13-.22.13h-2.87c-.2,0-.32-.21-.22-.38Z"/>
    <path class="cls-8" d="M66.99,33.85l1.44-2.49c.05-.08.13-.13.22-.13h2.85c.2.01.32.23.22.4l-1.41,2.47c-.05.08-.13.13-.22.13h-2.87c-.2,0-.32-.21-.22-.38Z"/>
    <path class="cls-8" d="M69.61,29.32l1.44-2.49c.05-.08.13-.13.22-.13h2.85c.2.01.32.23.22.4l-1.41,2.47c-.05.08-.13.13-.22.13h-2.87c-.2,0-.32-.21-.22-.38Z"/>
    <path class="cls-8" d="M72.23,24.78l1.44-2.49c.05-.08.13-.13.22-.13h2.85c.2.01.32.23.22.4l-1.41,2.47c-.05.08-.13.13-.22.13h-2.87c-.2,0-.32-.21-.22-.38Z"/>
    <path class="cls-8" d="M74.85,20.25l1.44-2.49c.05-.08.13-.13.22-.13h2.85c.2.01.32.23.22.4l-1.41,2.47c-.05.08-.13.13-.22.13h-2.87c-.2,0-.32-.21-.22-.38Z"/>
    <path class="cls-8" d="M64.38,47.45l1.44-2.49c.05-.08.13-.13.22-.13h2.85c.2.01.32.23.22.4l-1.41,2.47c-.05.08-.13.13-.22.13h-2.87c-.2,0-.32-.21-.22-.38Z"/>
    <path class="cls-8" d="M66.99,42.92l1.44-2.49c.05-.08.13-.13.22-.13h2.85c.2.01.32.23.22.4l-1.41,2.47c-.05.08-.13.13-.22.13h-2.87c-.2,0-.32-.21-.22-.38Z"/>
    <path class="cls-8" d="M69.61,38.39l1.44-2.49c.05-.08.13-.13.22-.13h2.85c.2.01.32.23.22.4l-1.41,2.47c-.05.08-.13.13-.22.13h-2.87c-.2,0-.32-.21-.22-.38Z"/>
    <path class="cls-8" d="M72.23,33.85l1.44-2.49c.05-.08.13-.13.22-.13h2.85c.2.01.32.23.22.4l-1.41,2.47c-.05.08-.13.13-.22.13h-2.87c-.2,0-.32-.21-.22-.38Z"/>
    <path class="cls-8" d="M74.84,29.32l1.44-2.49c.05-.08.13-.13.22-.13h2.85c.2.01.32.23.22.4l-1.41,2.47c-.05.08-.13.13-.22.13h-2.87c-.2,0-.32-.21-.22-.38Z"/>
    <path class="cls-8" d="M77.46,24.78l1.44-2.49c.05-.08.13-.13.22-.13h2.85c.2.01.32.23.22.4l-1.41,2.47c-.05.08-.13.13-.22.13h-2.87c-.2,0-.32-.21-.22-.38Z"/>
    <path class="cls-8" d="M69.61,47.45l1.44-2.49c.05-.08.13-.13.22-.13h2.85c.2.01.32.23.22.4l-1.41,2.47c-.05.08-.13.13-.22.13h-2.87c-.2,0-.32-.21-.22-.38Z"/>
    <path class="cls-8" d="M72.23,42.92l1.44-2.49c.05-.08.13-.13.22-.13h2.85c.2.01.32.23.22.4l-1.41,2.47c-.05.08-.13.13-.22.13h-2.87c-.2,0-.32-.21-.22-.38Z"/>
    <path class="cls-8" d="M74.84,38.39l1.44-2.49c.05-.08.13-.13.22-.13h2.85c.2.01.32.23.22.4l-1.41,2.47c-.05.08-.13.13-.22.13h-2.87c-.2,0-.32-.21-.22-.38Z"/>
    <path class="cls-8" d="M77.46,33.85l1.44-2.49c.05-.08.13-.13.22-.13h2.85c.2.01.32.23.22.4l-1.41,2.47c-.05.08-.13.13-.22.13h-2.87c-.2,0-.32-.21-.22-.38Z"/>
    <path class="cls-8" d="M74.84,47.45l1.44-2.49c.05-.08.13-.13.22-.13h2.85c.2.01.32.23.22.4l-1.41,2.47c-.05.08-.13.13-.22.13h-2.87c-.2,0-.32-.21-.22-.38Z"/>
    <path class="cls-8" d="M77.46,42.92l1.44-2.49c.05-.08.13-.13.22-.13h2.85c.2.01.32.23.22.4l-1.41,2.47c-.05.08-.13.13-.22.13h-2.87c-.2,0-.32-.21-.22-.38Z"/>
    <path class="cls-8" d="M80.08,38.39l1.44-2.49c.05-.08.13-.13.22-.13h2.85c.2.01.32.23.22.4l-1.41,2.47c-.05.08-.13.13-.22.13h-2.87c-.2,0-.32-.21-.22-.38Z"/>
    <path class="cls-8" d="M82.7,33.85l1.7-2.95c.05-.08.13-.13.22-.13,1.05-.02,1.98.04,2.8.15.18.03.28.22.19.38l-1.6,2.8c-.05.08-.13.13-.22.13h-2.87c-.2,0-.32-.21-.22-.38Z"/>
    <path class="cls-8" d="M80.08,47.45l1.44-2.49c.05-.08.13-.13.22-.13h2.85c.2.01.32.23.22.4l-1.41,2.47c-.05.08-.13.13-.22.13h-2.87c-.2,0-.32-.21-.22-.38Z"/>
    <path class="cls-8" d="M82.7,42.92l1.44-2.49c.05-.08.13-.13.22-.13h2.85c.2.01.32.23.22.4l-1.41,2.47c-.05.08-.13.13-.22.13h-2.87c-.2,0-.32-.21-.22-.38Z"/>
    <path class="cls-8" d="M85.31,38.39l1.44-2.49c.05-.08.13-.13.22-.13h2.85c.2.01.32.23.22.4l-1.41,2.47c-.05.08-.13.13-.22.13h-2.87c-.2,0-.32-.21-.22-.38Z"/>
    <path class="cls-8" d="M87.93,33.85l1.26-2.19c.06-.11.2-.16.32-.11.77.33,1.49.8,2.16,1.39.09.08.11.22.05.32l-.48.84c-.05.08-.13.13-.22.13h-2.87c-.2,0-.32-.21-.22-.38Z"/>
    <path class="cls-8" d="M85.31,47.45l1.44-2.49c.05-.08.13-.13.22-.13h2.85c.2.01.32.23.22.4l-1.41,2.47c-.05.08-.13.13-.22.13h-2.87c-.2,0-.32-.21-.22-.38Z"/>
    <path class="cls-8" d="M87.93,42.92l1.44-2.49c.05-.08.13-.13.22-.13h2.85c.2.01.32.23.22.4l-1.41,2.47c-.05.08-.13.13-.22.13h-2.87c-.2,0-.32-.21-.22-.38Z"/>
    <path class="cls-8" d="M90.55,38.39l1.44-2.49c.05-.08.13-.13.22-.13h1.49c.1,0,.19.07.23.16.23.5.42,1,.55,1.49.02.06,0,.13-.03.19-.13.22-.45.78-.59,1.04-.05.08-.13.13-.22.13h-2.87c-.2,0-.32-.21-.22-.38Z"/>
    <path class="cls-8" d="M93.28,44.84s-.48,1.09-2.07,2.23c-.23.16-.52-.11-.36-.35l1.14-1.77c.05-.07.13-.12.22-.12h1.08"/>
    <path class="cls-8" d="M93.16,42.92l1.05-1.81c.14-.25.52-.11.48.17-.1.61-.27,1.23-.52,1.86-.04.1-.14.16-.24.16h-.54c-.2,0-.32-.21-.22-.38Z"/>
    <path class="cls-8" d="M80.3,29.7h3.41c.09,0,.18-.05.22-.13.54-.9.96-1.73,1.27-2.5.07-.17-.05-.35-.23-.35h-3.22c-.09-.02-.18.03-.22.11l-1.44,2.49c-.1.17.02.38.22.38Z"/>
    <path class="cls-8" d="M82.92,25.17h2.53c.13,0,.24-.09.26-.22.1-.83.06-1.69-.12-2.56-.02-.12-.13-.2-.25-.21h-.97c-.09,0-.18.04-.22.12l-1.44,2.49c-.1.17.02.38.22.38Z"/>
    <path class="cls-8" d="M80.3,20.64h2.87c.09,0,.18-.05.22-.13l.74-1.3c.05-.09.04-.19-.01-.28-.32-.45-.65-.87-1.01-1.22-.05-.05-.11-.07-.18-.07-.25,0-.9,0-1.19,0-.09,0-.18.05-.22.13l-1.44,2.49c-.1.17.02.38.22.38Z"/>
    <path class="cls-8" d="M76.07,15.04s-1.18-.13-2.96.68c-.26.12-.16.5.12.49l2.1-.1c.09,0,.17-.05.21-.13l.54-.94"/>
    <path class="cls-8" d="M77.68,16.1h2.09c.28,0,.36-.39.09-.5-.58-.22-1.2-.38-1.87-.48-.1-.01-.21.04-.26.13l-.24.42c-.12.22,0,.43.2.43Z"/>
  </g>
</svg>